<svg width="303.000000" height="25.000000" viewBox="0 0 303 25" fill="none" xmlns="http://www.w3.org/2000/svg" xmlns:xlink="http://www.w3.org/1999/xlink">
	<desc>
			Created with Pixso.
	</desc>
	<defs>
		<clipPath id="clip1_316">
			<rect id="follow" rx="5.000000" width="303.000000" height="25.000000" fill="white" fill-opacity="0"/>
		</clipPath>
	</defs>
	<rect id="follow" rx="5.000000" width="303.000000" height="25.000000" fill="#093094" fill-opacity="1.000000"/>
	<g clip-path="url(#clip1_316)">
		<path id="Following" d="M164.542 9.29639C164.542 9.73389 164.166 10.0894 163.708 10.0894C163.25 10.0894 162.871 9.73389 162.871 9.29639C162.871 8.85889 163.25 8.5 163.708 8.5C164.166 8.5 164.542 8.85889 164.542 9.29639ZM122.382 19L121.152 19L121.152 8.81787L127.256 8.81787L127.256 9.91162L122.382 9.91162L122.382 13.3535L126.798 13.3535L126.798 14.4473L122.382 14.4473L122.382 19ZM136.999 8.81787L138.172 8.81787L138.172 19L136.999 19L136.999 8.81787ZM140.32 8.81787L141.493 8.81787L141.493 19L140.32 19L140.32 8.81787ZM135.21 15.2231C135.21 17.5884 133.818 19.1606 131.751 19.1606C129.683 19.1606 128.288 17.5884 128.288 15.2231C128.288 12.834 129.683 11.2651 131.751 11.2651C133.818 11.2651 135.21 12.834 135.21 15.2231ZM150.204 15.2231C150.204 17.5884 148.813 19.1606 146.745 19.1606C144.677 19.1606 143.283 17.5884 143.283 15.2231C143.283 12.834 144.677 11.2651 146.745 11.2651C148.813 11.2651 150.204 12.834 150.204 15.2231ZM169.555 12.3179C168.431 12.3179 167.604 13.0732 167.604 14.4062L167.604 19L166.431 19L166.431 11.3643L167.566 11.3643L167.566 12.5571L167.665 12.5571C168.024 11.7812 168.738 11.2651 169.894 11.2651C171.439 11.2651 172.478 12.1982 172.478 14.1465L172.478 19L171.305 19L171.305 14.2285C171.305 13.0288 170.642 12.3179 169.555 12.3179ZM181.009 19.2188C181.009 21.1875 179.536 22.0215 177.707 22.0215C176.002 22.0215 175.062 21.2935 174.587 20.4902L175.52 19.834C175.834 20.2578 176.32 20.9893 177.707 20.9893C178.941 20.9893 179.837 20.4116 179.837 19.1401L179.837 17.5884L179.734 17.5884C179.478 18.0054 178.999 18.8804 177.509 18.8804C175.66 18.8804 174.265 17.5269 174.265 15.1411C174.265 12.7964 175.598 11.2651 177.53 11.2651C179.02 11.2651 179.498 12.1777 179.755 12.5776L179.874 12.5776L179.874 11.3643L181.009 11.3643L181.009 19.2188ZM154.62 19L153.465 19L151.14 11.3643L152.371 11.3643L154.022 17.209L154.104 17.209L155.734 11.3643L156.985 11.3643L158.595 17.1919L158.677 17.1919L160.328 11.3643L161.558 11.3643L159.234 19L158.079 19L156.408 13.1348L156.291 13.1348L154.62 19ZM164.283 19L163.11 19L163.11 11.3643L164.283 11.3643L164.283 19ZM129.464 15.2231C129.464 16.7544 130.178 18.1045 131.751 18.1045C133.319 18.1045 134.037 16.7544 134.037 15.2231C134.037 13.6919 133.319 12.3179 131.751 12.3179C130.178 12.3179 129.464 13.6919 129.464 15.2231ZM144.458 15.2231C144.458 16.7544 145.173 18.1045 146.745 18.1045C148.314 18.1045 149.032 16.7544 149.032 15.2231C149.032 13.6919 148.314 12.3179 146.745 12.3179C145.173 12.3179 144.458 13.6919 144.458 15.2231ZM175.441 15.1206C175.441 16.7134 176.197 17.8276 177.666 17.8276C179.078 17.8276 179.854 16.8125 179.854 15.1206C179.854 13.4731 179.098 12.3179 177.666 12.3179C176.176 12.3179 175.441 13.5723 175.441 15.1206Z" fill="#FFFFFF" fill-opacity="1.000000" fill-rule="evenodd"/>
	</g>
</svg>
