<svg width="303.000000" height="25.000000" viewBox="0 0 303 25" fill="none" xmlns="http://www.w3.org/2000/svg" xmlns:xlink="http://www.w3.org/1999/xlink">
	<desc>
			Created with Pixso.
	</desc>
	<defs>
		<clipPath id="clip1_314">
			<rect id="follow" rx="5.000000" width="303.000000" height="25.000000" transform="translate(0.000000 0.000000)" fill="white" fill-opacity="0"/>
		</clipPath>
	</defs>
	<rect id="follow" rx="5.000000" width="303.000000" height="25.000000" transform="translate(0.000000 0.000000)" fill="#2FBBE8" fill-opacity="1.000000"/>
	<g clip-path="url(#clip1_314)">
		<path id="Follow" d="M132.405 19L131.174 19L131.174 8.81787L137.279 8.81787L137.279 9.91162L132.405 9.91162L132.405 13.3535L136.821 13.3535L136.821 14.4473L132.405 14.4473L132.405 19ZM147.022 8.81787L148.194 8.81787L148.194 19L147.022 19L147.022 8.81787ZM150.343 8.81787L151.515 8.81787L151.515 19L150.343 19L150.343 8.81787ZM145.232 15.2231C145.232 17.5884 143.841 19.1606 141.773 19.1606C139.705 19.1606 138.311 17.5884 138.311 15.2231C138.311 12.834 139.705 11.2651 141.773 11.2651C143.841 11.2651 145.232 12.834 145.232 15.2231ZM160.227 15.2231C160.227 17.5884 158.836 19.1606 156.768 19.1606C154.7 19.1606 153.305 17.5884 153.305 15.2231C153.305 12.834 154.7 11.2651 156.768 11.2651C158.836 11.2651 160.227 12.834 160.227 15.2231ZM164.643 19L163.487 19L161.163 11.3643L162.394 11.3643L164.045 17.209L164.127 17.209L165.757 11.3643L167.008 11.3643L168.618 17.1919L168.7 17.1919L170.351 11.3643L171.581 11.3643L169.257 19L168.102 19L166.43 13.1348L166.314 13.1348L164.643 19ZM139.487 15.2231C139.487 16.7544 140.201 18.1045 141.773 18.1045C143.342 18.1045 144.06 16.7544 144.06 15.2231C144.06 13.6919 143.342 12.3179 141.773 12.3179C140.201 12.3179 139.487 13.6919 139.487 15.2231ZM154.481 15.2231C154.481 16.7544 155.195 18.1045 156.768 18.1045C158.337 18.1045 159.054 16.7544 159.054 15.2231C159.054 13.6919 158.337 12.3179 156.768 12.3179C155.195 12.3179 154.481 13.6919 154.481 15.2231Z" fill="#000000" fill-opacity="1.000000" fill-rule="evenodd"/>
	</g>
</svg>
