<svg width="85.000000" height="30.000000" viewBox="0 0 85 30" fill="none" xmlns="http://www.w3.org/2000/svg" xmlns:xlink="http://www.w3.org/1999/xlink">
	<desc>
			Created with Pixso.
	</desc>
	<defs>
		<clipPath id="clip1_297">
			<rect id="follow" rx="5.000000" width="85.000000" height="30.000000" fill="white" fill-opacity="0"/>
		</clipPath>
	</defs>
	<rect id="follow" rx="5.000000" width="85.000000" height="30.000000" fill="#2FBBE8" fill-opacity="1.000000"/>
	<g clip-path="url(#clip1_297)">
		<path id="Follow" d="M23.4047 21L22.1742 21L22.1742 10.8179L28.2787 10.8179L28.2787 11.9116L23.4047 11.9116L23.4047 15.3535L27.8207 15.3535L27.8207 16.4473L23.4047 16.4473L23.4047 21ZM38.0221 10.8179L39.1945 10.8179L39.1945 21L38.0221 21L38.0221 10.8179ZM41.3431 10.8179L42.5155 10.8179L42.5155 21L41.3431 21L41.3431 10.8179ZM36.2323 17.2231C36.2323 19.5884 34.8412 21.1606 32.7733 21.1606C30.7055 21.1606 29.3109 19.5884 29.3109 17.2231C29.3109 14.834 30.7055 13.2651 32.7733 13.2651C34.8412 13.2651 36.2323 14.834 36.2323 17.2231ZM51.2267 17.2231C51.2267 19.5884 49.8355 21.1606 47.7677 21.1606C45.6998 21.1606 44.3053 19.5884 44.3053 17.2231C44.3053 14.834 45.6998 13.2651 47.7677 13.2651C49.8355 13.2651 51.2267 14.834 51.2267 17.2231ZM55.6427 21L54.4874 21L52.1632 13.3643L53.3936 13.3643L55.0445 19.209L55.1266 19.209L56.7569 13.3643L58.0079 13.3643L59.6178 19.1919L59.6998 19.1919L61.3507 13.3643L62.5811 13.3643L60.2569 21L59.1017 21L57.4303 15.1348L57.3141 15.1348L55.6427 21ZM30.4867 17.2231C30.4867 18.7544 31.2011 20.1045 32.7733 20.1045C34.3422 20.1045 35.06 18.7544 35.06 17.2231C35.06 15.6919 34.3422 14.3179 32.7733 14.3179C31.2011 14.3179 30.4867 15.6919 30.4867 17.2231ZM45.481 17.2231C45.481 18.7544 46.1954 20.1045 47.7677 20.1045C49.3365 20.1045 50.0543 18.7544 50.0543 17.2231C50.0543 15.6919 49.3365 14.3179 47.7677 14.3179C46.1954 14.3179 45.481 15.6919 45.481 17.2231Z" fill="#000000" fill-opacity="1.000000" fill-rule="evenodd"/>
	</g>
</svg>
