<svg width="85.000000" height="30.000000" viewBox="0 0 85 30" fill="none" xmlns="http://www.w3.org/2000/svg" xmlns:xlink="http://www.w3.org/1999/xlink">
	<desc>
			Created with Pixso.
	</desc>
	<defs>
		<clipPath id="clip1_300">
			<rect id="follow" rx="5.000000" width="85.000000" height="30.000000" fill="white" fill-opacity="0"/>
		</clipPath>
	</defs>
	<rect id="follow" rx="5.000000" width="85.000000" height="30.000000" fill="#093094" fill-opacity="1.000000"/>
	<g clip-path="url(#clip1_300)">
		<path id="Following" d="M56.0423 11.2964C56.0423 11.7339 55.6663 12.0894 55.2083 12.0894C54.7503 12.0894 54.3709 11.7339 54.3709 11.2964C54.3709 10.8589 54.7503 10.5 55.2083 10.5C55.6663 10.5 56.0423 10.8589 56.0423 11.2964ZM13.882 21L12.6515 21L12.6515 10.8179L18.756 10.8179L18.756 11.9116L13.882 11.9116L13.882 15.3535L18.298 15.3535L18.298 16.4473L13.882 16.4473L13.882 21ZM28.4994 10.8179L29.6717 10.8179L29.6717 21L28.4994 21L28.4994 10.8179ZM31.8204 10.8179L32.9928 10.8179L32.9928 21L31.8204 21L31.8204 10.8179ZM26.7096 17.2231C26.7096 19.5884 25.3185 21.1606 23.2506 21.1606C21.1828 21.1606 19.7882 19.5884 19.7882 17.2231C19.7882 14.834 21.1828 13.2651 23.2506 13.2651C25.3185 13.2651 26.7096 14.834 26.7096 17.2231ZM41.7039 17.2231C41.7039 19.5884 40.3128 21.1606 38.2449 21.1606C36.1771 21.1606 34.7825 19.5884 34.7825 17.2231C34.7825 14.834 36.1771 13.2651 38.2449 13.2651C40.3128 13.2651 41.7039 14.834 41.7039 17.2231ZM61.0552 14.3179C59.9307 14.3179 59.1036 15.0732 59.1036 16.4062L59.1036 21L57.9312 21L57.9312 13.3643L59.066 13.3643L59.066 14.5571L59.1651 14.5571C59.524 13.7812 60.2383 13.2651 61.3936 13.2651C62.9385 13.2651 63.9776 14.1982 63.9776 16.1465L63.9776 21L62.8052 21L62.8052 16.2285C62.8052 15.0288 62.1421 14.3179 61.0552 14.3179ZM72.5091 21.2188C72.5091 23.1875 71.036 24.0215 69.2074 24.0215C67.5018 24.0215 66.5619 23.2935 66.0868 22.4902L67.0199 21.834C67.3343 22.2578 67.8197 22.9893 69.2074 22.9893C70.4413 22.9893 71.3368 22.4116 71.3368 21.1401L71.3368 19.5884L71.2342 19.5884C70.9779 20.0054 70.4994 20.8804 69.0091 20.8804C67.16 20.8804 65.7655 19.5269 65.7655 17.1411C65.7655 14.7964 67.0985 13.2651 69.0296 13.2651C70.5199 13.2651 70.9984 14.1777 71.2547 14.5776L71.3744 14.5776L71.3744 13.3643L72.5091 13.3643L72.5091 21.2188ZM46.1199 21L44.9647 21L42.6404 13.3643L43.8709 13.3643L45.5218 19.209L45.6038 19.209L47.2342 13.3643L48.4852 13.3643L50.095 19.1919L50.1771 19.1919L51.8279 13.3643L53.0584 13.3643L50.7342 21L49.5789 21L47.9075 15.1348L47.7913 15.1348L46.1199 21ZM55.7825 21L54.6102 21L54.6102 13.3643L55.7825 13.3643L55.7825 21ZM20.964 17.2231C20.964 18.7544 21.6784 20.1045 23.2506 20.1045C24.8195 20.1045 25.5372 18.7544 25.5372 17.2231C25.5372 15.6919 24.8195 14.3179 23.2506 14.3179C21.6784 14.3179 20.964 15.6919 20.964 17.2231ZM35.9583 17.2231C35.9583 18.7544 36.6727 20.1045 38.2449 20.1045C39.8138 20.1045 40.5316 18.7544 40.5316 17.2231C40.5316 15.6919 39.8138 14.3179 38.2449 14.3179C36.6727 14.3179 35.9583 15.6919 35.9583 17.2231ZM66.9413 17.1206C66.9413 18.7134 67.6966 19.8276 69.1664 19.8276C70.578 19.8276 71.3539 18.8125 71.3539 17.1206C71.3539 15.4731 70.5985 14.3179 69.1664 14.3179C67.6761 14.3179 66.9413 15.5723 66.9413 17.1206Z" fill="#FFFFFF" fill-opacity="1.000000" fill-rule="evenodd"/>
	</g>
</svg>
