<svg width="85.000000" height="30.000000" viewBox="0 0 85 30" fill="none" xmlns="http://www.w3.org/2000/svg" xmlns:xlink="http://www.w3.org/1999/xlink">
	<desc>
			Created with Pixso.
	</desc>
	<defs>
		<clipPath id="clip1_302">
			<rect id="follow" rx="5.000000" width="85.000000" height="30.000000" fill="white" fill-opacity="0"/>
		</clipPath>
	</defs>
	<rect id="follow" rx="5.000000" width="85.000000" height="30.000000" fill="#0B7741" fill-opacity="1.000000"/>
	<g clip-path="url(#clip1_302)">
		<path id="Follower" d="M17.3521 21L16.1217 21L16.1217 10.8179L22.2262 10.8179L22.2262 11.9116L17.3521 11.9116L17.3521 15.3535L21.7682 15.3535L21.7682 16.4473L17.3521 16.4473L17.3521 21ZM31.9695 10.8179L33.1419 10.8179L33.1419 21L31.9695 21L31.9695 10.8179ZM35.2906 10.8179L36.4629 10.8179L36.4629 21L35.2906 21L35.2906 10.8179ZM67.1476 21L65.9752 21L65.9752 13.3643L67.11 13.3643L67.11 14.5161L67.1886 14.5161C67.4689 13.7607 68.2618 13.2446 69.1779 13.2446C69.3522 13.2446 69.6598 13.2549 69.7931 13.2651L69.7931 14.458C69.7145 14.4375 69.3898 14.3794 69.0787 14.3794C67.9645 14.3794 67.1476 15.1348 67.1476 16.167L67.1476 21ZM30.1798 17.2231C30.1798 19.5884 28.7887 21.1606 26.7208 21.1606C24.6529 21.1606 23.2584 19.5884 23.2584 17.2231C23.2584 14.834 24.6529 13.2651 26.7208 13.2651C28.7887 13.2651 30.1798 14.834 30.1798 17.2231ZM45.1741 17.2231C45.1741 19.5884 43.783 21.1606 41.7151 21.1606C39.6472 21.1606 38.2527 19.5884 38.2527 17.2231C38.2527 14.834 39.6472 13.2651 41.7151 13.2651C43.783 13.2651 45.1741 14.834 45.1741 17.2231ZM64.0665 19.2295C63.7076 20.3848 62.5762 21.1606 61.0245 21.1606C58.8165 21.1606 57.4629 19.5884 57.4629 17.2402C57.4629 14.8955 58.837 13.2651 60.9048 13.2651C62.4942 13.2651 64.1861 14.2393 64.1861 17.083L64.1861 17.5786L58.6421 17.5786C58.6968 19.2158 59.647 20.1045 61.0245 20.1045C61.9439 20.1045 62.6343 19.708 62.9317 18.9116L64.0665 19.2295ZM49.5901 21L48.4348 21L46.1106 13.3643L47.3411 13.3643L48.992 19.209L49.074 19.209L50.7044 13.3643L51.9553 13.3643L53.5652 19.1919L53.6472 19.1919L55.2981 13.3643L56.5286 13.3643L54.2044 21L53.0491 21L51.3777 15.1348L51.2615 15.1348L49.5901 21ZM24.4342 17.2231C24.4342 18.7544 25.1485 20.1045 26.7208 20.1045C28.2896 20.1045 29.0074 18.7544 29.0074 17.2231C29.0074 15.6919 28.2896 14.3179 26.7208 14.3179C25.1485 14.3179 24.4342 15.6919 24.4342 17.2231ZM39.4285 17.2231C39.4285 18.7544 40.1428 20.1045 41.7151 20.1045C43.284 20.1045 44.0017 18.7544 44.0017 17.2231C44.0017 15.6919 43.284 14.3179 41.7151 14.3179C40.1428 14.3179 39.4285 15.6919 39.4285 17.2231ZM60.9048 14.3179C59.5616 14.3179 58.7207 15.3774 58.6421 16.5669L62.9932 16.5669C62.9932 15.2715 62.1763 14.3179 60.9048 14.3179Z" fill="#FFFFFF" fill-opacity="1.000000" fill-rule="evenodd"/>
	</g>
</svg>
