<svg width="303.000000" height="25.000000" viewBox="0 0 303 25" fill="none" xmlns="http://www.w3.org/2000/svg" xmlns:xlink="http://www.w3.org/1999/xlink">
	<desc>
			Created with Pixso.
	</desc>
	<defs>
		<clipPath id="clip1_318">
			<rect id="follow" rx="5.000000" width="303.000000" height="25.000000" fill="white" fill-opacity="0"/>
		</clipPath>
	</defs>
	<rect id="follow" rx="5.000000" width="303.000000" height="25.000000" fill="#0B7741" fill-opacity="1.000000"/>
	<g clip-path="url(#clip1_318)">
		<path id="Follower" d="M125.852 19L124.622 19L124.622 8.81787L130.726 8.81787L130.726 9.91162L125.852 9.91162L125.852 13.3535L130.268 13.3535L130.268 14.4473L125.852 14.4473L125.852 19ZM140.47 8.81787L141.642 8.81787L141.642 19L140.47 19L140.47 8.81787ZM143.791 8.81787L144.963 8.81787L144.963 19L143.791 19L143.791 8.81787ZM175.648 19L174.475 19L174.475 11.3643L175.61 11.3643L175.61 12.5161L175.689 12.5161C175.969 11.7607 176.762 11.2446 177.678 11.2446C177.852 11.2446 178.16 11.2549 178.293 11.2651L178.293 12.458C178.214 12.4375 177.89 12.3794 177.579 12.3794C176.464 12.3794 175.648 13.1348 175.648 14.167L175.648 19ZM138.68 15.2231C138.68 17.5884 137.289 19.1606 135.221 19.1606C133.153 19.1606 131.758 17.5884 131.758 15.2231C131.758 12.834 133.153 11.2651 135.221 11.2651C137.289 11.2651 138.68 12.834 138.68 15.2231ZM153.674 15.2231C153.674 17.5884 152.283 19.1606 150.215 19.1606C148.147 19.1606 146.753 17.5884 146.753 15.2231C146.753 12.834 148.147 11.2651 150.215 11.2651C152.283 11.2651 153.674 12.834 153.674 15.2231ZM172.566 17.2295C172.208 18.3848 171.076 19.1606 169.524 19.1606C167.316 19.1606 165.963 17.5884 165.963 15.2402C165.963 12.8955 167.337 11.2651 169.405 11.2651C170.994 11.2651 172.686 12.2393 172.686 15.083L172.686 15.5786L167.142 15.5786C167.197 17.2158 168.147 18.1045 169.524 18.1045C170.444 18.1045 171.134 17.708 171.432 16.9116L172.566 17.2295ZM158.09 19L156.935 19L154.611 11.3643L155.841 11.3643L157.492 17.209L157.574 17.209L159.204 11.3643L160.455 11.3643L162.065 17.1919L162.147 17.1919L163.798 11.3643L165.029 11.3643L162.704 19L161.549 19L159.878 13.1348L159.762 13.1348L158.09 19ZM132.934 15.2231C132.934 16.7544 133.649 18.1045 135.221 18.1045C136.79 18.1045 137.507 16.7544 137.507 15.2231C137.507 13.6919 136.79 12.3179 135.221 12.3179C133.649 12.3179 132.934 13.6919 132.934 15.2231ZM147.928 15.2231C147.928 16.7544 148.643 18.1045 150.215 18.1045C151.784 18.1045 152.502 16.7544 152.502 15.2231C152.502 13.6919 151.784 12.3179 150.215 12.3179C148.643 12.3179 147.928 13.6919 147.928 15.2231ZM169.405 12.3179C168.062 12.3179 167.221 13.3774 167.142 14.5669L171.493 14.5669C171.493 13.2715 170.676 12.3179 169.405 12.3179Z" fill="#FFFFFF" fill-opacity="1.000000" fill-rule="evenodd"/>
	</g>
</svg>
