<svg width="16.000000" height="16.000000" viewBox="0 0 16 16" fill="none" xmlns="http://www.w3.org/2000/svg" xmlns:xlink="http://www.w3.org/1999/xlink">
	<desc>
			Created with Pixso.
	</desc>
	<defs/>
	<path id="Vector" d="M9.33328 9.5013L9.33328 10.8946C8.72992 10.6813 8.08414 10.6159 7.45023 10.7038C6.81631 10.7918 6.21277 11.0305 5.69025 11.4001C5.16772 11.7696 4.74152 12.2592 4.44739 12.8276C4.15329 13.396 3.99985 14.0266 3.99997 14.6666L2.66663 14.666C2.66641 13.8519 2.85257 13.0486 3.21082 12.3176C3.56909 11.5865 4.0899 10.9473 4.73343 10.4486C5.37695 9.95004 6.12607 9.60538 6.9234 9.44106C7.7207 9.27673 8.54507 9.29778 9.33328 9.5013ZM7.99997 8.66663C5.78995 8.66663 3.99997 6.87663 3.99997 4.66663C3.99997 2.45662 5.78995 0.666626 7.99997 0.666626C10.21 0.666626 12 2.45662 12 4.66663C12 6.87663 10.21 8.66663 7.99997 8.66663ZM7.99997 7.3333C9.4733 7.3333 10.6666 6.13995 10.6666 4.66663C10.6666 3.1933 9.4733 1.99995 7.99997 1.99995C6.52661 1.99995 5.33328 3.1933 5.33328 4.66663C5.33328 6.13995 6.52661 7.3333 7.99997 7.3333ZM11.862 13.276L14.2186 10.9193L15.162 11.862L11.862 15.162L9.50464 12.8046L10.448 11.862L11.862 13.276Z" fill="#40FD3F" fill-opacity="1.000000" fill-rule="nonzero"/>
</svg>
