<svg width="25.000000" height="25.000000" viewBox="0 0 25 25" fill="none" xmlns="http://www.w3.org/2000/svg" xmlns:xlink="http://www.w3.org/1999/xlink">
	<desc>
			Created with Pixso.
	</desc>
	<defs>
		<clipPath id="clip157_22">
			<rect id="star 1" width="25.000000" height="25.000000" fill="white" fill-opacity="0"/>
		</clipPath>
	</defs>
	<rect id="star 1" width="25.000000" height="25.000000" fill="#FFFFFF" fill-opacity="0"/>
	<g clip-path="url(#clip157_22)">
		<path id="Vector" d="M24.9582 9.48322C24.8652 9.20544 24.6246 9.00311 24.3352 8.95862L16.65 7.78436L13.2066 0.449219C13.0777 0.174988 12.802 0 12.4992 0C12.1965 0 11.9211 0.174988 11.7918 0.449219L8.34843 7.78436L0.663284 8.95898C0.373825 9.00311 0.133591 9.20587 0.0402374 9.48358C-0.0527344 9.76093 0.0171814 10.0672 0.221878 10.277L5.80547 16.0023L4.48593 24.0898C4.4375 24.3851 4.5621 24.6824 4.80702 24.8543C4.94141 24.9492 5.09883 24.9973 5.25664 24.9973C5.38632 24.9973 5.5168 24.9645 5.63477 24.8996L12.4988 21.1031L19.3629 24.8996C19.4809 24.9645 19.6113 24.9973 19.741 24.9973C19.8988 24.9973 20.0566 24.9492 20.1906 24.8543C20.4355 24.6824 20.5602 24.3851 20.5117 24.0898L19.1922 16.0023L24.7758 10.277C24.9809 10.0668 25.0512 9.76056 24.9582 9.48322Z" fill="#9E69F5" fill-opacity="1.000000" fill-rule="nonzero"/>
	</g>
	<path id="4" d="M12.7083 16.9116L7.91633 16.9116L7.91633 15.8965L12.3904 8.81787L13.8807 8.81787L13.8807 15.8179L15.2718 15.8179L15.2718 16.9116L13.8807 16.9116L13.8807 19L12.7083 19L12.7083 16.9116ZM9.24592 15.8179L12.7083 15.8179L12.7083 10.3901L12.6263 10.3901L9.24592 15.7393L9.24592 15.8179Z" fill="#000000" fill-opacity="1.000000" fill-rule="evenodd"/>
	<path id="4" d="" fill="#FEFFAB" fill-opacity="1.000000" fill-rule="evenodd"/>
</svg>
