<svg width="25.000000" height="25.000000" viewBox="0 0 25 25" fill="none" xmlns="http://www.w3.org/2000/svg" xmlns:xlink="http://www.w3.org/1999/xlink">
	<desc>
			Created with Pixso.
	</desc>
	<defs>
		<clipPath id="clip157_28">
			<rect id="star 1" width="25.000000" height="25.000000" fill="white" fill-opacity="0"/>
		</clipPath>
	</defs>
	<rect id="star 1" width="25.000000" height="25.000000" fill="#FFFFFF" fill-opacity="0"/>
	<g clip-path="url(#clip157_28)">
		<path id="Vector" d="M24.9582 9.48322C24.8652 9.20544 24.6246 9.00311 24.3352 8.95862L16.65 7.78436L13.2066 0.449219C13.0777 0.174988 12.8019 0 12.4992 0C12.1965 0 11.9211 0.174988 11.7918 0.449219L8.34843 7.78436L0.663277 8.95898C0.373825 9.00311 0.133591 9.20587 0.0402298 9.48358C-0.0527344 9.76093 0.0171814 10.0672 0.22187 10.277L5.80547 16.0023L4.48593 24.0898C4.4375 24.3851 4.5621 24.6824 4.80703 24.8543C4.94141 24.9492 5.09882 24.9973 5.25664 24.9973C5.38632 24.9973 5.51679 24.9645 5.63477 24.8996L12.4988 21.1031L19.3629 24.8996C19.4809 24.9645 19.6113 24.9973 19.741 24.9973C19.8988 24.9973 20.0566 24.9492 20.1906 24.8543C20.4355 24.6824 20.5602 24.3851 20.5117 24.0898L19.1922 16.0023L24.7758 10.277C24.9809 10.0668 25.0512 9.76056 24.9582 9.48322Z" fill="#4FBC85" fill-opacity="1.000000" fill-rule="nonzero"/>
	</g>
	<path id="5" d="M15.9362 15.7598C15.9362 17.708 14.5143 19.1401 12.5729 19.1401C10.8229 19.1401 9.48651 18.0054 9.41131 16.4536L10.6042 16.4536C10.6999 17.373 11.5305 18.0464 12.5729 18.0464C13.8273 18.0464 14.7399 17.0859 14.7399 15.7769C14.7399 14.4473 13.7931 13.4629 12.4943 13.4526C11.8688 13.4458 11.1476 13.6646 10.7238 13.9688L9.57195 13.8286L10.1872 8.81787L15.4782 8.81787L15.4782 9.91162L11.2228 9.91162L10.8639 12.916L10.9221 12.916C11.3425 12.5811 12.0055 12.3384 12.6926 12.3384C14.5622 12.3384 15.9362 13.7842 15.9362 15.7598Z" fill="#000000" fill-opacity="1.000000" fill-rule="evenodd"/>
	<path id="5" d="" fill="#FEFFAB" fill-opacity="1.000000" fill-rule="evenodd"/>
</svg>
