<svg width="50" height="60" viewBox="0 0 50 60" fill="none" xmlns="http://www.w3.org/2000/svg">
<path fill-rule="evenodd" clip-rule="evenodd" d="M6.22114 23.3404L5.46062 23.8576C5.46062 23.8576 3.54868 20.4532 1.34798 23.5033C0.943484 24.0641 0.62268 25.926 1.00424 27.1275C1.52954 28.7819 2.91689 29.7856 2.99668 29.8653C2.99668 29.8653 2.16169 31.8314 2.46441 33.181C2.79183 34.6409 4.25909 35.4928 4.25909 35.4928C4.25909 35.4928 3.81464 37.4355 5.68876 38.6564C6.76405 39.3569 8.51984 39.7106 11.4836 39.8883C12.4747 39.9478 16.5467 42.105 19.1644 46.033C22.2963 50.7325 26.465 49.7137 26.465 49.7137L24.7767 51.1586C24.7767 51.1586 27.0399 53.2397 29.0353 52.2233C31.0701 51.1867 32.8377 47.052 32.8377 47.052L33.3853 55.98C33.3853 55.98 34.2781 54.8292 34.9823 53.4248C35.6617 52.0696 36.1534 50.459 36.1534 50.459C36.1534 50.459 36.439 52.7078 37.1268 54.307C37.9481 56.2164 39.1953 57.5313 39.1953 57.5313L44.0167 52.6187V50.1851C44.0167 50.1851 44.6532 48.9002 44.9901 47.417C45.2161 46.4225 44.9141 44.9227 44.9141 44.9227L48.3514 49.3638C48.3514 49.3638 49.5589 44.593 48.5339 40.4967C47.5664 36.6299 44.6096 35.6403 44.2449 32.451C44.0143 30.4344 45.1404 29.409 45.7353 28.2227C46.371 26.9553 46.8456 25.3937 46.8456 25.3937L45.9483 25.8348C45.9483 25.8348 46.2883 24.0831 46.3437 22.5648C46.4092 20.7747 46.1917 19.0362 46.1917 19.0362L44.0775 21.3936C44.0775 21.3936 44.434 17.8261 43.2563 14.9296C42.1185 12.1316 39.4579 10.0512 38.7695 7.30958C37.9483 4.03972 39.5299 1.02814 39.5299 1.02814C39.5299 1.02814 31.3265 4.72045 32.6857 11.3553C33.2094 13.9125 34.4406 15.5489 34.7237 16.9372C35.3278 19.8999 34.6172 20.8309 34.6172 20.8309C34.6172 20.8309 32.2019 19.2953 28.5791 19.5228C26.3685 19.6617 24.1765 20.4417 22.3431 21.0286C20.963 21.4705 19.6054 21.7739 19.6054 21.7739C19.6054 21.7739 18.7236 20.7525 17.613 19.4619C16.9101 18.6453 15.8862 17.8517 15.6662 16.7242C15.2554 14.6189 17.6003 14.8651 17.0655 10.0473C16.6022 5.87447 13.2022 4.51112 13.2022 4.51112C13.2022 4.51112 13.8319 7.06029 12.8221 9.69752C11.994 11.8601 9.51098 13.9197 9.35424 16.0551C9.05117 20.1867 11.8943 22.3367 11.8943 22.3367L11.2403 22.7168C11.2403 22.7168 9.97103 21.9721 8.24396 22.6255C6.98308 23.1027 6.3884 24.1466 6.3884 24.1466L6.22114 23.3404Z" fill="black"/>
<path fill-rule="evenodd" clip-rule="evenodd" d="M47.8495 47.2041L45.4465 43.9493C45.4465 43.9493 45.4114 40.8431 43.9407 38.5348C42.4608 36.2119 39.5452 34.6866 39.5452 34.6866L43.3323 32.2836C43.3323 32.2836 43.1394 33.624 44.0319 35.1278C44.9988 36.7567 47.0783 38.628 47.667 40.5728C48.7933 44.293 47.8495 47.2041 47.8495 47.2041ZM43.8494 28.5268L44.7772 27.9793C44.7772 27.9793 43.691 31.1397 41.4616 32.603C40.1571 33.4591 38.1253 33.1461 36.8682 33.5004C35.5742 33.865 34.9519 34.4281 34.9519 34.4281C34.9519 34.4281 35.1252 33.022 39.6973 29.9109C41.6762 28.5643 42.0395 26.9147 42.0395 26.9147C42.0395 26.9147 41.5037 27.3882 40.4424 27.8272C39.0062 28.4214 36.9291 29.0287 36.9291 29.0287L37.9025 27.8881C37.9025 27.8881 34.7004 28.4449 33.294 31.8121C32.5603 33.5689 34.005 38.1189 33.0355 39.4169C30.3215 43.0502 26.8148 42.7325 26.8148 42.7325C26.8148 42.7325 28.6827 41.7485 29.9327 40.4207C30.9852 39.3027 31.4537 37.8046 31.4537 37.8046C31.4537 37.8046 28.8762 38.2271 26.7083 37.7134C24.5114 37.1928 22.7234 35.7362 22.7234 35.7362C22.7234 35.7362 25.4654 34.8534 27.6513 33.4091C29.7448 32.0258 31.2864 30.0783 31.2864 30.0783L28.5487 30.2911C28.5487 30.2911 29.877 30.095 31.0127 29.3937C32.0653 28.7437 32.8567 27.6191 34.6173 26.8082C36.7189 25.8401 39.8839 25.159 41.5832 24.2378C45.1928 22.2811 45.3552 21.1806 45.3552 21.1806C45.3552 21.1806 45.5173 23.3417 45.2183 24.8005C44.7887 26.8967 43.8494 28.5268 43.8494 28.5268ZM30.7236 21.6065C29.5116 21.6823 28.8681 21.9715 28.8681 21.9715C28.8681 21.9715 29.9054 22.2656 30.4499 22.5799C31.3072 23.0749 31.8187 23.6751 31.8187 23.6751C31.8187 23.6751 29.4169 22.7527 27.8034 22.6104C26.0606 22.4566 25.0961 23.0818 25.0961 23.0818C25.0961 23.0818 26.5826 23.1813 27.5297 23.4773C28.528 23.7894 28.9897 24.2986 28.9897 24.2986C28.9897 24.2986 26.5904 24.33 24.7463 24.8005C22.8944 25.273 21.598 26.1846 21.598 26.1846L20.1531 25.2872L21.7956 23.6751C21.7956 23.6751 19.8745 23.8096 18.2975 24.3291C16.6662 24.8663 15.3773 25.7891 15.3773 25.7891C15.3773 25.7891 16.3695 25.6524 17.3241 25.7739C18.3374 25.9031 19.3166 26.291 19.3166 26.291L17.9324 27.0059C17.9324 27.0059 19.5543 27.1736 21.309 27.4318C22.7677 27.6463 24.2287 27.9546 25.7501 27.9946C29.0601 28.0814 31.2559 27.3557 31.2559 27.3557C31.2559 27.3557 29.8916 28.3095 27.9707 29.0136C26.0742 29.7087 23.6208 30.1543 23.6208 30.1543L26.7995 30.7779C26.7995 30.7779 25.4195 33.823 22.328 33.7894C19.0161 33.7533 15.8792 36.2533 15.8792 36.2533C15.8792 36.2533 17.8683 35.0498 22.769 37.7286C24.0515 38.4297 25.524 39.2803 26.6019 39.5233C28.2396 39.8926 29.2179 39.432 29.2179 39.432C29.2179 39.432 28.7786 41.0551 25.7654 40.8313C23.9103 40.6935 19.5585 38.7287 17.0502 38.3978C15.4195 38.1826 14.4778 38.9777 13.0502 38.9149C12.1293 38.8745 11.1329 38.4342 10.4189 38.413C8.9032 38.3682 8.12234 38.8085 8.12234 38.8085L9.43038 37.8959C9.43038 37.8959 7.10485 38.4041 5.50627 37.4852C4.77554 37.0651 6.4493 35.9491 6.4493 35.9491C6.4493 35.9491 4.51466 35.9431 4.77625 35.1582C4.80769 35.0638 4.89445 33.0121 11.4532 35.5993C12.6426 36.0684 14.4952 34.8388 14.4952 34.8388L13.1719 34.8084C13.1719 34.8084 14.0631 32.773 13.6738 31.2342C13.4004 30.1534 11.8907 29.3491 11.6053 29.5307C10.9135 29.971 10.8508 30.5134 9.61289 30.8539C7.78854 31.3558 5.24776 31.2798 5.24776 31.2798C5.24776 31.2798 11.1156 28.9751 10.0388 26.504C9.85414 26.0805 9.00911 25.7288 8.3961 26.139C7.23369 26.9168 5.9123 29.0602 4.53286 28.9983C4.11974 28.9798 3.60036 28.4493 3.45296 27.6447C3.30379 26.8295 3.93972 25.7587 3.93972 25.7587C3.93972 25.7587 3.93937 27.1317 4.88275 27.0059C5.34244 26.9446 7.0636 23.4797 9.15662 23.1275C12.3079 22.5972 11.5141 25.5306 11.5141 25.5306C11.5141 25.5306 11.9825 24.8674 12.092 24.1617C12.1868 23.5511 11.9247 22.8842 11.9247 22.8842C11.9247 22.8842 16.8709 23.0236 21.309 22.3214C23.5463 21.9674 23.3762 20.9992 26.9517 20.5115C32.1384 19.8039 34.2218 21.637 34.2218 21.637C34.2218 21.637 32.168 21.5163 30.7236 21.6065ZM15.6511 21.6826L12.7765 22.3974L16.9742 19.9487L18.7994 22.1084L14.6472 22.367L15.6511 21.6826ZM4.82187 25.5001C4.56466 25.5304 4.38346 24.3871 3.93972 24.466C1.99008 24.8119 3.14882 28.5877 3.14882 28.5877C3.14882 28.5877 2.15213 27.937 1.84078 26.8082C1.52093 25.6482 1.86892 23.9579 2.67731 23.4926C4.43227 22.4823 4.40792 24.1643 5.00438 24.618C5.35662 24.8859 5.79528 24.3291 5.79528 24.3291C5.79528 24.3291 5.69469 25.3975 4.82187 25.5001ZM4.71537 33.0288L4.25911 34.5041C4.25911 34.5041 3.66963 33.9615 3.52908 33.1353C3.42376 32.5165 3.75721 31.5535 3.75721 31.5535L4.71537 33.0288ZM17.2785 40.3447C18.7702 40.5676 20.0313 41.0442 20.0313 41.0442L18.7538 41.5157C18.7538 41.5157 20.1132 42.0557 21.2177 43.1431C22.4689 44.3752 23.5619 46.2245 25.0809 47.2193C26.9746 48.4596 28.6703 48.0102 28.6703 48.0102C28.6703 48.0102 25.9703 50.1548 22.617 48.3448C20.9287 47.4336 19.4875 44.5849 17.9629 42.9911C15.9851 40.9236 14.13 40.1621 14.13 40.1621C14.13 40.1621 15.82 40.1266 17.2785 40.3447ZM29.446 48.6642C30.7573 47.4818 32.0012 45.9417 32.0012 45.9417C32.0012 45.9417 31.7428 47.1898 31.0127 48.4817C30.1692 49.9739 28.8377 51.5388 28.8377 51.5388L26.176 51.0825C26.176 51.0825 27.9824 49.9838 29.446 48.6642ZM30.313 43.0519C32.2561 41.5475 33.977 39.1883 33.9024 39.3104C33.8376 39.4165 32.8499 42.3773 31.0278 44.0862C29.1045 45.8898 26.3433 46.4436 26.3433 46.4436C26.3433 46.4436 25.2645 44.9677 24.0011 43.645C23.0294 42.628 21.7956 41.6831 21.7956 41.6831L22.5562 41.5462L19.3469 39.9035C19.3469 39.9035 21.2275 40.1154 22.9668 40.7857C24.1255 41.2323 25.3851 42.2306 25.3851 42.2306H24.0314L26.9364 44.6337C26.9364 44.6337 28.7826 44.2368 30.313 43.0519ZM33.6439 43.3561C33.8368 39.9827 34.8606 38.3521 34.8606 38.3521C34.8606 38.3521 35.8891 42.9267 35.7123 46.0177C35.4614 50.4059 33.9785 53.7746 33.9785 53.7746C33.9785 53.7746 34.2169 51.6521 34.1001 49.2269C34.007 47.2905 33.5362 45.2378 33.6439 43.3561ZM37.0508 36.2381L39.7124 39.6145L38.1915 35.4015C38.1915 35.4015 41.5709 38.093 42.9216 40.9835C44.4429 44.2388 43.9559 47.7364 43.9559 47.7364L41.998 43.5979L43.2563 52.3145L40.2143 54.961C40.2143 54.961 40.2154 53.5377 40.1535 51.8734C40.114 50.8096 40.0014 49.2269 40.0014 49.2269L38.952 54.3221L38.2371 49.0597L37.4766 52.4666L35.834 37.5461L39.2105 43.8733L37.0508 36.2381Z" fill="#FCB862"/>
<path fill-rule="evenodd" clip-rule="evenodd" d="M42.5414 15.9334C43.3453 19.0444 42.9369 21.8803 42.9369 21.8803C42.9369 21.8803 42.4142 22.671 41.5528 23.2035C40.5017 23.8533 39.0736 24.2682 39.0736 24.2682C39.0736 24.2682 39.088 20.2343 38.0546 16.3136C37.6628 14.8267 36.9868 13.6777 36.4119 12.5265C35.8459 11.3925 35.3778 10.245 35.3778 10.245C35.3778 10.245 35.5181 11.167 36.1687 13.2109C36.6515 14.7281 37.7575 17.1216 37.4919 18.8537C36.8544 23.0099 32.8377 25.2264 32.8377 25.2264C32.8377 25.2264 35.8013 22.3044 35.9101 17.8194C35.9751 15.1385 32.9227 12.8699 33.431 8.90661C33.8904 5.32292 38.009 2.80756 38.009 2.80756C38.009 2.80756 36.8385 4.68959 37.9634 7.81158C38.8183 10.1847 41.9129 13.5009 42.5414 15.9334ZM16.4876 19.3251L15.2099 20.1768C15.2099 20.1768 14.4914 19.5206 13.9932 18.6407C13.5519 17.8612 13.324 16.846 13.324 16.846C13.324 16.846 13.2043 17.2639 13.2784 17.7585C13.3875 18.4873 13.7043 19.3859 13.7043 19.3859C13.7043 19.3859 12.8648 18.4836 12.4875 17.2414C12.2005 16.2966 12.3506 14.9295 12.3506 14.9295C12.3506 14.9295 11.5206 16.4977 11.5141 17.9106C11.5057 19.7187 12.3201 21.4696 12.3201 21.4696C12.3201 21.4696 9.94067 19.5261 10.4494 15.6748C10.6358 14.263 12.8345 12.1539 13.5521 10.5949C14.614 8.28794 14.2669 6.73167 14.2669 6.73167C14.2669 6.73167 15.8447 7.63971 16.229 10.6253C16.6577 13.9558 14.8121 14.6264 14.8145 16.3136C14.8173 18.2548 16.4876 19.3251 16.4876 19.3251ZM11.438 30.352C11.438 30.352 12.1807 31.161 12.2593 31.5535C12.3378 31.9461 11.2554 33.5156 11.2554 33.5156L10.6014 32.2076L10.0083 33.0745C10.0083 33.0745 9.62731 32.639 9.24788 32.6486C8.74102 32.6613 8.19835 33.1201 8.19835 33.1201C8.19835 33.1201 8.94173 33.0474 9.41514 33.181C9.88476 33.3135 10.0844 33.6525 10.0844 33.6525L10.6014 33.181L11.1491 34.1391L11.8031 33.6676C11.8031 33.6676 12.1859 34.9636 11.8943 35.143C11.5539 35.3524 9.71727 34.2834 9.14138 34.0479C8.56537 33.8124 5.03476 34.0175 5.03476 34.0175L5.5824 33.257L5.03476 31.9946C5.03476 31.9946 8.77932 31.8676 9.64327 31.5535C10.5072 31.2395 11.438 30.352 11.438 30.352Z" fill="white"/>
<path fill-rule="evenodd" clip-rule="evenodd" d="M21.7349 26.8994C21.7349 26.8994 25.9342 27.4276 27.3928 26.9907C28.9993 26.5096 27.8794 25.0591 27.8794 25.0591C27.8794 25.0591 26.2246 25.0619 24.7615 25.5001C23.1586 25.9803 21.7349 26.8994 21.7349 26.8994Z" fill="#FE2627"/>
</svg>
