<svg width="40" height="40" viewBox="0 0 40 40" fill="none" xmlns="http://www.w3.org/2000/svg">
<g clip-path="url(#clip0_279_1238)">
<path d="M20.0016 40.0033C31.0482 40.0033 40.0033 31.0482 40.0033 20.0016C40.0033 8.95503 31.0482 0 20.0016 0C8.95503 0 0 8.95503 0 20.0016C0 31.0482 8.95503 40.0033 20.0016 40.0033Z" fill="url(#paint0_linear_279_1238)"/>
<path fill-rule="evenodd" clip-rule="evenodd" d="M19.8587 20.648L19.8847 20.622H19.8522V20.596H19.8295H19.8067V20.622H19.7743L19.8002 20.648L19.7775 20.6707H19.8067H19.8522H19.8847L19.8587 20.648ZM19.8587 20.648L19.8847 20.622H19.8522V20.596H19.8295H19.8067V20.622H19.7743L19.8002 20.648L19.7775 20.6707H19.8067H19.8522H19.8847L19.8587 20.648ZM19.8587 20.648L19.8847 20.622H19.8522V20.596H19.8295H19.8067V20.622H19.7743L19.8002 20.648L19.7775 20.6707H19.8067H19.8522H19.8847L19.8587 20.648ZM19.8587 20.648L19.8847 20.622H19.8522V20.596H19.8295H19.8067V20.622H19.7743L19.8002 20.648L19.7775 20.6707H19.8067H19.8522H19.8847L19.8587 20.648ZM19.8587 20.648L19.8847 20.622H19.8522V20.596H19.8295H19.8067V20.622H19.7743L19.8002 20.648L19.7775 20.6707H19.8067H19.8522H19.8847L19.8587 20.648ZM19.8587 20.648L19.8847 20.622H19.8522V20.596H19.8295H19.8067V20.622H19.7743L19.8002 20.648L19.7775 20.6707H19.8067H19.8522H19.8847L19.8587 20.648ZM39.2757 14.6553C38.0936 10.4012 35.5374 6.65764 32.0053 4.00817C28.4733 1.35869 24.164 -0.0478607 19.7491 0.00775249C15.3341 0.0633656 11.0616 1.57802 7.59748 4.31562C4.13333 7.05323 1.67218 10.86 0.597645 15.1425C-0.141582 18.0916 -0.198654 21.1705 0.430769 24.145C1.06019 27.1195 2.35954 29.9113 4.23002 32.3082C6.1005 34.7051 8.49286 36.644 11.2252 37.9774C13.9576 39.3108 16.958 40.0036 19.9984 40.0033C23.0794 40.0013 26.1184 39.2879 28.8784 37.9187C31.6385 36.5495 34.0452 34.5614 35.9108 32.1095C37.7765 29.6576 39.0508 26.8079 39.6345 23.7827C40.2181 20.7575 40.0953 17.6383 39.2757 14.6683V14.6553ZM30.2071 30.8567C28.4378 32.5238 26.2873 33.7324 23.9434 34.3771C21.5995 35.0217 19.1335 35.0828 16.7605 34.555C14.3876 34.0271 12.1799 32.9264 10.3303 31.349C8.48068 29.7715 7.04534 27.7652 6.1496 25.5054C5.25386 23.2455 4.92495 20.8006 5.19159 18.3844C5.45823 15.9681 6.31232 13.6538 7.67927 11.6436C9.04623 9.63344 10.8845 7.98842 13.0336 6.85222C15.1826 5.71602 17.5772 5.12318 20.0081 5.12547C21.9617 5.12547 23.8961 5.51025 25.701 6.25785C27.5058 7.00544 29.1458 8.10121 30.5272 9.48259C31.9085 10.864 33.0043 12.5039 33.7519 14.3088C34.4995 16.1136 34.8843 18.0481 34.8843 20.0016C34.8912 22.0351 34.4796 24.0482 33.6749 25.9157C32.8702 27.7832 31.6898 29.4651 30.2071 30.8567ZM19.8587 20.6415L19.8847 20.6155H19.8522V20.5895H19.8295H19.8067V20.6155H19.7743L19.8002 20.6415L19.7775 20.6642H19.8067H19.8522H19.8847L19.8587 20.6415ZM19.8587 20.6415L19.8847 20.6155H19.8522V20.5895H19.8295H19.8067V20.6155H19.7743L19.8002 20.6415L19.7775 20.6642H19.8067H19.8522H19.8847L19.8587 20.6415ZM19.8587 20.6415L19.8847 20.6155H19.8522V20.5895H19.8295H19.8067V20.6155H19.7743L19.8002 20.6415L19.7775 20.6642H19.8067H19.8522H19.8847L19.8587 20.6415ZM19.8587 20.6415L19.8847 20.6155H19.8522V20.5895H19.8295H19.8067V20.6155H19.7743L19.8002 20.6415L19.7775 20.6642H19.8067H19.8522H19.8847L19.8587 20.6415ZM19.8587 20.6415L19.8847 20.6155H19.8522V20.5895H19.8295H19.8067V20.6155H19.7743L19.8002 20.6415L19.7775 20.6642H19.8067H19.8522H19.8847L19.8587 20.6415Z" fill="url(#paint1_linear_279_1238)"/>
<path fill-rule="evenodd" clip-rule="evenodd" d="M20.0536 20.6805L20.0211 20.6707L20.0276 20.6967L20.0049 20.6772L19.9984 20.7129L19.9919 20.6805L19.9691 20.7L19.9756 20.674L19.9464 20.6805L19.9691 20.6577L19.9432 20.648L19.9691 20.6415L19.9432 20.6155L19.9756 20.6285L19.9691 20.6025L19.9919 20.6188L19.9984 20.5863L20.0049 20.6188L20.0276 20.6025L20.0211 20.6285L20.0536 20.6155L20.0276 20.6415L20.0568 20.648L20.0276 20.6577L20.0536 20.6805Z" fill="url(#paint2_linear_279_1238)"/>
<path style="mix-blend-mode:multiply" opacity="0.88" fill-rule="evenodd" clip-rule="evenodd" d="M20.0016 5.67114C17.1673 5.67114 14.3967 6.51161 12.04 8.08627C9.68339 9.66092 7.84662 11.899 6.76198 14.5176C5.67734 17.1361 5.39354 20.0175 5.94649 22.7974C6.49944 25.5772 7.86428 28.1307 9.86844 30.1348C11.8726 32.139 14.426 33.5038 17.2059 34.0568C19.9857 34.6097 22.8671 34.3259 25.4857 33.2413C28.1042 32.1566 30.3423 30.3199 31.917 27.9632C33.4916 25.6066 34.3321 22.8359 34.3321 20.0016C34.3321 16.201 32.8223 12.5559 30.1348 9.86845C27.4473 7.18096 23.8023 5.67114 20.0016 5.67114ZM20.0016 33.0361C17.4236 33.0361 14.9036 32.2717 12.76 30.8394C10.6165 29.4072 8.94586 27.3715 7.95931 24.9897C6.97276 22.608 6.71463 19.9872 7.21757 17.4587C7.72051 14.9303 8.96192 12.6078 10.7848 10.7848C12.6077 8.96193 14.9303 7.72052 17.4587 7.21758C19.9872 6.71464 22.608 6.97277 24.9897 7.95932C27.3715 8.94587 29.4072 10.6165 30.8394 12.76C32.2717 14.9036 33.0361 17.4237 33.0361 20.0016C33.0361 23.4586 31.6629 26.774 29.2184 29.2184C26.774 31.6629 23.4586 33.0361 20.0016 33.0361Z" fill="url(#paint3_linear_279_1238)"/>
<path style="mix-blend-mode:screen" opacity="0.5" fill-rule="evenodd" clip-rule="evenodd" d="M20.0016 6.2915C12.0861 6.2915 5.67113 12.0861 5.67113 20.0016C5.67113 23.8023 7.18095 27.4473 9.86844 30.1348C12.5559 32.8223 16.2009 34.3321 20.0016 34.3321C23.8023 34.3321 27.4473 32.8223 30.1348 30.1348C32.8223 27.4473 34.3321 23.8023 34.3321 20.0016C34.3321 12.0861 27.9139 6.2915 20.0016 6.2915ZM19.8879 33.3772C12.687 33.3772 6.96712 27.2058 6.96712 20.0016C6.96712 16.5446 8.34039 13.2293 10.7848 10.7848C13.2293 8.34038 16.5447 6.9671 20.0016 6.9671C23.4586 6.9671 26.774 8.34038 29.2184 10.7848C31.6629 13.2293 33.0361 16.5446 33.0361 20.0016C33.0361 27.1993 27.0857 33.3772 19.8879 33.3772Z" fill="url(#paint4_linear_279_1238)"/>
<g style="mix-blend-mode:multiply" opacity="0.88">
<path fill-rule="evenodd" clip-rule="evenodd" d="M6.70078 14.0447C6.70078 14.0447 10.7511 6.29152 19.7353 6.29152C28.7195 6.29152 33.3025 15.3861 33.3025 15.3861C33.3025 15.3861 30.2071 5.67114 19.7353 5.67114C9.2635 5.67114 6.70078 14.0447 6.70078 14.0447Z" fill="#CE838D"/>
</g>
<path fill-rule="evenodd" clip-rule="evenodd" d="M14.4929 0.769785V3.05968C14.4929 3.05968 16.4417 3.73852 20.0146 3.73852C23.6882 3.73852 25.5363 3.05968 25.5363 3.05968V0.786026C21.929 -0.251292 18.1032 -0.256918 14.4929 0.769785Z" fill="white"/>
<path fill-rule="evenodd" clip-rule="evenodd" d="M25.5071 39.2334V36.9436C25.5071 36.9436 23.5583 36.2647 19.9854 36.2647C16.3086 36.2647 14.4637 36.9436 14.4637 36.9436V39.2172C18.0707 40.2561 21.897 40.2617 25.5071 39.2334Z" fill="white"/>
<path fill-rule="evenodd" clip-rule="evenodd" d="M33.5948 5.32358L31.646 6.51237C31.646 6.51237 32.0812 8.53917 33.9196 11.5729C35.8132 14.717 37.3528 15.9318 37.3528 15.9318L39.3017 14.7462C38.3134 11.1354 36.337 7.87212 33.5948 5.32358Z" fill="white"/>
<path fill-rule="evenodd" clip-rule="evenodd" d="M6.40519 34.6797L8.35404 33.4909C8.35404 33.4909 7.91555 31.4641 6.08039 28.4304C4.18676 25.2862 2.65692 24.0682 2.65692 24.0682L0.708076 25.257C1.6936 28.8667 3.66659 32.1299 6.40519 34.6797Z" fill="white"/>
<path fill-rule="evenodd" clip-rule="evenodd" d="M39.3796 24.9777L37.4015 23.8181C37.4015 23.8181 35.823 25.1661 34.03 28.2257C32.1721 31.3959 31.8311 33.322 31.8311 33.322L33.8059 34.4783C36.5125 31.8924 38.443 28.6019 39.3796 24.9777Z" fill="white"/>
<path fill-rule="evenodd" clip-rule="evenodd" d="M0.623627 15.0256L2.59845 16.1851C2.59845 16.1851 4.17377 14.834 5.9667 11.7743C7.8246 8.60415 8.1689 6.68129 8.1689 6.68129L6.19732 5.52173C3.48881 8.10738 1.55808 11.3995 0.623627 15.0256Z" fill="white"/>
<g style="mix-blend-mode:multiply" opacity="0.5">
<path fill-rule="evenodd" clip-rule="evenodd" d="M0.649612 25.1173C0.649612 25.1173 4.66098 39.3699 20.0146 39.2335C36.164 39.0873 39.3764 24.9225 39.3764 24.9225C39.3764 24.9225 36.0049 40.0033 19.9854 40.0033C3.96589 40.0033 0.649612 25.1173 0.649612 25.1173Z" fill="#22006B"/>
</g>
<path d="M28.8136 4.90782C29.0863 4.90782 29.3073 4.68678 29.3073 4.41412C29.3073 4.14145 29.0863 3.92041 28.8136 3.92041C28.541 3.92041 28.3199 4.14145 28.3199 4.41412C28.3199 4.68678 28.541 4.90782 28.8136 4.90782Z" fill="#FFA700"/>
<path d="M11.4105 4.90782C11.6831 4.90782 11.9042 4.68678 11.9042 4.41412C11.9042 4.14145 11.6831 3.92041 11.4105 3.92041C11.1378 3.92041 10.9168 4.14145 10.9168 4.41412C10.9168 4.68678 11.1378 4.90782 11.4105 4.90782Z" fill="#FFA700"/>
<path d="M28.8136 35.1734C29.0863 35.1734 29.3073 34.9523 29.3073 34.6796C29.3073 34.407 29.0863 34.1859 28.8136 34.1859C28.541 34.1859 28.3199 34.407 28.3199 34.6796C28.3199 34.9523 28.541 35.1734 28.8136 35.1734Z" fill="#FFA700"/>
<path fill-rule="evenodd" clip-rule="evenodd" d="M38.3272 19.8749C38.3279 19.9727 38.2995 20.0685 38.2456 20.1501C38.1918 20.2317 38.1149 20.2955 38.0247 20.3334C37.9346 20.3713 37.8352 20.3815 37.7392 20.3628C37.6432 20.3441 37.555 20.2974 37.4856 20.2285C37.4162 20.1595 37.3689 20.0716 37.3496 19.9757C37.3303 19.8799 37.3398 19.7804 37.3771 19.69C37.4144 19.5996 37.4777 19.5223 37.5589 19.4679C37.6402 19.4135 37.7358 19.3845 37.8335 19.3845C37.9639 19.3845 38.089 19.4361 38.1815 19.5279C38.274 19.6198 38.3264 19.7446 38.3272 19.8749Z" fill="#FFA700"/>
<path fill-rule="evenodd" clip-rule="evenodd" d="M2.81283 19.8749C2.8244 19.9456 2.82047 20.0179 2.80132 20.0869C2.78216 20.1559 2.74823 20.2198 2.70189 20.2744C2.65554 20.329 2.59788 20.3728 2.53291 20.4028C2.46794 20.4329 2.3972 20.4485 2.32562 20.4485C2.25403 20.4485 2.1833 20.4329 2.11832 20.4028C2.05335 20.3728 1.99569 20.329 1.94935 20.2744C1.903 20.2198 1.86907 20.1559 1.84991 20.0869C1.83076 20.0179 1.82683 19.9456 1.83841 19.8749C1.85734 19.7594 1.91673 19.6543 2.00598 19.5785C2.09523 19.5027 2.20851 19.4611 2.32562 19.4611C2.44272 19.4611 2.55601 19.5027 2.64525 19.5785C2.7345 19.6543 2.79389 19.7594 2.81283 19.8749Z" fill="#FFA700"/>
<path d="M11.4105 35.1734C11.6831 35.1734 11.9042 34.9523 11.9042 34.6796C11.9042 34.407 11.6831 34.1859 11.4105 34.1859C11.1378 34.1859 10.9168 34.407 10.9168 34.6796C10.9168 34.9523 11.1378 35.1734 11.4105 35.1734Z" fill="#FFA700"/>
<path d="M26.0528 16.9549C25.519 17.2808 25.0767 17.7371 24.7676 18.2808C24.4586 18.8245 24.2928 19.4379 24.2858 20.0633C24.2889 20.767 24.4978 21.4544 24.8868 22.0408C25.2758 22.6272 25.8279 23.087 26.475 23.3634C26.2203 24.1864 25.8425 24.9661 25.3544 25.676C24.6561 26.6829 23.9285 27.6866 22.8177 27.6866C21.7069 27.6866 21.4243 27.0369 20.1413 27.0369C18.8583 27.0369 18.449 27.6866 17.4356 27.6866C16.4222 27.6866 15.7142 26.7576 14.8989 25.6143C13.8203 24.0165 13.228 22.1402 13.1937 20.2127C13.1937 17.0426 15.2562 15.3601 17.2862 15.3601C18.3646 15.3601 19.2643 16.0682 19.9399 16.0682C20.6155 16.0682 21.5899 15.3179 22.8177 15.3179C23.4509 15.3004 24.0787 15.4395 24.6453 15.7228C25.2119 16.0061 25.6998 16.4248 26.0658 16.9419L26.0528 16.9549ZM22.233 13.9927C22.7755 13.3574 23.0818 12.5542 23.1003 11.719C23.1008 11.6101 23.091 11.5013 23.071 11.3942C22.1424 11.4854 21.2837 11.9281 20.6707 12.6317C20.1233 13.2423 19.8052 14.0243 19.771 14.8437C19.7714 14.9429 19.7812 15.0419 19.8002 15.1393C19.8743 15.152 19.9492 15.1586 20.0244 15.1587C20.4523 15.1258 20.8691 15.0056 21.2489 14.8056C21.6287 14.6057 21.9636 14.3301 22.233 13.9959V13.9927Z" fill="white"/>
</g>
<defs>
<linearGradient id="paint0_linear_279_1238" x1="0" y1="20.0016" x2="40" y2="20.0016" gradientUnits="userSpaceOnUse">
<stop stop-color="#D9023D"/>
<stop offset="1" stop-color="#FF131D"/>
</linearGradient>
<linearGradient id="paint1_linear_279_1238" x1="20.0016" y1="40.0033" x2="20.0016" y2="0.00325584" gradientUnits="userSpaceOnUse">
<stop stop-color="#D9023D"/>
<stop offset="1" stop-color="#FF131D"/>
</linearGradient>
<linearGradient id="paint2_linear_279_1238" x1="19.9724" y1="20.7032" x2="20.0211" y2="20.5993" gradientUnits="userSpaceOnUse">
<stop stop-color="#13001D"/>
<stop offset="1" stop-color="#2F042F"/>
</linearGradient>
<linearGradient id="paint3_linear_279_1238" x1="20.0016" y1="34.3321" x2="20.0016" y2="5.67114" gradientUnits="userSpaceOnUse">
<stop offset="0.45" stop-color="white"/>
<stop offset="0.99" stop-color="#A21645"/>
</linearGradient>
<linearGradient id="paint4_linear_279_1238" x1="20.0016" y1="34.3321" x2="20.0016" y2="6.2915" gradientUnits="userSpaceOnUse">
<stop stop-color="#FFB561"/>
<stop offset="0.04" stop-color="#D49651"/>
<stop offset="0.1" stop-color="#A87740"/>
<stop offset="0.16" stop-color="#805B31"/>
<stop offset="0.22" stop-color="#5D4223"/>
<stop offset="0.29" stop-color="#402D18"/>
<stop offset="0.36" stop-color="#281D0F"/>
<stop offset="0.45" stop-color="#161008"/>
<stop offset="0.55" stop-color="#090704"/>
<stop offset="0.69" stop-color="#020101"/>
<stop offset="0.99"/>
</linearGradient>
<clipPath id="clip0_279_1238">
<rect width="40" height="40.0033" fill="white"/>
</clipPath>
</defs>
</svg>
