<svg width="50" height="38" viewBox="0 0 50 38" fill="none" xmlns="http://www.w3.org/2000/svg">
<path fill-rule="evenodd" clip-rule="evenodd" d="M18.0289 4.58486L16.2531 4.58362L17.4061 0.760925H30.9428L16.8774 30.2003H5.91488L4.33648 7.3335C4.20854 5.76897 2.90605 4.53276 1.29374 4.53276H0.000488281L2.28179 0.767088H14.1399L14.536 17.923L19.3699 6.58129C19.4392 6.41327 19.4747 6.22831 19.4747 6.03409C19.4747 5.23564 18.8304 4.58486 18.0289 4.58486Z" fill="#100F0D"/>
<path fill-rule="evenodd" clip-rule="evenodd" d="M46.1866 27.411C46.9973 25.5397 46.9218 22.9517 44.2028 21.4596C42.7631 20.6673 37.1724 17.9252 37.1724 17.9252C36.4279 17.5182 36.4448 17.1344 36.5311 16.8739C36.6437 16.5379 36.8934 16.0261 37.0244 15.7749C37.3173 15.2123 37.923 15.126 38.2498 15.126H43.7126C44.9334 15.126 46.7368 14.9487 47.7912 12.7969C48.8455 10.6435 50 8.19885 50 8.19885H34.5258C30.6553 8.19885 29.1863 8.99576 27.4461 12.5903C27.4461 12.5903 26.3733 14.9086 25.5363 16.6566C24.3602 19.1059 24.3833 21.9005 26.9806 23.1737C28.8888 24.1093 33.3435 26.3736 34.2082 26.8191C35.0745 27.263 34.8387 27.8811 34.737 28.1324C34.6352 28.3836 34.1574 29.2715 34.0248 29.5181C33.7566 30.0175 32.6961 30.1378 32.2722 30.1362H21.8353L18.3224 37.6321H36.0703C40.6745 37.6321 42.2667 35.9119 43.3211 33.609L46.1866 27.411Z" fill="#100F0D"/>
<path d="M0.164923 4.25684L0 4.53275H1.29325C2.90556 4.53275 4.2096 5.76896 4.33599 7.33349L5.9144 30.2003H16.8769L16.9308 30.0878H6.07926L4.47311 7.05752C4.34825 5.49298 3.04422 4.25677 1.4319 4.25677L0.164923 4.25684ZM36.2062 37.3571H18.4522L18.3228 37.6315H36.069C40.533 37.6315 42.1653 36.0161 43.2196 33.8196C42.1607 35.8743 40.4821 37.3571 36.2062 37.3571Z" fill="url(#paint0_linear_280_1423)"/>
<path d="M2.53098 1.24954L0.77533 4.10732H1.51982C3.61306 4.10732 4.75988 5.57936 4.82154 7.33349L6.35832 29.7317H16.584L30.1793 1.25109H17.7524L16.9062 4.12581H18.0314C19.5744 4.12581 20.3281 5.53929 19.6052 7.24871C18.8823 8.95968 14.7451 18.7137 14.7451 18.7137H14.1008L13.5089 1.24954H2.53098Z" fill="url(#paint1_linear_280_1423)"/>
<path d="M34.2193 8.67606C30.9192 8.67606 29.3238 9.61477 27.7254 13.0876C27.7254 13.0876 26.7435 15.0822 25.9497 16.8209C24.5886 19.7927 25.2776 21.7858 27.5111 22.9202C29.407 23.8805 33.4085 25.852 34.2733 26.2959C35.1396 26.7414 35.4987 27.5584 35.2367 28.1934C35.1318 28.4447 34.6463 29.4666 34.4891 29.7009C34.022 30.393 33.2976 30.5872 32.661 30.5872H22.1208L19.0796 37.1613H35.7962C40.6871 37.1613 41.8663 35.4411 42.6678 33.7918C43.5942 31.8882 44.8289 29.3788 45.5333 27.8111C46.7926 25.0042 46.1869 22.9202 43.4139 21.5561C41.874 20.7977 36.9985 18.3715 36.9985 18.3715C36.254 17.9646 35.7839 17.3989 36.1846 16.4247C36.3187 16.0964 36.4837 15.7681 36.6193 15.5199C36.963 14.8879 37.5257 14.6506 38.5091 14.6506H43.2998C44.7533 14.6506 46.4027 14.5118 47.2628 12.7962C48.3371 10.6552 49.2481 8.67606 49.2481 8.67606H34.2193Z" fill="url(#paint2_linear_280_1423)"/>
<path fill-rule="evenodd" clip-rule="evenodd" d="M35.4628 27.7121C35.3611 27.9633 34.6459 29.4677 34.4886 29.7005C34.02 30.3926 33.2971 30.5868 32.6605 30.5868H22.1219L19.0791 37.1609H19.4075L22.2591 30.9999H32.7977C33.4343 30.9999 34.1572 30.8057 34.6258 30.1136C34.783 29.8793 35.5522 28.1945 35.6555 27.9433C35.7896 27.6196 35.7496 26.8319 35.1129 26.4311C35.1484 26.6469 35.5445 27.5148 35.4628 27.7121ZM2.53207 1.25064L0.774872 4.10687H1.16638L2.6708 1.66374H13.0985L13.51 1.25064H2.53207ZM49.2476 8.67562H34.2189C30.9203 8.67562 29.3249 9.61588 27.7249 13.0887C27.7249 13.0887 26.7446 15.0833 25.9492 16.822C25.1831 18.4944 25.2833 19.4347 25.7272 20.509C25.4883 19.6782 25.4143 18.6979 26.0864 17.2335C26.8818 15.4948 27.8636 13.5002 27.8636 13.5002C29.4621 10.0274 31.0574 9.08872 34.3561 9.08872H48.0022C48.5371 9.08872 49.2476 8.67562 49.2476 8.67562ZM17.9601 1.66528H29.1307C29.5576 1.66528 30.1788 1.25218 30.1788 1.25218H17.7535L16.9073 4.12537L17.3497 3.851L17.9601 1.66528ZM43.4134 21.5557C41.8735 20.7988 36.8331 18.2925 36.8331 18.2925C36.477 18.0967 36.2597 17.864 36.0948 17.5711C36.1579 18.0736 36.4632 18.4266 36.9718 18.704C36.9718 18.704 42.0107 21.2104 43.5506 21.9672C44.8392 22.6038 45.6592 23.3915 46.043 24.3379C45.7471 23.2065 44.8855 22.2801 43.4134 21.5557Z" fill="#D22B55"/>
<path d="M1.14835 3.89923L1.1745 3.9017L1.193 3.87234L1.14835 3.89861V3.89923Z" fill="url(#paint3_linear_280_1423)"/>
<path d="M17.2253 3.89924C17.2253 3.89924 17.7016 3.62796 17.8172 3.26572C17.9312 2.90041 17.9898 2.75551 18.0731 2.41023C18.1871 1.93702 17.9189 1.53625 17.9189 1.53625L17.2253 3.89924Z" fill="url(#paint4_linear_280_1423)"/>
<path d="M18.4738 3.72198C20.0152 3.72198 20.769 5.13546 20.0461 6.84489C19.3463 8.50499 15.0735 18.5473 14.8299 19.1176C14.8299 19.1176 15.1382 19.1962 15.4819 18.5427C15.8257 17.8906 19.7347 8.55585 20.4576 6.84489C21.1805 5.13546 20.4283 3.72198 18.8869 3.72198H18.4738Z" fill="url(#paint5_linear_280_1423)"/>
<path d="M19.4696 36.9147C19.4696 36.9147 19.969 36.6296 20.2156 36.218C20.4623 35.808 22.1933 31.9144 22.3166 31.6277C22.4399 31.3395 22.2564 30.8955 22.2564 30.8955L19.4696 36.9147Z" fill="url(#paint6_linear_280_1423)"/>
<path d="M34.3257 9.06299C31.0255 9.06299 29.4302 10.0033 27.8317 13.4761C27.8317 13.4761 27.0595 15.0437 26.2657 16.7824C25.8186 17.7565 25.5936 18.6228 25.572 19.3904C25.6152 20.696 26.2764 21.6902 27.4572 22.3993C25.8649 21.2186 25.4919 19.3704 26.6787 16.7824C27.4726 15.0437 28.2433 13.4761 28.2433 13.4761C29.8417 10.0033 31.4386 9.06299 34.7373 9.06299H34.3257Z" fill="url(#paint7_linear_280_1423)"/>
<path d="M35.1272 26.4424C35.6174 26.8909 35.8147 27.4736 35.6174 27.9591C35.5126 28.2104 34.7157 29.8874 34.5584 30.1202C34.0914 30.8138 33.3685 31.0065 32.7319 31.0065H33.1434C33.78 31.0065 34.5045 30.8138 34.97 30.1202C35.1288 29.8874 35.8209 28.4447 35.9226 28.1934C36.1846 27.5645 35.8316 26.7553 34.9808 26.3067C35.0347 26.3514 35.0825 26.3961 35.1272 26.4424Z" fill="url(#paint8_linear_280_1423)"/>
<path d="M1.21773 3.84065C1.21773 3.84065 1.82504 3.57707 2.04546 3.22871C2.26743 2.88189 2.39382 2.69384 2.57879 2.36552C2.83158 1.91697 2.63576 1.52853 2.63576 1.52853L1.21773 3.84065Z" fill="url(#paint9_linear_280_1423)"/>
<path d="M1.22541 3.83601L1.19299 3.873C1.19299 3.873 4.60259 3.68187 5.09738 7.05757L6.63262 29.4419C6.70045 29.3525 6.99178 28.9456 6.9702 28.6158C6.94394 28.2412 5.50895 7.33348 5.50895 7.33348C5.23149 4.45566 3.8735 3.74661 1.4134 3.74353C1.31784 3.79434 1.24391 3.82824 1.22541 3.83601Z" fill="url(#paint10_linear_280_1423)"/>
<path fill-rule="evenodd" clip-rule="evenodd" d="M30.0107 1.25216L16.6112 29.3182H6.72765L6.63048 29.4245L5.09676 7.05859C5.0335 5.30446 3.88985 3.83087 1.79353 3.83087H1.27253L0.936495 4.01893L2.63668 1.25055H2.53185L0.774658 4.10679H1.5207C3.57694 4.10679 4.7592 5.58038 4.81469 7.33296L6.35148 29.7312H16.5834L16.7144 29.4553L30.1786 1.25209L30.0107 1.25216ZM45.5327 27.3991C44.8298 28.9652 43.5951 31.4746 42.6687 33.3798C41.8657 35.0291 40.688 36.7478 35.7956 36.7478H19.7341L19.3056 37.0191L19.2916 37.024C19.2916 37.024 22.1078 30.9478 22.1602 30.8322C22.2126 30.7166 22.1217 30.5871 22.1217 30.5871L19.079 37.1612H35.7956C35.9312 37.1612 36.0638 37.16 36.1948 37.1563C36.2272 37.155 36.261 37.155 36.2949 37.1538C36.4105 37.1513 36.5277 37.1476 36.6402 37.1415C36.6526 37.1415 36.6634 37.1415 36.6772 37.1402C36.7989 37.1353 36.9177 37.1279 37.0348 37.1203C37.0657 37.119 37.0965 37.1153 37.1273 37.1141C37.226 37.1067 37.3231 37.0972 37.4202 37.0879C37.4372 37.0867 37.4572 37.0855 37.4757 37.0818C37.5852 37.0707 37.6899 37.0586 37.7963 37.0463C37.8225 37.0438 37.8502 37.0389 37.8779 37.0352C37.9628 37.0228 38.0475 37.0105 38.1307 36.9982C38.1507 36.9957 38.1739 36.992 38.1969 36.9895C38.2925 36.9741 38.3881 36.9556 38.479 36.9386C38.5053 36.9325 38.5298 36.93 38.5561 36.9232C38.6301 36.9094 38.701 36.8939 38.7703 36.877C38.795 36.872 38.8197 36.8659 38.8427 36.8615C38.929 36.8416 39.0123 36.82 39.094 36.7999C39.1172 36.7937 39.1417 36.786 39.1633 36.7798C39.2264 36.7629 39.2881 36.7443 39.3467 36.7274C39.3713 36.72 39.3975 36.712 39.4222 36.7027C39.4961 36.6797 39.5701 36.6565 39.641 36.6302C39.6642 36.6228 39.6857 36.6133 39.7089 36.6071C39.7597 36.587 39.8106 36.5687 39.8615 36.5486C39.8877 36.5399 39.9139 36.5286 39.9385 36.5177C40.0033 36.49 40.0665 36.4653 40.1266 36.4361C40.1498 36.4275 40.1712 36.4176 40.1928 36.4068C40.236 36.3868 40.2776 36.3652 40.3192 36.3467C40.3455 36.3329 40.3731 36.319 40.3979 36.3052C40.441 36.2836 40.4826 36.2605 40.5227 36.2373C40.5582 36.2188 40.592 36.2003 40.6261 36.1788C40.6585 36.1603 40.6923 36.1403 40.7247 36.1202C40.7525 36.1033 40.7771 36.0878 40.8049 36.0709C40.8326 36.0508 40.8618 36.0324 40.8897 36.0138C40.9313 35.986 40.9699 35.9583 41.0114 35.9291C41.0345 35.9106 41.0591 35.8935 41.0823 35.8766C41.1085 35.8551 41.1362 35.8351 41.1609 35.815C41.181 35.7996 41.201 35.7826 41.2178 35.7687C41.2656 35.7287 41.3119 35.6902 41.3566 35.6501L41.3981 35.6145C41.4228 35.5882 41.4505 35.5652 41.4752 35.5389C41.4875 35.5278 41.4999 35.5173 41.5122 35.505C42.0471 34.9794 42.3815 34.3813 42.6682 33.7925C43.5946 31.8888 44.8293 29.3794 45.5322 27.8118C45.9838 26.8068 46.195 25.8943 46.1534 25.0742C46.1179 25.7848 45.9083 26.5602 45.5322 27.4002M49.247 8.6767H49.0543C48.7322 9.36726 48.0401 10.8331 47.2617 12.3853C46.4031 14.0994 44.7522 14.2397 43.2987 14.2397H38.5095C37.5246 14.2397 36.9635 14.477 36.6197 15.1075C36.4826 15.3556 36.3192 15.6855 36.1835 16.0123C36.0479 16.3437 36.014 16.6288 36.0556 16.8755C36.0772 16.7352 36.1173 16.5857 36.1835 16.4254C36.3192 16.0986 36.4826 15.7687 36.6197 15.5206C36.7323 15.3109 36.8725 15.146 37.0421 15.0181C37.0836 14.9856 37.1268 14.9579 37.1716 14.9301L37.1765 14.9252C37.269 14.8728 37.3676 14.828 37.4786 14.7896L37.4926 14.7846C37.5403 14.7692 37.5912 14.7538 37.6421 14.7415C37.6507 14.7378 37.6591 14.7365 37.6667 14.7353C37.7808 14.7076 37.9026 14.6876 38.0351 14.6737C38.0505 14.6724 38.0676 14.6712 38.0814 14.6687C38.1338 14.6638 38.1847 14.6613 38.2386 14.6576C38.2571 14.6564 38.2756 14.6564 38.2941 14.6552C38.365 14.6527 38.4359 14.6502 38.5099 14.6502H43.2991C43.3684 14.6502 43.4362 14.6502 43.5056 14.649H43.5426L43.7461 14.6441C43.7584 14.6441 43.7707 14.6441 43.7816 14.6441C43.9249 14.6391 44.0698 14.6317 44.2147 14.6209C44.2246 14.6197 44.2317 14.6196 44.2394 14.6184C44.3103 14.6122 44.3827 14.6061 44.4536 14.5968C44.4623 14.5968 44.4706 14.5956 44.4799 14.5944C44.6263 14.579 44.7759 14.5559 44.9223 14.5249C44.9272 14.5249 44.9309 14.5237 44.9362 14.5237C45.0071 14.5098 45.078 14.4929 45.1505 14.4744L45.169 14.4695C45.317 14.431 45.4603 14.3862 45.6006 14.3307C45.603 14.3295 45.6067 14.3283 45.6067 14.3283C45.676 14.3021 45.7455 14.2728 45.8133 14.2405C45.8195 14.2392 45.8244 14.2355 45.8287 14.2343C45.9674 14.1679 46.1015 14.0909 46.231 14.0031H46.2322C46.2954 13.9599 46.3571 13.9137 46.4203 13.8659C46.4228 13.861 46.4277 13.8573 46.4326 13.8536C46.5575 13.7518 46.6762 13.6393 46.7872 13.5114L46.7884 13.5101V13.5114C46.9641 13.3095 47.1244 13.0752 47.2616 12.7977C48.336 10.6567 49.247 8.6767 49.247 8.6767ZM27.7859 22.646C25.5509 21.513 24.8619 19.52 26.2229 16.5481C27.0198 14.811 28.0002 12.8164 28.0002 12.8164C28.5458 11.631 29.0884 10.7432 29.7003 10.085C28.9558 10.7648 28.3501 11.7328 27.7258 13.0908C27.7258 13.0908 26.7439 15.0853 25.9486 16.824C25.4615 17.8861 25.238 18.8217 25.2534 19.6402V19.6741C25.2595 19.8606 25.2764 20.041 25.3042 20.2152C25.3054 20.2226 25.3066 20.2306 25.3091 20.2353C25.3229 20.3138 25.3399 20.3925 25.3584 20.4695C25.3609 20.4806 25.3646 20.4911 25.3658 20.502C25.4105 20.6669 25.4645 20.8257 25.5308 20.9783C25.5357 20.9906 25.5394 21.0029 25.5462 21.0122C25.5739 21.0785 25.6062 21.1432 25.6403 21.2064C25.6452 21.2187 25.6514 21.2296 25.6572 21.2403C25.6956 21.3143 25.7389 21.3868 25.7836 21.4546C25.8267 21.5224 25.873 21.5871 25.9223 21.6519C25.9334 21.6673 25.9439 21.6811 25.9547 21.6965C25.9979 21.7504 26.0441 21.8044 26.0904 21.8584C26.0978 21.867 26.1074 21.8785 26.115 21.8877C26.1705 21.9494 26.2291 22.011 26.2892 22.0696C26.3003 22.0807 26.3108 22.0896 26.32 22.0988C26.3724 22.1481 26.4248 22.1944 26.4788 22.2406C26.4958 22.2561 26.5127 22.2715 26.5297 22.2869C26.5883 22.3346 26.6469 22.381 26.707 22.4256C26.7181 22.433 26.7271 22.441 26.7363 22.4472C26.8058 22.4996 26.8797 22.5489 26.9552 22.5998C26.9737 22.6109 26.9937 22.6245 27.0138 22.6368C27.0724 22.6738 27.1324 22.7108 27.1926 22.7463C27.2158 22.7601 27.2388 22.774 27.262 22.7878C27.3437 22.8325 27.4239 22.8772 27.5102 22.9219C29.4061 23.8838 33.4076 25.8537 34.2739 26.2976C34.3401 26.3332 34.4018 26.3685 34.4635 26.4071C34.4789 26.4182 34.4959 26.4303 34.5128 26.441C34.5575 26.4704 34.6022 26.5027 34.6439 26.535L34.6839 26.5674C34.7363 26.6106 34.7873 26.6554 34.8334 26.7015C34.8396 26.7077 34.8458 26.7139 34.8519 26.72C34.8904 26.7616 34.9275 26.8017 34.9629 26.8449C34.974 26.8572 34.9845 26.8712 34.9921 26.885C35.026 26.925 35.0554 26.9698 35.0832 27.0114C35.0893 27.02 35.0955 27.0283 35.1002 27.036C35.131 27.0884 35.1602 27.1408 35.1849 27.1948C35.1898 27.2034 35.1923 27.2133 35.1972 27.2209C35.2172 27.2672 35.2357 27.3119 35.2496 27.3597C35.2546 27.3708 35.257 27.3827 35.2619 27.3952C35.279 27.4476 35.2928 27.5015 35.302 27.5555C35.339 27.7759 35.319 27.9963 35.2373 28.1967C35.1325 28.448 34.6454 29.4699 34.4882 29.7027C34.4512 29.7566 34.4127 29.8059 34.3726 29.8553C34.516 29.7397 34.647 29.5994 34.7626 29.4268C34.9214 29.194 35.4084 28.1736 35.5102 27.9223C35.7722 27.2857 35.413 26.4673 34.5468 26.0218C34.3788 25.9355 34.0875 25.789 33.716 25.6041C32.6524 25.0707 30.6116 24.0626 28.97 23.2442C28.5291 23.0207 28.122 22.8171 27.7859 22.646ZM14.3835 19.1286H14.7118L14.8273 19.1274C15.0709 18.557 19.3452 8.50703 20.045 6.84847C20.1266 6.65733 20.1884 6.46928 20.2331 6.28585C20.2686 6.09317 20.29 5.89433 20.3163 5.76485V5.76362C20.3212 5.69419 20.3225 5.62643 20.3212 5.56015V5.53697C20.32 5.47075 20.3151 5.40441 20.3089 5.34121C20.3089 5.33504 20.3077 5.33258 20.3077 5.3274C20.3003 5.26574 20.2906 5.20569 20.2799 5.14551C20.2799 5.14058 20.2787 5.13812 20.2787 5.13319C20.2649 5.07153 20.2493 5.01295 20.2324 4.95438C20.23 4.94821 20.2275 4.94057 20.225 4.93441C20.2096 4.87731 20.1895 4.82182 20.1665 4.76793L20.1652 4.76547C20.1437 4.71306 20.1175 4.66065 20.0896 4.61132C20.0872 4.60393 20.0823 4.59442 20.0773 4.58666C20.0233 4.48936 19.9586 4.39695 19.8861 4.31371C19.8787 4.30631 19.8723 4.29977 19.8645 4.29213C19.829 4.25057 19.7905 4.21197 19.7505 4.17498C19.7455 4.17251 19.7431 4.17005 19.7394 4.16758C19.7024 4.13219 19.6608 4.10136 19.6192 4.07053C19.6118 4.06437 19.6037 4.0582 19.5945 4.05204C19.5498 4.02121 19.5051 3.99198 19.4558 3.96572C19.4484 3.96078 19.4403 3.95708 19.4326 3.95191C19.3879 3.92724 19.3432 3.90727 19.2969 3.88717C19.2883 3.88224 19.2784 3.87853 19.2692 3.87484C19.2184 3.85474 19.1644 3.83476 19.1104 3.81775C19.0981 3.81281 19.0858 3.81035 19.0734 3.80665C19.0226 3.79271 18.9701 3.7789 18.9177 3.76817L18.8946 3.76324C18.836 3.75214 18.7759 3.74474 18.7127 3.73697C18.6987 3.73574 18.6833 3.73574 18.6695 3.7345C18.6264 3.72957 18.5832 3.72958 18.5416 3.72834C18.4645 3.72218 18.3874 3.71724 18.3057 3.71724H17.498L17.0988 3.99469L17.905 1.25561H17.7539L16.9077 4.1288H18.0329C19.4279 4.1288 20.1755 5.28486 19.7716 6.77078C19.7667 6.79544 19.7593 6.81702 19.7515 6.84169C19.7503 6.84908 19.7466 6.8587 19.7441 6.86634C19.7164 6.95414 19.6886 7.04207 19.6562 7.12377C19.6392 7.16693 19.6238 7.20848 19.6054 7.25324C18.8871 8.95033 14.8054 18.5795 14.7484 18.7136L14.101 18.7161C14.101 18.7161 14.2058 19.1292 14.3846 19.1292" fill="#581217"/>
<path d="M30.1793 1.25217H17.7617L17.8573 1.39089H29.945L30.1793 1.25217Z" fill="white"/>
<path d="M34.2195 8.67621C32.0877 8.67621 30.6681 9.06927 29.4981 10.2824C30.702 9.17562 32.1709 8.81339 34.2195 8.81339H48.9893C48.9753 8.81339 49.2482 8.67621 49.2482 8.67621H34.2195Z" fill="white"/>
<path d="M2.53175 1.25064L0.774536 4.10687L0.964127 4.00206L2.58415 1.35546H13.4002L13.5098 1.25064H2.53175Z" fill="white"/>
<path d="M43.4137 21.5553C41.8738 20.7985 36.9983 18.3723 36.9983 18.3723C36.4619 18.0779 36.072 17.7033 36.0411 17.1546C36.0087 17.7789 36.4188 18.192 36.9983 18.508C36.9983 18.508 41.8738 20.9372 43.4137 21.6941C45.2326 22.5881 46.1189 23.7919 46.1574 25.3071C46.1698 23.7272 45.2865 22.4771 43.4137 21.5553Z" fill="white"/>
<defs>
<linearGradient id="paint0_linear_280_1423" x1="15.0489" y1="23.2225" x2="13.1109" y2="21.4335" gradientUnits="userSpaceOnUse">
<stop stop-color="#3B3A3D"/>
<stop offset="1" stop-color="#211C1C"/>
</linearGradient>
<linearGradient id="paint1_linear_280_1423" x1="15.4764" y1="12.276" x2="15.4764" y2="19.7002" gradientUnits="userSpaceOnUse">
<stop stop-color="#FF1749"/>
<stop offset="1" stop-color="#EE042B"/>
</linearGradient>
<linearGradient id="paint2_linear_280_1423" x1="34.1638" y1="12.276" x2="34.1638" y2="19.7" gradientUnits="userSpaceOnUse">
<stop stop-color="#67A9FF"/>
<stop offset="1" stop-color="#2F86C4"/>
</linearGradient>
<linearGradient id="paint3_linear_280_1423" x1="1.14837" y1="3.88785" x2="1.19354" y2="3.88785" gradientUnits="userSpaceOnUse">
<stop stop-color="white"/>
<stop offset="1" stop-color="#C51B31"/>
</linearGradient>
<linearGradient id="paint4_linear_280_1423" x1="18.0663" y1="1.69239" x2="17.043" y2="5.29269" gradientUnits="userSpaceOnUse">
<stop stop-color="white"/>
<stop offset="1" stop-color="#C51B31"/>
</linearGradient>
<linearGradient id="paint5_linear_280_1423" x1="13.7619" y1="18.8248" x2="21.874" y2="-0.431715" gradientUnits="userSpaceOnUse">
<stop stop-color="white"/>
<stop offset="1" stop-color="#C51B31"/>
</linearGradient>
<linearGradient id="paint6_linear_280_1423" x1="19.4135" y1="37.5182" x2="23.6753" y2="28.3072" gradientUnits="userSpaceOnUse">
<stop stop-color="white"/>
<stop offset="1" stop-color="#C51B31"/>
</linearGradient>
<linearGradient id="paint7_linear_280_1423" x1="26.8541" y1="20.0561" x2="31.6662" y2="10.5007" gradientUnits="userSpaceOnUse">
<stop stop-color="white"/>
<stop offset="1" stop-color="#D12B55"/>
</linearGradient>
<linearGradient id="paint8_linear_280_1423" x1="33.5737" y1="31.1222" x2="37.1479" y2="23.7906" gradientUnits="userSpaceOnUse">
<stop stop-color="white"/>
<stop offset="1" stop-color="#C51B31"/>
</linearGradient>
<linearGradient id="paint9_linear_280_1423" x1="2.88247" y1="1.48315" x2="0.796928" y2="4.93384" gradientUnits="userSpaceOnUse">
<stop stop-color="white"/>
<stop offset="1" stop-color="#C51B31"/>
</linearGradient>
<linearGradient id="paint10_linear_280_1423" x1="4.64516" y1="18.0277" x2="2.72049" y2="-0.462859" gradientUnits="userSpaceOnUse">
<stop stop-color="white"/>
<stop offset="1" stop-color="#C51B31"/>
</linearGradient>
</defs>
</svg>
