<svg width="89" height="83" viewBox="0 0 89 83" fill="none" xmlns="http://www.w3.org/2000/svg">
<rect x="21.5024" y="22.5757" width="45.9342" height="44.8879" rx="22.444" fill="black"/>
<rect x="21.5024" y="22.5757" width="45.9342" height="44.8879" rx="22.444" stroke="#CDCCCC"/>
<path d="M28.2222 39.4016L28.2222 46.0325C28.2222 48.5325 29.9997 50.1768 32.3242 50.1768C33.4591 50.1768 34.4573 49.749 35.182 49.0137L35.182 50.003L36.7955 50.003L36.7955 39.4016L35.1683 39.4016L35.1683 45.9389C35.1683 47.6234 34.0061 48.7597 32.5157 48.7597C30.9979 48.7597 29.8493 47.6501 29.8493 45.9389L29.8493 39.4016L28.2222 39.4016ZM38.3953 39.4016L38.3953 50.003L39.9404 50.003L39.9404 49.0271C40.308 49.3924 40.7465 49.6822 41.2302 49.8796C41.7139 50.0771 42.233 50.1781 42.7572 50.1768C43.3028 50.1822 43.844 50.0811 44.3491 49.8794C44.8543 49.6777 45.3132 49.3795 45.699 49.0023C46.0848 48.6251 46.3898 48.1764 46.596 47.6826C46.8023 47.1887 46.9057 46.6595 46.9002 46.1261C46.9003 45.596 46.7928 45.0712 46.5841 44.582C46.3754 44.0927 46.0696 43.6488 45.6843 43.2759C45.299 42.9029 44.842 42.6083 44.3396 42.4092C43.8371 42.21 43.2993 42.1102 42.7572 42.1155C42.2351 42.1145 41.7181 42.2157 41.2367 42.4131C40.7553 42.6106 40.3192 42.9003 39.9541 43.2652L39.9541 39.4016L38.3953 39.4016ZM51.8911 42.1155C49.5803 42.1155 47.8301 43.9604 47.8301 46.1261C47.8301 48.4389 49.6623 50.1367 52.0278 50.1367C53.4772 50.1367 54.6532 49.5485 55.4326 48.5191L54.3113 47.6902C53.7234 48.4656 52.944 48.7998 52.0278 48.7998C50.7015 48.7998 49.635 47.8908 49.4162 46.6341L55.8428 46.6341L55.8428 46.1261C55.8428 43.84 54.1609 42.1155 51.8911 42.1155ZM60.4918 42.2224C59.6303 42.2224 58.9877 42.6101 58.6048 43.2251L58.6048 42.2759L57.0597 42.2759L57.0597 50.003L58.6185 50.003L58.6185 45.6047C58.6185 44.4149 59.3705 43.6395 60.3961 43.6395L61.0387 43.6395L61.0387 42.209L60.4918 42.209M51.8638 43.4523C53.026 43.4523 53.9968 44.2411 54.2566 45.4175L49.4162 45.4175C49.7307 44.2411 50.7015 43.4523 51.8638 43.4523ZM42.6478 43.4523C44.1382 43.4523 45.3551 44.6555 45.3551 46.1261C45.3551 47.6368 44.1382 48.7998 42.6478 48.7998C41.9249 48.7963 41.2328 48.513 40.7229 48.012C40.213 47.511 39.9267 46.8329 39.9267 46.1261C39.9267 45.4193 40.213 44.7412 40.7229 44.2402C41.2328 43.7391 41.9249 43.4559 42.6478 43.4523Z" fill="white"/>
<g filter="url(#filter0_d_182_2542)">
<path d="M22.9949 55.2289L23.6062 54.4472C26.9586 50.1446 31.1292 44.7916 29.4182 37.6186L27.7878 30.7841L26.5817 31.0719C22.227 32.1106 18.4897 30.9928 17.8883 28.4717L15.4761 29.0471C16.0775 31.5682 13.2472 34.2527 8.89247 35.2915L7.68637 35.5792L9.31669 42.4137C11.0278 49.5867 17.1657 52.4806 22.0976 54.8059L22.9949 55.2289Z" fill="#D84025"/>
</g>
<path d="M8.8924 35.2914C13.2471 34.2527 16.0774 31.5681 15.476 29.047L16.6821 28.7593L22.9959 55.2274L22.9947 55.2288L22.0975 54.8058C17.1657 52.4805 11.0277 49.5867 9.31661 42.4136L7.68629 35.5791L8.8924 35.2914Z" fill="#A13023"/>
<path fill-rule="evenodd" clip-rule="evenodd" d="M54.4435 22.5884C54.7527 23.8439 55.0606 25.0985 55.3672 26.352C52.543 27.9683 48.977 28.8708 44.4976 28.8724V23.6889L54.4435 22.5884Z" fill="#535353"/>
<path fill-rule="evenodd" clip-rule="evenodd" d="M34.5598 22.5884C34.2464 23.8439 33.9358 25.0985 33.6279 26.352C36.4582 27.9683 40.016 28.8708 44.4975 28.8724V23.6889L34.5598 22.5884Z" fill="#676767"/>
<path fill-rule="evenodd" clip-rule="evenodd" d="M42.2743 9.0759C35.8217 3.36948 48.0228 3.91021 51.4613 1.01904C51.704 1.26047 51.8479 1.55073 51.8752 1.85375C51.9024 2.15677 51.8117 2.45917 51.6144 2.72338C53.1408 3.67161 55.8243 2.37786 57.2793 4.1953C55.6304 4.12403 54.6264 4.61829 54.0142 5.27988C58.5363 4.75618 56.767 7.94329 60.6321 8.12302C57.7527 9.34239 50.9899 7.00126 46.8086 9.8506C44.921 9.79792 44.1619 9.13323 42.2743 9.0759Z" fill="#A23023"/>
<path fill-rule="evenodd" clip-rule="evenodd" d="M60.6302 8.0703C57.78 9.32968 51.0667 6.93003 46.916 9.85058C46.1437 9.81775 45.3837 9.6841 44.6675 9.45514C50.0964 4.6606 54.9136 8.91676 60.6322 8.0703H60.6302Z" fill="#1A1A1A"/>
<path fill-rule="evenodd" clip-rule="evenodd" d="M42.6515 8.5912C43.3966 8.64925 44.1275 8.78319 44.8236 8.98926L44.8728 9.00146C44.6296 8.72999 44.3906 8.45851 44.1556 8.18703C42.0203 6.37056 46.5142 4.22161 49.2397 3.78084C50.2213 4.41531 51.7336 4.11485 52.5082 4.5602C51.8401 5.1001 51.4262 6.0335 50.7561 6.57341C58.4079 5.79863 54.9222 7.64102 58.5943 7.99791C58.3472 7.87292 58.1227 7.72478 57.9263 7.55714C56.6968 6.5124 56.8792 5.37158 54.1988 5.67661L52.707 5.84591C52.9706 5.57341 53.2363 5.30142 53.5041 5.02995C54.1084 4.39937 55.0179 3.96796 56.041 3.82659C55.8012 3.72215 55.537 3.6523 55.2623 3.6207C55.0005 3.5912 54.7362 3.5754 54.4713 3.57342C53.2787 3.55206 52.1414 3.62222 51.1926 3.05181L50.8401 2.83676C50.9098 2.7422 50.9815 2.64917 51.045 2.55613C51.2036 2.34732 51.2703 2.10676 51.2356 1.86829C50.0061 2.56223 48.3052 3.02893 46.8482 3.41632C45.6945 3.72136 44.4835 4.02639 43.3892 4.40615C42.6166 4.67763 41.7498 5.05435 41.34 5.56985C40.5961 6.5307 41.7457 7.77981 42.6515 8.5912Z" fill="#EF4123"/>
<path fill-rule="evenodd" clip-rule="evenodd" d="M43.726 8.71744C44.1138 8.79334 44.4961 8.88402 44.8716 8.98912L44.9206 9.0014C44.6783 8.72818 44.4401 8.45496 44.2059 8.18175C42.0781 6.35365 46.5563 4.19094 49.2722 3.74734C50.2504 4.38587 51.7574 4.08349 52.5293 4.53169C51.8636 5.07505 51.4511 6.01443 50.7833 6.55779C58.4083 5.77805 54.9348 7.63224 58.5941 7.99142C56.6889 7.61843 56.7236 6.27076 55.6413 5.94689C54.5591 5.62302 53.1296 6.369 52.0392 6.04513C52.1535 5.42041 52.6702 4.91235 53.4216 4.13721C52.3782 3.66292 49.746 4.08656 50.2932 2.71741C47.951 4.65909 40.4057 3.85479 43.2686 8.55013L43.726 8.71744Z" fill="#D03927"/>
<path d="M44.4128 12.7378C46.3357 12.7378 47.8945 11.7113 47.8945 10.445C47.8945 9.17875 46.3357 8.15222 44.4128 8.15222C42.4899 8.15222 40.9312 9.17875 40.9312 10.445C40.9312 11.7113 42.4899 12.7378 44.4128 12.7378Z" fill="#CDCCCC"/>
<path fill-rule="evenodd" clip-rule="evenodd" d="M44.4279 10.5299C48.7929 10.5299 52.5226 12.2605 54.0145 14.7017C54.8158 14.959 55.3671 15.4889 55.3671 16.0954C55.363 16.297 55.3022 16.4957 55.1885 16.6786C55.0748 16.8615 54.9108 17.0244 54.7072 17.1567C54.6334 20.7266 50.0594 23.6074 44.4279 23.6074C38.7964 23.6074 34.2388 20.7328 34.1527 17.172C33.94 17.0392 33.7679 16.8738 33.648 16.687C33.5282 16.5002 33.4634 16.2964 33.458 16.0893C33.458 15.4767 34.0277 14.936 34.8474 14.6833C36.3455 12.2483 40.069 10.5299 44.4279 10.5299Z" fill="#8B8A8A"/>
<path fill-rule="evenodd" clip-rule="evenodd" d="M42.7993 20.2107C46.6373 20.2107 49.7626 18.2312 49.7626 15.7949C49.7626 13.3586 46.6312 11.3792 42.7993 11.3792C38.9674 11.3792 35.8359 13.3586 35.8359 15.7949C35.8359 18.2312 38.9592 20.2107 42.7993 20.2107Z" fill="#989898"/>
<path fill-rule="evenodd" clip-rule="evenodd" d="M40.6764 15.2854C42.1273 15.2854 43.3089 14.5219 43.3089 13.587C43.3089 12.6522 42.1273 11.8887 40.6764 11.8887C39.2256 11.8887 38.0439 12.6506 38.0439 13.587C38.0439 14.5235 39.2379 15.2854 40.6764 15.2854Z" fill="#ACACAC"/>
<path fill-rule="evenodd" clip-rule="evenodd" d="M44.4976 14.2665H44.398C43.0095 14.2611 41.6314 14.4487 40.3311 14.82L32.7788 16.9646V23.3547C36.0832 26.2792 39.9366 28.5695 44.4976 30.0613V14.2665Z" fill="#CDCCCC"/>
<path fill-rule="evenodd" clip-rule="evenodd" d="M42.7991 15.2854C42.1973 15.3616 41.6069 15.484 41.0364 15.651L39.5886 16.0678V26.7622C40.6103 27.3513 41.6823 27.8861 42.7971 28.3629V15.2854H42.7991ZM38.9088 16.2638L36.6568 16.9125V24.8458C37.3687 25.37 38.1187 25.8771 38.9088 26.3593V16.2638ZM35.979 17.1069L34.4771 17.5394V23.0865C34.9583 23.5096 35.459 23.9244 35.979 24.3309V17.1069Z" fill="#333333"/>
<path fill-rule="evenodd" clip-rule="evenodd" d="M44.4976 14.2664H44.5972C45.9823 14.262 47.3568 14.4496 48.6539 14.82L56.2164 16.963V23.3532C52.91 26.2792 49.0566 28.5695 44.4976 30.0613V14.2664Z" fill="#B4B4B4"/>
<path fill-rule="evenodd" clip-rule="evenodd" d="M46.1958 15.2854C46.8099 15.3618 47.4126 15.4842 47.9949 15.651L49.4726 16.0678V26.7622C48.4294 27.351 47.3354 27.8857 46.1978 28.3629V15.2854H46.1958ZM50.1665 16.2638L52.4629 16.9125V24.8458C51.7383 25.37 50.9729 25.8771 50.1665 26.3593V16.2638ZM53.1567 17.1069L54.6877 17.5394V23.0865C54.1978 23.5096 53.6875 23.9244 53.1567 24.3309V17.1069Z" fill="#1A1A1A"/>
<path fill-rule="evenodd" clip-rule="evenodd" d="M43.5342 8.66174C44.1861 8.66174 44.4987 8.96662 44.2334 9.34109C44.0654 9.54109 43.8244 9.70857 43.5335 9.82751C43.2426 9.94646 42.9115 10.0129 42.5719 10.0204C41.922 10.0204 41.6095 9.71696 41.8747 9.34109C42.0429 9.14147 42.2836 8.97426 42.574 8.85535C42.8645 8.73645 43.195 8.6698 43.5342 8.66174Z" fill="#E3E3E3"/>
<g clip-path="url(#clip0_182_2542)">
<path fill-rule="evenodd" clip-rule="evenodd" d="M60.0088 47.2835L60.1448 47.3539C60.299 47.4366 60.4706 47.4817 60.6455 47.4855C60.8205 47.4893 60.9939 47.4517 61.1515 47.3757C61.3113 47.3045 61.452 47.1966 61.5623 47.0608C61.6726 46.925 61.7493 46.7651 61.7862 46.5942C62.0988 45.2279 62.7241 43.5585 63.6136 41.8343C64.5031 40.1101 65.502 38.6345 66.4275 37.5887C66.5434 37.4584 66.6281 37.3033 66.6749 37.1353C66.7217 36.9673 66.7295 36.7908 66.6977 36.6193C66.6659 36.4478 66.5953 36.2859 66.4913 36.1459C66.3873 36.0058 66.2526 35.8914 66.0976 35.8114L65.9601 35.7411L66.526 34.6469L69.1835 36.0162L71.841 37.384L71.2751 38.4782L71.1391 38.4078C70.9834 38.3264 70.8111 38.2819 70.6354 38.2777C70.4598 38.2736 70.2855 38.31 70.1262 38.3841C69.9668 38.4581 69.8267 38.5679 69.7166 38.7049C69.6066 38.8418 69.5295 39.0023 69.4914 39.1738C69.1788 40.5384 68.5535 42.2095 67.664 43.9321C66.7745 45.6547 65.7756 47.1319 64.8502 48.1776C64.7342 48.3081 64.6496 48.4633 64.6027 48.6314C64.5559 48.7996 64.5481 48.9762 64.5799 49.1478C64.6117 49.3194 64.6823 49.4814 64.7863 49.6216C64.8903 49.7618 65.025 49.8763 65.18 49.9565L65.3176 50.0269L64.7517 51.1211L62.0941 49.7533L59.4429 48.3793L60.0088 47.2835Z" fill="#CA3927"/>
<path fill-rule="evenodd" clip-rule="evenodd" d="M66.7735 38.2339C67.2118 38.4626 66.6031 40.5412 65.412 42.8736C64.221 45.206 62.8998 46.9134 62.4692 46.6847C62.0386 46.456 62.6396 44.3774 63.8306 42.045C65.0217 39.7126 66.3351 38.0052 66.7735 38.2339Z" fill="#F04B23"/>
<path fill-rule="evenodd" clip-rule="evenodd" d="M86.1073 3.39673L84.6829 11.4454L71.396 37.1944L67.0854 34.9697L80.3724 9.22067L86.1073 3.39673Z" fill="#D1D2D2"/>
<path fill-rule="evenodd" clip-rule="evenodd" d="M81.8078 7.74434L84.07 6.27113L83.2745 11.0728L71.3315 37.1944L84.6768 11.4454L86.1074 3.39673L81.8078 7.74434Z" fill="#E6E6E5"/>
<path fill-rule="evenodd" clip-rule="evenodd" d="M82.371 10.6997L76.0931 23.5217L69.8136 36.3452L69.1282 35.9964L68.4443 35.6476L75.4077 23.1745L82.371 10.6997Z" fill="#818181"/>
<path fill-rule="evenodd" clip-rule="evenodd" d="M65.7724 33.4234L73.372 37.3669C73.7628 37.0841 74.2369 36.9418 74.7179 36.9631C75.1989 36.9844 75.6587 37.168 76.0233 37.4842C76.3878 37.8005 76.6358 38.231 76.7273 38.7064C76.8188 39.1817 76.7484 39.6742 76.5275 40.1044C76.3066 40.5346 75.9481 40.8775 75.5097 41.0777C75.0714 41.2779 74.5787 41.3238 74.1113 41.208C73.6438 41.0922 73.2287 40.8214 72.933 40.4394C72.6372 40.0573 72.478 39.5862 72.4811 39.1021L64.8815 35.1585C64.4903 35.4422 64.0154 35.585 63.5336 35.5639C63.0518 35.5429 62.591 35.3592 62.2257 35.0425C61.8604 34.7258 61.6119 34.2946 61.5201 33.8185C61.4284 33.3423 61.4989 32.8489 61.7201 32.418C61.9414 31.987 62.3006 31.6436 62.7398 31.4431C63.1789 31.2426 63.6724 31.1968 64.1407 31.3129C64.609 31.4291 65.0246 31.7005 65.3207 32.0834C65.6167 32.4663 65.7759 32.9384 65.7724 33.4234Z" fill="#333333"/>
</g>
<path d="M15.8905 72.0968H16.8145V77.4248C16.8145 78.5208 16.5265 79.3808 15.9505 80.0048C15.3745 80.6208 14.5625 80.9288 13.5145 80.9288C12.4745 80.9288 11.6705 80.6168 11.1025 79.9928C10.5265 79.3688 10.2385 78.5328 10.2385 77.4848V72.0968H11.1505V77.4368C11.1505 78.3648 11.3825 79.0408 11.8465 79.4648C12.2785 79.8648 12.8505 80.0648 13.5625 80.0648C14.3145 80.0648 14.8905 79.8408 15.2905 79.3928C15.6905 78.9288 15.8905 78.2928 15.8905 77.4848V72.0968ZM24.8718 77.8568C24.8718 78.4008 24.7558 78.9048 24.5238 79.3688C24.2918 79.8328 23.9638 80.2088 23.5398 80.4968C23.1078 80.7848 22.6158 80.9288 22.0638 80.9288C21.0798 80.9288 20.3078 80.4808 19.7478 79.5848V80.8448H18.8958V71.7488H19.7718V76.1648C20.3718 75.2368 21.1358 74.7728 22.0638 74.7728C22.9118 74.7728 23.5958 75.0928 24.1158 75.7328C24.6198 76.3568 24.8718 77.0648 24.8718 77.8568ZM21.8958 80.1728C22.5198 80.1728 23.0278 79.9528 23.4198 79.5128C23.7958 79.0648 23.9838 78.5208 23.9838 77.8808C23.9838 76.9768 23.6598 76.3088 23.0118 75.8768C22.6998 75.6608 22.3278 75.5528 21.8958 75.5528C21.3038 75.5448 20.7958 75.7728 20.3718 76.2368C19.9478 76.7008 19.7438 77.2368 19.7598 77.8448C19.7598 78.4848 19.9598 79.0288 20.3598 79.4768C20.7678 79.9408 21.2798 80.1728 21.8958 80.1728ZM31.6756 78.1328H26.8516C26.8836 78.7168 27.1036 79.2008 27.5116 79.5848C27.9116 79.9768 28.4036 80.1728 28.9876 80.1728C29.4436 80.1728 29.8316 80.0648 30.1516 79.8488C30.4716 79.6248 30.6996 79.3088 30.8356 78.9008L31.6036 79.1408C31.4356 79.7008 31.1116 80.1448 30.6316 80.4728C30.1356 80.7928 29.5916 80.9528 28.9996 80.9528C28.4396 80.9528 27.9236 80.8128 27.4516 80.5328C26.9796 80.2528 26.6196 79.8768 26.3716 79.4048C26.1076 78.9408 25.9756 78.4248 25.9756 77.8568C25.9756 77.3128 26.0996 76.8088 26.3476 76.3448C26.5796 75.8728 26.9276 75.4928 27.3916 75.2048C27.8396 74.9168 28.3356 74.7728 28.8796 74.7728C29.4796 74.7728 29.9916 74.9088 30.4156 75.1808C30.8476 75.4448 31.1676 75.8088 31.3756 76.2728C31.5836 76.7128 31.6876 77.2368 31.6876 77.8448C31.6876 77.9488 31.6836 78.0448 31.6756 78.1328ZM26.8636 77.3888H30.8116C30.7556 76.8448 30.5556 76.3968 30.2116 76.0448C29.8756 75.7088 29.4316 75.5408 28.8796 75.5408C28.3756 75.5408 27.9316 75.7208 27.5476 76.0808C27.1636 76.4568 26.9356 76.8928 26.8636 77.3888ZM33.1927 74.8808H34.0447V76.0568C34.3247 75.4888 34.7327 75.1048 35.2687 74.9048C35.4847 74.8248 35.7207 74.7848 35.9767 74.7848C36.1287 74.7848 36.2247 74.7928 36.2647 74.8088V75.7328C36.2007 75.7168 36.0887 75.7088 35.9287 75.7088C35.2807 75.7088 34.8087 75.9248 34.5127 76.3568C34.2167 76.7888 34.0687 77.3128 34.0687 77.9288V80.8448H33.1927V74.8808ZM39.4298 76.8488V76.5608C39.4298 75.4088 39.7098 74.3608 40.2698 73.4168C40.8218 72.4648 41.6018 71.7008 42.6098 71.1248L42.9698 71.6888C41.2018 72.8248 40.3178 74.4528 40.3178 76.5728V76.8368C40.3178 78.9408 41.2018 80.5648 42.9698 81.7088L42.6098 82.2968C41.6018 81.7128 40.8218 80.9448 40.2698 79.9928C39.7098 79.0488 39.4298 78.0008 39.4298 76.8488ZM50.0272 72.0968H50.9512V77.4248C50.9512 78.5208 50.6632 79.3808 50.0872 80.0048C49.5112 80.6208 48.6992 80.9288 47.6512 80.9288C46.6112 80.9288 45.8072 80.6168 45.2392 79.9928C44.6632 79.3688 44.3752 78.5328 44.3752 77.4848V72.0968H45.2872V77.4368C45.2872 78.3648 45.5192 79.0408 45.9832 79.4648C46.4152 79.8648 46.9872 80.0648 47.6992 80.0648C48.4512 80.0648 49.0272 79.8408 49.4272 79.3928C49.8272 78.9288 50.0272 78.2928 50.0272 77.4848V72.0968ZM56.5246 80.8448H53.2606V72.0968H56.4046C57.2206 72.0808 57.8926 72.2728 58.4206 72.6728C58.9566 73.0648 59.2246 73.6048 59.2246 74.2928C59.2246 74.5248 59.1846 74.7648 59.1046 75.0128C59.0566 75.1648 58.9846 75.3168 58.8886 75.4688C58.6646 75.8208 58.3326 76.0968 57.8926 76.2968C58.5086 76.4568 58.9606 76.7728 59.2486 77.2448C59.4886 77.6448 59.6086 78.0448 59.6086 78.4448C59.6086 79.2608 59.3006 79.8728 58.6846 80.2808C58.1006 80.6568 57.3806 80.8448 56.5246 80.8448ZM56.3326 72.9368H54.1726V75.9848H56.2606C56.9486 75.9848 57.4566 75.8368 57.7846 75.5408C58.1206 75.2448 58.2886 74.8648 58.2886 74.4008C58.2886 73.9048 58.1006 73.5368 57.7246 73.2968C57.3486 73.0568 56.8846 72.9368 56.3326 72.9368ZM56.3686 76.8008H54.1726V80.0048H56.5486C57.1166 80.0048 57.6126 79.8768 58.0366 79.6208C58.4606 79.3568 58.6726 78.9448 58.6726 78.3848C58.6726 77.7128 58.3206 77.2528 57.6166 77.0048C57.2646 76.8688 56.8486 76.8008 56.3686 76.8008ZM61.4402 80.8448V72.0968H66.9122V72.9488H62.3642V75.9728H66.5282V76.8248H62.3642V79.9928H66.9602V80.8448H61.4402ZM75.2662 80.8448H74.1502L71.5582 77.3048H69.7822V80.8448H68.8582V72.0968H71.8942C72.9422 72.0968 73.7222 72.3528 74.2342 72.8648C74.7222 73.3528 74.9662 73.9488 74.9662 74.6528C74.9662 75.3568 74.7382 75.9288 74.2822 76.3688C73.8262 76.8008 73.2542 77.0608 72.5662 77.1488L75.2662 80.8448ZM69.7822 72.9608V76.4648H71.8102C72.5782 76.4648 73.1502 76.2768 73.5262 75.9008C73.8622 75.5648 74.0302 75.1568 74.0302 74.6768C74.0302 74.1888 73.8542 73.7808 73.5022 73.4528C73.1582 73.1248 72.6022 72.9608 71.8342 72.9608H69.7822ZM79.5253 76.5608V76.8488C79.5253 78.0088 79.2493 79.0608 78.6973 80.0048C78.1373 80.9488 77.3533 81.7128 76.3453 82.2968L75.9853 81.7088C77.7533 80.5648 78.6373 78.9408 78.6373 76.8368V76.5728C78.6373 74.4528 77.7533 72.8248 75.9853 71.6888L76.3453 71.1248C77.3533 71.6928 78.1373 72.4528 78.6973 73.4048C79.2493 74.3568 79.5253 75.4088 79.5253 76.5608Z" fill="white"/>
<defs>
<filter id="filter0_d_182_2542" x="3.68652" y="28.4717" width="30.1289" height="34.7572" filterUnits="userSpaceOnUse" color-interpolation-filters="sRGB">
<feFlood flood-opacity="0" result="BackgroundImageFix"/>
<feColorMatrix in="SourceAlpha" type="matrix" values="0 0 0 0 0 0 0 0 0 0 0 0 0 0 0 0 0 0 127 0" result="hardAlpha"/>
<feOffset dy="4"/>
<feGaussianBlur stdDeviation="2"/>
<feComposite in2="hardAlpha" operator="out"/>
<feColorMatrix type="matrix" values="0 0 0 0 0 0 0 0 0 0 0 0 0 0 0 0 0 0 0.25 0"/>
<feBlend mode="normal" in2="BackgroundImageFix" result="effect1_dropShadow_182_2542"/>
<feBlend mode="normal" in="SourceGraphic" in2="effect1_dropShadow_182_2542" result="shape"/>
</filter>
<clipPath id="clip0_182_2542">
<rect width="28.8843" height="51.8684" fill="white" transform="translate(59.6128)"/>
</clipPath>
</defs>
</svg>
