<svg width="90" height="86" viewBox="0 0 90 86" fill="none" xmlns="http://www.w3.org/2000/svg">
<rect x="21.5801" y="24.1279" width="45.9342" height="45.9342" rx="22.9671" fill="white"/>
<rect x="21.5801" y="24.1279" width="45.9342" height="45.9342" rx="22.9671" stroke="#CDCCCC"/>
<path fill-rule="evenodd" clip-rule="evenodd" d="M57.5656 50.5807C57.3756 50.95 57.0485 51.446 56.7531 51.752C32.9894 51.752 32.9894 51.752 32.9894 51.752C32.7995 51.5198 32.3774 50.9817 32.2086 50.5807L57.5656 50.5807Z" fill="black"/>
<path fill-rule="evenodd" clip-rule="evenodd" d="M55.7928 52.955C33.9708 52.955 33.9708 52.955 33.9708 52.955C34.319 53.377 34.6883 53.7464 35.0893 54.0207C54.5687 54.0207 54.5687 54.0207 54.5687 54.0207C55.0647 53.7464 55.5079 53.377 55.7928 52.955Z" fill="black"/>
<path fill-rule="evenodd" clip-rule="evenodd" d="M53.102 55.1498C47.1084 55.1498 47.1084 55.1498 47.1084 55.1498C46.9395 56.0995 46.9395 56.9859 46.9395 57.6191C48.6912 57.503 50.9916 56.7116 53.102 55.1498Z" fill="black"/>
<path fill-rule="evenodd" clip-rule="evenodd" d="M59.7921 42.8354C57.059 43.0042 53.1336 44.8403 50.5905 47.8266C50.1262 48.3648 49.7041 48.8924 49.377 49.4622C58.1459 49.4622 58.1459 49.4622 58.1459 49.4622C59.3489 47.0985 59.9609 44.7453 59.7921 42.8354Z" fill="black"/>
<path fill-rule="evenodd" clip-rule="evenodd" d="M42.7818 57.6191C42.8134 56.9965 42.8134 56.1101 42.6868 55.1498C36.6509 55.1498 36.6509 55.1498 36.6509 55.1498C38.8036 56.7116 41.104 57.503 42.7818 57.6191Z" fill="black"/>
<path fill-rule="evenodd" clip-rule="evenodd" d="M44.8816 57.809C45.5147 57.1548 46.169 56.2684 46.7493 55.1498C42.9927 55.1498 42.9927 55.1498 42.9927 55.1498C43.6259 56.2684 44.2062 57.1548 44.8816 57.809Z" fill="black"/>
<path fill-rule="evenodd" clip-rule="evenodd" d="M40.4075 49.4516C40.0804 48.8924 39.6372 48.3542 39.194 47.816C36.6509 44.8403 32.7044 42.9937 30.0346 42.8354C29.8447 44.7453 30.4462 47.0985 31.6175 49.4516L40.4075 49.4516Z" fill="black"/>
<path fill-rule="evenodd" clip-rule="evenodd" d="M48.6912 49.4516C48.7439 48.7763 48.8072 48.1221 48.8072 47.3517C48.8072 43.1942 46.9395 38.91 44.8924 37C42.8241 38.91 40.9986 43.1942 40.9986 47.3517C40.9986 48.1221 40.9986 48.7763 41.1147 49.4516L48.6912 49.4516Z" fill="black"/>
<path d="M66.9177 55.4018L66.304 54.6172C62.9389 50.2981 58.7524 44.9249 60.47 37.7246L62.1065 30.8641L63.3172 31.1529C67.6885 32.1956 71.44 31.0735 72.0437 28.5428L74.4651 29.1204C73.8614 31.6511 76.7025 34.3459 81.0737 35.3886L82.2844 35.6774L80.6479 42.5379C78.9303 49.7382 72.769 52.6431 67.8184 54.9772L66.9177 55.4018Z" fill="#7AB9E8"/>
<path d="M81.0738 35.3886C76.7025 34.3459 73.8614 31.6511 74.4651 29.1204L73.2544 28.8316L66.9166 55.4004L66.9178 55.4019L67.8185 54.9772C72.769 52.6431 78.9304 49.7383 80.648 42.5379L82.2845 35.6774L81.0738 35.3886Z" fill="#579ADF"/>
<path fill-rule="evenodd" clip-rule="evenodd" d="M35.148 22.6743C34.8375 23.9347 34.5285 25.194 34.2208 26.4523C37.0557 28.0747 40.6352 28.9807 45.1317 28.9822V23.779L35.148 22.6743Z" fill="#535353"/>
<path fill-rule="evenodd" clip-rule="evenodd" d="M55.1073 22.6743C55.4218 23.9347 55.7336 25.194 56.0427 26.4523C53.2016 28.0747 49.6302 28.9807 45.1317 28.9822V23.779L55.1073 22.6743Z" fill="#676767"/>
<path fill-rule="evenodd" clip-rule="evenodd" d="M47.3634 9.1104C53.8405 3.38226 41.593 3.92506 38.1414 1.02289C37.8978 1.26523 37.7533 1.5566 37.726 1.86077C37.6987 2.16494 37.7897 2.4685 37.9878 2.73371C36.4555 3.68554 33.7619 2.38688 32.3013 4.21123C33.9565 4.13969 34.9643 4.63583 35.5788 5.29994C31.0395 4.77425 32.8155 7.97348 28.9358 8.15389C31.8261 9.37791 38.6146 7.02786 42.8118 9.88804C44.7066 9.83516 45.4686 9.16794 47.3634 9.1104Z" fill="#1B2241"/>
<path fill-rule="evenodd" clip-rule="evenodd" d="M28.9378 8.10096C31.7988 9.36513 38.5376 6.95635 42.7041 9.88802C43.4794 9.85506 44.2422 9.7209 44.9612 9.49107C39.5116 4.67829 34.6761 8.95065 28.9357 8.10096H28.9378Z" fill="#1A1A1A"/>
<path fill-rule="evenodd" clip-rule="evenodd" d="M46.9851 8.62379C46.2371 8.68207 45.5035 8.81652 44.8047 9.02337L44.7553 9.03562C44.9994 8.76311 45.2394 8.4906 45.4753 8.21809C47.6187 6.39471 43.1076 4.23758 40.3718 3.79513C39.3865 4.43201 37.8684 4.13041 37.0909 4.57746C37.7615 5.11942 38.177 6.05637 38.8496 6.59833C31.1687 5.8206 34.6677 7.67 30.9816 8.02825C31.2297 7.90278 31.455 7.75408 31.6521 7.5858C32.8863 6.53709 32.7033 5.39193 35.3938 5.69812L36.8913 5.86806C36.6267 5.59453 36.36 5.3215 36.0912 5.04899C35.4846 4.41602 34.5717 3.98297 33.5446 3.84106C33.7854 3.73622 34.0506 3.6661 34.3263 3.63438C34.5891 3.60477 34.8544 3.58891 35.1203 3.58692C36.3174 3.56549 37.4591 3.63591 38.4115 3.06333L38.7653 2.84747C38.6953 2.75255 38.6234 2.65916 38.5596 2.56577C38.4004 2.35617 38.3335 2.11469 38.3683 1.87531C39.6025 2.57189 41.3098 3.04037 42.7723 3.42923C43.9304 3.73543 45.1461 4.04162 46.2446 4.42283C47.0201 4.69534 47.8902 5.07349 48.3016 5.59095C49.0483 6.55546 47.8943 7.80932 46.9851 8.62379Z" fill="#4386BB"/>
<path fill-rule="evenodd" clip-rule="evenodd" d="M45.9062 8.75058C45.517 8.82677 45.1332 8.9178 44.7563 9.02329L44.7071 9.03562C44.9503 8.76136 45.1894 8.48711 45.4245 8.21285C47.5604 6.3778 43.0652 4.20686 40.3389 3.76158C39.3571 4.40254 37.8443 4.099 37.0695 4.54891C37.7377 5.09434 38.1518 6.03729 38.8221 6.58272C31.1681 5.80001 34.6548 7.66126 30.9816 8.0218C32.894 7.64739 32.8592 6.2946 33.9456 5.9695C35.032 5.64439 36.4668 6.39321 37.5614 6.0681C37.4466 5.44101 36.928 4.93102 36.1737 4.15293C37.2212 3.67683 39.8634 4.10209 39.314 2.72772C41.6651 4.67679 49.2392 3.86943 46.3654 8.58263L45.9062 8.75058Z" fill="#283A84"/>
<path d="M45.2169 12.7863C43.2867 12.7863 41.722 11.7559 41.722 10.4848C41.722 9.21366 43.2867 8.18323 45.2169 8.18323C47.1471 8.18323 48.7119 9.21366 48.7119 10.4848C48.7119 11.7559 47.1471 12.7863 45.2169 12.7863Z" fill="#CDCCCC"/>
<path fill-rule="evenodd" clip-rule="evenodd" d="M45.2015 10.5699C40.8199 10.5699 37.076 12.3071 35.5784 14.7576C34.7741 15.0159 34.2207 15.5478 34.2207 16.1566C34.2248 16.359 34.2859 16.5585 34.4 16.742C34.5141 16.9256 34.6787 17.0891 34.8831 17.222C34.9572 20.8055 39.5486 23.6972 45.2015 23.6972C50.8544 23.6972 55.4294 20.8116 55.5158 17.2373C55.7293 17.104 55.9021 16.938 56.0224 16.7505C56.1427 16.563 56.2078 16.3584 56.2131 16.1504C56.2131 15.5355 55.6413 14.9928 54.8184 14.7392C53.3147 12.2948 49.5769 10.5699 45.2015 10.5699Z" fill="#8B8A8A"/>
<path fill-rule="evenodd" clip-rule="evenodd" d="M46.8366 20.2876C42.9839 20.2876 39.8467 18.3006 39.8467 15.855C39.8467 13.4094 42.9901 11.4224 46.8366 11.4224C50.683 11.4224 53.8264 13.4094 53.8264 15.855C53.8264 18.3006 50.6912 20.2876 46.8366 20.2876Z" fill="#989898"/>
<path fill-rule="evenodd" clip-rule="evenodd" d="M48.9676 15.3435C47.5112 15.3435 46.3251 14.5771 46.3251 13.6387C46.3251 12.7002 47.5112 11.9338 48.9676 11.9338C50.4239 11.9338 51.6101 12.6987 51.6101 13.6387C51.6101 14.5787 50.4116 15.3435 48.9676 15.3435Z" fill="#ACACAC"/>
<path fill-rule="evenodd" clip-rule="evenodd" d="M45.1317 14.3207H45.2317C46.6255 14.3154 48.0089 14.5037 49.3141 14.8764L56.8951 17.0291V23.4436C53.5781 26.3792 49.7101 28.6782 45.1317 30.1756V14.3207Z" fill="#CDCCCC"/>
<path fill-rule="evenodd" clip-rule="evenodd" d="M46.8365 15.3435C47.4406 15.4199 48.0333 15.5429 48.6059 15.7105L50.0593 16.1289V26.864C49.0336 27.4553 47.9576 27.9921 46.8386 28.4708V15.3435H46.8365ZM50.7416 16.3257L53.0022 16.9768V24.9403C52.2876 25.4665 51.5347 25.9755 50.7416 26.4596V16.3257ZM53.6826 17.172L55.1902 17.6061V23.1743C54.7071 23.599 54.2046 24.0154 53.6826 24.4234V17.172Z" fill="#333333"/>
<path fill-rule="evenodd" clip-rule="evenodd" d="M45.1317 14.3207H45.0317C43.6414 14.3163 42.2616 14.5046 40.9595 14.8764L33.3683 17.0275V23.442C36.6873 26.3792 40.5554 28.6782 45.1317 30.1756V14.3207Z" fill="#B4B4B4"/>
<path fill-rule="evenodd" clip-rule="evenodd" d="M43.4269 15.3435C42.8104 15.4202 42.2055 15.5431 41.621 15.7105L40.1376 16.1289V26.864C41.1847 27.455 42.283 27.9918 43.4248 28.4708V15.3435H43.4269ZM39.4411 16.3257L37.136 16.9768V24.9403C37.8633 25.4665 38.6316 25.9755 39.4411 26.4596V16.3257ZM36.4395 17.172L34.9027 17.6061V23.1743C35.3944 23.599 35.9067 24.0154 36.4395 24.4234V17.172Z" fill="#1A1A1A"/>
<path fill-rule="evenodd" clip-rule="evenodd" d="M46.0988 8.69464C45.4445 8.69464 45.1307 9.00067 45.397 9.37658C45.5656 9.57734 45.8075 9.74545 46.0995 9.86485C46.3915 9.98424 46.7239 10.0509 47.0648 10.0585C47.7171 10.0585 48.0309 9.75388 47.7646 9.37658C47.5959 9.17619 47.3542 9.00834 47.0627 8.88899C46.7711 8.76963 46.4393 8.70273 46.0988 8.69464Z" fill="#E3E3E3"/>
<g clip-path="url(#clip0_463_6366)">
<path fill-rule="evenodd" clip-rule="evenodd" d="M29.5728 47.4634L29.4363 47.534C29.2815 47.6171 29.1093 47.6624 28.9337 47.6662C28.758 47.67 28.584 47.6323 28.4257 47.556C28.2654 47.4845 28.1241 47.3762 28.0134 47.2399C27.9027 47.1036 27.8257 46.9431 27.7886 46.7714C27.4748 45.4 26.8471 43.7242 25.9542 41.9935C25.0614 40.2628 24.0587 38.7815 23.1297 37.7318C23.0133 37.601 22.9284 37.4453 22.8813 37.2766C22.8343 37.108 22.8265 36.9308 22.8584 36.7587C22.8904 36.5865 22.9613 36.424 23.0657 36.2834C23.1701 36.1428 23.3052 36.028 23.4608 35.9477L23.5989 35.8771L23.0308 34.7787L20.3632 36.1532L17.6956 37.5262L18.2636 38.6246L18.4001 38.554C18.5564 38.4722 18.7294 38.4275 18.9057 38.4234C19.0821 38.4193 19.257 38.4558 19.4169 38.5301C19.5769 38.6045 19.7175 38.7147 19.828 38.8521C19.9385 38.9896 20.0159 39.1507 20.0541 39.3228C20.3679 40.6927 20.9956 42.3701 21.8885 44.0992C22.7813 45.8284 23.784 47.3112 24.713 48.361C24.8294 48.4919 24.9144 48.6477 24.9614 48.8165C25.0084 48.9852 25.0162 49.1625 24.9843 49.3348C24.9523 49.507 24.8815 49.6697 24.7771 49.8104C24.6727 49.9511 24.5375 50.0661 24.3819 50.1466L24.2438 50.2172L24.8119 51.3156L27.4795 49.9426L30.1409 48.5634L29.5728 47.4634Z" fill="#4592CF"/>
<path fill-rule="evenodd" clip-rule="evenodd" d="M22.7824 38.3794C22.3424 38.609 22.9534 40.6955 24.149 43.0368C25.3446 45.3781 26.6708 47.092 27.103 46.8624C27.5353 46.6328 26.932 44.5463 25.7364 42.205C24.5408 39.8638 23.2224 38.1499 22.7824 38.3794Z" fill="#283A84"/>
<path fill-rule="evenodd" clip-rule="evenodd" d="M3.37494 3.40967L4.80469 11.4889L18.1422 37.3359L22.4691 35.1028L9.13163 9.25577L3.37494 3.40967Z" fill="#D1D2D2"/>
<path fill-rule="evenodd" clip-rule="evenodd" d="M7.69091 7.77382L5.4201 6.295L6.21859 11.1149L18.207 37.3359L4.81097 11.4889L3.37495 3.40967L7.69091 7.77382Z" fill="#E6E6E5"/>
<path fill-rule="evenodd" clip-rule="evenodd" d="M7.12556 10.7405L13.4273 23.6112L19.7307 36.4835L20.4188 36.1334L21.1052 35.7833L14.1154 23.2627L7.12556 10.7405Z" fill="#818181"/>
<path fill-rule="evenodd" clip-rule="evenodd" d="M23.7873 33.5505L16.1588 37.5091C15.7665 37.2252 15.2906 37.0824 14.8078 37.1037C14.325 37.1251 13.8634 37.3094 13.4975 37.6268C13.1315 37.9443 12.8826 38.3765 12.7907 38.8536C12.6989 39.3308 12.7696 39.8251 12.9913 40.257C13.213 40.6888 13.5729 41.033 14.013 41.234C14.453 41.4349 14.9475 41.481 15.4167 41.3648C15.886 41.2485 16.3027 40.9768 16.5995 40.5932C16.8964 40.2097 17.0562 39.7368 17.0531 39.2508L24.6816 35.2923C25.0743 35.577 25.551 35.7203 26.0346 35.6992C26.5183 35.6781 26.9808 35.4937 27.3475 35.1758C27.7142 34.8579 27.9637 34.4251 28.0558 33.9471C28.1479 33.4691 28.0771 32.9739 27.855 32.5413C27.6329 32.1087 27.2723 31.764 26.8315 31.5627C26.3907 31.3615 25.8953 31.3155 25.4252 31.4321C24.9552 31.5487 24.5379 31.8212 24.2408 32.2055C23.9436 32.5899 23.7838 33.0637 23.7873 33.5505Z" fill="#333333"/>
</g>
<path d="M17.4255 84L16.4655 81.768H11.7015L10.7415 84H9.80553L13.5735 75.252H14.6175L18.3975 84H17.4255ZM16.1175 80.928L14.0775 76.2L12.0495 80.928H16.1175ZM18.9817 81.012C18.9817 80.212 19.2377 79.504 19.7497 78.888C20.2697 78.248 20.9457 77.928 21.7777 77.928C22.3297 77.928 22.8017 78.068 23.1937 78.348C23.5297 78.588 23.8297 78.9 24.0937 79.284V74.904H24.9577V84H24.1057V82.728C23.5617 83.632 22.7857 84.084 21.7777 84.084C20.9457 84.084 20.2657 83.776 19.7377 83.16C19.2337 82.552 18.9817 81.836 18.9817 81.012ZM21.9577 83.328C22.5577 83.336 23.0697 83.104 23.4937 82.632C23.9177 82.16 24.1217 81.616 24.1057 81C24.1057 80.608 24.0137 80.24 23.8297 79.896C23.6457 79.544 23.3897 79.256 23.0617 79.032C22.7257 78.816 22.3577 78.708 21.9577 78.708C21.3177 78.708 20.8137 78.928 20.4457 79.368C20.0617 79.816 19.8697 80.372 19.8697 81.036C19.8697 81.908 20.1937 82.564 20.8417 83.004C21.1697 83.22 21.5417 83.328 21.9577 83.328ZM26.9014 76.368C26.7734 76.224 26.7094 76.068 26.7094 75.9C26.7094 75.732 26.7734 75.576 26.9014 75.432C27.0294 75.304 27.1854 75.24 27.3694 75.24C27.5454 75.24 27.6974 75.304 27.8254 75.432C27.9534 75.56 28.0174 75.716 28.0174 75.9C28.0174 76.084 27.9534 76.24 27.8254 76.368C27.6974 76.496 27.5454 76.56 27.3694 76.56C27.1854 76.56 27.0294 76.496 26.9014 76.368ZM26.9254 84V78.036H27.8014V84H26.9254ZM29.3411 81.012C29.3411 80.212 29.5971 79.504 30.1091 78.888C30.6291 78.248 31.3051 77.928 32.1371 77.928C32.6891 77.928 33.1611 78.068 33.5531 78.348C33.8891 78.588 34.1891 78.9 34.4531 79.284V74.904H35.3171V84H34.4651V82.728C33.9211 83.632 33.1451 84.084 32.1371 84.084C31.3051 84.084 30.6251 83.776 30.0971 83.16C29.5931 82.552 29.3411 81.836 29.3411 81.012ZM32.3171 83.328C32.9171 83.336 33.4291 83.104 33.8531 82.632C34.2771 82.16 34.4811 81.616 34.4651 81C34.4651 80.608 34.3731 80.24 34.1891 79.896C34.0051 79.544 33.7491 79.256 33.4211 79.032C33.0851 78.816 32.7171 78.708 32.3171 78.708C31.6771 78.708 31.1731 78.928 30.8051 79.368C30.4211 79.816 30.2291 80.372 30.2291 81.036C30.2291 81.908 30.5531 82.564 31.2011 83.004C31.5291 83.22 31.9011 83.328 32.3171 83.328ZM39.2288 80.556H40.8848V80.16C40.8848 79.192 40.3768 78.708 39.3608 78.708C38.8728 78.708 38.4968 78.84 38.2328 79.104C37.9928 79.344 37.8488 79.616 37.8008 79.92L36.9608 79.74C36.9688 79.572 37.0488 79.36 37.2008 79.104C37.3528 78.848 37.5528 78.62 37.8008 78.42C38.2248 78.092 38.7528 77.928 39.3848 77.928C40.4728 77.928 41.1968 78.34 41.5568 79.164C41.6768 79.444 41.7368 79.772 41.7368 80.148V81.828C41.7368 82.804 41.7688 83.528 41.8328 84H40.9688C40.9128 83.696 40.8848 83.348 40.8848 82.956C40.3808 83.724 39.7088 84.108 38.8688 84.108C38.2688 84.108 37.7888 83.94 37.4288 83.604C37.0528 83.276 36.8648 82.856 36.8648 82.344V82.284C36.8648 81.692 37.1008 81.256 37.5728 80.976C38.0528 80.696 38.6048 80.556 39.2288 80.556ZM40.8848 81.48V81.276H39.2168C38.8488 81.276 38.5248 81.344 38.2448 81.48C37.9088 81.624 37.7408 81.888 37.7408 82.272C37.7408 82.6 37.8648 82.86 38.1128 83.052C38.3528 83.244 38.6568 83.34 39.0248 83.34C39.5448 83.34 39.9888 83.164 40.3568 82.812C40.7088 82.476 40.8848 82.032 40.8848 81.48ZM47.5723 82.308C47.5723 82.844 47.3683 83.272 46.9603 83.592C46.5523 83.928 46.0523 84.096 45.4603 84.096C44.5883 84.096 43.9523 83.808 43.5523 83.232C43.3523 82.96 43.2323 82.656 43.1923 82.32L43.9843 82.116C44.0403 82.444 44.1883 82.732 44.4283 82.98C44.6763 83.22 45.0163 83.34 45.4483 83.34C45.7763 83.34 46.0683 83.248 46.3243 83.064C46.5643 82.896 46.6843 82.66 46.6843 82.356C46.6843 82.116 46.5883 81.924 46.3963 81.78C46.2203 81.636 45.9923 81.532 45.7123 81.468L44.8003 81.264C43.8083 81.048 43.3123 80.528 43.3123 79.704C43.3123 79.088 43.5603 78.628 44.0563 78.324C44.4803 78.06 44.9083 77.928 45.3403 77.928C46.1563 77.936 46.7523 78.2 47.1283 78.72C47.3123 78.984 47.4323 79.252 47.4883 79.524L46.6963 79.752C46.6403 79.52 46.5243 79.296 46.3483 79.08C46.1323 78.824 45.7963 78.696 45.3403 78.696C45.0123 78.696 44.7403 78.788 44.5243 78.972C44.3003 79.148 44.1883 79.372 44.1883 79.644C44.1883 80.044 44.4763 80.316 45.0523 80.46L46.0123 80.676C46.4523 80.78 46.8203 80.968 47.1163 81.24C47.4203 81.512 47.5723 81.868 47.5723 82.308ZM51.8539 80.004V79.716C51.8539 78.564 52.1339 77.516 52.6939 76.572C53.2459 75.62 54.0259 74.856 55.0339 74.28L55.3939 74.844C53.6259 75.98 52.7419 77.608 52.7419 79.728V79.992C52.7419 82.096 53.6259 83.72 55.3939 84.864L55.0339 85.452C54.0259 84.868 53.2459 84.1 52.6939 83.148C52.1339 82.204 51.8539 81.156 51.8539 80.004ZM63.3513 84L62.3913 81.768H57.6273L56.6673 84H55.7313L59.4993 75.252H60.5433L64.3233 84H63.3513ZM62.0433 80.928L60.0033 76.2L57.9753 80.928H62.0433ZM65.5675 84V75.252H68.1715C68.8515 75.252 69.4755 75.364 70.0435 75.588C70.6115 75.804 71.0995 76.108 71.5075 76.5C72.3635 77.332 72.7915 78.368 72.7915 79.608C72.7915 80.248 72.6715 80.844 72.4315 81.396C72.1995 81.924 71.8715 82.388 71.4475 82.788C70.5595 83.596 69.4675 84 68.1715 84H65.5675ZM66.4915 76.116V83.136H68.1355C68.8635 83.136 69.5075 82.984 70.0675 82.68C70.6435 82.376 71.0795 81.964 71.3755 81.444C71.6875 80.916 71.8435 80.312 71.8435 79.632C71.8435 78.624 71.5075 77.784 70.8355 77.112C70.1715 76.448 69.2715 76.116 68.1355 76.116H66.4915ZM77.0266 84.084C76.1786 84.084 75.4666 83.828 74.8906 83.316C74.3306 82.828 74.0106 82.26 73.9306 81.612L74.7946 81.372C74.8906 81.884 75.1546 82.32 75.5866 82.68C76.0106 83.04 76.4906 83.22 77.0266 83.22C77.5626 83.22 78.0106 83.092 78.3706 82.836C78.7786 82.556 78.9826 82.152 78.9826 81.624C78.9826 81.08 78.7386 80.664 78.2506 80.376C78.0266 80.24 77.7506 80.14 77.4226 80.076L76.2706 79.848C76.0386 79.8 75.7826 79.716 75.5026 79.596C75.2146 79.46 74.9746 79.296 74.7826 79.104C74.3746 78.704 74.1706 78.2 74.1706 77.592C74.1706 77.112 74.3026 76.684 74.5666 76.308C74.8226 75.94 75.1626 75.652 75.5866 75.444C76.0026 75.252 76.4546 75.156 76.9426 75.156C77.7986 75.156 78.4666 75.368 78.9466 75.792C79.4346 76.216 79.7306 76.704 79.8346 77.256L78.9946 77.52C78.9066 77.128 78.6906 76.78 78.3466 76.476C78.0106 76.164 77.5386 76.008 76.9306 76.008C76.4506 75.992 76.0226 76.136 75.6466 76.44C75.2706 76.744 75.0866 77.116 75.0946 77.556C75.0946 77.9 75.2026 78.196 75.4186 78.444C75.6346 78.692 75.9506 78.856 76.3666 78.936L77.4706 79.152C78.2306 79.296 78.7986 79.552 79.1746 79.92C79.4306 80.152 79.6226 80.42 79.7506 80.724C79.8706 81.02 79.9306 81.288 79.9306 81.528C79.9386 82.288 79.6626 82.908 79.1026 83.388C78.5426 83.868 77.8506 84.1 77.0266 84.084ZM83.6291 79.716V80.004C83.6291 81.164 83.3531 82.216 82.8011 83.16C82.2411 84.104 81.4571 84.868 80.4491 85.452L80.0891 84.864C81.8571 83.72 82.7411 82.096 82.7411 79.992V79.728C82.7411 77.608 81.8571 75.98 80.0891 74.844L80.4491 74.28C81.4571 74.848 82.2411 75.608 82.8011 76.56C83.3531 77.512 83.6291 78.564 83.6291 79.716Z" fill="white"/>
<defs>
<clipPath id="clip0_463_6366">
<rect width="28.9942" height="52.0657" fill="white" transform="matrix(-1 0 0 1 29.9704 0)"/>
</clipPath>
</defs>
</svg>
