<svg width="90" height="87" viewBox="0 0 90 87" fill="none" xmlns="http://www.w3.org/2000/svg">
<rect x="21.7334" y="24.2155" width="45.9369" height="45.9369" rx="22.9685" fill="black"/>
<rect x="21.7334" y="24.2155" width="45.9369" height="45.9369" rx="22.9685" stroke="#CDCCCC"/>
<path d="M56.728 47.7706C56.1247 47.9098 54.5314 47.9872 54.5314 47.9872L54.3354 48.6163C54.3354 48.6163 55.1244 48.5492 55.7019 48.606C55.7019 48.606 55.8875 48.5905 55.9082 48.8122C55.9185 49.0391 55.8927 49.2763 55.8927 49.2763C55.8927 49.2763 55.8772 49.4155 55.6864 49.4516C55.4647 49.4877 53.9693 49.5548 53.9693 49.5548L53.727 50.3695C53.727 50.3695 53.6393 50.5551 53.8404 50.5036C54.026 50.452 55.5936 50.1529 55.7999 50.1942C56.0164 50.2457 56.264 50.5448 56.1918 50.8129C56.1093 51.1378 54.5417 52.1382 53.5929 52.0711C53.5929 52.0711 53.0927 52.1021 52.675 51.4266C52.2728 50.782 52.8143 49.5702 52.8143 49.5702C52.8143 49.5702 52.5719 49.003 52.7524 48.7968C52.7524 48.7968 52.8555 48.7091 53.1649 48.6833L53.5516 47.8892C53.5516 47.8892 53.1133 47.915 52.8555 47.5953C52.6183 47.2859 52.5977 47.1518 52.7833 47.0693C52.9793 46.9662 54.7944 46.6413 56.0422 46.6826C56.0422 46.6826 56.4805 46.631 56.8673 47.389C56.8673 47.389 57.0426 47.6984 56.7332 47.7706M52.0253 50.8233C51.8706 51.1997 51.4426 51.5967 50.927 51.3544C50.401 51.1069 49.5708 49.4155 49.5708 49.4155C49.5708 49.4155 49.2614 48.7864 49.1996 48.8071C49.1996 48.8071 49.1325 48.6833 49.0964 49.3743C49.0449 50.0601 49.1067 51.3956 48.8231 51.607C48.5653 51.8133 48.2559 51.7256 48.0806 51.4833C47.9362 51.2409 47.8743 50.6583 47.9568 49.6424C48.0497 48.6266 48.2817 47.5437 48.5756 47.2086C48.885 46.8682 49.1325 47.1157 49.2253 47.2086C49.2253 47.2086 49.6224 47.5695 50.2927 48.6369L50.4062 48.8329C50.4062 48.8329 51.0146 49.8487 51.0765 49.8435C51.0765 49.8435 51.1281 49.8951 51.1693 49.8538C51.2312 49.8384 51.2106 49.5084 51.2106 49.5084C51.2106 49.5084 51.0972 48.41 50.5299 46.5537C50.5299 46.5537 50.4474 46.3165 50.5042 46.0896C50.5557 45.8833 50.7774 45.9865 50.7774 45.9865C50.7774 45.9865 51.6334 46.399 52.0511 47.7912C52.4636 49.1835 52.1852 50.4468 52.0305 50.8233M47.8279 47.2498C47.7454 47.3942 47.7093 47.5953 47.3535 47.652C47.3535 47.652 43.8987 47.8944 43.7285 48.1367C43.7285 48.1367 43.6151 48.2811 43.8007 48.3172C43.9967 48.3585 44.7805 48.4616 45.1517 48.4822C45.5539 48.4822 46.9049 48.4925 47.3999 49.101C47.3999 49.101 47.6836 49.3898 47.6732 50.0446C47.6629 50.715 47.5443 50.9522 47.2813 51.1945C47.0081 51.4214 44.667 52.4733 43.1562 50.8645C43.1562 50.8645 42.4652 50.091 43.3985 49.5032C43.3985 49.5032 44.0689 49.0907 45.786 49.5702C45.786 49.5702 46.3016 49.7559 46.281 49.9467C46.25 50.1529 45.853 50.3592 45.2755 50.3489C44.7186 50.3334 44.3061 50.0653 44.3886 50.1117C44.4659 50.1374 43.7852 49.7816 43.5738 50.024C43.3676 50.2509 43.4191 50.385 43.6254 50.5242C44.141 50.8233 46.1675 50.715 46.7709 50.0395C46.7709 50.0395 47.0132 49.7662 46.6471 49.5444C46.2861 49.3382 45.2342 49.2093 44.8269 49.1938C44.4401 49.1732 42.9911 49.1938 42.7746 48.8174C42.7746 48.8174 42.5683 48.5492 42.7952 47.817C43.0324 47.0436 44.7186 46.7445 45.4508 46.6826C45.4508 46.6826 47.4618 46.6001 47.8382 47.0126C47.8382 47.0126 47.8898 47.1054 47.8279 47.2447M42.1249 51.7824C41.8825 51.9628 41.3669 51.8855 41.2173 51.6792C41.0729 51.4988 41.0214 50.7872 41.0472 49.6682C41.0832 48.5235 41.0987 47.1209 41.3565 46.894C41.6144 46.6723 41.7691 46.8682 41.8722 47.0178C41.9753 47.1725 42.1094 47.3426 42.13 47.6984C42.161 48.0594 42.2486 49.9157 42.2486 49.9157C42.2486 49.9157 42.3621 51.607 42.13 51.7824M42.6405 45.7493C41.9289 45.9916 41.4442 45.9143 41.0317 45.7338C40.8512 46.0587 40.7429 46.1566 40.6089 46.1773C40.4026 46.1979 40.2221 45.8679 40.1963 45.7647C40.1551 45.6874 40.0571 45.5482 40.1757 45.2336C39.7735 44.8727 39.7426 44.388 39.8148 44.0631C39.9076 43.6815 40.5882 42.248 42.6508 42.0779C42.6508 42.0779 43.6615 42.0057 43.8368 42.5419H43.8678C43.8678 42.5419 44.8475 42.5419 44.8269 43.4185C44.8269 44.2951 43.744 45.3883 42.6405 45.7647M43.5584 43.2535C42.9086 43.3567 41.9083 44.223 41.4287 44.9397C42.1661 45.0738 43.4552 45.0222 44.0328 43.8568C44.0328 43.8568 44.3061 43.1246 43.5584 43.2535ZM40.7068 43.8207C40.5006 44.1559 40.4903 44.357 40.5882 44.4911C40.8306 44.1301 41.2586 43.5629 41.9031 43.1195C41.4081 43.171 40.9904 43.3773 40.7068 43.8207ZM58.275 51.7463C57.8006 52.9116 57.3984 54.0925 57.1663 55.8611C57.1663 55.8611 57.1148 56.2066 56.8312 56.0932C56.5476 55.9901 56.0835 55.526 55.9803 54.8711C55.8772 54.0151 56.2588 52.5713 57.0374 50.9109C56.8105 50.55 56.6507 50.0137 56.7796 49.2608C56.7796 49.2608 56.9859 47.8686 58.3781 46.6104C58.3781 46.6104 58.5431 46.4712 58.6359 46.5176C58.7494 46.5692 58.703 47.0126 58.6102 47.2395C58.5277 47.4561 57.9089 48.5286 57.9089 48.5286C57.9089 48.5286 57.5221 49.2608 57.6304 49.8332C58.3626 48.7091 60.0282 46.4299 61.0595 47.1518C61.7144 47.6159 61.7144 49.1113 61.2245 49.9776C60.8378 50.6634 59.7446 52.0814 58.2853 51.7514M60.4304 48.245C60.0488 48.6575 59.3682 49.4413 58.8319 50.5036C59.3991 50.4417 59.9508 50.1271 60.121 49.9673C60.3943 49.7249 61.0234 49.0701 60.9254 48.2038C60.9254 48.2038 60.8635 47.75 60.4304 48.245ZM37.3293 52.3547C35.5039 52.9116 33.7817 52.6538 32.8432 52.4063C32.8174 52.7879 32.7761 52.9477 32.7143 53.0096C32.6421 53.0921 32.0439 53.4324 31.7139 52.9477C31.5695 52.7157 31.4973 52.298 31.4561 51.9164C29.3419 50.9573 28.3622 49.5444 28.3312 49.4929C28.2797 49.4413 27.8001 48.9411 28.2797 48.3224C28.7283 47.7655 30.2134 47.2034 31.5437 46.9817C31.5953 45.8472 31.7191 44.9706 31.8789 44.5839C32.0697 44.1198 32.3121 44.5323 32.5286 44.8417C32.704 45.0738 32.8122 46.069 32.8226 46.8631C33.6888 46.8218 34.2148 46.8837 35.1791 47.0693C36.4476 47.2859 37.2932 47.9356 37.2262 48.6678C37.1643 49.3898 36.5043 49.6888 36.2465 49.7095C35.9886 49.7301 35.5761 49.5393 35.5761 49.5393C35.2874 49.4052 35.5503 49.2815 35.8855 49.1371C36.2568 48.9566 36.1743 48.7761 36.1743 48.7761C36.0402 48.3636 34.3953 48.0903 32.7607 48.0903C32.7607 48.9927 32.7968 50.4881 32.8226 51.3595C33.9673 51.5761 34.8233 51.5297 34.8233 51.5297C34.8233 51.5297 39 51.4111 39.1186 48.7452C39.2475 46.0741 34.9419 43.5165 31.7706 42.7121C28.6045 41.8819 26.8101 42.4697 26.6554 42.5471C26.4852 42.6296 26.6399 42.6605 26.6399 42.6605C26.6399 42.6605 26.8101 42.6863 27.1195 42.7894C27.4289 42.8926 27.1814 43.0473 27.1814 43.0473C26.6399 43.2329 26.0366 43.1246 25.918 42.8771C25.7994 42.6348 25.9954 42.413 26.2274 42.0882C26.444 41.753 26.6915 41.7633 26.6915 41.7633C30.6104 40.3968 35.3956 42.8462 35.3956 42.8462C39.8715 45.1047 40.6346 47.7603 40.5521 48.7916C40.4799 49.8074 40.088 51.5245 37.3293 52.3599M28.718 48.6678C28.2745 48.8741 28.5839 49.2041 28.5839 49.2041C29.4193 50.0962 30.4403 50.6583 31.42 51.0089C31.5334 49.4619 31.5231 48.9102 31.5231 48.1316C30.0071 48.2347 29.1305 48.4822 28.718 48.6678Z" fill="white"/>
<path d="M66.9178 55.4018L66.3041 54.6172C62.939 50.2981 58.7525 44.9249 60.4701 37.7246L62.1066 30.8641L63.3173 31.1529C67.6886 32.1956 71.4401 31.0735 72.0438 28.5428L74.4652 29.1204C73.8615 31.6511 76.7026 34.3459 81.0738 35.3886L82.2845 35.6774L80.648 42.5379C78.9304 49.7382 72.7691 52.6431 67.8185 54.9772L66.9178 55.4018Z" fill="#7AB9E8"/>
<path d="M81.0738 35.3887C76.7025 34.3459 73.8614 31.6512 74.4651 29.1205L73.2544 28.8317L66.9166 55.4004L66.9178 55.4019L67.8185 54.9773C72.769 52.6431 78.9303 49.7383 80.6479 42.538L82.2845 35.6775L81.0738 35.3887Z" fill="#579ADF"/>
<path fill-rule="evenodd" clip-rule="evenodd" d="M35.1481 22.6743C34.8376 23.9347 34.5286 25.194 34.2209 26.4523C37.0558 28.0747 40.6353 28.9807 45.1318 28.9822V23.779L35.1481 22.6743Z" fill="#535353"/>
<path fill-rule="evenodd" clip-rule="evenodd" d="M55.1071 22.6743C55.4216 23.9347 55.7334 25.194 56.0425 26.4523C53.2014 28.0747 49.6301 28.9807 45.1315 28.9822V23.779L55.1071 22.6743Z" fill="#676767"/>
<path fill-rule="evenodd" clip-rule="evenodd" d="M47.3632 9.11046C53.8403 3.38232 41.5928 3.92512 38.1412 1.02295C37.8976 1.26529 37.7531 1.55666 37.7258 1.86083C37.6985 2.165 37.7895 2.46856 37.9876 2.73377C36.4554 3.68561 33.7617 2.38694 32.3011 4.21129C33.9563 4.13975 34.9641 4.63589 35.5786 5.3C31.0393 4.77431 32.8153 7.97354 28.9356 8.15395C31.8259 9.37797 38.6144 7.02792 42.8116 9.8881C44.7064 9.83522 45.4684 9.168 47.3632 9.11046Z" fill="#1B2241"/>
<path fill-rule="evenodd" clip-rule="evenodd" d="M28.9375 8.10108C31.7985 9.36525 38.5373 6.95647 42.7038 9.88814C43.4791 9.85518 44.242 9.72102 44.9609 9.49119C39.5113 4.67842 34.6758 8.95077 28.9355 8.10108H28.9375Z" fill="#1A1A1A"/>
<path fill-rule="evenodd" clip-rule="evenodd" d="M46.9852 8.62385C46.2373 8.68213 45.5036 8.81658 44.8048 9.02344L44.7554 9.03568C44.9995 8.76317 45.2395 8.49066 45.4754 8.21815C47.6188 6.39477 43.1078 4.23764 40.3719 3.79519C39.3866 4.43208 37.8686 4.13048 37.091 4.57752C37.7616 5.11948 38.1771 6.05643 38.8497 6.59839C31.1689 5.82066 34.6678 7.67006 30.9817 8.02831C31.2298 7.90284 31.4552 7.75414 31.6523 7.58586C32.8865 6.53715 32.7034 5.39199 35.394 5.69818L36.8915 5.86812C36.6268 5.59459 36.3601 5.32156 36.0913 5.04905C35.4847 4.41608 34.5718 3.98303 33.5447 3.84112C33.7855 3.73628 34.0507 3.66616 34.3264 3.63444C34.5892 3.60483 34.8546 3.58897 35.1204 3.58698C36.3176 3.56555 37.4592 3.63597 38.4116 3.06339L38.7654 2.84753C38.6955 2.75261 38.6235 2.65922 38.5597 2.56583C38.4005 2.35623 38.3336 2.11475 38.3684 1.87537C39.6026 2.57195 41.3099 3.04043 42.7725 3.42929C43.9306 3.73549 45.1463 4.04168 46.2447 4.42289C47.0202 4.6954 47.8903 5.07355 48.3017 5.59101C49.0484 6.55552 47.8944 7.80938 46.9852 8.62385Z" fill="#4386BB"/>
<path fill-rule="evenodd" clip-rule="evenodd" d="M45.906 8.75064C45.5168 8.82683 45.133 8.91786 44.7561 9.02335L44.7069 9.03568C44.9501 8.76142 45.1893 8.48717 45.4243 8.21291C47.5602 6.37786 43.065 4.20692 40.3387 3.76164C39.3569 4.4026 37.8441 4.09907 37.0693 4.54897C37.7375 5.0944 38.1516 6.03735 38.8219 6.58278C31.1679 5.80007 34.6546 7.66132 30.9814 8.02186C32.8938 7.64745 32.859 6.29466 33.9454 5.96956C35.0318 5.64445 36.4667 6.39327 37.5612 6.06816C37.4465 5.44107 36.9279 4.93108 36.1735 4.15299C37.221 3.6769 39.8632 4.10215 39.3138 2.72778C41.665 4.67685 49.239 3.86949 46.3652 8.5827L45.906 8.75064Z" fill="#283A84"/>
<path d="M45.217 12.7863C43.2868 12.7863 41.7221 11.7559 41.7221 10.4848C41.7221 9.21366 43.2868 8.18323 45.217 8.18323C47.1472 8.18323 48.7119 9.21366 48.7119 10.4848C48.7119 11.7559 47.1472 12.7863 45.217 12.7863Z" fill="#CDCCCC"/>
<path fill-rule="evenodd" clip-rule="evenodd" d="M45.2013 10.5701C40.8197 10.5701 37.0757 12.3072 35.5782 14.7577C34.7739 15.016 34.2205 15.5479 34.2205 16.1567C34.2245 16.3591 34.2856 16.5586 34.3998 16.7422C34.5139 16.9257 34.6785 17.0893 34.8829 17.2221C34.9569 20.8056 39.5484 23.6973 45.2013 23.6973C50.8542 23.6973 55.4291 20.8117 55.5155 17.2375C55.7291 17.1041 55.9019 16.9381 56.0222 16.7506C56.1425 16.5631 56.2075 16.3585 56.2129 16.1506C56.2129 15.5356 55.641 14.993 54.8182 14.7393C53.3144 12.295 49.5767 10.5701 45.2013 10.5701Z" fill="#8B8A8A"/>
<path fill-rule="evenodd" clip-rule="evenodd" d="M46.8363 20.2876C42.9837 20.2876 39.8465 18.3006 39.8465 15.8551C39.8465 13.4095 42.9899 11.4225 46.8363 11.4225C50.6828 11.4225 53.8262 13.4095 53.8262 15.8551C53.8262 18.3006 50.691 20.2876 46.8363 20.2876Z" fill="#989898"/>
<path fill-rule="evenodd" clip-rule="evenodd" d="M48.9674 15.3436C47.511 15.3436 46.3249 14.5772 46.3249 13.6388C46.3249 12.7004 47.511 11.934 48.9674 11.934C50.4237 11.934 51.6099 12.6988 51.6099 13.6388C51.6099 14.5788 50.4114 15.3436 48.9674 15.3436Z" fill="#ACACAC"/>
<path fill-rule="evenodd" clip-rule="evenodd" d="M45.1316 14.3208H45.2317C46.6254 14.3154 48.0088 14.5037 49.314 14.8765L56.895 17.0292V23.4436C53.5781 26.3793 49.71 28.6783 45.1316 30.1757V14.3208Z" fill="#CDCCCC"/>
<path fill-rule="evenodd" clip-rule="evenodd" d="M46.8362 15.3436C47.4403 15.4201 48.033 15.543 48.6056 15.7106L50.059 16.129V26.8641C49.0333 27.4554 47.9573 27.9922 46.8383 28.4709V15.3436H46.8362ZM50.7413 16.3258L53.0019 16.9769V24.9404C52.2873 25.4666 51.5344 25.9756 50.7413 26.4597V16.3258ZM53.6822 17.1721L55.1899 17.6062V23.1744C54.7068 23.5991 54.2043 24.0155 53.6822 24.4236V17.1721Z" fill="#333333"/>
<path fill-rule="evenodd" clip-rule="evenodd" d="M45.1318 14.3208H45.0318C43.6415 14.3163 42.2617 14.5046 40.9596 14.8764L33.3685 17.0276V23.4421C36.6874 26.3793 40.5555 28.6783 45.1318 30.1757V14.3208Z" fill="#B4B4B4"/>
<path fill-rule="evenodd" clip-rule="evenodd" d="M43.4268 15.3436C42.8103 15.4203 42.2054 15.5432 41.6208 15.7106L40.1375 16.129V26.8641C41.1846 27.4551 42.2828 27.9919 43.4247 28.4709V15.3436H43.4268ZM39.441 16.3258L37.1358 16.9769V24.9404C37.8631 25.4666 38.6315 25.9756 39.441 26.4597V16.3258ZM36.4394 17.1721L34.9026 17.6062V23.1744C35.3943 23.5991 35.9065 24.0155 36.4394 24.4236V17.1721Z" fill="#1A1A1A"/>
<path fill-rule="evenodd" clip-rule="evenodd" d="M46.0987 8.6947C45.4444 8.6947 45.1306 9.00073 45.3969 9.37664C45.5655 9.5774 45.8074 9.74551 46.0994 9.86491C46.3915 9.9843 46.7238 10.051 47.0648 10.0586C47.7171 10.0586 48.0308 9.75394 47.7645 9.37664C47.5958 9.17625 47.3542 9.00841 47.0626 8.88905C46.7711 8.76969 46.4393 8.70279 46.0987 8.6947Z" fill="#E3E3E3"/>
<g clip-path="url(#clip0_182_2502)">
<path fill-rule="evenodd" clip-rule="evenodd" d="M29.5726 47.4634L29.4361 47.534C29.2813 47.6171 29.109 47.6624 28.9334 47.6662C28.7578 47.67 28.5837 47.6323 28.4255 47.556C28.2651 47.4845 28.1238 47.3762 28.0132 47.2399C27.9025 47.1036 27.8255 46.9431 27.7884 46.7714C27.4746 45.4 26.8469 43.7242 25.954 41.9935C25.0611 40.2628 24.0584 38.7815 23.1294 37.7318C23.0131 37.601 22.9281 37.4453 22.8811 37.2766C22.8341 37.108 22.8263 36.9308 22.8582 36.7587C22.8901 36.5865 22.961 36.424 23.0654 36.2834C23.1698 36.1428 23.305 36.028 23.4605 35.9477L23.5986 35.8771L23.0306 34.7787L20.363 36.1532L17.6953 37.5262L18.2634 38.6246L18.3999 38.554C18.5562 38.4722 18.7292 38.4275 18.9055 38.4234C19.0818 38.4192 19.2567 38.4558 19.4167 38.5301C19.5766 38.6045 19.7173 38.7147 19.8278 38.8521C19.9383 38.9896 20.0156 39.1507 20.0538 39.3228C20.3677 40.6927 20.9953 42.3701 21.8882 44.0992C22.7811 45.8284 23.7838 47.3112 24.7128 48.361C24.8292 48.4919 24.9141 48.6477 24.9611 48.8165C25.0081 48.9852 25.016 49.1625 24.984 49.3348C24.9521 49.507 24.8812 49.6697 24.7768 49.8104C24.6724 49.9511 24.5373 50.0661 24.3817 50.1466L24.2436 50.2172L24.8116 51.3156L27.4793 49.9426L30.1406 48.5634L29.5726 47.4634Z" fill="#4592CF"/>
<path fill-rule="evenodd" clip-rule="evenodd" d="M22.7819 38.3795C22.3419 38.6091 22.9529 40.6956 24.1485 43.0369C25.3441 45.3781 26.6703 47.092 27.1025 46.8625C27.5348 46.6329 26.9315 44.5463 25.7359 42.2051C24.5403 39.8638 23.2219 38.1499 22.7819 38.3795Z" fill="#283A84"/>
<path fill-rule="evenodd" clip-rule="evenodd" d="M3.37457 3.40967L4.80432 11.4889L18.1418 37.3359L22.4688 35.1028L9.13127 9.25577L3.37457 3.40967Z" fill="#D1D2D2"/>
<path fill-rule="evenodd" clip-rule="evenodd" d="M7.69042 7.77382L5.41961 6.295L6.2181 11.1149L18.2065 37.3359L4.81048 11.4889L3.37446 3.40967L7.69042 7.77382Z" fill="#E6E6E5"/>
<path fill-rule="evenodd" clip-rule="evenodd" d="M7.12532 10.7405L13.4271 23.6112L19.7305 36.4835L20.4185 36.1334L21.105 35.7833L14.1151 23.2627L7.12532 10.7405Z" fill="#818181"/>
<path fill-rule="evenodd" clip-rule="evenodd" d="M23.7869 33.5505L16.1584 37.5091C15.7662 37.2252 15.2903 37.0824 14.8074 37.1037C14.3246 37.1251 13.863 37.3094 13.4971 37.6268C13.1312 37.9443 12.8822 38.3765 12.7904 38.8536C12.6986 39.3308 12.7692 39.8251 12.9909 40.257C13.2127 40.6888 13.5726 41.033 14.0126 41.234C14.4526 41.4349 14.9471 41.481 15.4164 41.3648C15.8856 41.2485 16.3023 40.9768 16.5992 40.5932C16.896 40.2097 17.0558 39.7368 17.0527 39.2508L24.6812 35.2923C25.074 35.577 25.5506 35.7203 26.0343 35.6992C26.5179 35.6781 26.9804 35.4937 27.3471 35.1758C27.7138 34.8579 27.9633 34.4251 28.0554 33.9471C28.1475 33.4691 28.0768 32.9739 27.8546 32.5413C27.6325 32.1087 27.272 31.764 26.8311 31.5627C26.3903 31.3615 25.8949 31.3155 25.4249 31.4321C24.9548 31.5487 24.5376 31.8212 24.2404 32.2055C23.9432 32.5899 23.7835 33.0637 23.7869 33.5505Z" fill="#333333"/>
</g>
<path d="M14.0805 83.509V74.761H16.6845C17.3645 74.761 17.9885 74.873 18.5565 75.097C19.1245 75.313 19.6125 75.617 20.0205 76.009C20.8765 76.841 21.3045 77.877 21.3045 79.117C21.3045 79.757 21.1845 80.353 20.9445 80.905C20.7125 81.433 20.3845 81.897 19.9605 82.297C19.0725 83.105 17.9805 83.509 16.6845 83.509H14.0805ZM15.0045 75.625V82.645H16.6485C17.3765 82.645 18.0205 82.493 18.5805 82.189C19.1565 81.885 19.5925 81.473 19.8885 80.953C20.2005 80.425 20.3565 79.821 20.3565 79.141C20.3565 78.133 20.0205 77.293 19.3485 76.621C18.6845 75.957 17.7845 75.625 16.6485 75.625H15.0045ZM22.8636 75.877C22.7356 75.733 22.6716 75.577 22.6716 75.409C22.6716 75.241 22.7356 75.085 22.8636 74.941C22.9916 74.813 23.1476 74.749 23.3316 74.749C23.5076 74.749 23.6596 74.813 23.7876 74.941C23.9156 75.069 23.9796 75.225 23.9796 75.409C23.9796 75.593 23.9156 75.749 23.7876 75.877C23.6596 76.005 23.5076 76.069 23.3316 76.069C23.1476 76.069 22.9916 76.005 22.8636 75.877ZM22.8876 83.509V77.545H23.7636V83.509H22.8876ZM29.6713 81.817C29.6713 82.353 29.4673 82.781 29.0593 83.101C28.6513 83.437 28.1513 83.605 27.5593 83.605C26.6873 83.605 26.0513 83.317 25.6513 82.741C25.4513 82.469 25.3313 82.165 25.2913 81.829L26.0833 81.625C26.1393 81.953 26.2873 82.241 26.5273 82.489C26.7753 82.729 27.1153 82.849 27.5473 82.849C27.8753 82.849 28.1673 82.757 28.4233 82.573C28.6633 82.405 28.7833 82.169 28.7833 81.865C28.7833 81.625 28.6873 81.433 28.4953 81.289C28.3193 81.145 28.0913 81.041 27.8113 80.977L26.8993 80.773C25.9073 80.557 25.4113 80.037 25.4113 79.213C25.4113 78.597 25.6593 78.137 26.1553 77.833C26.5793 77.569 27.0073 77.437 27.4393 77.437C28.2553 77.445 28.8513 77.709 29.2273 78.229C29.4113 78.493 29.5313 78.761 29.5873 79.033L28.7953 79.261C28.7393 79.029 28.6233 78.805 28.4473 78.589C28.2313 78.333 27.8953 78.205 27.4393 78.205C27.1113 78.205 26.8393 78.297 26.6233 78.481C26.3993 78.657 26.2873 78.881 26.2873 79.153C26.2873 79.553 26.5753 79.825 27.1513 79.969L28.1113 80.185C28.5513 80.289 28.9193 80.477 29.2153 80.749C29.5193 81.021 29.6713 81.377 29.6713 81.817ZM36.3916 83.509H35.5156V80.041C35.5156 79.489 35.3756 79.049 35.0956 78.721C34.8156 78.393 34.4076 78.229 33.8716 78.229C33.3516 78.229 32.9236 78.409 32.5876 78.769C32.2596 79.137 32.0956 79.585 32.0956 80.113V83.509H31.2196V77.545H32.0716V78.637C32.5516 77.837 33.2396 77.437 34.1356 77.437C34.8396 77.437 35.3956 77.653 35.8036 78.085C36.1956 78.541 36.3916 79.121 36.3916 79.825V83.509ZM43.5541 80.797H38.7301C38.7621 81.381 38.9821 81.865 39.3901 82.249C39.7901 82.641 40.2821 82.837 40.8661 82.837C41.3221 82.837 41.7101 82.729 42.0301 82.513C42.3501 82.289 42.5781 81.973 42.7141 81.565L43.4821 81.805C43.3141 82.365 42.9901 82.809 42.5101 83.137C42.0141 83.457 41.4701 83.617 40.8781 83.617C40.3181 83.617 39.8021 83.477 39.3301 83.197C38.8581 82.917 38.4981 82.541 38.2501 82.069C37.9861 81.605 37.8541 81.089 37.8541 80.521C37.8541 79.977 37.9781 79.473 38.2261 79.009C38.4581 78.537 38.8061 78.157 39.2701 77.869C39.7181 77.581 40.2141 77.437 40.7581 77.437C41.3581 77.437 41.8701 77.573 42.2941 77.845C42.7261 78.109 43.0461 78.473 43.2541 78.937C43.4621 79.377 43.5661 79.901 43.5661 80.509C43.5661 80.613 43.5621 80.709 43.5541 80.797ZM38.7421 80.053H42.6901C42.6341 79.509 42.4341 79.061 42.0901 78.709C41.7541 78.373 41.3101 78.205 40.7581 78.205C40.2541 78.205 39.8101 78.385 39.4261 78.745C39.0421 79.121 38.8141 79.557 38.7421 80.053ZM45.9236 86.449H44.9756L46.5236 83.101L43.8116 77.545H44.8076L46.9916 82.153L49.0676 77.545H50.0036L45.9236 86.449ZM53.4177 79.513V79.225C53.4177 78.073 53.6977 77.025 54.2577 76.081C54.8097 75.129 55.5897 74.365 56.5977 73.789L56.9577 74.353C55.1897 75.489 54.3057 77.117 54.3057 79.237V79.501C54.3057 81.605 55.1897 83.229 56.9577 84.373L56.5977 84.961C55.5897 84.377 54.8097 83.609 54.2577 82.657C53.6977 81.713 53.4177 80.665 53.4177 79.513ZM58.4711 83.509V74.761H61.0751C61.7551 74.761 62.3791 74.873 62.9471 75.097C63.5151 75.313 64.0031 75.617 64.4111 76.009C65.2671 76.841 65.6951 77.877 65.6951 79.117C65.6951 79.757 65.5751 80.353 65.3351 80.905C65.1031 81.433 64.7751 81.897 64.3511 82.297C63.4631 83.105 62.3711 83.509 61.0751 83.509H58.4711ZM59.3951 75.625V82.645H61.0391C61.7671 82.645 62.4111 82.493 62.9711 82.189C63.5471 81.885 63.9831 81.473 64.2791 80.953C64.5911 80.425 64.7471 79.821 64.7471 79.141C64.7471 78.133 64.4111 77.293 63.7391 76.621C63.0751 75.957 62.1751 75.625 61.0391 75.625H59.3951ZM67.5062 83.509V74.761H68.4302V83.509H67.5062ZM73.2818 83.593C72.4338 83.593 71.7218 83.337 71.1458 82.825C70.5858 82.337 70.2658 81.769 70.1858 81.121L71.0498 80.881C71.1458 81.393 71.4098 81.829 71.8418 82.189C72.2658 82.549 72.7458 82.729 73.2818 82.729C73.8178 82.729 74.2658 82.601 74.6258 82.345C75.0338 82.065 75.2378 81.661 75.2378 81.133C75.2378 80.589 74.9938 80.173 74.5058 79.885C74.2818 79.749 74.0058 79.649 73.6778 79.585L72.5258 79.357C72.2938 79.309 72.0378 79.225 71.7578 79.105C71.4698 78.969 71.2298 78.805 71.0378 78.613C70.6298 78.213 70.4258 77.709 70.4258 77.101C70.4258 76.621 70.5578 76.193 70.8218 75.817C71.0778 75.449 71.4178 75.161 71.8418 74.953C72.2578 74.761 72.7098 74.665 73.1978 74.665C74.0538 74.665 74.7218 74.877 75.2018 75.301C75.6898 75.725 75.9858 76.213 76.0898 76.765L75.2498 77.029C75.1618 76.637 74.9458 76.289 74.6018 75.985C74.2658 75.673 73.7938 75.517 73.1858 75.517C72.7058 75.501 72.2778 75.645 71.9018 75.949C71.5258 76.253 71.3418 76.625 71.3498 77.065C71.3498 77.409 71.4578 77.705 71.6738 77.953C71.8898 78.201 72.2058 78.365 72.6218 78.445L73.7258 78.661C74.4858 78.805 75.0538 79.061 75.4298 79.429C75.6858 79.661 75.8778 79.929 76.0058 80.233C76.1258 80.529 76.1858 80.797 76.1858 81.037C76.1938 81.797 75.9178 82.417 75.3578 82.897C74.7978 83.377 74.1058 83.609 73.2818 83.593ZM79.8842 79.225V79.513C79.8842 80.673 79.6082 81.725 79.0562 82.669C78.4962 83.613 77.7122 84.377 76.7042 84.961L76.3442 84.373C78.1122 83.229 78.9962 81.605 78.9962 79.501V79.237C78.9962 77.117 78.1122 75.489 76.3442 74.353L76.7042 73.789C77.7122 74.357 78.4962 75.117 79.0562 76.069C79.6082 77.021 79.8842 78.073 79.8842 79.225Z" fill="white"/>
<defs>
<clipPath id="clip0_182_2502">
<rect width="28.9942" height="52.0657" fill="white" transform="matrix(-1 0 0 1 29.9702 0)"/>
</clipPath>
</defs>
</svg>
