<svg width="89" height="99" viewBox="0 0 89 99" fill="none" xmlns="http://www.w3.org/2000/svg">
<rect x="21.5026" y="24.1279" width="45.9342" height="45.9342" rx="22.9671" fill="white"/>
<rect x="21.5026" y="24.1279" width="45.9342" height="45.9342" rx="22.9671" stroke="#CDCCCC"/>
<g clip-path="url(#clip0_463_6234)">
<path d="M35.6079 37.7574C35.4187 37.8497 35.0365 37.9635 34.4698 37.9635C32.9005 37.9635 31.9999 36.8841 31.9999 35.507C31.9999 33.8675 33.1474 33 34.574 33C35.1271 33 35.4193 33.1058 35.6076 33.2059L35.4332 34.1863C35.2237 34.0935 35.0013 34.009 34.6172 34.009C33.9378 34.009 33.2171 34.413 33.2171 35.4889C33.2171 36.4513 33.7917 36.9603 34.6228 36.9603C34.952 36.9603 35.1754 36.8958 35.4333 36.7774L35.6079 37.7574Z" fill="#0056A2"/>
<path d="M38.2137 34.2158C37.791 34.2158 37.3819 34.4075 37.1736 34.7153H37.1608V33.0172L36.0973 33.3853V37.8158H37.1608V35.7463C37.1608 35.4474 37.355 35.126 37.7276 35.126C38.1262 35.126 38.2798 35.4398 38.2798 35.8962V37.8159H39.3441V35.7494C39.3441 34.6945 38.8917 34.2158 38.2137 34.2158Z" fill="#0056A2"/>
<path d="M40.9484 36.4182C40.9875 36.8669 41.3597 37.1054 41.9349 37.1105C42.2815 37.1132 42.6845 37.0124 42.9529 36.8543L43.1134 37.6819C42.7093 37.8849 42.2477 37.9635 41.7779 37.9635C40.512 37.9635 39.8336 37.2022 39.8336 36.0358C39.8336 34.9076 40.5631 34.1796 41.6564 34.1796C42.7831 34.1796 43.2882 35.0091 43.2882 36.0486C43.2882 36.1581 43.2747 36.3365 43.2625 36.4182H40.9484ZM42.226 35.6614C42.226 35.4008 42.0989 34.945 41.6065 34.945C41.1749 34.945 40.9713 35.3166 40.9411 35.6614H42.226Z" fill="#0056A2"/>
<path d="M44.5382 37.8158L43.3632 34.3276H44.5364L45.1748 36.7951H45.1963L45.8347 34.3276H47.0084L45.8335 37.8158H44.5382Z" fill="#0056A2"/>
<path d="M47.3099 35.4748C47.3099 34.9616 47.2938 34.6268 47.272 34.3275H48.2738L48.3042 34.9759H48.3311C48.5064 34.4627 48.8429 34.2677 49.189 34.2481C49.3535 34.2385 49.4426 34.2502 49.5444 34.2699V35.2898C49.4469 35.2707 49.2535 35.2483 49.1175 35.2608C48.7082 35.2984 48.4606 35.5961 48.3911 35.9388C48.3771 36.0098 48.3699 36.0886 48.3699 36.1809V37.8158H47.3103V35.4748H47.3099Z" fill="#0056A2"/>
<path d="M53.2816 36.0715C53.2816 37.2147 52.5928 37.9634 51.4766 37.9634C50.3602 37.9634 49.6709 37.2147 49.6709 36.0715C49.6709 34.928 50.3602 34.1794 51.4766 34.1794C52.5928 34.1794 53.2816 34.9281 53.2816 36.0715ZM52.1791 36.0715C52.1791 35.5038 51.984 35.0097 51.4766 35.0097C50.9685 35.0097 50.7744 35.5037 50.7744 36.0715C50.7744 36.6396 50.9685 37.133 51.4766 37.133C51.9841 37.133 52.1791 36.6396 52.1791 36.0715Z" fill="#0056A2"/>
<path d="M53.7546 35.4397C53.7546 35.0044 53.7386 34.6327 53.7161 34.3276H54.718L54.7409 34.8156H54.7624C54.9011 34.5887 55.2683 34.2158 55.8411 34.2158C56.5422 34.2158 56.9999 34.6945 56.9999 35.7213V37.8159H55.9374V35.8816C55.9374 35.4328 55.7834 35.1259 55.3989 35.1259C55.1041 35.1259 54.921 35.3332 54.853 35.532C54.8279 35.6048 54.8176 35.7036 54.8176 35.8035V37.8158H53.7546V35.4397Z" fill="#0056A2"/>
<path d="M32.0379 47.0631V38.7435L44.5203 42.9035L32.0379 47.0631Z" fill="url(#paint0_linear_463_6234)"/>
<path d="M32.041 47.0637L44.5203 51.2232L56.9989 47.0637V38.7445L44.5203 42.9035L32.041 47.0637Z" fill="url(#paint1_linear_463_6234)"/>
<path d="M32.0386 56.7335L32.0376 48.4113L44.5192 52.5711L32.0386 56.7335Z" fill="url(#paint2_linear_463_6234)"/>
<path d="M56.9995 48.4113L44.5168 52.5698L32.04 56.732L44.5192 60.8926L56.9995 56.7307V48.4113Z" fill="url(#paint3_linear_463_6234)"/>
</g>
<path d="M22.9947 55.2288L23.606 54.4472C26.9584 50.1445 31.129 44.7916 29.418 37.6186L27.7876 30.7841L26.5815 31.0718C22.2268 32.1106 18.4895 30.9927 17.8881 28.4716L15.4759 29.047C16.0773 31.5681 13.247 34.2527 8.89229 35.2914L7.68618 35.5792L9.31651 42.4136C11.0276 49.5866 17.1656 52.4805 22.0974 54.8059L22.9947 55.2288Z" fill="#D84025"/>
<path d="M8.89224 35.2915C13.2469 34.2527 16.0773 31.5682 15.4759 29.047L16.682 28.7593L22.9958 55.2274L22.9946 55.2289L22.0973 54.8059C17.1655 52.4806 11.0275 49.5868 9.31646 42.4137L7.68614 35.5792L8.89224 35.2915Z" fill="#A13023"/>
<path fill-rule="evenodd" clip-rule="evenodd" d="M54.4434 22.5884C54.7526 23.844 55.0605 25.0986 55.367 26.3521C52.5429 27.9684 48.9769 28.8709 44.4974 28.8724V23.689L54.4434 22.5884Z" fill="#535353"/>
<path fill-rule="evenodd" clip-rule="evenodd" d="M34.5597 22.5884C34.2464 23.844 33.9357 25.0986 33.6278 26.3521C36.4581 27.9684 40.016 28.8709 44.4974 28.8724V23.689L34.5597 22.5884Z" fill="#676767"/>
<path fill-rule="evenodd" clip-rule="evenodd" d="M42.2742 9.0759C35.8217 3.36948 48.0228 3.91021 51.4613 1.01904C51.704 1.26047 51.8479 1.55073 51.8751 1.85375C51.9023 2.15677 51.8117 2.45917 51.6143 2.72338C53.1408 3.67161 55.8242 2.37786 57.2792 4.1953C55.6304 4.12403 54.6264 4.61829 54.0142 5.27988C58.5363 4.75618 56.767 7.94329 60.632 8.12302C57.7527 9.34239 50.9899 7.00126 46.8086 9.8506C44.921 9.79792 44.1618 9.13323 42.2742 9.0759Z" fill="#A23023"/>
<path fill-rule="evenodd" clip-rule="evenodd" d="M60.63 8.0703C57.7798 9.32968 51.0666 6.93003 46.9159 9.85058C46.1435 9.81775 45.3835 9.6841 44.6673 9.45514C50.0962 4.6606 54.9134 8.91676 60.632 8.0703H60.63Z" fill="#1A1A1A"/>
<path fill-rule="evenodd" clip-rule="evenodd" d="M42.6511 8.59114C43.3962 8.64919 44.1271 8.78313 44.8233 8.9892L44.8724 9.0014C44.6293 8.72992 44.3902 8.45845 44.1552 8.18697C42.0199 6.3705 46.5139 4.22155 49.2393 3.78078C50.2209 4.41524 51.7332 4.11479 52.5078 4.56013C51.8398 5.10004 51.4258 6.03344 50.7557 6.57335C58.4075 5.79857 54.9218 7.64096 58.594 7.99785C58.3468 7.87286 58.1223 7.72472 57.9259 7.55708C56.6964 6.51234 56.8788 5.37152 54.1984 5.67655L52.7066 5.84585C52.9703 5.57335 53.236 5.30136 53.5037 5.02988C54.108 4.39931 55.0175 3.9679 56.0407 3.82653C55.8008 3.72209 55.5366 3.65224 55.262 3.62064C55.0001 3.59114 54.7358 3.57534 54.471 3.57336C53.2783 3.552 52.141 3.62216 51.1922 3.05175L50.8398 2.8367C50.9094 2.74214 50.9811 2.64911 51.0447 2.55607C51.2033 2.34726 51.2699 2.1067 51.2353 1.86823C50.0057 2.56217 48.3049 3.02887 46.8479 3.41626C45.6942 3.7213 44.4831 4.02633 43.3888 4.40609C42.6163 4.67757 41.7494 5.05429 41.3396 5.56979C40.5957 6.53064 41.7453 7.77975 42.6511 8.59114Z" fill="#EF4123"/>
<path fill-rule="evenodd" clip-rule="evenodd" d="M43.7259 8.71744C44.1136 8.79334 44.496 8.88402 44.8715 8.98912L44.9205 9.0014C44.6782 8.72818 44.4399 8.45496 44.2058 8.18175C42.078 6.35365 46.5562 4.19094 49.2721 3.74734C50.2502 4.38587 51.7572 4.08349 52.5291 4.53169C51.8634 5.07505 51.4509 6.01443 50.7832 6.55779C58.4081 5.77805 54.9346 7.63224 58.594 7.99142C56.6888 7.61843 56.7235 6.27076 55.6412 5.94689C54.5589 5.62302 53.1295 6.369 52.039 6.04513C52.1534 5.42041 52.67 4.91235 53.4215 4.13721C52.378 3.66292 49.7458 4.08656 50.2931 2.71741C47.9509 4.65909 40.4055 3.85479 43.2685 8.55013L43.7259 8.71744Z" fill="#D03927"/>
<path d="M44.4125 12.7378C46.3354 12.7378 47.8942 11.7113 47.8942 10.445C47.8942 9.17875 46.3354 8.15222 44.4125 8.15222C42.4896 8.15222 40.9308 9.17875 40.9308 10.445C40.9308 11.7113 42.4896 12.7378 44.4125 12.7378Z" fill="#CDCCCC"/>
<path fill-rule="evenodd" clip-rule="evenodd" d="M44.4279 10.53C48.7929 10.53 52.5226 12.2606 54.0145 14.7018C54.8158 14.9591 55.3671 15.489 55.3671 16.0954C55.363 16.2971 55.3022 16.4958 55.1885 16.6787C55.0748 16.8615 54.9108 17.0244 54.7072 17.1568C54.6334 20.7267 50.0594 23.6075 44.4279 23.6075C38.7964 23.6075 34.2388 20.7328 34.1527 17.1721C33.94 17.0393 33.7679 16.8739 33.648 16.6871C33.5282 16.5003 33.4634 16.2964 33.458 16.0893C33.458 15.4767 34.0277 14.9361 34.8474 14.6834C36.3455 12.2483 40.069 10.53 44.4279 10.53Z" fill="#8B8A8A"/>
<path fill-rule="evenodd" clip-rule="evenodd" d="M42.7991 20.2107C46.6371 20.2107 49.7624 18.2312 49.7624 15.7949C49.7624 13.3586 46.6309 11.3792 42.7991 11.3792C38.9672 11.3792 35.8357 13.3586 35.8357 15.7949C35.8357 18.2312 38.959 20.2107 42.7991 20.2107Z" fill="#989898"/>
<path fill-rule="evenodd" clip-rule="evenodd" d="M40.6761 15.2854C42.1269 15.2854 43.3086 14.5219 43.3086 13.587C43.3086 12.6522 42.1269 11.8887 40.6761 11.8887C39.2252 11.8887 38.0436 12.6506 38.0436 13.587C38.0436 14.5235 39.2376 15.2854 40.6761 15.2854Z" fill="#ACACAC"/>
<path fill-rule="evenodd" clip-rule="evenodd" d="M44.4974 14.2665H44.3978C43.0093 14.2611 41.6312 14.4487 40.3309 14.82L32.7787 16.9646V23.3547C36.083 26.2792 39.9364 28.5695 44.4974 30.0613V14.2665Z" fill="#CDCCCC"/>
<path fill-rule="evenodd" clip-rule="evenodd" d="M42.7991 15.2854C42.1973 15.3616 41.6068 15.484 41.0364 15.651L39.5886 16.0678V26.7622C40.6103 27.3513 41.6823 27.8861 42.7971 28.3629V15.2854H42.7991ZM38.9088 16.2638L36.6568 16.9125V24.8458C37.3687 25.37 38.1187 25.8771 38.9088 26.3593V16.2638ZM35.979 17.1069L34.477 17.5394V23.0865C34.9583 23.5096 35.459 23.9244 35.979 24.3309V17.1069Z" fill="#333333"/>
<path fill-rule="evenodd" clip-rule="evenodd" d="M44.4974 14.2664H44.5971C45.9821 14.262 47.3567 14.4496 48.6538 14.82L56.2162 16.963V23.3532C52.9098 26.2792 49.0564 28.5695 44.4974 30.0613V14.2664Z" fill="#B4B4B4"/>
<path fill-rule="evenodd" clip-rule="evenodd" d="M46.1958 15.2854C46.8099 15.3618 47.4126 15.4842 47.9949 15.651L49.4726 16.0678V26.7622C48.4295 27.351 47.3354 27.8857 46.1979 28.3629V15.2854H46.1958ZM50.1665 16.2638L52.4629 16.9125V24.8458C51.7384 25.37 50.9729 25.8771 50.1665 26.3593V16.2638ZM53.1568 17.1069L54.6877 17.5394V23.0865C54.1979 23.5096 53.6875 23.9244 53.1568 24.3309V17.1069Z" fill="#1A1A1A"/>
<path fill-rule="evenodd" clip-rule="evenodd" d="M43.534 8.66174C44.1859 8.66174 44.4984 8.96662 44.2332 9.34109C44.0652 9.54109 43.8242 9.70857 43.5333 9.82751C43.2424 9.94646 42.9113 10.0129 42.5716 10.0204C41.9218 10.0204 41.6093 9.71696 41.8745 9.34109C42.0426 9.14147 42.2834 8.97426 42.5738 8.85535C42.8643 8.73645 43.1948 8.6698 43.534 8.66174Z" fill="#E3E3E3"/>
<g clip-path="url(#clip1_463_6234)">
<path fill-rule="evenodd" clip-rule="evenodd" d="M60.009 47.2835L60.145 47.3539C60.2992 47.4366 60.4708 47.4817 60.6458 47.4855C60.8207 47.4893 60.9941 47.4517 61.1518 47.3757C61.3116 47.3045 61.4523 47.1966 61.5626 47.0608C61.6728 46.925 61.7495 46.7651 61.7865 46.5942C62.0991 45.2279 62.7244 43.5585 63.6139 41.8343C64.5034 40.1101 65.5023 38.6345 66.4278 37.5887C66.5437 37.4584 66.6283 37.3033 66.6752 37.1353C66.722 36.9673 66.7298 36.7908 66.698 36.6193C66.6661 36.4478 66.5955 36.2859 66.4915 36.1459C66.3875 36.0058 66.2529 35.8914 66.0979 35.8114L65.9603 35.7411L66.5262 34.6469L69.1838 36.0162L71.8413 37.384L71.2754 38.4782L71.1394 38.4078C70.9837 38.3264 70.8114 38.2819 70.6357 38.2777C70.46 38.2736 70.2858 38.31 70.1265 38.3841C69.9671 38.4581 69.827 38.5679 69.7169 38.7049C69.6068 38.8418 69.5298 39.0023 69.4917 39.1738C69.1791 40.5384 68.5538 42.2095 67.6643 43.9321C66.7748 45.6547 65.7759 47.1319 64.8504 48.1776C64.7345 48.3081 64.6498 48.4633 64.603 48.6314C64.5562 48.7996 64.5484 48.9762 64.5802 49.1478C64.612 49.3194 64.6826 49.4814 64.7866 49.6216C64.8906 49.7618 65.0253 49.8763 65.1803 49.9565L65.3178 50.0269L64.7519 51.1211L62.0944 49.7533L59.4431 48.3793L60.009 47.2835Z" fill="#CA3927"/>
<path fill-rule="evenodd" clip-rule="evenodd" d="M66.7738 38.234C67.2121 38.4627 66.6034 40.5413 65.4123 42.8737C64.2213 45.2061 62.9001 46.9135 62.4695 46.6848C62.0389 46.4561 62.6399 44.3775 63.8309 42.0451C65.022 39.7127 66.3355 38.0053 66.7738 38.234Z" fill="#F04B23"/>
<path fill-rule="evenodd" clip-rule="evenodd" d="M86.1077 3.39673L84.6833 11.4454L71.3964 37.1944L67.0858 34.9697L80.3728 9.22067L86.1077 3.39673Z" fill="#D1D2D2"/>
<path fill-rule="evenodd" clip-rule="evenodd" d="M81.808 7.74434L84.0703 6.27113L83.2748 11.0728L71.3318 37.1944L84.6771 11.4454L86.1077 3.39673L81.808 7.74434Z" fill="#E6E6E5"/>
<path fill-rule="evenodd" clip-rule="evenodd" d="M82.3712 10.6998L76.0933 23.5217L69.8138 36.3452L69.1284 35.9965L68.4445 35.6477L75.4079 23.1745L82.3712 10.6998Z" fill="#818181"/>
<path fill-rule="evenodd" clip-rule="evenodd" d="M65.7727 33.4234L73.3723 37.3669C73.7631 37.0841 74.2371 36.9418 74.7181 36.9631C75.1991 36.9844 75.659 37.168 76.0235 37.4842C76.3881 37.8005 76.6361 38.231 76.7275 38.7064C76.819 39.1817 76.7486 39.6742 76.5278 40.1044C76.3069 40.5346 75.9483 40.8775 75.51 41.0777C75.0716 41.2779 74.579 41.3238 74.1115 41.208C73.644 41.0922 73.2289 40.8214 72.9332 40.4394C72.6375 40.0573 72.4783 39.5862 72.4814 39.1021L64.8818 35.1585C64.4905 35.4422 64.0157 35.585 63.5338 35.5639C63.052 35.5429 62.5913 35.3592 62.226 35.0425C61.8607 34.7258 61.6121 34.2946 61.5204 33.8185C61.4286 33.3423 61.4991 32.8489 61.7204 32.418C61.9417 31.987 62.3009 31.6436 62.74 31.4431C63.1792 31.2426 63.6727 31.1968 64.1409 31.3129C64.6092 31.4291 65.0249 31.7005 65.3209 32.0834C65.617 32.4663 65.7761 32.9384 65.7727 33.4234Z" fill="#333333"/>
</g>
<path d="M26.7785 84.096C25.5545 84.096 24.5225 83.684 23.6825 82.86C23.2905 82.468 22.9825 82 22.7585 81.456C22.5265 80.88 22.4105 80.28 22.4105 79.656C22.4105 79 22.5305 78.392 22.7705 77.832C23.0185 77.256 23.3345 76.78 23.7185 76.404C24.5745 75.572 25.6065 75.156 26.8145 75.156C27.7265 75.156 28.5025 75.38 29.1425 75.828C29.4145 76.004 29.6705 76.228 29.9105 76.5C30.3105 76.964 30.5825 77.476 30.7265 78.036L29.8505 78.348C29.7625 78.012 29.5905 77.66 29.3345 77.292C29.1505 77.044 28.9625 76.84 28.7705 76.68C28.5465 76.488 28.2665 76.336 27.9305 76.224C27.5945 76.096 27.2145 76.032 26.7905 76.032C25.8465 76.032 25.0465 76.36 24.3905 77.016C23.7105 77.696 23.3705 78.556 23.3705 79.596C23.3705 80.292 23.5185 80.912 23.8145 81.456C24.1025 82.008 24.5145 82.44 25.0505 82.752C25.5625 83.064 26.1465 83.22 26.8025 83.22C27.5705 83.22 28.2105 83.016 28.7225 82.608C28.9545 82.432 29.1465 82.232 29.2985 82.008C29.4505 81.808 29.5745 81.608 29.6705 81.408C29.7505 81.216 29.8185 81.04 29.8745 80.88L30.7505 81.192C30.6065 81.712 30.3385 82.208 29.9465 82.68C29.7385 82.928 29.4865 83.164 29.1905 83.388C28.5265 83.86 27.7225 84.096 26.7785 84.096ZM37.3415 84H36.4655V80.532C36.4655 79.98 36.3255 79.54 36.0455 79.212C35.7655 78.884 35.3575 78.72 34.8215 78.72C34.3015 78.72 33.8735 78.9 33.5375 79.26C33.2095 79.628 33.0455 80.076 33.0455 80.604V84H32.1695V74.904H33.0455V79.104C33.5095 78.32 34.1895 77.928 35.0855 77.928C35.7895 77.928 36.3455 78.144 36.7535 78.576C37.1455 79.032 37.3415 79.612 37.3415 80.316V84ZM44.504 81.288H39.68C39.712 81.872 39.932 82.356 40.34 82.74C40.74 83.132 41.232 83.328 41.816 83.328C42.272 83.328 42.66 83.22 42.98 83.004C43.3 82.78 43.528 82.464 43.664 82.056L44.432 82.296C44.264 82.856 43.94 83.3 43.46 83.628C42.964 83.948 42.42 84.108 41.828 84.108C41.268 84.108 40.752 83.968 40.28 83.688C39.808 83.408 39.448 83.032 39.2 82.56C38.936 82.096 38.804 81.58 38.804 81.012C38.804 80.468 38.928 79.964 39.176 79.5C39.408 79.028 39.756 78.648 40.22 78.36C40.668 78.072 41.164 77.928 41.708 77.928C42.308 77.928 42.82 78.064 43.244 78.336C43.676 78.6 43.996 78.964 44.204 79.428C44.412 79.868 44.516 80.392 44.516 81C44.516 81.104 44.512 81.2 44.504 81.288ZM39.692 80.544H43.64C43.584 80 43.384 79.552 43.04 79.2C42.704 78.864 42.26 78.696 41.708 78.696C41.204 78.696 40.76 78.876 40.376 79.236C39.992 79.612 39.764 80.048 39.692 80.544ZM48.2649 84H47.3409L44.8089 78.036H45.7689L47.8089 83.04L49.8849 78.036H50.8089L48.2649 84ZM52.0563 78.036H52.9083V79.212C53.1883 78.644 53.5963 78.26 54.1323 78.06C54.3483 77.98 54.5843 77.94 54.8403 77.94C54.9923 77.94 55.0883 77.948 55.1283 77.964V78.888C55.0643 78.872 54.9523 78.864 54.7923 78.864C54.1443 78.864 53.6723 79.08 53.3763 79.512C53.0803 79.944 52.9323 80.468 52.9323 81.084V84H52.0563V78.036ZM58.4694 84.108C57.9174 84.108 57.4014 83.972 56.9214 83.7C56.4494 83.42 56.0814 83.048 55.8174 82.584C55.5454 82.12 55.4094 81.604 55.4094 81.036C55.4094 80.148 55.7054 79.412 56.2974 78.828C56.8894 78.228 57.6214 77.928 58.4934 77.928C59.3414 77.912 60.0694 78.212 60.6774 78.828C61.2934 79.436 61.5934 80.16 61.5774 81C61.5934 81.864 61.2934 82.604 60.6774 83.22C60.0614 83.828 59.3254 84.124 58.4694 84.108ZM58.4934 83.328C59.1174 83.328 59.6414 83.104 60.0654 82.656C60.4734 82.208 60.6774 81.668 60.6774 81.036C60.6774 80.396 60.4694 79.844 60.0534 79.38C59.6294 78.924 59.1014 78.696 58.4694 78.696C57.8374 78.696 57.3174 78.92 56.9094 79.368C56.5014 79.816 56.2974 80.36 56.2974 81C56.2814 81.632 56.4854 82.18 56.9094 82.644C57.3414 83.108 57.8694 83.336 58.4934 83.328ZM68.279 84H67.403V80.532C67.403 79.98 67.263 79.54 66.983 79.212C66.703 78.884 66.295 78.72 65.759 78.72C65.239 78.72 64.811 78.9 64.475 79.26C64.147 79.628 63.983 80.076 63.983 80.604V84H63.107V78.036H63.959V79.128C64.439 78.328 65.127 77.928 66.023 77.928C66.727 77.928 67.283 78.144 67.691 78.576C68.083 79.032 68.279 79.612 68.279 80.316V84ZM29.5883 93.004V92.716C29.5883 91.564 29.8683 90.516 30.4283 89.572C30.9803 88.62 31.7603 87.856 32.7683 87.28L33.1283 87.844C31.3603 88.98 30.4763 90.608 30.4763 92.728V92.992C30.4763 95.096 31.3603 96.72 33.1283 97.864L32.7683 98.452C31.7603 97.868 30.9803 97.1 30.4283 96.148C29.8683 95.204 29.5883 94.156 29.5883 93.004ZM37.0383 97.096C35.8143 97.096 34.7823 96.684 33.9423 95.86C33.5503 95.468 33.2423 95 33.0183 94.456C32.7863 93.88 32.6703 93.28 32.6703 92.656C32.6703 92 32.7903 91.392 33.0303 90.832C33.2783 90.256 33.5943 89.78 33.9783 89.404C34.8343 88.572 35.8663 88.156 37.0743 88.156C37.9863 88.156 38.7623 88.38 39.4023 88.828C39.6743 89.004 39.9303 89.228 40.1703 89.5C40.5703 89.964 40.8423 90.476 40.9863 91.036L40.1103 91.348C40.0223 91.012 39.8503 90.66 39.5943 90.292C39.4103 90.044 39.2223 89.84 39.0303 89.68C38.8063 89.488 38.5263 89.336 38.1903 89.224C37.8543 89.096 37.4743 89.032 37.0503 89.032C36.1063 89.032 35.3063 89.36 34.6503 90.016C33.9703 90.696 33.6303 91.556 33.6303 92.596C33.6303 93.292 33.7783 93.912 34.0743 94.456C34.3623 95.008 34.7743 95.44 35.3103 95.752C35.8223 96.064 36.4063 96.22 37.0623 96.22C37.8303 96.22 38.4703 96.016 38.9823 95.608C39.2143 95.432 39.4063 95.232 39.5583 95.008C39.7103 94.808 39.8343 94.608 39.9303 94.408C40.0103 94.216 40.0783 94.04 40.1343 93.88L41.0103 94.192C40.8663 94.712 40.5983 95.208 40.2063 95.68C39.9983 95.928 39.7463 96.164 39.4503 96.388C38.7863 96.86 37.9823 97.096 37.0383 97.096ZM49.3277 88.252L45.8117 97H44.7917L41.2757 88.252H42.2837L45.3077 95.968L48.3437 88.252H49.3277ZM56.4178 97L53.5738 93.172L50.7538 97H49.6738L53.0338 92.524L49.8298 88.252H50.8978L53.5978 91.852L56.2738 88.252H57.3418L54.1378 92.512L57.4858 97H56.4178ZM61.4103 92.716V93.004C61.4103 94.164 61.1343 95.216 60.5823 96.16C60.0223 97.104 59.2383 97.868 58.2303 98.452L57.8703 97.864C59.6383 96.72 60.5223 95.096 60.5223 92.992V92.728C60.5223 90.608 59.6383 88.98 57.8703 87.844L58.2303 87.28C59.2383 87.848 60.0223 88.608 60.5823 89.56C61.1343 90.512 61.4103 91.564 61.4103 92.716Z" fill="white"/>
<defs>
<linearGradient id="paint0_linear_463_6234" x1="44.5203" y1="42.9033" x2="36.8415" y2="31.3822" gradientUnits="userSpaceOnUse">
<stop stop-color="#06549B"/>
<stop offset="0.55" stop-color="#2FA1D3"/>
<stop offset="0.9" stop-color="#2FA1D3"/>
</linearGradient>
<linearGradient id="paint1_linear_463_6234" x1="32.041" y1="46.2317" x2="40.5381" y2="23.289" gradientUnits="userSpaceOnUse">
<stop stop-color="#1371B1"/>
<stop offset="0.05" stop-color="#2FA1D3"/>
<stop offset="0.45" stop-color="#2FA1D3"/>
<stop offset="0.6" stop-color="#06569C"/>
</linearGradient>
<linearGradient id="paint2_linear_463_6234" x1="44.5192" y1="52.5724" x2="35.1396" y2="44.132" gradientUnits="userSpaceOnUse">
<stop stop-color="#9D1A36"/>
<stop offset="0.4" stop-color="#9D1A36"/>
<stop offset="0.6" stop-color="#E6192F"/>
</linearGradient>
<linearGradient id="paint3_linear_463_6234" x1="32.04" y1="55.9001" x2="40.5399" y2="32.9534" gradientUnits="userSpaceOnUse">
<stop stop-color="#A21C38"/>
<stop offset="0.13" stop-color="#E6192F"/>
<stop offset="0.45" stop-color="#E6192F"/>
<stop offset="0.6" stop-color="#A71C37"/>
</linearGradient>
<clipPath id="clip0_463_6234">
<rect width="25" height="27.8926" fill="white" transform="translate(31.9999 33)"/>
</clipPath>
<clipPath id="clip1_463_6234">
<rect width="28.8843" height="51.8684" fill="white" transform="translate(59.613)"/>
</clipPath>
</defs>
</svg>
