<svg width="90" height="85" viewBox="0 0 90 85" fill="none" xmlns="http://www.w3.org/2000/svg">
<rect x="21.5801" y="24.1279" width="45.9342" height="45.9342" rx="22.9671" fill="#1773EA"/>
<rect x="21.5801" y="24.1279" width="45.9342" height="45.9342" rx="22.9671" stroke="#CDCCCC"/>
<path fill-rule="evenodd" clip-rule="evenodd" d="M40.8315 46.4106V57.753C40.8315 57.9486 40.9293 58.0463 41.1249 58.0463H45.6227C45.8183 58.0463 45.9161 57.9486 45.9161 57.753V46.215H49.2406C49.4362 46.215 49.5339 46.1172 49.5339 45.9217L49.8273 42.4016C49.8273 42.206 49.7295 42.1083 49.5339 42.1083H45.9161V39.6638C45.9161 39.0771 46.405 38.5882 47.0894 38.5882H49.6317C49.9251 38.5882 50.0228 38.4904 50.0228 38.2948V34.8726C50.0228 34.677 49.9251 34.5792 49.7295 34.5792H45.4272C42.8849 34.5792 40.8315 36.437 40.8315 38.7837V42.1083H38.5826C38.3871 42.1083 38.2893 42.206 38.2893 42.4016V45.9217C38.2893 46.1172 38.3871 46.215 38.5826 46.215H40.8315V46.4106Z" fill="white"/>
<path d="M66.9177 55.4018L66.304 54.6172C62.9389 50.2981 58.7524 44.9249 60.47 37.7246L62.1065 30.8641L63.3172 31.1529C67.6885 32.1956 71.44 31.0735 72.0437 28.5428L74.4651 29.1204C73.8614 31.6511 76.7025 34.3459 81.0737 35.3886L82.2844 35.6774L80.6479 42.5379C78.9303 49.7382 72.769 52.6431 67.8184 54.9772L66.9177 55.4018Z" fill="#7AB9E8"/>
<path d="M81.0738 35.3887C76.7025 34.3459 73.8614 31.6512 74.4651 29.1205L73.2544 28.8317L66.9166 55.4004L66.9178 55.4019L67.8185 54.9773C72.769 52.6431 78.9304 49.7383 80.648 42.538L82.2845 35.6775L81.0738 35.3887Z" fill="#579ADF"/>
<path fill-rule="evenodd" clip-rule="evenodd" d="M35.148 22.6743C34.8375 23.9347 34.5285 25.194 34.2208 26.4523C37.0557 28.0747 40.6352 28.9807 45.1317 28.9822V23.779L35.148 22.6743Z" fill="#535353"/>
<path fill-rule="evenodd" clip-rule="evenodd" d="M55.1073 22.6743C55.4218 23.9347 55.7336 25.194 56.0427 26.4523C53.2016 28.0747 49.6302 28.9807 45.1317 28.9822V23.779L55.1073 22.6743Z" fill="#676767"/>
<path fill-rule="evenodd" clip-rule="evenodd" d="M47.3634 9.11046C53.8405 3.38232 41.593 3.92512 38.1414 1.02295C37.8978 1.26529 37.7533 1.55666 37.726 1.86083C37.6987 2.165 37.7897 2.46856 37.9878 2.73377C36.4555 3.68561 33.7619 2.38694 32.3013 4.21129C33.9565 4.13975 34.9643 4.63589 35.5788 5.3C31.0395 4.77431 32.8155 7.97354 28.9358 8.15395C31.8261 9.37797 38.6146 7.02792 42.8118 9.8881C44.7066 9.83522 45.4686 9.168 47.3634 9.11046Z" fill="#1B2241"/>
<path fill-rule="evenodd" clip-rule="evenodd" d="M28.9378 8.10108C31.7988 9.36525 38.5376 6.95647 42.7041 9.88814C43.4794 9.85518 44.2422 9.72102 44.9612 9.49119C39.5116 4.67842 34.6761 8.95077 28.9357 8.10108H28.9378Z" fill="#1A1A1A"/>
<path fill-rule="evenodd" clip-rule="evenodd" d="M46.9851 8.62385C46.2371 8.68213 45.5035 8.81658 44.8047 9.02344L44.7553 9.03568C44.9994 8.76317 45.2394 8.49066 45.4753 8.21815C47.6187 6.39477 43.1076 4.23764 40.3718 3.79519C39.3865 4.43208 37.8684 4.13048 37.0909 4.57752C37.7615 5.11948 38.177 6.05643 38.8496 6.59839C31.1687 5.82066 34.6677 7.67006 30.9816 8.02831C31.2297 7.90284 31.455 7.75414 31.6521 7.58586C32.8863 6.53715 32.7033 5.39199 35.3938 5.69818L36.8913 5.86812C36.6267 5.59459 36.36 5.32156 36.0912 5.04905C35.4846 4.41608 34.5717 3.98303 33.5446 3.84112C33.7854 3.73628 34.0506 3.66616 34.3263 3.63444C34.5891 3.60483 34.8544 3.58897 35.1203 3.58698C36.3174 3.56555 37.4591 3.63597 38.4115 3.06339L38.7653 2.84753C38.6953 2.75261 38.6234 2.65922 38.5596 2.56583C38.4004 2.35623 38.3335 2.11475 38.3683 1.87537C39.6025 2.57195 41.3098 3.04043 42.7723 3.42929C43.9304 3.73549 45.1461 4.04168 46.2446 4.42289C47.0201 4.6954 47.8902 5.07355 48.3016 5.59101C49.0483 6.55552 47.8943 7.80938 46.9851 8.62385Z" fill="#4386BB"/>
<path fill-rule="evenodd" clip-rule="evenodd" d="M45.9062 8.75064C45.517 8.82683 45.1332 8.91786 44.7563 9.02335L44.7071 9.03568C44.9503 8.76142 45.1894 8.48717 45.4245 8.21291C47.5604 6.37786 43.0652 4.20692 40.3389 3.76164C39.3571 4.4026 37.8443 4.09907 37.0695 4.54897C37.7377 5.0944 38.1518 6.03735 38.8221 6.58278C31.1681 5.80007 34.6548 7.66132 30.9816 8.02186C32.894 7.64745 32.8592 6.29466 33.9456 5.96956C35.032 5.64445 36.4668 6.39327 37.5614 6.06816C37.4466 5.44107 36.928 4.93108 36.1737 4.15299C37.2212 3.6769 39.8634 4.10215 39.314 2.72778C41.6651 4.67685 49.2392 3.86949 46.3654 8.5827L45.9062 8.75064Z" fill="#283A84"/>
<path d="M45.2169 12.7863C43.2867 12.7863 41.722 11.7559 41.722 10.4848C41.722 9.21366 43.2867 8.18323 45.2169 8.18323C47.1471 8.18323 48.7119 9.21366 48.7119 10.4848C48.7119 11.7559 47.1471 12.7863 45.2169 12.7863Z" fill="#CDCCCC"/>
<path fill-rule="evenodd" clip-rule="evenodd" d="M45.2015 10.5701C40.8199 10.5701 37.076 12.3072 35.5784 14.7577C34.7741 15.016 34.2207 15.5479 34.2207 16.1567C34.2248 16.3591 34.2859 16.5586 34.4 16.7422C34.5141 16.9257 34.6787 17.0893 34.8831 17.2221C34.9572 20.8056 39.5486 23.6973 45.2015 23.6973C50.8544 23.6973 55.4294 20.8117 55.5158 17.2375C55.7293 17.1041 55.9021 16.9381 56.0224 16.7506C56.1427 16.5631 56.2078 16.3585 56.2131 16.1506C56.2131 15.5356 55.6413 14.993 54.8184 14.7393C53.3147 12.295 49.5769 10.5701 45.2015 10.5701Z" fill="#8B8A8A"/>
<path fill-rule="evenodd" clip-rule="evenodd" d="M46.8366 20.2876C42.9839 20.2876 39.8467 18.3006 39.8467 15.8551C39.8467 13.4095 42.9901 11.4225 46.8366 11.4225C50.683 11.4225 53.8264 13.4095 53.8264 15.8551C53.8264 18.3006 50.6912 20.2876 46.8366 20.2876Z" fill="#989898"/>
<path fill-rule="evenodd" clip-rule="evenodd" d="M48.9676 15.3436C47.5112 15.3436 46.3251 14.5772 46.3251 13.6388C46.3251 12.7004 47.5112 11.934 48.9676 11.934C50.4239 11.934 51.6101 12.6988 51.6101 13.6388C51.6101 14.5788 50.4116 15.3436 48.9676 15.3436Z" fill="#ACACAC"/>
<path fill-rule="evenodd" clip-rule="evenodd" d="M45.1317 14.3208H45.2317C46.6255 14.3154 48.0089 14.5037 49.3141 14.8765L56.8951 17.0292V23.4436C53.5781 26.3793 49.7101 28.6783 45.1317 30.1757V14.3208Z" fill="#CDCCCC"/>
<path fill-rule="evenodd" clip-rule="evenodd" d="M46.8365 15.3436C47.4406 15.4201 48.0333 15.543 48.6059 15.7106L50.0593 16.129V26.8641C49.0336 27.4554 47.9576 27.9922 46.8386 28.4709V15.3436H46.8365ZM50.7416 16.3258L53.0022 16.9769V24.9404C52.2876 25.4666 51.5347 25.9756 50.7416 26.4597V16.3258ZM53.6826 17.1721L55.1902 17.6062V23.1744C54.7071 23.5991 54.2046 24.0155 53.6826 24.4236V17.1721Z" fill="#333333"/>
<path fill-rule="evenodd" clip-rule="evenodd" d="M45.1317 14.3208H45.0317C43.6414 14.3163 42.2616 14.5046 40.9595 14.8764L33.3683 17.0276V23.4421C36.6873 26.3793 40.5554 28.6783 45.1317 30.1757V14.3208Z" fill="#B4B4B4"/>
<path fill-rule="evenodd" clip-rule="evenodd" d="M43.4269 15.3436C42.8104 15.4203 42.2055 15.5432 41.621 15.7106L40.1376 16.129V26.8641C41.1847 27.4551 42.283 27.9919 43.4248 28.4709V15.3436H43.4269ZM39.4411 16.3258L37.136 16.9769V24.9404C37.8633 25.4666 38.6316 25.9756 39.4411 26.4597V16.3258ZM36.4395 17.1721L34.9027 17.6062V23.1744C35.3944 23.5991 35.9067 24.0155 36.4395 24.4236V17.1721Z" fill="#1A1A1A"/>
<path fill-rule="evenodd" clip-rule="evenodd" d="M46.0988 8.6947C45.4445 8.6947 45.1307 9.00073 45.397 9.37664C45.5656 9.5774 45.8075 9.74551 46.0995 9.86491C46.3915 9.9843 46.7239 10.051 47.0648 10.0586C47.7171 10.0586 48.0309 9.75394 47.7646 9.37664C47.5959 9.17625 47.3542 9.00841 47.0627 8.88905C46.7711 8.76969 46.4393 8.70279 46.0988 8.6947Z" fill="#E3E3E3"/>
<g clip-path="url(#clip0_186_5433)">
<path fill-rule="evenodd" clip-rule="evenodd" d="M29.573 47.4634L29.4365 47.534C29.2817 47.6171 29.1095 47.6624 28.9338 47.6662C28.7582 47.67 28.5842 47.6323 28.4259 47.556C28.2655 47.4845 28.1243 47.3762 28.0136 47.2399C27.9029 47.1036 27.8259 46.9431 27.7888 46.7714C27.475 45.4 26.8473 43.7242 25.9544 41.9935C25.0616 40.2628 24.0588 38.7815 23.1299 37.7318C23.0135 37.601 22.9285 37.4453 22.8815 37.2766C22.8345 37.108 22.8267 36.9308 22.8586 36.7587C22.8906 36.5865 22.9615 36.424 23.0659 36.2834C23.1702 36.1428 23.3054 36.028 23.461 35.9477L23.5991 35.8771L23.031 34.7787L20.3634 36.1532L17.6957 37.5262L18.2638 38.6246L18.4003 38.554C18.5566 38.4722 18.7296 38.4275 18.9059 38.4234C19.0822 38.4192 19.2572 38.4558 19.4171 38.5301C19.577 38.6045 19.7177 38.7147 19.8282 38.8521C19.9387 38.9896 20.016 39.1507 20.0542 39.3228C20.3681 40.6927 20.9958 42.3701 21.8886 44.0992C22.7815 45.8284 23.7842 47.3112 24.7132 48.361C24.8296 48.4919 24.9145 48.6477 24.9616 48.8165C25.0086 48.9852 25.0164 49.1625 24.9845 49.3348C24.9525 49.507 24.8816 49.6697 24.7773 49.8104C24.6729 49.9511 24.5377 50.0661 24.3821 50.1466L24.244 50.2172L24.8121 51.3156L27.4797 49.9426L30.1411 48.5634L29.573 47.4634Z" fill="#4592CF"/>
<path fill-rule="evenodd" clip-rule="evenodd" d="M22.7825 38.3795C22.3425 38.6091 22.9535 40.6956 24.1492 43.0369C25.3448 45.3781 26.671 47.092 27.1032 46.8625C27.5354 46.6329 26.9322 44.5463 25.7366 42.2051C24.541 39.8638 23.2225 38.1499 22.7825 38.3795Z" fill="#283A84"/>
<path fill-rule="evenodd" clip-rule="evenodd" d="M3.37511 3.40967L4.80486 11.4889L18.1423 37.3359L22.4693 35.1028L9.1318 9.25577L3.37511 3.40967Z" fill="#D1D2D2"/>
<path fill-rule="evenodd" clip-rule="evenodd" d="M7.69108 7.77382L5.42027 6.295L6.21876 11.1149L18.2072 37.3359L4.81114 11.4889L3.37512 3.40967L7.69108 7.77382Z" fill="#E6E6E5"/>
<path fill-rule="evenodd" clip-rule="evenodd" d="M7.12574 10.7405L13.4275 23.6112L19.7309 36.4835L20.4189 36.1334L21.1054 35.7833L14.1156 23.2627L7.12574 10.7405Z" fill="#818181"/>
<path fill-rule="evenodd" clip-rule="evenodd" d="M23.7874 33.5505L16.1589 37.5091C15.7667 37.2252 15.2908 37.0824 14.808 37.1037C14.3251 37.1251 13.8636 37.3094 13.4976 37.6268C13.1317 37.9443 12.8827 38.3765 12.7909 38.8536C12.6991 39.3308 12.7697 39.8251 12.9915 40.257C13.2132 40.6888 13.5731 41.033 14.0131 41.234C14.4531 41.4349 14.9476 41.481 15.4169 41.3648C15.8862 41.2485 16.3028 40.9768 16.5997 40.5932C16.8965 40.2097 17.0563 39.7368 17.0532 39.2508L24.6818 35.2923C25.0745 35.577 25.5511 35.7203 26.0348 35.6992C26.5185 35.6781 26.981 35.4937 27.3476 35.1758C27.7143 34.8579 27.9638 34.4251 28.0559 33.9471C28.148 33.4691 28.0773 32.9739 27.8552 32.5413C27.633 32.1087 27.2725 31.764 26.8316 31.5627C26.3908 31.3615 25.8954 31.3155 25.4254 31.4321C24.9553 31.5487 24.5381 31.8212 24.2409 32.2055C23.9437 32.5899 23.784 33.0637 23.7874 33.5505Z" fill="#333333"/>
</g>
<path d="M8.16069 75.625V78.769H12.2767V79.609H8.16069V83.509H7.23669V74.761H12.6607V75.625H8.16069ZM15.7847 80.065H17.4407V79.669C17.4407 78.701 16.9327 78.217 15.9167 78.217C15.4287 78.217 15.0527 78.349 14.7887 78.613C14.5487 78.853 14.4047 79.125 14.3567 79.429L13.5167 79.249C13.5247 79.081 13.6047 78.869 13.7567 78.613C13.9087 78.357 14.1087 78.129 14.3567 77.929C14.7807 77.601 15.3087 77.437 15.9407 77.437C17.0287 77.437 17.7527 77.849 18.1127 78.673C18.2327 78.953 18.2927 79.281 18.2927 79.657V81.337C18.2927 82.313 18.3247 83.037 18.3887 83.509H17.5247C17.4687 83.205 17.4407 82.857 17.4407 82.465C16.9367 83.233 16.2647 83.617 15.4247 83.617C14.8247 83.617 14.3447 83.449 13.9847 83.113C13.6087 82.785 13.4207 82.365 13.4207 81.853V81.793C13.4207 81.201 13.6567 80.765 14.1287 80.485C14.6087 80.205 15.1607 80.065 15.7847 80.065ZM17.4407 80.989V80.785H15.7727C15.4047 80.785 15.0807 80.853 14.8007 80.989C14.4647 81.133 14.2967 81.397 14.2967 81.781C14.2967 82.109 14.4207 82.369 14.6687 82.561C14.9087 82.753 15.2127 82.849 15.5807 82.849C16.1007 82.849 16.5447 82.673 16.9127 82.321C17.2647 81.985 17.4407 81.541 17.4407 80.989ZM20.6483 80.497C20.6483 81.393 20.9843 82.061 21.6563 82.501C21.9843 82.725 22.3683 82.837 22.8083 82.837C23.2883 82.837 23.6963 82.713 24.0323 82.465C24.1523 82.377 24.2763 82.257 24.4043 82.105C24.5803 81.873 24.7123 81.641 24.8003 81.409L25.6043 81.673C25.4683 82.153 25.1643 82.585 24.6923 82.969C24.1803 83.401 23.5483 83.617 22.7963 83.617C21.9403 83.633 21.2163 83.345 20.6243 82.753C20.0403 82.161 19.7523 81.425 19.7603 80.545C19.7603 79.969 19.9003 79.437 20.1803 78.949C20.4603 78.469 20.8323 78.097 21.2963 77.833C21.7603 77.569 22.2723 77.437 22.8323 77.437C23.5043 77.437 24.0963 77.621 24.6083 77.989C25.1283 78.381 25.4483 78.833 25.5683 79.345L24.7763 79.609C24.6883 79.289 24.4723 78.977 24.1283 78.673C23.7923 78.369 23.3523 78.217 22.8083 78.217C22.1843 78.217 21.6683 78.437 21.2603 78.877C20.8523 79.325 20.6483 79.865 20.6483 80.497ZM32.3275 80.797H27.5035C27.5355 81.381 27.7555 81.865 28.1635 82.249C28.5635 82.641 29.0555 82.837 29.6395 82.837C30.0955 82.837 30.4835 82.729 30.8035 82.513C31.1235 82.289 31.3515 81.973 31.4875 81.565L32.2555 81.805C32.0875 82.365 31.7635 82.809 31.2835 83.137C30.7875 83.457 30.2435 83.617 29.6515 83.617C29.0915 83.617 28.5755 83.477 28.1035 83.197C27.6315 82.917 27.2715 82.541 27.0235 82.069C26.7595 81.605 26.6275 81.089 26.6275 80.521C26.6275 79.977 26.7515 79.473 26.9995 79.009C27.2315 78.537 27.5795 78.157 28.0435 77.869C28.4915 77.581 28.9875 77.437 29.5315 77.437C30.1315 77.437 30.6435 77.573 31.0675 77.845C31.4995 78.109 31.8195 78.473 32.0275 78.937C32.2355 79.377 32.3395 79.901 32.3395 80.509C32.3395 80.613 32.3355 80.709 32.3275 80.797ZM27.5155 80.053H31.4635C31.4075 79.509 31.2075 79.061 30.8635 78.709C30.5275 78.373 30.0835 78.205 29.5315 78.205C29.0275 78.205 28.5835 78.385 28.1995 78.745C27.8155 79.121 27.5875 79.557 27.5155 80.053ZM39.8206 80.521C39.8206 81.065 39.7046 81.569 39.4726 82.033C39.2406 82.497 38.9126 82.873 38.4886 83.161C38.0566 83.449 37.5646 83.593 37.0126 83.593C36.0286 83.593 35.2566 83.145 34.6966 82.249V83.509H33.8446V74.413H34.7206V78.829C35.3206 77.901 36.0846 77.437 37.0126 77.437C37.8606 77.437 38.5446 77.757 39.0646 78.397C39.5686 79.021 39.8206 79.729 39.8206 80.521ZM36.8446 82.837C37.4686 82.837 37.9766 82.617 38.3686 82.177C38.7446 81.729 38.9326 81.185 38.9326 80.545C38.9326 79.641 38.6086 78.973 37.9606 78.541C37.6486 78.325 37.2766 78.217 36.8446 78.217C36.2526 78.209 35.7446 78.437 35.3206 78.901C34.8966 79.365 34.6926 79.901 34.7086 80.509C34.7086 81.149 34.9086 81.693 35.3086 82.141C35.7166 82.605 36.2286 82.837 36.8446 82.837ZM43.9843 83.617C43.4323 83.617 42.9163 83.481 42.4363 83.209C41.9643 82.929 41.5963 82.557 41.3323 82.093C41.0603 81.629 40.9243 81.113 40.9243 80.545C40.9243 79.657 41.2203 78.921 41.8123 78.337C42.4043 77.737 43.1363 77.437 44.0083 77.437C44.8563 77.421 45.5843 77.721 46.1923 78.337C46.8083 78.945 47.1083 79.669 47.0923 80.509C47.1083 81.373 46.8083 82.113 46.1923 82.729C45.5763 83.337 44.8403 83.633 43.9843 83.617ZM44.0083 82.837C44.6323 82.837 45.1563 82.613 45.5803 82.165C45.9883 81.717 46.1923 81.177 46.1923 80.545C46.1923 79.905 45.9843 79.353 45.5683 78.889C45.1443 78.433 44.6163 78.205 43.9843 78.205C43.3523 78.205 42.8323 78.429 42.4243 78.877C42.0163 79.325 41.8123 79.869 41.8123 80.509C41.7963 81.141 42.0003 81.689 42.4243 82.153C42.8563 82.617 43.3843 82.845 44.0083 82.837ZM51.25 83.617C50.698 83.617 50.182 83.481 49.702 83.209C49.23 82.929 48.862 82.557 48.598 82.093C48.326 81.629 48.19 81.113 48.19 80.545C48.19 79.657 48.486 78.921 49.078 78.337C49.67 77.737 50.402 77.437 51.274 77.437C52.122 77.421 52.85 77.721 53.458 78.337C54.074 78.945 54.374 79.669 54.358 80.509C54.374 81.373 54.074 82.113 53.458 82.729C52.842 83.337 52.106 83.633 51.25 83.617ZM51.274 82.837C51.898 82.837 52.422 82.613 52.846 82.165C53.254 81.717 53.458 81.177 53.458 80.545C53.458 79.905 53.25 79.353 52.834 78.889C52.41 78.433 51.882 78.205 51.25 78.205C50.618 78.205 50.098 78.429 49.69 78.877C49.282 79.325 49.078 79.869 49.078 80.509C49.062 81.141 49.266 81.689 49.69 82.153C50.122 82.617 50.65 82.845 51.274 82.837ZM56.7996 80.521H56.7636V83.509H55.8876V74.401H56.7636V79.969L59.5956 77.545H60.8316L57.6876 80.221L60.9756 83.509H59.7636L56.7996 80.521ZM64.7028 79.513V79.225C64.7028 78.073 64.9828 77.025 65.5428 76.081C66.0948 75.129 66.8748 74.365 67.8828 73.789L68.2428 74.353C66.4748 75.489 65.5908 77.117 65.5908 79.237V79.501C65.5908 81.605 66.4748 83.229 68.2428 84.373L67.8828 84.961C66.8748 84.377 66.0948 83.609 65.5428 82.657C64.9828 81.713 64.7028 80.665 64.7028 79.513ZM70.6802 75.625V78.769H74.7962V79.609H70.6802V83.509H69.7562V74.761H75.1802V75.625H70.6802ZM80.1101 83.509H76.8461V74.761H79.9901C80.8061 74.745 81.4781 74.937 82.0061 75.337C82.5421 75.729 82.8101 76.269 82.8101 76.957C82.8101 77.189 82.7701 77.429 82.6901 77.677C82.6421 77.829 82.5701 77.981 82.4741 78.133C82.2501 78.485 81.9181 78.761 81.4781 78.961C82.0941 79.121 82.5461 79.437 82.8341 79.909C83.0741 80.309 83.1941 80.709 83.1941 81.109C83.1941 81.925 82.8861 82.537 82.2701 82.945C81.6861 83.321 80.9661 83.509 80.1101 83.509ZM79.9181 75.601H77.7581V78.649H79.8461C80.5341 78.649 81.0421 78.501 81.3701 78.205C81.7061 77.909 81.8741 77.529 81.8741 77.065C81.8741 76.569 81.6861 76.201 81.3101 75.961C80.9341 75.721 80.4701 75.601 79.9181 75.601ZM79.9541 79.465H77.7581V82.669H80.1341C80.7021 82.669 81.1981 82.541 81.6221 82.285C82.0461 82.021 82.2581 81.609 82.2581 81.049C82.2581 80.377 81.9061 79.917 81.2021 79.669C80.8501 79.533 80.4341 79.465 79.9541 79.465ZM86.728 79.225V79.513C86.728 80.673 86.452 81.725 85.9 82.669C85.34 83.613 84.556 84.377 83.548 84.961L83.188 84.373C84.956 83.229 85.84 81.605 85.84 79.501V79.237C85.84 77.117 84.956 75.489 83.188 74.353L83.548 73.789C84.556 74.357 85.34 75.117 85.9 76.069C86.452 77.021 86.728 78.073 86.728 79.225Z" fill="white"/>
<defs>
<clipPath id="clip0_186_5433">
<rect width="28.9942" height="52.0657" fill="white" transform="matrix(-1 0 0 1 29.9706 0)"/>
</clipPath>
</defs>
</svg>
