<svg width="89" height="86" viewBox="0 0 89 86" fill="none" xmlns="http://www.w3.org/2000/svg">
<rect x="21.5026" y="24.1279" width="45.9342" height="45.9342" rx="22.9671" fill="#2A007C"/>
<rect x="21.5026" y="24.1279" width="45.9342" height="45.9342" rx="22.9671" stroke="#CDCCCC"/>
<g clip-path="url(#clip0_463_5570)">
<path d="M53.1292 43.1282L54.3278 44.4491L55.4817 43.1282L57.9458 43.1282L55.5377 45.8361L57.9788 48.5662L55.4153 48.5662L54.228 47.2348L53.0515 48.5662L50.5762 48.5662L52.996 45.8474L50.5762 43.1282L53.1292 43.1282Z" fill="#FF5900"/>
<path d="M50.5762 43.1282L50.5762 44.9655L47.8356 44.9655L47.8356 46.6516L50.5762 46.6516L50.5762 48.5662L45.8216 48.5662L45.8216 40L50.5762 40L50.5762 41.9094L47.8356 41.9094L47.8356 43.1282L50.5762 43.1282Z" fill="#FF5900"/>
<path d="M43.816 40L43.816 43.5057L43.7938 43.5057C43.3495 42.9953 42.7948 42.8178 42.1513 42.8178C40.8327 42.8178 39.8394 43.7146 39.4908 44.8995C39.0927 43.5938 38.0672 42.7933 36.5466 42.7933C35.3118 42.7933 34.3365 43.3475 33.8278 44.2507L33.8278 43.1282L31.2752 43.1282L31.2752 41.9094L34.0608 41.9094L34.0608 40L28.9999 40L28.9999 48.5662L31.2752 48.5662L31.2752 44.9655L33.5432 44.9655C33.4756 45.23 33.4394 45.5133 33.4394 45.8124C33.4394 47.599 34.8046 48.8532 36.5466 48.8532C38.0117 48.8532 38.9772 48.1653 39.4876 46.9116L37.5375 46.9116C37.2739 47.2887 37.0739 47.4002 36.5466 47.4002C35.9352 47.4002 35.4079 46.8669 35.4079 46.2346L39.3785 46.2346C39.5508 47.6538 40.6564 48.8777 42.1734 48.8777C42.8278 48.8777 43.4272 48.5557 43.7934 48.0124L43.8156 48.0124L43.8156 48.567L45.8212 48.567L45.8212 40L43.816 40ZM35.4715 44.9909C35.5979 44.4467 36.0201 44.0913 36.547 44.0913C37.127 44.0913 37.5275 44.4358 37.6329 44.9909C37.6772 44.9909 35.4715 44.9909 35.4715 44.9909ZM42.5984 47.2621C41.8591 47.2621 41.3994 46.5731 41.3994 45.8538C41.3994 45.0851 41.7991 44.3457 42.5984 44.3457C43.4272 44.3457 43.7572 45.0851 43.7572 45.8538C43.7572 46.5827 43.4074 47.2621 42.5984 47.2621Z" fill="white"/>
<path d="M45.822 52.8495L45.822 49.7797L47.5181 49.7797L47.5181 50.0087L46.1017 50.0087L46.1017 51.1405L47.4581 51.1405L47.4581 51.3695L46.1017 51.3695L46.1017 52.6196L47.5813 52.6196L47.5813 52.8491L45.822 52.8495Z" fill="#2A007C"/>
<path d="M47.7837 52.8495L48.6108 51.7471L47.8264 50.7042L48.1443 50.7042L48.7847 51.5563L49.4122 50.7042L49.7301 50.7042L48.9332 51.7471L49.764 52.8495L49.442 52.8495L48.7549 51.9375L48.1021 52.8495L47.7837 52.8495Z" fill="#2A007C"/>
<path d="M50.3021 53.6545L50.0433 53.6545L50.0433 51.3446C50.0433 51.1325 50.0433 50.9168 50.0304 50.7043L50.2852 50.7043L50.2936 51.0267C50.4542 50.7719 50.6663 50.6536 50.9847 50.6536C51.646 50.6536 51.9298 51.2001 51.9298 51.7765C51.9298 52.3537 51.646 52.9003 50.9847 52.9003C50.6877 52.9003 50.4546 52.786 50.3021 52.5396L50.3021 53.6545ZM51.6545 51.7765C51.6545 51.3189 51.4633 50.8693 50.9549 50.8693C50.476 50.8693 50.3021 51.2637 50.3021 51.7765C50.3021 52.2897 50.476 52.6837 50.9549 52.6837C51.4637 52.6837 51.6545 52.2345 51.6545 51.7765Z" fill="#2A007C"/>
<path d="M53.2596 50.9031C52.8313 50.9031 52.6824 51.2637 52.6824 51.6364L52.6824 52.8496L52.4236 52.8496L52.4236 51.3354C52.4236 51.1277 52.4196 50.9164 52.4111 50.7043L52.6663 50.7043L52.6828 51.0138C52.81 50.7683 53.0225 50.6536 53.3063 50.6536C53.3445 50.6536 53.3868 50.6576 53.425 50.662L53.425 50.9208C53.3654 50.9116 53.3187 50.9031 53.2596 50.9031Z" fill="#2A007C"/>
<path d="M53.7418 51.8232C53.7418 52.3062 53.9704 52.7047 54.4409 52.7047C54.8051 52.7047 54.975 52.4632 55.0386 52.2217L55.2845 52.2217C55.1698 52.6708 54.8941 52.9003 54.4067 52.9003C53.7538 52.9003 53.4653 52.4169 53.4653 51.8152C53.4653 51.2005 53.7663 50.6536 54.4405 50.6536C55.1231 50.6536 55.3054 51.2509 55.3054 51.8232L53.7418 51.8232ZM53.7498 51.6284L55.0301 51.6284C55.0301 51.2086 54.8313 50.8484 54.424 50.8484C54.0553 50.848 53.8005 51.1277 53.7498 51.6284Z" fill="#2A007C"/>
<path d="M56.3153 52.9003C55.8746 52.9003 55.5441 52.6922 55.5441 52.2217L55.8029 52.2217C55.8029 52.5437 56.0146 52.7047 56.3286 52.7047C56.6212 52.7047 56.8498 52.5646 56.8498 52.2772C56.8498 52.0184 56.5829 51.9504 56.3032 51.8699C55.9643 51.7725 55.5952 51.6662 55.5952 51.2509C55.5952 50.7892 55.9808 50.6536 56.3414 50.6536C56.7564 50.6536 57.0663 50.8142 57.0788 51.2593L56.82 51.2593C56.8075 51.0053 56.6252 50.8612 56.3495 50.8612C56.1334 50.8612 55.8705 50.9458 55.8705 51.2255C55.8705 51.4803 56.1334 51.5523 56.4131 51.6284C56.7528 51.7214 57.1255 51.8232 57.1255 52.239C57.1251 52.722 56.7524 52.9003 56.3153 52.9003Z" fill="#2A007C"/>
<path d="M58.1088 52.9003C57.6677 52.9003 57.3372 52.6922 57.3372 52.2217L57.596 52.2217C57.596 52.5437 57.8077 52.7047 58.1221 52.7047C58.4147 52.7047 58.6433 52.5646 58.6433 52.2772C58.6433 52.0184 58.376 51.9504 58.0963 51.8699C57.7574 51.7725 57.3887 51.6662 57.3887 51.2509C57.3887 50.7892 57.7743 50.6536 58.135 50.6536C58.5499 50.6536 58.8598 50.8142 58.8723 51.2593L58.6135 51.2593C58.601 51.0053 58.4187 50.8612 58.143 50.8612C57.9269 50.8612 57.664 50.9458 57.664 51.2255C57.664 51.4803 57.9269 51.5523 58.207 51.6284C58.5463 51.7214 58.9194 51.8232 58.9194 52.239C58.9186 52.722 58.5455 52.9003 58.1088 52.9003Z" fill="#2A007C"/>
</g>
<path d="M22.9947 55.2289L23.606 54.4472C26.9584 50.1446 31.1291 44.7916 29.418 37.6186L27.7877 30.7841L26.5815 31.0719C22.2268 32.1106 18.4895 30.9928 17.8881 28.4717L15.4759 29.0471C16.0773 31.5682 13.247 34.2527 8.8923 35.2915L7.68619 35.5792L9.31652 42.4137C11.0276 49.5867 17.1656 52.4806 22.0974 54.8059L22.9947 55.2289Z" fill="#D84025"/>
<path d="M8.89225 35.2914C13.247 34.2527 16.0773 31.5681 15.4759 29.047L16.682 28.7593L22.9958 55.2274L22.9946 55.2288L22.0973 54.8058C17.1655 52.4805 11.0276 49.5867 9.31647 42.4136L7.68614 35.5791L8.89225 35.2914Z" fill="#A13023"/>
<path fill-rule="evenodd" clip-rule="evenodd" d="M54.4434 22.5884C54.7526 23.8439 55.0605 25.0985 55.3671 26.352C52.5429 27.9683 48.9769 28.8708 44.4975 28.8724V23.6889L54.4434 22.5884Z" fill="#535353"/>
<path fill-rule="evenodd" clip-rule="evenodd" d="M34.5597 22.5884C34.2464 23.8439 33.9357 25.0985 33.6279 26.352C36.4582 27.9683 40.016 28.8708 44.4975 28.8724V23.6889L34.5597 22.5884Z" fill="#676767"/>
<path fill-rule="evenodd" clip-rule="evenodd" d="M42.2742 9.0759C35.8217 3.36948 48.0228 3.91021 51.4613 1.01904C51.704 1.26047 51.8479 1.55073 51.8751 1.85375C51.9023 2.15677 51.8117 2.45917 51.6143 2.72338C53.1408 3.67161 55.8242 2.37786 57.2792 4.1953C55.6304 4.12403 54.6264 4.61829 54.0142 5.27988C58.5363 4.75618 56.767 7.94329 60.632 8.12302C57.7527 9.34239 50.9899 7.00126 46.8086 9.8506C44.921 9.79792 44.1618 9.13323 42.2742 9.0759Z" fill="#A23023"/>
<path fill-rule="evenodd" clip-rule="evenodd" d="M60.63 8.0703C57.7798 9.32968 51.0666 6.93003 46.9159 9.85058C46.1435 9.81775 45.3835 9.6841 44.6673 9.45514C50.0962 4.6606 54.9134 8.91676 60.632 8.0703H60.63Z" fill="#1A1A1A"/>
<path fill-rule="evenodd" clip-rule="evenodd" d="M42.6511 8.5912C43.3962 8.64925 44.1271 8.78319 44.8233 8.98926L44.8724 9.00146C44.6293 8.72999 44.3902 8.45851 44.1552 8.18703C42.0199 6.37056 46.5139 4.22161 49.2393 3.78084C50.2209 4.41531 51.7332 4.11485 52.5078 4.5602C51.8398 5.1001 51.4258 6.0335 50.7557 6.57341C58.4075 5.79863 54.9218 7.64102 58.594 7.99791C58.3468 7.87292 58.1223 7.72478 57.9259 7.55714C56.6964 6.5124 56.8788 5.37158 54.1984 5.67661L52.7066 5.84591C52.9703 5.57341 53.236 5.30142 53.5037 5.02995C54.108 4.39937 55.0175 3.96796 56.0407 3.82659C55.8008 3.72215 55.5366 3.6523 55.262 3.6207C55.0001 3.5912 54.7358 3.5754 54.471 3.57342C53.2783 3.55206 52.141 3.62222 51.1922 3.05181L50.8398 2.83676C50.9094 2.7422 50.9811 2.64917 51.0447 2.55613C51.2033 2.34732 51.2699 2.10676 51.2353 1.86829C50.0057 2.56223 48.3049 3.02893 46.8479 3.41632C45.6942 3.72136 44.4831 4.02639 43.3888 4.40615C42.6163 4.67763 41.7494 5.05435 41.3396 5.56985C40.5957 6.5307 41.7453 7.77981 42.6511 8.5912Z" fill="#EF4123"/>
<path fill-rule="evenodd" clip-rule="evenodd" d="M43.7259 8.71744C44.1136 8.79334 44.496 8.88402 44.8715 8.98912L44.9205 9.0014C44.6782 8.72818 44.4399 8.45496 44.2058 8.18175C42.078 6.35365 46.5562 4.19094 49.2721 3.74734C50.2502 4.38587 51.7572 4.08349 52.5291 4.53169C51.8634 5.07505 51.4509 6.01443 50.7832 6.55779C58.4081 5.77805 54.9346 7.63224 58.594 7.99142C56.6888 7.61843 56.7235 6.27076 55.6412 5.94689C54.5589 5.62302 53.1295 6.369 52.039 6.04513C52.1534 5.42041 52.67 4.91235 53.4215 4.13721C52.378 3.66292 49.7458 4.08656 50.2931 2.71741C47.9509 4.65909 40.4055 3.85479 43.2685 8.55013L43.7259 8.71744Z" fill="#D03927"/>
<path d="M44.4125 12.7378C46.3354 12.7378 47.8942 11.7113 47.8942 10.445C47.8942 9.17875 46.3354 8.15222 44.4125 8.15222C42.4897 8.15222 40.9309 9.17875 40.9309 10.445C40.9309 11.7113 42.4897 12.7378 44.4125 12.7378Z" fill="#CDCCCC"/>
<path fill-rule="evenodd" clip-rule="evenodd" d="M44.4279 10.5299C48.7929 10.5299 52.5226 12.2605 54.0145 14.7017C54.8158 14.959 55.3671 15.4889 55.3671 16.0954C55.363 16.297 55.3022 16.4957 55.1885 16.6786C55.0748 16.8615 54.9108 17.0244 54.7072 17.1567C54.6334 20.7266 50.0594 23.6074 44.4279 23.6074C38.7964 23.6074 34.2388 20.7328 34.1527 17.172C33.94 17.0392 33.7679 16.8738 33.648 16.687C33.5282 16.5002 33.4634 16.2964 33.458 16.0893C33.458 15.4767 34.0277 14.936 34.8474 14.6833C36.3455 12.2483 40.0691 10.5299 44.4279 10.5299Z" fill="#8B8A8A"/>
<path fill-rule="evenodd" clip-rule="evenodd" d="M42.7991 20.2107C46.6371 20.2107 49.7624 18.2312 49.7624 15.7949C49.7624 13.3586 46.631 11.3792 42.7991 11.3792C38.9672 11.3792 35.8357 13.3586 35.8357 15.7949C35.8357 18.2312 38.959 20.2107 42.7991 20.2107Z" fill="#989898"/>
<path fill-rule="evenodd" clip-rule="evenodd" d="M40.6761 15.2854C42.127 15.2854 43.3086 14.5219 43.3086 13.587C43.3086 12.6522 42.127 11.8887 40.6761 11.8887C39.2253 11.8887 38.0436 12.6506 38.0436 13.587C38.0436 14.5235 39.2376 15.2854 40.6761 15.2854Z" fill="#ACACAC"/>
<path fill-rule="evenodd" clip-rule="evenodd" d="M44.4975 14.2665H44.3978C43.0093 14.2611 41.6312 14.4487 40.3309 14.82L32.7787 16.9646V23.3547C36.083 26.2792 39.9364 28.5695 44.4975 30.0613V14.2665Z" fill="#CDCCCC"/>
<path fill-rule="evenodd" clip-rule="evenodd" d="M42.7991 15.2854C42.1973 15.3616 41.6069 15.484 41.0364 15.651L39.5886 16.0678V26.7622C40.6103 27.3513 41.6823 27.8861 42.7971 28.3629V15.2854H42.7991ZM38.9088 16.2638L36.6568 16.9125V24.8458C37.3687 25.37 38.1187 25.8771 38.9088 26.3593V16.2638ZM35.979 17.1069L34.477 17.5394V23.0865C34.9583 23.5096 35.459 23.9244 35.979 24.3309V17.1069Z" fill="#333333"/>
<path fill-rule="evenodd" clip-rule="evenodd" d="M44.4975 14.2664H44.5971C45.9821 14.262 47.3567 14.4496 48.6538 14.82L56.2162 16.963V23.3532C52.9099 26.2792 49.0565 28.5695 44.4975 30.0613V14.2664Z" fill="#B4B4B4"/>
<path fill-rule="evenodd" clip-rule="evenodd" d="M46.1958 15.2854C46.8099 15.3618 47.4126 15.4842 47.9949 15.651L49.4726 16.0678V26.7622C48.4295 27.351 47.3354 27.8857 46.1979 28.3629V15.2854H46.1958ZM50.1665 16.2638L52.4629 16.9125V24.8458C51.7384 25.37 50.9729 25.8771 50.1665 26.3593V16.2638ZM53.1568 17.1069L54.6877 17.5394V23.0865C54.1979 23.5096 53.6875 23.9244 53.1568 24.3309V17.1069Z" fill="#1A1A1A"/>
<path fill-rule="evenodd" clip-rule="evenodd" d="M43.534 8.66174C44.1859 8.66174 44.4984 8.96662 44.2332 9.34109C44.0652 9.54109 43.8242 9.70857 43.5333 9.82751C43.2424 9.94646 42.9113 10.0129 42.5716 10.0204C41.9218 10.0204 41.6093 9.71696 41.8745 9.34109C42.0426 9.14147 42.2834 8.97426 42.5738 8.85535C42.8643 8.73645 43.1948 8.6698 43.534 8.66174Z" fill="#E3E3E3"/>
<g clip-path="url(#clip1_463_5570)">
<path fill-rule="evenodd" clip-rule="evenodd" d="M60.009 47.2835L60.145 47.3539C60.2992 47.4366 60.4708 47.4817 60.6458 47.4855C60.8207 47.4893 60.9941 47.4517 61.1518 47.3757C61.3116 47.3045 61.4523 47.1966 61.5626 47.0608C61.6728 46.925 61.7495 46.7651 61.7865 46.5942C62.0991 45.2279 62.7244 43.5585 63.6139 41.8343C64.5034 40.1101 65.5023 38.6345 66.4278 37.5887C66.5437 37.4584 66.6283 37.3033 66.6752 37.1353C66.722 36.9673 66.7298 36.7908 66.698 36.6193C66.6661 36.4478 66.5955 36.2859 66.4915 36.1459C66.3875 36.0058 66.2529 35.8914 66.0979 35.8114L65.9603 35.7411L66.5262 34.6469L69.1838 36.0162L71.8413 37.384L71.2754 38.4782L71.1394 38.4078C70.9837 38.3264 70.8114 38.2819 70.6357 38.2777C70.46 38.2736 70.2858 38.31 70.1265 38.3841C69.9671 38.4581 69.827 38.5679 69.7169 38.7049C69.6068 38.8418 69.5298 39.0023 69.4917 39.1738C69.1791 40.5384 68.5538 42.2095 67.6643 43.9321C66.7748 45.6547 65.7759 47.1319 64.8504 48.1776C64.7345 48.3081 64.6498 48.4633 64.603 48.6314C64.5562 48.7996 64.5484 48.9762 64.5802 49.1478C64.612 49.3194 64.6826 49.4814 64.7866 49.6216C64.8906 49.7618 65.0253 49.8763 65.1803 49.9565L65.3178 50.0269L64.7519 51.1211L62.0944 49.7533L59.4431 48.3793L60.009 47.2835Z" fill="#CA3927"/>
<path fill-rule="evenodd" clip-rule="evenodd" d="M66.7738 38.2339C67.2121 38.4626 66.6034 40.5412 65.4123 42.8736C64.2213 45.206 62.9001 46.9134 62.4695 46.6847C62.0389 46.456 62.6399 44.3774 63.8309 42.045C65.022 39.7126 66.3355 38.0052 66.7738 38.2339Z" fill="#F04B23"/>
<path fill-rule="evenodd" clip-rule="evenodd" d="M86.1076 3.39673L84.6833 11.4454L71.3964 37.1944L67.0858 34.9697L80.3728 9.22067L86.1076 3.39673Z" fill="#D1D2D2"/>
<path fill-rule="evenodd" clip-rule="evenodd" d="M81.808 7.74434L84.0702 6.27113L83.2748 11.0728L71.3318 37.1944L84.6771 11.4454L86.1076 3.39673L81.808 7.74434Z" fill="#E6E6E5"/>
<path fill-rule="evenodd" clip-rule="evenodd" d="M82.3712 10.6997L76.0933 23.5217L69.8138 36.3452L69.1284 35.9964L68.4445 35.6476L75.4079 23.1745L82.3712 10.6997Z" fill="#818181"/>
<path fill-rule="evenodd" clip-rule="evenodd" d="M65.7727 33.4234L73.3723 37.3669C73.7631 37.0841 74.2371 36.9418 74.7181 36.9631C75.1991 36.9844 75.659 37.168 76.0235 37.4842C76.3881 37.8005 76.6361 38.231 76.7275 38.7064C76.819 39.1817 76.7486 39.6742 76.5278 40.1044C76.3069 40.5346 75.9483 40.8775 75.51 41.0777C75.0716 41.2779 74.579 41.3238 74.1115 41.208C73.644 41.0922 73.2289 40.8214 72.9332 40.4394C72.6375 40.0573 72.4783 39.5862 72.4814 39.1021L64.8818 35.1585C64.4905 35.4422 64.0157 35.585 63.5338 35.5639C63.052 35.5429 62.5913 35.3592 62.226 35.0425C61.8607 34.7258 61.6121 34.2946 61.5204 33.8185C61.4286 33.3423 61.4991 32.8489 61.7204 32.418C61.9417 31.987 62.3009 31.6436 62.74 31.4431C63.1792 31.2426 63.6727 31.1968 64.1409 31.3129C64.6092 31.4291 65.0249 31.7005 65.3209 32.0834C65.617 32.4663 65.7761 32.9384 65.7727 33.4234Z" fill="#333333"/>
</g>
<path d="M12.6965 76.116V79.26H16.8125V80.1H12.6965V84H11.7725V75.252H17.1965V76.116H12.6965ZM23.6211 81.288H18.7971C18.8291 81.872 19.0491 82.356 19.4571 82.74C19.8571 83.132 20.3491 83.328 20.9331 83.328C21.3891 83.328 21.7771 83.22 22.0971 83.004C22.4171 82.78 22.6451 82.464 22.7811 82.056L23.5491 82.296C23.3811 82.856 23.0571 83.3 22.5771 83.628C22.0811 83.948 21.5371 84.108 20.9451 84.108C20.3851 84.108 19.8691 83.968 19.3971 83.688C18.9251 83.408 18.5651 83.032 18.3171 82.56C18.0531 82.096 17.9211 81.58 17.9211 81.012C17.9211 80.468 18.0451 79.964 18.2931 79.5C18.5251 79.028 18.8731 78.648 19.3371 78.36C19.7851 78.072 20.2811 77.928 20.8251 77.928C21.4251 77.928 21.9371 78.064 22.3611 78.336C22.7931 78.6 23.1131 78.964 23.3211 79.428C23.5291 79.868 23.6331 80.392 23.6331 81C23.6331 81.104 23.6291 81.2 23.6211 81.288ZM18.8091 80.544H22.7571C22.7011 80 22.5011 79.552 22.1571 79.2C21.8211 78.864 21.3771 78.696 20.8251 78.696C20.3211 78.696 19.8771 78.876 19.4931 79.236C19.1091 79.612 18.8811 80.048 18.8091 80.544ZM24.7063 81.012C24.7063 80.212 24.9623 79.504 25.4743 78.888C25.9943 78.248 26.6703 77.928 27.5023 77.928C28.0543 77.928 28.5263 78.068 28.9183 78.348C29.2543 78.588 29.5543 78.9 29.8183 79.284V74.904H30.6823V84H29.8303V82.728C29.2863 83.632 28.5103 84.084 27.5023 84.084C26.6703 84.084 25.9903 83.776 25.4623 83.16C24.9583 82.552 24.7063 81.836 24.7063 81.012ZM27.6823 83.328C28.2823 83.336 28.7943 83.104 29.2183 82.632C29.6423 82.16 29.8463 81.616 29.8303 81C29.8303 80.608 29.7383 80.24 29.5543 79.896C29.3703 79.544 29.1143 79.256 28.7863 79.032C28.4503 78.816 28.0823 78.708 27.6823 78.708C27.0423 78.708 26.5383 78.928 26.1703 79.368C25.7863 79.816 25.5943 80.372 25.5943 81.036C25.5943 81.908 25.9183 82.564 26.5663 83.004C26.8943 83.22 27.2663 83.328 27.6823 83.328ZM32.878 84V75.252H38.35V76.104H33.802V79.128H37.966V79.98H33.802V83.148H38.398V84H32.878ZM44.004 84L42.156 81.576L40.308 84H39.288L41.652 80.964L39.384 78.036H40.404L42.168 80.352L43.932 78.036H44.94L42.684 80.952L45.036 84H44.004ZM48.9535 80.004V79.716C48.9535 78.564 49.2335 77.516 49.7935 76.572C50.3455 75.62 51.1255 74.856 52.1335 74.28L52.4935 74.844C50.7255 75.98 49.8415 77.608 49.8415 79.728V79.992C49.8415 82.096 50.7255 83.72 52.4935 84.864L52.1335 85.452C51.1255 84.868 50.3455 84.1 49.7935 83.148C49.2335 82.204 48.9535 81.156 48.9535 80.004ZM54.9309 76.116V79.26H59.0469V80.1H54.9309V84H54.0069V75.252H59.4309V76.116H54.9309ZM61.0968 84V75.252H63.7008C64.3808 75.252 65.0048 75.364 65.5728 75.588C66.1408 75.804 66.6288 76.108 67.0368 76.5C67.8928 77.332 68.3208 78.368 68.3208 79.608C68.3208 80.248 68.2008 80.844 67.9608 81.396C67.7288 81.924 67.4008 82.388 66.9768 82.788C66.0888 83.596 64.9968 84 63.7008 84H61.0968ZM62.0208 76.116V83.136H63.6648C64.3928 83.136 65.0368 82.984 65.5968 82.68C66.1728 82.376 66.6088 81.964 66.9048 81.444C67.2168 80.916 67.3728 80.312 67.3728 79.632C67.3728 78.624 67.0368 77.784 66.3648 77.112C65.7008 76.448 64.8008 76.116 63.6648 76.116H62.0208ZM74.8456 84L72.0016 80.172L69.1816 84H68.1016L71.4616 79.524L68.2576 75.252H69.3256L72.0256 78.852L74.7016 75.252H75.7696L72.5656 79.512L75.9136 84H74.8456ZM79.838 79.716V80.004C79.838 81.164 79.562 82.216 79.01 83.16C78.45 84.104 77.666 84.868 76.658 85.452L76.298 84.864C78.066 83.72 78.95 82.096 78.95 79.992V79.728C78.95 77.608 78.066 75.98 76.298 74.844L76.658 74.28C77.666 74.848 78.45 75.608 79.01 76.56C79.562 77.512 79.838 78.564 79.838 79.716Z" fill="white"/>
<defs>
<clipPath id="clip0_463_5570">
<rect width="30" height="13.6545" fill="white" transform="translate(28.9999 40)"/>
</clipPath>
<clipPath id="clip1_463_5570">
<rect width="28.8843" height="51.8684" fill="white" transform="translate(59.613)"/>
</clipPath>
</defs>
</svg>
