<svg width="90" height="98" viewBox="0 0 90 98" fill="none" xmlns="http://www.w3.org/2000/svg">
<rect x="21.5801" y="24.1279" width="45.9342" height="45.9342" rx="22.9671" fill="#2962FF"/>
<rect x="21.5801" y="24.1279" width="45.9342" height="45.9342" rx="22.9671" stroke="#CDCCCC"/>
<path d="M31.5814 55.8511L57.8347 55.8511L57.8347 60.1108L31.5814 60.1108L31.5814 55.8511Z" fill="white"/>
<path d="M44.5984 33.8812L49.034 33.8812L51.2045 48.3049L53.4233 33.8812L57.8105 33.8812L57.8105 53.5887L54.8872 53.5887L54.8872 38.747L52.4232 53.5887L49.897 53.5887L47.5194 38.747L47.5194 53.5598L44.5984 53.5598L44.5984 33.8812Z" fill="white"/>
<path d="M38.519 40.139L41.5167 40.139L41.5167 38.7472C41.5167 37.3839 41.5167 33.4729 36.5021 33.4729C31.5981 33.4729 31.5981 37.9395 31.5981 38.7472C31.5981 39.1774 31.5981 48.2065 31.5981 48.9902C31.5981 51.9806 32.6919 53.9399 35.526 53.959C37.2018 53.9615 38.3701 52.9133 38.6176 52.5143L38.6176 53.56L41.5167 53.5887L41.5167 42.9105L36.8002 42.9105L36.8002 45.2808L38.519 45.2808C38.519 45.2808 38.519 48.0429 38.519 48.4012C38.519 49.9831 38.0238 51.0599 36.5502 51.0599C35.0741 51.0599 34.6053 49.9132 34.6053 48.4012C34.6053 47.4637 34.6053 39.3313 34.6053 38.7472C34.6053 37.9634 34.6053 36.1749 36.5502 36.1749C38.519 36.1749 38.519 37.9923 38.519 38.7472C38.519 39.4033 38.519 40.139 38.519 40.139Z" fill="white"/>
<path d="M66.9177 55.4018L66.3041 54.6172C62.9389 50.2981 58.7524 44.9249 60.47 37.7246L62.1065 30.8641L63.3172 31.1529C67.6885 32.1956 71.4401 31.0735 72.0438 28.5428L74.4651 29.1204C73.8614 31.6511 76.7025 34.3459 81.0738 35.3886L82.2845 35.6774L80.6479 42.5379C78.9304 49.7382 72.769 52.6431 67.8185 54.9772L66.9177 55.4018Z" fill="#7AB9E8"/>
<path d="M81.0738 35.3887C76.7026 34.3459 73.8615 31.6512 74.4652 29.1205L73.2545 28.8317L66.9166 55.4004L66.9178 55.4019L67.8185 54.9773C72.7691 52.6431 78.9304 49.7383 80.648 42.538L82.2845 35.6775L81.0738 35.3887Z" fill="#579ADF"/>
<path fill-rule="evenodd" clip-rule="evenodd" d="M35.148 22.6743C34.8375 23.9347 34.5285 25.194 34.2208 26.4523C37.0557 28.0747 40.6352 28.9807 45.1317 28.9822V23.779L35.148 22.6743Z" fill="#535353"/>
<path fill-rule="evenodd" clip-rule="evenodd" d="M55.1073 22.6743C55.4218 23.9347 55.7336 25.194 56.0427 26.4523C53.2016 28.0747 49.6302 28.9807 45.1317 28.9822V23.779L55.1073 22.6743Z" fill="#676767"/>
<path fill-rule="evenodd" clip-rule="evenodd" d="M47.3634 9.11046C53.8405 3.38232 41.593 3.92512 38.1414 1.02295C37.8978 1.26529 37.7533 1.55666 37.726 1.86083C37.6987 2.165 37.7897 2.46856 37.9878 2.73377C36.4555 3.68561 33.7619 2.38694 32.3013 4.21129C33.9565 4.13975 34.9643 4.63589 35.5788 5.3C31.0395 4.77431 32.8155 7.97354 28.9358 8.15395C31.8261 9.37797 38.6146 7.02792 42.8118 9.8881C44.7066 9.83522 45.4686 9.168 47.3634 9.11046Z" fill="#1B2241"/>
<path fill-rule="evenodd" clip-rule="evenodd" d="M28.9378 8.10108C31.7988 9.36525 38.5376 6.95647 42.7041 9.88814C43.4794 9.85518 44.2423 9.72102 44.9612 9.49119C39.5116 4.67842 34.6762 8.95077 28.9358 8.10108H28.9378Z" fill="#1A1A1A"/>
<path fill-rule="evenodd" clip-rule="evenodd" d="M46.9851 8.62385C46.2371 8.68213 45.5035 8.81658 44.8047 9.02344L44.7553 9.03568C44.9994 8.76317 45.2394 8.49066 45.4753 8.21815C47.6187 6.39477 43.1076 4.23764 40.3718 3.79519C39.3865 4.43208 37.8684 4.13048 37.0909 4.57752C37.7615 5.11948 38.177 6.05643 38.8496 6.59839C31.1687 5.82066 34.6677 7.67006 30.9816 8.02831C31.2297 7.90284 31.455 7.75414 31.6521 7.58586C32.8863 6.53715 32.7033 5.39199 35.3938 5.69818L36.8913 5.86812C36.6267 5.59459 36.36 5.32156 36.0912 5.04905C35.4846 4.41608 34.5717 3.98303 33.5446 3.84112C33.7854 3.73628 34.0506 3.66616 34.3263 3.63444C34.5891 3.60483 34.8544 3.58897 35.1203 3.58698C36.3174 3.56555 37.4591 3.63597 38.4115 3.06339L38.7653 2.84753C38.6953 2.75261 38.6234 2.65922 38.5596 2.56583C38.4004 2.35623 38.3335 2.11475 38.3683 1.87537C39.6025 2.57195 41.3098 3.04043 42.7723 3.42929C43.9304 3.73549 45.1461 4.04168 46.2446 4.42289C47.0201 4.6954 47.8902 5.07355 48.3016 5.59101C49.0483 6.55552 47.8943 7.80938 46.9851 8.62385Z" fill="#4386BB"/>
<path fill-rule="evenodd" clip-rule="evenodd" d="M45.9062 8.75064C45.517 8.82683 45.1332 8.91786 44.7563 9.02335L44.7071 9.03568C44.9503 8.76142 45.1894 8.48717 45.4245 8.21291C47.5604 6.37786 43.0652 4.20692 40.3389 3.76164C39.3571 4.4026 37.8443 4.09907 37.0695 4.54897C37.7377 5.0944 38.1518 6.03735 38.8221 6.58278C31.1681 5.80007 34.6548 7.66132 30.9816 8.02186C32.894 7.64745 32.8592 6.29466 33.9456 5.96956C35.032 5.64445 36.4668 6.39327 37.5614 6.06816C37.4466 5.44107 36.928 4.93108 36.1737 4.15299C37.2212 3.6769 39.8634 4.10215 39.314 2.72778C41.6651 4.67685 49.2392 3.86949 46.3654 8.5827L45.9062 8.75064Z" fill="#283A84"/>
<path d="M45.2169 12.7863C43.2867 12.7863 41.722 11.7559 41.722 10.4848C41.722 9.21366 43.2867 8.18323 45.2169 8.18323C47.1471 8.18323 48.7119 9.21366 48.7119 10.4848C48.7119 11.7559 47.1471 12.7863 45.2169 12.7863Z" fill="#CDCCCC"/>
<path fill-rule="evenodd" clip-rule="evenodd" d="M45.2015 10.5701C40.8199 10.5701 37.076 12.3072 35.5784 14.7577C34.7741 15.016 34.2207 15.5479 34.2207 16.1567C34.2248 16.3591 34.2859 16.5586 34.4 16.7422C34.5141 16.9257 34.6787 17.0893 34.8831 17.2221C34.9572 20.8056 39.5486 23.6973 45.2015 23.6973C50.8544 23.6973 55.4294 20.8117 55.5158 17.2375C55.7293 17.1041 55.9021 16.9381 56.0224 16.7506C56.1427 16.5631 56.2078 16.3585 56.2131 16.1506C56.2131 15.5356 55.6413 14.993 54.8184 14.7393C53.3147 12.295 49.5769 10.5701 45.2015 10.5701Z" fill="#8B8A8A"/>
<path fill-rule="evenodd" clip-rule="evenodd" d="M46.8365 20.2876C42.9839 20.2876 39.8467 18.3006 39.8467 15.8551C39.8467 13.4095 42.9901 11.4225 46.8365 11.4225C50.683 11.4225 53.8264 13.4095 53.8264 15.8551C53.8264 18.3006 50.6912 20.2876 46.8365 20.2876Z" fill="#989898"/>
<path fill-rule="evenodd" clip-rule="evenodd" d="M48.9676 15.3436C47.5112 15.3436 46.3251 14.5772 46.3251 13.6388C46.3251 12.7004 47.5112 11.934 48.9676 11.934C50.424 11.934 51.6101 12.6988 51.6101 13.6388C51.6101 14.5788 50.4116 15.3436 48.9676 15.3436Z" fill="#ACACAC"/>
<path fill-rule="evenodd" clip-rule="evenodd" d="M45.1317 14.3208H45.2317C46.6255 14.3154 48.0089 14.5037 49.3141 14.8765L56.8951 17.0292V23.4436C53.5781 26.3793 49.7101 28.6783 45.1317 30.1757V14.3208Z" fill="#CDCCCC"/>
<path fill-rule="evenodd" clip-rule="evenodd" d="M46.8365 15.3436C47.4406 15.4201 48.0333 15.543 48.6059 15.7106L50.0593 16.129V26.8641C49.0336 27.4554 47.9576 27.9922 46.8386 28.4709V15.3436H46.8365ZM50.7416 16.3258L53.0022 16.9769V24.9404C52.2876 25.4666 51.5347 25.9756 50.7416 26.4597V16.3258ZM53.6826 17.1721L55.1902 17.6062V23.1744C54.7071 23.5991 54.2046 24.0155 53.6826 24.4236V17.1721Z" fill="#333333"/>
<path fill-rule="evenodd" clip-rule="evenodd" d="M45.1317 14.3208H45.0317C43.6414 14.3163 42.2616 14.5046 40.9595 14.8764L33.3683 17.0276V23.4421C36.6873 26.3793 40.5554 28.6783 45.1317 30.1757V14.3208Z" fill="#B4B4B4"/>
<path fill-rule="evenodd" clip-rule="evenodd" d="M43.4269 15.3436C42.8104 15.4203 42.2055 15.5432 41.621 15.7106L40.1376 16.129V26.8641C41.1847 27.4551 42.283 27.9919 43.4248 28.4709V15.3436H43.4269ZM39.4411 16.3258L37.136 16.9769V24.9404C37.8633 25.4666 38.6316 25.9756 39.4411 26.4597V16.3258ZM36.4395 17.1721L34.9027 17.6062V23.1744C35.3944 23.5991 35.9067 24.0155 36.4395 24.4236V17.1721Z" fill="#1A1A1A"/>
<path fill-rule="evenodd" clip-rule="evenodd" d="M46.0988 8.6947C45.4445 8.6947 45.1307 9.00073 45.397 9.37664C45.5656 9.5774 45.8075 9.74551 46.0995 9.86491C46.3915 9.9843 46.7239 10.051 47.0648 10.0586C47.7171 10.0586 48.0309 9.75394 47.7646 9.37664C47.5959 9.17625 47.3542 9.00841 47.0627 8.88905C46.7711 8.76969 46.4393 8.70279 46.0988 8.6947Z" fill="#E3E3E3"/>
<g clip-path="url(#clip0_186_7121)">
<path fill-rule="evenodd" clip-rule="evenodd" d="M29.573 47.4634L29.4365 47.534C29.2817 47.6171 29.1094 47.6624 28.9338 47.6662C28.7582 47.67 28.5841 47.6323 28.4259 47.556C28.2655 47.4845 28.1242 47.3762 28.0136 47.2399C27.9029 47.1036 27.8259 46.9431 27.7888 46.7714C27.475 45.4 26.8473 43.7242 25.9544 41.9935C25.0615 40.2628 24.0588 38.7815 23.1298 37.7318C23.0135 37.601 22.9285 37.4453 22.8815 37.2766C22.8345 37.108 22.8266 36.9308 22.8586 36.7587C22.8905 36.5865 22.9614 36.424 23.0658 36.2834C23.1702 36.1428 23.3054 36.028 23.4609 35.9477L23.599 35.8771L23.031 34.7787L20.3633 36.1532L17.6957 37.5262L18.2638 38.6246L18.4003 38.554C18.5566 38.4722 18.7296 38.4275 18.9059 38.4234C19.0822 38.4192 19.2571 38.4558 19.4171 38.5301C19.577 38.6045 19.7177 38.7147 19.8282 38.8521C19.9387 38.9896 20.016 39.1507 20.0542 39.3228C20.3681 40.6927 20.9957 42.3701 21.8886 44.0992C22.7815 45.8284 23.7842 47.3112 24.7132 48.361C24.8296 48.4919 24.9145 48.6477 24.9615 48.8165C25.0085 48.9852 25.0164 49.1625 24.9844 49.3348C24.9525 49.507 24.8816 49.6697 24.7772 49.8104C24.6728 49.9511 24.5377 50.0661 24.3821 50.1466L24.244 50.2172L24.812 51.3156L27.4797 49.9426L30.141 48.5634L29.573 47.4634Z" fill="#4592CF"/>
<path fill-rule="evenodd" clip-rule="evenodd" d="M22.7825 38.3795C22.3425 38.6091 22.9535 40.6956 24.1491 43.0369C25.3447 45.3781 26.6709 47.092 27.1032 46.8625C27.5354 46.6329 26.9321 44.5463 25.7365 42.2051C24.5409 39.8638 23.2225 38.1499 22.7825 38.3795Z" fill="#283A84"/>
<path fill-rule="evenodd" clip-rule="evenodd" d="M3.37509 3.40967L4.80484 11.4889L18.1423 37.3359L22.4693 35.1028L9.13179 9.25577L3.37509 3.40967Z" fill="#D1D2D2"/>
<path fill-rule="evenodd" clip-rule="evenodd" d="M7.69103 7.77382L5.42022 6.295L6.21871 11.1149L18.2072 37.3359L4.8111 11.4889L3.37507 3.40967L7.69103 7.77382Z" fill="#E6E6E5"/>
<path fill-rule="evenodd" clip-rule="evenodd" d="M7.12571 10.7405L13.4275 23.6112L19.7309 36.4835L20.4189 36.1334L21.1054 35.7833L14.1155 23.2627L7.12571 10.7405Z" fill="#818181"/>
<path fill-rule="evenodd" clip-rule="evenodd" d="M23.7874 33.5505L16.1589 37.5091C15.7666 37.2252 15.2907 37.0824 14.8079 37.1037C14.3251 37.1251 13.8635 37.3094 13.4976 37.6268C13.1316 37.9443 12.8827 38.3765 12.7909 38.8536C12.699 39.3308 12.7697 39.8251 12.9914 40.257C13.2132 40.6888 13.573 41.033 14.0131 41.234C14.4531 41.4349 14.9476 41.481 15.4169 41.3648C15.8861 41.2485 16.3028 40.9768 16.5996 40.5932C16.8965 40.2097 17.0563 39.7368 17.0532 39.2508L24.6817 35.2923C25.0744 35.577 25.5511 35.7203 26.0348 35.6992C26.5184 35.6781 26.9809 35.4937 27.3476 35.1758C27.7143 34.8579 27.9638 34.4251 28.0559 33.9471C28.148 33.4691 28.0772 32.9739 27.8551 32.5413C27.633 32.1087 27.2724 31.764 26.8316 31.5627C26.3908 31.3615 25.8954 31.3155 25.4254 31.4321C24.9553 31.5487 24.5381 31.8212 24.2409 32.2055C23.9437 32.5899 23.784 33.0637 23.7874 33.5505Z" fill="#333333"/>
</g>
<path d="M33.8771 77.269L33.0011 77.581C32.8651 77.197 32.6651 76.853 32.4011 76.549C32.2011 76.341 32.0091 76.173 31.8251 76.045C31.3291 75.701 30.7171 75.529 29.9891 75.529C29.3171 75.529 28.7251 75.693 28.2131 76.021C27.6771 76.357 27.2691 76.797 26.9891 77.341C26.7011 77.885 26.5571 78.477 26.5571 79.117C26.5571 80.125 26.8611 80.977 27.4691 81.673C28.1011 82.385 28.9451 82.741 30.0011 82.741C30.8011 82.741 31.4971 82.513 32.0891 82.057C32.7051 81.585 33.0371 80.941 33.0851 80.125H29.4371V79.273H34.0691V79.609C34.0691 80.729 33.7091 81.669 32.9891 82.429C32.2371 83.205 31.2371 83.593 29.9891 83.593C28.6611 83.593 27.5971 83.169 26.7971 82.321C26.0051 81.481 25.6091 80.429 25.6091 79.165C25.6091 78.333 25.8011 77.573 26.1851 76.885C26.5691 76.197 27.0971 75.657 27.7691 75.265C28.4331 74.873 29.1811 74.677 30.0131 74.677C31.0691 74.677 31.9251 74.941 32.5811 75.469C33.1971 75.949 33.6291 76.549 33.8771 77.269ZM40.8353 80.797H36.0113C36.0433 81.381 36.2633 81.865 36.6713 82.249C37.0713 82.641 37.5633 82.837 38.1473 82.837C38.6033 82.837 38.9913 82.729 39.3113 82.513C39.6313 82.289 39.8593 81.973 39.9953 81.565L40.7633 81.805C40.5953 82.365 40.2713 82.809 39.7913 83.137C39.2953 83.457 38.7513 83.617 38.1593 83.617C37.5993 83.617 37.0833 83.477 36.6113 83.197C36.1393 82.917 35.7793 82.541 35.5313 82.069C35.2673 81.605 35.1353 81.089 35.1353 80.521C35.1353 79.977 35.2593 79.473 35.5073 79.009C35.7393 78.537 36.0873 78.157 36.5513 77.869C36.9993 77.581 37.4953 77.437 38.0393 77.437C38.6393 77.437 39.1513 77.573 39.5753 77.845C40.0073 78.109 40.3273 78.473 40.5353 78.937C40.7433 79.377 40.8473 79.901 40.8473 80.509C40.8473 80.613 40.8433 80.709 40.8353 80.797ZM36.0233 80.053H39.9713C39.9153 79.509 39.7153 79.061 39.3713 78.709C39.0353 78.373 38.5913 78.205 38.0393 78.205C37.5353 78.205 37.0913 78.385 36.7073 78.745C36.3233 79.121 36.0953 79.557 36.0233 80.053ZM47.5245 83.509H46.6485V80.041C46.6485 79.489 46.5085 79.049 46.2285 78.721C45.9485 78.393 45.5405 78.229 45.0045 78.229C44.4845 78.229 44.0565 78.409 43.7205 78.769C43.3925 79.137 43.2285 79.585 43.2285 80.113V83.509H42.3525V77.545H43.2045V78.637C43.6845 77.837 44.3725 77.437 45.2685 77.437C45.9725 77.437 46.5285 77.653 46.9365 78.085C47.3285 78.541 47.5245 79.121 47.5245 79.825V83.509ZM54.6869 80.797H49.8629C49.8949 81.381 50.1149 81.865 50.5229 82.249C50.9229 82.641 51.4149 82.837 51.9989 82.837C52.4549 82.837 52.8429 82.729 53.1629 82.513C53.4829 82.289 53.7109 81.973 53.8469 81.565L54.6149 81.805C54.4469 82.365 54.1229 82.809 53.6429 83.137C53.1469 83.457 52.6029 83.617 52.0109 83.617C51.4509 83.617 50.9349 83.477 50.4629 83.197C49.9909 82.917 49.6309 82.541 49.3829 82.069C49.1189 81.605 48.9869 81.089 48.9869 80.521C48.9869 79.977 49.1109 79.473 49.3589 79.009C49.5909 78.537 49.9389 78.157 50.4029 77.869C50.8509 77.581 51.3469 77.437 51.8909 77.437C52.4909 77.437 53.0029 77.573 53.4269 77.845C53.8589 78.109 54.1789 78.473 54.3869 78.937C54.5949 79.377 54.6989 79.901 54.6989 80.509C54.6989 80.613 54.6949 80.709 54.6869 80.797ZM49.8749 80.053H53.8229C53.7669 79.509 53.5669 79.061 53.2229 78.709C52.8869 78.373 52.4429 78.205 51.8909 78.205C51.3869 78.205 50.9429 78.385 50.5589 78.745C50.1749 79.121 49.9469 79.557 49.8749 80.053ZM56.204 77.545H57.056V78.721C57.336 78.153 57.744 77.769 58.28 77.569C58.496 77.489 58.732 77.449 58.988 77.449C59.14 77.449 59.236 77.457 59.276 77.473V78.397C59.212 78.381 59.1 78.373 58.94 78.373C58.292 78.373 57.82 78.589 57.524 79.021C57.228 79.453 57.08 79.977 57.08 80.593V83.509H56.204V77.545ZM62.0738 80.065H63.7298V79.669C63.7298 78.701 63.2218 78.217 62.2058 78.217C61.7178 78.217 61.3418 78.349 61.0778 78.613C60.8378 78.853 60.6938 79.125 60.6458 79.429L59.8058 79.249C59.8138 79.081 59.8938 78.869 60.0458 78.613C60.1978 78.357 60.3978 78.129 60.6458 77.929C61.0698 77.601 61.5978 77.437 62.2298 77.437C63.3178 77.437 64.0418 77.849 64.4018 78.673C64.5218 78.953 64.5818 79.281 64.5818 79.657V81.337C64.5818 82.313 64.6138 83.037 64.6778 83.509H63.8138C63.7578 83.205 63.7298 82.857 63.7298 82.465C63.2258 83.233 62.5538 83.617 61.7138 83.617C61.1138 83.617 60.6338 83.449 60.2738 83.113C59.8978 82.785 59.7098 82.365 59.7098 81.853V81.793C59.7098 81.201 59.9458 80.765 60.4178 80.485C60.8978 80.205 61.4498 80.065 62.0738 80.065ZM63.7298 80.989V80.785H62.0618C61.6938 80.785 61.3698 80.853 61.0898 80.989C60.7538 81.133 60.5858 81.397 60.5858 81.781C60.5858 82.109 60.7098 82.369 60.9578 82.561C61.1978 82.753 61.5018 82.849 61.8698 82.849C62.3898 82.849 62.8338 82.673 63.2018 82.321C63.5538 81.985 63.7298 81.541 63.7298 80.989ZM66.4814 83.509V74.401H67.3574V83.509H66.4814ZM20.0878 87.761H21.4078V96.509H20.4958V89.009L17.2438 96.509H16.4158L13.1878 89.069V96.509H12.2758V87.761H13.5838L16.8478 95.261L20.0878 87.761ZM26.2422 96.617C25.6902 96.617 25.1742 96.481 24.6942 96.209C24.2222 95.929 23.8542 95.557 23.5902 95.093C23.3182 94.629 23.1822 94.113 23.1822 93.545C23.1822 92.657 23.4782 91.921 24.0702 91.337C24.6622 90.737 25.3942 90.437 26.2662 90.437C27.1142 90.421 27.8422 90.721 28.4502 91.337C29.0662 91.945 29.3662 92.669 29.3502 93.509C29.3662 94.373 29.0662 95.113 28.4502 95.729C27.8342 96.337 27.0982 96.633 26.2422 96.617ZM26.2662 95.837C26.8902 95.837 27.4142 95.613 27.8382 95.165C28.2462 94.717 28.4502 94.177 28.4502 93.545C28.4502 92.905 28.2422 92.353 27.8262 91.889C27.4022 91.433 26.8742 91.205 26.2422 91.205C25.6102 91.205 25.0902 91.429 24.6822 91.877C24.2742 92.325 24.0702 92.869 24.0702 93.509C24.0542 94.141 24.2582 94.689 24.6822 95.153C25.1142 95.617 25.6422 95.845 26.2662 95.837ZM32.7686 96.557C31.6406 96.557 31.0766 96.025 31.0766 94.961V91.313H29.9726V90.545H31.0766V88.829H31.9406V90.545H33.4526V91.313H31.9406V94.949C31.9406 95.509 32.2646 95.789 32.9126 95.789C33.0646 95.789 33.2446 95.773 33.4526 95.741V96.461C33.2446 96.525 33.0166 96.557 32.7686 96.557ZM37.2812 96.617C36.7292 96.617 36.2132 96.481 35.7332 96.209C35.2612 95.929 34.8932 95.557 34.6292 95.093C34.3572 94.629 34.2212 94.113 34.2212 93.545C34.2212 92.657 34.5172 91.921 35.1092 91.337C35.7012 90.737 36.4332 90.437 37.3052 90.437C38.1532 90.421 38.8812 90.721 39.4892 91.337C40.1052 91.945 40.4052 92.669 40.3892 93.509C40.4052 94.373 40.1052 95.113 39.4892 95.729C38.8732 96.337 38.1372 96.633 37.2812 96.617ZM37.3052 95.837C37.9292 95.837 38.4532 95.613 38.8772 95.165C39.2852 94.717 39.4892 94.177 39.4892 93.545C39.4892 92.905 39.2812 92.353 38.8652 91.889C38.4412 91.433 37.9132 91.205 37.2812 91.205C36.6492 91.205 36.1292 91.429 35.7212 91.877C35.3132 92.325 35.1092 92.869 35.1092 93.509C35.0932 94.141 35.2972 94.689 35.7212 95.153C36.1532 95.617 36.6812 95.845 37.3052 95.837ZM41.9189 90.545H42.7709V91.721C43.0509 91.153 43.4589 90.769 43.9949 90.569C44.2109 90.489 44.4469 90.449 44.7029 90.449C44.8549 90.449 44.9509 90.457 44.9909 90.473V91.397C44.9269 91.381 44.8149 91.373 44.6549 91.373C44.0069 91.373 43.5349 91.589 43.2389 92.021C42.9429 92.453 42.7949 92.977 42.7949 93.593V96.509H41.9189V90.545ZM49.9447 94.817C49.9447 95.353 49.7407 95.781 49.3327 96.101C48.9247 96.437 48.4247 96.605 47.8327 96.605C46.9607 96.605 46.3247 96.317 45.9247 95.741C45.7247 95.469 45.6047 95.165 45.5647 94.829L46.3567 94.625C46.4127 94.953 46.5607 95.241 46.8007 95.489C47.0487 95.729 47.3887 95.849 47.8207 95.849C48.1487 95.849 48.4407 95.757 48.6967 95.573C48.9367 95.405 49.0567 95.169 49.0567 94.865C49.0567 94.625 48.9607 94.433 48.7687 94.289C48.5927 94.145 48.3647 94.041 48.0847 93.977L47.1727 93.773C46.1807 93.557 45.6847 93.037 45.6847 92.213C45.6847 91.597 45.9327 91.137 46.4287 90.833C46.8527 90.569 47.2807 90.437 47.7127 90.437C48.5287 90.445 49.1247 90.709 49.5007 91.229C49.6847 91.493 49.8047 91.761 49.8607 92.033L49.0687 92.261C49.0127 92.029 48.8967 91.805 48.7207 91.589C48.5047 91.333 48.1687 91.205 47.7127 91.205C47.3847 91.205 47.1127 91.297 46.8967 91.481C46.6727 91.657 46.5607 91.881 46.5607 92.153C46.5607 92.553 46.8487 92.825 47.4247 92.969L48.3847 93.185C48.8247 93.289 49.1927 93.477 49.4887 93.749C49.7927 94.021 49.9447 94.377 49.9447 94.817ZM54.2263 92.513V92.225C54.2263 91.073 54.5063 90.025 55.0663 89.081C55.6183 88.129 56.3983 87.365 57.4063 86.789L57.7663 87.353C55.9983 88.489 55.1143 90.117 55.1143 92.237V92.501C55.1143 94.605 55.9983 96.229 57.7663 97.373L57.4063 97.961C56.3983 97.377 55.6183 96.609 55.0663 95.657C54.5063 94.713 54.2263 93.665 54.2263 92.513ZM65.5763 90.269L64.7003 90.581C64.5643 90.197 64.3643 89.853 64.1003 89.549C63.9003 89.341 63.7083 89.173 63.5243 89.045C63.0283 88.701 62.4163 88.529 61.6883 88.529C61.0163 88.529 60.4243 88.693 59.9123 89.021C59.3763 89.357 58.9683 89.797 58.6883 90.341C58.4003 90.885 58.2563 91.477 58.2563 92.117C58.2563 93.125 58.5603 93.977 59.1683 94.673C59.8003 95.385 60.6443 95.741 61.7003 95.741C62.5003 95.741 63.1963 95.513 63.7883 95.057C64.4043 94.585 64.7363 93.941 64.7843 93.125H61.1363V92.273H65.7683V92.609C65.7683 93.729 65.4083 94.669 64.6883 95.429C63.9363 96.205 62.9363 96.593 61.6883 96.593C60.3603 96.593 59.2963 96.169 58.4963 95.321C57.7043 94.481 57.3083 93.429 57.3083 92.165C57.3083 91.333 57.5003 90.573 57.8843 89.885C58.2683 89.197 58.7963 88.657 59.4683 88.265C60.1323 87.873 60.8803 87.677 61.7123 87.677C62.7683 87.677 63.6243 87.941 64.2803 88.469C64.8963 88.949 65.3283 89.549 65.5763 90.269ZM75.3065 87.761H76.6265V96.509H75.7145V89.009L72.4625 96.509H71.6345L68.4065 89.069V96.509H67.4945V87.761H68.8025L72.0665 95.261L75.3065 87.761ZM81.6889 92.225V92.513C81.6889 93.673 81.4129 94.725 80.8609 95.669C80.3009 96.613 79.5169 97.377 78.5089 97.961L78.1489 97.373C79.9169 96.229 80.8009 94.605 80.8009 92.501V92.237C80.8009 90.117 79.9169 88.489 78.1489 87.353L78.5089 86.789C79.5169 87.357 80.3009 88.117 80.8609 89.069C81.4129 90.021 81.6889 91.073 81.6889 92.225Z" fill="white"/>
<defs>
<clipPath id="clip0_186_7121">
<rect width="28.9942" height="52.0657" fill="white" transform="matrix(-1 0 0 1 29.9706 0)"/>
</clipPath>
</defs>
</svg>
