<svg width="89" height="98" viewBox="0 0 89 98" fill="none" xmlns="http://www.w3.org/2000/svg">
<rect x="21.5027" y="24.1279" width="45.9342" height="45.9342" rx="22.9671" fill="white"/>
<rect x="21.5027" y="24.1279" width="45.9342" height="45.9342" rx="22.9671" stroke="#CDCCCC"/>
<path d="M57.8754 47.249C57.8754 46.2465 57.7854 45.2825 57.6184 44.3571H44.3025V49.8325H51.9116C51.5774 51.5934 50.5748 53.0843 49.071 54.0869V57.6472H53.6596C56.333 55.1794 57.8754 51.5548 57.8754 47.249Z" fill="#4285F4"/>
<path d="M44.3025 61.0661C48.1198 61.0661 51.3203 59.8065 53.6595 57.6472L49.071 54.0869C47.8114 54.9352 46.2047 55.4493 44.3025 55.4493C40.6265 55.4493 37.5031 52.9686 36.3849 49.6268H31.6807V53.2771C34.0071 57.8914 38.7756 61.0661 44.3025 61.0661Z" fill="#34A853"/>
<path d="M36.385 49.614C36.1022 48.7657 35.9351 47.8659 35.9351 46.9277C35.9351 45.9894 36.1022 45.0897 36.385 44.2414V40.5911H31.6807C30.7167 42.4933 30.1641 44.6398 30.1641 46.9277C30.1641 49.2155 30.7167 51.362 31.6807 53.2643L35.3439 50.4109L36.385 49.614Z" fill="#FBBC05"/>
<path d="M44.3025 38.4189C46.3847 38.4189 48.2355 39.1387 49.7136 40.5268L53.7624 36.4781C51.3074 34.1902 48.1198 32.7892 44.3025 32.7892C38.7756 32.7892 34.0071 35.964 31.6807 40.5911L36.3849 44.2414C37.5031 40.8996 40.6265 38.4189 44.3025 38.4189Z" fill="#EA4335"/>
<path d="M22.9946 55.2288L23.606 54.4472C26.9583 50.1445 31.129 44.7916 29.4179 37.6186L27.7876 30.7841L26.5815 31.0718C22.2268 32.1106 18.4894 30.9927 17.888 28.4716L15.4759 29.047C16.0773 31.5681 13.2469 34.2527 8.89223 35.2914L7.68612 35.5792L9.31645 42.4136C11.0275 49.5866 17.1655 52.4805 22.0973 54.8059L22.9946 55.2288Z" fill="#D84025"/>
<path d="M8.89215 35.2915C13.2469 34.2527 16.0772 31.5682 15.4758 29.047L16.6819 28.7593L22.9957 55.2274L22.9945 55.2289L22.0972 54.8059C17.1654 52.4806 11.0275 49.5868 9.31637 42.4137L7.68605 35.5792L8.89215 35.2915Z" fill="#A13023"/>
<path fill-rule="evenodd" clip-rule="evenodd" d="M54.4432 22.5884C54.7525 23.844 55.0604 25.0986 55.3669 26.3521C52.5427 27.9684 48.9768 28.8709 44.4973 28.8724V23.689L54.4432 22.5884Z" fill="#535353"/>
<path fill-rule="evenodd" clip-rule="evenodd" d="M34.5595 22.5884C34.2462 23.844 33.9356 25.0986 33.6277 26.3521C36.458 27.9684 40.0158 28.8709 44.4973 28.8724V23.689L34.5595 22.5884Z" fill="#676767"/>
<path fill-rule="evenodd" clip-rule="evenodd" d="M42.274 9.0759C35.8214 3.36948 48.0226 3.91021 51.4611 1.01904C51.7038 1.26047 51.8477 1.55073 51.8749 1.85375C51.9021 2.15677 51.8114 2.45917 51.6141 2.72338C53.1405 3.67161 55.824 2.37786 57.279 4.1953C55.6302 4.12403 54.6261 4.61829 54.0139 5.27988C58.5361 4.75618 56.7668 7.94329 60.6318 8.12302C57.7524 9.34239 50.9897 7.00126 46.8084 9.8506C44.9208 9.79792 44.1616 9.13323 42.274 9.0759Z" fill="#A23023"/>
<path fill-rule="evenodd" clip-rule="evenodd" d="M60.6299 8.0703C57.7798 9.32968 51.0665 6.93003 46.9158 9.85058C46.1434 9.81775 45.3835 9.6841 44.6672 9.45514C50.0962 4.6606 54.9134 8.91676 60.632 8.0703H60.6299Z" fill="#1A1A1A"/>
<path fill-rule="evenodd" clip-rule="evenodd" d="M42.651 8.59114C43.3961 8.64919 44.127 8.78313 44.8231 8.9892L44.8723 9.0014C44.6291 8.72992 44.3901 8.45845 44.1551 8.18697C42.0198 6.3705 46.5137 4.22155 49.2392 3.78078C50.2208 4.41524 51.7331 4.11479 52.5077 4.56013C51.8396 5.10004 51.4257 6.03344 50.7556 6.57335C58.4074 5.79857 54.9217 7.64096 58.5939 7.99785C58.3467 7.87286 58.1222 7.72472 57.9258 7.55708C56.6963 6.51234 56.8787 5.37152 54.1983 5.67655L52.7065 5.84585C52.9701 5.57335 53.2358 5.30136 53.5036 5.02988C54.1079 4.39931 55.0174 3.9679 56.0405 3.82653C55.8007 3.72209 55.5365 3.65224 55.2618 3.62064C55 3.59114 54.7357 3.57534 54.4708 3.57336C53.2782 3.552 52.1409 3.62216 51.1921 3.05175L50.8396 2.8367C50.9093 2.74214 50.981 2.64911 51.0446 2.55607C51.2032 2.34726 51.2698 2.1067 51.2351 1.86823C50.0056 2.56217 48.3048 3.02887 46.8478 3.41626C45.6941 3.7213 44.483 4.02633 43.3887 4.40609C42.6161 4.67757 41.7493 5.05429 41.3395 5.56979C40.5956 6.53064 41.7452 7.77975 42.651 8.59114Z" fill="#EF4123"/>
<path fill-rule="evenodd" clip-rule="evenodd" d="M43.7258 8.71744C44.1135 8.79334 44.4959 8.88402 44.8714 8.98912L44.9204 9.0014C44.6781 8.72818 44.4398 8.45496 44.2057 8.18175C42.0779 6.35365 46.5561 4.19094 49.272 3.74734C50.2501 4.38587 51.7571 4.08349 52.529 4.53169C51.8633 5.07505 51.4508 6.01443 50.7831 6.55779C58.4081 5.77805 54.9346 7.63224 58.5939 7.99142C56.6887 7.61843 56.7234 6.27076 55.6411 5.94689C54.5588 5.62302 53.1294 6.369 52.0389 6.04513C52.1533 5.42041 52.6699 4.91235 53.4214 4.13721C52.3779 3.66292 49.7457 4.08656 50.293 2.71741C47.9508 4.65909 40.4055 3.85479 43.2684 8.55013L43.7258 8.71744Z" fill="#D03927"/>
<path d="M44.4123 12.7378C46.3352 12.7378 47.894 11.7113 47.894 10.445C47.894 9.17875 46.3352 8.15222 44.4123 8.15222C42.4895 8.15222 40.9307 9.17875 40.9307 10.445C40.9307 11.7113 42.4895 12.7378 44.4123 12.7378Z" fill="#CDCCCC"/>
<path fill-rule="evenodd" clip-rule="evenodd" d="M44.4279 10.53C48.7929 10.53 52.5226 12.2606 54.0145 14.7018C54.8158 14.9591 55.3671 15.489 55.3671 16.0954C55.363 16.2971 55.3022 16.4958 55.1885 16.6787C55.0748 16.8615 54.9108 17.0244 54.7072 17.1568C54.6334 20.7267 50.0594 23.6075 44.4279 23.6075C38.7964 23.6075 34.2388 20.7328 34.1527 17.1721C33.94 17.0393 33.7679 16.8739 33.648 16.6871C33.5282 16.5003 33.4634 16.2964 33.458 16.0893C33.458 15.4767 34.0277 14.9361 34.8474 14.6834C36.3455 12.2483 40.069 10.53 44.4279 10.53Z" fill="#8B8A8A"/>
<path fill-rule="evenodd" clip-rule="evenodd" d="M42.799 20.2107C46.6371 20.2107 49.7624 18.2312 49.7624 15.7949C49.7624 13.3586 46.6309 11.3792 42.799 11.3792C38.9671 11.3792 35.8357 13.3586 35.8357 15.7949C35.8357 18.2312 38.959 20.2107 42.799 20.2107Z" fill="#989898"/>
<path fill-rule="evenodd" clip-rule="evenodd" d="M40.6759 15.2854C42.1268 15.2854 43.3084 14.5219 43.3084 13.587C43.3084 12.6522 42.1268 11.8887 40.6759 11.8887C39.2251 11.8887 38.0435 12.6506 38.0435 13.587C38.0435 14.5235 39.2374 15.2854 40.6759 15.2854Z" fill="#ACACAC"/>
<path fill-rule="evenodd" clip-rule="evenodd" d="M44.4974 14.2665H44.3977C43.0092 14.2611 41.6311 14.4487 40.3308 14.82L32.7786 16.9646V23.3547C36.0829 26.2792 39.9363 28.5695 44.4974 30.0613V14.2665Z" fill="#CDCCCC"/>
<path fill-rule="evenodd" clip-rule="evenodd" d="M42.7991 15.2854C42.1973 15.3616 41.6069 15.484 41.0364 15.651L39.5886 16.0678V26.7622C40.6103 27.3513 41.6823 27.8861 42.7971 28.3629V15.2854H42.7991ZM38.9088 16.2638L36.6568 16.9125V24.8458C37.3687 25.37 38.1187 25.8771 38.9088 26.3593V16.2638ZM35.979 17.1069L34.4771 17.5394V23.0865C34.9583 23.5096 35.459 23.9244 35.979 24.3309V17.1069Z" fill="#333333"/>
<path fill-rule="evenodd" clip-rule="evenodd" d="M44.4973 14.2664H44.597C45.982 14.262 47.3566 14.4496 48.6537 14.82L56.2161 16.963V23.3532C52.9097 26.2792 49.0563 28.5695 44.4973 30.0613V14.2664Z" fill="#B4B4B4"/>
<path fill-rule="evenodd" clip-rule="evenodd" d="M46.1958 15.2854C46.8099 15.3618 47.4126 15.4842 47.9949 15.651L49.4726 16.0678V26.7622C48.4294 27.351 47.3354 27.8857 46.1978 28.3629V15.2854H46.1958ZM50.1665 16.2638L52.4629 16.9125V24.8458C51.7383 25.37 50.9729 25.8771 50.1665 26.3593V16.2638ZM53.1567 17.1069L54.6877 17.5394V23.0865C54.1978 23.5096 53.6875 23.9244 53.1567 24.3309V17.1069Z" fill="#1A1A1A"/>
<path fill-rule="evenodd" clip-rule="evenodd" d="M43.534 8.66174C44.1859 8.66174 44.4984 8.96662 44.2331 9.34109C44.0652 9.54109 43.8242 9.70857 43.5333 9.82751C43.2424 9.94646 42.9113 10.0129 42.5716 10.0204C41.9218 10.0204 41.6092 9.71696 41.8745 9.34109C42.0426 9.14147 42.2833 8.97426 42.5738 8.85535C42.8642 8.73645 43.1948 8.6698 43.534 8.66174Z" fill="#E3E3E3"/>
<g clip-path="url(#clip0_186_6691)">
<path fill-rule="evenodd" clip-rule="evenodd" d="M60.009 47.2835L60.145 47.3539C60.2992 47.4366 60.4708 47.4817 60.6458 47.4855C60.8207 47.4893 60.9941 47.4517 61.1517 47.3757C61.3115 47.3045 61.4523 47.1966 61.5625 47.0608C61.6728 46.925 61.7495 46.7651 61.7864 46.5942C62.0991 45.2279 62.7244 43.5585 63.6139 41.8343C64.5034 40.1101 65.5023 38.6345 66.4277 37.5887C66.5437 37.4584 66.6283 37.3033 66.6751 37.1353C66.722 36.9673 66.7298 36.7908 66.6979 36.6193C66.6661 36.4478 66.5955 36.2859 66.4915 36.1459C66.3875 36.0058 66.2529 35.8914 66.0979 35.8114L65.9603 35.7411L66.5262 34.6469L69.1837 36.0162L71.8413 37.384L71.2754 38.4782L71.1394 38.4078C70.9837 38.3264 70.8113 38.2819 70.6357 38.2777C70.46 38.2736 70.2858 38.31 70.1264 38.3841C69.9671 38.4581 69.827 38.5679 69.7169 38.7049C69.6068 38.8418 69.5298 39.0023 69.4917 39.1738C69.179 40.5384 68.5537 42.2095 67.6643 43.9321C66.7748 45.6547 65.7758 47.1319 64.8504 48.1776C64.7344 48.3081 64.6498 48.4633 64.603 48.6314C64.5561 48.7996 64.5483 48.9762 64.5802 49.1478C64.612 49.3194 64.6826 49.4814 64.7866 49.6216C64.8906 49.7618 65.0252 49.8763 65.1802 49.9565L65.3178 50.0269L64.7519 51.1211L62.0944 49.7533L59.4431 48.3793L60.009 47.2835Z" fill="#CA3927"/>
<path fill-rule="evenodd" clip-rule="evenodd" d="M66.7737 38.234C67.212 38.4627 66.6033 40.5413 65.4123 42.8737C64.2212 45.2061 62.9 46.9135 62.4694 46.6848C62.0388 46.4561 62.6398 44.3775 63.8309 42.0451C65.022 39.7127 66.3354 38.0053 66.7737 38.234Z" fill="#F04B23"/>
<path fill-rule="evenodd" clip-rule="evenodd" d="M86.1075 3.39673L84.6832 11.4454L71.3962 37.1944L67.0857 34.9697L80.3726 9.22067L86.1075 3.39673Z" fill="#D1D2D2"/>
<path fill-rule="evenodd" clip-rule="evenodd" d="M81.808 7.74434L84.0703 6.27113L83.2748 11.0728L71.3318 37.1944L84.6771 11.4454L86.1077 3.39673L81.808 7.74434Z" fill="#E6E6E5"/>
<path fill-rule="evenodd" clip-rule="evenodd" d="M82.3713 10.6998L76.0934 23.5217L69.8139 36.3452L69.1284 35.9965L68.4446 35.6477L75.4079 23.1745L82.3713 10.6998Z" fill="#818181"/>
<path fill-rule="evenodd" clip-rule="evenodd" d="M65.7727 33.4234L73.3723 37.3669C73.7631 37.0841 74.2371 36.9418 74.7181 36.9631C75.1991 36.9844 75.659 37.168 76.0235 37.4842C76.3881 37.8005 76.6361 38.231 76.7275 38.7064C76.819 39.1817 76.7486 39.6742 76.5278 40.1044C76.3069 40.5346 75.9483 40.8775 75.51 41.0777C75.0716 41.2779 74.579 41.3238 74.1115 41.208C73.644 41.0922 73.2289 40.8214 72.9332 40.4394C72.6375 40.0573 72.4783 39.5862 72.4814 39.1021L64.8818 35.1585C64.4905 35.4422 64.0157 35.585 63.5338 35.5639C63.052 35.5429 62.5913 35.3592 62.226 35.0425C61.8607 34.7258 61.6121 34.2946 61.5204 33.8185C61.4286 33.3423 61.4991 32.8489 61.7204 32.418C61.9417 31.987 62.3009 31.6436 62.74 31.4431C63.1792 31.2426 63.6727 31.1968 64.1409 31.3129C64.6092 31.4291 65.0249 31.7005 65.3209 32.0834C65.617 32.4663 65.7761 32.9384 65.7727 33.4234Z" fill="#333333"/>
</g>
<path d="M33.5239 77.269L32.6479 77.581C32.5119 77.197 32.3119 76.853 32.0479 76.549C31.8479 76.341 31.6559 76.173 31.4719 76.045C30.9759 75.701 30.3639 75.529 29.6359 75.529C28.9639 75.529 28.3719 75.693 27.8599 76.021C27.3239 76.357 26.9159 76.797 26.6359 77.341C26.3479 77.885 26.2039 78.477 26.2039 79.117C26.2039 80.125 26.5079 80.977 27.1159 81.673C27.7479 82.385 28.5919 82.741 29.6479 82.741C30.4479 82.741 31.1439 82.513 31.7359 82.057C32.3519 81.585 32.6839 80.941 32.7319 80.125H29.0839V79.273H33.7159V79.609C33.7159 80.729 33.3559 81.669 32.6359 82.429C31.8839 83.205 30.8839 83.593 29.6359 83.593C28.3079 83.593 27.2439 83.169 26.4439 82.321C25.6519 81.481 25.2559 80.429 25.2559 79.165C25.2559 78.333 25.4479 77.573 25.8319 76.885C26.2159 76.197 26.7439 75.657 27.4159 75.265C28.0799 74.873 28.8279 74.677 29.6599 74.677C30.7159 74.677 31.5719 74.941 32.2279 75.469C32.8439 75.949 33.2759 76.549 33.5239 77.269ZM37.8421 83.617C37.2901 83.617 36.7741 83.481 36.2941 83.209C35.8221 82.929 35.4541 82.557 35.1901 82.093C34.9181 81.629 34.7821 81.113 34.7821 80.545C34.7821 79.657 35.0781 78.921 35.6701 78.337C36.2621 77.737 36.9941 77.437 37.8661 77.437C38.7141 77.421 39.4421 77.721 40.0501 78.337C40.6661 78.945 40.9661 79.669 40.9501 80.509C40.9661 81.373 40.6661 82.113 40.0501 82.729C39.4341 83.337 38.6981 83.633 37.8421 83.617ZM37.8661 82.837C38.4901 82.837 39.0141 82.613 39.4381 82.165C39.8461 81.717 40.0501 81.177 40.0501 80.545C40.0501 79.905 39.8421 79.353 39.4261 78.889C39.0021 78.433 38.4741 78.205 37.8421 78.205C37.2101 78.205 36.6901 78.429 36.2821 78.877C35.8741 79.325 35.6701 79.869 35.6701 80.509C35.6541 81.141 35.8581 81.689 36.2821 82.153C36.7141 82.617 37.2421 82.845 37.8661 82.837ZM45.1077 83.617C44.5557 83.617 44.0397 83.481 43.5597 83.209C43.0877 82.929 42.7197 82.557 42.4557 82.093C42.1837 81.629 42.0477 81.113 42.0477 80.545C42.0477 79.657 42.3437 78.921 42.9357 78.337C43.5277 77.737 44.2597 77.437 45.1317 77.437C45.9797 77.421 46.7077 77.721 47.3157 78.337C47.9317 78.945 48.2317 79.669 48.2157 80.509C48.2317 81.373 47.9317 82.113 47.3157 82.729C46.6997 83.337 45.9637 83.633 45.1077 83.617ZM45.1317 82.837C45.7557 82.837 46.2797 82.613 46.7037 82.165C47.1117 81.717 47.3157 81.177 47.3157 80.545C47.3157 79.905 47.1077 79.353 46.6917 78.889C46.2677 78.433 45.7397 78.205 45.1077 78.205C44.4757 78.205 43.9557 78.429 43.5477 78.877C43.1397 79.325 42.9357 79.869 42.9357 80.509C42.9197 81.141 43.1237 81.689 43.5477 82.153C43.9797 82.617 44.5077 82.845 45.1317 82.837ZM54.4254 83.425V82.177C53.8894 83.081 53.1214 83.533 52.1214 83.533C51.5774 83.533 51.0854 83.393 50.6454 83.113C50.2214 82.841 49.8934 82.473 49.6614 82.009C49.4374 81.553 49.3254 81.049 49.3254 80.497C49.3254 79.961 49.4374 79.465 49.6614 79.009C49.8934 78.545 50.2254 78.169 50.6574 77.881C51.0814 77.585 51.5694 77.437 52.1214 77.437C52.6654 77.437 53.1414 77.577 53.5494 77.857C53.8694 78.081 54.1654 78.393 54.4374 78.793V77.545H55.3014V83.365C55.3014 84.381 55.0214 85.157 54.4614 85.693C53.8854 86.229 53.1294 86.497 52.1934 86.497C51.4574 86.497 50.8254 86.301 50.2974 85.909C49.7694 85.501 49.4534 85.013 49.3494 84.445L50.1414 84.181C50.2374 84.573 50.4494 84.929 50.7774 85.249C51.1134 85.569 51.5814 85.729 52.1814 85.729C52.8214 85.729 53.3454 85.553 53.7534 85.201C54.2014 84.833 54.4254 84.241 54.4254 83.425ZM52.3014 82.765C52.9174 82.765 53.4254 82.541 53.8254 82.093C54.2334 81.645 54.4374 81.109 54.4374 80.485C54.4534 79.893 54.2494 79.365 53.8254 78.901C53.4014 78.437 52.8934 78.209 52.3014 78.217C51.6534 78.217 51.1454 78.433 50.7774 78.865C50.4014 79.289 50.2134 79.837 50.2134 80.509C50.1974 81.141 50.3854 81.677 50.7774 82.117C51.1694 82.557 51.6774 82.773 52.3014 82.765ZM57.2688 83.509V74.401H58.1448V83.509H57.2688ZM65.3845 80.797H60.5605C60.5925 81.381 60.8125 81.865 61.2205 82.249C61.6205 82.641 62.1125 82.837 62.6965 82.837C63.1525 82.837 63.5405 82.729 63.8605 82.513C64.1805 82.289 64.4085 81.973 64.5445 81.565L65.3125 81.805C65.1445 82.365 64.8205 82.809 64.3405 83.137C63.8445 83.457 63.3005 83.617 62.7085 83.617C62.1485 83.617 61.6325 83.477 61.1605 83.197C60.6885 82.917 60.3285 82.541 60.0805 82.069C59.8165 81.605 59.6845 81.089 59.6845 80.521C59.6845 79.977 59.8085 79.473 60.0565 79.009C60.2885 78.537 60.6365 78.157 61.1005 77.869C61.5485 77.581 62.0445 77.437 62.5885 77.437C63.1885 77.437 63.7005 77.573 64.1245 77.845C64.5565 78.109 64.8765 78.473 65.0845 78.937C65.2925 79.377 65.3965 79.901 65.3965 80.509C65.3965 80.613 65.3925 80.709 65.3845 80.797ZM60.5725 80.053H64.5205C64.4645 79.509 64.2645 79.061 63.9205 78.709C63.5845 78.373 63.1405 78.205 62.5885 78.205C62.0845 78.205 61.6405 78.385 61.2565 78.745C60.8725 79.121 60.6445 79.557 60.5725 80.053ZM19.2969 92.513V92.225C19.2969 91.073 19.5769 90.025 20.1369 89.081C20.6889 88.129 21.4689 87.365 22.4769 86.789L22.8369 87.353C21.0689 88.489 20.1849 90.117 20.1849 92.237V92.501C20.1849 94.605 21.0689 96.229 22.8369 97.373L22.4769 97.961C21.4689 97.377 20.6889 96.609 20.1369 95.657C19.5769 94.713 19.2969 93.665 19.2969 92.513ZM30.6469 90.269L29.7709 90.581C29.6349 90.197 29.4349 89.853 29.1709 89.549C28.9709 89.341 28.7789 89.173 28.5949 89.045C28.0989 88.701 27.4869 88.529 26.7589 88.529C26.0869 88.529 25.4949 88.693 24.9829 89.021C24.4469 89.357 24.0389 89.797 23.7589 90.341C23.4709 90.885 23.3269 91.477 23.3269 92.117C23.3269 93.125 23.6309 93.977 24.2389 94.673C24.8709 95.385 25.7149 95.741 26.7709 95.741C27.5709 95.741 28.2669 95.513 28.8589 95.057C29.4749 94.585 29.8069 93.941 29.8549 93.125H26.2069V92.273H30.8389V92.609C30.8389 93.729 30.4789 94.669 29.7589 95.429C29.0069 96.205 28.0069 96.593 26.7589 96.593C25.4309 96.593 24.3669 96.169 23.5669 95.321C22.7749 94.481 22.3789 93.429 22.3789 92.165C22.3789 91.333 22.5709 90.573 22.9549 89.885C23.3389 89.197 23.8669 88.657 24.5389 88.265C25.2029 87.873 25.9509 87.677 26.7829 87.677C27.8389 87.677 28.6949 87.941 29.3509 88.469C29.9669 88.949 30.3989 89.549 30.6469 90.269ZM40.7492 92.117C40.7492 92.941 40.5612 93.697 40.1852 94.385C39.8012 95.065 39.2732 95.605 38.6012 96.005C37.9132 96.405 37.1572 96.605 36.3332 96.605C35.7332 96.605 35.1532 96.489 34.5932 96.257C34.0412 96.025 33.5772 95.709 33.2012 95.309C32.8252 94.933 32.5212 94.465 32.2892 93.905C32.0652 93.329 31.9532 92.749 31.9532 92.165C31.9532 91.333 32.1452 90.577 32.5292 89.897C32.9052 89.201 33.4332 88.657 34.1132 88.265C34.7772 87.873 35.5292 87.677 36.3692 87.677C36.9852 87.677 37.5652 87.789 38.1092 88.013C38.6532 88.253 39.1172 88.565 39.5012 88.949C39.9012 89.373 40.2052 89.845 40.4132 90.365C40.6372 90.909 40.7492 91.493 40.7492 92.117ZM39.8012 92.165C39.8012 91.165 39.4812 90.313 38.8412 89.609C38.1852 88.889 37.3492 88.529 36.3332 88.529C35.7012 88.529 35.1132 88.689 34.5692 89.009C34.0412 89.345 33.6332 89.781 33.3452 90.317C33.0572 90.869 32.9132 91.469 32.9132 92.117C32.9132 93.125 33.2332 93.973 33.8732 94.661C34.5292 95.381 35.3612 95.741 36.3692 95.741C37.0092 95.741 37.5972 95.577 38.1332 95.249C38.6612 94.945 39.0732 94.513 39.3692 93.953C39.6572 93.409 39.8012 92.813 39.8012 92.165ZM50.7453 92.117C50.7453 92.941 50.5573 93.697 50.1813 94.385C49.7973 95.065 49.2693 95.605 48.5973 96.005C47.9093 96.405 47.1533 96.605 46.3293 96.605C45.7293 96.605 45.1493 96.489 44.5893 96.257C44.0373 96.025 43.5733 95.709 43.1973 95.309C42.8213 94.933 42.5173 94.465 42.2853 93.905C42.0613 93.329 41.9493 92.749 41.9493 92.165C41.9493 91.333 42.1413 90.577 42.5253 89.897C42.9013 89.201 43.4293 88.657 44.1093 88.265C44.7733 87.873 45.5253 87.677 46.3653 87.677C46.9813 87.677 47.5613 87.789 48.1053 88.013C48.6493 88.253 49.1133 88.565 49.4973 88.949C49.8973 89.373 50.2013 89.845 50.4093 90.365C50.6333 90.909 50.7453 91.493 50.7453 92.117ZM49.7973 92.165C49.7973 91.165 49.4773 90.313 48.8373 89.609C48.1813 88.889 47.3453 88.529 46.3293 88.529C45.6973 88.529 45.1093 88.689 44.5653 89.009C44.0373 89.345 43.6293 89.781 43.3413 90.317C43.0533 90.869 42.9093 91.469 42.9093 92.117C42.9093 93.125 43.2293 93.973 43.8693 94.661C44.5253 95.381 45.3573 95.741 46.3653 95.741C47.0053 95.741 47.5933 95.577 48.1293 95.249C48.6573 94.945 49.0693 94.513 49.3653 93.953C49.6533 93.409 49.7973 92.813 49.7973 92.165ZM60.2133 90.269L59.3373 90.581C59.2013 90.197 59.0013 89.853 58.7373 89.549C58.5373 89.341 58.3453 89.173 58.1613 89.045C57.6653 88.701 57.0533 88.529 56.3253 88.529C55.6533 88.529 55.0613 88.693 54.5493 89.021C54.0133 89.357 53.6053 89.797 53.3253 90.341C53.0373 90.885 52.8933 91.477 52.8933 92.117C52.8933 93.125 53.1973 93.977 53.8053 94.673C54.4373 95.385 55.2813 95.741 56.3373 95.741C57.1373 95.741 57.8333 95.513 58.4253 95.057C59.0413 94.585 59.3733 93.941 59.4213 93.125H55.7733V92.273H60.4053V92.609C60.4053 93.729 60.0453 94.669 59.3253 95.429C58.5733 96.205 57.5733 96.593 56.3253 96.593C54.9973 96.593 53.9333 96.169 53.1333 95.321C52.3413 94.481 51.9453 93.429 51.9453 92.165C51.9453 91.333 52.1373 90.573 52.5213 89.885C52.9053 89.197 53.4333 88.657 54.1053 88.265C54.7693 87.873 55.5173 87.677 56.3493 87.677C57.4053 87.677 58.2613 87.941 58.9173 88.469C59.5333 88.949 59.9653 89.549 60.2133 90.269ZM62.1316 96.509V87.761H63.0556V95.645H67.2076V96.509H62.1316ZM71.2752 92.225V92.513C71.2752 93.673 70.9992 94.725 70.4472 95.669C69.8872 96.613 69.1032 97.377 68.0952 97.961L67.7352 97.373C69.5032 96.229 70.3872 94.605 70.3872 92.501V92.237C70.3872 90.117 69.5032 88.489 67.7352 87.353L68.0952 86.789C69.1032 87.357 69.8872 88.117 70.4472 89.069C70.9992 90.021 71.2752 91.073 71.2752 92.225Z" fill="white"/>
<defs>
<clipPath id="clip0_186_6691">
<rect width="28.8843" height="51.8684" fill="white" transform="translate(59.613)"/>
</clipPath>
</defs>
</svg>
