<svg width="89" height="98" viewBox="0 0 89 98" fill="none" xmlns="http://www.w3.org/2000/svg">
<rect x="21.5026" y="24.1279" width="45.9342" height="45.9342" rx="22.9671" fill="#ED1C24"/>
<rect x="21.5026" y="24.1279" width="45.9342" height="45.9342" rx="22.9671" stroke="#CDCCCC"/>
<path d="M60.0718 47.9545V45.5555H59.269V44.7714H60.0718V43.371H60.9306V44.7714H62.0507V45.5555H60.9306V47.8891C60.9306 48.4026 61.1454 48.636 61.5467 48.636C61.7053 48.636 61.8174 48.6173 61.9388 48.5612L62.2374 49.2987C62.0414 49.3827 61.836 49.4202 61.5467 49.4202C60.5852 49.4202 60.0718 48.888 60.0718 47.9545ZM54.5362 47.0583C54.5362 45.7607 55.4325 44.622 56.7768 44.622C58.1396 44.622 59.0172 45.5834 59.0172 47.0583C59.0172 47.1237 59.0078 47.2171 59.0078 47.2171H55.3952C55.4419 48.1879 56.1419 48.7106 56.8514 48.7106C57.3554 48.7106 57.8595 48.5053 58.1023 47.9265L58.8678 48.2438C58.5971 48.8973 57.9248 49.4948 56.8701 49.4948C55.4699 49.4948 54.5362 48.4399 54.5362 47.0583ZM56.758 45.4061C56.1233 45.4061 55.6192 45.8355 55.4511 46.5076H58.1023C58.0743 46.1062 57.7382 45.4061 56.758 45.4061ZM50.3266 48.7106H50.2893V49.3453H49.4679V42.6615H50.3266V44.7713L50.2893 45.4061H50.3266C50.588 44.986 51.1576 44.6219 51.8856 44.6219C53.0431 44.6219 54.0606 45.658 54.0606 47.0583C54.0606 48.4586 53.0431 49.4948 51.8856 49.4948C51.1576 49.4948 50.588 49.1306 50.3266 48.7106ZM53.2018 47.0583C53.2018 46.0314 52.5111 45.4061 51.7456 45.4061C50.9801 45.4061 50.2893 46.0128 50.2893 47.0583C50.2893 48.1038 50.9801 48.7106 51.7456 48.7106C52.5111 48.7106 53.2018 48.0852 53.2018 47.0583ZM44.5207 47.9637C44.5207 46.9276 45.4542 46.3675 46.5278 46.3675C47.1439 46.3675 47.5919 46.5448 47.7693 46.6476V46.517C47.7693 45.8261 47.2185 45.4061 46.5743 45.4061C46.0984 45.4061 45.6409 45.6394 45.4823 46.0688L44.6982 45.7328C44.8568 45.3127 45.4075 44.6219 46.5557 44.6219C47.676 44.6219 48.5907 45.2941 48.5907 46.5823V49.3454H47.7693V48.7107H47.7319C47.4799 49.0933 47.0132 49.4948 46.229 49.4948C45.2955 49.4948 44.5207 48.916 44.5207 47.9637ZM47.7693 47.3757C47.7693 47.3757 47.4053 47.0769 46.677 47.0769C45.7715 47.0769 45.4169 47.5625 45.4169 47.9824C45.4169 48.468 45.9209 48.7107 46.369 48.7107C47.0505 48.7107 47.7693 48.1224 47.7693 47.3757ZM40.6283 44.7712L40.591 45.4059H40.6283C40.8711 44.9859 41.4498 44.6219 42.0753 44.6219C43.2421 44.6219 43.8209 45.4153 43.8209 46.5449V49.3454H42.9621V46.6756C42.9621 45.7234 42.486 45.4059 41.8326 45.4059C41.0857 45.4059 40.6283 46.1155 40.6283 46.8156V49.3454H39.7695V42.6616H40.6283V44.7712ZM35.3918 48.7106H35.3545L35.3918 49.3453V51.3618H34.533V44.7712H35.3545V45.4061H35.3918C35.6532 44.986 36.2227 44.6219 36.9508 44.6219C38.1083 44.6219 39.1258 45.658 39.1258 47.0583C39.1258 48.4586 38.1083 49.4948 36.9508 49.4948C36.2227 49.4948 35.6532 49.1306 35.3918 48.7106ZM38.267 47.0583C38.267 46.0314 37.5762 45.4061 36.8108 45.4061C36.0452 45.4061 35.3545 46.0128 35.3545 47.0583C35.3545 48.1038 36.0452 48.7106 36.8108 48.7106C37.5762 48.7106 38.267 48.0852 38.267 47.0583ZM32.7595 49.3454H33.6184V42.6616H32.7595V49.3454ZM28.7738 42.6615L26.2532 49.3454H27.2055L27.8588 47.5344H30.6688L31.3129 49.3454H32.265L29.7446 42.6615H28.7738ZM29.2404 43.7164H29.2778L30.37 46.7315H28.1483L29.2404 43.7164Z" fill="white"/>
<path d="M22.9947 55.2289L23.606 54.4472C26.9584 50.1446 31.1291 44.7916 29.418 37.6186L27.7877 30.7841L26.5815 31.0719C22.2268 32.1106 18.4895 30.9928 17.8881 28.4717L15.4759 29.0471C16.0773 31.5682 13.247 34.2527 8.8923 35.2915L7.68619 35.5792L9.31652 42.4137C11.0276 49.5867 17.1656 52.4806 22.0974 54.8059L22.9947 55.2289Z" fill="#D84025"/>
<path d="M8.89225 35.2914C13.247 34.2527 16.0773 31.5681 15.4759 29.047L16.682 28.7593L22.9958 55.2274L22.9946 55.2288L22.0973 54.8058C17.1655 52.4805 11.0276 49.5867 9.31647 42.4136L7.68614 35.5791L8.89225 35.2914Z" fill="#A13023"/>
<path fill-rule="evenodd" clip-rule="evenodd" d="M54.4434 22.5884C54.7526 23.8439 55.0605 25.0985 55.3671 26.352C52.5429 27.9683 48.9769 28.8708 44.4975 28.8724V23.6889L54.4434 22.5884Z" fill="#535353"/>
<path fill-rule="evenodd" clip-rule="evenodd" d="M34.5597 22.5884C34.2464 23.8439 33.9357 25.0985 33.6279 26.352C36.4582 27.9683 40.016 28.8708 44.4975 28.8724V23.6889L34.5597 22.5884Z" fill="#676767"/>
<path fill-rule="evenodd" clip-rule="evenodd" d="M42.2742 9.0759C35.8217 3.36948 48.0228 3.91021 51.4613 1.01904C51.704 1.26047 51.8479 1.55073 51.8751 1.85375C51.9023 2.15677 51.8117 2.45917 51.6143 2.72338C53.1408 3.67161 55.8242 2.37786 57.2792 4.1953C55.6304 4.12403 54.6264 4.61829 54.0142 5.27988C58.5363 4.75618 56.767 7.94329 60.632 8.12302C57.7527 9.34239 50.9899 7.00126 46.8086 9.8506C44.921 9.79792 44.1618 9.13323 42.2742 9.0759Z" fill="#A23023"/>
<path fill-rule="evenodd" clip-rule="evenodd" d="M60.63 8.0703C57.7798 9.32968 51.0666 6.93003 46.9159 9.85058C46.1435 9.81775 45.3835 9.6841 44.6673 9.45514C50.0962 4.6606 54.9134 8.91676 60.632 8.0703H60.63Z" fill="#1A1A1A"/>
<path fill-rule="evenodd" clip-rule="evenodd" d="M42.6511 8.5912C43.3962 8.64925 44.1271 8.78319 44.8233 8.98926L44.8724 9.00146C44.6293 8.72999 44.3902 8.45851 44.1552 8.18703C42.0199 6.37056 46.5139 4.22161 49.2393 3.78084C50.2209 4.41531 51.7332 4.11485 52.5078 4.5602C51.8398 5.1001 51.4258 6.0335 50.7557 6.57341C58.4075 5.79863 54.9218 7.64102 58.594 7.99791C58.3468 7.87292 58.1223 7.72478 57.9259 7.55714C56.6964 6.5124 56.8788 5.37158 54.1984 5.67661L52.7066 5.84591C52.9703 5.57341 53.236 5.30142 53.5037 5.02995C54.108 4.39937 55.0175 3.96796 56.0407 3.82659C55.8008 3.72215 55.5366 3.6523 55.262 3.6207C55.0001 3.5912 54.7358 3.5754 54.471 3.57342C53.2783 3.55206 52.141 3.62222 51.1922 3.05181L50.8398 2.83676C50.9094 2.7422 50.9811 2.64917 51.0447 2.55613C51.2033 2.34732 51.2699 2.10676 51.2353 1.86829C50.0057 2.56223 48.3049 3.02893 46.8479 3.41632C45.6942 3.72136 44.4831 4.02639 43.3888 4.40615C42.6163 4.67763 41.7494 5.05435 41.3396 5.56985C40.5957 6.5307 41.7453 7.77981 42.6511 8.5912Z" fill="#EF4123"/>
<path fill-rule="evenodd" clip-rule="evenodd" d="M43.7259 8.71744C44.1136 8.79334 44.496 8.88402 44.8715 8.98912L44.9205 9.0014C44.6782 8.72818 44.4399 8.45496 44.2058 8.18175C42.078 6.35365 46.5562 4.19094 49.2721 3.74734C50.2502 4.38587 51.7572 4.08349 52.5291 4.53169C51.8634 5.07505 51.4509 6.01443 50.7832 6.55779C58.4081 5.77805 54.9346 7.63224 58.594 7.99142C56.6888 7.61843 56.7235 6.27076 55.6412 5.94689C54.5589 5.62302 53.1295 6.369 52.039 6.04513C52.1534 5.42041 52.67 4.91235 53.4215 4.13721C52.378 3.66292 49.7458 4.08656 50.2931 2.71741C47.9509 4.65909 40.4055 3.85479 43.2685 8.55013L43.7259 8.71744Z" fill="#D03927"/>
<path d="M44.4125 12.7378C46.3354 12.7378 47.8942 11.7113 47.8942 10.445C47.8942 9.17875 46.3354 8.15222 44.4125 8.15222C42.4897 8.15222 40.9309 9.17875 40.9309 10.445C40.9309 11.7113 42.4897 12.7378 44.4125 12.7378Z" fill="#CDCCCC"/>
<path fill-rule="evenodd" clip-rule="evenodd" d="M44.4279 10.5299C48.7929 10.5299 52.5226 12.2605 54.0145 14.7017C54.8158 14.959 55.3671 15.4889 55.3671 16.0954C55.363 16.297 55.3022 16.4957 55.1885 16.6786C55.0748 16.8615 54.9108 17.0244 54.7072 17.1567C54.6334 20.7266 50.0594 23.6074 44.4279 23.6074C38.7964 23.6074 34.2388 20.7328 34.1527 17.172C33.94 17.0392 33.7679 16.8738 33.648 16.687C33.5282 16.5002 33.4634 16.2964 33.458 16.0893C33.458 15.4767 34.0277 14.936 34.8474 14.6833C36.3455 12.2483 40.0691 10.5299 44.4279 10.5299Z" fill="#8B8A8A"/>
<path fill-rule="evenodd" clip-rule="evenodd" d="M42.7991 20.2107C46.6371 20.2107 49.7624 18.2312 49.7624 15.7949C49.7624 13.3586 46.631 11.3792 42.7991 11.3792C38.9672 11.3792 35.8357 13.3586 35.8357 15.7949C35.8357 18.2312 38.959 20.2107 42.7991 20.2107Z" fill="#989898"/>
<path fill-rule="evenodd" clip-rule="evenodd" d="M40.6761 15.2854C42.127 15.2854 43.3086 14.5219 43.3086 13.587C43.3086 12.6522 42.127 11.8887 40.6761 11.8887C39.2253 11.8887 38.0436 12.6506 38.0436 13.587C38.0436 14.5235 39.2376 15.2854 40.6761 15.2854Z" fill="#ACACAC"/>
<path fill-rule="evenodd" clip-rule="evenodd" d="M44.4975 14.2665H44.3978C43.0093 14.2611 41.6312 14.4487 40.3309 14.82L32.7787 16.9646V23.3547C36.083 26.2792 39.9364 28.5695 44.4975 30.0613V14.2665Z" fill="#CDCCCC"/>
<path fill-rule="evenodd" clip-rule="evenodd" d="M42.7991 15.2854C42.1973 15.3616 41.6069 15.484 41.0364 15.651L39.5886 16.0678V26.7622C40.6103 27.3513 41.6823 27.8861 42.7971 28.3629V15.2854H42.7991ZM38.9088 16.2638L36.6568 16.9125V24.8458C37.3687 25.37 38.1187 25.8771 38.9088 26.3593V16.2638ZM35.979 17.1069L34.477 17.5394V23.0865C34.9583 23.5096 35.459 23.9244 35.979 24.3309V17.1069Z" fill="#333333"/>
<path fill-rule="evenodd" clip-rule="evenodd" d="M44.4975 14.2664H44.5971C45.9821 14.262 47.3567 14.4496 48.6538 14.82L56.2162 16.963V23.3532C52.9099 26.2792 49.0565 28.5695 44.4975 30.0613V14.2664Z" fill="#B4B4B4"/>
<path fill-rule="evenodd" clip-rule="evenodd" d="M46.1958 15.2854C46.8099 15.3618 47.4126 15.4842 47.9949 15.651L49.4726 16.0678V26.7622C48.4295 27.351 47.3354 27.8857 46.1979 28.3629V15.2854H46.1958ZM50.1665 16.2638L52.4629 16.9125V24.8458C51.7384 25.37 50.9729 25.8771 50.1665 26.3593V16.2638ZM53.1568 17.1069L54.6877 17.5394V23.0865C54.1979 23.5096 53.6875 23.9244 53.1568 24.3309V17.1069Z" fill="#1A1A1A"/>
<path fill-rule="evenodd" clip-rule="evenodd" d="M43.534 8.66174C44.1859 8.66174 44.4984 8.96662 44.2332 9.34109C44.0652 9.54109 43.8242 9.70857 43.5333 9.82751C43.2424 9.94646 42.9113 10.0129 42.5716 10.0204C41.9218 10.0204 41.6093 9.71696 41.8745 9.34109C42.0426 9.14147 42.2834 8.97426 42.5738 8.85535C42.8643 8.73645 43.1948 8.6698 43.534 8.66174Z" fill="#E3E3E3"/>
<g clip-path="url(#clip0_186_5399)">
<path fill-rule="evenodd" clip-rule="evenodd" d="M60.009 47.2835L60.145 47.3539C60.2992 47.4366 60.4708 47.4817 60.6458 47.4855C60.8207 47.4893 60.9941 47.4517 61.1518 47.3757C61.3116 47.3045 61.4523 47.1966 61.5626 47.0608C61.6728 46.925 61.7495 46.7651 61.7865 46.5942C62.0991 45.2279 62.7244 43.5585 63.6139 41.8343C64.5034 40.1101 65.5023 38.6345 66.4278 37.5887C66.5437 37.4584 66.6283 37.3033 66.6752 37.1353C66.722 36.9673 66.7298 36.7908 66.698 36.6193C66.6661 36.4478 66.5955 36.2859 66.4915 36.1459C66.3875 36.0058 66.2529 35.8914 66.0979 35.8114L65.9603 35.7411L66.5262 34.6469L69.1838 36.0162L71.8413 37.384L71.2754 38.4782L71.1394 38.4078C70.9837 38.3264 70.8114 38.2819 70.6357 38.2777C70.46 38.2736 70.2858 38.31 70.1265 38.3841C69.9671 38.4581 69.827 38.5679 69.7169 38.7049C69.6068 38.8418 69.5298 39.0023 69.4917 39.1738C69.1791 40.5384 68.5538 42.2095 67.6643 43.9321C66.7748 45.6547 65.7759 47.1319 64.8504 48.1776C64.7345 48.3081 64.6498 48.4633 64.603 48.6314C64.5562 48.7996 64.5484 48.9762 64.5802 49.1478C64.612 49.3194 64.6826 49.4814 64.7866 49.6216C64.8906 49.7618 65.0253 49.8763 65.1803 49.9565L65.3178 50.0269L64.7519 51.1211L62.0944 49.7533L59.4431 48.3793L60.009 47.2835Z" fill="#CA3927"/>
<path fill-rule="evenodd" clip-rule="evenodd" d="M66.7738 38.2339C67.2121 38.4626 66.6034 40.5412 65.4123 42.8736C64.2213 45.206 62.9001 46.9134 62.4695 46.6847C62.0389 46.456 62.6399 44.3774 63.8309 42.045C65.022 39.7126 66.3355 38.0052 66.7738 38.2339Z" fill="#F04B23"/>
<path fill-rule="evenodd" clip-rule="evenodd" d="M86.1076 3.39673L84.6833 11.4454L71.3964 37.1944L67.0858 34.9697L80.3728 9.22067L86.1076 3.39673Z" fill="#D1D2D2"/>
<path fill-rule="evenodd" clip-rule="evenodd" d="M81.808 7.74434L84.0702 6.27113L83.2748 11.0728L71.3318 37.1944L84.6771 11.4454L86.1076 3.39673L81.808 7.74434Z" fill="#E6E6E5"/>
<path fill-rule="evenodd" clip-rule="evenodd" d="M82.3712 10.6997L76.0933 23.5217L69.8138 36.3452L69.1284 35.9964L68.4445 35.6476L75.4079 23.1745L82.3712 10.6997Z" fill="#818181"/>
<path fill-rule="evenodd" clip-rule="evenodd" d="M65.7727 33.4234L73.3723 37.3669C73.7631 37.0841 74.2371 36.9418 74.7181 36.9631C75.1991 36.9844 75.659 37.168 76.0235 37.4842C76.3881 37.8005 76.6361 38.231 76.7275 38.7064C76.819 39.1817 76.7486 39.6742 76.5278 40.1044C76.3069 40.5346 75.9483 40.8775 75.51 41.0777C75.0716 41.2779 74.579 41.3238 74.1115 41.208C73.644 41.0922 73.2289 40.8214 72.9332 40.4394C72.6375 40.0573 72.4783 39.5862 72.4814 39.1021L64.8818 35.1585C64.4905 35.4422 64.0157 35.585 63.5338 35.5639C63.052 35.5429 62.5913 35.3592 62.226 35.0425C61.8607 34.7258 61.6121 34.2946 61.5204 33.8185C61.4286 33.3423 61.4991 32.8489 61.7204 32.418C61.9417 31.987 62.3009 31.6436 62.74 31.4431C63.1792 31.2426 63.6727 31.1968 64.1409 31.3129C64.6092 31.4291 65.0249 31.7005 65.3209 32.0834C65.617 32.4663 65.7761 32.9384 65.7727 33.4234Z" fill="#333333"/>
</g>
<path d="M27.5717 83.509L26.6117 81.277H21.8477L20.8877 83.509H19.9517L23.7197 74.761H24.7637L28.5437 83.509H27.5717ZM26.2637 80.437L24.2237 75.709L22.1957 80.437H26.2637ZM29.5599 83.509V74.401H30.4359V83.509H29.5599ZM38.3835 80.521C38.3835 81.065 38.2675 81.569 38.0355 82.033C37.8035 82.497 37.4755 82.873 37.0515 83.161C36.6195 83.449 36.1275 83.593 35.5755 83.593C34.5995 83.593 33.8355 83.157 33.2835 82.285V86.449H32.4075V77.545H33.2595V78.841C33.8755 77.905 34.6475 77.437 35.5755 77.437C36.4235 77.437 37.1075 77.757 37.6275 78.397C38.1315 79.021 38.3835 79.729 38.3835 80.521ZM35.4075 82.837C36.0315 82.837 36.5395 82.617 36.9315 82.177C37.3075 81.729 37.4955 81.185 37.4955 80.545C37.4955 79.641 37.1715 78.973 36.5235 78.541C36.2115 78.325 35.8395 78.217 35.4075 78.217C34.8155 78.209 34.3075 78.437 33.8835 78.901C33.4595 79.365 33.2555 79.901 33.2715 80.509C33.2715 81.149 33.4715 81.693 33.8715 82.141C34.2795 82.605 34.7915 82.837 35.4075 82.837ZM45.0913 83.509H44.2153V80.041C44.2153 79.489 44.0753 79.049 43.7953 78.721C43.5153 78.393 43.1073 78.229 42.5713 78.229C42.0513 78.229 41.6233 78.409 41.2873 78.769C40.9593 79.137 40.7953 79.585 40.7953 80.113V83.509H39.9193V74.413H40.7953V78.613C41.2593 77.829 41.9393 77.437 42.8353 77.437C43.5393 77.437 44.0953 77.653 44.5033 78.085C44.8953 78.541 45.0913 79.121 45.0913 79.825V83.509ZM48.9297 80.065H50.5857V79.669C50.5857 78.701 50.0777 78.217 49.0617 78.217C48.5737 78.217 48.1977 78.349 47.9337 78.613C47.6937 78.853 47.5497 79.125 47.5017 79.429L46.6617 79.249C46.6697 79.081 46.7497 78.869 46.9017 78.613C47.0537 78.357 47.2537 78.129 47.5017 77.929C47.9257 77.601 48.4537 77.437 49.0857 77.437C50.1737 77.437 50.8977 77.849 51.2577 78.673C51.3777 78.953 51.4377 79.281 51.4377 79.657V81.337C51.4377 82.313 51.4697 83.037 51.5337 83.509H50.6697C50.6137 83.205 50.5857 82.857 50.5857 82.465C50.0817 83.233 49.4097 83.617 48.5697 83.617C47.9697 83.617 47.4897 83.449 47.1297 83.113C46.7537 82.785 46.5657 82.365 46.5657 81.853V81.793C46.5657 81.201 46.8017 80.765 47.2737 80.485C47.7537 80.205 48.3057 80.065 48.9297 80.065ZM50.5857 80.989V80.785H48.9177C48.5497 80.785 48.2257 80.853 47.9457 80.989C47.6097 81.133 47.4417 81.397 47.4417 81.781C47.4417 82.109 47.5657 82.369 47.8137 82.561C48.0537 82.753 48.3577 82.849 48.7257 82.849C49.2457 82.849 49.6897 82.673 50.0577 82.321C50.4097 81.985 50.5857 81.541 50.5857 80.989ZM59.3132 80.521C59.3132 81.065 59.1972 81.569 58.9652 82.033C58.7332 82.497 58.4052 82.873 57.9812 83.161C57.5492 83.449 57.0572 83.593 56.5052 83.593C55.5212 83.593 54.7492 83.145 54.1892 82.249V83.509H53.3372V74.413H54.2132V78.829C54.8132 77.901 55.5772 77.437 56.5052 77.437C57.3532 77.437 58.0372 77.757 58.5572 78.397C59.0612 79.021 59.3132 79.729 59.3132 80.521ZM56.3372 82.837C56.9612 82.837 57.4692 82.617 57.8612 82.177C58.2372 81.729 58.4252 81.185 58.4252 80.545C58.4252 79.641 58.1012 78.973 57.4532 78.541C57.1412 78.325 56.7692 78.217 56.3372 78.217C55.7452 78.209 55.2372 78.437 54.8132 78.901C54.3892 79.365 54.1852 79.901 54.2012 80.509C54.2012 81.149 54.4012 81.693 54.8012 82.141C55.2092 82.605 55.7212 82.837 56.3372 82.837ZM66.117 80.797H61.293C61.325 81.381 61.545 81.865 61.953 82.249C62.353 82.641 62.845 82.837 63.429 82.837C63.885 82.837 64.273 82.729 64.593 82.513C64.913 82.289 65.141 81.973 65.277 81.565L66.045 81.805C65.877 82.365 65.553 82.809 65.073 83.137C64.577 83.457 64.033 83.617 63.441 83.617C62.881 83.617 62.365 83.477 61.893 83.197C61.421 82.917 61.061 82.541 60.813 82.069C60.549 81.605 60.417 81.089 60.417 80.521C60.417 79.977 60.541 79.473 60.789 79.009C61.021 78.537 61.369 78.157 61.833 77.869C62.281 77.581 62.777 77.437 63.321 77.437C63.921 77.437 64.433 77.573 64.857 77.845C65.289 78.109 65.609 78.473 65.817 78.937C66.025 79.377 66.129 79.901 66.129 80.509C66.129 80.613 66.125 80.709 66.117 80.797ZM61.305 80.053H65.253C65.197 79.509 64.997 79.061 64.653 78.709C64.317 78.373 63.873 78.205 63.321 78.205C62.817 78.205 62.373 78.385 61.989 78.745C61.605 79.121 61.377 79.557 61.305 80.053ZM69.4877 83.557C68.3597 83.557 67.7957 83.025 67.7957 81.961V78.313H66.6917V77.545H67.7957V75.829H68.6597V77.545H70.1717V78.313H68.6597V81.949C68.6597 82.509 68.9837 82.789 69.6317 82.789C69.7837 82.789 69.9637 82.773 70.1717 82.741V83.461C69.9637 83.525 69.7357 83.557 69.4877 83.557ZM19.297 92.513V92.225C19.297 91.073 19.577 90.025 20.137 89.081C20.689 88.129 21.469 87.365 22.477 86.789L22.837 87.353C21.069 88.489 20.185 90.117 20.185 92.237V92.501C20.185 94.605 21.069 96.229 22.837 97.373L22.477 97.961C21.469 97.377 20.689 96.609 20.137 95.657C19.577 94.713 19.297 93.665 19.297 92.513ZM30.647 90.269L29.771 90.581C29.635 90.197 29.435 89.853 29.171 89.549C28.971 89.341 28.779 89.173 28.595 89.045C28.099 88.701 27.487 88.529 26.759 88.529C26.087 88.529 25.495 88.693 24.983 89.021C24.447 89.357 24.039 89.797 23.759 90.341C23.471 90.885 23.327 91.477 23.327 92.117C23.327 93.125 23.631 93.977 24.239 94.673C24.871 95.385 25.715 95.741 26.771 95.741C27.571 95.741 28.267 95.513 28.859 95.057C29.475 94.585 29.807 93.941 29.855 93.125H26.207V92.273H30.839V92.609C30.839 93.729 30.479 94.669 29.759 95.429C29.007 96.205 28.007 96.593 26.759 96.593C25.431 96.593 24.367 96.169 23.567 95.321C22.775 94.481 22.379 93.429 22.379 92.165C22.379 91.333 22.571 90.573 22.955 89.885C23.339 89.197 23.867 88.657 24.539 88.265C25.203 87.873 25.951 87.677 26.783 87.677C27.839 87.677 28.695 87.941 29.351 88.469C29.967 88.949 30.399 89.549 30.647 90.269ZM40.7492 92.117C40.7492 92.941 40.5612 93.697 40.1852 94.385C39.8012 95.065 39.2732 95.605 38.6012 96.005C37.9132 96.405 37.1572 96.605 36.3332 96.605C35.7332 96.605 35.1532 96.489 34.5932 96.257C34.0412 96.025 33.5772 95.709 33.2012 95.309C32.8252 94.933 32.5212 94.465 32.2892 93.905C32.0652 93.329 31.9532 92.749 31.9532 92.165C31.9532 91.333 32.1452 90.577 32.5292 89.897C32.9052 89.201 33.4332 88.657 34.1132 88.265C34.7772 87.873 35.5292 87.677 36.3692 87.677C36.9852 87.677 37.5652 87.789 38.1092 88.013C38.6532 88.253 39.1172 88.565 39.5012 88.949C39.9012 89.373 40.2052 89.845 40.4132 90.365C40.6372 90.909 40.7492 91.493 40.7492 92.117ZM39.8012 92.165C39.8012 91.165 39.4812 90.313 38.8412 89.609C38.1852 88.889 37.3492 88.529 36.3332 88.529C35.7012 88.529 35.1132 88.689 34.5692 89.009C34.0412 89.345 33.6332 89.781 33.3452 90.317C33.0572 90.869 32.9132 91.469 32.9132 92.117C32.9132 93.125 33.2332 93.973 33.8732 94.661C34.5292 95.381 35.3612 95.741 36.3692 95.741C37.0092 95.741 37.5972 95.577 38.1332 95.249C38.6612 94.945 39.0732 94.513 39.3692 93.953C39.6572 93.409 39.8012 92.813 39.8012 92.165ZM50.7453 92.117C50.7453 92.941 50.5573 93.697 50.1813 94.385C49.7973 95.065 49.2693 95.605 48.5973 96.005C47.9093 96.405 47.1533 96.605 46.3293 96.605C45.7293 96.605 45.1493 96.489 44.5893 96.257C44.0373 96.025 43.5733 95.709 43.1973 95.309C42.8213 94.933 42.5173 94.465 42.2853 93.905C42.0613 93.329 41.9493 92.749 41.9493 92.165C41.9493 91.333 42.1413 90.577 42.5253 89.897C42.9013 89.201 43.4293 88.657 44.1093 88.265C44.7733 87.873 45.5253 87.677 46.3653 87.677C46.9813 87.677 47.5613 87.789 48.1053 88.013C48.6493 88.253 49.1133 88.565 49.4973 88.949C49.8973 89.373 50.2013 89.845 50.4093 90.365C50.6333 90.909 50.7453 91.493 50.7453 92.117ZM49.7973 92.165C49.7973 91.165 49.4773 90.313 48.8373 89.609C48.1813 88.889 47.3453 88.529 46.3293 88.529C45.6973 88.529 45.1093 88.689 44.5653 89.009C44.0373 89.345 43.6293 89.781 43.3413 90.317C43.0533 90.869 42.9093 91.469 42.9093 92.117C42.9093 93.125 43.2293 93.973 43.8693 94.661C44.5253 95.381 45.3573 95.741 46.3653 95.741C47.0053 95.741 47.5933 95.577 48.1293 95.249C48.6573 94.945 49.0693 94.513 49.3653 93.953C49.6533 93.409 49.7973 92.813 49.7973 92.165ZM60.2134 90.269L59.3374 90.581C59.2014 90.197 59.0014 89.853 58.7374 89.549C58.5374 89.341 58.3454 89.173 58.1614 89.045C57.6654 88.701 57.0534 88.529 56.3254 88.529C55.6534 88.529 55.0614 88.693 54.5494 89.021C54.0134 89.357 53.6054 89.797 53.3254 90.341C53.0374 90.885 52.8934 91.477 52.8934 92.117C52.8934 93.125 53.1974 93.977 53.8054 94.673C54.4374 95.385 55.2814 95.741 56.3374 95.741C57.1374 95.741 57.8334 95.513 58.4254 95.057C59.0414 94.585 59.3734 93.941 59.4214 93.125H55.7734V92.273H60.4054V92.609C60.4054 93.729 60.0454 94.669 59.3254 95.429C58.5734 96.205 57.5734 96.593 56.3254 96.593C54.9974 96.593 53.9334 96.169 53.1334 95.321C52.3414 94.481 51.9454 93.429 51.9454 92.165C51.9454 91.333 52.1374 90.573 52.5214 89.885C52.9054 89.197 53.4334 88.657 54.1054 88.265C54.7694 87.873 55.5174 87.677 56.3494 87.677C57.4054 87.677 58.2614 87.941 58.9174 88.469C59.5334 88.949 59.9654 89.549 60.2134 90.269ZM62.1316 96.509V87.761H63.0556V95.645H67.2076V96.509H62.1316ZM71.2753 92.225V92.513C71.2753 93.673 70.9993 94.725 70.4473 95.669C69.8873 96.613 69.1033 97.377 68.0953 97.961L67.7353 97.373C69.5033 96.229 70.3873 94.605 70.3873 92.501V92.237C70.3873 90.117 69.5033 88.489 67.7353 87.353L68.0953 86.789C69.1033 87.357 69.8873 88.117 70.4473 89.069C70.9993 90.021 71.2753 91.073 71.2753 92.225Z" fill="white"/>
<defs>
<clipPath id="clip0_186_5399">
<rect width="28.8843" height="51.8684" fill="white" transform="translate(59.613)"/>
</clipPath>
</defs>
</svg>
