<svg width="90" height="98" viewBox="0 0 90 98" fill="none" xmlns="http://www.w3.org/2000/svg">
<rect x="21.5801" y="24.1279" width="45.9342" height="45.9342" rx="22.9671" fill="#EB1700"/>
<rect x="21.5801" y="24.1279" width="45.9342" height="45.9342" rx="22.9671" stroke="#CDCCCC"/>
<path d="M37.1419 40.3401H34.7799V50.1918C34.7799 51.7924 34.169 52.7432 32.7209 52.7432C31.2917 52.7432 30.6628 51.7326 30.6628 49.9995V48.1686L28.2998 48.7597V49.5779C28.2998 52.0735 29.5396 53.981 32.7209 53.981C35.9031 53.981 37.1429 52.0755 37.1429 49.5779V40.3401M61.1163 40.3401H58.7533V50.1918C58.7533 51.7924 58.1424 52.7432 56.6943 52.7432C55.2651 52.7432 54.6362 51.7326 54.6362 49.9995V48.1686L52.2732 48.7587V49.5769C52.2732 52.0725 53.513 53.98 56.6943 53.98C59.8765 53.98 61.1163 52.0745 61.1163 49.5769V40.3401ZM44.1166 52.5937C42.2868 52.5937 41.1636 51.1077 41.1636 49.5271C41.1636 48.5364 41.6031 47.6215 42.3256 47.1072L46.6331 51.8143C45.8318 52.2898 44.9358 52.5937 44.1166 52.5937ZM48.3094 50.2496L44.574 46.1325C45.1616 45.8963 45.7886 45.7736 46.4218 45.7709C47.9666 45.7709 48.9174 46.6679 48.9174 48.2126C48.9177 48.9364 48.7064 49.6445 48.3094 50.2498M44.0588 45.5805L43.2396 44.6656C42.514 43.8653 42.3067 43.369 42.3067 42.778C42.3067 41.6737 43.0113 41.0439 44.1156 41.0439C45.2418 41.0439 45.9065 41.6917 45.9065 42.8747C45.9065 43.961 45.3734 44.9906 44.0588 45.5805ZM44.1734 40.0363C41.5433 40.0363 40.2487 41.5053 40.2487 43.3321C40.2487 44.3228 40.6672 45.3154 41.7745 46.5134L41.7926 46.5533C39.9269 47.4503 39.0688 48.8974 39.0688 50.3844C39.0688 52.3468 40.5737 53.9862 42.8998 53.9862C44.2333 53.9862 45.796 53.4331 47.2073 52.4424L48.3504 53.6823H51.3423V53.5866L48.9044 50.8987C49.9339 49.6798 50.5239 48.3463 50.5239 47.1812C50.5239 45.7341 49.5512 44.7614 48.0283 44.7614C47.228 44.7614 46.3311 44.9908 45.7411 45.2198L45.7011 45.1441C47.1502 44.3617 47.7602 43.6392 47.7602 42.6276C47.7565 41.1805 46.4606 40.0364 44.1733 40.0364" fill="white"/>
<path d="M66.9177 55.4018L66.304 54.6172C62.9389 50.2981 58.7524 44.9249 60.47 37.7246L62.1065 30.8641L63.3172 31.1529C67.6885 32.1956 71.44 31.0735 72.0437 28.5428L74.4651 29.1204C73.8614 31.6511 76.7025 34.3459 81.0737 35.3886L82.2844 35.6774L80.6479 42.5379C78.9303 49.7382 72.769 52.6431 67.8184 54.9772L66.9177 55.4018Z" fill="#7AB9E8"/>
<path d="M81.0738 35.3887C76.7025 34.3459 73.8614 31.6512 74.4651 29.1205L73.2544 28.8317L66.9166 55.4004L66.9178 55.4019L67.8185 54.9773C72.769 52.6431 78.9304 49.7383 80.648 42.538L82.2845 35.6775L81.0738 35.3887Z" fill="#579ADF"/>
<path fill-rule="evenodd" clip-rule="evenodd" d="M35.148 22.6744C34.8375 23.9348 34.5285 25.1941 34.2208 26.4524C37.0557 28.0748 40.6352 28.9808 45.1317 28.9823V23.7792L35.148 22.6744Z" fill="#535353"/>
<path fill-rule="evenodd" clip-rule="evenodd" d="M55.1073 22.6744C55.4218 23.9348 55.7336 25.1941 56.0427 26.4524C53.2016 28.0748 49.6302 28.9808 45.1317 28.9823V23.7792L55.1073 22.6744Z" fill="#676767"/>
<path fill-rule="evenodd" clip-rule="evenodd" d="M47.3634 9.11046C53.8405 3.38232 41.593 3.92512 38.1414 1.02295C37.8978 1.26529 37.7533 1.55666 37.726 1.86083C37.6987 2.165 37.7897 2.46856 37.9878 2.73377C36.4555 3.68561 33.7619 2.38694 32.3013 4.21129C33.9565 4.13975 34.9643 4.63589 35.5788 5.3C31.0395 4.77431 32.8155 7.97354 28.9358 8.15395C31.8261 9.37797 38.6146 7.02792 42.8118 9.8881C44.7066 9.83522 45.4686 9.168 47.3634 9.11046Z" fill="#1B2241"/>
<path fill-rule="evenodd" clip-rule="evenodd" d="M28.9378 8.10108C31.7988 9.36525 38.5376 6.95647 42.7041 9.88814C43.4794 9.85518 44.2422 9.72102 44.9612 9.49119C39.5116 4.67842 34.6761 8.95077 28.9357 8.10108H28.9378Z" fill="#1A1A1A"/>
<path fill-rule="evenodd" clip-rule="evenodd" d="M46.9851 8.62385C46.2371 8.68213 45.5035 8.81658 44.8047 9.02344L44.7553 9.03568C44.9994 8.76317 45.2394 8.49066 45.4753 8.21815C47.6187 6.39477 43.1076 4.23764 40.3718 3.79519C39.3865 4.43208 37.8684 4.13048 37.0909 4.57752C37.7615 5.11948 38.177 6.05643 38.8496 6.59839C31.1687 5.82066 34.6677 7.67006 30.9816 8.02831C31.2297 7.90284 31.455 7.75414 31.6521 7.58586C32.8863 6.53715 32.7033 5.39199 35.3938 5.69818L36.8913 5.86812C36.6267 5.59459 36.36 5.32157 36.0912 5.04905C35.4846 4.41608 34.5717 3.98303 33.5446 3.84112C33.7854 3.73628 34.0506 3.66616 34.3263 3.63444C34.5891 3.60483 34.8544 3.58897 35.1203 3.58698C36.3174 3.56555 37.4591 3.63597 38.4115 3.06339L38.7653 2.84753C38.6953 2.75261 38.6234 2.65922 38.5596 2.56583C38.4004 2.35623 38.3335 2.11475 38.3683 1.87537C39.6025 2.57195 41.3098 3.04043 42.7723 3.42929C43.9304 3.73549 45.1461 4.04168 46.2446 4.42289C47.0201 4.6954 47.8902 5.07355 48.3016 5.59102C49.0483 6.55552 47.8943 7.80938 46.9851 8.62385Z" fill="#4386BB"/>
<path fill-rule="evenodd" clip-rule="evenodd" d="M45.9062 8.75064C45.517 8.82683 45.1332 8.91786 44.7563 9.02336L44.7071 9.03568C44.9503 8.76142 45.1894 8.48717 45.4245 8.21291C47.5604 6.37786 43.0652 4.20692 40.3389 3.76164C39.3571 4.4026 37.8443 4.09907 37.0695 4.54897C37.7377 5.0944 38.1518 6.03735 38.8221 6.58278C31.1681 5.80007 34.6548 7.66132 30.9816 8.02186C32.894 7.64745 32.8592 6.29466 33.9456 5.96956C35.032 5.64445 36.4668 6.39327 37.5614 6.06817C37.4466 5.44107 36.928 4.93108 36.1737 4.15299C37.2212 3.6769 39.8634 4.10215 39.314 2.72778C41.6651 4.67685 49.2392 3.86949 46.3654 8.5827L45.9062 8.75064Z" fill="#283A84"/>
<path d="M45.2169 12.7863C43.2867 12.7863 41.722 11.7559 41.722 10.4848C41.722 9.21366 43.2867 8.18323 45.2169 8.18323C47.1471 8.18323 48.7119 9.21366 48.7119 10.4848C48.7119 11.7559 47.1471 12.7863 45.2169 12.7863Z" fill="#CDCCCC"/>
<path fill-rule="evenodd" clip-rule="evenodd" d="M45.2015 10.5701C40.8199 10.5701 37.076 12.3072 35.5784 14.7578C34.7741 15.016 34.2207 15.5479 34.2207 16.1567C34.2248 16.3591 34.2859 16.5586 34.4 16.7422C34.5141 16.9257 34.6787 17.0893 34.8831 17.2221C34.9572 20.8056 39.5486 23.6973 45.2015 23.6973C50.8544 23.6973 55.4294 20.8117 55.5158 17.2375C55.7293 17.1041 55.9021 16.9381 56.0224 16.7506C56.1427 16.5631 56.2078 16.3585 56.2131 16.1506C56.2131 15.5356 55.6413 14.993 54.8184 14.7393C53.3147 12.295 49.5769 10.5701 45.2015 10.5701Z" fill="#8B8A8A"/>
<path fill-rule="evenodd" clip-rule="evenodd" d="M46.8366 20.2876C42.9839 20.2876 39.8467 18.3006 39.8467 15.8551C39.8467 13.4095 42.9901 11.4225 46.8366 11.4225C50.683 11.4225 53.8264 13.4095 53.8264 15.8551C53.8264 18.3006 50.6912 20.2876 46.8366 20.2876Z" fill="#989898"/>
<path fill-rule="evenodd" clip-rule="evenodd" d="M48.9676 15.3436C47.5112 15.3436 46.3251 14.5772 46.3251 13.6388C46.3251 12.7004 47.5112 11.934 48.9676 11.934C50.4239 11.934 51.6101 12.6988 51.6101 13.6388C51.6101 14.5788 50.4116 15.3436 48.9676 15.3436Z" fill="#ACACAC"/>
<path fill-rule="evenodd" clip-rule="evenodd" d="M45.1317 14.3208H45.2317C46.6255 14.3154 48.0089 14.5037 49.3141 14.8765L56.8951 17.0292V23.4436C53.5781 26.3793 49.7101 28.6783 45.1317 30.1757V14.3208Z" fill="#CDCCCC"/>
<path fill-rule="evenodd" clip-rule="evenodd" d="M46.8365 15.3436C47.4406 15.4201 48.0333 15.543 48.6059 15.7106L50.0593 16.129V26.8641C49.0336 27.4554 47.9576 27.9922 46.8386 28.4709V15.3436H46.8365ZM50.7416 16.3258L53.0022 16.9769V24.9404C52.2876 25.4666 51.5347 25.9756 50.7416 26.4597V16.3258ZM53.6826 17.1721L55.1902 17.6062V23.1744C54.7071 23.5991 54.2046 24.0155 53.6826 24.4236V17.1721Z" fill="#333333"/>
<path fill-rule="evenodd" clip-rule="evenodd" d="M45.1317 14.3208H45.0317C43.6414 14.3163 42.2616 14.5046 40.9595 14.8764L33.3683 17.0276V23.4421C36.6873 26.3793 40.5554 28.6783 45.1317 30.1757V14.3208Z" fill="#B4B4B4"/>
<path fill-rule="evenodd" clip-rule="evenodd" d="M43.4269 15.3436C42.8104 15.4203 42.2055 15.5432 41.621 15.7106L40.1376 16.129V26.8641C41.1847 27.4551 42.283 27.9919 43.4248 28.4709V15.3436H43.4269ZM39.4411 16.3258L37.136 16.9769V24.9404C37.8633 25.4666 38.6316 25.9756 39.4411 26.4597V16.3258ZM36.4395 17.1721L34.9027 17.6062V23.1744C35.3944 23.5991 35.9067 24.0155 36.4395 24.4236V17.1721Z" fill="#1A1A1A"/>
<path fill-rule="evenodd" clip-rule="evenodd" d="M46.0988 8.6947C45.4445 8.6947 45.1307 9.00073 45.397 9.37664C45.5656 9.5774 45.8075 9.74551 46.0995 9.86491C46.3915 9.9843 46.7239 10.051 47.0648 10.0586C47.7171 10.0586 48.0309 9.75394 47.7646 9.37664C47.5959 9.17625 47.3542 9.00841 47.0627 8.88905C46.7711 8.76969 46.4393 8.70279 46.0988 8.6947Z" fill="#E3E3E3"/>
<g clip-path="url(#clip0_186_7197)">
<path fill-rule="evenodd" clip-rule="evenodd" d="M29.5728 47.4634L29.4363 47.534C29.2815 47.6171 29.1093 47.6624 28.9337 47.6662C28.758 47.67 28.584 47.6323 28.4257 47.556C28.2654 47.4845 28.1241 47.3762 28.0134 47.2399C27.9027 47.1036 27.8257 46.9431 27.7886 46.7714C27.4748 45.4 26.8471 43.7242 25.9542 41.9935C25.0614 40.2628 24.0587 38.7815 23.1297 37.7318C23.0133 37.601 22.9284 37.4453 22.8813 37.2766C22.8343 37.108 22.8265 36.9308 22.8584 36.7587C22.8904 36.5865 22.9613 36.424 23.0657 36.2834C23.1701 36.1428 23.3052 36.028 23.4608 35.9477L23.5989 35.8771L23.0308 34.7787L20.3632 36.1532L17.6956 37.5262L18.2636 38.6246L18.4001 38.554C18.5564 38.4722 18.7294 38.4275 18.9057 38.4234C19.0821 38.4193 19.257 38.4558 19.4169 38.5301C19.5769 38.6045 19.7175 38.7147 19.828 38.8521C19.9385 38.9896 20.0159 39.1507 20.0541 39.3228C20.3679 40.6927 20.9956 42.3701 21.8885 44.0992C22.7813 45.8284 23.784 47.3112 24.713 48.361C24.8294 48.4919 24.9144 48.6477 24.9614 48.8165C25.0084 48.9852 25.0162 49.1625 24.9843 49.3348C24.9523 49.507 24.8815 49.6697 24.7771 49.8104C24.6727 49.9511 24.5375 50.0661 24.3819 50.1466L24.2438 50.2172L24.8119 51.3156L27.4795 49.9426L30.1409 48.5634L29.5728 47.4634Z" fill="#4592CF"/>
<path fill-rule="evenodd" clip-rule="evenodd" d="M22.7824 38.3795C22.3424 38.6091 22.9534 40.6956 24.149 43.0369C25.3446 45.3781 26.6708 47.092 27.103 46.8625C27.5353 46.6329 26.932 44.5463 25.7364 42.2051C24.5408 39.8638 23.2224 38.1499 22.7824 38.3795Z" fill="#283A84"/>
<path fill-rule="evenodd" clip-rule="evenodd" d="M3.37494 3.40967L4.80469 11.4889L18.1422 37.3359L22.4691 35.1028L9.13163 9.25577L3.37494 3.40967Z" fill="#D1D2D2"/>
<path fill-rule="evenodd" clip-rule="evenodd" d="M7.69091 7.77382L5.4201 6.295L6.21859 11.1149L18.207 37.3359L4.81097 11.4889L3.37495 3.40967L7.69091 7.77382Z" fill="#E6E6E5"/>
<path fill-rule="evenodd" clip-rule="evenodd" d="M7.12556 10.7405L13.4273 23.6112L19.7307 36.4835L20.4188 36.1334L21.1052 35.7833L14.1154 23.2627L7.12556 10.7405Z" fill="#818181"/>
<path fill-rule="evenodd" clip-rule="evenodd" d="M23.7873 33.5505L16.1588 37.5091C15.7665 37.2252 15.2906 37.0824 14.8078 37.1037C14.325 37.1251 13.8634 37.3094 13.4975 37.6268C13.1315 37.9443 12.8826 38.3765 12.7907 38.8536C12.6989 39.3308 12.7696 39.8251 12.9913 40.257C13.213 40.6888 13.5729 41.033 14.013 41.234C14.453 41.4349 14.9475 41.481 15.4167 41.3648C15.886 41.2485 16.3027 40.9768 16.5995 40.5932C16.8964 40.2097 17.0562 39.7368 17.0531 39.2508L24.6816 35.2923C25.0743 35.577 25.551 35.7203 26.0346 35.6992C26.5183 35.6781 26.9808 35.4937 27.3475 35.1758C27.7142 34.8579 27.9637 34.4251 28.0558 33.9471C28.1479 33.4691 28.0771 32.9739 27.855 32.5413C27.6329 32.1087 27.2723 31.764 26.8315 31.5627C26.3907 31.3615 25.8953 31.3155 25.4252 31.4321C24.9552 31.5487 24.5379 31.8212 24.2408 32.2055C23.9436 32.5899 23.7838 33.0637 23.7873 33.5505Z" fill="#333333"/>
</g>
<path d="M21.9545 74.761H22.8665V80.785C22.8665 81.593 22.6185 82.265 22.1225 82.801C21.6265 83.329 20.9905 83.593 20.2145 83.593C19.3825 83.593 18.7185 83.341 18.2225 82.837C17.7265 82.325 17.4785 81.649 17.4785 80.809V79.945H18.3905V80.773C18.3905 81.437 18.5785 81.937 18.9545 82.273C19.3065 82.577 19.7145 82.729 20.1785 82.729C20.6905 82.729 21.1145 82.545 21.4505 82.177C21.7865 81.817 21.9545 81.361 21.9545 80.809V74.761ZM27.6074 83.617C27.0554 83.617 26.5394 83.481 26.0594 83.209C25.5874 82.929 25.2194 82.557 24.9554 82.093C24.6834 81.629 24.5474 81.113 24.5474 80.545C24.5474 79.657 24.8434 78.921 25.4354 78.337C26.0274 77.737 26.7594 77.437 27.6314 77.437C28.4794 77.421 29.2074 77.721 29.8154 78.337C30.4314 78.945 30.7314 79.669 30.7154 80.509C30.7314 81.373 30.4314 82.113 29.8154 82.729C29.1994 83.337 28.4634 83.633 27.6074 83.617ZM27.6314 82.837C28.2554 82.837 28.7794 82.613 29.2034 82.165C29.6114 81.717 29.8154 81.177 29.8154 80.545C29.8154 79.905 29.6074 79.353 29.1914 78.889C28.7674 78.433 28.2394 78.205 27.6074 78.205C26.9754 78.205 26.4554 78.429 26.0474 78.877C25.6394 79.325 25.4354 79.869 25.4354 80.509C25.4194 81.141 25.6234 81.689 26.0474 82.153C26.4794 82.617 27.0074 82.845 27.6314 82.837ZM37.417 83.509H36.541V80.041C36.541 79.489 36.401 79.049 36.121 78.721C35.841 78.393 35.433 78.229 34.897 78.229C34.377 78.229 33.949 78.409 33.613 78.769C33.285 79.137 33.121 79.585 33.121 80.113V83.509H32.245V74.413H33.121V78.613C33.585 77.829 34.265 77.437 35.161 77.437C35.865 77.437 36.421 77.653 36.829 78.085C37.221 78.541 37.417 79.121 37.417 79.825V83.509ZM44.4834 83.509H43.6074V80.041C43.6074 79.489 43.4674 79.049 43.1874 78.721C42.9074 78.393 42.4994 78.229 41.9634 78.229C41.4434 78.229 41.0154 78.409 40.6794 78.769C40.3514 79.137 40.1874 79.585 40.1874 80.113V83.509H39.3114V77.545H40.1634V78.637C40.6434 77.837 41.3314 77.437 42.2274 77.437C42.9314 77.437 43.4874 77.653 43.8954 78.085C44.2874 78.541 44.4834 79.121 44.4834 79.825V83.509ZM50.3138 81.817C50.3138 82.353 50.1098 82.781 49.7018 83.101C49.2938 83.437 48.7938 83.605 48.2018 83.605C47.3298 83.605 46.6938 83.317 46.2938 82.741C46.0938 82.469 45.9738 82.165 45.9338 81.829L46.7258 81.625C46.7818 81.953 46.9298 82.241 47.1698 82.489C47.4178 82.729 47.7578 82.849 48.1898 82.849C48.5178 82.849 48.8098 82.757 49.0658 82.573C49.3058 82.405 49.4258 82.169 49.4258 81.865C49.4258 81.625 49.3298 81.433 49.1378 81.289C48.9618 81.145 48.7338 81.041 48.4538 80.977L47.5418 80.773C46.5498 80.557 46.0538 80.037 46.0538 79.213C46.0538 78.597 46.3018 78.137 46.7978 77.833C47.2218 77.569 47.6498 77.437 48.0818 77.437C48.8978 77.445 49.4938 77.709 49.8698 78.229C50.0538 78.493 50.1738 78.761 50.2298 79.033L49.4378 79.261C49.3818 79.029 49.2658 78.805 49.0898 78.589C48.8738 78.333 48.5378 78.205 48.0818 78.205C47.7538 78.205 47.4818 78.297 47.2658 78.481C47.0418 78.657 46.9298 78.881 46.9298 79.153C46.9298 79.553 47.2178 79.825 47.7938 79.969L48.7538 80.185C49.1938 80.289 49.5618 80.477 49.8578 80.749C50.1618 81.021 50.3138 81.377 50.3138 81.817ZM54.4902 83.617C53.9382 83.617 53.4222 83.481 52.9422 83.209C52.4702 82.929 52.1022 82.557 51.8382 82.093C51.5662 81.629 51.4302 81.113 51.4302 80.545C51.4302 79.657 51.7262 78.921 52.3182 78.337C52.9102 77.737 53.6422 77.437 54.5142 77.437C55.3622 77.421 56.0902 77.721 56.6982 78.337C57.3142 78.945 57.6142 79.669 57.5982 80.509C57.6142 81.373 57.3142 82.113 56.6982 82.729C56.0822 83.337 55.3462 83.633 54.4902 83.617ZM54.5142 82.837C55.1382 82.837 55.6622 82.613 56.0862 82.165C56.4942 81.717 56.6982 81.177 56.6982 80.545C56.6982 79.905 56.4902 79.353 56.0742 78.889C55.6502 78.433 55.1222 78.205 54.4902 78.205C53.8582 78.205 53.3382 78.429 52.9302 78.877C52.5222 79.325 52.3182 79.869 52.3182 80.509C52.3022 81.141 52.5062 81.689 52.9302 82.153C53.3622 82.617 53.8902 82.845 54.5142 82.837ZM64.2998 83.509H63.4238V80.041C63.4238 79.489 63.2838 79.049 63.0038 78.721C62.7238 78.393 62.3158 78.229 61.7798 78.229C61.2598 78.229 60.8318 78.409 60.4958 78.769C60.1678 79.137 60.0038 79.585 60.0038 80.113V83.509H59.1278V77.545H59.9798V78.637C60.4598 77.837 61.1478 77.437 62.0438 77.437C62.7478 77.437 63.3038 77.653 63.7118 78.085C64.1038 78.541 64.2998 79.121 64.2998 79.825V83.509ZM75.0354 79.657H75.9354C75.8154 80.017 75.6234 80.401 75.3594 80.809C75.0874 81.233 74.7954 81.613 74.4834 81.949L75.8394 83.509H74.7354L73.8834 82.525C73.0514 83.229 72.2234 83.581 71.3994 83.581C70.7034 83.597 70.1114 83.405 69.6234 83.005C69.1434 82.597 68.9074 82.077 68.9154 81.445C68.9154 81.021 69.0514 80.617 69.3234 80.233C69.4674 80.049 69.6154 79.885 69.7674 79.741C70.0234 79.517 70.3754 79.261 70.8234 78.973L70.1874 78.241C69.7794 77.777 69.5754 77.293 69.5754 76.789C69.5674 76.189 69.7954 75.685 70.2594 75.277C70.7314 74.861 71.2674 74.661 71.8674 74.677C72.4274 74.661 72.9354 74.861 73.3914 75.277C73.8554 75.685 74.0834 76.169 74.0754 76.729C74.0754 77.305 73.8834 77.765 73.4994 78.109C73.3074 78.285 73.0834 78.449 72.8274 78.601L72.0234 79.105L73.9674 81.349C74.4554 80.773 74.8114 80.209 75.0354 79.657ZM72.8154 75.841C72.5434 75.593 72.2194 75.469 71.8434 75.469C71.4674 75.469 71.1434 75.593 70.8714 75.841C70.5914 76.105 70.4514 76.421 70.4514 76.789C70.4514 77.029 70.5314 77.273 70.6914 77.521C70.7314 77.577 70.8034 77.681 70.9074 77.833C70.9794 77.921 71.0754 78.029 71.1954 78.157C71.3554 78.333 71.4394 78.425 71.4474 78.433L71.5434 78.541L72.4194 78.013C72.9474 77.693 73.2114 77.281 73.2114 76.777C73.2114 76.417 73.0794 76.105 72.8154 75.841ZM71.5074 82.777C72.1074 82.777 72.7274 82.497 73.3674 81.937L71.3154 79.549C71.2594 79.581 71.1834 79.629 71.0874 79.693C70.9994 79.749 70.9354 79.789 70.8954 79.813C70.7674 79.901 70.6394 79.997 70.5114 80.101C70.3354 80.261 70.2194 80.381 70.1634 80.461C69.9474 80.733 69.8394 81.029 69.8394 81.349C69.8394 81.773 69.9914 82.117 70.2954 82.381C70.6074 82.645 71.0114 82.777 71.5074 82.777ZM10.9857 87.761H11.8977V93.785C11.8977 94.593 11.6497 95.265 11.1537 95.801C10.6577 96.329 10.0217 96.593 9.24572 96.593C8.41372 96.593 7.74972 96.341 7.25372 95.837C6.75772 95.325 6.50972 94.649 6.50972 93.809V92.945H7.42172V93.773C7.42172 94.437 7.60972 94.937 7.98572 95.273C8.33772 95.577 8.74572 95.729 9.20972 95.729C9.72172 95.729 10.1457 95.545 10.4817 95.177C10.8177 94.817 10.9857 94.361 10.9857 93.809V87.761ZM16.6387 96.617C16.0867 96.617 15.5707 96.481 15.0907 96.209C14.6187 95.929 14.2507 95.557 13.9867 95.093C13.7147 94.629 13.5787 94.113 13.5787 93.545C13.5787 92.657 13.8747 91.921 14.4667 91.337C15.0587 90.737 15.7907 90.437 16.6627 90.437C17.5107 90.421 18.2387 90.721 18.8467 91.337C19.4627 91.945 19.7627 92.669 19.7467 93.509C19.7627 94.373 19.4627 95.113 18.8467 95.729C18.2307 96.337 17.4947 96.633 16.6387 96.617ZM16.6627 95.837C17.2867 95.837 17.8107 95.613 18.2347 95.165C18.6427 94.717 18.8467 94.177 18.8467 93.545C18.8467 92.905 18.6387 92.353 18.2227 91.889C17.7987 91.433 17.2707 91.205 16.6387 91.205C16.0067 91.205 15.4867 91.429 15.0787 91.877C14.6707 92.325 14.4667 92.869 14.4667 93.509C14.4507 94.141 14.6547 94.689 15.0787 95.153C15.5107 95.617 16.0387 95.845 16.6627 95.837ZM26.4483 96.509H25.5723V93.041C25.5723 92.489 25.4323 92.049 25.1523 91.721C24.8723 91.393 24.4643 91.229 23.9283 91.229C23.4083 91.229 22.9803 91.409 22.6443 91.769C22.3163 92.137 22.1523 92.585 22.1523 93.113V96.509H21.2763V87.413H22.1523V91.613C22.6163 90.829 23.2963 90.437 24.1923 90.437C24.8963 90.437 25.4523 90.653 25.8603 91.085C26.2523 91.541 26.4483 92.121 26.4483 92.825V96.509ZM33.5147 96.509H32.6387V93.041C32.6387 92.489 32.4987 92.049 32.2187 91.721C31.9387 91.393 31.5307 91.229 30.9947 91.229C30.4747 91.229 30.0467 91.409 29.7107 91.769C29.3827 92.137 29.2187 92.585 29.2187 93.113V96.509H28.3427V90.545H29.1947V91.637C29.6747 90.837 30.3627 90.437 31.2587 90.437C31.9627 90.437 32.5187 90.653 32.9267 91.085C33.3187 91.541 33.5147 92.121 33.5147 92.825V96.509ZM39.3451 94.817C39.3451 95.353 39.1411 95.781 38.7331 96.101C38.3251 96.437 37.8251 96.605 37.2331 96.605C36.3611 96.605 35.7251 96.317 35.3251 95.741C35.1251 95.469 35.0051 95.165 34.9651 94.829L35.7571 94.625C35.8131 94.953 35.9611 95.241 36.2011 95.489C36.4491 95.729 36.7891 95.849 37.2211 95.849C37.5491 95.849 37.8411 95.757 38.0971 95.573C38.3371 95.405 38.4571 95.169 38.4571 94.865C38.4571 94.625 38.3611 94.433 38.1691 94.289C37.9931 94.145 37.7651 94.041 37.4851 93.977L36.5731 93.773C35.5811 93.557 35.0851 93.037 35.0851 92.213C35.0851 91.597 35.3331 91.137 35.8291 90.833C36.2531 90.569 36.6811 90.437 37.1131 90.437C37.9291 90.445 38.5251 90.709 38.9011 91.229C39.0851 91.493 39.2051 91.761 39.2611 92.033L38.4691 92.261C38.4131 92.029 38.2971 91.805 38.1211 91.589C37.9051 91.333 37.5691 91.205 37.1131 91.205C36.7851 91.205 36.5131 91.297 36.2971 91.481C36.0731 91.657 35.9611 91.881 35.9611 92.153C35.9611 92.553 36.2491 92.825 36.8251 92.969L37.7851 93.185C38.2251 93.289 38.5931 93.477 38.8891 93.749C39.1931 94.021 39.3451 94.377 39.3451 94.817ZM43.5215 96.617C42.9695 96.617 42.4535 96.481 41.9735 96.209C41.5015 95.929 41.1335 95.557 40.8695 95.093C40.5975 94.629 40.4615 94.113 40.4615 93.545C40.4615 92.657 40.7575 91.921 41.3495 91.337C41.9415 90.737 42.6735 90.437 43.5455 90.437C44.3935 90.421 45.1215 90.721 45.7295 91.337C46.3455 91.945 46.6455 92.669 46.6295 93.509C46.6455 94.373 46.3455 95.113 45.7295 95.729C45.1135 96.337 44.3775 96.633 43.5215 96.617ZM43.5455 95.837C44.1695 95.837 44.6935 95.613 45.1175 95.165C45.5255 94.717 45.7295 94.177 45.7295 93.545C45.7295 92.905 45.5215 92.353 45.1055 91.889C44.6815 91.433 44.1535 91.205 43.5215 91.205C42.8895 91.205 42.3695 91.429 41.9615 91.877C41.5535 92.325 41.3495 92.869 41.3495 93.509C41.3335 94.141 41.5375 94.689 41.9615 95.153C42.3935 95.617 42.9215 95.845 43.5455 95.837ZM53.3311 96.509H52.4551V93.041C52.4551 92.489 52.3151 92.049 52.0351 91.721C51.7551 91.393 51.3471 91.229 50.8111 91.229C50.2911 91.229 49.8631 91.409 49.5271 91.769C49.1991 92.137 49.0351 92.585 49.0351 93.113V96.509H48.1591V90.545H49.0111V91.637C49.4911 90.837 50.1791 90.437 51.0751 90.437C51.7791 90.437 52.3351 90.653 52.7431 91.085C53.1351 91.541 53.3311 92.121 53.3311 92.825V96.509ZM57.9587 92.513V92.225C57.9587 91.073 58.2387 90.025 58.7987 89.081C59.3507 88.129 60.1307 87.365 61.1387 86.789L61.4987 87.353C59.7307 88.489 58.8467 90.117 58.8467 92.237V92.501C58.8467 94.605 59.7307 96.229 61.4987 97.373L61.1387 97.961C60.1307 97.377 59.3507 96.609 58.7987 95.657C58.2387 94.713 57.9587 93.665 57.9587 92.513ZM64.2826 87.761H65.1946V93.785C65.1946 94.593 64.9466 95.265 64.4506 95.801C63.9546 96.329 63.3186 96.593 62.5426 96.593C61.7106 96.593 61.0466 96.341 60.5506 95.837C60.0546 95.325 59.8066 94.649 59.8066 93.809V92.945H60.7186V93.773C60.7186 94.437 60.9066 94.937 61.2826 95.273C61.6346 95.577 62.0426 95.729 62.5066 95.729C63.0186 95.729 63.4426 95.545 63.7786 95.177C64.1146 94.817 64.2826 94.361 64.2826 93.809V87.761ZM73.7635 87.761H74.6635V96.509H73.6675L68.4475 89.069V96.509H67.5355V87.761H68.6035L73.7635 95.117V87.761ZM80.806 87.761H81.718V93.785C81.718 94.593 81.47 95.265 80.974 95.801C80.478 96.329 79.842 96.593 79.066 96.593C78.234 96.593 77.57 96.341 77.074 95.837C76.578 95.325 76.33 94.649 76.33 93.809V92.945H77.242V93.773C77.242 94.437 77.43 94.937 77.806 95.273C78.158 95.577 78.566 95.729 79.03 95.729C79.542 95.729 79.966 95.545 80.302 95.177C80.638 94.817 80.806 94.361 80.806 93.809V87.761ZM86.687 92.225V92.513C86.687 93.673 86.411 94.725 85.859 95.669C85.299 96.613 84.515 97.377 83.507 97.961L83.147 97.373C84.915 96.229 85.799 94.605 85.799 92.501V92.237C85.799 90.117 84.915 88.489 83.147 87.353L83.507 86.789C84.515 87.357 85.299 88.117 85.859 89.069C86.411 90.021 86.687 91.073 86.687 92.225Z" fill="white"/>
<defs>
<clipPath id="clip0_186_7197">
<rect width="28.9942" height="52.0657" fill="white" transform="matrix(-1 0 0 1 29.9704 0)"/>
</clipPath>
</defs>
</svg>
