<svg width="90" height="100" viewBox="0 0 90 100" fill="none" xmlns="http://www.w3.org/2000/svg">
<rect x="21.58" y="24.1279" width="45.9342" height="45.9342" rx="22.9671" fill="white"/>
<rect x="21.58" y="24.1279" width="45.9342" height="45.9342" rx="22.9671" stroke="#CDCCCC"/>
<path fill-rule="evenodd" clip-rule="evenodd" d="M56.9999 43.5199H49.915V60.0038L56.9999 52.9201V43.5199ZM40.5173 35.0013V42.0924H56.9999L49.915 35.0013H40.5173ZM48.4863 60.0038V52.9201H31.9999L39.0898 60.0038H48.4863ZM32.0049 51.4926H39.0898V35L32.0049 42.0862V51.4926Z" fill="#28539C"/>
<path d="M66.9177 55.4018L66.304 54.6172C62.9389 50.2981 58.7524 44.9249 60.4699 37.7246L62.1065 30.8641L63.3172 31.1529C67.6884 32.1956 71.44 31.0735 72.0437 28.5428L74.465 29.1204C73.8614 31.6511 76.7024 34.3459 81.0737 35.3886L82.2844 35.6774L80.6479 42.5379C78.9303 49.7382 72.769 52.6431 67.8184 54.9772L66.9177 55.4018Z" fill="#7AB9E8"/>
<path d="M81.0738 35.3887C76.7025 34.3459 73.8614 31.6512 74.4651 29.1205L73.2544 28.8317L66.9166 55.4004L66.9178 55.4019L67.8185 54.9773C72.769 52.6431 78.9303 49.7383 80.6479 42.538L82.2845 35.6775L81.0738 35.3887Z" fill="#579ADF"/>
<path fill-rule="evenodd" clip-rule="evenodd" d="M35.1478 22.6744C34.8374 23.9348 34.5283 25.1941 34.2206 26.4524C37.0556 28.0748 40.6351 28.9808 45.1316 28.9823V23.7792L35.1478 22.6744Z" fill="#535353"/>
<path fill-rule="evenodd" clip-rule="evenodd" d="M55.1072 22.6744C55.4217 23.9348 55.7335 25.1941 56.0426 26.4524C53.2015 28.0748 49.6301 28.9808 45.1316 28.9823V23.7792L55.1072 22.6744Z" fill="#676767"/>
<path fill-rule="evenodd" clip-rule="evenodd" d="M47.3633 9.11046C53.8404 3.38232 41.5929 3.92512 38.1413 1.02295C37.8976 1.26529 37.7532 1.55666 37.7259 1.86083C37.6985 2.165 37.7896 2.46856 37.9876 2.73377C36.4554 3.68561 33.7617 2.38694 32.3012 4.21129C33.9563 4.13975 34.9642 4.63589 35.5787 5.3C31.0394 4.77431 32.8154 7.97354 28.9356 8.15395C31.826 9.37797 38.6145 7.02792 42.8117 9.8881C44.7065 9.83522 45.4685 9.168 47.3633 9.11046Z" fill="#1B2241"/>
<path fill-rule="evenodd" clip-rule="evenodd" d="M28.9377 8.10108C31.7987 9.36525 38.5375 6.95647 42.704 9.88814C43.4793 9.85518 44.2422 9.72102 44.9611 9.49119C39.5115 4.67842 34.676 8.95077 28.9357 8.10108H28.9377Z" fill="#1A1A1A"/>
<path fill-rule="evenodd" clip-rule="evenodd" d="M46.985 8.62385C46.237 8.68213 45.5034 8.81658 44.8046 9.02344L44.7552 9.03568C44.9993 8.76317 45.2393 8.49066 45.4751 8.21815C47.6186 6.39477 43.1075 4.23764 40.3717 3.79519C39.3864 4.43208 37.8683 4.13048 37.0908 4.57752C37.7614 5.11948 38.1769 6.05643 38.8495 6.59839C31.1686 5.82066 34.6676 7.67006 30.9815 8.02831C31.2295 7.90284 31.4549 7.75414 31.652 7.58586C32.8862 6.53715 32.7032 5.39199 35.3937 5.69818L36.8912 5.86812C36.6266 5.59459 36.3598 5.32157 36.0911 5.04905C35.4845 4.41608 34.5715 3.98303 33.5445 3.84112C33.7853 3.73628 34.0505 3.66616 34.3262 3.63444C34.589 3.60483 34.8543 3.58897 35.1202 3.58698C36.3173 3.56555 37.459 3.63597 38.4114 3.06339L38.7652 2.84753C38.6952 2.75261 38.6232 2.65922 38.5595 2.56583C38.4003 2.35623 38.3334 2.11475 38.3682 1.87537C39.6024 2.57195 41.3097 3.04043 42.7722 3.42929C43.9303 3.73549 45.146 4.04168 46.2445 4.42289C47.02 4.6954 47.8901 5.07355 48.3015 5.59102C49.0482 6.55552 47.8942 7.80938 46.985 8.62385Z" fill="#4386BB"/>
<path fill-rule="evenodd" clip-rule="evenodd" d="M45.9061 8.75064C45.5169 8.82683 45.1331 8.91786 44.7562 9.02336L44.707 9.03568C44.9502 8.76142 45.1894 8.48717 45.4244 8.21291C47.5603 6.37786 43.0651 4.20692 40.3388 3.76164C39.357 4.4026 37.8442 4.09907 37.0694 4.54897C37.7376 5.0944 38.1517 6.03735 38.822 6.58278C31.168 5.80007 34.6547 7.66132 30.9815 8.02186C32.8939 7.64745 32.8591 6.29466 33.9455 5.96956C35.0319 5.64445 36.4667 6.39327 37.5613 6.06817C37.4466 5.44107 36.928 4.93108 36.1736 4.15299C37.2211 3.6769 39.8633 4.10215 39.3139 2.72778C41.6651 4.67685 49.2391 3.86949 46.3653 8.5827L45.9061 8.75064Z" fill="#283A84"/>
<path d="M45.2168 12.7863C43.2867 12.7863 41.7219 11.7559 41.7219 10.4848C41.7219 9.21366 43.2867 8.18323 45.2168 8.18323C47.147 8.18323 48.7118 9.21366 48.7118 10.4848C48.7118 11.7559 47.147 12.7863 45.2168 12.7863Z" fill="#CDCCCC"/>
<path fill-rule="evenodd" clip-rule="evenodd" d="M45.2014 10.5701C40.8198 10.5701 37.0759 12.3072 35.5783 14.7578C34.774 15.016 34.2206 15.5479 34.2206 16.1567C34.2247 16.3591 34.2858 16.5586 34.3999 16.7422C34.514 16.9257 34.6787 17.0893 34.883 17.2221C34.9571 20.8056 39.5485 23.6973 45.2014 23.6973C50.8543 23.6973 55.4293 20.8117 55.5157 17.2375C55.7292 17.1041 55.902 16.9381 56.0223 16.7506C56.1426 16.5631 56.2077 16.3585 56.213 16.1506C56.213 15.5356 55.6412 14.993 54.8183 14.7393C53.3146 12.295 49.5769 10.5701 45.2014 10.5701Z" fill="#8B8A8A"/>
<path fill-rule="evenodd" clip-rule="evenodd" d="M46.8364 20.2876C42.9838 20.2876 39.8466 18.3006 39.8466 15.8551C39.8466 13.4095 42.99 11.4225 46.8364 11.4225C50.6829 11.4225 53.8263 13.4095 53.8263 15.8551C53.8263 18.3006 50.6911 20.2876 46.8364 20.2876Z" fill="#989898"/>
<path fill-rule="evenodd" clip-rule="evenodd" d="M48.9675 15.3436C47.5111 15.3436 46.325 14.5772 46.325 13.6388C46.325 12.7004 47.5111 11.934 48.9675 11.934C50.4239 11.934 51.61 12.6988 51.61 13.6388C51.61 14.5788 50.4115 15.3436 48.9675 15.3436Z" fill="#ACACAC"/>
<path fill-rule="evenodd" clip-rule="evenodd" d="M45.1316 14.3208H45.2316C46.6254 14.3154 48.0087 14.5037 49.314 14.8765L56.895 17.0292V23.4436C53.578 26.3793 49.71 28.6783 45.1316 30.1757V14.3208Z" fill="#CDCCCC"/>
<path fill-rule="evenodd" clip-rule="evenodd" d="M46.8364 15.3436C47.4405 15.4201 48.0332 15.543 48.6058 15.7106L50.0592 16.129V26.8641C49.0335 27.4554 47.9575 27.9922 46.8385 28.4709V15.3436H46.8364ZM50.7415 16.3258L53.0021 16.9769V24.9404C52.2875 25.4666 51.5346 25.9756 50.7415 26.4597V16.3258ZM53.6824 17.1721L55.1901 17.6062V23.1744C54.707 23.5991 54.2045 24.0155 53.6824 24.4236V17.1721Z" fill="#333333"/>
<path fill-rule="evenodd" clip-rule="evenodd" d="M45.1316 14.3208H45.0316C43.6412 14.3163 42.2614 14.5046 40.9594 14.8764L33.3682 17.0276V23.4421C36.6872 26.3793 40.5552 28.6783 45.1316 30.1757V14.3208Z" fill="#B4B4B4"/>
<path fill-rule="evenodd" clip-rule="evenodd" d="M43.4268 15.3436C42.8103 15.4203 42.2054 15.5432 41.6208 15.7106L40.1375 16.129V26.8641C41.1846 27.4551 42.2828 27.9919 43.4247 28.4709V15.3436H43.4268ZM39.441 16.3258L37.1358 16.9769V24.9404C37.8631 25.4666 38.6315 25.9756 39.441 26.4597V16.3258ZM36.4394 17.1721L34.9026 17.6062V23.1744C35.3943 23.5991 35.9065 24.0155 36.4394 24.4236V17.1721Z" fill="#1A1A1A"/>
<path fill-rule="evenodd" clip-rule="evenodd" d="M46.0987 8.6947C45.4444 8.6947 45.1306 9.00073 45.3969 9.37664C45.5655 9.5774 45.8074 9.74551 46.0994 9.86491C46.3914 9.9843 46.7238 10.051 47.0648 10.0586C47.717 10.0586 48.0308 9.75394 47.7645 9.37664C47.5958 9.17625 47.3541 9.00841 47.0626 8.88905C46.771 8.76969 46.4392 8.70279 46.0987 8.6947Z" fill="#E3E3E3"/>
<g clip-path="url(#clip0_463_5522)">
<path fill-rule="evenodd" clip-rule="evenodd" d="M29.5728 47.4634L29.4363 47.534C29.2815 47.6171 29.1093 47.6624 28.9337 47.6662C28.758 47.67 28.584 47.6323 28.4257 47.556C28.2654 47.4845 28.1241 47.3762 28.0134 47.2399C27.9027 47.1036 27.8257 46.9431 27.7886 46.7714C27.4748 45.4 26.8471 43.7242 25.9542 41.9935C25.0614 40.2628 24.0587 38.7815 23.1297 37.7318C23.0133 37.601 22.9284 37.4453 22.8813 37.2766C22.8343 37.108 22.8265 36.9308 22.8584 36.7587C22.8904 36.5865 22.9613 36.424 23.0657 36.2834C23.1701 36.1428 23.3052 36.028 23.4608 35.9477L23.5989 35.8771L23.0308 34.7787L20.3632 36.1532L17.6956 37.5262L18.2636 38.6246L18.4001 38.554C18.5564 38.4722 18.7294 38.4275 18.9057 38.4234C19.0821 38.4193 19.257 38.4558 19.4169 38.5301C19.5769 38.6045 19.7175 38.7147 19.828 38.8521C19.9385 38.9896 20.0159 39.1507 20.0541 39.3228C20.3679 40.6927 20.9956 42.3701 21.8885 44.0992C22.7813 45.8284 23.784 47.3112 24.713 48.361C24.8294 48.4919 24.9144 48.6477 24.9614 48.8165C25.0084 48.9852 25.0162 49.1625 24.9843 49.3348C24.9523 49.507 24.8815 49.6697 24.7771 49.8104C24.6727 49.9511 24.5375 50.0661 24.3819 50.1466L24.2438 50.2172L24.8119 51.3156L27.4795 49.9426L30.1409 48.5634L29.5728 47.4634Z" fill="#4592CF"/>
<path fill-rule="evenodd" clip-rule="evenodd" d="M22.7823 38.3795C22.3423 38.6091 22.9534 40.6956 24.149 43.0369C25.3446 45.3781 26.6708 47.092 27.103 46.8625C27.5352 46.6329 26.932 44.5463 25.7364 42.2051C24.5408 39.8638 23.2223 38.1499 22.7823 38.3795Z" fill="#283A84"/>
<path fill-rule="evenodd" clip-rule="evenodd" d="M3.37494 3.40967L4.80469 11.4889L18.1422 37.3359L22.4691 35.1028L9.13163 9.25577L3.37494 3.40967Z" fill="#D1D2D2"/>
<path fill-rule="evenodd" clip-rule="evenodd" d="M7.69088 7.77382L5.42007 6.295L6.21856 11.1149L18.207 37.3359L4.81094 11.4889L3.37492 3.40967L7.69088 7.77382Z" fill="#E6E6E5"/>
<path fill-rule="evenodd" clip-rule="evenodd" d="M7.12556 10.7405L13.4273 23.6112L19.7307 36.4835L20.4188 36.1334L21.1052 35.7833L14.1154 23.2627L7.12556 10.7405Z" fill="#818181"/>
<path fill-rule="evenodd" clip-rule="evenodd" d="M23.7872 33.5505L16.1587 37.5091C15.7665 37.2252 15.2906 37.0824 14.8078 37.1037C14.325 37.1251 13.8634 37.3094 13.4974 37.6268C13.1315 37.9443 12.8825 38.3765 12.7907 38.8536C12.6989 39.3308 12.7695 39.8251 12.9913 40.257C13.213 40.6888 13.5729 41.033 14.0129 41.234C14.4529 41.4349 14.9475 41.481 15.4167 41.3648C15.886 41.2485 16.3026 40.9768 16.5995 40.5932C16.8964 40.2097 17.0561 39.7368 17.0531 39.2508L24.6816 35.2923C25.0743 35.577 25.5509 35.7203 26.0346 35.6992C26.5183 35.6781 26.9808 35.4937 27.3475 35.1758C27.7142 34.8579 27.9637 34.4251 28.0557 33.9471C28.1478 33.4691 28.0771 32.9739 27.855 32.5413C27.6329 32.1087 27.2723 31.764 26.8315 31.5627C26.3906 31.3615 25.8952 31.3155 25.4252 31.4321C24.9552 31.5487 24.5379 31.8212 24.2407 32.2055C23.9436 32.5899 23.7838 33.0637 23.7872 33.5505Z" fill="#333333"/>
</g>
<path d="M22.8574 75.252H23.7694V81.276C23.7694 82.084 23.5214 82.756 23.0254 83.292C22.5294 83.82 21.8934 84.084 21.1174 84.084C20.2854 84.084 19.6214 83.832 19.1254 83.328C18.6294 82.816 18.3814 82.14 18.3814 81.3V80.436H19.2934V81.264C19.2934 81.928 19.4814 82.428 19.8574 82.764C20.2094 83.068 20.6174 83.22 21.0814 83.22C21.5934 83.22 22.0174 83.036 22.3534 82.668C22.6894 82.308 22.8574 81.852 22.8574 81.3V75.252ZM28.8944 80.58H27.0344V84H26.1104V75.252H29.0384C30.0464 75.244 30.8104 75.496 31.3304 76.008C31.8504 76.52 32.1104 77.144 32.1104 77.88C32.1104 78.64 31.8424 79.276 31.3064 79.788C30.7384 80.316 29.9344 80.58 28.8944 80.58ZM28.9664 76.116H27.0344V79.728H28.9184C29.7024 79.728 30.2824 79.532 30.6584 79.14C31.0024 78.796 31.1744 78.384 31.1744 77.904C31.1744 77.408 31.0024 76.988 30.6584 76.644C30.3144 76.292 29.7504 76.116 28.9664 76.116ZM41.5278 75.252H42.8478V84H41.9358V76.5L38.6838 84H37.8558L34.6278 76.56V84H33.7158V75.252H35.0238L38.2878 82.752L41.5278 75.252ZM47.6823 84.108C47.1303 84.108 46.6143 83.972 46.1343 83.7C45.6623 83.42 45.2943 83.048 45.0303 82.584C44.7583 82.12 44.6223 81.604 44.6223 81.036C44.6223 80.148 44.9183 79.412 45.5103 78.828C46.1023 78.228 46.8343 77.928 47.7063 77.928C48.5543 77.912 49.2823 78.212 49.8903 78.828C50.5063 79.436 50.8063 80.16 50.7903 81C50.8063 81.864 50.5063 82.604 49.8903 83.22C49.2743 83.828 48.5383 84.124 47.6823 84.108ZM47.7063 83.328C48.3303 83.328 48.8543 83.104 49.2783 82.656C49.6863 82.208 49.8903 81.668 49.8903 81.036C49.8903 80.396 49.6823 79.844 49.2663 79.38C48.8423 78.924 48.3143 78.696 47.6823 78.696C47.0503 78.696 46.5303 78.92 46.1223 79.368C45.7143 79.816 45.5103 80.36 45.5103 81C45.4943 81.632 45.6983 82.18 46.1223 82.644C46.5543 83.108 47.0823 83.336 47.7063 83.328ZM52.3199 78.036H53.1719V79.212C53.4519 78.644 53.8599 78.26 54.3959 78.06C54.6119 77.98 54.8479 77.94 55.1039 77.94C55.2559 77.94 55.3519 77.948 55.3919 77.964V78.888C55.3279 78.872 55.2159 78.864 55.0559 78.864C54.4079 78.864 53.9359 79.08 53.6399 79.512C53.3439 79.944 53.1959 80.468 53.1959 81.084V84H52.3199V78.036ZM60.785 83.916V82.668C60.249 83.572 59.481 84.024 58.481 84.024C57.937 84.024 57.445 83.884 57.005 83.604C56.581 83.332 56.253 82.964 56.021 82.5C55.797 82.044 55.685 81.54 55.685 80.988C55.685 80.452 55.797 79.956 56.021 79.5C56.253 79.036 56.585 78.66 57.017 78.372C57.441 78.076 57.929 77.928 58.481 77.928C59.025 77.928 59.501 78.068 59.909 78.348C60.229 78.572 60.525 78.884 60.797 79.284V78.036H61.661V83.856C61.661 84.872 61.381 85.648 60.821 86.184C60.245 86.72 59.489 86.988 58.553 86.988C57.817 86.988 57.185 86.792 56.657 86.4C56.129 85.992 55.813 85.504 55.709 84.936L56.501 84.672C56.597 85.064 56.809 85.42 57.137 85.74C57.473 86.06 57.941 86.22 58.541 86.22C59.181 86.22 59.705 86.044 60.113 85.692C60.561 85.324 60.785 84.732 60.785 83.916ZM58.661 83.256C59.277 83.256 59.785 83.032 60.185 82.584C60.593 82.136 60.797 81.6 60.797 80.976C60.813 80.384 60.609 79.856 60.185 79.392C59.761 78.928 59.253 78.7 58.661 78.708C58.013 78.708 57.505 78.924 57.137 79.356C56.761 79.78 56.573 80.328 56.573 81C56.557 81.632 56.745 82.168 57.137 82.608C57.529 83.048 58.037 83.264 58.661 83.256ZM65.5725 80.556H67.2285V80.16C67.2285 79.192 66.7205 78.708 65.7045 78.708C65.2165 78.708 64.8405 78.84 64.5765 79.104C64.3365 79.344 64.1925 79.616 64.1445 79.92L63.3045 79.74C63.3125 79.572 63.3925 79.36 63.5445 79.104C63.6965 78.848 63.8965 78.62 64.1445 78.42C64.5685 78.092 65.0965 77.928 65.7285 77.928C66.8165 77.928 67.5405 78.34 67.9005 79.164C68.0205 79.444 68.0805 79.772 68.0805 80.148V81.828C68.0805 82.804 68.1125 83.528 68.1765 84H67.3125C67.2565 83.696 67.2285 83.348 67.2285 82.956C66.7245 83.724 66.0525 84.108 65.2125 84.108C64.6125 84.108 64.1325 83.94 63.7725 83.604C63.3965 83.276 63.2085 82.856 63.2085 82.344V82.284C63.2085 81.692 63.4445 81.256 63.9165 80.976C64.3965 80.696 64.9485 80.556 65.5725 80.556ZM67.2285 81.48V81.276H65.5605C65.1925 81.276 64.8685 81.344 64.5885 81.48C64.2525 81.624 64.0845 81.888 64.0845 82.272C64.0845 82.6 64.2085 82.86 64.4565 83.052C64.6965 83.244 65.0005 83.34 65.3685 83.34C65.8885 83.34 66.3325 83.164 66.7005 82.812C67.0525 82.476 67.2285 82.032 67.2285 81.48ZM75.152 84H74.276V80.532C74.276 79.98 74.136 79.54 73.856 79.212C73.576 78.884 73.168 78.72 72.632 78.72C72.112 78.72 71.684 78.9 71.348 79.26C71.02 79.628 70.856 80.076 70.856 80.604V84H69.98V78.036H70.832V79.128C71.312 78.328 72 77.928 72.896 77.928C73.6 77.928 74.156 78.144 74.564 78.576C74.956 79.032 75.152 79.612 75.152 80.316V84ZM16.589 97.096C15.365 97.096 14.333 96.684 13.493 95.86C13.101 95.468 12.793 95 12.569 94.456C12.337 93.88 12.221 93.28 12.221 92.656C12.221 92 12.341 91.392 12.581 90.832C12.829 90.256 13.145 89.78 13.529 89.404C14.385 88.572 15.417 88.156 16.625 88.156C17.537 88.156 18.313 88.38 18.953 88.828C19.225 89.004 19.481 89.228 19.721 89.5C20.121 89.964 20.393 90.476 20.537 91.036L19.661 91.348C19.573 91.012 19.401 90.66 19.145 90.292C18.961 90.044 18.773 89.84 18.581 89.68C18.357 89.488 18.077 89.336 17.741 89.224C17.405 89.096 17.025 89.032 16.601 89.032C15.657 89.032 14.857 89.36 14.201 90.016C13.521 90.696 13.181 91.556 13.181 92.596C13.181 93.292 13.329 93.912 13.625 94.456C13.913 95.008 14.325 95.44 14.861 95.752C15.373 96.064 15.957 96.22 16.613 96.22C17.381 96.22 18.021 96.016 18.533 95.608C18.765 95.432 18.957 95.232 19.109 95.008C19.261 94.808 19.385 94.608 19.481 94.408C19.561 94.216 19.629 94.04 19.685 93.88L20.561 94.192C20.417 94.712 20.149 95.208 19.757 95.68C19.549 95.928 19.297 96.164 19.001 96.388C18.337 96.86 17.533 97.096 16.589 97.096ZM27.152 97H26.276V93.532C26.276 92.98 26.136 92.54 25.856 92.212C25.576 91.884 25.168 91.72 24.632 91.72C24.112 91.72 23.684 91.9 23.348 92.26C23.02 92.628 22.856 93.076 22.856 93.604V97H21.98V87.904H22.856V92.104C23.32 91.32 24 90.928 24.896 90.928C25.6 90.928 26.156 91.144 26.564 91.576C26.956 92.032 27.152 92.612 27.152 93.316V97ZM30.9904 93.556H32.6464V93.16C32.6464 92.192 32.1384 91.708 31.1224 91.708C30.6344 91.708 30.2584 91.84 29.9944 92.104C29.7544 92.344 29.6104 92.616 29.5624 92.92L28.7224 92.74C28.7304 92.572 28.8104 92.36 28.9624 92.104C29.1144 91.848 29.3144 91.62 29.5624 91.42C29.9864 91.092 30.5144 90.928 31.1464 90.928C32.2344 90.928 32.9584 91.34 33.3184 92.164C33.4384 92.444 33.4984 92.772 33.4984 93.148V94.828C33.4984 95.804 33.5304 96.528 33.5944 97H32.7304C32.6744 96.696 32.6464 96.348 32.6464 95.956C32.1424 96.724 31.4704 97.108 30.6304 97.108C30.0304 97.108 29.5504 96.94 29.1904 96.604C28.8144 96.276 28.6264 95.856 28.6264 95.344V95.284C28.6264 94.692 28.8624 94.256 29.3344 93.976C29.8144 93.696 30.3664 93.556 30.9904 93.556ZM32.6464 94.48V94.276H30.9784C30.6104 94.276 30.2864 94.344 30.0064 94.48C29.6704 94.624 29.5024 94.888 29.5024 95.272C29.5024 95.6 29.6264 95.86 29.8744 96.052C30.1144 96.244 30.4184 96.34 30.7864 96.34C31.3064 96.34 31.7504 96.164 32.1184 95.812C32.4704 95.476 32.6464 95.032 32.6464 94.48ZM39.334 95.308C39.334 95.844 39.13 96.272 38.722 96.592C38.314 96.928 37.814 97.096 37.222 97.096C36.35 97.096 35.714 96.808 35.314 96.232C35.114 95.96 34.994 95.656 34.954 95.32L35.746 95.116C35.802 95.444 35.95 95.732 36.19 95.98C36.438 96.22 36.778 96.34 37.21 96.34C37.538 96.34 37.83 96.248 38.086 96.064C38.326 95.896 38.446 95.66 38.446 95.356C38.446 95.116 38.35 94.924 38.158 94.78C37.982 94.636 37.754 94.532 37.474 94.468L36.562 94.264C35.57 94.048 35.074 93.528 35.074 92.704C35.074 92.088 35.322 91.628 35.818 91.324C36.242 91.06 36.67 90.928 37.102 90.928C37.918 90.936 38.514 91.2 38.89 91.72C39.074 91.984 39.194 92.252 39.25 92.524L38.458 92.752C38.402 92.52 38.286 92.296 38.11 92.08C37.894 91.824 37.558 91.696 37.102 91.696C36.774 91.696 36.502 91.788 36.286 91.972C36.062 92.148 35.95 92.372 35.95 92.644C35.95 93.044 36.238 93.316 36.814 93.46L37.774 93.676C38.214 93.78 38.582 93.968 38.878 94.24C39.182 94.512 39.334 94.868 39.334 95.308ZM46.1504 94.288H41.3264C41.3584 94.872 41.5784 95.356 41.9864 95.74C42.3864 96.132 42.8784 96.328 43.4624 96.328C43.9184 96.328 44.3064 96.22 44.6264 96.004C44.9464 95.78 45.1744 95.464 45.3104 95.056L46.0784 95.296C45.9104 95.856 45.5864 96.3 45.1064 96.628C44.6104 96.948 44.0664 97.108 43.4744 97.108C42.9144 97.108 42.3984 96.968 41.9264 96.688C41.4544 96.408 41.0944 96.032 40.8464 95.56C40.5824 95.096 40.4504 94.58 40.4504 94.012C40.4504 93.468 40.5744 92.964 40.8224 92.5C41.0544 92.028 41.4024 91.648 41.8664 91.36C42.3144 91.072 42.8104 90.928 43.3544 90.928C43.9544 90.928 44.4664 91.064 44.8904 91.336C45.3224 91.6 45.6424 91.964 45.8504 92.428C46.0584 92.868 46.1624 93.392 46.1624 94C46.1624 94.104 46.1584 94.2 46.1504 94.288ZM41.3384 93.544H45.2864C45.2304 93 45.0304 92.552 44.6864 92.2C44.3504 91.864 43.9064 91.696 43.3544 91.696C42.8504 91.696 42.4064 91.876 42.0224 92.236C41.6384 92.612 41.4104 93.048 41.3384 93.544ZM50.4007 93.004V92.716C50.4007 91.564 50.6807 90.516 51.2407 89.572C51.7927 88.62 52.5727 87.856 53.5807 87.28L53.9407 87.844C52.1727 88.98 51.2887 90.608 51.2887 92.728V92.992C51.2887 95.096 52.1727 96.72 53.9407 97.864L53.5807 98.452C52.5727 97.868 51.7927 97.1 51.2407 96.148C50.6807 95.204 50.4007 94.156 50.4007 93.004ZM56.7246 88.252H57.6366V94.276C57.6366 95.084 57.3886 95.756 56.8926 96.292C56.3966 96.82 55.7606 97.084 54.9846 97.084C54.1526 97.084 53.4886 96.832 52.9926 96.328C52.4966 95.816 52.2486 95.14 52.2486 94.3V93.436H53.1606V94.264C53.1606 94.928 53.3486 95.428 53.7246 95.764C54.0766 96.068 54.4846 96.22 54.9486 96.22C55.4606 96.22 55.8846 96.036 56.2206 95.668C56.5566 95.308 56.7246 94.852 56.7246 94.3V88.252ZM62.7616 93.58H60.9016V97H59.9776V88.252H62.9056C63.9136 88.244 64.6776 88.496 65.1976 89.008C65.7176 89.52 65.9776 90.144 65.9776 90.88C65.9776 91.64 65.7096 92.276 65.1736 92.788C64.6056 93.316 63.8016 93.58 62.7616 93.58ZM62.8336 89.116H60.9016V92.728H62.7856C63.5696 92.728 64.1496 92.532 64.5256 92.14C64.8696 91.796 65.0416 91.384 65.0416 90.904C65.0416 90.408 64.8696 89.988 64.5256 89.644C64.1816 89.292 63.6176 89.116 62.8336 89.116ZM75.395 88.252H76.715V97H75.803V89.5L72.551 97H71.723L68.495 89.56V97H67.583V88.252H68.891L72.155 95.752L75.395 88.252ZM81.7774 92.716V93.004C81.7774 94.164 81.5014 95.216 80.9494 96.16C80.3894 97.104 79.6054 97.868 78.5974 98.452L78.2374 97.864C80.0054 96.72 80.8894 95.096 80.8894 92.992V92.728C80.8894 90.608 80.0054 88.98 78.2374 87.844L78.5974 87.28C79.6054 87.848 80.3894 88.608 80.9494 89.56C81.5014 90.512 81.7774 91.564 81.7774 92.716Z" fill="white"/>
<defs>
<clipPath id="clip0_463_5522">
<rect width="28.9942" height="52.0657" fill="white" transform="matrix(-1 0 0 1 29.9704 0)"/>
</clipPath>
</defs>
</svg>
