<svg width="89" height="100" viewBox="0 0 89 100" fill="none" xmlns="http://www.w3.org/2000/svg">
<rect x="21.5026" y="24.1279" width="45.9342" height="45.9342" rx="22.9671" fill="#DC0001"/>
<rect x="21.5026" y="24.1279" width="45.9342" height="45.9342" rx="22.9671" stroke="#CDCCCC"/>
<g clip-path="url(#clip0_463_6148)">
<path d="M50.1041 36.8413C52.4964 36.8413 54.437 46.9344 54.437 59.3994H57.928C57.928 45.9796 54.4062 35.1163 50.0938 35.1163C47.6295 35.1163 45.4528 38.3712 44.0153 43.4845C42.5778 38.3712 40.4011 35.1163 37.9574 35.1163C33.6449 35.1163 30.1334 45.9693 30.1334 59.3892H33.6244C33.6244 46.9242 35.5445 36.8413 37.9368 36.8413C40.3292 36.8413 42.2698 46.1644 42.2698 57.6642H45.7403C45.7403 46.1644 47.6911 36.8413 50.0835 36.8413" fill="#FFCC00"/>
</g>
<path d="M22.9947 55.2288L23.606 54.4472C26.9584 50.1445 31.129 44.7916 29.418 37.6186L27.7876 30.7841L26.5815 31.0718C22.2268 32.1106 18.4895 30.9927 17.8881 28.4716L15.4759 29.047C16.0773 31.5681 13.247 34.2527 8.89229 35.2914L7.68618 35.5792L9.31651 42.4136C11.0276 49.5866 17.1656 52.4805 22.0974 54.8059L22.9947 55.2288Z" fill="#D84025"/>
<path d="M8.89226 35.2915C13.247 34.2527 16.0773 31.5682 15.4759 29.047L16.682 28.7593L22.9958 55.2274L22.9946 55.2289L22.0973 54.8059C17.1655 52.4806 11.0276 49.5868 9.31648 42.4137L7.68615 35.5792L8.89226 35.2915Z" fill="#A13023"/>
<path fill-rule="evenodd" clip-rule="evenodd" d="M54.4434 22.5884C54.7526 23.844 55.0605 25.0986 55.3671 26.3521C52.5429 27.9684 48.9769 28.8709 44.4975 28.8724V23.689L54.4434 22.5884Z" fill="#535353"/>
<path fill-rule="evenodd" clip-rule="evenodd" d="M34.5597 22.5884C34.2464 23.844 33.9357 25.0986 33.6278 26.3521C36.4581 27.9684 40.016 28.8709 44.4974 28.8724V23.689L34.5597 22.5884Z" fill="#676767"/>
<path fill-rule="evenodd" clip-rule="evenodd" d="M42.2742 9.0759C35.8216 3.36948 48.0228 3.91021 51.4613 1.01904C51.704 1.26047 51.8479 1.55073 51.8751 1.85375C51.9023 2.15677 51.8116 2.45917 51.6143 2.72338C53.1407 3.67161 55.8242 2.37786 57.2792 4.1953C55.6304 4.12403 54.6264 4.61829 54.0142 5.27988C58.5363 4.75618 56.767 7.94329 60.632 8.12302C57.7526 9.34239 50.9899 7.00126 46.8086 9.8506C44.921 9.79792 44.1618 9.13323 42.2742 9.0759Z" fill="#A23023"/>
<path fill-rule="evenodd" clip-rule="evenodd" d="M60.63 8.0703C57.7798 9.32968 51.0666 6.93003 46.9158 9.85058C46.1435 9.81775 45.3835 9.6841 44.6673 9.45514C50.0962 4.6606 54.9134 8.91676 60.632 8.0703H60.63Z" fill="#1A1A1A"/>
<path fill-rule="evenodd" clip-rule="evenodd" d="M42.6511 8.59114C43.3962 8.64919 44.1271 8.78313 44.8232 8.9892L44.8724 9.0014C44.6293 8.72992 44.3902 8.45845 44.1552 8.18697C42.0199 6.3705 46.5139 4.22155 49.2393 3.78078C50.2209 4.41524 51.7332 4.11479 52.5078 4.56013C51.8398 5.10004 51.4258 6.03344 50.7557 6.57335C58.4075 5.79857 54.9218 7.64096 58.594 7.99785C58.3468 7.87286 58.1223 7.72472 57.9259 7.55708C56.6964 6.51234 56.8788 5.37152 54.1984 5.67655L52.7066 5.84585C52.9702 5.57335 53.236 5.30136 53.5037 5.02988C54.108 4.39931 55.0175 3.9679 56.0407 3.82653C55.8008 3.72209 55.5366 3.65224 55.2619 3.62064C55.0001 3.59114 54.7358 3.57534 54.471 3.57336C53.2783 3.552 52.141 3.62216 51.1922 3.05175L50.8397 2.8367C50.9094 2.74214 50.9811 2.64911 51.0447 2.55607C51.2033 2.34726 51.2699 2.1067 51.2352 1.86823C50.0057 2.56217 48.3049 3.02887 46.8479 3.41626C45.6942 3.7213 44.4831 4.02633 43.3888 4.40609C42.6162 4.67757 41.7494 5.05429 41.3396 5.56979C40.5957 6.53064 41.7453 7.77975 42.6511 8.59114Z" fill="#EF4123"/>
<path fill-rule="evenodd" clip-rule="evenodd" d="M43.7259 8.71744C44.1136 8.79334 44.496 8.88402 44.8715 8.98912L44.9205 9.0014C44.6782 8.72818 44.4399 8.45496 44.2058 8.18175C42.078 6.35365 46.5562 4.19094 49.2721 3.74734C50.2502 4.38587 51.7572 4.08349 52.5291 4.53169C51.8634 5.07505 51.4509 6.01443 50.7832 6.55779C58.4081 5.77805 54.9346 7.63224 58.594 7.99142C56.6887 7.61843 56.7235 6.27076 55.6412 5.94689C54.5589 5.62302 53.1295 6.369 52.039 6.04513C52.1534 5.42041 52.67 4.91235 53.4215 4.13721C52.378 3.66292 49.7458 4.08656 50.2931 2.71741C47.9509 4.65909 40.4055 3.85479 43.2685 8.55013L43.7259 8.71744Z" fill="#D03927"/>
<path d="M44.4125 12.7378C46.3354 12.7378 47.8942 11.7113 47.8942 10.445C47.8942 9.17875 46.3354 8.15222 44.4125 8.15222C42.4897 8.15222 40.9309 9.17875 40.9309 10.445C40.9309 11.7113 42.4897 12.7378 44.4125 12.7378Z" fill="#CDCCCC"/>
<path fill-rule="evenodd" clip-rule="evenodd" d="M44.4279 10.53C48.7929 10.53 52.5226 12.2606 54.0145 14.7018C54.8158 14.9591 55.3671 15.489 55.3671 16.0954C55.363 16.2971 55.3022 16.4958 55.1885 16.6787C55.0748 16.8615 54.9108 17.0244 54.7072 17.1568C54.6334 20.7267 50.0594 23.6075 44.4279 23.6075C38.7964 23.6075 34.2388 20.7328 34.1527 17.1721C33.94 17.0393 33.7679 16.8739 33.648 16.6871C33.5282 16.5003 33.4634 16.2964 33.458 16.0893C33.458 15.4767 34.0277 14.9361 34.8474 14.6834C36.3455 12.2483 40.069 10.53 44.4279 10.53Z" fill="#8B8A8A"/>
<path fill-rule="evenodd" clip-rule="evenodd" d="M42.7991 20.2107C46.6371 20.2107 49.7624 18.2312 49.7624 15.7949C49.7624 13.3586 46.631 11.3792 42.7991 11.3792C38.9672 11.3792 35.8357 13.3586 35.8357 15.7949C35.8357 18.2312 38.959 20.2107 42.7991 20.2107Z" fill="#989898"/>
<path fill-rule="evenodd" clip-rule="evenodd" d="M40.6761 15.2854C42.127 15.2854 43.3086 14.5219 43.3086 13.587C43.3086 12.6522 42.127 11.8887 40.6761 11.8887C39.2253 11.8887 38.0436 12.6506 38.0436 13.587C38.0436 14.5235 39.2376 15.2854 40.6761 15.2854Z" fill="#ACACAC"/>
<path fill-rule="evenodd" clip-rule="evenodd" d="M44.4974 14.2665H44.3978C43.0093 14.2611 41.6312 14.4487 40.3309 14.82L32.7787 16.9646V23.3547C36.083 26.2792 39.9364 28.5695 44.4974 30.0613V14.2665Z" fill="#CDCCCC"/>
<path fill-rule="evenodd" clip-rule="evenodd" d="M42.7991 15.2854C42.1973 15.3616 41.6069 15.484 41.0364 15.651L39.5886 16.0678V26.7622C40.6103 27.3513 41.6823 27.8861 42.7971 28.3629V15.2854H42.7991ZM38.9088 16.2638L36.6568 16.9125V24.8458C37.3687 25.37 38.1187 25.8771 38.9088 26.3593V16.2638ZM35.979 17.1069L34.477 17.5394V23.0865C34.9583 23.5096 35.459 23.9244 35.979 24.3309V17.1069Z" fill="#333333"/>
<path fill-rule="evenodd" clip-rule="evenodd" d="M44.4975 14.2664H44.5971C45.9821 14.262 47.3567 14.4496 48.6538 14.82L56.2162 16.963V23.3532C52.9099 26.2792 49.0565 28.5695 44.4975 30.0613V14.2664Z" fill="#B4B4B4"/>
<path fill-rule="evenodd" clip-rule="evenodd" d="M46.1958 15.2854C46.8099 15.3618 47.4126 15.4842 47.9949 15.651L49.4726 16.0678V26.7622C48.4295 27.351 47.3354 27.8857 46.1979 28.3629V15.2854H46.1958ZM50.1665 16.2638L52.4629 16.9125V24.8458C51.7384 25.37 50.9729 25.8771 50.1665 26.3593V16.2638ZM53.1567 17.1069L54.6877 17.5394V23.0865C54.1979 23.5096 53.6875 23.9244 53.1567 24.3309V17.1069Z" fill="#1A1A1A"/>
<path fill-rule="evenodd" clip-rule="evenodd" d="M43.534 8.66174C44.1859 8.66174 44.4984 8.96662 44.2332 9.34109C44.0652 9.54109 43.8242 9.70857 43.5333 9.82751C43.2424 9.94646 42.9113 10.0129 42.5716 10.0204C41.9218 10.0204 41.6092 9.71696 41.8745 9.34109C42.0426 9.14147 42.2833 8.97426 42.5738 8.85535C42.8642 8.73645 43.1948 8.6698 43.534 8.66174Z" fill="#E3E3E3"/>
<g clip-path="url(#clip1_463_6148)">
<path fill-rule="evenodd" clip-rule="evenodd" d="M60.009 47.2835L60.145 47.3539C60.2992 47.4366 60.4708 47.4817 60.6458 47.4855C60.8207 47.4893 60.9941 47.4517 61.1518 47.3757C61.3116 47.3045 61.4523 47.1966 61.5626 47.0608C61.6728 46.925 61.7495 46.7651 61.7865 46.5942C62.0991 45.2279 62.7244 43.5585 63.6139 41.8343C64.5034 40.1101 65.5023 38.6345 66.4278 37.5887C66.5437 37.4584 66.6283 37.3033 66.6752 37.1353C66.722 36.9673 66.7298 36.7908 66.698 36.6193C66.6661 36.4478 66.5955 36.2859 66.4915 36.1459C66.3875 36.0058 66.2529 35.8914 66.0979 35.8114L65.9603 35.7411L66.5262 34.6469L69.1838 36.0162L71.8413 37.384L71.2754 38.4782L71.1394 38.4078C70.9837 38.3264 70.8114 38.2819 70.6357 38.2777C70.46 38.2736 70.2858 38.31 70.1265 38.3841C69.9671 38.4581 69.827 38.5679 69.7169 38.7049C69.6068 38.8418 69.5298 39.0023 69.4917 39.1738C69.1791 40.5384 68.5538 42.2095 67.6643 43.9321C66.7748 45.6547 65.7759 47.1319 64.8504 48.1776C64.7345 48.3081 64.6498 48.4633 64.603 48.6314C64.5562 48.7996 64.5484 48.9762 64.5802 49.1478C64.612 49.3194 64.6826 49.4814 64.7866 49.6216C64.8906 49.7618 65.0253 49.8763 65.1803 49.9565L65.3178 50.0269L64.7519 51.1211L62.0944 49.7533L59.4431 48.3793L60.009 47.2835Z" fill="#CA3927"/>
<path fill-rule="evenodd" clip-rule="evenodd" d="M66.7738 38.234C67.2121 38.4627 66.6034 40.5413 65.4123 42.8737C64.2213 45.2061 62.9001 46.9135 62.4695 46.6848C62.0389 46.4561 62.6399 44.3775 63.8309 42.0451C65.022 39.7127 66.3355 38.0053 66.7738 38.234Z" fill="#F04B23"/>
<path fill-rule="evenodd" clip-rule="evenodd" d="M86.1076 3.39673L84.6833 11.4454L71.3964 37.1944L67.0858 34.9697L80.3728 9.22067L86.1076 3.39673Z" fill="#D1D2D2"/>
<path fill-rule="evenodd" clip-rule="evenodd" d="M81.808 7.74434L84.0702 6.27113L83.2748 11.0728L71.3318 37.1944L84.6771 11.4454L86.1076 3.39673L81.808 7.74434Z" fill="#E6E6E5"/>
<path fill-rule="evenodd" clip-rule="evenodd" d="M82.3712 10.6998L76.0933 23.5217L69.8138 36.3452L69.1284 35.9965L68.4445 35.6477L75.4079 23.1745L82.3712 10.6998Z" fill="#818181"/>
<path fill-rule="evenodd" clip-rule="evenodd" d="M65.7727 33.4234L73.3723 37.3669C73.763 37.0841 74.2371 36.9418 74.7181 36.9631C75.1991 36.9844 75.6589 37.168 76.0235 37.4842C76.388 37.8005 76.6361 38.231 76.7275 38.7064C76.819 39.1817 76.7486 39.6742 76.5277 40.1044C76.3069 40.5346 75.9483 40.8775 75.51 41.0777C75.0716 41.2779 74.579 41.3238 74.1115 41.208C73.644 41.0922 73.2289 40.8214 72.9332 40.4394C72.6375 40.0573 72.4783 39.5862 72.4813 39.1021L64.8817 35.1585C64.4905 35.4422 64.0157 35.585 63.5338 35.5639C63.052 35.5429 62.5913 35.3592 62.226 35.0425C61.8607 34.7258 61.6121 34.2946 61.5204 33.8185C61.4286 33.3423 61.4991 32.8489 61.7204 32.418C61.9417 31.987 62.3008 31.6436 62.74 31.4431C63.1792 31.2426 63.6727 31.1968 64.1409 31.3129C64.6092 31.4291 65.0249 31.7005 65.3209 32.0834C65.617 32.4663 65.7761 32.9384 65.7727 33.4234Z" fill="#333333"/>
</g>
<path d="M21.5474 75.252H22.8674V84H21.9554V76.5L18.7034 84H17.8754L14.6474 76.56V84H13.7354V75.252H15.0434L18.3074 82.752L21.5474 75.252ZM25.5298 80.988C25.5298 81.884 25.8658 82.552 26.5378 82.992C26.8658 83.216 27.2498 83.328 27.6898 83.328C28.1698 83.328 28.5778 83.204 28.9138 82.956C29.0338 82.868 29.1578 82.748 29.2858 82.596C29.4618 82.364 29.5938 82.132 29.6818 81.9L30.4858 82.164C30.3498 82.644 30.0458 83.076 29.5738 83.46C29.0618 83.892 28.4298 84.108 27.6778 84.108C26.8218 84.124 26.0978 83.836 25.5058 83.244C24.9218 82.652 24.6338 81.916 24.6418 81.036C24.6418 80.46 24.7818 79.928 25.0618 79.44C25.3418 78.96 25.7138 78.588 26.1778 78.324C26.6418 78.06 27.1538 77.928 27.7138 77.928C28.3858 77.928 28.9778 78.112 29.4898 78.48C30.0098 78.872 30.3298 79.324 30.4498 79.836L29.6578 80.1C29.5698 79.78 29.3538 79.468 29.0098 79.164C28.6738 78.86 28.2338 78.708 27.6898 78.708C27.0658 78.708 26.5498 78.928 26.1418 79.368C25.7338 79.816 25.5298 80.356 25.5298 80.988ZM32.169 84V75.252H34.773C35.453 75.252 36.077 75.364 36.645 75.588C37.213 75.804 37.701 76.108 38.109 76.5C38.965 77.332 39.393 78.368 39.393 79.608C39.393 80.248 39.273 80.844 39.033 81.396C38.801 81.924 38.473 82.388 38.049 82.788C37.161 83.596 36.069 84 34.773 84H32.169ZM33.093 76.116V83.136H34.737C35.465 83.136 36.109 82.984 36.669 82.68C37.245 82.376 37.681 81.964 37.977 81.444C38.289 80.916 38.445 80.312 38.445 79.632C38.445 78.624 38.109 77.784 37.437 77.112C36.773 76.448 35.873 76.116 34.737 76.116H33.093ZM43.6042 84.108C43.0522 84.108 42.5362 83.972 42.0562 83.7C41.5842 83.42 41.2162 83.048 40.9522 82.584C40.6802 82.12 40.5442 81.604 40.5442 81.036C40.5442 80.148 40.8402 79.412 41.4322 78.828C42.0242 78.228 42.7562 77.928 43.6282 77.928C44.4762 77.912 45.2042 78.212 45.8122 78.828C46.4282 79.436 46.7282 80.16 46.7122 81C46.7282 81.864 46.4282 82.604 45.8122 83.22C45.1962 83.828 44.4602 84.124 43.6042 84.108ZM43.6282 83.328C44.2522 83.328 44.7762 83.104 45.2002 82.656C45.6082 82.208 45.8122 81.668 45.8122 81.036C45.8122 80.396 45.6042 79.844 45.1882 79.38C44.7642 78.924 44.2362 78.696 43.6042 78.696C42.9722 78.696 42.4522 78.92 42.0442 79.368C41.6362 79.816 41.4322 80.36 41.4322 81C41.4162 81.632 41.6202 82.18 42.0442 82.644C42.4762 83.108 43.0042 83.336 43.6282 83.328ZM53.4138 84H52.5378V80.532C52.5378 79.98 52.3978 79.54 52.1178 79.212C51.8378 78.884 51.4298 78.72 50.8938 78.72C50.3738 78.72 49.9458 78.9 49.6098 79.26C49.2818 79.628 49.1178 80.076 49.1178 80.604V84H48.2418V78.036H49.0938V79.128C49.5738 78.328 50.2618 77.928 51.1578 77.928C51.8618 77.928 52.4178 78.144 52.8258 78.576C53.2178 79.032 53.4138 79.612 53.4138 80.316V84ZM57.2522 80.556H58.9082V80.16C58.9082 79.192 58.4002 78.708 57.3842 78.708C56.8962 78.708 56.5202 78.84 56.2562 79.104C56.0162 79.344 55.8722 79.616 55.8242 79.92L54.9842 79.74C54.9922 79.572 55.0722 79.36 55.2242 79.104C55.3762 78.848 55.5762 78.62 55.8242 78.42C56.2482 78.092 56.7762 77.928 57.4082 77.928C58.4962 77.928 59.2202 78.34 59.5802 79.164C59.7002 79.444 59.7602 79.772 59.7602 80.148V81.828C59.7602 82.804 59.7922 83.528 59.8562 84H58.9922C58.9362 83.696 58.9082 83.348 58.9082 82.956C58.4042 83.724 57.7322 84.108 56.8922 84.108C56.2922 84.108 55.8122 83.94 55.4522 83.604C55.0762 83.276 54.8882 82.856 54.8882 82.344V82.284C54.8882 81.692 55.1242 81.256 55.5962 80.976C56.0762 80.696 56.6282 80.556 57.2522 80.556ZM58.9082 81.48V81.276H57.2402C56.8722 81.276 56.5482 81.344 56.2682 81.48C55.9322 81.624 55.7642 81.888 55.7642 82.272C55.7642 82.6 55.8882 82.86 56.1362 83.052C56.3762 83.244 56.6802 83.34 57.0482 83.34C57.5682 83.34 58.0122 83.164 58.3802 82.812C58.7322 82.476 58.9082 82.032 58.9082 81.48ZM61.6598 84V74.892H62.5358V84H61.6598ZM64.0754 81.012C64.0754 80.212 64.3314 79.504 64.8434 78.888C65.3634 78.248 66.0394 77.928 66.8714 77.928C67.4234 77.928 67.8954 78.068 68.2874 78.348C68.6234 78.588 68.9234 78.9 69.1874 79.284V74.904H70.0514V84H69.1994V82.728C68.6554 83.632 67.8794 84.084 66.8714 84.084C66.0394 84.084 65.3594 83.776 64.8314 83.16C64.3274 82.552 64.0754 81.836 64.0754 81.012ZM67.0514 83.328C67.6514 83.336 68.1634 83.104 68.5874 82.632C69.0114 82.16 69.2154 81.616 69.1994 81C69.1994 80.608 69.1074 80.24 68.9234 79.896C68.7394 79.544 68.4834 79.256 68.1554 79.032C67.8194 78.816 67.4514 78.708 67.0514 78.708C66.4114 78.708 65.9074 78.928 65.5394 79.368C65.1554 79.816 64.9634 80.372 64.9634 81.036C64.9634 81.908 65.2874 82.564 65.9354 83.004C66.2634 83.22 66.6354 83.328 67.0514 83.328ZM71.7432 76.164C71.7432 75.596 71.9112 75.312 72.2472 75.312C72.5912 75.312 72.7632 75.596 72.7632 76.164C72.7632 76.252 72.7512 76.368 72.7272 76.512L72.4512 78.816H72.0552L71.7672 76.512C71.7512 76.336 71.7432 76.22 71.7432 76.164ZM77.9122 82.308C77.9122 82.844 77.7082 83.272 77.3002 83.592C76.8922 83.928 76.3922 84.096 75.8002 84.096C74.9282 84.096 74.2922 83.808 73.8922 83.232C73.6922 82.96 73.5722 82.656 73.5322 82.32L74.3242 82.116C74.3802 82.444 74.5282 82.732 74.7682 82.98C75.0162 83.22 75.3562 83.34 75.7882 83.34C76.1162 83.34 76.4082 83.248 76.6642 83.064C76.9042 82.896 77.0242 82.66 77.0242 82.356C77.0242 82.116 76.9282 81.924 76.7362 81.78C76.5602 81.636 76.3322 81.532 76.0522 81.468L75.1402 81.264C74.1482 81.048 73.6522 80.528 73.6522 79.704C73.6522 79.088 73.9002 78.628 74.3962 78.324C74.8202 78.06 75.2482 77.928 75.6802 77.928C76.4962 77.936 77.0922 78.2 77.4682 78.72C77.6522 78.984 77.7722 79.252 77.8282 79.524L77.0362 79.752C76.9802 79.52 76.8642 79.296 76.6882 79.08C76.4722 78.824 76.1362 78.696 75.6802 78.696C75.3522 78.696 75.0802 78.788 74.8642 78.972C74.6402 79.148 74.5282 79.372 74.5282 79.644C74.5282 80.044 74.8162 80.316 75.3922 80.46L76.3522 80.676C76.7922 80.78 77.1602 80.968 77.4562 81.24C77.7602 81.512 77.9122 81.868 77.9122 82.308ZM27.3441 93.004V92.716C27.3441 91.564 27.6241 90.516 28.1841 89.572C28.7361 88.62 29.5161 87.856 30.5241 87.28L30.8841 87.844C29.1161 88.98 28.2321 90.608 28.2321 92.728V92.992C28.2321 95.096 29.1161 96.72 30.8841 97.864L30.5241 98.452C29.5161 97.868 28.7361 97.1 28.1841 96.148C27.6241 95.204 27.3441 94.156 27.3441 93.004ZM40.2095 88.252H41.5295V97H40.6175V89.5L37.3655 97H36.5375L33.3095 89.56V97H32.3975V88.252H33.7055L36.9695 95.752L40.2095 88.252ZM47.72 97.096C46.496 97.096 45.464 96.684 44.624 95.86C44.232 95.468 43.924 95 43.7 94.456C43.468 93.88 43.352 93.28 43.352 92.656C43.352 92 43.472 91.392 43.712 90.832C43.96 90.256 44.276 89.78 44.66 89.404C45.516 88.572 46.548 88.156 47.756 88.156C48.668 88.156 49.444 88.38 50.084 88.828C50.356 89.004 50.612 89.228 50.852 89.5C51.252 89.964 51.524 90.476 51.668 91.036L50.792 91.348C50.704 91.012 50.532 90.66 50.276 90.292C50.092 90.044 49.904 89.84 49.712 89.68C49.488 89.488 49.208 89.336 48.872 89.224C48.536 89.096 48.156 89.032 47.732 89.032C46.788 89.032 45.988 89.36 45.332 90.016C44.652 90.696 44.312 91.556 44.312 92.596C44.312 93.292 44.46 93.912 44.756 94.456C45.044 95.008 45.456 95.44 45.992 95.752C46.504 96.064 47.088 96.22 47.744 96.22C48.512 96.22 49.152 96.016 49.664 95.608C49.896 95.432 50.088 95.232 50.24 95.008C50.392 94.808 50.516 94.608 50.612 94.408C50.692 94.216 50.76 94.04 50.816 93.88L51.692 94.192C51.548 94.712 51.28 95.208 50.888 95.68C50.68 95.928 50.428 96.164 50.132 96.388C49.468 96.86 48.664 97.096 47.72 97.096ZM53.339 97V88.252H55.943C56.623 88.252 57.247 88.364 57.815 88.588C58.383 88.804 58.871 89.108 59.279 89.5C60.135 90.332 60.563 91.368 60.563 92.608C60.563 93.248 60.443 93.844 60.203 94.396C59.971 94.924 59.643 95.388 59.219 95.788C58.331 96.596 57.239 97 55.943 97H53.339ZM54.263 89.116V96.136H55.907C56.635 96.136 57.279 95.984 57.839 95.68C58.415 95.376 58.851 94.964 59.147 94.444C59.459 93.916 59.615 93.312 59.615 92.632C59.615 91.624 59.279 90.784 58.607 90.112C57.943 89.448 57.043 89.116 55.907 89.116H54.263ZM63.6545 92.716V93.004C63.6545 94.164 63.3785 95.216 62.8265 96.16C62.2665 97.104 61.4825 97.868 60.4745 98.452L60.1145 97.864C61.8825 96.72 62.7665 95.096 62.7665 92.992V92.728C62.7665 90.608 61.8825 88.98 60.1145 87.844L60.4745 87.28C61.4825 87.848 62.2665 88.608 62.8265 89.56C63.3785 90.512 63.6545 91.564 63.6545 92.716Z" fill="white"/>
<defs>
<clipPath id="clip0_463_6148">
<rect width="28" height="24.4884" fill="white" transform="translate(29.9999 35)"/>
</clipPath>
<clipPath id="clip1_463_6148">
<rect width="28.8843" height="51.8684" fill="white" transform="translate(59.613)"/>
</clipPath>
</defs>
</svg>
