<svg width="90" height="98" viewBox="0 0 90 98" fill="none" xmlns="http://www.w3.org/2000/svg">
<rect x="21.5801" y="24.1279" width="45.9342" height="45.9342" rx="22.9671" fill="white"/>
<rect x="21.5801" y="24.1279" width="45.9342" height="45.9342" rx="22.9671" stroke="#CDCCCC"/>
<path d="M44.0517 34.1293L31.5814 34.1293L31.5814 46.5996L44.0517 46.5996L44.0517 34.1293Z" fill="#F25022"/>
<path d="M57.8347 34.1293L45.3644 34.1293L45.3644 46.5996L57.8347 46.5996L57.8347 34.1293Z" fill="#7FBA00"/>
<path d="M44.0517 47.9122L31.5814 47.9122L31.5814 60.3825L44.0517 60.3825L44.0517 47.9122Z" fill="#00A4EF"/>
<path d="M57.8347 47.9122L45.3644 47.9122L45.3644 60.3825L57.8347 60.3825L57.8347 47.9122Z" fill="#FFB900"/>
<path d="M66.9177 55.4018L66.3041 54.6172C62.9389 50.2981 58.7524 44.9249 60.47 37.7246L62.1065 30.8641L63.3172 31.1529C67.6885 32.1956 71.4401 31.0735 72.0437 28.5428L74.4651 29.1204C73.8614 31.6511 76.7025 34.3459 81.0738 35.3886L82.2845 35.6774L80.6479 42.5379C78.9303 49.7382 72.769 52.6431 67.8184 54.9772L66.9177 55.4018Z" fill="#7AB9E8"/>
<path d="M81.0738 35.3887C76.7025 34.3459 73.8614 31.6512 74.4651 29.1205L73.2544 28.8317L66.9166 55.4004L66.9178 55.4019L67.8185 54.9773C72.7691 52.6431 78.9304 49.7383 80.648 42.538L82.2845 35.6775L81.0738 35.3887Z" fill="#579ADF"/>
<path fill-rule="evenodd" clip-rule="evenodd" d="M35.1479 22.6744C34.8375 23.9348 34.5284 25.1941 34.2207 26.4524C37.0557 28.0748 40.6352 28.9808 45.1317 28.9823V23.7792L35.1479 22.6744Z" fill="#535353"/>
<path fill-rule="evenodd" clip-rule="evenodd" d="M55.1073 22.6744C55.4218 23.9348 55.7336 25.1941 56.0427 26.4524C53.2016 28.0748 49.6302 28.9808 45.1317 28.9823V23.7792L55.1073 22.6744Z" fill="#676767"/>
<path fill-rule="evenodd" clip-rule="evenodd" d="M47.3634 9.11046C53.8405 3.38232 41.593 3.92512 38.1414 1.02295C37.8977 1.26529 37.7533 1.55666 37.726 1.86083C37.6987 2.165 37.7897 2.46856 37.9877 2.73377C36.4555 3.68561 33.7618 2.38694 32.3013 4.21129C33.9564 4.13975 34.9643 4.63589 35.5788 5.3C31.0395 4.77431 32.8155 7.97354 28.9358 8.15395C31.8261 9.37797 38.6146 7.02792 42.8118 9.8881C44.7066 9.83522 45.4686 9.168 47.3634 9.11046Z" fill="#1B2241"/>
<path fill-rule="evenodd" clip-rule="evenodd" d="M28.9378 8.10108C31.7988 9.36525 38.5376 6.95647 42.7041 9.88814C43.4794 9.85518 44.2423 9.72102 44.9612 9.49119C39.5116 4.67842 34.6761 8.95077 28.9358 8.10108H28.9378Z" fill="#1A1A1A"/>
<path fill-rule="evenodd" clip-rule="evenodd" d="M46.9851 8.62385C46.2371 8.68213 45.5035 8.81658 44.8047 9.02344L44.7553 9.03568C44.9994 8.76317 45.2394 8.49066 45.4753 8.21815C47.6187 6.39477 43.1076 4.23764 40.3718 3.79519C39.3865 4.43208 37.8684 4.13048 37.0909 4.57752C37.7615 5.11948 38.177 6.05643 38.8496 6.59839C31.1687 5.82066 34.6677 7.67006 30.9816 8.02831C31.2297 7.90284 31.455 7.75414 31.6521 7.58586C32.8863 6.53715 32.7033 5.39199 35.3938 5.69818L36.8913 5.86812C36.6267 5.59459 36.36 5.32157 36.0912 5.04905C35.4846 4.41608 34.5717 3.98303 33.5446 3.84112C33.7854 3.73628 34.0506 3.66616 34.3263 3.63444C34.5891 3.60483 34.8544 3.58897 35.1203 3.58698C36.3174 3.56555 37.4591 3.63597 38.4115 3.06339L38.7653 2.84753C38.6953 2.75261 38.6234 2.65922 38.5596 2.56583C38.4004 2.35623 38.3335 2.11475 38.3683 1.87537C39.6025 2.57195 41.3098 3.04043 42.7723 3.42929C43.9304 3.73549 45.1461 4.04168 46.2446 4.42289C47.0201 4.6954 47.8902 5.07355 48.3016 5.59102C49.0483 6.55552 47.8943 7.80938 46.9851 8.62385Z" fill="#4386BB"/>
<path fill-rule="evenodd" clip-rule="evenodd" d="M45.9062 8.75064C45.517 8.82683 45.1332 8.91786 44.7563 9.02336L44.7071 9.03568C44.9503 8.76142 45.1894 8.48717 45.4245 8.21291C47.5604 6.37786 43.0652 4.20692 40.3389 3.76164C39.3571 4.4026 37.8443 4.09907 37.0695 4.54897C37.7377 5.0944 38.1518 6.03735 38.8221 6.58278C31.1681 5.80007 34.6548 7.66132 30.9816 8.02186C32.894 7.64745 32.8592 6.29466 33.9456 5.96956C35.032 5.64445 36.4668 6.39327 37.5614 6.06817C37.4466 5.44107 36.928 4.93108 36.1737 4.15299C37.2212 3.6769 39.8634 4.10215 39.314 2.72778C41.6651 4.67685 49.2392 3.86949 46.3654 8.5827L45.9062 8.75064Z" fill="#283A84"/>
<path d="M45.217 12.7863C43.2868 12.7863 41.722 11.7559 41.722 10.4848C41.722 9.21366 43.2868 8.18323 45.217 8.18323C47.1471 8.18323 48.7119 9.21366 48.7119 10.4848C48.7119 11.7559 47.1471 12.7863 45.217 12.7863Z" fill="#CDCCCC"/>
<path fill-rule="evenodd" clip-rule="evenodd" d="M45.2015 10.5701C40.8199 10.5701 37.076 12.3072 35.5784 14.7578C34.7741 15.016 34.2208 15.5479 34.2208 16.1567C34.2248 16.3591 34.2859 16.5586 34.4 16.7422C34.5141 16.9257 34.6788 17.0893 34.8831 17.2221C34.9572 20.8056 39.5486 23.6973 45.2015 23.6973C50.8544 23.6973 55.4294 20.8117 55.5158 17.2375C55.7293 17.1041 55.9021 16.9381 56.0224 16.7506C56.1427 16.5631 56.2078 16.3585 56.2132 16.1506C56.2132 15.5356 55.6413 14.993 54.8184 14.7393C53.3147 12.295 49.577 10.5701 45.2015 10.5701Z" fill="#8B8A8A"/>
<path fill-rule="evenodd" clip-rule="evenodd" d="M46.8365 20.2876C42.9839 20.2876 39.8467 18.3006 39.8467 15.8551C39.8467 13.4095 42.9901 11.4225 46.8365 11.4225C50.683 11.4225 53.8264 13.4095 53.8264 15.8551C53.8264 18.3006 50.6912 20.2876 46.8365 20.2876Z" fill="#989898"/>
<path fill-rule="evenodd" clip-rule="evenodd" d="M48.9676 15.3436C47.5112 15.3436 46.3251 14.5772 46.3251 13.6388C46.3251 12.7004 47.5112 11.934 48.9676 11.934C50.424 11.934 51.6101 12.6988 51.6101 13.6388C51.6101 14.5788 50.4116 15.3436 48.9676 15.3436Z" fill="#ACACAC"/>
<path fill-rule="evenodd" clip-rule="evenodd" d="M45.1317 14.3208H45.2317C46.6255 14.3154 48.0089 14.5037 49.3141 14.8765L56.8951 17.0292V23.4436C53.5781 26.3793 49.7101 28.6783 45.1317 30.1757V14.3208Z" fill="#CDCCCC"/>
<path fill-rule="evenodd" clip-rule="evenodd" d="M46.8365 15.3436C47.4406 15.4201 48.0333 15.543 48.6059 15.7106L50.0593 16.129V26.8641C49.0336 27.4554 47.9576 27.9922 46.8386 28.4709V15.3436H46.8365ZM50.7416 16.3258L53.0022 16.9769V24.9404C52.2876 25.4666 51.5347 25.9756 50.7416 26.4597V16.3258ZM53.6826 17.1721L55.1902 17.6062V23.1744C54.7071 23.5991 54.2046 24.0155 53.6826 24.4236V17.1721Z" fill="#333333"/>
<path fill-rule="evenodd" clip-rule="evenodd" d="M45.1317 14.3208H45.0317C43.6414 14.3163 42.2615 14.5046 40.9595 14.8764L33.3683 17.0276V23.4421C36.6873 26.3793 40.5554 28.6783 45.1317 30.1757V14.3208Z" fill="#B4B4B4"/>
<path fill-rule="evenodd" clip-rule="evenodd" d="M43.4269 15.3436C42.8104 15.4203 42.2055 15.5432 41.6209 15.7106L40.1376 16.129V26.8641C41.1847 27.4551 42.2829 27.9919 43.4248 28.4709V15.3436H43.4269ZM39.4411 16.3258L37.1359 16.9769V24.9404C37.8632 25.4666 38.6316 25.9756 39.4411 26.4597V16.3258ZM36.4395 17.1721L34.9027 17.6062V23.1744C35.3944 23.5991 35.9067 24.0155 36.4395 24.4236V17.1721Z" fill="#1A1A1A"/>
<path fill-rule="evenodd" clip-rule="evenodd" d="M46.0988 8.6947C45.4445 8.6947 45.1307 9.00073 45.397 9.37664C45.5656 9.5774 45.8075 9.74551 46.0995 9.86491C46.3915 9.9843 46.7239 10.051 47.0649 10.0586C47.7171 10.0586 48.0309 9.75394 47.7646 9.37664C47.5959 9.17625 47.3542 9.00841 47.0627 8.88905C46.7711 8.76969 46.4393 8.70279 46.0988 8.6947Z" fill="#E3E3E3"/>
<g clip-path="url(#clip0_186_6880)">
<g filter="url(#filter0_d_186_6880)">
<path fill-rule="evenodd" clip-rule="evenodd" d="M29.5728 47.4634L29.4363 47.534C29.2815 47.6171 29.1093 47.6624 28.9337 47.6662C28.758 47.67 28.584 47.6323 28.4257 47.556C28.2654 47.4845 28.1241 47.3762 28.0134 47.2399C27.9027 47.1036 27.8257 46.9431 27.7886 46.7714C27.4748 45.4 26.8471 43.7242 25.9542 41.9935C25.0614 40.2628 24.0587 38.7815 23.1297 37.7318C23.0133 37.601 22.9284 37.4453 22.8813 37.2766C22.8343 37.108 22.8265 36.9308 22.8584 36.7587C22.8904 36.5865 22.9613 36.424 23.0657 36.2834C23.1701 36.1428 23.3052 36.028 23.4608 35.9477L23.5989 35.8771L23.0308 34.7787L20.3632 36.1532L17.6956 37.5262L18.2636 38.6246L18.4001 38.554C18.5564 38.4722 18.7294 38.4275 18.9057 38.4234C19.0821 38.4193 19.257 38.4558 19.4169 38.5301C19.5769 38.6045 19.7175 38.7147 19.828 38.8521C19.9385 38.9896 20.0159 39.1507 20.0541 39.3228C20.3679 40.6927 20.9956 42.3701 21.8885 44.0992C22.7813 45.8284 23.784 47.3112 24.713 48.361C24.8294 48.4919 24.9144 48.6477 24.9614 48.8165C25.0084 48.9852 25.0162 49.1625 24.9843 49.3348C24.9523 49.507 24.8815 49.6697 24.7771 49.8104C24.6727 49.9511 24.5375 50.0661 24.3819 50.1466L24.2438 50.2172L24.8119 51.3156L27.4795 49.9426L30.1409 48.5634L29.5728 47.4634Z" fill="#4592CF"/>
<path fill-rule="evenodd" clip-rule="evenodd" d="M22.7823 38.3795C22.3423 38.6091 22.9534 40.6956 24.149 43.0369C25.3446 45.3781 26.6708 47.092 27.103 46.8625C27.5352 46.6329 26.932 44.5463 25.7364 42.2051C24.5408 39.8638 23.2223 38.1499 22.7823 38.3795Z" fill="#283A84"/>
<path fill-rule="evenodd" clip-rule="evenodd" d="M3.37494 3.40967L4.80469 11.4889L18.1422 37.3359L22.4691 35.1028L9.13163 9.25577L3.37494 3.40967Z" fill="#D1D2D2"/>
<path fill-rule="evenodd" clip-rule="evenodd" d="M7.69088 7.77382L5.42007 6.295L6.21856 11.1149L18.207 37.3359L4.81094 11.4889L3.37492 3.40967L7.69088 7.77382Z" fill="#E6E6E5"/>
<path fill-rule="evenodd" clip-rule="evenodd" d="M7.12556 10.7405L13.4273 23.6112L19.7307 36.4835L20.4188 36.1334L21.1052 35.7833L14.1154 23.2627L7.12556 10.7405Z" fill="#818181"/>
<path fill-rule="evenodd" clip-rule="evenodd" d="M23.7872 33.5505L16.1587 37.5091C15.7665 37.2252 15.2906 37.0824 14.8078 37.1037C14.325 37.1251 13.8634 37.3094 13.4974 37.6268C13.1315 37.9443 12.8825 38.3765 12.7907 38.8536C12.6989 39.3308 12.7695 39.8251 12.9913 40.257C13.213 40.6888 13.5729 41.033 14.0129 41.234C14.4529 41.4349 14.9475 41.481 15.4167 41.3648C15.886 41.2485 16.3026 40.9768 16.5995 40.5932C16.8964 40.2097 17.0561 39.7368 17.0531 39.2508L24.6816 35.2923C25.0743 35.577 25.5509 35.7203 26.0346 35.6992C26.5183 35.6781 26.9808 35.4937 27.3475 35.1758C27.7142 34.8579 27.9637 34.4251 28.0557 33.9471C28.1478 33.4691 28.0771 32.9739 27.855 32.5413C27.6329 32.1087 27.2723 31.764 26.8315 31.5627C26.3906 31.3615 25.8952 31.3155 25.4252 31.4321C24.9552 31.5487 24.5379 31.8212 24.2407 32.2055C23.9436 32.5899 23.7838 33.0637 23.7872 33.5505Z" fill="#333333"/>
</g>
</g>
<path d="M29.1346 74.761H30.4546V83.509H29.5426V76.009L26.2906 83.509H25.4626L22.2346 76.069V83.509H21.3226V74.761H22.6306L25.8946 82.261L29.1346 74.761ZM32.6371 75.877C32.5091 75.733 32.4451 75.577 32.4451 75.409C32.4451 75.241 32.5091 75.085 32.6371 74.941C32.7651 74.813 32.9211 74.749 33.1051 74.749C33.2811 74.749 33.4331 74.813 33.5611 74.941C33.6891 75.069 33.7531 75.225 33.7531 75.409C33.7531 75.593 33.6891 75.749 33.5611 75.877C33.4331 76.005 33.2811 76.069 33.1051 76.069C32.9211 76.069 32.7651 76.005 32.6371 75.877ZM32.6611 83.509V77.545H33.5371V83.509H32.6611ZM35.9647 80.497C35.9647 81.393 36.3007 82.061 36.9727 82.501C37.3007 82.725 37.6847 82.837 38.1247 82.837C38.6047 82.837 39.0127 82.713 39.3487 82.465C39.4687 82.377 39.5927 82.257 39.7207 82.105C39.8967 81.873 40.0287 81.641 40.1167 81.409L40.9207 81.673C40.7847 82.153 40.4807 82.585 40.0087 82.969C39.4967 83.401 38.8647 83.617 38.1127 83.617C37.2567 83.633 36.5327 83.345 35.9407 82.753C35.3567 82.161 35.0687 81.425 35.0767 80.545C35.0767 79.969 35.2167 79.437 35.4967 78.949C35.7767 78.469 36.1487 78.097 36.6127 77.833C37.0767 77.569 37.5887 77.437 38.1487 77.437C38.8207 77.437 39.4127 77.621 39.9247 77.989C40.4447 78.381 40.7647 78.833 40.8847 79.345L40.0927 79.609C40.0047 79.289 39.7887 78.977 39.4447 78.673C39.1087 78.369 38.6687 78.217 38.1247 78.217C37.5007 78.217 36.9847 78.437 36.5767 78.877C36.1687 79.325 35.9647 79.865 35.9647 80.497ZM42.3759 77.545H43.2279V78.721C43.5079 78.153 43.9159 77.769 44.4519 77.569C44.6679 77.489 44.9039 77.449 45.1599 77.449C45.3119 77.449 45.4079 77.457 45.4479 77.473V78.397C45.3839 78.381 45.2719 78.373 45.1119 78.373C44.4639 78.373 43.9919 78.589 43.6959 79.021C43.3999 79.453 43.2519 79.977 43.2519 80.593V83.509H42.3759V77.545ZM48.7891 83.617C48.2371 83.617 47.7211 83.481 47.2411 83.209C46.7691 82.929 46.4011 82.557 46.1371 82.093C45.8651 81.629 45.7291 81.113 45.7291 80.545C45.7291 79.657 46.0251 78.921 46.6171 78.337C47.2091 77.737 47.9411 77.437 48.8131 77.437C49.6611 77.421 50.3891 77.721 50.9971 78.337C51.6131 78.945 51.9131 79.669 51.8971 80.509C51.9131 81.373 51.6131 82.113 50.9971 82.729C50.3811 83.337 49.6451 83.633 48.7891 83.617ZM48.8131 82.837C49.4371 82.837 49.9611 82.613 50.3851 82.165C50.7931 81.717 50.9971 81.177 50.9971 80.545C50.9971 79.905 50.7891 79.353 50.3731 78.889C49.9491 78.433 49.4211 78.205 48.7891 78.205C48.1571 78.205 47.6371 78.429 47.2291 78.877C46.8211 79.325 46.6171 79.869 46.6171 80.509C46.6011 81.141 46.8051 81.689 47.2291 82.153C47.6611 82.617 48.1891 82.845 48.8131 82.837ZM57.3627 81.817C57.3627 82.353 57.1587 82.781 56.7507 83.101C56.3427 83.437 55.8427 83.605 55.2507 83.605C54.3787 83.605 53.7427 83.317 53.3427 82.741C53.1427 82.469 53.0227 82.165 52.9827 81.829L53.7747 81.625C53.8307 81.953 53.9787 82.241 54.2187 82.489C54.4667 82.729 54.8067 82.849 55.2387 82.849C55.5667 82.849 55.8587 82.757 56.1147 82.573C56.3547 82.405 56.4747 82.169 56.4747 81.865C56.4747 81.625 56.3787 81.433 56.1867 81.289C56.0107 81.145 55.7827 81.041 55.5027 80.977L54.5907 80.773C53.5987 80.557 53.1027 80.037 53.1027 79.213C53.1027 78.597 53.3507 78.137 53.8467 77.833C54.2707 77.569 54.6987 77.437 55.1307 77.437C55.9467 77.445 56.5427 77.709 56.9187 78.229C57.1027 78.493 57.2227 78.761 57.2787 79.033L56.4867 79.261C56.4307 79.029 56.3147 78.805 56.1387 78.589C55.9227 78.333 55.5867 78.205 55.1307 78.205C54.8027 78.205 54.5307 78.297 54.3147 78.481C54.0907 78.657 53.9787 78.881 53.9787 79.153C53.9787 79.553 54.2667 79.825 54.8427 79.969L55.8027 80.185C56.2427 80.289 56.6107 80.477 56.9067 80.749C57.2107 81.021 57.3627 81.377 57.3627 81.817ZM61.5391 83.617C60.9871 83.617 60.4711 83.481 59.9911 83.209C59.5191 82.929 59.1511 82.557 58.8871 82.093C58.6151 81.629 58.4791 81.113 58.4791 80.545C58.4791 79.657 58.7751 78.921 59.3671 78.337C59.9591 77.737 60.6911 77.437 61.5631 77.437C62.4111 77.421 63.1391 77.721 63.7471 78.337C64.3631 78.945 64.6631 79.669 64.6471 80.509C64.6631 81.373 64.3631 82.113 63.7471 82.729C63.1311 83.337 62.3951 83.633 61.5391 83.617ZM61.5631 82.837C62.1871 82.837 62.7111 82.613 63.1351 82.165C63.5431 81.717 63.7471 81.177 63.7471 80.545C63.7471 79.905 63.5391 79.353 63.1231 78.889C62.6991 78.433 62.1711 78.205 61.5391 78.205C60.9071 78.205 60.3871 78.429 59.9791 78.877C59.5711 79.325 59.3671 79.869 59.3671 80.509C59.3511 81.141 59.5551 81.689 59.9791 82.153C60.4111 82.617 60.9391 82.845 61.5631 82.837ZM68.2463 75.157C67.9983 75.157 67.7783 75.237 67.5863 75.397C67.3623 75.597 67.2503 75.937 67.2503 76.417V77.545H68.8103V78.301H67.2503V83.509H66.3863V78.301H65.2343V77.545H66.3863V76.441C66.3863 75.785 66.5503 75.273 66.8783 74.905C67.2143 74.561 67.6583 74.389 68.2103 74.389C68.4423 74.389 68.6583 74.425 68.8583 74.497V75.229C68.7143 75.181 68.5103 75.157 68.2463 75.157ZM72.0733 83.557C70.9453 83.557 70.3813 83.025 70.3813 81.961V78.313H69.2773V77.545H70.3813V75.829H71.2453V77.545H72.7573V78.313H71.2453V81.949C71.2453 82.509 71.5693 82.789 72.2173 82.789C72.3693 82.789 72.5493 82.773 72.7573 82.741V83.461C72.5493 83.525 72.3213 83.557 72.0733 83.557ZM26.3063 92.513V92.225C26.3063 91.073 26.5863 90.025 27.1463 89.081C27.6983 88.129 28.4783 87.365 29.4863 86.789L29.8463 87.353C28.0783 88.489 27.1943 90.117 27.1943 92.237V92.501C27.1943 94.605 28.0783 96.229 29.8463 97.373L29.4863 97.961C28.4783 97.377 27.6983 96.609 27.1463 95.657C26.5863 94.713 26.3063 93.665 26.3063 92.513ZM39.1718 87.761H40.4918V96.509H39.5798V89.009L36.3278 96.509H35.4998L32.2718 89.069V96.509H31.3598V87.761H32.6678L35.9318 95.261L39.1718 87.761ZM45.3502 96.593C44.5022 96.593 43.7902 96.337 43.2142 95.825C42.6542 95.337 42.3342 94.769 42.2542 94.121L43.1182 93.881C43.2142 94.393 43.4782 94.829 43.9102 95.189C44.3342 95.549 44.8142 95.729 45.3502 95.729C45.8862 95.729 46.3342 95.601 46.6942 95.345C47.1022 95.065 47.3062 94.661 47.3062 94.133C47.3062 93.589 47.0622 93.173 46.5742 92.885C46.3502 92.749 46.0742 92.649 45.7462 92.585L44.5942 92.357C44.3622 92.309 44.1062 92.225 43.8262 92.105C43.5382 91.969 43.2982 91.805 43.1062 91.613C42.6982 91.213 42.4942 90.709 42.4942 90.101C42.4942 89.621 42.6262 89.193 42.8902 88.817C43.1462 88.449 43.4862 88.161 43.9102 87.953C44.3262 87.761 44.7782 87.665 45.2662 87.665C46.1222 87.665 46.7902 87.877 47.2702 88.301C47.7582 88.725 48.0542 89.213 48.1582 89.765L47.3182 90.029C47.2302 89.637 47.0142 89.289 46.6702 88.985C46.3342 88.673 45.8622 88.517 45.2542 88.517C44.7742 88.501 44.3462 88.645 43.9702 88.949C43.5942 89.253 43.4102 89.625 43.4182 90.065C43.4182 90.409 43.5262 90.705 43.7422 90.953C43.9582 91.201 44.2742 91.365 44.6902 91.445L45.7942 91.661C46.5542 91.805 47.1222 92.061 47.4982 92.429C47.7542 92.661 47.9462 92.929 48.0742 93.233C48.1942 93.529 48.2542 93.797 48.2542 94.037C48.2622 94.797 47.9862 95.417 47.4262 95.897C46.8662 96.377 46.1742 96.609 45.3502 96.593ZM51.0103 88.625V91.769H55.1263V92.609H51.0103V96.509H50.0863V87.761H55.5103V88.625H51.0103ZM60.0442 88.625V96.509H59.1322V88.625H56.2042V87.761H62.9722V88.625H60.0442ZM67.0463 92.225V92.513C67.0463 93.673 66.7703 94.725 66.2183 95.669C65.6583 96.613 64.8743 97.377 63.8663 97.961L63.5063 97.373C65.2743 96.229 66.1583 94.605 66.1583 92.501V92.237C66.1583 90.117 65.2743 88.489 63.5063 87.353L63.8663 86.789C64.8743 87.357 65.6583 88.117 66.2183 89.069C66.7703 90.021 67.0463 91.073 67.0463 92.225Z" fill="white"/>
<defs>
<filter id="filter0_d_186_6880" x="-6.62509" y="-2.59033" width="46.766" height="67.9059" filterUnits="userSpaceOnUse" color-interpolation-filters="sRGB">
<feFlood flood-opacity="0" result="BackgroundImageFix"/>
<feColorMatrix in="SourceAlpha" type="matrix" values="0 0 0 0 0 0 0 0 0 0 0 0 0 0 0 0 0 0 127 0" result="hardAlpha"/>
<feOffset dy="4"/>
<feGaussianBlur stdDeviation="5"/>
<feComposite in2="hardAlpha" operator="out"/>
<feColorMatrix type="matrix" values="0 0 0 0 0 0 0 0 0 0 0 0 0 0 0 0 0 0 0.5 0"/>
<feBlend mode="normal" in2="BackgroundImageFix" result="effect1_dropShadow_186_6880"/>
<feBlend mode="normal" in="SourceGraphic" in2="effect1_dropShadow_186_6880" result="shape"/>
</filter>
<clipPath id="clip0_186_6880">
<rect width="28.9942" height="52.0657" fill="white" transform="matrix(-1 0 0 1 29.9704 0)"/>
</clipPath>
</defs>
</svg>
