<svg width="89" height="89" viewBox="0 0 89 89" fill="none" xmlns="http://www.w3.org/2000/svg">
<rect x="21.5024" y="24.1279" width="45.9342" height="45.9342" rx="22.9671" fill="#F8F9FC"/>
<rect x="21.5024" y="24.1279" width="45.9342" height="45.9342" rx="22.9671" stroke="#CDCCCC"/>
<path d="M47.6903 31.4749L47.678 38.3591L47.6657 45.2434L47.1002 43.6453V43.6412L46.3667 58.967C47.0879 60.9995 47.4731 62.0854 47.4772 62.0895C47.4813 62.0936 47.8911 62.1182 48.3869 62.1427C49.8867 62.2165 51.7471 62.3763 53.1608 62.5525C53.4887 62.5935 53.7673 62.614 53.7878 62.5976C53.8083 62.5812 53.8124 55.574 53.8083 47.0219L53.796 31.4749H47.6903Z" fill="#B1060F"/>
<path d="M36.647 31.4544V47.0178C36.647 55.5781 36.6552 62.5895 36.6675 62.6017C36.6798 62.614 37.2084 62.5608 37.8476 62.4911C38.4869 62.4214 39.3679 62.3313 39.8064 62.2944C40.4784 62.237 42.4945 62.11 42.724 62.1059C42.7937 62.1059 42.7978 61.7576 42.806 55.5126L42.8183 48.9192L43.3059 50.2961C43.3796 50.5092 43.4042 50.5747 43.478 50.7837L44.2115 35.4621C44.0558 35.0236 44.1377 35.2531 43.9615 34.7531C43.3633 33.0608 42.8551 31.6306 42.8346 31.5651L42.7937 31.4503H36.647V31.4544Z" fill="#B1060F"/>
<path d="M47.6903 31.4749L47.678 38.3591L47.6657 45.2434L47.1002 43.6453V43.6412L46.3667 58.967C47.0879 60.9995 47.4731 62.0854 47.4772 62.0895C47.4813 62.0936 47.8911 62.1182 48.3869 62.1427C49.8867 62.2165 51.7471 62.3763 53.1608 62.5525C53.4887 62.5935 53.7673 62.614 53.7878 62.5976C53.8083 62.5812 53.8124 55.574 53.8083 47.0219L53.796 31.4749H47.6903Z" fill="#B1060F"/>
<path d="M36.647 31.4544V47.0178C36.647 55.5781 36.6552 62.5895 36.6675 62.6017C36.6798 62.614 37.2084 62.5608 37.8476 62.4911C38.4869 62.4214 39.3679 62.3313 39.8064 62.2944C40.4784 62.237 42.4945 62.11 42.724 62.1059C42.7937 62.1059 42.7978 61.7576 42.806 55.5126L42.8183 48.9192L43.3059 50.2961C43.3796 50.5092 43.4042 50.5747 43.478 50.7837L44.2115 35.4621C44.0558 35.0236 44.1377 35.2531 43.9615 34.7531C43.3633 33.0608 42.8551 31.6306 42.8346 31.5651L42.7937 31.4503H36.647V31.4544Z" fill="#B1060F"/>
<path d="M36.647 31.4544V40.1909L42.8019 56.5165C42.8019 56.1436 42.8019 55.9387 42.806 55.5126L42.8183 48.9192L43.3059 50.2961C46.0104 57.9671 47.4652 62.0813 47.4733 62.0895C47.4774 62.0936 47.8872 62.1182 48.3831 62.1428C49.8828 62.2166 51.7432 62.3764 53.157 62.5526C53.4848 62.5936 53.7635 62.614 53.784 62.5977C53.7962 62.5854 53.8044 59.1514 53.8044 54.3037L47.6823 36.6914L47.6782 38.3592L47.6659 45.2435L47.1004 43.6454C46.5472 42.0841 46.1784 41.0392 43.9533 34.7531C43.3551 33.0608 42.8469 31.6306 42.8264 31.5651L42.7855 31.4503H36.647V31.4544Z" fill="url(#paint0_radial_182_2460)"/>
<path d="M36.647 31.4544L42.8142 48.9315V48.9233L43.3018 50.3002C46.0104 57.9671 47.4652 62.0813 47.4733 62.0895C47.4774 62.0936 47.8872 62.1182 48.3831 62.1428C49.8829 62.2166 51.7432 62.3764 53.157 62.5526C53.4807 62.5936 53.7635 62.614 53.7799 62.5977L47.6659 45.2394V45.2435L47.1004 43.6454C46.5472 42.0841 46.1784 41.0392 43.9533 34.7531C43.3551 33.0608 42.8469 31.6306 42.8264 31.5651L42.7855 31.4503H39.7162L36.647 31.4544Z" fill="#E50914"/>
<g filter="url(#filter0_d_182_2460)">
<path d="M22.9949 55.2289L23.6062 54.4472C26.9586 50.1446 31.1292 44.7916 29.4182 37.6186L27.7878 30.7841L26.5817 31.0719C22.227 32.1106 18.4897 30.9928 17.8883 28.4717L15.4761 29.0471C16.0775 31.5682 13.2472 34.2527 8.89247 35.2915L7.68637 35.5792L9.31669 42.4137C11.0278 49.5867 17.1657 52.4806 22.0976 54.8059L22.9949 55.2289Z" fill="#D84025"/>
</g>
<g filter="url(#filter1_d_182_2460)">
<path d="M8.8924 35.2914C13.2471 34.2527 16.0774 31.5681 15.476 29.047L16.6821 28.7593L22.9959 55.2274L22.9947 55.2288L22.0975 54.8058C17.1657 52.4805 11.0277 49.5867 9.31661 42.4136L7.68629 35.5791L8.8924 35.2914Z" fill="#A13023"/>
</g>
<g clip-path="url(#clip0_182_2460)">
<g filter="url(#filter2_d_182_2460)">
<path fill-rule="evenodd" clip-rule="evenodd" d="M54.4435 22.5884C54.7527 23.8439 55.0606 25.0985 55.3672 26.352C52.543 27.9683 48.977 28.8708 44.4976 28.8724V23.6889L54.4435 22.5884Z" fill="#535353"/>
<path fill-rule="evenodd" clip-rule="evenodd" d="M34.5598 22.5884C34.2464 23.8439 33.9358 25.0985 33.6279 26.352C36.4582 27.9683 40.016 28.8708 44.4975 28.8724V23.6889L34.5598 22.5884Z" fill="#676767"/>
<path fill-rule="evenodd" clip-rule="evenodd" d="M42.2743 9.0759C35.8217 3.36948 48.0228 3.91021 51.4613 1.01904C51.704 1.26047 51.8479 1.55073 51.8752 1.85375C51.9024 2.15677 51.8117 2.45917 51.6144 2.72338C53.1408 3.67161 55.8243 2.37786 57.2793 4.1953C55.6304 4.12403 54.6264 4.61829 54.0142 5.27988C58.5363 4.75618 56.767 7.94329 60.6321 8.12302C57.7527 9.34239 50.9899 7.00126 46.8086 9.8506C44.921 9.79792 44.1619 9.13323 42.2743 9.0759Z" fill="#A23023"/>
<path fill-rule="evenodd" clip-rule="evenodd" d="M60.6302 8.0703C57.78 9.32968 51.0667 6.93003 46.916 9.85058C46.1437 9.81775 45.3837 9.6841 44.6675 9.45514C50.0964 4.6606 54.9136 8.91676 60.6322 8.0703H60.6302Z" fill="#1A1A1A"/>
<path fill-rule="evenodd" clip-rule="evenodd" d="M42.6515 8.5912C43.3966 8.64925 44.1275 8.78319 44.8236 8.98926L44.8728 9.00146C44.6296 8.72999 44.3906 8.45851 44.1556 8.18703C42.0203 6.37056 46.5142 4.22161 49.2397 3.78084C50.2213 4.41531 51.7336 4.11485 52.5082 4.5602C51.8401 5.1001 51.4262 6.0335 50.7561 6.57341C58.4079 5.79863 54.9222 7.64102 58.5943 7.99791C58.3472 7.87292 58.1227 7.72478 57.9263 7.55714C56.6968 6.5124 56.8792 5.37158 54.1988 5.67661L52.707 5.84591C52.9706 5.57341 53.2363 5.30142 53.5041 5.02995C54.1084 4.39937 55.0179 3.96796 56.041 3.82659C55.8012 3.72215 55.537 3.6523 55.2623 3.6207C55.0005 3.5912 54.7362 3.5754 54.4713 3.57342C53.2787 3.55206 52.1414 3.62222 51.1926 3.05181L50.8401 2.83676C50.9098 2.7422 50.9815 2.64917 51.045 2.55613C51.2036 2.34732 51.2703 2.10676 51.2356 1.86829C50.0061 2.56223 48.3052 3.02893 46.8482 3.41632C45.6945 3.72136 44.4835 4.02639 43.3892 4.40615C42.6166 4.67763 41.7498 5.05435 41.34 5.56985C40.5961 6.5307 41.7457 7.77981 42.6515 8.5912Z" fill="#EF4123"/>
<path fill-rule="evenodd" clip-rule="evenodd" d="M43.726 8.71744C44.1138 8.79334 44.4961 8.88402 44.8716 8.98912L44.9206 9.0014C44.6783 8.72818 44.4401 8.45496 44.2059 8.18175C42.0781 6.35365 46.5563 4.19094 49.2722 3.74734C50.2504 4.38587 51.7574 4.08349 52.5293 4.53169C51.8636 5.07505 51.4511 6.01443 50.7833 6.55779C58.4083 5.77805 54.9348 7.63224 58.5941 7.99142C56.6889 7.61843 56.7236 6.27076 55.6413 5.94689C54.5591 5.62302 53.1296 6.369 52.0392 6.04513C52.1535 5.42041 52.6702 4.91235 53.4216 4.13721C52.3782 3.66292 49.746 4.08656 50.2932 2.71741C47.951 4.65909 40.4057 3.85479 43.2686 8.55013L43.726 8.71744Z" fill="#D03927"/>
<path d="M44.4128 12.7378C46.3357 12.7378 47.8945 11.7113 47.8945 10.445C47.8945 9.17875 46.3357 8.15222 44.4128 8.15222C42.4899 8.15222 40.9312 9.17875 40.9312 10.445C40.9312 11.7113 42.4899 12.7378 44.4128 12.7378Z" fill="#CDCCCC"/>
<path fill-rule="evenodd" clip-rule="evenodd" d="M44.4279 10.5299C48.7929 10.5299 52.5226 12.2605 54.0145 14.7017C54.8158 14.959 55.3671 15.4889 55.3671 16.0954C55.363 16.297 55.3022 16.4957 55.1885 16.6786C55.0748 16.8615 54.9108 17.0244 54.7072 17.1567C54.6334 20.7266 50.0594 23.6074 44.4279 23.6074C38.7964 23.6074 34.2388 20.7328 34.1527 17.172C33.94 17.0392 33.7679 16.8738 33.648 16.687C33.5282 16.5002 33.4634 16.2964 33.458 16.0893C33.458 15.4767 34.0277 14.936 34.8474 14.6833C36.3455 12.2483 40.069 10.5299 44.4279 10.5299Z" fill="#8B8A8A"/>
<path fill-rule="evenodd" clip-rule="evenodd" d="M42.7993 20.2107C46.6373 20.2107 49.7626 18.2312 49.7626 15.7949C49.7626 13.3586 46.6312 11.3792 42.7993 11.3792C38.9674 11.3792 35.8359 13.3586 35.8359 15.7949C35.8359 18.2312 38.9592 20.2107 42.7993 20.2107Z" fill="#989898"/>
<path fill-rule="evenodd" clip-rule="evenodd" d="M40.6764 15.2854C42.1273 15.2854 43.3089 14.5219 43.3089 13.587C43.3089 12.6522 42.1273 11.8887 40.6764 11.8887C39.2256 11.8887 38.0439 12.6506 38.0439 13.587C38.0439 14.5235 39.2379 15.2854 40.6764 15.2854Z" fill="#ACACAC"/>
<path fill-rule="evenodd" clip-rule="evenodd" d="M44.4976 14.2665H44.398C43.0095 14.2611 41.6314 14.4487 40.3311 14.82L32.7788 16.9646V23.3547C36.0832 26.2792 39.9366 28.5695 44.4976 30.0613V14.2665Z" fill="#CDCCCC"/>
<path fill-rule="evenodd" clip-rule="evenodd" d="M42.7991 15.2854C42.1973 15.3616 41.6069 15.484 41.0364 15.651L39.5886 16.0678V26.7622C40.6103 27.3513 41.6823 27.8861 42.7971 28.3629V15.2854H42.7991ZM38.9088 16.2638L36.6568 16.9125V24.8458C37.3687 25.37 38.1187 25.8771 38.9088 26.3593V16.2638ZM35.979 17.1069L34.4771 17.5394V23.0865C34.9583 23.5096 35.459 23.9244 35.979 24.3309V17.1069Z" fill="#333333"/>
<path fill-rule="evenodd" clip-rule="evenodd" d="M44.4976 14.2664H44.5972C45.9823 14.262 47.3568 14.4496 48.6539 14.82L56.2164 16.963V23.3532C52.91 26.2792 49.0566 28.5695 44.4976 30.0613V14.2664Z" fill="#B4B4B4"/>
<path fill-rule="evenodd" clip-rule="evenodd" d="M46.1958 15.2854C46.8099 15.3618 47.4126 15.4842 47.9949 15.651L49.4726 16.0678V26.7622C48.4294 27.351 47.3354 27.8857 46.1978 28.3629V15.2854H46.1958ZM50.1665 16.2638L52.4629 16.9125V24.8458C51.7383 25.37 50.9729 25.8771 50.1665 26.3593V16.2638ZM53.1567 17.1069L54.6877 17.5394V23.0865C54.1978 23.5096 53.6875 23.9244 53.1567 24.3309V17.1069Z" fill="#1A1A1A"/>
<path fill-rule="evenodd" clip-rule="evenodd" d="M43.5342 8.66174C44.1861 8.66174 44.4987 8.96662 44.2334 9.34109C44.0654 9.54109 43.8244 9.70857 43.5335 9.82751C43.2426 9.94646 42.9115 10.0129 42.5719 10.0204C41.922 10.0204 41.6095 9.71696 41.8747 9.34109C42.0429 9.14147 42.2836 8.97426 42.574 8.85535C42.8645 8.73645 43.195 8.6698 43.5342 8.66174Z" fill="#E3E3E3"/>
</g>
</g>
<g clip-path="url(#clip1_182_2460)">
<g filter="url(#filter3_d_182_2460)">
<path fill-rule="evenodd" clip-rule="evenodd" d="M60.0088 47.2835L60.1448 47.3539C60.299 47.4366 60.4706 47.4817 60.6455 47.4855C60.8205 47.4893 60.9939 47.4517 61.1515 47.3757C61.3113 47.3045 61.452 47.1966 61.5623 47.0608C61.6726 46.925 61.7493 46.7651 61.7862 46.5942C62.0988 45.2279 62.7241 43.5585 63.6136 41.8343C64.5031 40.1101 65.502 38.6345 66.4275 37.5887C66.5434 37.4584 66.6281 37.3033 66.6749 37.1353C66.7217 36.9673 66.7295 36.7908 66.6977 36.6193C66.6659 36.4478 66.5953 36.2859 66.4913 36.1459C66.3873 36.0058 66.2526 35.8914 66.0976 35.8114L65.9601 35.7411L66.526 34.6469L69.1835 36.0162L71.841 37.384L71.2751 38.4782L71.1391 38.4078C70.9834 38.3264 70.8111 38.2819 70.6354 38.2777C70.4598 38.2736 70.2855 38.31 70.1262 38.3841C69.9668 38.4581 69.8267 38.5679 69.7166 38.7049C69.6066 38.8418 69.5295 39.0023 69.4914 39.1738C69.1788 40.5384 68.5535 42.2095 67.664 43.9321C66.7745 45.6547 65.7756 47.1319 64.8502 48.1776C64.7342 48.3081 64.6496 48.4633 64.6027 48.6314C64.5559 48.7996 64.5481 48.9762 64.5799 49.1478C64.6117 49.3194 64.6823 49.4814 64.7863 49.6216C64.8903 49.7618 65.025 49.8763 65.18 49.9565L65.3176 50.0269L64.7517 51.1211L62.0941 49.7533L59.4429 48.3793L60.0088 47.2835Z" fill="#CA3927"/>
<path fill-rule="evenodd" clip-rule="evenodd" d="M66.7735 38.2339C67.2118 38.4626 66.6031 40.5412 65.412 42.8736C64.221 45.206 62.8998 46.9134 62.4692 46.6847C62.0386 46.456 62.6396 44.3774 63.8306 42.045C65.0217 39.7126 66.3351 38.0052 66.7735 38.2339Z" fill="#F04B23"/>
<path fill-rule="evenodd" clip-rule="evenodd" d="M86.1073 3.39673L84.6829 11.4454L71.396 37.1944L67.0854 34.9697L80.3724 9.22067L86.1073 3.39673Z" fill="#D1D2D2"/>
<path fill-rule="evenodd" clip-rule="evenodd" d="M81.8078 7.74434L84.07 6.27113L83.2745 11.0728L71.3315 37.1944L84.6768 11.4454L86.1074 3.39673L81.8078 7.74434Z" fill="#E6E6E5"/>
<path fill-rule="evenodd" clip-rule="evenodd" d="M82.371 10.6997L76.0931 23.5217L69.8136 36.3452L69.1282 35.9964L68.4443 35.6476L75.4077 23.1745L82.371 10.6997Z" fill="#818181"/>
<path fill-rule="evenodd" clip-rule="evenodd" d="M65.7724 33.4234L73.372 37.3669C73.7628 37.0841 74.2369 36.9418 74.7179 36.9631C75.1989 36.9844 75.6587 37.168 76.0233 37.4842C76.3878 37.8005 76.6358 38.231 76.7273 38.7064C76.8188 39.1817 76.7484 39.6742 76.5275 40.1044C76.3066 40.5346 75.9481 40.8775 75.5097 41.0777C75.0714 41.2779 74.5787 41.3238 74.1113 41.208C73.6438 41.0922 73.2287 40.8214 72.933 40.4394C72.6372 40.0573 72.478 39.5862 72.4811 39.1021L64.8815 35.1585C64.4903 35.4422 64.0154 35.585 63.5336 35.5639C63.0518 35.5429 62.591 35.3592 62.2257 35.0425C61.8604 34.7258 61.6119 34.2946 61.5201 33.8185C61.4284 33.3423 61.4989 32.8489 61.7201 32.418C61.9414 31.987 62.3006 31.6436 62.7398 31.4431C63.1789 31.2426 63.6724 31.1968 64.1407 31.3129C64.609 31.4291 65.0246 31.7005 65.3207 32.0834C65.6167 32.4663 65.7759 32.9384 65.7724 33.4234Z" fill="#333333"/>
</g>
</g>
<g filter="url(#filter4_d_182_2460)">
<path d="M13.0236 74.761H13.9236V83.509H12.9276L7.70763 76.069V83.509H6.79563V74.761H7.86363L13.0236 82.117V74.761ZM21.3981 80.797H16.5741C16.6061 81.381 16.8261 81.865 17.2341 82.249C17.6341 82.641 18.1261 82.837 18.7101 82.837C19.1661 82.837 19.5541 82.729 19.8741 82.513C20.1941 82.289 20.4221 81.973 20.5581 81.565L21.3261 81.805C21.1581 82.365 20.8341 82.809 20.3541 83.137C19.8581 83.457 19.3141 83.617 18.7221 83.617C18.1621 83.617 17.6461 83.477 17.1741 83.197C16.7021 82.917 16.3421 82.541 16.0941 82.069C15.8301 81.605 15.6981 81.089 15.6981 80.521C15.6981 79.977 15.8221 79.473 16.0701 79.009C16.3021 78.537 16.6501 78.157 17.1141 77.869C17.5621 77.581 18.0581 77.437 18.6021 77.437C19.2021 77.437 19.7141 77.573 20.1381 77.845C20.5701 78.109 20.8901 78.473 21.0981 78.937C21.3061 79.377 21.4101 79.901 21.4101 80.509C21.4101 80.613 21.4061 80.709 21.3981 80.797ZM16.5861 80.053H20.5341C20.4781 79.509 20.2781 79.061 19.9341 78.709C19.5981 78.373 19.1541 78.205 18.6021 78.205C18.0981 78.205 17.6541 78.385 17.2701 78.745C16.8861 79.121 16.6581 79.557 16.5861 80.053ZM24.7689 83.557C23.6409 83.557 23.0769 83.025 23.0769 81.961V78.313H21.9729V77.545H23.0769V75.829H23.9409V77.545H25.4529V78.313H23.9409V81.949C23.9409 82.509 24.2649 82.789 24.9129 82.789C25.0649 82.789 25.2449 82.773 25.4529 82.741V83.461C25.2449 83.525 25.0169 83.557 24.7689 83.557ZM27.3671 78.301H26.2151V77.545H27.3671V76.441C27.3671 75.785 27.5311 75.273 27.8591 74.905C28.1951 74.561 28.6391 74.389 29.1911 74.389C29.4231 74.389 29.6391 74.425 29.8391 74.497V75.229C29.6951 75.181 29.4911 75.157 29.2271 75.157C28.9791 75.157 28.7591 75.237 28.5671 75.397C28.3431 75.597 28.2311 75.937 28.2311 76.417V77.545H30.9791V74.401H31.8551V83.509H30.9791V78.301H28.2311V83.509H27.3671V78.301ZM33.8014 75.877C33.6734 75.733 33.6094 75.577 33.6094 75.409C33.6094 75.241 33.6734 75.085 33.8014 74.941C33.9294 74.813 34.0854 74.749 34.2694 74.749C34.4454 74.749 34.5974 74.813 34.7254 74.941C34.8534 75.069 34.9174 75.225 34.9174 75.409C34.9174 75.593 34.8534 75.749 34.7254 75.877C34.5974 76.005 34.4454 76.069 34.2694 76.069C34.0854 76.069 33.9294 76.005 33.8014 75.877ZM33.8254 83.509V77.545H34.7014V83.509H33.8254ZM40.6091 83.509L38.7611 81.085L36.9131 83.509H35.8931L38.2571 80.473L35.9891 77.545H37.0091L38.7731 79.861L40.5371 77.545H41.5451L39.2891 80.461L41.6411 83.509H40.6091ZM45.5586 79.513V79.225C45.5586 78.073 45.8386 77.025 46.3986 76.081C46.9506 75.129 47.7306 74.365 48.7386 73.789L49.0986 74.353C47.3306 75.489 46.4466 77.117 46.4466 79.237V79.501C46.4466 81.605 47.3306 83.229 49.0986 84.373L48.7386 84.961C47.7306 84.377 46.9506 83.609 46.3986 82.657C45.8386 81.713 45.5586 80.665 45.5586 79.513ZM56.84 74.761H57.74V83.509H56.744L51.524 76.069V83.509H50.612V74.761H51.68L56.84 82.117V74.761ZM61.0985 75.625V78.769H65.2145V79.609H61.0985V83.509H60.1745V74.761H65.5985V75.625H61.0985ZM67.2644 83.509V74.761H68.1884V82.645H72.3404V83.509H67.2644ZM79.396 83.509L76.552 79.681L73.732 83.509H72.652L76.012 79.033L72.808 74.761H73.876L76.576 78.361L79.252 74.761H80.32L77.116 79.021L80.464 83.509H79.396ZM84.3885 79.225V79.513C84.3885 80.673 84.1125 81.725 83.5605 82.669C83.0005 83.613 82.2165 84.377 81.2085 84.961L80.8485 84.373C82.6165 83.229 83.5005 81.605 83.5005 79.501V79.237C83.5005 77.117 82.6165 75.489 80.8485 74.353L81.2085 73.789C82.2165 74.357 83.0005 75.117 83.5605 76.069C84.1125 77.021 84.3885 78.073 84.3885 79.225Z" fill="white"/>
</g>
<defs>
<filter id="filter0_d_182_2460" x="3.68652" y="28.4717" width="30.1289" height="34.7572" filterUnits="userSpaceOnUse" color-interpolation-filters="sRGB">
<feFlood flood-opacity="0" result="BackgroundImageFix"/>
<feColorMatrix in="SourceAlpha" type="matrix" values="0 0 0 0 0 0 0 0 0 0 0 0 0 0 0 0 0 0 127 0" result="hardAlpha"/>
<feOffset dy="4"/>
<feGaussianBlur stdDeviation="2"/>
<feComposite in2="hardAlpha" operator="out"/>
<feColorMatrix type="matrix" values="0 0 0 0 0 0 0 0 0 0 0 0 0 0 0 0 0 0 0.25 0"/>
<feBlend mode="normal" in2="BackgroundImageFix" result="effect1_dropShadow_182_2460"/>
<feBlend mode="normal" in="SourceGraphic" in2="effect1_dropShadow_182_2460" result="shape"/>
</filter>
<filter id="filter1_d_182_2460" x="3.68652" y="28.7593" width="23.3096" height="34.4696" filterUnits="userSpaceOnUse" color-interpolation-filters="sRGB">
<feFlood flood-opacity="0" result="BackgroundImageFix"/>
<feColorMatrix in="SourceAlpha" type="matrix" values="0 0 0 0 0 0 0 0 0 0 0 0 0 0 0 0 0 0 127 0" result="hardAlpha"/>
<feOffset dy="4"/>
<feGaussianBlur stdDeviation="2"/>
<feComposite in2="hardAlpha" operator="out"/>
<feColorMatrix type="matrix" values="0 0 0 0 0 0 0 0 0 0 0 0 0 0 0 0 0 0 0.25 0"/>
<feBlend mode="normal" in2="BackgroundImageFix" result="effect1_dropShadow_182_2460"/>
<feBlend mode="normal" in="SourceGraphic" in2="effect1_dropShadow_182_2460" result="shape"/>
</filter>
<filter id="filter2_d_182_2460" x="22.7788" y="-4.98096" width="47.8535" height="49.0422" filterUnits="userSpaceOnUse" color-interpolation-filters="sRGB">
<feFlood flood-opacity="0" result="BackgroundImageFix"/>
<feColorMatrix in="SourceAlpha" type="matrix" values="0 0 0 0 0 0 0 0 0 0 0 0 0 0 0 0 0 0 127 0" result="hardAlpha"/>
<feOffset dy="4"/>
<feGaussianBlur stdDeviation="5"/>
<feComposite in2="hardAlpha" operator="out"/>
<feColorMatrix type="matrix" values="0 0 0 0 0 0 0 0 0 0 0 0 0 0 0 0 0 0 0.5 0"/>
<feBlend mode="normal" in2="BackgroundImageFix" result="effect1_dropShadow_182_2460"/>
<feBlend mode="normal" in="SourceGraphic" in2="effect1_dropShadow_182_2460" result="shape"/>
</filter>
<filter id="filter3_d_182_2460" x="49.4429" y="-2.60327" width="46.6646" height="67.7244" filterUnits="userSpaceOnUse" color-interpolation-filters="sRGB">
<feFlood flood-opacity="0" result="BackgroundImageFix"/>
<feColorMatrix in="SourceAlpha" type="matrix" values="0 0 0 0 0 0 0 0 0 0 0 0 0 0 0 0 0 0 127 0" result="hardAlpha"/>
<feOffset dy="4"/>
<feGaussianBlur stdDeviation="5"/>
<feComposite in2="hardAlpha" operator="out"/>
<feColorMatrix type="matrix" values="0 0 0 0 0 0 0 0 0 0 0 0 0 0 0 0 0 0 0.5 0"/>
<feBlend mode="normal" in2="BackgroundImageFix" result="effect1_dropShadow_182_2460"/>
<feBlend mode="normal" in="SourceGraphic" in2="effect1_dropShadow_182_2460" result="shape"/>
</filter>
<filter id="filter4_d_182_2460" x="4.79541" y="73.7891" width="81.5933" height="15.172" filterUnits="userSpaceOnUse" color-interpolation-filters="sRGB">
<feFlood flood-opacity="0" result="BackgroundImageFix"/>
<feColorMatrix in="SourceAlpha" type="matrix" values="0 0 0 0 0 0 0 0 0 0 0 0 0 0 0 0 0 0 127 0" result="hardAlpha"/>
<feOffset dy="2"/>
<feGaussianBlur stdDeviation="1"/>
<feComposite in2="hardAlpha" operator="out"/>
<feColorMatrix type="matrix" values="0 0 0 0 0 0 0 0 0 0 0 0 0 0 0 0 0 0 0.5 0"/>
<feBlend mode="normal" in2="BackgroundImageFix" result="effect1_dropShadow_182_2460"/>
<feBlend mode="normal" in="SourceGraphic" in2="effect1_dropShadow_182_2460" result="shape"/>
</filter>
<radialGradient id="paint0_radial_182_2460" cx="0" cy="0" r="1" gradientUnits="userSpaceOnUse" gradientTransform="translate(44.9385 46.8462) rotate(-19.1007) scale(1.13078 41.422)">
<stop/>
<stop offset="1" stop-opacity="0"/>
</radialGradient>
<clipPath id="clip0_182_2460">
<rect width="30.5708" height="31.8649" fill="white" transform="translate(31.9297)"/>
</clipPath>
<clipPath id="clip1_182_2460">
<rect width="28.8843" height="51.8684" fill="white" transform="translate(59.6128)"/>
</clipPath>
</defs>
</svg>
