<svg width="88.497070" height="90.598877" viewBox="0 0 88.4971 90.5989" fill="none" xmlns="http://www.w3.org/2000/svg" xmlns:xlink="http://www.w3.org/1999/xlink">
	<desc>
			Created with Pixso.
	</desc>
	<defs>
		<clipPath id="clip182_2461">
			<rect id="nflx" rx="22.967110" width="45.934223" height="45.934219" transform="translate(21.502441 24.127930) rotate(-0.000000)" fill="white" fill-opacity="0"/>
		</clipPath>
		<filter id="filter_182_2472_dd" x="3.686523" y="28.471680" width="30.128418" height="34.757202" filterUnits="userSpaceOnUse" color-interpolation-filters="sRGB">
			<feFlood flood-opacity="0" result="BackgroundImageFix"/>
			<feColorMatrix in="SourceAlpha" type="matrix" values="0 0 0 0 0 0 0 0 0 0 0 0 0 0 0 0 0 0 127 0" result="hardAlpha"/>
			<feOffset dx="0" dy="4"/>
			<feGaussianBlur stdDeviation="1.33333"/>
			<feComposite in2="hardAlpha" operator="out" k2="-1" k3="1"/>
			<feColorMatrix type="matrix" values="0 0 0 0 0 0 0 0 0 0 0 0 0 0 0 0 0 0 0.25 0"/>
			<feBlend mode="normal" in2="BackgroundImageFix" result="effect_dropShadow_1"/>
			<feBlend mode="normal" in="SourceGraphic" in2="effect_dropShadow_1" result="shape"/>
		</filter>
		<filter id="filter_182_2473_dd" x="3.686523" y="28.759277" width="23.309570" height="34.469604" filterUnits="userSpaceOnUse" color-interpolation-filters="sRGB">
			<feFlood flood-opacity="0" result="BackgroundImageFix"/>
			<feColorMatrix in="SourceAlpha" type="matrix" values="0 0 0 0 0 0 0 0 0 0 0 0 0 0 0 0 0 0 127 0" result="hardAlpha"/>
			<feOffset dx="0" dy="4"/>
			<feGaussianBlur stdDeviation="1.33333"/>
			<feComposite in2="hardAlpha" operator="out" k2="-1" k3="1"/>
			<feColorMatrix type="matrix" values="0 0 0 0 0 0 0 0 0 0 0 0 0 0 0 0 0 0 0.25 0"/>
			<feBlend mode="normal" in2="BackgroundImageFix" result="effect_dropShadow_1"/>
			<feBlend mode="normal" in="SourceGraphic" in2="effect_dropShadow_1" result="shape"/>
		</filter>
		<clipPath id="clip182_2471">
			<rect id="shield-antivirus-svgrepo-com 1" rx="-2.000000" width="31.689922" height="31.689922" transform="matrix(-0.972708 0.232033 0.232033 0.972708 36.7158 21.7012)" fill="white" fill-opacity="0"/>
		</clipPath>
		<filter id="filter_182_2476_dd" x="22.778809" y="-4.980957" width="47.853516" height="49.042236" filterUnits="userSpaceOnUse" color-interpolation-filters="sRGB">
			<feFlood flood-opacity="0" result="BackgroundImageFix"/>
			<feColorMatrix in="SourceAlpha" type="matrix" values="0 0 0 0 0 0 0 0 0 0 0 0 0 0 0 0 0 0 127 0" result="hardAlpha"/>
			<feOffset dx="0" dy="4"/>
			<feGaussianBlur stdDeviation="3.33333"/>
			<feComposite in2="hardAlpha" operator="out" k2="-1" k3="1"/>
			<feColorMatrix type="matrix" values="0 0 0 0 0 0 0 0 0 0 0 0 0 0 0 0 0 0 0.5 0"/>
			<feBlend mode="normal" in2="BackgroundImageFix" result="effect_dropShadow_1"/>
			<feBlend mode="normal" in="SourceGraphic" in2="effect_dropShadow_1" result="shape"/>
		</filter>
		<clipPath id="clip182_2474">
			<rect id="helmet_red" rx="-2.000000" width="26.570757" height="27.864918" transform="translate(33.929688 2.000000)" fill="white" fill-opacity="0"/>
		</clipPath>
		<filter id="filter_182_2494_dd" x="49.443359" y="-2.603271" width="46.664551" height="67.724365" filterUnits="userSpaceOnUse" color-interpolation-filters="sRGB">
			<feFlood flood-opacity="0" result="BackgroundImageFix"/>
			<feColorMatrix in="SourceAlpha" type="matrix" values="0 0 0 0 0 0 0 0 0 0 0 0 0 0 0 0 0 0 127 0" result="hardAlpha"/>
			<feOffset dx="0" dy="4"/>
			<feGaussianBlur stdDeviation="3.33333"/>
			<feComposite in2="hardAlpha" operator="out" k2="-1" k3="1"/>
			<feColorMatrix type="matrix" values="0 0 0 0 0 0 0 0 0 0 0 0 0 0 0 0 0 0 0.5 0"/>
			<feBlend mode="normal" in2="BackgroundImageFix" result="effect_dropShadow_1"/>
			<feBlend mode="normal" in="SourceGraphic" in2="effect_dropShadow_1" result="shape"/>
		</filter>
		<clipPath id="clip182_2492">
			<rect id="sword_red" rx="-2.000000" width="24.884270" height="47.868378" transform="translate(61.612793 2.000000)" fill="white" fill-opacity="0"/>
		</clipPath>
		<filter id="filter_182_2501_dd" x="4.910156" y="75.691650" width="81.146484" height="14.907227" filterUnits="userSpaceOnUse" color-interpolation-filters="sRGB">
			<feFlood flood-opacity="0" result="BackgroundImageFix"/>
			<feColorMatrix in="SourceAlpha" type="matrix" values="0 0 0 0 0 0 0 0 0 0 0 0 0 0 0 0 0 0 127 0" result="hardAlpha"/>
			<feOffset dx="0" dy="2"/>
			<feGaussianBlur stdDeviation="0.666667"/>
			<feComposite in2="hardAlpha" operator="out" k2="-1" k3="1"/>
			<feColorMatrix type="matrix" values="0 0 0 0 0 0 0 0 0 0 0 0 0 0 0 0 0 0 0.5 0"/>
			<feBlend mode="normal" in2="BackgroundImageFix" result="effect_dropShadow_1"/>
			<feBlend mode="normal" in="SourceGraphic" in2="effect_dropShadow_1" result="shape"/>
		</filter>
		<radialGradient gradientTransform="translate(44.9389 46.8462) rotate(-19.101) scale(1.13078 41.422)" cx="0.000000" cy="0.000000" r="1.000000" id="paint_radial_182_2469_0" gradientUnits="userSpaceOnUse">
			<stop stop-color="#000000"/>
			<stop offset="1.000000" stop-color="#000000" stop-opacity="0.000000"/>
		</radialGradient>
	</defs>
	<rect id="nflx" rx="22.967110" width="45.934223" height="45.934219" transform="translate(21.502441 24.127930) rotate(-0.000000)" fill="#F8F9FC" fill-opacity="1.000000"/>
	<g clip-path="url(#clip182_2461)">
		<path id="path4155" d="M47.69 31.47L47.67 38.35L47.66 45.24L47.1 43.64L47.1 43.64L46.36 58.96C47.08 60.99 47.47 62.08 47.47 62.08C47.48 62.09 47.89 62.11 48.38 62.14C49.88 62.21 51.74 62.37 53.16 62.55C53.48 62.59 53.76 62.61 53.78 62.59C53.8 62.58 53.81 55.57 53.8 47.02L53.79 31.47L47.69 31.47Z" fill="#B1060F" fill-opacity="1.000000" fill-rule="nonzero"/>
		<path id="path4157" d="M36.64 31.45L36.64 47.01C36.64 55.57 36.65 62.58 36.66 62.6C36.68 62.61 37.2 62.56 37.84 62.49C38.48 62.42 39.36 62.33 39.8 62.29C40.47 62.23 42.49 62.11 42.72 62.1C42.79 62.1 42.79 61.75 42.8 55.51L42.81 48.91L43.3 50.29C43.38 50.5 43.4 50.57 43.47 50.78L44.21 35.46C44.05 35.02 44.13 35.25 43.96 34.75C43.36 33.06 42.85 31.63 42.83 31.56L42.79 31.45L36.64 31.45L36.64 31.45Z" fill="#B1060F" fill-opacity="1.000000" fill-rule="nonzero"/>
		<path id="path5715" d="M47.69 31.47L47.67 38.35L47.66 45.24L47.1 43.64L47.1 43.64L46.36 58.96C47.08 60.99 47.47 62.08 47.47 62.08C47.48 62.09 47.89 62.11 48.38 62.14C49.88 62.21 51.74 62.37 53.16 62.55C53.48 62.59 53.76 62.61 53.78 62.59C53.8 62.58 53.81 55.57 53.8 47.02L53.79 31.47L47.69 31.47Z" fill="#B1060F" fill-opacity="1.000000" fill-rule="nonzero"/>
		<path id="path5717" d="M36.64 31.45L36.64 47.01C36.64 55.57 36.65 62.58 36.66 62.6C36.68 62.61 37.2 62.56 37.84 62.49C38.48 62.42 39.36 62.33 39.8 62.29C40.47 62.23 42.49 62.11 42.72 62.1C42.79 62.1 42.79 61.75 42.8 55.51L42.81 48.91L43.3 50.29C43.38 50.5 43.4 50.57 43.47 50.78L44.21 35.46C44.05 35.02 44.13 35.25 43.96 34.75C43.36 33.06 42.85 31.63 42.83 31.56L42.79 31.45L36.64 31.45L36.64 31.45Z" fill="#B1060F" fill-opacity="1.000000" fill-rule="nonzero"/>
		<path id="path5719" d="M36.64 31.45L36.64 40.19L42.8 56.51C42.8 56.14 42.8 55.93 42.8 55.51L42.81 48.91L43.3 50.29C46.01 57.96 47.46 62.08 47.47 62.08C47.47 62.09 47.88 62.11 48.38 62.14C49.88 62.21 51.74 62.37 53.15 62.55C53.48 62.59 53.76 62.61 53.78 62.59C53.79 62.58 53.8 59.15 53.8 54.3L47.68 36.69L47.67 38.35L47.66 45.24L47.1 43.64C46.54 42.08 46.17 41.03 43.95 34.75C43.35 33.06 42.84 31.63 42.82 31.56L42.78 31.45L36.64 31.45L36.64 31.45Z" fill="url(#paint_radial_182_2469_0)" fill-opacity="1.000000" fill-rule="nonzero"/>
		<path id="path5721" d="M36.64 31.45L42.81 48.93L42.81 48.92L43.3 50.3C46.01 57.96 47.46 62.08 47.47 62.08C47.47 62.09 47.88 62.11 48.38 62.14C49.88 62.21 51.74 62.37 53.15 62.55C53.48 62.59 53.76 62.61 53.78 62.59L47.66 45.23L47.66 45.24L47.1 43.64C46.54 42.08 46.17 41.03 43.95 34.75C43.35 33.06 42.84 31.63 42.82 31.56L42.78 31.45L39.71 31.45L36.64 31.45Z" fill="#E50914" fill-opacity="1.000000" fill-rule="nonzero"/>
	</g>
	<rect id="nflx" rx="22.967110" width="45.934223" height="45.934219" transform="translate(21.502441 24.127930) rotate(-0.000000)" stroke="#CDCCCC" stroke-opacity="1.000000" stroke-width="1.000000"/>
	<rect id="shield-antivirus-svgrepo-com 1" rx="-2.000000" width="31.689922" height="31.689922" transform="matrix(-0.972708 0.232033 0.232033 0.972708 36.7158 21.7012)" fill="#FFFFFF" fill-opacity="0"/>
	<g clip-path="url(#clip182_2471)">
		<g filter="url(#filter_182_2472_dd)">
			<path id="Vector" d="M22.99 55.22L23.6 54.44C26.95 50.14 31.12 44.79 29.41 37.61L27.78 30.78L26.58 31.07C22.22 32.11 18.48 30.99 17.88 28.47L15.47 29.04C16.07 31.56 13.24 34.25 8.89 35.29L7.68 35.57L9.31 42.41C11.02 49.58 17.16 52.48 22.09 54.8L22.99 55.22Z" fill="#D84025" fill-opacity="1.000000" fill-rule="nonzero"/>
		</g>
		<g filter="url(#filter_182_2473_dd)">
			<path id="Vector" d="M8.89 35.29C13.24 34.25 16.07 31.56 15.47 29.04L16.68 28.75L22.99 55.22L22.99 55.22L22.09 54.8C17.16 52.48 11.02 49.58 9.31 42.41L7.68 35.57L8.89 35.29Z" fill="#A13023" fill-opacity="1.000000" fill-rule="nonzero"/>
		</g>
	</g>
	<rect id="helmet_red" rx="-2.000000" width="26.570757" height="27.864918" transform="translate(33.929688 2.000000)" fill="#FFFFFF" fill-opacity="0"/>
	<g clip-path="url(#clip182_2474)">
		<g filter="url(#filter_182_2476_dd)">
			<path id="Vector" d="M54.44 22.58C54.75 23.84 55.06 25.09 55.36 26.35C52.54 27.96 48.97 28.87 44.49 28.87L44.49 23.68L54.44 22.58Z" fill="#535353" fill-opacity="1.000000" fill-rule="evenodd"/>
			<path id="Vector" d="M34.55 22.58C34.24 23.84 33.93 25.09 33.62 26.35C36.45 27.96 40.01 28.87 44.49 28.87L44.49 23.68L34.55 22.58Z" fill="#676767" fill-opacity="1.000000" fill-rule="evenodd"/>
			<path id="Vector" d="M42.27 9.07C35.82 3.36 48.02 3.91 51.46 1.01C51.7 1.26 51.84 1.55 51.87 1.85C51.9 2.15 51.81 2.45 51.61 2.72C53.14 3.67 55.82 2.37 57.27 4.19C55.63 4.12 54.62 4.61 54.01 5.27C58.53 4.75 56.76 7.94 60.63 8.12C57.75 9.34 50.98 7 46.8 9.85C44.92 9.79 44.16 9.13 42.27 9.07Z" fill="#A23023" fill-opacity="1.000000" fill-rule="evenodd"/>
			<path id="Vector" d="M60.63 8.07C57.77 9.32 51.06 6.93 46.91 9.85C46.14 9.81 45.38 9.68 44.66 9.45C50.09 4.66 54.91 8.91 60.63 8.07L60.63 8.07Z" fill="#1A1A1A" fill-opacity="1.000000" fill-rule="evenodd"/>
			<path id="Vector" d="M42.65 8.59C43.39 8.64 44.12 8.78 44.82 8.98L44.87 9C44.62 8.72 44.39 8.45 44.15 8.18C42.02 6.37 46.51 4.22 49.23 3.78C50.22 4.41 51.73 4.11 52.5 4.56C51.83 5.09 51.42 6.03 50.75 6.57C58.4 5.79 54.92 7.64 58.59 7.99C58.34 7.87 58.12 7.72 57.92 7.55C56.69 6.51 56.87 5.37 54.19 5.67L52.7 5.84C52.97 5.57 53.23 5.3 53.5 5.02C54.1 4.39 55.01 3.96 56.04 3.82C55.8 3.72 55.53 3.65 55.26 3.62C55 3.59 54.73 3.57 54.47 3.57C53.27 3.55 52.14 3.62 51.19 3.05L50.83 2.83C50.9 2.74 50.98 2.64 51.04 2.55C51.2 2.34 51.27 2.1 51.23 1.86C50 2.56 48.3 3.02 46.84 3.41C45.69 3.72 44.48 4.02 43.38 4.4C42.61 4.67 41.74 5.05 41.33 5.56C40.59 6.53 41.74 7.77 42.65 8.59Z" fill="#EF4123" fill-opacity="1.000000" fill-rule="evenodd"/>
			<path id="Vector" d="M43.72 8.71C44.11 8.79 44.49 8.88 44.87 8.98L44.92 9C44.67 8.72 44.43 8.45 44.2 8.18C42.07 6.35 46.55 4.19 49.27 3.74C50.25 4.38 51.75 4.08 52.52 4.53C51.86 5.07 51.45 6.01 50.78 6.55C58.4 5.77 54.93 7.63 58.59 7.99C56.68 7.61 56.72 6.27 55.64 5.94C54.55 5.62 53.12 6.36 52.03 6.04C52.15 5.42 52.67 4.91 53.42 4.13C52.37 3.66 49.74 4.08 50.29 2.71C47.95 4.65 40.4 3.85 43.26 8.55L43.72 8.71Z" fill="#D03927" fill-opacity="1.000000" fill-rule="evenodd"/>
			<path id="Vector" d="M47.89 10.44C47.89 11.71 46.33 12.73 44.41 12.73C42.48 12.73 40.93 11.71 40.93 10.44C40.93 9.17 42.48 8.15 44.41 8.15C46.33 8.15 47.89 9.17 47.89 10.44Z" fill="#CDCCCC" fill-opacity="1.000000" fill-rule="evenodd"/>
			<path id="Vector" d="M44.42 10.52C48.79 10.52 52.52 12.26 54.01 14.7C54.81 14.95 55.36 15.48 55.36 16.09C55.36 16.29 55.3 16.49 55.18 16.67C55.07 16.86 54.91 17.02 54.7 17.15C54.63 20.72 50.05 23.6 44.42 23.6C38.79 23.6 34.23 20.73 34.15 17.17C33.93 17.03 33.76 16.87 33.64 16.68C33.52 16.5 33.46 16.29 33.45 16.08C33.45 15.47 34.02 14.93 34.84 14.68C36.34 12.24 40.06 10.52 44.42 10.52Z" fill="#8B8A8A" fill-opacity="1.000000" fill-rule="evenodd"/>
			<path id="Vector" d="M42.79 20.21C46.63 20.21 49.76 18.23 49.76 15.79C49.76 13.35 46.63 11.37 42.79 11.37C38.96 11.37 35.83 13.35 35.83 15.79C35.83 18.23 38.95 20.21 42.79 20.21Z" fill="#989898" fill-opacity="1.000000" fill-rule="evenodd"/>
			<path id="Vector" d="M40.67 15.28C42.12 15.28 43.3 14.52 43.3 13.58C43.3 12.65 42.12 11.88 40.67 11.88C39.22 11.88 38.04 12.65 38.04 13.58C38.04 14.52 39.23 15.28 40.67 15.28Z" fill="#ACACAC" fill-opacity="1.000000" fill-rule="evenodd"/>
			<path id="Vector" d="M44.49 14.26L44.39 14.26C43 14.26 41.63 14.44 40.33 14.82L32.77 16.96L32.77 23.35C36.08 26.27 39.93 28.56 44.49 30.06L44.49 14.26Z" fill="#CDCCCC" fill-opacity="1.000000" fill-rule="evenodd"/>
			<path id="Vector" d="M42.79 15.28C42.19 15.36 41.6 15.48 41.03 15.65L39.58 16.06L39.58 26.76C40.61 27.35 41.68 27.88 42.79 28.36L42.79 15.28L42.79 15.28ZM38.9 16.26L36.65 16.91L36.65 24.84C37.36 25.37 38.11 25.87 38.9 26.35L38.9 16.26ZM35.97 17.1L34.47 17.53L34.47 23.08C34.95 23.5 35.45 23.92 35.97 24.33L35.97 17.1Z" fill="#333333" fill-opacity="1.000000" fill-rule="evenodd"/>
			<path id="Vector" d="M44.49 14.26L44.59 14.26C45.98 14.26 47.35 14.44 48.65 14.82L56.21 16.96L56.21 23.35C52.91 26.27 49.05 28.56 44.49 30.06L44.49 14.26Z" fill="#B4B4B4" fill-opacity="1.000000" fill-rule="evenodd"/>
			<path id="Vector" d="M46.19 15.28C46.81 15.36 47.41 15.48 47.99 15.65L49.47 16.06L49.47 26.76C48.42 27.35 47.33 27.88 46.19 28.36L46.19 15.28L46.19 15.28ZM50.16 16.26L52.46 16.91L52.46 24.84C51.73 25.37 50.97 25.87 50.16 26.35L50.16 16.26ZM53.15 17.1L54.68 17.53L54.68 23.08C54.19 23.5 53.68 23.92 53.15 24.33L53.15 17.1Z" fill="#1A1A1A" fill-opacity="1.000000" fill-rule="evenodd"/>
			<path id="Vector" d="M43.53 8.66C44.18 8.66 44.49 8.96 44.23 9.34C44.06 9.54 43.82 9.7 43.53 9.82C43.24 9.94 42.91 10.01 42.57 10.02C41.92 10.02 41.6 9.71 41.87 9.34C42.04 9.14 42.28 8.97 42.57 8.85C42.86 8.73 43.19 8.66 43.53 8.66Z" fill="#E3E3E3" fill-opacity="1.000000" fill-rule="evenodd"/>
		</g>
	</g>
	<rect id="sword_red" rx="-2.000000" width="24.884270" height="47.868378" transform="translate(61.612793 2.000000)" fill="#FFFFFF" fill-opacity="0"/>
	<g clip-path="url(#clip182_2492)">
		<g filter="url(#filter_182_2494_dd)">
			<path id="Vector" d="M60 47.28L60.14 47.35C60.29 47.43 60.47 47.48 60.64 47.48C60.82 47.48 60.99 47.45 61.15 47.37C61.31 47.3 61.45 47.19 61.56 47.06C61.67 46.92 61.74 46.76 61.78 46.59C62.09 45.22 62.72 43.55 63.61 41.83C64.5 40.11 65.5 38.63 66.42 37.58C66.54 37.45 66.62 37.3 66.67 37.13C66.72 36.96 66.73 36.79 66.69 36.61C66.66 36.44 66.59 36.28 66.49 36.14C66.38 36 66.25 35.89 66.09 35.81L65.96 35.74L66.52 34.64L69.18 36.01L71.84 37.38L71.27 38.47L71.13 38.4C70.98 38.32 70.81 38.28 70.63 38.27C70.46 38.27 70.28 38.31 70.12 38.38C69.96 38.45 69.82 38.56 69.71 38.7C69.6 38.84 69.52 39 69.49 39.17C69.17 40.53 68.55 42.2 67.66 43.93C66.77 45.65 65.77 47.13 64.85 48.17C64.73 48.3 64.64 48.46 64.6 48.63C64.55 48.79 64.54 48.97 64.58 49.14C64.61 49.31 64.68 49.48 64.78 49.62C64.89 49.76 65.02 49.87 65.18 49.95L65.31 50.02L64.75 51.12L62.09 49.75L59.44 48.37L60 47.28Z" fill="#CA3927" fill-opacity="1.000000" fill-rule="evenodd"/>
			<path id="Vector" d="M66.77 38.23C67.21 38.46 66.6 40.54 65.41 42.87C64.22 45.2 62.9 46.91 62.46 46.68C62.03 46.45 62.64 44.37 63.83 42.04C65.02 39.71 66.33 38 66.77 38.23Z" fill="#F04B23" fill-opacity="1.000000" fill-rule="evenodd"/>
			<path id="Vector" d="M86.1 3.39L84.68 11.44L71.39 37.19L67.08 34.96L80.37 9.22L86.1 3.39Z" fill="#D1D2D2" fill-opacity="1.000000" fill-rule="evenodd"/>
			<path id="Vector" d="M81.8 7.74L84.07 6.27L83.27 11.07L71.33 37.19L84.67 11.44L86.1 3.39L81.8 7.74Z" fill="#E6E6E5" fill-opacity="1.000000" fill-rule="evenodd"/>
			<path id="Vector" d="M82.37 10.69L76.09 23.52L69.81 36.34L69.12 35.99L68.44 35.64L75.4 23.17L82.37 10.69Z" fill="#818181" fill-opacity="1.000000" fill-rule="evenodd"/>
			<path id="Vector" d="M65.77 33.42L73.37 37.36C73.76 37.08 74.23 36.94 74.71 36.96C75.19 36.98 75.65 37.16 76.02 37.48C76.38 37.8 76.63 38.23 76.72 38.7C76.81 39.18 76.74 39.67 76.52 40.1C76.3 40.53 75.94 40.87 75.51 41.07C75.07 41.27 74.57 41.32 74.11 41.2C73.64 41.09 73.22 40.82 72.93 40.43C72.63 40.05 72.47 39.58 72.48 39.1L64.88 35.15C64.49 35.44 64.01 35.58 63.53 35.56C63.05 35.54 62.59 35.35 62.22 35.04C61.86 34.72 61.61 34.29 61.52 33.81C61.42 33.34 61.49 32.84 61.72 32.41C61.94 31.98 62.3 31.64 62.74 31.44C63.17 31.24 63.67 31.19 64.14 31.31C64.6 31.42 65.02 31.7 65.32 32.08C65.61 32.46 65.77 32.93 65.77 33.42Z" fill="#333333" fill-opacity="1.000000" fill-rule="evenodd"/>
		</g>
	</g>
	<g filter="url(#filter_182_2501_dd)">
		<path id="Netflix (NFLX)" d="M49.01 86.59C47.97 85.08 47.39 83.29 47.39 81.14C47.39 78.99 47.97 77.2 49.01 75.69L49.89 75.69C49.07 76.81 48.43 79.11 48.43 81.14C48.43 83.17 49.07 85.47 49.89 86.59L49.01 86.59ZM82.43 75.69C83.47 77.2 84.05 78.99 84.05 81.14C84.05 83.29 83.47 85.08 82.43 86.59L81.55 86.59C82.36 85.47 83.01 83.17 83.01 81.14C83.01 79.11 82.36 76.81 81.55 75.69L82.43 75.69ZM28.6 78.96L30.07 78.96L30.07 79.81L28.6 79.81L28.6 85.5L27.6 85.5L27.6 79.81L26.54 79.81L26.54 78.96L27.6 78.96L27.6 78.05C27.6 76.93 28.5 76.37 29.44 76.37C29.93 76.37 30.24 76.47 30.39 76.54L30.1 77.41C30 77.37 29.83 77.3 29.54 77.3C28.88 77.3 28.6 77.65 28.6 78.29L28.6 78.96ZM35.56 77.19C35.56 77.56 35.24 77.87 34.84 77.87C34.45 77.87 34.13 77.56 34.13 77.19C34.13 76.81 34.45 76.5 34.84 76.5C35.24 76.5 35.56 76.81 35.56 77.19ZM12.79 76.78L13.83 76.78L13.83 85.5L12.8 85.5L8.05 78.65L7.96 78.65L7.96 85.5L6.91 85.5L6.91 76.78L7.93 76.78L12.7 83.65L12.79 83.65L12.79 76.78ZM31.48 76.78L32.49 76.78L32.49 85.5L31.48 85.5L31.48 76.78ZM57.39 76.78L58.43 76.78L58.43 85.5L57.41 85.5L52.66 78.65L52.57 78.65L52.57 85.5L51.51 85.5L51.51 76.78L52.54 76.78L57.31 83.65L57.39 83.65L57.39 76.78ZM61.6 85.5L60.55 85.5L60.55 76.78L65.78 76.78L65.78 77.71L61.6 77.71L61.6 80.66L65.39 80.66L65.39 81.6L61.6 81.6L61.6 85.5ZM72.7 85.5L67.59 85.5L67.59 76.78L68.64 76.78L68.64 84.57L72.7 84.57L72.7 85.5ZM73.6 76.78L74.85 76.78L77.1 80.41L77.17 80.41L79.42 76.78L80.66 76.78L77.92 81.14L80.66 85.5L79.42 85.5L77.17 81.94L77.1 81.94L74.85 85.5L73.6 85.5L76.42 81.14L73.6 76.78ZM24.24 78.96L25.64 78.96L25.64 79.81L24.24 79.81L24.24 83.63C24.24 84.48 24.67 84.62 25.11 84.62C25.33 84.62 25.47 84.58 25.55 84.57L25.76 85.47C25.62 85.52 25.38 85.59 25.01 85.59C24.16 85.59 23.23 85.04 23.23 83.9L23.23 79.81L22.25 79.81L22.25 78.96L23.23 78.96L23.23 77.39L24.24 77.39L24.24 78.96ZM21.15 83.99C20.85 84.98 19.88 85.64 18.55 85.64C16.65 85.64 15.49 84.29 15.49 82.28C15.49 80.27 16.67 78.87 18.44 78.87C19.81 78.87 21.26 79.71 21.26 82.15L21.26 82.57L16.5 82.57C16.55 83.97 17.37 84.74 18.55 84.74C19.34 84.74 19.93 84.4 20.18 83.71L21.15 83.99ZM35.34 85.5L34.33 85.5L34.33 78.96L35.34 78.96L35.34 85.5ZM36.77 78.96L37.93 78.96L39.49 81.63L41.06 78.96L42.22 78.96L40.11 82.23L42.22 85.5L41.06 85.5L39.49 82.96L37.93 85.5L36.77 85.5L38.85 82.23L36.77 78.96ZM18.44 79.78C17.29 79.78 16.57 80.68 16.5 81.7L20.23 81.7C20.23 80.59 19.53 79.78 18.44 79.78Z" fill="#FFFFFF" fill-opacity="1.000000" fill-rule="evenodd"/>
	</g>
</svg>
