<svg width="89" height="87" viewBox="0 0 89 87" fill="none" xmlns="http://www.w3.org/2000/svg">
<rect x="21.5026" y="24.1279" width="45.9342" height="45.9342" rx="22.9671" fill="#3E4348"/>
<rect x="21.5026" y="24.1279" width="45.9342" height="45.9342" rx="22.9671" stroke="#CDCCCC"/>
<path d="M53.3806 34.1293L35.8799 34.1293C33.4738 34.1293 31.5039 36.0982 31.5039 38.5053L31.5039 56.0065C31.5039 58.4116 33.4738 60.381 35.8799 60.381L53.3811 60.381C55.7872 60.381 57.7571 58.4121 57.7571 56.0065L57.7571 38.5053C57.7566 36.0982 55.7867 34.1293 53.3806 34.1293ZM52.9829 54.2172C52.9829 54.982 52.3567 55.6063 51.5913 55.6063L37.6682 55.6063C36.9034 55.6063 36.2767 54.9816 36.2767 54.2172L36.2767 40.2946C36.2767 39.5297 36.9034 38.903 37.6682 38.903L51.5913 38.903C52.3567 38.903 52.9829 39.5297 52.9829 40.2946L52.9829 54.2172ZM48.2111 50.0395C48.2111 50.4782 47.8528 50.835 47.4166 50.835L41.8479 50.835C41.4102 50.835 41.0534 50.4777 41.0534 50.0395L41.0534 44.4713C41.0534 44.0336 41.4102 43.6763 41.8479 43.6763L47.4161 43.6763C47.8528 43.6763 48.2106 44.0341 48.2106 44.4713L48.2111 50.0395Z" fill="white"/>
<path d="M22.9947 55.2289L23.606 54.4472C26.9584 50.1446 31.129 44.7916 29.418 37.6186L27.7876 30.7841L26.5815 31.0719C22.2268 32.1106 18.4895 30.9928 17.8881 28.4717L15.4759 29.0471C16.0773 31.5682 13.247 34.2527 8.89229 35.2915L7.68618 35.5792L9.31651 42.4137C11.0276 49.5867 17.1656 52.4806 22.0974 54.8059L22.9947 55.2289Z" fill="#D84025"/>
<path d="M8.89226 35.2914C13.247 34.2527 16.0773 31.5681 15.4759 29.047L16.682 28.7593L22.9958 55.2274L22.9946 55.2288L22.0973 54.8058C17.1655 52.4805 11.0276 49.5867 9.31648 42.4136L7.68615 35.5791L8.89226 35.2914Z" fill="#A13023"/>
<path fill-rule="evenodd" clip-rule="evenodd" d="M54.4434 22.5884C54.7526 23.8439 55.0605 25.0985 55.3671 26.352C52.5429 27.9683 48.9769 28.8708 44.4975 28.8724V23.6889L54.4434 22.5884Z" fill="#535353"/>
<path fill-rule="evenodd" clip-rule="evenodd" d="M34.5597 22.5884C34.2464 23.8439 33.9357 25.0985 33.6278 26.352C36.4581 27.9683 40.016 28.8708 44.4974 28.8724V23.6889L34.5597 22.5884Z" fill="#676767"/>
<path fill-rule="evenodd" clip-rule="evenodd" d="M42.2742 9.0759C35.8216 3.36948 48.0228 3.91021 51.4613 1.01904C51.704 1.26047 51.8479 1.55073 51.8751 1.85375C51.9023 2.15677 51.8116 2.45917 51.6143 2.72338C53.1407 3.67161 55.8242 2.37786 57.2792 4.1953C55.6304 4.12403 54.6264 4.61829 54.0142 5.27988C58.5363 4.75618 56.767 7.94329 60.632 8.12302C57.7526 9.34239 50.9899 7.00126 46.8086 9.8506C44.921 9.79792 44.1618 9.13323 42.2742 9.0759Z" fill="#A23023"/>
<path fill-rule="evenodd" clip-rule="evenodd" d="M60.63 8.0703C57.7798 9.32968 51.0666 6.93003 46.9158 9.85058C46.1435 9.81775 45.3835 9.6841 44.6673 9.45514C50.0962 4.6606 54.9134 8.91676 60.632 8.0703H60.63Z" fill="#1A1A1A"/>
<path fill-rule="evenodd" clip-rule="evenodd" d="M42.6511 8.5912C43.3962 8.64925 44.1271 8.78319 44.8232 8.98926L44.8724 9.00146C44.6293 8.72999 44.3902 8.45851 44.1552 8.18703C42.0199 6.37056 46.5139 4.22161 49.2393 3.78084C50.2209 4.41531 51.7332 4.11485 52.5078 4.5602C51.8398 5.1001 51.4258 6.0335 50.7557 6.57341C58.4075 5.79863 54.9218 7.64102 58.594 7.99791C58.3468 7.87292 58.1223 7.72478 57.9259 7.55714C56.6964 6.5124 56.8788 5.37158 54.1984 5.67661L52.7066 5.84591C52.9702 5.57341 53.236 5.30142 53.5037 5.02995C54.108 4.39937 55.0175 3.96796 56.0407 3.82659C55.8008 3.72215 55.5366 3.6523 55.2619 3.6207C55.0001 3.5912 54.7358 3.5754 54.471 3.57342C53.2783 3.55206 52.141 3.62222 51.1922 3.05181L50.8397 2.83676C50.9094 2.7422 50.9811 2.64917 51.0447 2.55613C51.2033 2.34732 51.2699 2.10676 51.2352 1.86829C50.0057 2.56223 48.3049 3.02893 46.8479 3.41632C45.6942 3.72136 44.4831 4.02639 43.3888 4.40615C42.6162 4.67763 41.7494 5.05435 41.3396 5.56985C40.5957 6.5307 41.7453 7.77981 42.6511 8.5912Z" fill="#EF4123"/>
<path fill-rule="evenodd" clip-rule="evenodd" d="M43.7259 8.71744C44.1136 8.79334 44.496 8.88402 44.8715 8.98912L44.9205 9.0014C44.6782 8.72818 44.4399 8.45496 44.2058 8.18175C42.078 6.35365 46.5562 4.19094 49.2721 3.74734C50.2502 4.38587 51.7572 4.08349 52.5291 4.53169C51.8634 5.07505 51.4509 6.01443 50.7832 6.55779C58.4081 5.77805 54.9346 7.63224 58.594 7.99142C56.6887 7.61843 56.7235 6.27076 55.6412 5.94689C54.5589 5.62302 53.1295 6.369 52.039 6.04513C52.1534 5.42041 52.67 4.91235 53.4215 4.13721C52.378 3.66292 49.7458 4.08656 50.2931 2.71741C47.9509 4.65909 40.4055 3.85479 43.2685 8.55013L43.7259 8.71744Z" fill="#D03927"/>
<path d="M44.4125 12.7378C46.3354 12.7378 47.8942 11.7113 47.8942 10.445C47.8942 9.17875 46.3354 8.15222 44.4125 8.15222C42.4897 8.15222 40.9309 9.17875 40.9309 10.445C40.9309 11.7113 42.4897 12.7378 44.4125 12.7378Z" fill="#CDCCCC"/>
<path fill-rule="evenodd" clip-rule="evenodd" d="M44.4279 10.5299C48.7929 10.5299 52.5226 12.2605 54.0145 14.7017C54.8158 14.959 55.3671 15.4889 55.3671 16.0954C55.363 16.297 55.3022 16.4957 55.1885 16.6786C55.0748 16.8615 54.9108 17.0244 54.7072 17.1567C54.6334 20.7266 50.0594 23.6074 44.4279 23.6074C38.7964 23.6074 34.2388 20.7328 34.1527 17.172C33.94 17.0392 33.7679 16.8738 33.648 16.687C33.5282 16.5002 33.4634 16.2964 33.458 16.0893C33.458 15.4767 34.0277 14.936 34.8474 14.6833C36.3455 12.2483 40.069 10.5299 44.4279 10.5299Z" fill="#8B8A8A"/>
<path fill-rule="evenodd" clip-rule="evenodd" d="M42.7991 20.2107C46.6371 20.2107 49.7624 18.2312 49.7624 15.7949C49.7624 13.3586 46.631 11.3792 42.7991 11.3792C38.9672 11.3792 35.8357 13.3586 35.8357 15.7949C35.8357 18.2312 38.959 20.2107 42.7991 20.2107Z" fill="#989898"/>
<path fill-rule="evenodd" clip-rule="evenodd" d="M40.6761 15.2854C42.127 15.2854 43.3086 14.5219 43.3086 13.587C43.3086 12.6522 42.127 11.8887 40.6761 11.8887C39.2253 11.8887 38.0436 12.6506 38.0436 13.587C38.0436 14.5235 39.2376 15.2854 40.6761 15.2854Z" fill="#ACACAC"/>
<path fill-rule="evenodd" clip-rule="evenodd" d="M44.4974 14.2665H44.3978C43.0093 14.2611 41.6312 14.4487 40.3309 14.82L32.7787 16.9646V23.3547C36.083 26.2792 39.9364 28.5695 44.4974 30.0613V14.2665Z" fill="#CDCCCC"/>
<path fill-rule="evenodd" clip-rule="evenodd" d="M42.7991 15.2854C42.1973 15.3616 41.6069 15.484 41.0364 15.651L39.5886 16.0678V26.7622C40.6103 27.3513 41.6823 27.8861 42.7971 28.3629V15.2854H42.7991ZM38.9088 16.2638L36.6568 16.9125V24.8458C37.3687 25.37 38.1187 25.8771 38.9088 26.3593V16.2638ZM35.979 17.1069L34.477 17.5394V23.0865C34.9583 23.5096 35.459 23.9244 35.979 24.3309V17.1069Z" fill="#333333"/>
<path fill-rule="evenodd" clip-rule="evenodd" d="M44.4975 14.2664H44.5971C45.9821 14.262 47.3567 14.4496 48.6538 14.82L56.2162 16.963V23.3532C52.9099 26.2792 49.0565 28.5695 44.4975 30.0613V14.2664Z" fill="#B4B4B4"/>
<path fill-rule="evenodd" clip-rule="evenodd" d="M46.1958 15.2854C46.8099 15.3618 47.4126 15.4842 47.9949 15.651L49.4726 16.0678V26.7622C48.4295 27.351 47.3354 27.8857 46.1979 28.3629V15.2854H46.1958ZM50.1665 16.2638L52.4629 16.9125V24.8458C51.7384 25.37 50.9729 25.8771 50.1665 26.3593V16.2638ZM53.1567 17.1069L54.6877 17.5394V23.0865C54.1979 23.5096 53.6875 23.9244 53.1567 24.3309V17.1069Z" fill="#1A1A1A"/>
<path fill-rule="evenodd" clip-rule="evenodd" d="M43.534 8.66174C44.1859 8.66174 44.4984 8.96662 44.2332 9.34109C44.0652 9.54109 43.8242 9.70857 43.5333 9.82751C43.2424 9.94646 42.9113 10.0129 42.5716 10.0204C41.9218 10.0204 41.6092 9.71696 41.8745 9.34109C42.0426 9.14147 42.2833 8.97426 42.5738 8.85535C42.8642 8.73645 43.1948 8.6698 43.534 8.66174Z" fill="#E3E3E3"/>
<g clip-path="url(#clip0_186_5321)">
<path fill-rule="evenodd" clip-rule="evenodd" d="M60.009 47.2835L60.145 47.3539C60.2992 47.4366 60.4708 47.4817 60.6458 47.4855C60.8207 47.4893 60.9941 47.4517 61.1518 47.3757C61.3116 47.3045 61.4523 47.1966 61.5626 47.0608C61.6728 46.925 61.7495 46.7651 61.7865 46.5942C62.0991 45.2279 62.7244 43.5585 63.6139 41.8343C64.5034 40.1101 65.5023 38.6345 66.4278 37.5887C66.5437 37.4584 66.6283 37.3033 66.6752 37.1353C66.722 36.9673 66.7298 36.7908 66.698 36.6193C66.6661 36.4478 66.5955 36.2859 66.4915 36.1459C66.3875 36.0058 66.2529 35.8914 66.0979 35.8114L65.9603 35.7411L66.5262 34.6469L69.1838 36.0162L71.8413 37.384L71.2754 38.4782L71.1394 38.4078C70.9837 38.3264 70.8114 38.2819 70.6357 38.2777C70.46 38.2736 70.2858 38.31 70.1265 38.3841C69.9671 38.4581 69.827 38.5679 69.7169 38.7049C69.6068 38.8418 69.5298 39.0023 69.4917 39.1738C69.1791 40.5384 68.5538 42.2095 67.6643 43.9321C66.7748 45.6547 65.7759 47.1319 64.8504 48.1776C64.7345 48.3081 64.6498 48.4633 64.603 48.6314C64.5562 48.7996 64.5484 48.9762 64.5802 49.1478C64.612 49.3194 64.6826 49.4814 64.7866 49.6216C64.8906 49.7618 65.0253 49.8763 65.1803 49.9565L65.3178 50.0269L64.7519 51.1211L62.0944 49.7533L59.4431 48.3793L60.009 47.2835Z" fill="#CA3927"/>
<path fill-rule="evenodd" clip-rule="evenodd" d="M66.7738 38.2339C67.2121 38.4626 66.6034 40.5412 65.4123 42.8736C64.2213 45.206 62.9001 46.9134 62.4695 46.6847C62.0389 46.456 62.6399 44.3774 63.8309 42.045C65.022 39.7126 66.3355 38.0052 66.7738 38.2339Z" fill="#F04B23"/>
<path fill-rule="evenodd" clip-rule="evenodd" d="M86.1076 3.39673L84.6833 11.4454L71.3964 37.1944L67.0858 34.9697L80.3728 9.22068L86.1076 3.39673Z" fill="#D1D2D2"/>
<path fill-rule="evenodd" clip-rule="evenodd" d="M81.808 7.74434L84.0702 6.27113L83.2748 11.0728L71.3318 37.1944L84.6771 11.4454L86.1076 3.39673L81.808 7.74434Z" fill="#E6E6E5"/>
<path fill-rule="evenodd" clip-rule="evenodd" d="M82.3712 10.6997L76.0933 23.5217L69.8138 36.3452L69.1284 35.9964L68.4445 35.6476L75.4079 23.1745L82.3712 10.6997Z" fill="#818181"/>
<path fill-rule="evenodd" clip-rule="evenodd" d="M65.7727 33.4234L73.3723 37.3669C73.763 37.0841 74.2371 36.9418 74.7181 36.9631C75.1991 36.9844 75.6589 37.168 76.0235 37.4842C76.388 37.8005 76.6361 38.231 76.7275 38.7064C76.819 39.1817 76.7486 39.6742 76.5277 40.1044C76.3069 40.5346 75.9483 40.8775 75.51 41.0777C75.0716 41.2779 74.579 41.3238 74.1115 41.208C73.644 41.0922 73.2289 40.8214 72.9332 40.4394C72.6375 40.0573 72.4783 39.5862 72.4813 39.1021L64.8817 35.1585C64.4905 35.4422 64.0157 35.585 63.5338 35.5639C63.052 35.5429 62.5913 35.3592 62.226 35.0425C61.8607 34.7258 61.6121 34.2946 61.5204 33.8185C61.4286 33.3423 61.4991 32.8489 61.7204 32.418C61.9417 31.987 62.3008 31.6436 62.74 31.4431C63.1792 31.2426 63.6727 31.1968 64.1409 31.3129C64.6092 31.4291 65.0249 31.7005 65.3209 32.0834C65.617 32.4663 65.7761 32.9384 65.7727 33.4234Z" fill="#333333"/>
</g>
<path d="M15.4306 83.593C14.5826 83.593 13.8706 83.337 13.2946 82.825C12.7346 82.337 12.4146 81.769 12.3346 81.121L13.1986 80.881C13.2946 81.393 13.5586 81.829 13.9906 82.189C14.4146 82.549 14.8946 82.729 15.4306 82.729C15.9666 82.729 16.4146 82.601 16.7746 82.345C17.1826 82.065 17.3866 81.661 17.3866 81.133C17.3866 80.589 17.1426 80.173 16.6546 79.885C16.4306 79.749 16.1546 79.649 15.8266 79.585L14.6746 79.357C14.4426 79.309 14.1866 79.225 13.9066 79.105C13.6186 78.969 13.3786 78.805 13.1866 78.613C12.7786 78.213 12.5746 77.709 12.5746 77.101C12.5746 76.621 12.7066 76.193 12.9706 75.817C13.2266 75.449 13.5666 75.161 13.9906 74.953C14.4066 74.761 14.8586 74.665 15.3466 74.665C16.2026 74.665 16.8706 74.877 17.3506 75.301C17.8386 75.725 18.1346 76.213 18.2386 76.765L17.3986 77.029C17.3106 76.637 17.0946 76.289 16.7506 75.985C16.4146 75.673 15.9426 75.517 15.3346 75.517C14.8546 75.501 14.4266 75.645 14.0506 75.949C13.6746 76.253 13.4906 76.625 13.4986 77.065C13.4986 77.409 13.6066 77.705 13.8226 77.953C14.0386 78.201 14.3546 78.365 14.7706 78.445L15.8746 78.661C16.6346 78.805 17.2026 79.061 17.5786 79.429C17.8346 79.661 18.0266 79.929 18.1546 80.233C18.2746 80.529 18.3346 80.797 18.3346 81.037C18.3426 81.797 18.0666 82.417 17.5066 82.897C16.9466 83.377 16.2546 83.609 15.4306 83.593ZM19.5067 80.521C19.5067 79.721 19.7627 79.013 20.2747 78.397C20.7947 77.757 21.4707 77.437 22.3027 77.437C22.8627 77.437 23.3427 77.581 23.7427 77.869C24.0787 78.117 24.3747 78.433 24.6307 78.817V77.545H25.4827V86.449H24.6187V82.249C24.0827 83.145 23.3107 83.593 22.3027 83.593C21.4707 83.593 20.7907 83.285 20.2627 82.669C19.7587 82.061 19.5067 81.345 19.5067 80.521ZM22.4827 82.837C23.0827 82.845 23.5947 82.613 24.0187 82.141C24.4427 81.669 24.6467 81.125 24.6307 80.509C24.6307 80.117 24.5387 79.749 24.3547 79.405C24.1707 79.053 23.9147 78.765 23.5867 78.541C23.2507 78.325 22.8827 78.217 22.4827 78.217C21.8427 78.217 21.3387 78.437 20.9707 78.877C20.5867 79.325 20.3947 79.881 20.3947 80.545C20.3947 81.417 20.7187 82.073 21.3667 82.513C21.6947 82.729 22.0667 82.837 22.4827 82.837ZM27.3784 77.545H28.2424V81.013C28.2424 81.573 28.3864 82.013 28.6744 82.333C28.9464 82.661 29.3544 82.825 29.8984 82.825C30.4104 82.825 30.8344 82.645 31.1704 82.285C31.5064 81.925 31.6744 81.477 31.6744 80.941V77.545H32.5384V83.509H31.6864V82.417C31.2064 83.225 30.5224 83.629 29.6344 83.629C28.9384 83.629 28.3824 83.409 27.9664 82.969C27.5744 82.529 27.3784 81.949 27.3784 81.229V77.545ZM36.4491 80.065H38.1051V79.669C38.1051 78.701 37.5971 78.217 36.5811 78.217C36.0931 78.217 35.7171 78.349 35.4531 78.613C35.2131 78.853 35.0691 79.125 35.0211 79.429L34.1811 79.249C34.1891 79.081 34.2691 78.869 34.4211 78.613C34.5731 78.357 34.7731 78.129 35.0211 77.929C35.4451 77.601 35.9731 77.437 36.6051 77.437C37.6931 77.437 38.4171 77.849 38.7771 78.673C38.8971 78.953 38.9571 79.281 38.9571 79.657V81.337C38.9571 82.313 38.9891 83.037 39.0531 83.509H38.1891C38.1331 83.205 38.1051 82.857 38.1051 82.465C37.6011 83.233 36.9291 83.617 36.0891 83.617C35.4891 83.617 35.0091 83.449 34.6491 83.113C34.2731 82.785 34.0851 82.365 34.0851 81.853V81.793C34.0851 81.201 34.3211 80.765 34.7931 80.485C35.2731 80.205 35.8251 80.065 36.4491 80.065ZM38.1051 80.989V80.785H36.4371C36.0691 80.785 35.7451 80.853 35.4651 80.989C35.1291 81.133 34.9611 81.397 34.9611 81.781C34.9611 82.109 35.0851 82.369 35.3331 82.561C35.5731 82.753 35.8771 82.849 36.2451 82.849C36.7651 82.849 37.2091 82.673 37.5771 82.321C37.9291 81.985 38.1051 81.541 38.1051 80.989ZM40.8567 77.545H41.7087V78.721C41.9887 78.153 42.3967 77.769 42.9327 77.569C43.1487 77.489 43.3847 77.449 43.6407 77.449C43.7927 77.449 43.8887 77.457 43.9287 77.473V78.397C43.8647 78.381 43.7527 78.373 43.5927 78.373C42.9447 78.373 42.4727 78.589 42.1767 79.021C41.8807 79.453 41.7327 79.977 41.7327 80.593V83.509H40.8567V77.545ZM49.9098 80.797H45.0858C45.1178 81.381 45.3378 81.865 45.7458 82.249C46.1458 82.641 46.6378 82.837 47.2218 82.837C47.6778 82.837 48.0658 82.729 48.3858 82.513C48.7058 82.289 48.9338 81.973 49.0698 81.565L49.8378 81.805C49.6698 82.365 49.3458 82.809 48.8658 83.137C48.3698 83.457 47.8258 83.617 47.2338 83.617C46.6738 83.617 46.1578 83.477 45.6858 83.197C45.2138 82.917 44.8538 82.541 44.6058 82.069C44.3418 81.605 44.2098 81.089 44.2098 80.521C44.2098 79.977 44.3338 79.473 44.5818 79.009C44.8138 78.537 45.1618 78.157 45.6258 77.869C46.0738 77.581 46.5698 77.437 47.1138 77.437C47.7138 77.437 48.2258 77.573 48.6498 77.845C49.0818 78.109 49.4018 78.473 49.6098 78.937C49.8178 79.377 49.9218 79.901 49.9218 80.509C49.9218 80.613 49.9178 80.709 49.9098 80.797ZM45.0978 80.053H49.0458C48.9898 79.509 48.7898 79.061 48.4458 78.709C48.1098 78.373 47.6658 78.205 47.1138 78.205C46.6098 78.205 46.1658 78.385 45.7818 78.745C45.3978 79.121 45.1698 79.557 45.0978 80.053ZM54.1602 79.513V79.225C54.1602 78.073 54.4402 77.025 55.0002 76.081C55.5522 75.129 56.3322 74.365 57.3402 73.789L57.7002 74.353C55.9322 75.489 55.0482 77.117 55.0482 79.237V79.501C55.0482 81.605 55.9322 83.229 57.7002 84.373L57.3402 84.961C56.3322 84.377 55.5522 83.609 55.0002 82.657C54.4402 81.713 54.1602 80.665 54.1602 79.513ZM60.829 83.593C59.981 83.593 59.269 83.337 58.693 82.825C58.133 82.337 57.813 81.769 57.733 81.121L58.597 80.881C58.693 81.393 58.957 81.829 59.389 82.189C59.813 82.549 60.293 82.729 60.829 82.729C61.365 82.729 61.813 82.601 62.173 82.345C62.581 82.065 62.785 81.661 62.785 81.133C62.785 80.589 62.541 80.173 62.053 79.885C61.829 79.749 61.553 79.649 61.225 79.585L60.073 79.357C59.841 79.309 59.585 79.225 59.305 79.105C59.017 78.969 58.777 78.805 58.585 78.613C58.177 78.213 57.973 77.709 57.973 77.101C57.973 76.621 58.105 76.193 58.369 75.817C58.625 75.449 58.965 75.161 59.389 74.953C59.805 74.761 60.257 74.665 60.745 74.665C61.601 74.665 62.269 74.877 62.749 75.301C63.237 75.725 63.533 76.213 63.637 76.765L62.797 77.029C62.709 76.637 62.493 76.289 62.149 75.985C61.813 75.673 61.341 75.517 60.733 75.517C60.253 75.501 59.825 75.645 59.449 75.949C59.073 76.253 58.889 76.625 58.897 77.065C58.897 77.409 59.005 77.705 59.221 77.953C59.437 78.201 59.753 78.365 60.169 78.445L61.273 78.661C62.033 78.805 62.601 79.061 62.977 79.429C63.233 79.661 63.425 79.929 63.553 80.233C63.673 80.529 63.733 80.797 63.733 81.037C63.741 81.797 63.465 82.417 62.905 82.897C62.345 83.377 61.653 83.609 60.829 83.593ZM73.7851 83.029L73.1852 83.725L72.0451 82.693C71.2531 83.301 70.3491 83.605 69.3331 83.605C68.7251 83.605 68.1451 83.489 67.5931 83.257C67.0411 83.025 66.5771 82.709 66.2011 82.309C65.8251 81.933 65.5211 81.465 65.2891 80.905C65.0651 80.329 64.9531 79.749 64.9531 79.165C64.9531 78.325 65.1451 77.569 65.5291 76.897C65.9051 76.201 66.4331 75.657 67.1131 75.265C67.7691 74.873 68.5171 74.677 69.3571 74.677C69.9811 74.677 70.5651 74.789 71.1091 75.013C71.6371 75.245 72.1011 75.557 72.5011 75.949C72.8771 76.349 73.1811 76.821 73.4132 77.365C73.6372 77.909 73.7492 78.493 73.7492 79.117C73.7492 80.253 73.3931 81.241 72.6811 82.081L73.7851 83.029ZM66.3451 77.317C66.0571 77.869 65.9131 78.469 65.9131 79.117C65.9131 79.765 66.0571 80.365 66.3451 80.917C66.6331 81.469 67.0411 81.913 67.5691 82.249C68.1051 82.577 68.7011 82.741 69.3571 82.741C70.1251 82.741 70.7971 82.525 71.3731 82.093L69.7051 80.629L70.3171 79.957L72.0091 81.493C72.5371 80.837 72.8012 80.061 72.8012 79.165C72.8012 78.165 72.4811 77.313 71.8411 76.609C71.1851 75.889 70.3491 75.529 69.3331 75.529C68.7011 75.529 68.1131 75.689 67.5691 76.009C67.0411 76.345 66.6331 76.781 66.3451 77.317ZM76.865 79.225V79.513C76.865 80.673 76.589 81.725 76.037 82.669C75.477 83.613 74.693 84.377 73.685 84.961L73.325 84.373C75.093 83.229 75.977 81.605 75.977 79.501V79.237C75.977 77.117 75.093 75.489 73.325 74.353L73.685 73.789C74.693 74.357 75.477 75.117 76.037 76.069C76.589 77.021 76.865 78.073 76.865 79.225Z" fill="white"/>
<defs>
<clipPath id="clip0_186_5321">
<rect width="28.8843" height="51.8684" fill="white" transform="translate(59.613)"/>
</clipPath>
</defs>
</svg>
