<svg width="89" height="85" viewBox="0 0 89 85" fill="none" xmlns="http://www.w3.org/2000/svg">
<rect x="21.5026" y="24.1279" width="45.9342" height="45.9342" rx="22.9671" fill="#DC1835"/>
<rect x="21.5026" y="24.1279" width="45.9342" height="45.9342" rx="22.9671" stroke="#CDCCCC"/>
<path d="M44.4714 61.0552L48.411 38.8986C52.1662 38.8986 53.3506 39.3104 53.5217 40.9911C53.5217 40.9911 56.0407 40.0519 57.3112 38.1442C52.3533 35.8468 47.3717 35.7432 47.3717 35.7432L44.4649 39.2837L44.4714 39.2833L41.5646 35.7427C41.5646 35.7427 36.5829 35.8464 31.6256 38.1438C32.895 40.0514 35.4151 40.9907 35.4151 40.9907C35.5871 39.3098 36.7701 38.8981 40.5 38.8954L44.4714 61.0552Z" fill="white"/>
<path d="M44.4697 34.7205C48.4775 34.6899 53.0649 35.3405 57.761 37.3873C58.3886 36.2575 58.55 35.7583 58.55 35.7583C53.4165 33.7273 48.609 33.0322 44.4691 33.0148C40.3295 33.0322 35.5223 33.7274 30.3894 35.7583C30.3894 35.7583 30.6184 36.3733 31.1779 37.3873C35.8731 35.3405 40.4612 34.6899 44.4691 34.7205H44.4697Z" fill="white"/>
<path d="M22.9947 55.2289L23.606 54.4472C26.9584 50.1446 31.129 44.7916 29.418 37.6186L27.7876 30.7841L26.5815 31.0719C22.2268 32.1106 18.4895 30.9928 17.8881 28.4717L15.4759 29.0471C16.0773 31.5682 13.247 34.2527 8.89229 35.2915L7.68618 35.5792L9.31651 42.4137C11.0276 49.5867 17.1656 52.4806 22.0974 54.8059L22.9947 55.2289Z" fill="#D84025"/>
<path d="M8.89224 35.2914C13.2469 34.2527 16.0773 31.5681 15.4759 29.047L16.682 28.7593L22.9958 55.2274L22.9946 55.2288L22.0973 54.8058C17.1655 52.4805 11.0275 49.5867 9.31646 42.4136L7.68614 35.5791L8.89224 35.2914Z" fill="#A13023"/>
<path fill-rule="evenodd" clip-rule="evenodd" d="M54.4434 22.5884C54.7526 23.8439 55.0605 25.0985 55.367 26.352C52.5429 27.9683 48.9769 28.8708 44.4974 28.8724V23.6889L54.4434 22.5884Z" fill="#535353"/>
<path fill-rule="evenodd" clip-rule="evenodd" d="M34.5597 22.5884C34.2464 23.8439 33.9357 25.0985 33.6278 26.352C36.4581 27.9683 40.016 28.8708 44.4974 28.8724V23.6889L34.5597 22.5884Z" fill="#676767"/>
<path fill-rule="evenodd" clip-rule="evenodd" d="M42.2742 9.0759C35.8217 3.36948 48.0228 3.91021 51.4613 1.01904C51.704 1.26047 51.8479 1.55073 51.8751 1.85375C51.9023 2.15677 51.8117 2.45917 51.6143 2.72338C53.1408 3.67161 55.8242 2.37786 57.2792 4.1953C55.6304 4.12403 54.6264 4.61829 54.0142 5.27988C58.5363 4.75618 56.767 7.94329 60.632 8.12302C57.7527 9.34239 50.9899 7.00126 46.8086 9.8506C44.921 9.79792 44.1618 9.13323 42.2742 9.0759Z" fill="#A23023"/>
<path fill-rule="evenodd" clip-rule="evenodd" d="M60.63 8.0703C57.7798 9.32968 51.0666 6.93003 46.9159 9.85058C46.1435 9.81775 45.3835 9.6841 44.6673 9.45514C50.0962 4.6606 54.9134 8.91676 60.632 8.0703H60.63Z" fill="#1A1A1A"/>
<path fill-rule="evenodd" clip-rule="evenodd" d="M42.6511 8.5912C43.3962 8.64925 44.1271 8.78319 44.8233 8.98926L44.8724 9.00146C44.6293 8.72999 44.3902 8.45851 44.1552 8.18703C42.0199 6.37056 46.5139 4.22161 49.2393 3.78084C50.2209 4.41531 51.7332 4.11485 52.5078 4.5602C51.8398 5.1001 51.4258 6.0335 50.7557 6.57341C58.4075 5.79863 54.9218 7.64102 58.594 7.99791C58.3468 7.87292 58.1223 7.72478 57.9259 7.55714C56.6964 6.5124 56.8788 5.37158 54.1984 5.67661L52.7066 5.84591C52.9703 5.57341 53.236 5.30142 53.5037 5.02995C54.108 4.39937 55.0175 3.96796 56.0407 3.82659C55.8008 3.72215 55.5366 3.6523 55.262 3.6207C55.0001 3.5912 54.7358 3.5754 54.471 3.57342C53.2783 3.55206 52.141 3.62222 51.1922 3.05181L50.8398 2.83676C50.9094 2.7422 50.9811 2.64917 51.0447 2.55613C51.2033 2.34732 51.2699 2.10676 51.2353 1.86829C50.0057 2.56223 48.3049 3.02893 46.8479 3.41632C45.6942 3.72136 44.4831 4.02639 43.3888 4.40615C42.6163 4.67763 41.7494 5.05435 41.3396 5.56985C40.5957 6.5307 41.7453 7.77981 42.6511 8.5912Z" fill="#EF4123"/>
<path fill-rule="evenodd" clip-rule="evenodd" d="M43.7259 8.71744C44.1136 8.79334 44.496 8.88402 44.8715 8.98912L44.9205 9.0014C44.6782 8.72818 44.4399 8.45496 44.2058 8.18175C42.078 6.35365 46.5562 4.19094 49.2721 3.74734C50.2502 4.38587 51.7572 4.08349 52.5291 4.53169C51.8634 5.07505 51.4509 6.01443 50.7832 6.55779C58.4081 5.77805 54.9346 7.63224 58.594 7.99142C56.6888 7.61843 56.7235 6.27076 55.6412 5.94689C54.5589 5.62302 53.1295 6.369 52.039 6.04513C52.1534 5.42041 52.67 4.91235 53.4215 4.13721C52.378 3.66292 49.7458 4.08656 50.2931 2.71741C47.9509 4.65909 40.4055 3.85479 43.2685 8.55013L43.7259 8.71744Z" fill="#D03927"/>
<path d="M44.4125 12.7378C46.3354 12.7378 47.8942 11.7113 47.8942 10.445C47.8942 9.17875 46.3354 8.15222 44.4125 8.15222C42.4896 8.15222 40.9308 9.17875 40.9308 10.445C40.9308 11.7113 42.4896 12.7378 44.4125 12.7378Z" fill="#CDCCCC"/>
<path fill-rule="evenodd" clip-rule="evenodd" d="M44.4279 10.5299C48.7929 10.5299 52.5226 12.2605 54.0145 14.7017C54.8158 14.959 55.3671 15.4889 55.3671 16.0954C55.363 16.297 55.3022 16.4957 55.1885 16.6786C55.0748 16.8615 54.9108 17.0244 54.7072 17.1567C54.6334 20.7266 50.0594 23.6074 44.4279 23.6074C38.7964 23.6074 34.2388 20.7328 34.1527 17.172C33.94 17.0392 33.7679 16.8738 33.648 16.687C33.5282 16.5002 33.4634 16.2964 33.458 16.0893C33.458 15.4767 34.0277 14.936 34.8474 14.6833C36.3455 12.2483 40.069 10.5299 44.4279 10.5299Z" fill="#8B8A8A"/>
<path fill-rule="evenodd" clip-rule="evenodd" d="M42.7991 20.2107C46.6371 20.2107 49.7624 18.2312 49.7624 15.7949C49.7624 13.3586 46.6309 11.3792 42.7991 11.3792C38.9672 11.3792 35.8357 13.3586 35.8357 15.7949C35.8357 18.2312 38.959 20.2107 42.7991 20.2107Z" fill="#989898"/>
<path fill-rule="evenodd" clip-rule="evenodd" d="M40.6761 15.2854C42.1269 15.2854 43.3086 14.5219 43.3086 13.587C43.3086 12.6522 42.1269 11.8887 40.6761 11.8887C39.2252 11.8887 38.0436 12.6506 38.0436 13.587C38.0436 14.5235 39.2376 15.2854 40.6761 15.2854Z" fill="#ACACAC"/>
<path fill-rule="evenodd" clip-rule="evenodd" d="M44.4974 14.2665H44.3978C43.0093 14.2611 41.6312 14.4487 40.3309 14.82L32.7787 16.9646V23.3547C36.083 26.2792 39.9364 28.5695 44.4974 30.0613V14.2665Z" fill="#CDCCCC"/>
<path fill-rule="evenodd" clip-rule="evenodd" d="M42.7991 15.2854C42.1973 15.3616 41.6068 15.484 41.0364 15.651L39.5886 16.0678V26.7622C40.6103 27.3513 41.6823 27.8861 42.7971 28.3629V15.2854H42.7991ZM38.9088 16.2638L36.6568 16.9125V24.8458C37.3687 25.37 38.1187 25.8771 38.9088 26.3593V16.2638ZM35.979 17.1069L34.477 17.5394V23.0865C34.9583 23.5096 35.459 23.9244 35.979 24.3309V17.1069Z" fill="#333333"/>
<path fill-rule="evenodd" clip-rule="evenodd" d="M44.4974 14.2664H44.5971C45.9821 14.262 47.3567 14.4496 48.6538 14.82L56.2162 16.963V23.3532C52.9098 26.2792 49.0564 28.5695 44.4974 30.0613V14.2664Z" fill="#B4B4B4"/>
<path fill-rule="evenodd" clip-rule="evenodd" d="M46.1958 15.2854C46.8099 15.3618 47.4126 15.4842 47.9949 15.651L49.4726 16.0678V26.7622C48.4295 27.351 47.3354 27.8857 46.1979 28.3629V15.2854H46.1958ZM50.1665 16.2638L52.4629 16.9125V24.8458C51.7384 25.37 50.9729 25.8771 50.1665 26.3593V16.2638ZM53.1568 17.1069L54.6877 17.5394V23.0865C54.1979 23.5096 53.6875 23.9244 53.1568 24.3309V17.1069Z" fill="#1A1A1A"/>
<path fill-rule="evenodd" clip-rule="evenodd" d="M43.534 8.66174C44.1859 8.66174 44.4984 8.96662 44.2332 9.34109C44.0652 9.54109 43.8242 9.70857 43.5333 9.82751C43.2424 9.94646 42.9113 10.0129 42.5716 10.0204C41.9218 10.0204 41.6093 9.71696 41.8745 9.34109C42.0426 9.14147 42.2834 8.97426 42.5738 8.85535C42.8643 8.73645 43.1948 8.6698 43.534 8.66174Z" fill="#E3E3E3"/>
<g clip-path="url(#clip0_186_7085)">
<path fill-rule="evenodd" clip-rule="evenodd" d="M60.009 47.2835L60.145 47.3539C60.2992 47.4366 60.4708 47.4817 60.6458 47.4855C60.8207 47.4893 60.9941 47.4517 61.1518 47.3757C61.3116 47.3045 61.4523 47.1966 61.5626 47.0608C61.6728 46.925 61.7495 46.7651 61.7865 46.5942C62.0991 45.2279 62.7244 43.5585 63.6139 41.8343C64.5034 40.1101 65.5023 38.6345 66.4278 37.5887C66.5437 37.4584 66.6283 37.3033 66.6752 37.1353C66.722 36.9673 66.7298 36.7908 66.698 36.6193C66.6661 36.4478 66.5955 36.2859 66.4915 36.1459C66.3875 36.0058 66.2529 35.8914 66.0979 35.8114L65.9603 35.7411L66.5262 34.6469L69.1838 36.0162L71.8413 37.384L71.2754 38.4782L71.1394 38.4078C70.9837 38.3264 70.8114 38.2819 70.6357 38.2777C70.46 38.2736 70.2858 38.31 70.1265 38.3841C69.9671 38.4581 69.827 38.5679 69.7169 38.7049C69.6068 38.8418 69.5298 39.0023 69.4917 39.1738C69.1791 40.5384 68.5538 42.2095 67.6643 43.9321C66.7748 45.6547 65.7759 47.1319 64.8504 48.1776C64.7345 48.3081 64.6498 48.4633 64.603 48.6314C64.5562 48.7996 64.5484 48.9762 64.5802 49.1478C64.612 49.3194 64.6826 49.4814 64.7866 49.6216C64.8906 49.7618 65.0253 49.8763 65.1803 49.9565L65.3178 50.0269L64.7519 51.1211L62.0944 49.7533L59.4431 48.3793L60.009 47.2835Z" fill="#CA3927"/>
<path fill-rule="evenodd" clip-rule="evenodd" d="M66.7738 38.2339C67.2121 38.4626 66.6034 40.5412 65.4123 42.8736C64.2213 45.206 62.9001 46.9134 62.4695 46.6847C62.0389 46.456 62.6399 44.3774 63.8309 42.045C65.022 39.7126 66.3355 38.0052 66.7738 38.2339Z" fill="#F04B23"/>
<path fill-rule="evenodd" clip-rule="evenodd" d="M86.1077 3.39673L84.6833 11.4454L71.3964 37.1944L67.0858 34.9697L80.3728 9.22067L86.1077 3.39673Z" fill="#D1D2D2"/>
<path fill-rule="evenodd" clip-rule="evenodd" d="M81.808 7.74434L84.0703 6.27113L83.2748 11.0728L71.3318 37.1944L84.6771 11.4454L86.1077 3.39673L81.808 7.74434Z" fill="#E6E6E5"/>
<path fill-rule="evenodd" clip-rule="evenodd" d="M82.3712 10.6997L76.0933 23.5217L69.8138 36.3452L69.1284 35.9964L68.4445 35.6476L75.4079 23.1745L82.3712 10.6997Z" fill="#818181"/>
<path fill-rule="evenodd" clip-rule="evenodd" d="M65.7727 33.4234L73.3723 37.3669C73.7631 37.0841 74.2371 36.9418 74.7181 36.9631C75.1991 36.9844 75.659 37.168 76.0235 37.4842C76.3881 37.8005 76.6361 38.231 76.7275 38.7064C76.819 39.1817 76.7486 39.6742 76.5278 40.1044C76.3069 40.5346 75.9483 40.8775 75.51 41.0777C75.0716 41.2779 74.579 41.3238 74.1115 41.208C73.644 41.0922 73.2289 40.8214 72.9332 40.4394C72.6375 40.0573 72.4783 39.5862 72.4814 39.1021L64.8818 35.1585C64.4905 35.4422 64.0157 35.585 63.5338 35.5639C63.052 35.5429 62.5913 35.3592 62.226 35.0425C61.8607 34.7258 61.6121 34.2946 61.5204 33.8185C61.4286 33.3423 61.4991 32.8489 61.7204 32.418C61.9417 31.987 62.3009 31.6436 62.74 31.4431C63.1792 31.2426 63.6727 31.1968 64.1409 31.3129C64.6092 31.4291 65.0249 31.7005 65.3209 32.0834C65.617 32.4663 65.7761 32.9384 65.7727 33.4234Z" fill="#333333"/>
</g>
<path d="M15.611 75.625V83.509H14.699V75.625H11.771V74.761H18.539V75.625H15.611ZM22.5056 80.797H17.6816C17.7136 81.381 17.9336 81.865 18.3416 82.249C18.7416 82.641 19.2336 82.837 19.8176 82.837C20.2736 82.837 20.6616 82.729 20.9816 82.513C21.3016 82.289 21.5296 81.973 21.6656 81.565L22.4336 81.805C22.2656 82.365 21.9416 82.809 21.4616 83.137C20.9656 83.457 20.4216 83.617 19.8296 83.617C19.2696 83.617 18.7536 83.477 18.2816 83.197C17.8096 82.917 17.4496 82.541 17.2016 82.069C16.9376 81.605 16.8056 81.089 16.8056 80.521C16.8056 79.977 16.9296 79.473 17.1776 79.009C17.4096 78.537 17.7576 78.157 18.2216 77.869C18.6696 77.581 19.1656 77.437 19.7096 77.437C20.3096 77.437 20.8216 77.573 21.2456 77.845C21.6776 78.109 21.9976 78.473 22.2056 78.937C22.4136 79.377 22.5176 79.901 22.5176 80.509C22.5176 80.613 22.5136 80.709 22.5056 80.797ZM17.6936 80.053H21.6416C21.5856 79.509 21.3856 79.061 21.0416 78.709C20.7056 78.373 20.2616 78.205 19.7096 78.205C19.2056 78.205 18.7616 78.385 18.3776 78.745C17.9936 79.121 17.7656 79.557 17.6936 80.053ZM27.9588 81.817C27.9588 82.353 27.7548 82.781 27.3468 83.101C26.9388 83.437 26.4388 83.605 25.8468 83.605C24.9748 83.605 24.3388 83.317 23.9388 82.741C23.7388 82.469 23.6188 82.165 23.5788 81.829L24.3708 81.625C24.4268 81.953 24.5748 82.241 24.8148 82.489C25.0628 82.729 25.4028 82.849 25.8348 82.849C26.1628 82.849 26.4548 82.757 26.7108 82.573C26.9508 82.405 27.0708 82.169 27.0708 81.865C27.0708 81.625 26.9748 81.433 26.7828 81.289C26.6068 81.145 26.3788 81.041 26.0988 80.977L25.1868 80.773C24.1948 80.557 23.6988 80.037 23.6988 79.213C23.6988 78.597 23.9468 78.137 24.4428 77.833C24.8668 77.569 25.2948 77.437 25.7268 77.437C26.5428 77.445 27.1388 77.709 27.5148 78.229C27.6988 78.493 27.8188 78.761 27.8748 79.033L27.0828 79.261C27.0268 79.029 26.9108 78.805 26.7348 78.589C26.5188 78.333 26.1828 78.205 25.7268 78.205C25.3988 78.205 25.1268 78.297 24.9108 78.481C24.6868 78.657 24.5748 78.881 24.5748 79.153C24.5748 79.553 24.8628 79.825 25.4388 79.969L26.3988 80.185C26.8388 80.289 27.2068 80.477 27.5028 80.749C27.8068 81.021 27.9588 81.377 27.9588 81.817ZM29.5072 83.509V74.401H30.3832V83.509H29.5072ZM34.2988 80.065H35.9548V79.669C35.9548 78.701 35.4468 78.217 34.4308 78.217C33.9428 78.217 33.5668 78.349 33.3028 78.613C33.0628 78.853 32.9188 79.125 32.8708 79.429L32.0308 79.249C32.0388 79.081 32.1188 78.869 32.2708 78.613C32.4228 78.357 32.6228 78.129 32.8708 77.929C33.2948 77.601 33.8228 77.437 34.4548 77.437C35.5428 77.437 36.2668 77.849 36.6268 78.673C36.7468 78.953 36.8068 79.281 36.8068 79.657V81.337C36.8068 82.313 36.8388 83.037 36.9028 83.509H36.0388C35.9828 83.205 35.9548 82.857 35.9548 82.465C35.4508 83.233 34.7788 83.617 33.9388 83.617C33.3388 83.617 32.8588 83.449 32.4988 83.113C32.1228 82.785 31.9348 82.365 31.9348 81.853V81.793C31.9348 81.201 32.1708 80.765 32.6428 80.485C33.1228 80.205 33.6748 80.065 34.2988 80.065ZM35.9548 80.989V80.785H34.2868C33.9188 80.785 33.5948 80.853 33.3148 80.989C32.9788 81.133 32.8108 81.397 32.8108 81.781C32.8108 82.109 32.9348 82.369 33.1828 82.561C33.4228 82.753 33.7268 82.849 34.0948 82.849C34.6148 82.849 35.0588 82.673 35.4268 82.321C35.7788 81.985 35.9548 81.541 35.9548 80.989ZM41.4396 79.513V79.225C41.4396 78.073 41.7196 77.025 42.2796 76.081C42.8316 75.129 43.6116 74.365 44.6196 73.789L44.9796 74.353C43.2116 75.489 42.3276 77.117 42.3276 79.237V79.501C42.3276 81.605 43.2116 83.229 44.9796 84.373L44.6196 84.961C43.6116 84.377 42.8316 83.609 42.2796 82.657C41.7196 81.713 41.4396 80.665 41.4396 79.513ZM49.361 75.625V83.509H48.449V75.625H45.521V74.761H52.289V75.625H49.361ZM55.9014 83.593C55.0534 83.593 54.3414 83.337 53.7654 82.825C53.2054 82.337 52.8854 81.769 52.8054 81.121L53.6694 80.881C53.7654 81.393 54.0294 81.829 54.4614 82.189C54.8854 82.549 55.3654 82.729 55.9014 82.729C56.4374 82.729 56.8854 82.601 57.2454 82.345C57.6534 82.065 57.8574 81.661 57.8574 81.133C57.8574 80.589 57.6134 80.173 57.1254 79.885C56.9014 79.749 56.6254 79.649 56.2974 79.585L55.1454 79.357C54.9134 79.309 54.6574 79.225 54.3774 79.105C54.0894 78.969 53.8494 78.805 53.6574 78.613C53.2494 78.213 53.0454 77.709 53.0454 77.101C53.0454 76.621 53.1774 76.193 53.4414 75.817C53.6974 75.449 54.0374 75.161 54.4614 74.953C54.8774 74.761 55.3294 74.665 55.8174 74.665C56.6734 74.665 57.3414 74.877 57.8214 75.301C58.3094 75.725 58.6054 76.213 58.7094 76.765L57.8694 77.029C57.7814 76.637 57.5654 76.289 57.2214 75.985C56.8854 75.673 56.4134 75.517 55.8054 75.517C55.3254 75.501 54.8974 75.645 54.5214 75.949C54.1454 76.253 53.9614 76.625 53.9694 77.065C53.9694 77.409 54.0774 77.705 54.2934 77.953C54.5094 78.201 54.8254 78.365 55.2414 78.445L56.3454 78.661C57.1054 78.805 57.6734 79.061 58.0494 79.429C58.3054 79.661 58.4974 79.929 58.6254 80.233C58.7454 80.529 58.8054 80.797 58.8054 81.037C58.8134 81.797 58.5374 82.417 57.9774 82.897C57.4174 83.377 56.7254 83.609 55.9014 83.593ZM60.6375 83.509V74.761H61.5615V82.645H65.7135V83.509H60.6375ZM73.5971 83.509L72.6371 81.277H67.8731L66.9131 83.509H65.9771L69.7451 74.761H70.7891L74.5691 83.509H73.5971ZM72.2891 80.437L70.2491 75.709L68.2211 80.437H72.2891ZM78.4413 79.225V79.513C78.4413 80.673 78.1653 81.725 77.6133 82.669C77.0533 83.613 76.2693 84.377 75.2613 84.961L74.9013 84.373C76.6693 83.229 77.5533 81.605 77.5533 79.501V79.237C77.5533 77.117 76.6693 75.489 74.9013 74.353L75.2613 73.789C76.2693 74.357 77.0533 75.117 77.6133 76.069C78.1653 77.021 78.4413 78.073 78.4413 79.225Z" fill="white"/>
<defs>
<clipPath id="clip0_186_7085">
<rect width="28.8843" height="51.8684" fill="white" transform="translate(59.613)"/>
</clipPath>
</defs>
</svg>
