<svg width="90" height="85" viewBox="0 0 90 85" fill="none" xmlns="http://www.w3.org/2000/svg">
<rect x="21.5801" y="24.1279" width="45.9342" height="45.9342" rx="22.9671" fill="black"/>
<rect x="21.5801" y="24.1279" width="45.9342" height="45.9342" rx="22.9671" stroke="#CDCCCC"/>
<path fill-rule="evenodd" clip-rule="evenodd" d="M40.4126 34.5792H32.0314L41.9684 47.7048L32.6671 58.7155H36.9646L43.9996 50.3877L50.2464 58.6389H58.6275L48.4017 45.1319L48.4198 45.1552L57.2244 34.7325H52.9269L46.3884 42.4726L40.4126 34.5792ZM36.6577 36.8779H39.2669L54.0012 56.3402H51.3921L36.6577 36.8779Z" fill="white"/>
<path d="M66.9177 55.4018L66.304 54.6172C62.9389 50.2981 58.7524 44.9249 60.47 37.7246L62.1065 30.8641L63.3172 31.1529C67.6885 32.1956 71.44 31.0735 72.0437 28.5428L74.4651 29.1204C73.8614 31.6511 76.7025 34.3459 81.0737 35.3886L82.2844 35.6774L80.6479 42.5379C78.9303 49.7382 72.769 52.6431 67.8184 54.9772L66.9177 55.4018Z" fill="#7AB9E8"/>
<path d="M81.0738 35.3887C76.7025 34.3459 73.8614 31.6512 74.4651 29.1205L73.2544 28.8317L66.9166 55.4004L66.9178 55.4019L67.8185 54.9773C72.769 52.6431 78.9304 49.7383 80.648 42.538L82.2845 35.6775L81.0738 35.3887Z" fill="#579ADF"/>
<path fill-rule="evenodd" clip-rule="evenodd" d="M35.148 22.6743C34.8375 23.9347 34.5285 25.194 34.2208 26.4523C37.0557 28.0747 40.6352 28.9807 45.1317 28.9822V23.779L35.148 22.6743Z" fill="#535353"/>
<path fill-rule="evenodd" clip-rule="evenodd" d="M55.1073 22.6743C55.4218 23.9347 55.7336 25.194 56.0427 26.4523C53.2016 28.0747 49.6302 28.9807 45.1317 28.9822V23.779L55.1073 22.6743Z" fill="#676767"/>
<path fill-rule="evenodd" clip-rule="evenodd" d="M47.3634 9.11046C53.8405 3.38232 41.593 3.92512 38.1414 1.02295C37.8978 1.26529 37.7533 1.55666 37.726 1.86083C37.6987 2.165 37.7897 2.46856 37.9878 2.73377C36.4555 3.68561 33.7619 2.38694 32.3013 4.21129C33.9565 4.13975 34.9643 4.63589 35.5788 5.3C31.0395 4.77431 32.8155 7.97354 28.9358 8.15395C31.8261 9.37797 38.6146 7.02792 42.8118 9.8881C44.7066 9.83522 45.4686 9.168 47.3634 9.11046Z" fill="#1B2241"/>
<path fill-rule="evenodd" clip-rule="evenodd" d="M28.9378 8.10108C31.7988 9.36525 38.5376 6.95647 42.7041 9.88814C43.4794 9.85518 44.2422 9.72102 44.9612 9.49119C39.5116 4.67842 34.6761 8.95077 28.9357 8.10108H28.9378Z" fill="#1A1A1A"/>
<path fill-rule="evenodd" clip-rule="evenodd" d="M46.9851 8.62385C46.2371 8.68213 45.5035 8.81658 44.8047 9.02344L44.7553 9.03568C44.9994 8.76317 45.2394 8.49066 45.4753 8.21815C47.6187 6.39477 43.1076 4.23764 40.3718 3.79519C39.3865 4.43208 37.8684 4.13048 37.0909 4.57752C37.7615 5.11948 38.177 6.05643 38.8496 6.59839C31.1687 5.82066 34.6677 7.67006 30.9816 8.02831C31.2297 7.90284 31.455 7.75414 31.6521 7.58586C32.8863 6.53715 32.7033 5.39199 35.3938 5.69818L36.8913 5.86812C36.6267 5.59459 36.36 5.32156 36.0912 5.04905C35.4846 4.41608 34.5717 3.98303 33.5446 3.84112C33.7854 3.73628 34.0506 3.66616 34.3263 3.63444C34.5891 3.60483 34.8544 3.58897 35.1203 3.58698C36.3174 3.56555 37.4591 3.63597 38.4115 3.06339L38.7653 2.84753C38.6953 2.75261 38.6234 2.65922 38.5596 2.56583C38.4004 2.35623 38.3335 2.11475 38.3683 1.87537C39.6025 2.57195 41.3098 3.04043 42.7723 3.42929C43.9304 3.73549 45.1461 4.04168 46.2446 4.42289C47.0201 4.6954 47.8902 5.07355 48.3016 5.59101C49.0483 6.55552 47.8943 7.80938 46.9851 8.62385Z" fill="#4386BB"/>
<path fill-rule="evenodd" clip-rule="evenodd" d="M45.9062 8.75064C45.517 8.82683 45.1332 8.91786 44.7563 9.02335L44.7071 9.03568C44.9503 8.76142 45.1894 8.48717 45.4245 8.21291C47.5604 6.37786 43.0652 4.20692 40.3389 3.76164C39.3571 4.4026 37.8443 4.09907 37.0695 4.54897C37.7377 5.0944 38.1518 6.03735 38.8221 6.58278C31.1681 5.80007 34.6548 7.66132 30.9816 8.02186C32.894 7.64745 32.8592 6.29466 33.9456 5.96956C35.032 5.64445 36.4668 6.39327 37.5614 6.06816C37.4466 5.44107 36.928 4.93108 36.1737 4.15299C37.2212 3.6769 39.8634 4.10215 39.314 2.72778C41.6651 4.67685 49.2392 3.86949 46.3654 8.5827L45.9062 8.75064Z" fill="#283A84"/>
<path d="M45.2169 12.7863C43.2867 12.7863 41.722 11.7559 41.722 10.4848C41.722 9.21366 43.2867 8.18323 45.2169 8.18323C47.1471 8.18323 48.7119 9.21366 48.7119 10.4848C48.7119 11.7559 47.1471 12.7863 45.2169 12.7863Z" fill="#CDCCCC"/>
<path fill-rule="evenodd" clip-rule="evenodd" d="M45.2015 10.5701C40.8199 10.5701 37.076 12.3072 35.5784 14.7577C34.7741 15.016 34.2207 15.5479 34.2207 16.1567C34.2248 16.3591 34.2859 16.5586 34.4 16.7422C34.5141 16.9257 34.6787 17.0893 34.8831 17.2221C34.9572 20.8056 39.5486 23.6973 45.2015 23.6973C50.8544 23.6973 55.4294 20.8117 55.5158 17.2375C55.7293 17.1041 55.9021 16.9381 56.0224 16.7506C56.1427 16.5631 56.2078 16.3585 56.2131 16.1506C56.2131 15.5356 55.6413 14.993 54.8184 14.7393C53.3147 12.295 49.5769 10.5701 45.2015 10.5701Z" fill="#8B8A8A"/>
<path fill-rule="evenodd" clip-rule="evenodd" d="M46.8366 20.2876C42.9839 20.2876 39.8467 18.3006 39.8467 15.8551C39.8467 13.4095 42.9901 11.4225 46.8366 11.4225C50.683 11.4225 53.8264 13.4095 53.8264 15.8551C53.8264 18.3006 50.6912 20.2876 46.8366 20.2876Z" fill="#989898"/>
<path fill-rule="evenodd" clip-rule="evenodd" d="M48.9676 15.3436C47.5112 15.3436 46.3251 14.5772 46.3251 13.6388C46.3251 12.7004 47.5112 11.934 48.9676 11.934C50.4239 11.934 51.6101 12.6988 51.6101 13.6388C51.6101 14.5788 50.4116 15.3436 48.9676 15.3436Z" fill="#ACACAC"/>
<path fill-rule="evenodd" clip-rule="evenodd" d="M45.1317 14.3208H45.2317C46.6255 14.3154 48.0089 14.5037 49.3141 14.8765L56.8951 17.0292V23.4436C53.5781 26.3793 49.7101 28.6783 45.1317 30.1757V14.3208Z" fill="#CDCCCC"/>
<path fill-rule="evenodd" clip-rule="evenodd" d="M46.8365 15.3436C47.4406 15.4201 48.0333 15.543 48.6059 15.7106L50.0593 16.129V26.8641C49.0336 27.4554 47.9576 27.9922 46.8386 28.4709V15.3436H46.8365ZM50.7416 16.3258L53.0022 16.9769V24.9404C52.2876 25.4666 51.5347 25.9756 50.7416 26.4597V16.3258ZM53.6826 17.1721L55.1902 17.6062V23.1744C54.7071 23.5991 54.2046 24.0155 53.6826 24.4236V17.1721Z" fill="#333333"/>
<path fill-rule="evenodd" clip-rule="evenodd" d="M45.1317 14.3208H45.0317C43.6414 14.3163 42.2616 14.5046 40.9595 14.8764L33.3683 17.0276V23.4421C36.6873 26.3793 40.5554 28.6783 45.1317 30.1757V14.3208Z" fill="#B4B4B4"/>
<path fill-rule="evenodd" clip-rule="evenodd" d="M43.4269 15.3436C42.8104 15.4203 42.2055 15.5432 41.621 15.7106L40.1376 16.129V26.8641C41.1847 27.4551 42.283 27.9919 43.4248 28.4709V15.3436H43.4269ZM39.4411 16.3258L37.136 16.9769V24.9404C37.8633 25.4666 38.6316 25.9756 39.4411 26.4597V16.3258ZM36.4395 17.1721L34.9027 17.6062V23.1744C35.3944 23.5991 35.9067 24.0155 36.4395 24.4236V17.1721Z" fill="#1A1A1A"/>
<path fill-rule="evenodd" clip-rule="evenodd" d="M46.0988 8.6947C45.4445 8.6947 45.1307 9.00073 45.397 9.37664C45.5656 9.5774 45.8075 9.74551 46.0995 9.86491C46.3915 9.9843 46.7239 10.051 47.0648 10.0586C47.7171 10.0586 48.0309 9.75394 47.7646 9.37664C47.5959 9.17625 47.3542 9.00841 47.0627 8.88905C46.7711 8.76969 46.4393 8.70279 46.0988 8.6947Z" fill="#E3E3E3"/>
<g clip-path="url(#clip0_186_5579)">
<path fill-rule="evenodd" clip-rule="evenodd" d="M29.5728 47.4634L29.4363 47.534C29.2815 47.6171 29.1093 47.6624 28.9337 47.6662C28.758 47.67 28.584 47.6323 28.4257 47.556C28.2654 47.4845 28.1241 47.3762 28.0134 47.2399C27.9027 47.1036 27.8257 46.9431 27.7886 46.7714C27.4748 45.4 26.8471 43.7242 25.9542 41.9935C25.0614 40.2628 24.0587 38.7815 23.1297 37.7318C23.0133 37.601 22.9284 37.4453 22.8813 37.2766C22.8343 37.108 22.8265 36.9308 22.8584 36.7587C22.8904 36.5865 22.9613 36.424 23.0657 36.2834C23.1701 36.1428 23.3052 36.028 23.4608 35.9477L23.5989 35.8771L23.0308 34.7787L20.3632 36.1532L17.6956 37.5262L18.2636 38.6246L18.4001 38.554C18.5564 38.4722 18.7294 38.4275 18.9057 38.4234C19.0821 38.4192 19.257 38.4558 19.4169 38.5301C19.5769 38.6045 19.7175 38.7147 19.828 38.8521C19.9385 38.9896 20.0159 39.1507 20.0541 39.3228C20.3679 40.6927 20.9956 42.3701 21.8885 44.0992C22.7813 45.8284 23.784 47.3112 24.713 48.361C24.8294 48.4919 24.9144 48.6477 24.9614 48.8165C25.0084 48.9852 25.0162 49.1625 24.9843 49.3348C24.9523 49.507 24.8815 49.6697 24.7771 49.8104C24.6727 49.9511 24.5375 50.0661 24.3819 50.1466L24.2438 50.2172L24.8119 51.3156L27.4795 49.9426L30.1409 48.5634L29.5728 47.4634Z" fill="#4592CF"/>
<path fill-rule="evenodd" clip-rule="evenodd" d="M22.7824 38.3795C22.3424 38.6091 22.9534 40.6956 24.149 43.0369C25.3446 45.3781 26.6708 47.092 27.103 46.8625C27.5353 46.6329 26.932 44.5463 25.7364 42.2051C24.5408 39.8638 23.2224 38.1499 22.7824 38.3795Z" fill="#283A84"/>
<path fill-rule="evenodd" clip-rule="evenodd" d="M3.37494 3.40967L4.80469 11.4889L18.1422 37.3359L22.4691 35.1028L9.13163 9.25577L3.37494 3.40967Z" fill="#D1D2D2"/>
<path fill-rule="evenodd" clip-rule="evenodd" d="M7.69091 7.77382L5.4201 6.295L6.21859 11.1149L18.207 37.3359L4.81097 11.4889L3.37495 3.40967L7.69091 7.77382Z" fill="#E6E6E5"/>
<path fill-rule="evenodd" clip-rule="evenodd" d="M7.12556 10.7405L13.4273 23.6112L19.7307 36.4835L20.4188 36.1334L21.1052 35.7833L14.1154 23.2627L7.12556 10.7405Z" fill="#818181"/>
<path fill-rule="evenodd" clip-rule="evenodd" d="M23.7873 33.5505L16.1588 37.5091C15.7665 37.2252 15.2906 37.0824 14.8078 37.1037C14.325 37.1251 13.8634 37.3094 13.4975 37.6268C13.1315 37.9443 12.8826 38.3765 12.7907 38.8536C12.6989 39.3308 12.7696 39.8251 12.9913 40.257C13.213 40.6888 13.5729 41.033 14.013 41.234C14.453 41.4349 14.9475 41.481 15.4167 41.3648C15.886 41.2485 16.3027 40.9768 16.5995 40.5932C16.8964 40.2097 17.0562 39.7368 17.0531 39.2508L24.6816 35.2923C25.0743 35.577 25.551 35.7203 26.0346 35.6992C26.5183 35.6781 26.9808 35.4937 27.3475 35.1758C27.7142 34.8579 27.9637 34.4251 28.0558 33.9471C28.1479 33.4691 28.0771 32.9739 27.855 32.5413C27.6329 32.1087 27.2723 31.764 26.8315 31.5627C26.3907 31.3615 25.8953 31.3155 25.4252 31.4321C24.9552 31.5487 24.5379 31.8212 24.2408 32.2055C23.9436 32.5899 23.7838 33.0637 23.7873 33.5505Z" fill="#333333"/>
</g>
<path d="M8.99143 75.625V83.509H8.07943V75.625H5.15143V74.761H11.9194V75.625H8.99143ZM14.9034 78.661L13.3194 83.509H12.3594L10.3674 77.545H11.2794L12.8514 82.489L14.4714 77.545H15.3594L16.9794 82.501H16.9914L18.5754 77.545H19.4754L17.4594 83.509H16.4994L14.9154 78.661H14.9034ZM20.7074 75.877C20.5794 75.733 20.5154 75.577 20.5154 75.409C20.5154 75.241 20.5794 75.085 20.7074 74.941C20.8354 74.813 20.9914 74.749 21.1754 74.749C21.3514 74.749 21.5034 74.813 21.6314 74.941C21.7594 75.069 21.8234 75.225 21.8234 75.409C21.8234 75.593 21.7594 75.749 21.6314 75.877C21.5034 76.005 21.3514 76.069 21.1754 76.069C20.9914 76.069 20.8354 76.005 20.7074 75.877ZM20.7314 83.509V77.545H21.6074V83.509H20.7314ZM25.667 83.557C24.539 83.557 23.975 83.025 23.975 81.961V78.313H22.871V77.545H23.975V75.829H24.839V77.545H26.351V78.313H24.839V81.949C24.839 82.509 25.163 82.789 25.811 82.789C25.963 82.789 26.143 82.773 26.351 82.741V83.461C26.143 83.525 25.915 83.557 25.667 83.557ZM29.9092 83.557C28.7812 83.557 28.2172 83.025 28.2172 81.961V78.313H27.1132V77.545H28.2172V75.829H29.0812V77.545H30.5932V78.313H29.0812V81.949C29.0812 82.509 29.4052 82.789 30.0532 82.789C30.2052 82.789 30.3852 82.773 30.5932 82.741V83.461C30.3852 83.525 30.1572 83.557 29.9092 83.557ZM37.0619 80.797H32.2379C32.2699 81.381 32.4899 81.865 32.8979 82.249C33.2979 82.641 33.7899 82.837 34.3739 82.837C34.8299 82.837 35.2179 82.729 35.5379 82.513C35.8579 82.289 36.0859 81.973 36.2219 81.565L36.9899 81.805C36.8219 82.365 36.4979 82.809 36.0179 83.137C35.5219 83.457 34.9779 83.617 34.3859 83.617C33.8259 83.617 33.3099 83.477 32.8379 83.197C32.3659 82.917 32.0059 82.541 31.7579 82.069C31.4939 81.605 31.3619 81.089 31.3619 80.521C31.3619 79.977 31.4859 79.473 31.7339 79.009C31.9659 78.537 32.3139 78.157 32.7779 77.869C33.2259 77.581 33.7219 77.437 34.2659 77.437C34.8659 77.437 35.3779 77.573 35.8019 77.845C36.2339 78.109 36.5539 78.473 36.7619 78.937C36.9699 79.377 37.0739 79.901 37.0739 80.509C37.0739 80.613 37.0699 80.709 37.0619 80.797ZM32.2499 80.053H36.1979C36.1419 79.509 35.9419 79.061 35.5979 78.709C35.2619 78.373 34.8179 78.205 34.2659 78.205C33.7619 78.205 33.3179 78.385 32.9339 78.745C32.5499 79.121 32.3219 79.557 32.2499 80.053ZM38.579 77.545H39.431V78.721C39.711 78.153 40.119 77.769 40.655 77.569C40.871 77.489 41.107 77.449 41.363 77.449C41.515 77.449 41.611 77.457 41.651 77.473V78.397C41.587 78.381 41.475 78.373 41.315 78.373C40.667 78.373 40.195 78.589 39.899 79.021C39.603 79.453 39.455 79.977 39.455 80.593V83.509H38.579V77.545ZM44.8161 79.513V79.225C44.8161 78.073 45.0961 77.025 45.6561 76.081C46.2081 75.129 46.9881 74.365 47.9961 73.789L48.3561 74.353C46.5881 75.489 45.7041 77.117 45.7041 79.237V79.501C45.7041 81.605 46.5881 83.229 48.3561 84.373L47.9961 84.961C46.9881 84.377 46.2081 83.609 45.6561 82.657C45.0961 81.713 44.8161 80.665 44.8161 79.513ZM52.7375 75.625V83.509H51.8255V75.625H48.8975V74.761H55.6655V75.625H52.7375ZM59.9557 83.509H58.9477L56.2117 74.761H57.1717L59.4637 82.189H59.4877L61.7917 74.761H62.8357L65.1637 82.225H65.1757L67.4797 74.761H68.4037L65.6557 83.509H64.6357L62.3077 75.997L59.9557 83.509ZM72.8 75.625V83.509H71.888V75.625H68.96V74.761H75.728V75.625H72.8ZM83.5822 83.509H82.4662L79.8742 79.969H78.0982V83.509H77.1742V74.761H80.2102C81.2582 74.761 82.0382 75.017 82.5502 75.529C83.0382 76.017 83.2822 76.613 83.2822 77.317C83.2822 78.021 83.0542 78.593 82.5982 79.033C82.1422 79.465 81.5702 79.725 80.8822 79.813L83.5822 83.509ZM78.0982 75.625V79.129H80.1262C80.8942 79.129 81.4662 78.941 81.8422 78.565C82.1782 78.229 82.3462 77.821 82.3462 77.341C82.3462 76.853 82.1702 76.445 81.8182 76.117C81.4742 75.789 80.9182 75.625 80.1502 75.625H78.0982ZM87.8413 79.225V79.513C87.8413 80.673 87.5653 81.725 87.0133 82.669C86.4533 83.613 85.6693 84.377 84.6613 84.961L84.3013 84.373C86.0693 83.229 86.9533 81.605 86.9533 79.501V79.237C86.9533 77.117 86.0693 75.489 84.3013 74.353L84.6613 73.789C85.6693 74.357 86.4533 75.117 87.0133 76.069C87.5653 77.021 87.8413 78.073 87.8413 79.225Z" fill="white"/>
<defs>
<clipPath id="clip0_186_5579">
<rect width="28.9942" height="52.0657" fill="white" transform="matrix(-1 0 0 1 29.9704 0)"/>
</clipPath>
</defs>
</svg>
