<svg width="90" height="98" viewBox="0 0 90 98" fill="none" xmlns="http://www.w3.org/2000/svg">
<rect x="21.5801" y="24.1279" width="45.9342" height="45.9342" rx="22.9671" fill="#1D7AD9"/>
<rect x="21.5801" y="24.1279" width="45.9342" height="45.9342" rx="22.9671" stroke="#CDCCCC"/>
<path d="M44.7088 43.3675C45.3939 43.3675 45.9707 43.01 46.0458 42.5502L46.7249 34.8581C46.7249 34.0964 45.828 33.4729 44.7088 33.4729C43.5835 33.4729 42.6925 34.0964 42.6925 34.8581L43.3776 42.5502C43.4498 43.01 44.0236 43.3675 44.7088 43.3675Z" fill="#FFC220"/>
<path d="M40.5421 45.7745C40.8816 45.1735 40.8621 44.5065 40.4956 44.209L34.1555 39.7755C33.496 39.3909 32.5089 39.8491 31.944 40.8196C31.3806 41.7887 31.4948 42.8764 32.1408 43.2535L39.1599 46.5076C39.6091 46.6759 40.1965 46.3634 40.5421 45.7685" fill="#FFC220"/>
<path d="M48.8747 45.7682C49.2337 46.3631 49.8212 46.6756 50.2584 46.5163L57.2775 43.2532C57.9295 42.8686 58.0272 41.7914 57.4758 40.8223C56.9124 39.8518 55.9193 39.3966 55.2613 39.7737L48.9198 44.2027C48.5682 44.5047 48.5427 45.1747 48.8822 45.7742" fill="#FFC220"/>
<path d="M44.7088 52.9758C45.3939 52.9758 45.9707 53.3334 46.0458 53.7931L46.7249 61.4853C46.7249 62.247 45.828 62.8645 44.7088 62.8645C43.5835 62.8645 42.6925 62.247 42.6925 61.4853L43.3776 53.7931C43.4498 53.3334 44.0236 52.9758 44.7088 52.9758Z" fill="#FFC220"/>
<path d="M48.8747 50.5757C49.2337 49.9793 49.8212 49.6608 50.2584 49.8335L57.2775 53.0907C57.9295 53.4678 58.0272 54.554 57.4758 55.5245C56.9124 56.4876 55.9193 56.9458 55.2613 56.5687L48.9198 52.1337C48.5682 51.8347 48.5427 51.1677 48.8822 50.5757" fill="#FFC220"/>
<path d="M40.5421 50.5691C40.8816 51.1685 40.8621 51.8341 40.4956 52.1345L34.1555 56.562C33.496 56.9466 32.5089 56.4869 31.944 55.5239C31.3806 54.5549 31.4948 53.4672 32.1408 53.0901L39.1599 49.8329C39.6091 49.6616 40.1965 49.9771 40.5421 50.5691Z" fill="#FFC220"/>
<path d="M66.9177 55.4018L66.304 54.6172C62.9389 50.2981 58.7524 44.9249 60.47 37.7246L62.1065 30.8641L63.3172 31.1529C67.6885 32.1956 71.44 31.0735 72.0437 28.5428L74.4651 29.1204C73.8614 31.6511 76.7025 34.3459 81.0738 35.3886L82.2844 35.6774L80.6479 42.5379C78.9303 49.7382 72.769 52.6431 67.8184 54.9772L66.9177 55.4018Z" fill="#7AB9E8"/>
<path d="M81.0738 35.3887C76.7025 34.3459 73.8614 31.6512 74.4651 29.1205L73.2544 28.8317L66.9166 55.4004L66.9178 55.4019L67.8185 54.9773C72.7691 52.6431 78.9304 49.7383 80.648 42.538L82.2845 35.6775L81.0738 35.3887Z" fill="#579ADF"/>
<path fill-rule="evenodd" clip-rule="evenodd" d="M35.1479 22.6743C34.8375 23.9347 34.5284 25.194 34.2207 26.4523C37.0557 28.0747 40.6352 28.9807 45.1317 28.9822V23.779L35.1479 22.6743Z" fill="#535353"/>
<path fill-rule="evenodd" clip-rule="evenodd" d="M55.1073 22.6743C55.4218 23.9347 55.7336 25.194 56.0427 26.4523C53.2016 28.0747 49.6302 28.9807 45.1317 28.9822V23.779L55.1073 22.6743Z" fill="#676767"/>
<path fill-rule="evenodd" clip-rule="evenodd" d="M47.3634 9.11046C53.8405 3.38232 41.593 3.92512 38.1414 1.02295C37.8977 1.26529 37.7533 1.55666 37.726 1.86083C37.6986 2.165 37.7897 2.46856 37.9877 2.73377C36.4555 3.68561 33.7618 2.38694 32.3013 4.21129C33.9564 4.13975 34.9643 4.63589 35.5788 5.3C31.0395 4.77431 32.8155 7.97354 28.9357 8.15395C31.8261 9.37797 38.6146 7.02792 42.8118 9.8881C44.7066 9.83522 45.4686 9.168 47.3634 9.11046Z" fill="#1B2241"/>
<path fill-rule="evenodd" clip-rule="evenodd" d="M28.9378 8.10108C31.7988 9.36525 38.5376 6.95647 42.7041 9.88814C43.4794 9.85518 44.2422 9.72102 44.9612 9.49119C39.5116 4.67842 34.6761 8.95077 28.9357 8.10108H28.9378Z" fill="#1A1A1A"/>
<path fill-rule="evenodd" clip-rule="evenodd" d="M46.9851 8.62385C46.2371 8.68213 45.5035 8.81658 44.8047 9.02344L44.7553 9.03568C44.9994 8.76317 45.2394 8.49066 45.4752 8.21815C47.6186 6.39477 43.1076 4.23764 40.3718 3.79519C39.3865 4.43208 37.8684 4.13048 37.0909 4.57752C37.7615 5.11948 38.177 6.05643 38.8496 6.59839C31.1687 5.82066 34.6677 7.67006 30.9815 8.02831C31.2296 7.90284 31.455 7.75414 31.6521 7.58586C32.8863 6.53715 32.7033 5.39199 35.3938 5.69818L36.8913 5.86812C36.6267 5.59459 36.3599 5.32156 36.0912 5.04905C35.4846 4.41608 34.5716 3.98303 33.5446 3.84112C33.7854 3.73628 34.0506 3.66616 34.3262 3.63444C34.5891 3.60483 34.8544 3.58897 35.1203 3.58698C36.3174 3.56555 37.4591 3.63597 38.4115 3.06339L38.7653 2.84753C38.6953 2.75261 38.6233 2.65922 38.5596 2.56583C38.4004 2.35623 38.3335 2.11475 38.3683 1.87537C39.6025 2.57195 41.3098 3.04043 42.7723 3.42929C43.9304 3.73549 45.1461 4.04168 46.2446 4.42289C47.0201 4.6954 47.8902 5.07355 48.3016 5.59101C49.0483 6.55552 47.8943 7.80938 46.9851 8.62385Z" fill="#4386BB"/>
<path fill-rule="evenodd" clip-rule="evenodd" d="M45.9062 8.75064C45.517 8.82683 45.1332 8.91786 44.7563 9.02335L44.7071 9.03568C44.9503 8.76142 45.1894 8.48717 45.4245 8.21291C47.5604 6.37786 43.0652 4.20692 40.3389 3.76164C39.3571 4.4026 37.8443 4.09907 37.0695 4.54897C37.7377 5.0944 38.1518 6.03735 38.8221 6.58278C31.1681 5.80007 34.6548 7.66132 30.9816 8.02186C32.894 7.64745 32.8592 6.29466 33.9456 5.96956C35.032 5.64445 36.4668 6.39327 37.5614 6.06816C37.4466 5.44107 36.928 4.93108 36.1737 4.15299C37.2212 3.6769 39.8634 4.10215 39.314 2.72778C41.6651 4.67685 49.2392 3.86949 46.3653 8.5827L45.9062 8.75064Z" fill="#283A84"/>
<path d="M45.2169 12.7863C43.2867 12.7863 41.722 11.7559 41.722 10.4848C41.722 9.21366 43.2867 8.18323 45.2169 8.18323C47.1471 8.18323 48.7119 9.21366 48.7119 10.4848C48.7119 11.7559 47.1471 12.7863 45.2169 12.7863Z" fill="#CDCCCC"/>
<path fill-rule="evenodd" clip-rule="evenodd" d="M45.2015 10.5701C40.8199 10.5701 37.076 12.3072 35.5784 14.7577C34.7741 15.016 34.2207 15.5479 34.2207 16.1567C34.2248 16.3591 34.2859 16.5586 34.4 16.7422C34.5141 16.9257 34.6788 17.0893 34.8831 17.2221C34.9572 20.8056 39.5486 23.6973 45.2015 23.6973C50.8544 23.6973 55.4294 20.8117 55.5158 17.2375C55.7293 17.1041 55.9021 16.9381 56.0224 16.7506C56.1427 16.5631 56.2078 16.3585 56.2131 16.1506C56.2131 15.5356 55.6413 14.993 54.8184 14.7393C53.3147 12.295 49.577 10.5701 45.2015 10.5701Z" fill="#8B8A8A"/>
<path fill-rule="evenodd" clip-rule="evenodd" d="M46.8365 20.2876C42.9839 20.2876 39.8467 18.3006 39.8467 15.8551C39.8467 13.4095 42.9901 11.4225 46.8365 11.4225C50.683 11.4225 53.8264 13.4095 53.8264 15.8551C53.8264 18.3006 50.6912 20.2876 46.8365 20.2876Z" fill="#989898"/>
<path fill-rule="evenodd" clip-rule="evenodd" d="M48.9676 15.3436C47.5112 15.3436 46.3251 14.5772 46.3251 13.6388C46.3251 12.7004 47.5112 11.934 48.9676 11.934C50.4239 11.934 51.6101 12.6988 51.6101 13.6388C51.6101 14.5788 50.4116 15.3436 48.9676 15.3436Z" fill="#ACACAC"/>
<path fill-rule="evenodd" clip-rule="evenodd" d="M45.1317 14.3208H45.2317C46.6255 14.3154 48.0088 14.5037 49.3141 14.8765L56.8951 17.0292V23.4436C53.5781 26.3793 49.7101 28.6783 45.1317 30.1757V14.3208Z" fill="#CDCCCC"/>
<path fill-rule="evenodd" clip-rule="evenodd" d="M46.8365 15.3436C47.4406 15.4201 48.0333 15.543 48.6059 15.7106L50.0592 16.129V26.8641C49.0336 27.4554 47.9576 27.9922 46.8385 28.4709V15.3436H46.8365ZM50.7416 16.3258L53.0022 16.9769V24.9404C52.2876 25.4666 51.5347 25.9756 50.7416 26.4597V16.3258ZM53.6825 17.1721L55.1902 17.6062V23.1744C54.7071 23.5991 54.2046 24.0155 53.6825 24.4236V17.1721Z" fill="#333333"/>
<path fill-rule="evenodd" clip-rule="evenodd" d="M45.1317 14.3208H45.0317C43.6414 14.3163 42.2615 14.5046 40.9595 14.8764L33.3683 17.0276V23.4421C36.6873 26.3793 40.5553 28.6783 45.1317 30.1757V14.3208Z" fill="#B4B4B4"/>
<path fill-rule="evenodd" clip-rule="evenodd" d="M43.4269 15.3436C42.8104 15.4203 42.2055 15.5432 41.6209 15.7106L40.1376 16.129V26.8641C41.1847 27.4551 42.2829 27.9919 43.4248 28.4709V15.3436H43.4269ZM39.4411 16.3258L37.1359 16.9769V24.9404C37.8632 25.4666 38.6316 25.9756 39.4411 26.4597V16.3258ZM36.4395 17.1721L34.9027 17.6062V23.1744C35.3944 23.5991 35.9066 24.0155 36.4395 24.4236V17.1721Z" fill="#1A1A1A"/>
<path fill-rule="evenodd" clip-rule="evenodd" d="M46.0988 8.6947C45.4445 8.6947 45.1307 9.00073 45.397 9.37664C45.5656 9.5774 45.8075 9.74551 46.0995 9.86491C46.3915 9.9843 46.7239 10.051 47.0648 10.0586C47.7171 10.0586 48.0309 9.75394 47.7646 9.37664C47.5959 9.17625 47.3542 9.00841 47.0627 8.88905C46.7711 8.76969 46.4393 8.70279 46.0988 8.6947Z" fill="#E3E3E3"/>
<g clip-path="url(#clip0_186_6958)">
<path fill-rule="evenodd" clip-rule="evenodd" d="M29.573 47.4634L29.4365 47.534C29.2817 47.6171 29.1095 47.6624 28.9338 47.6662C28.7582 47.67 28.5842 47.6323 28.4259 47.556C28.2655 47.4845 28.1243 47.3762 28.0136 47.2399C27.9029 47.1036 27.8259 46.9431 27.7888 46.7714C27.475 45.4 26.8473 43.7242 25.9544 41.9935C25.0616 40.2628 24.0588 38.7815 23.1299 37.7318C23.0135 37.601 22.9285 37.4453 22.8815 37.2766C22.8345 37.108 22.8267 36.9308 22.8586 36.7587C22.8906 36.5865 22.9614 36.424 23.0658 36.2834C23.1702 36.1428 23.3054 36.028 23.461 35.9477L23.5991 35.8771L23.031 34.7787L20.3634 36.1532L17.6957 37.5262L18.2638 38.6246L18.4003 38.554C18.5566 38.4722 18.7296 38.4275 18.9059 38.4234C19.0822 38.4192 19.2572 38.4558 19.4171 38.5301C19.577 38.6045 19.7177 38.7147 19.8282 38.8521C19.9387 38.9896 20.016 39.1507 20.0542 39.3228C20.3681 40.6927 20.9958 42.3701 21.8886 44.0992C22.7815 45.8284 23.7842 47.3112 24.7132 48.361C24.8296 48.4919 24.9145 48.6477 24.9615 48.8165C25.0086 48.9852 25.0164 49.1625 24.9845 49.3348C24.9525 49.507 24.8816 49.6697 24.7772 49.8104C24.6729 49.9511 24.5377 50.0661 24.3821 50.1466L24.244 50.2172L24.812 51.3156L27.4797 49.9426L30.141 48.5634L29.573 47.4634Z" fill="#4592CF"/>
<path fill-rule="evenodd" clip-rule="evenodd" d="M22.7825 38.3795C22.3425 38.6091 22.9535 40.6956 24.1491 43.0369C25.3448 45.3781 26.671 47.092 27.1032 46.8625C27.5354 46.6329 26.9322 44.5463 25.7366 42.2051C24.5409 39.8638 23.2225 38.1499 22.7825 38.3795Z" fill="#283A84"/>
<path fill-rule="evenodd" clip-rule="evenodd" d="M3.3751 3.40967L4.80485 11.4889L18.1423 37.3359L22.4693 35.1028L9.13179 9.25577L3.3751 3.40967Z" fill="#D1D2D2"/>
<path fill-rule="evenodd" clip-rule="evenodd" d="M7.69107 7.77382L5.42025 6.295L6.21875 11.1149L18.2072 37.3359L4.81113 11.4889L3.3751 3.40967L7.69107 7.77382Z" fill="#E6E6E5"/>
<path fill-rule="evenodd" clip-rule="evenodd" d="M7.12574 10.7405L13.4275 23.6112L19.7309 36.4835L20.4189 36.1334L21.1054 35.7833L14.1156 23.2627L7.12574 10.7405Z" fill="#818181"/>
<path fill-rule="evenodd" clip-rule="evenodd" d="M23.7874 33.5505L16.1589 37.5091C15.7667 37.2252 15.2908 37.0824 14.808 37.1037C14.3251 37.1251 13.8635 37.3094 13.4976 37.6268C13.1317 37.9443 12.8827 38.3765 12.7909 38.8536C12.6991 39.3308 12.7697 39.8251 12.9914 40.257C13.2132 40.6888 13.5731 41.033 14.0131 41.234C14.4531 41.4349 14.9476 41.481 15.4169 41.3648C15.8861 41.2485 16.3028 40.9768 16.5997 40.5932C16.8965 40.2097 17.0563 39.7368 17.0532 39.2508L24.6817 35.2923C25.0745 35.577 25.5511 35.7203 26.0348 35.6992C26.5185 35.6781 26.9809 35.4937 27.3476 35.1758C27.7143 34.8579 27.9638 34.4251 28.0559 33.9471C28.148 33.4691 28.0773 32.9739 27.8552 32.5413C27.633 32.1087 27.2725 31.764 26.8316 31.5627C26.3908 31.3615 25.8954 31.3155 25.4254 31.4321C24.9553 31.5487 24.5381 31.8212 24.2409 32.2055C23.9437 32.5899 23.784 33.0637 23.7874 33.5505Z" fill="#333333"/>
</g>
<path d="M27.3776 83.509H26.3696L23.6336 74.761H24.5936L26.8856 82.189H26.9096L29.2136 74.761H30.2576L32.5856 82.225H32.5976L34.9016 74.761H35.8256L33.0776 83.509H32.0576L29.7296 75.997L27.3776 83.509ZM38.0386 80.065H39.6946V79.669C39.6946 78.701 39.1866 78.217 38.1706 78.217C37.6826 78.217 37.3066 78.349 37.0426 78.613C36.8026 78.853 36.6586 79.125 36.6106 79.429L35.7706 79.249C35.7786 79.081 35.8586 78.869 36.0106 78.613C36.1626 78.357 36.3626 78.129 36.6106 77.929C37.0346 77.601 37.5626 77.437 38.1946 77.437C39.2826 77.437 40.0066 77.849 40.3666 78.673C40.4866 78.953 40.5466 79.281 40.5466 79.657V81.337C40.5466 82.313 40.5786 83.037 40.6426 83.509H39.7786C39.7226 83.205 39.6946 82.857 39.6946 82.465C39.1906 83.233 38.5186 83.617 37.6786 83.617C37.0786 83.617 36.5986 83.449 36.2386 83.113C35.8626 82.785 35.6746 82.365 35.6746 81.853V81.793C35.6746 81.201 35.9106 80.765 36.3826 80.485C36.8626 80.205 37.4146 80.065 38.0386 80.065ZM39.6946 80.989V80.785H38.0266C37.6586 80.785 37.3346 80.853 37.0546 80.989C36.7186 81.133 36.5506 81.397 36.5506 81.781C36.5506 82.109 36.6746 82.369 36.9226 82.561C37.1626 82.753 37.4666 82.849 37.8346 82.849C38.3546 82.849 38.7986 82.673 39.1666 82.321C39.5186 81.985 39.6946 81.541 39.6946 80.989ZM42.4462 83.509V74.401H43.3222V83.509H42.4462ZM50.2138 83.509H49.3618V80.005C49.3618 79.493 49.2338 79.065 48.9778 78.721C48.7138 78.393 48.3298 78.229 47.8258 78.229C47.3138 78.229 46.9098 78.413 46.6138 78.781C46.3178 79.149 46.1698 79.593 46.1698 80.113V83.509H45.2938V77.545H46.1458V78.577C46.4098 78.185 46.6938 77.897 46.9978 77.713C47.3018 77.529 47.6618 77.437 48.0778 77.437C48.9818 77.437 49.6178 77.837 49.9858 78.637C50.4898 77.837 51.1898 77.437 52.0858 77.437C52.7818 77.437 53.3258 77.657 53.7178 78.097C54.0938 78.537 54.2818 79.113 54.2818 79.825V83.509H53.4178V80.041C53.4178 79.497 53.2898 79.061 53.0338 78.733C52.7698 78.397 52.3818 78.229 51.8698 78.229C51.3738 78.229 50.9738 78.409 50.6698 78.769C50.3658 79.121 50.2138 79.557 50.2138 80.077V83.509ZM58.1246 80.065H59.7806V79.669C59.7806 78.701 59.2726 78.217 58.2566 78.217C57.7686 78.217 57.3926 78.349 57.1286 78.613C56.8886 78.853 56.7446 79.125 56.6966 79.429L55.8566 79.249C55.8646 79.081 55.9446 78.869 56.0966 78.613C56.2486 78.357 56.4486 78.129 56.6966 77.929C57.1206 77.601 57.6486 77.437 58.2806 77.437C59.3686 77.437 60.0926 77.849 60.4526 78.673C60.5726 78.953 60.6326 79.281 60.6326 79.657V81.337C60.6326 82.313 60.6646 83.037 60.7286 83.509H59.8646C59.8086 83.205 59.7806 82.857 59.7806 82.465C59.2766 83.233 58.6046 83.617 57.7646 83.617C57.1646 83.617 56.6846 83.449 56.3246 83.113C55.9486 82.785 55.7606 82.365 55.7606 81.853V81.793C55.7606 81.201 55.9966 80.765 56.4686 80.485C56.9486 80.205 57.5006 80.065 58.1246 80.065ZM59.7806 80.989V80.785H58.1126C57.7446 80.785 57.4206 80.853 57.1406 80.989C56.8046 81.133 56.6366 81.397 56.6366 81.781C56.6366 82.109 56.7606 82.369 57.0086 82.561C57.2486 82.753 57.5526 82.849 57.9206 82.849C58.4406 82.849 58.8846 82.673 59.2526 82.321C59.6046 81.985 59.7806 81.541 59.7806 80.989ZM62.5321 77.545H63.3841V78.721C63.6641 78.153 64.0721 77.769 64.6081 77.569C64.8241 77.489 65.0601 77.449 65.3161 77.449C65.4681 77.449 65.5641 77.457 65.6041 77.473V78.397C65.5401 78.381 65.4281 78.373 65.2681 78.373C64.6201 78.373 64.1481 78.589 63.8521 79.021C63.5561 79.453 63.4081 79.977 63.4081 80.593V83.509H62.5321V77.545ZM68.8623 83.557C67.7343 83.557 67.1703 83.025 67.1703 81.961V78.313H66.0663V77.545H67.1703V75.829H68.0343V77.545H69.5463V78.313H68.0343V81.949C68.0343 82.509 68.3583 82.789 69.0063 82.789C69.1583 82.789 69.3383 82.773 69.5463 82.741V83.461C69.3383 83.525 69.1103 83.557 68.8623 83.557ZM27.0212 92.513V92.225C27.0212 91.073 27.3012 90.025 27.8612 89.081C28.4132 88.129 29.1932 87.365 30.2012 86.789L30.5612 87.353C28.7932 88.489 27.9092 90.117 27.9092 92.237V92.501C27.9092 94.605 28.7932 96.229 30.5612 97.373L30.2012 97.961C29.1932 97.377 28.4132 96.609 27.8612 95.657C27.3012 94.713 27.0212 93.665 27.0212 92.513ZM34.9186 96.509H33.9106L31.1746 87.761H32.1346L34.4266 95.189H34.4506L36.7546 87.761H37.7986L40.1266 95.225H40.1386L42.4426 87.761H43.3666L40.6186 96.509H39.5986L37.2706 88.997L34.9186 96.509ZM52.7069 87.761H54.0269V96.509H53.1149V89.009L49.8629 96.509H49.0349L45.8069 89.069V96.509H44.8949V87.761H46.2029L49.4669 95.261L52.7069 87.761ZM59.3293 88.625V96.509H58.4173V88.625H55.4893V87.761H62.2573V88.625H59.3293ZM66.3315 92.225V92.513C66.3315 93.673 66.0555 94.725 65.5035 95.669C64.9435 96.613 64.1595 97.377 63.1515 97.961L62.7915 97.373C64.5595 96.229 65.4435 94.605 65.4435 92.501V92.237C65.4435 90.117 64.5595 88.489 62.7915 87.353L63.1515 86.789C64.1595 87.357 64.9435 88.117 65.5035 89.069C66.0555 90.021 66.3315 91.073 66.3315 92.225Z" fill="white"/>
<defs>
<clipPath id="clip0_186_6958">
<rect width="28.9942" height="52.0657" fill="white" transform="matrix(-1 0 0 1 29.9706 0)"/>
</clipPath>
</defs>
</svg>
