<svg width="90" height="100" viewBox="0 0 90 100" fill="none" xmlns="http://www.w3.org/2000/svg">
<rect x="21.5801" y="24.1279" width="45.9342" height="45.9342" rx="22.9671" fill="#FE000C"/>
<rect x="21.5801" y="24.1279" width="45.9342" height="45.9342" rx="22.9671" stroke="#CDCCCC"/>
<g clip-path="url(#clip0_463_6286)">
<path fill-rule="evenodd" clip-rule="evenodd" d="M30.0176 52.9133H35.2224L39.9012 46.8983L42.8182 49.8542L36.1429 58.2143H41.3661L45.6403 52.6739L53.6858 60.8644H59.9908L48.4275 49.2326L57.5345 37.7241H52.3085L45.5786 46.3687L42.6662 43.4396L50.1523 34.0083H44.9402L39.8275 40.5896L37.0514 37.7241H30.8321L37.0955 44.0504L30.0176 52.9133Z" fill="white"/>
</g>
<path d="M66.9177 55.4018L66.3041 54.6172C62.9389 50.2981 58.7524 44.9249 60.47 37.7246L62.1065 30.8641L63.3172 31.1529C67.6885 32.1956 71.4401 31.0735 72.0438 28.5428L74.4651 29.1204C73.8614 31.6511 76.7025 34.3459 81.0738 35.3886L82.2845 35.6774L80.6479 42.5379C78.9304 49.7382 72.769 52.6431 67.8185 54.9772L66.9177 55.4018Z" fill="#7AB9E8"/>
<path d="M81.0738 35.3886C76.7026 34.3459 73.8615 31.6511 74.4652 29.1204L73.2545 28.8316L66.9166 55.4004L66.9178 55.4019L67.8185 54.9772C72.7691 52.6431 78.9304 49.7383 80.648 42.5379L82.2845 35.6774L81.0738 35.3886Z" fill="#579ADF"/>
<path fill-rule="evenodd" clip-rule="evenodd" d="M35.148 22.6743C34.8375 23.9347 34.5285 25.194 34.2208 26.4523C37.0557 28.0747 40.6352 28.9807 45.1317 28.9822V23.779L35.148 22.6743Z" fill="#535353"/>
<path fill-rule="evenodd" clip-rule="evenodd" d="M55.1073 22.6743C55.4218 23.9347 55.7336 25.194 56.0427 26.4523C53.2016 28.0747 49.6302 28.9807 45.1317 28.9822V23.779L55.1073 22.6743Z" fill="#676767"/>
<path fill-rule="evenodd" clip-rule="evenodd" d="M47.3634 9.1104C53.8405 3.38226 41.593 3.92506 38.1414 1.02289C37.8978 1.26523 37.7533 1.5566 37.726 1.86077C37.6987 2.16494 37.7897 2.4685 37.9878 2.73371C36.4555 3.68554 33.7619 2.38688 32.3013 4.21123C33.9565 4.13969 34.9643 4.63583 35.5788 5.29994C31.0395 4.77425 32.8155 7.97348 28.9358 8.15389C31.8261 9.37791 38.6146 7.02786 42.8118 9.88804C44.7066 9.83516 45.4686 9.16794 47.3634 9.1104Z" fill="#1B2241"/>
<path fill-rule="evenodd" clip-rule="evenodd" d="M28.9378 8.10096C31.7988 9.36513 38.5376 6.95635 42.7041 9.88802C43.4794 9.85506 44.2423 9.7209 44.9612 9.49107C39.5116 4.67829 34.6762 8.95065 28.9358 8.10096H28.9378Z" fill="#1A1A1A"/>
<path fill-rule="evenodd" clip-rule="evenodd" d="M46.9851 8.62379C46.2371 8.68206 45.5035 8.81651 44.8047 9.02337L44.7553 9.03562C44.9994 8.76311 45.2394 8.4906 45.4753 8.21809C47.6187 6.39471 43.1076 4.23758 40.3718 3.79513C39.3865 4.43201 37.8684 4.13041 37.0909 4.57746C37.7615 5.11942 38.177 6.05637 38.8496 6.59833C31.1687 5.8206 34.6677 7.67 30.9816 8.02825C31.2297 7.90278 31.455 7.75408 31.6521 7.5858C32.8863 6.53709 32.7033 5.39193 35.3938 5.69812L36.8913 5.86806C36.6267 5.59453 36.36 5.3215 36.0912 5.04899C35.4846 4.41602 34.5717 3.98297 33.5446 3.84106C33.7854 3.73622 34.0506 3.6661 34.3263 3.63438C34.5891 3.60477 34.8544 3.58891 35.1203 3.58692C36.3174 3.56549 37.4591 3.63591 38.4115 3.06333L38.7653 2.84747C38.6953 2.75255 38.6234 2.65916 38.5596 2.56577C38.4004 2.35617 38.3335 2.11469 38.3683 1.87531C39.6025 2.57189 41.3098 3.04037 42.7723 3.42923C43.9304 3.73543 45.1461 4.04162 46.2446 4.42283C47.0201 4.69534 47.8902 5.07349 48.3016 5.59095C49.0483 6.55546 47.8943 7.80932 46.9851 8.62379Z" fill="#4386BB"/>
<path fill-rule="evenodd" clip-rule="evenodd" d="M45.9062 8.75058C45.517 8.82677 45.1332 8.9178 44.7563 9.02329L44.7071 9.03562C44.9503 8.76136 45.1894 8.48711 45.4245 8.21285C47.5604 6.3778 43.0652 4.20686 40.3389 3.76158C39.3571 4.40254 37.8443 4.099 37.0695 4.54891C37.7377 5.09434 38.1518 6.03729 38.8221 6.58272C31.1681 5.80001 34.6548 7.66126 30.9816 8.02179C32.894 7.64739 32.8592 6.2946 33.9456 5.96949C35.032 5.64439 36.4668 6.3932 37.5614 6.0681C37.4466 5.44101 36.928 4.93102 36.1737 4.15293C37.2212 3.67683 39.8634 4.10209 39.314 2.72772C41.6651 4.67679 49.2392 3.86943 46.3654 8.58263L45.9062 8.75058Z" fill="#283A84"/>
<path d="M45.2169 12.7863C43.2867 12.7863 41.722 11.7559 41.722 10.4848C41.722 9.21366 43.2867 8.18323 45.2169 8.18323C47.1471 8.18323 48.7119 9.21366 48.7119 10.4848C48.7119 11.7559 47.1471 12.7863 45.2169 12.7863Z" fill="#CDCCCC"/>
<path fill-rule="evenodd" clip-rule="evenodd" d="M45.2015 10.5699C40.8199 10.5699 37.076 12.3071 35.5784 14.7576C34.7741 15.0159 34.2207 15.5478 34.2207 16.1566C34.2248 16.359 34.2859 16.5585 34.4 16.742C34.5141 16.9256 34.6787 17.0891 34.8831 17.222C34.9572 20.8055 39.5486 23.6972 45.2015 23.6972C50.8544 23.6972 55.4294 20.8116 55.5158 17.2373C55.7293 17.104 55.9021 16.938 56.0224 16.7505C56.1427 16.563 56.2078 16.3584 56.2131 16.1504C56.2131 15.5355 55.6413 14.9928 54.8184 14.7392C53.3147 12.2948 49.5769 10.5699 45.2015 10.5699Z" fill="#8B8A8A"/>
<path fill-rule="evenodd" clip-rule="evenodd" d="M46.8365 20.2875C42.9839 20.2875 39.8467 18.3005 39.8467 15.8549C39.8467 13.4094 42.9901 11.4224 46.8365 11.4224C50.683 11.4224 53.8264 13.4094 53.8264 15.8549C53.8264 18.3005 50.6912 20.2875 46.8365 20.2875Z" fill="#989898"/>
<path fill-rule="evenodd" clip-rule="evenodd" d="M48.9676 15.3435C47.5112 15.3435 46.3251 14.5771 46.3251 13.6387C46.3251 12.7002 47.5112 11.9338 48.9676 11.9338C50.424 11.9338 51.6101 12.6987 51.6101 13.6387C51.6101 14.5787 50.4116 15.3435 48.9676 15.3435Z" fill="#ACACAC"/>
<path fill-rule="evenodd" clip-rule="evenodd" d="M45.1317 14.3207H45.2317C46.6255 14.3154 48.0089 14.5037 49.3141 14.8764L56.8951 17.0291V23.4436C53.5781 26.3792 49.7101 28.6782 45.1317 30.1756V14.3207Z" fill="#CDCCCC"/>
<path fill-rule="evenodd" clip-rule="evenodd" d="M46.8365 15.3435C47.4406 15.4199 48.0333 15.5429 48.6059 15.7105L50.0593 16.1289V26.864C49.0336 27.4553 47.9576 27.9921 46.8386 28.4707V15.3435H46.8365ZM50.7416 16.3257L53.0022 16.9768V24.9403C52.2876 25.4665 51.5347 25.9755 50.7416 26.4596V16.3257ZM53.6826 17.172L55.1902 17.6061V23.1743C54.7071 23.599 54.2046 24.0154 53.6826 24.4234V17.172Z" fill="#333333"/>
<path fill-rule="evenodd" clip-rule="evenodd" d="M45.1317 14.3207H45.0317C43.6414 14.3163 42.2616 14.5046 40.9595 14.8764L33.3683 17.0275V23.442C36.6873 26.3792 40.5554 28.6782 45.1317 30.1756V14.3207Z" fill="#B4B4B4"/>
<path fill-rule="evenodd" clip-rule="evenodd" d="M43.4269 15.3435C42.8104 15.4202 42.2055 15.5431 41.621 15.7105L40.1376 16.1289V26.864C41.1847 27.455 42.283 27.9918 43.4248 28.4707V15.3435H43.4269ZM39.4411 16.3257L37.136 16.9768V24.9403C37.8633 25.4665 38.6316 25.9755 39.4411 26.4596V16.3257ZM36.4395 17.172L34.9027 17.6061V23.1743C35.3944 23.599 35.9067 24.0154 36.4395 24.4234V17.172Z" fill="#1A1A1A"/>
<path fill-rule="evenodd" clip-rule="evenodd" d="M46.0988 8.69464C45.4445 8.69464 45.1307 9.00067 45.397 9.37658C45.5656 9.57734 45.8075 9.74545 46.0995 9.86485C46.3915 9.98424 46.7239 10.0509 47.0648 10.0585C47.7171 10.0585 48.0309 9.75388 47.7646 9.37658C47.5959 9.17619 47.3542 9.00834 47.0627 8.88899C46.7711 8.76963 46.4393 8.70273 46.0988 8.69464Z" fill="#E3E3E3"/>
<g clip-path="url(#clip1_463_6286)">
<path fill-rule="evenodd" clip-rule="evenodd" d="M29.573 47.4634L29.4365 47.534C29.2817 47.6171 29.1094 47.6624 28.9338 47.6662C28.7582 47.67 28.5841 47.6323 28.4259 47.556C28.2655 47.4845 28.1242 47.3762 28.0136 47.2399C27.9029 47.1036 27.8259 46.9431 27.7888 46.7714C27.475 45.4 26.8473 43.7242 25.9544 41.9935C25.0615 40.2628 24.0588 38.7815 23.1298 37.7318C23.0135 37.601 22.9285 37.4453 22.8815 37.2766C22.8345 37.108 22.8266 36.9308 22.8586 36.7587C22.8905 36.5865 22.9614 36.424 23.0658 36.2834C23.1702 36.1428 23.3054 36.028 23.4609 35.9477L23.599 35.8771L23.031 34.7787L20.3633 36.1532L17.6957 37.5262L18.2638 38.6246L18.4003 38.554C18.5566 38.4722 18.7296 38.4275 18.9059 38.4234C19.0822 38.4192 19.2571 38.4558 19.4171 38.5301C19.577 38.6045 19.7177 38.7147 19.8282 38.8521C19.9387 38.9896 20.016 39.1507 20.0542 39.3228C20.3681 40.6927 20.9957 42.3701 21.8886 44.0992C22.7815 45.8284 23.7842 47.3112 24.7132 48.361C24.8296 48.4919 24.9145 48.6477 24.9615 48.8165C25.0085 48.9852 25.0164 49.1625 24.9844 49.3348C24.9525 49.507 24.8816 49.6697 24.7772 49.8104C24.6728 49.9511 24.5377 50.0661 24.3821 50.1466L24.244 50.2172L24.812 51.3156L27.4797 49.9426L30.141 48.5634L29.573 47.4634Z" fill="#4592CF"/>
<path fill-rule="evenodd" clip-rule="evenodd" d="M22.7825 38.3794C22.3425 38.609 22.9535 40.6955 24.1491 43.0368C25.3447 45.3781 26.6709 47.092 27.1032 46.8624C27.5354 46.6328 26.9321 44.5463 25.7365 42.205C24.5409 39.8638 23.2225 38.1499 22.7825 38.3794Z" fill="#283A84"/>
<path fill-rule="evenodd" clip-rule="evenodd" d="M3.37509 3.40967L4.80484 11.4889L18.1423 37.3359L22.4693 35.1028L9.13179 9.25577L3.37509 3.40967Z" fill="#D1D2D2"/>
<path fill-rule="evenodd" clip-rule="evenodd" d="M7.69103 7.77382L5.42022 6.295L6.21871 11.1149L18.2072 37.3359L4.8111 11.4889L3.37507 3.40967L7.69103 7.77382Z" fill="#E6E6E5"/>
<path fill-rule="evenodd" clip-rule="evenodd" d="M7.12571 10.7405L13.4275 23.6112L19.7309 36.4835L20.4189 36.1334L21.1054 35.7833L14.1155 23.2627L7.12571 10.7405Z" fill="#818181"/>
<path fill-rule="evenodd" clip-rule="evenodd" d="M23.7874 33.5505L16.1589 37.5091C15.7666 37.2252 15.2907 37.0824 14.8079 37.1037C14.3251 37.1251 13.8635 37.3094 13.4976 37.6268C13.1316 37.9443 12.8827 38.3765 12.7909 38.8536C12.699 39.3308 12.7697 39.8251 12.9914 40.257C13.2132 40.6888 13.573 41.033 14.0131 41.234C14.4531 41.4349 14.9476 41.481 15.4169 41.3648C15.8861 41.2485 16.3028 40.9768 16.5996 40.5932C16.8965 40.2097 17.0563 39.7368 17.0532 39.2508L24.6817 35.2923C25.0744 35.577 25.5511 35.7203 26.0348 35.6992C26.5184 35.6781 26.9809 35.4937 27.3476 35.1758C27.7143 34.8579 27.9638 34.4251 28.0559 33.9471C28.148 33.4691 28.0772 32.9739 27.8551 32.5413C27.633 32.1087 27.2724 31.764 26.8316 31.5627C26.3908 31.3615 25.8954 31.3155 25.4254 31.4321C24.9553 31.5487 24.5381 31.8212 24.2409 32.2055C23.9437 32.5899 23.784 33.0637 23.7874 33.5505Z" fill="#333333"/>
</g>
<path d="M15.4757 84V75.252H20.9477V76.104H16.3997V79.128H20.5637V79.98H16.3997V83.148H20.9957V84H15.4757ZM26.6016 84L24.7536 81.576L22.9056 84H21.8856L24.2496 80.964L21.9816 78.036H23.0016L24.7656 80.352L26.5296 78.036H27.5376L25.2816 80.952L27.6336 84H26.6016ZM32.754 84L30.906 81.576L29.058 84H28.038L30.402 80.964L28.134 78.036H29.154L30.918 80.352L32.682 78.036H33.69L31.434 80.952L33.786 84H32.754ZM36.9772 84.108C36.4252 84.108 35.9092 83.972 35.4292 83.7C34.9572 83.42 34.5892 83.048 34.3252 82.584C34.0532 82.12 33.9172 81.604 33.9172 81.036C33.9172 80.148 34.2132 79.412 34.8052 78.828C35.3972 78.228 36.1292 77.928 37.0012 77.928C37.8492 77.912 38.5772 78.212 39.1852 78.828C39.8012 79.436 40.1012 80.16 40.0852 81C40.1012 81.864 39.8012 82.604 39.1852 83.22C38.5692 83.828 37.8332 84.124 36.9772 84.108ZM37.0012 83.328C37.6252 83.328 38.1492 83.104 38.5732 82.656C38.9812 82.208 39.1852 81.668 39.1852 81.036C39.1852 80.396 38.9772 79.844 38.5612 79.38C38.1372 78.924 37.6092 78.696 36.9772 78.696C36.3452 78.696 35.8252 78.92 35.4172 79.368C35.0092 79.816 34.8052 80.36 34.8052 81C34.7892 81.632 34.9932 82.18 35.4172 82.644C35.8492 83.108 36.3772 83.336 37.0012 83.328ZM46.7869 84H45.9109V80.532C45.9109 79.98 45.7709 79.54 45.4909 79.212C45.2109 78.884 44.8029 78.72 44.2669 78.72C43.7469 78.72 43.3189 78.9 42.9829 79.26C42.6549 79.628 42.4909 80.076 42.4909 80.604V84H41.6149V78.036H42.4669V79.128C42.9469 78.328 43.6349 77.928 44.5309 77.928C45.2349 77.928 45.7909 78.144 46.1989 78.576C46.5909 79.032 46.7869 79.612 46.7869 80.316V84ZM56.7213 75.252H58.0413V84H57.1293V76.5L53.8773 84H53.0493L49.8213 76.56V84H48.9093V75.252H50.2173L53.4813 82.752L56.7213 75.252ZM62.8757 84.108C62.3237 84.108 61.8077 83.972 61.3277 83.7C60.8557 83.42 60.4877 83.048 60.2237 82.584C59.9517 82.12 59.8157 81.604 59.8157 81.036C59.8157 80.148 60.1117 79.412 60.7037 78.828C61.2957 78.228 62.0277 77.928 62.8997 77.928C63.7477 77.912 64.4757 78.212 65.0837 78.828C65.6997 79.436 65.9997 80.16 65.9837 81C65.9997 81.864 65.6997 82.604 65.0837 83.22C64.4677 83.828 63.7317 84.124 62.8757 84.108ZM62.8997 83.328C63.5237 83.328 64.0477 83.104 64.4717 82.656C64.8797 82.208 65.0837 81.668 65.0837 81.036C65.0837 80.396 64.8757 79.844 64.4597 79.38C64.0357 78.924 63.5077 78.696 62.8757 78.696C62.2437 78.696 61.7237 78.92 61.3157 79.368C60.9077 79.816 60.7037 80.36 60.7037 81C60.6877 81.632 60.8917 82.18 61.3157 82.644C61.7477 83.108 62.2757 83.336 62.8997 83.328ZM73.4893 81.012C73.4893 81.556 73.3733 82.06 73.1413 82.524C72.9093 82.988 72.5813 83.364 72.1573 83.652C71.7253 83.94 71.2333 84.084 70.6813 84.084C69.6973 84.084 68.9253 83.636 68.3653 82.74V84H67.5133V74.904H68.3893V79.32C68.9893 78.392 69.7533 77.928 70.6813 77.928C71.5293 77.928 72.2133 78.248 72.7333 78.888C73.2373 79.512 73.4893 80.22 73.4893 81.012ZM70.5133 83.328C71.1373 83.328 71.6453 83.108 72.0373 82.668C72.4133 82.22 72.6013 81.676 72.6013 81.036C72.6013 80.132 72.2773 79.464 71.6293 79.032C71.3173 78.816 70.9453 78.708 70.5133 78.708C69.9213 78.7 69.4133 78.928 68.9893 79.392C68.5653 79.856 68.3613 80.392 68.3773 81C68.3773 81.64 68.5773 82.184 68.9773 82.632C69.3853 83.096 69.8973 83.328 70.5133 83.328ZM75.001 76.368C74.873 76.224 74.809 76.068 74.809 75.9C74.809 75.732 74.873 75.576 75.001 75.432C75.129 75.304 75.285 75.24 75.469 75.24C75.645 75.24 75.797 75.304 75.925 75.432C76.053 75.56 76.117 75.716 76.117 75.9C76.117 76.084 76.053 76.24 75.925 76.368C75.797 76.496 75.645 76.56 75.469 76.56C75.285 76.56 75.129 76.496 75.001 76.368ZM75.025 84V78.036H75.901V84H75.025ZM77.8727 84V74.892H78.7487V84H77.8727ZM28.8383 93.004V92.716C28.8383 91.564 29.1183 90.516 29.6783 89.572C30.2303 88.62 31.0103 87.856 32.0183 87.28L32.3783 87.844C30.6103 88.98 29.7263 90.608 29.7263 92.728V92.992C29.7263 95.096 30.6103 96.72 32.3783 97.864L32.0183 98.452C31.0103 97.868 30.2303 97.1 29.6783 96.148C29.1183 95.204 28.8383 94.156 28.8383 93.004ZM39.5077 97L36.6637 93.172L33.8437 97H32.7637L36.1237 92.524L32.9197 88.252H33.9877L36.6877 91.852L39.3637 88.252H40.4317L37.2277 92.512L40.5757 97H39.5077ZM49.1538 92.608C49.1538 93.432 48.9658 94.188 48.5898 94.876C48.2058 95.556 47.6778 96.096 47.0058 96.496C46.3178 96.896 45.5618 97.096 44.7378 97.096C44.1378 97.096 43.5578 96.98 42.9978 96.748C42.4458 96.516 41.9818 96.2 41.6058 95.8C41.2298 95.424 40.9258 94.956 40.6938 94.396C40.4698 93.82 40.3578 93.24 40.3578 92.656C40.3578 91.824 40.5498 91.068 40.9338 90.388C41.3098 89.692 41.8378 89.148 42.5178 88.756C43.1818 88.364 43.9338 88.168 44.7738 88.168C45.3898 88.168 45.9698 88.28 46.5138 88.504C47.0578 88.744 47.5218 89.056 47.9058 89.44C48.3058 89.864 48.6098 90.336 48.8178 90.856C49.0418 91.4 49.1538 91.984 49.1538 92.608ZM48.2058 92.656C48.2058 91.656 47.8858 90.804 47.2458 90.1C46.5898 89.38 45.7538 89.02 44.7378 89.02C44.1058 89.02 43.5178 89.18 42.9738 89.5C42.4458 89.836 42.0378 90.272 41.7498 90.808C41.4618 91.36 41.3178 91.96 41.3178 92.608C41.3178 93.616 41.6378 94.464 42.2778 95.152C42.9338 95.872 43.7658 96.232 44.7738 96.232C45.4138 96.232 46.0018 96.068 46.5378 95.74C47.0658 95.436 47.4778 95.004 47.7738 94.444C48.0618 93.9 48.2058 93.304 48.2058 92.656ZM58.7779 88.252H60.0979V97H59.1859V89.5L55.9339 97H55.1059L51.8779 89.56V97H50.9659V88.252H52.2739L55.5379 95.752L58.7779 88.252ZM65.1603 92.716V93.004C65.1603 94.164 64.8843 95.216 64.3323 96.16C63.7723 97.104 62.9883 97.868 61.9803 98.452L61.6203 97.864C63.3883 96.72 64.2723 95.096 64.2723 92.992V92.728C64.2723 90.608 63.3883 88.98 61.6203 87.844L61.9803 87.28C62.9883 87.848 63.7723 88.608 64.3323 89.56C64.8843 90.512 65.1603 91.564 65.1603 92.716Z" fill="white"/>
<defs>
<clipPath id="clip0_463_6286">
<rect width="30" height="26.8781" fill="white" transform="translate(30.0001 34)"/>
</clipPath>
<clipPath id="clip1_463_6286">
<rect width="28.9942" height="52.0657" fill="white" transform="matrix(-1 0 0 1 29.9706 0)"/>
</clipPath>
</defs>
</svg>
