<svg width="25.000000" height="25.000000" viewBox="0 0 25 25" fill="none" xmlns="http://www.w3.org/2000/svg" xmlns:xlink="http://www.w3.org/1999/xlink">
	<desc>
			Created with Pixso.
	</desc>
	<defs>
		<clipPath id="clip14_525">
			<rect id="signal-svgrepo-com 1" width="14.000000" height="14.000000" transform="translate(6.000000 5.000000)" fill="white" fill-opacity="0"/>
		</clipPath>
	</defs>
	<circle id="Ellipse 1" cx="12.500000" cy="12.500000" r="12.500000" fill="#497EEA" fill-opacity="1.000000"/>
	<rect id="signal-svgrepo-com 1" width="14.000000" height="14.000000" transform="translate(6.000000 5.000000)" fill="#FFFFFF" fill-opacity="0"/>
	<g clip-path="url(#clip14_525)">
		<path id="Vector" d="M13 6.66C10.05 6.67 7.67 9.05 7.67 12C7.67 13.05 7.97 14.03 8.5 14.85L8.48 14.83L7.97 17.02L10.16 16.51C10.96 17.02 11.95 17.33 13 17.33C15.94 17.33 18.33 14.94 18.33 12C18.33 9.05 15.94 6.66 13 6.66C13 6.66 13 6.66 12.99 6.66L13 6.66ZM9.95 17.11L9.07 17.31L9.21 17.91L9.86 17.76C10.31 18.01 10.83 18.22 11.37 18.36L11.42 18.37L11.56 17.77C10.95 17.62 10.42 17.39 9.93 17.09L9.95 17.1L9.95 17.11ZM7.08 15.78L7.68 15.92L7.88 15.04C7.6 14.57 7.38 14.03 7.23 13.46L7.22 13.42L6.63 13.57C6.77 14.16 6.98 14.68 7.25 15.16L7.23 15.13L7.08 15.78ZM8.52 17.44L7.25 17.74L7.55 16.47L6.95 16.33L6.66 17.6C6.65 17.64 6.64 17.69 6.64 17.74C6.64 18.08 6.92 18.35 7.26 18.35C7.3 18.35 7.35 18.34 7.4 18.33L7.4 18.33L8.66 18.04L8.52 17.44ZM12.1 6.12C12.37 6.07 12.68 6.05 13 6.05C13.31 6.05 13.62 6.07 13.92 6.12L13.89 6.12L13.98 5.51C13.68 5.46 13.34 5.43 13 5.43C12.65 5.43 12.31 5.46 11.98 5.51L12.01 5.51L12.1 6.12ZM18.61 8.6L18.09 8.92C18.38 9.39 18.61 9.94 18.76 10.52L18.77 10.57L19.36 10.42C19.19 9.73 18.93 9.13 18.6 8.58L18.61 8.6ZM8.21 8.47C8.57 7.98 8.98 7.57 9.45 7.22L9.47 7.21L9.1 6.71C8.57 7.11 8.11 7.57 7.73 8.08L7.71 8.1L8.21 8.47ZM16.52 7.21C17.01 7.57 17.42 7.98 17.77 8.45L17.78 8.47L18.28 8.1C17.88 7.57 17.42 7.11 16.91 6.73L16.89 6.71L16.52 7.21ZM17.78 15.52C17.42 16.01 17.01 16.42 16.54 16.77L16.52 16.78L16.89 17.28C17.42 16.88 17.88 16.42 18.26 15.91L18.28 15.89L17.78 15.52ZM13.89 17.87C13.62 17.92 13.31 17.94 13 17.94C12.68 17.94 12.37 17.92 12.07 17.87L12.1 17.87L12.01 18.48C12.31 18.53 12.65 18.56 13 18.56C13.34 18.56 13.68 18.53 14.02 18.48L13.98 18.48L13.89 17.87ZM19.36 13.57L18.77 13.42C18.61 14.05 18.38 14.6 18.07 15.1L18.09 15.07L18.61 15.39C18.93 14.87 19.19 14.26 19.35 13.62L19.36 13.57L19.36 13.57ZM18.94 12C18.94 12 18.94 12 18.94 12C18.94 12.31 18.92 12.62 18.87 12.92L18.87 12.89L19.48 12.98C19.53 12.68 19.56 12.34 19.56 12C19.56 11.65 19.53 11.31 19.48 10.98L19.48 11.01L18.87 11.1C18.92 11.37 18.94 11.68 18.94 11.99C18.94 11.99 18.94 11.99 18.94 12L18.94 12ZM16.39 17.61L16.07 17.08C15.6 17.38 15.05 17.61 14.47 17.76L14.42 17.77L14.57 18.36C15.26 18.19 15.86 17.93 16.42 17.6L16.39 17.61L16.39 17.61ZM7.05 11.99C7.05 11.99 7.05 11.99 7.05 11.99C7.05 11.68 7.07 11.37 7.12 11.07L7.12 11.1L6.51 11.01C6.46 11.31 6.43 11.65 6.43 11.99C6.43 12.34 6.46 12.68 6.51 13.01L6.51 12.98L7.12 12.88C7.07 12.62 7.05 12.31 7.05 12C7.05 12 7.05 12 7.05 11.99L7.05 11.99ZM7.38 8.6C7.06 9.13 6.8 9.73 6.64 10.37L6.63 10.42L7.22 10.57C7.38 9.94 7.61 9.39 7.92 8.89L7.91 8.92L7.38 8.6ZM14.57 5.63L14.42 6.22C15.05 6.38 15.6 6.61 16.1 6.92L16.07 6.9L16.39 6.38C15.87 6.06 15.26 5.8 14.62 5.64L14.57 5.63L14.57 5.63ZM11.42 5.63L11.57 6.22C10.94 6.38 10.39 6.61 9.89 6.92L9.92 6.9L9.6 6.38C10.13 6.06 10.73 5.8 11.38 5.64L11.42 5.63L11.42 5.63Z" fill="#FFFFFF" fill-opacity="1.000000" fill-rule="nonzero"/>
	</g>
</svg>
