<svg width="25.000000" height="25.000000" viewBox="0 0 25 25" fill="none" xmlns="http://www.w3.org/2000/svg" xmlns:xlink="http://www.w3.org/1999/xlink">
	<desc>
			Created with Pixso.
	</desc>
	<defs/>
	<circle id="Ellipse 1" cx="12.500000" cy="12.500000" r="12.500000" fill="#7966F2" fill-opacity="1.000000"/>
	<path id="Vector" d="M12.35 7.64C15.29 8.09 16.65 9.49 17.02 12.45C17.06 12.73 16.96 13.14 17.35 13.15C17.75 13.15 17.66 12.75 17.66 12.47C17.69 9.68 15.26 7.1 12.44 7C12.22 7.03 11.78 6.86 11.75 7.33C11.74 7.66 12.11 7.6 12.35 7.64Z" fill="#FFFFFF" fill-opacity="1.000000" fill-rule="evenodd"/>
	<path id="Vector" d="M16.89 15.67C15.9 14.97 14.66 13.64 13.69 15.12C13.37 15.61 12.92 15.63 12.45 15.42C11.15 14.83 10.14 13.92 9.55 12.6C8.86 10.95 10.56 11.26 10.53 10.11C10.49 9.49 8.98 7.4 8.38 7.18C8.13 7.09 7.88 7.1 7.63 7.18C6.23 7.66 5.65 8.81 6.2 10.18C7.86 14.25 10.79 17.09 14.81 18.82C15.04 18.92 15.29 18.96 15.42 18.99C16.34 19 17.41 18.12 17.72 17.25C18.02 16.4 17.39 16.07 16.89 15.67Z" fill="#FFFFFF" fill-opacity="1.000000" fill-rule="evenodd"/>
	<path id="Vector" d="M12.93 8.45C12.65 8.42 12.27 8.28 12.21 8.68C12.14 9.09 12.55 9.05 12.82 9.11C14.64 9.51 15.27 10.17 15.57 11.97C15.61 12.24 15.53 12.64 15.97 12.58C16.3 12.53 16.18 12.18 16.21 11.97C16.23 10.24 14.74 8.67 12.93 8.45Z" fill="#FFFFFF" fill-opacity="1.000000" fill-rule="evenodd"/>
	<path id="Vector" d="M13.1 9.86C12.91 9.86 12.73 9.88 12.66 10.08C12.55 10.39 12.77 10.46 13 10.49C13.74 10.61 14.13 11.05 14.21 11.8C14.23 12 14.36 12.16 14.55 12.14C14.82 12.11 14.84 11.87 14.84 11.64C14.85 10.8 13.91 9.84 13.1 9.86Z" fill="#FFFFFF" fill-opacity="1.000000" fill-rule="evenodd"/>
</svg>
