<svg width="26.000000" height="26.000000" viewBox="0 0 26 26" fill="none" xmlns="http://www.w3.org/2000/svg" xmlns:xlink="http://www.w3.org/1999/xlink">
	<desc>
			Created with Pixso.
	</desc>
	<defs/>
	<circle id="Ellipse 1" cx="12.500000" cy="13.000000" r="12.500000" fill="#FFFFFF" fill-opacity="1.000000"/>
	<path id="Vector" d="M12.5 0C5.32 0 -0.5 5.82 -0.5 13C-0.5 20.17 5.32 26 12.5 26C19.67 26 25.5 20.17 25.5 13C25.5 5.82 19.67 0 12.5 0ZM17.49 14.66C17.49 14.66 18.64 15.8 18.93 16.32C18.94 16.33 18.94 16.35 18.94 16.35C19.06 16.54 19.08 16.69 19.03 16.81C18.93 16.99 18.61 17.09 18.5 17.09L16.47 17.09C16.32 17.09 16.03 17.06 15.67 16.81C15.4 16.62 15.13 16.3 14.86 16C14.47 15.54 14.13 15.14 13.78 15.14C13.74 15.14 13.7 15.15 13.65 15.16C13.39 15.25 13.06 15.62 13.06 16.61C13.06 16.92 12.82 17.09 12.65 17.09L11.72 17.09C11.4 17.09 9.75 16.98 8.28 15.44C6.49 13.55 4.88 9.76 4.87 9.73C4.77 9.48 4.98 9.35 5.21 9.35L7.26 9.35C7.53 9.35 7.62 9.52 7.68 9.66C7.76 9.84 8.02 10.52 8.47 11.29C9.18 12.54 9.62 13.05 9.97 13.05C10.03 13.05 10.1 13.03 10.16 13C10.61 12.75 10.53 11.12 10.51 10.78C10.51 10.71 10.51 10.05 10.27 9.73C10.1 9.5 9.82 9.41 9.64 9.38C9.71 9.28 9.81 9.2 9.91 9.15C10.23 8.99 10.79 8.97 11.36 8.97L11.67 8.97C12.28 8.98 12.44 9.02 12.66 9.07C13.1 9.18 13.11 9.47 13.07 10.45C13.06 10.73 13.05 11.05 13.05 11.42C13.05 11.51 13.04 11.59 13.04 11.68C13.03 12.19 13.02 12.76 13.37 12.99C13.42 13.02 13.47 13.04 13.52 13.04C13.65 13.04 14.02 13.04 15.02 11.31C15.33 10.76 15.6 10.18 15.83 9.59C15.85 9.55 15.91 9.44 15.98 9.4C16.03 9.37 16.09 9.36 16.15 9.36L18.56 9.36C18.82 9.36 19 9.4 19.04 9.5C19.1 9.66 19.02 10.16 17.92 11.65L17.43 12.29C16.43 13.6 16.43 13.67 17.49 14.66Z" fill="#2787F5" fill-opacity="1.000000" fill-rule="nonzero"/>
</svg>
