<svg width="25.000000" height="25.000000" viewBox="0 0 25 25" fill="none" xmlns="http://www.w3.org/2000/svg" xmlns:xlink="http://www.w3.org/1999/xlink">
	<desc>
			Created with Pixso.
	</desc>
	<defs>
		<clipPath id="clip14_520">
			<rect id="whatsapp-svgrepo-com 1" width="16.000000" height="16.000000" transform="translate(5.000000 4.000000)" fill="white" fill-opacity="0"/>
		</clipPath>
	</defs>
	<circle id="Ellipse 1" cx="12.500000" cy="12.500000" r="12.500000" fill="#12D810" fill-opacity="1.000000"/>
	<rect id="whatsapp-svgrepo-com 1" width="16.000000" height="16.000000" transform="translate(5.000000 4.000000)" fill="#FFFFFF" fill-opacity="0"/>
	<g clip-path="url(#clip14_520)">
		<path id="Vector" d="M9 9.33C9.08 8.73 9.86 7.91 10.48 8L10.48 8C11.09 8.12 11.57 9.16 11.84 9.62C12.03 9.96 11.9 10.31 11.73 10.45C11.49 10.65 11.11 10.92 11.19 11.18C11.33 11.66 13 13.33 13.81 13.8C14.13 13.98 14.35 13.51 14.54 13.27C14.68 13.08 15.03 12.97 15.36 13.15C15.87 13.45 16.35 13.79 16.79 14.18C17.01 14.36 17.06 14.63 16.91 14.92C16.64 15.42 15.86 16.09 15.3 15.96C14.31 15.72 10.33 14.18 9.05 9.7C8.98 9.49 8.99 9.41 9 9.33Z" fill="#FFFFFF" fill-opacity="1.000000" fill-rule="nonzero"/>
		<path id="Vector" d="M13 19.33C12.18 19.33 11.73 19.24 11 19L9.59 19.7C8.7 20.14 7.66 19.5 7.66 18.5L7.66 17C6.23 15.66 5.66 14.11 5.66 12C5.66 7.94 8.95 4.66 13 4.66C17.05 4.66 20.33 7.94 20.33 12C20.33 16.05 17.05 19.33 13 19.33ZM9 16.42L8.57 16.02C7.46 14.98 7 13.82 7 12C7 8.68 9.68 6 13 6C16.31 6 19 8.68 19 12C19 15.31 16.31 18 13 18C12.34 18 12.03 17.94 11.42 17.73L10.89 17.55L9 18.5L9 16.42Z" fill="#FFFFFF" fill-opacity="1.000000" fill-rule="evenodd"/>
	</g>
</svg>
