<svg width="60" height="60" viewBox="0 0 60 60" fill="none" xmlns="http://www.w3.org/2000/svg">
<path d="M29.9883 9.0293L53.6719 16.2305V18.9082H6.32812V16.2305L29.9883 9.0293ZM29.9883 6.33398L3.75 14.3203V21.4863H56.25V14.3203L29.9883 6.33398ZM6.62109 48.7148H53.3789V49.6523H6.62109V48.7148Z" fill="#FFD762"/>
<path d="M6.62109 22.916H53.3789V23.8535H6.62109V22.916Z" fill="#FFD762"/>
<path d="M3.76758 51.082H56.2266V53.6602H3.76758V51.082ZM11.9648 27.8672V44.7012H15.0117V47.2793H7.98047V44.7012H11.0273V27.8672H7.98047V25.2891H15.0117V27.8672H11.9648ZM24.2988 27.8672V44.7012H27.3457V47.2793H20.3145V44.7012H23.3613V27.8672H20.3145V25.2891H27.3457V27.8672H24.2988ZM36.6328 27.8672V44.7012H39.6797V47.2793H32.6484V44.7012H35.6953V27.8672H32.6484V25.2891H39.6797V27.8672H36.6328ZM48.9727 27.8672V44.7012H52.0195V47.2793H44.9883V44.7012H48.0352V27.8672H44.9883V25.2891H52.0195V27.8672H48.9727Z" fill="#FFD762"/>
</svg>
