<svg width="20" height="20" viewBox="0 0 20 20" fill="none" xmlns="http://www.w3.org/2000/svg">
<path d="M10.0744 6.1369C7.78758 6.1369 6.28178 7.4317 5.93372 10.2776C5.72132 12.0143 5.11039 14.8549 4.85528 16.0055C4.79131 16.2941 4.95537 16.5848 5.23581 16.6783L7.72562 17.5088C7.89561 17.5655 8.08227 17.5401 8.23095 17.44C8.37963 17.34 8.4734 17.1766 8.48488 16.9977L8.70366 13.5832C8.71873 13.3481 8.58951 13.1274 8.37711 13.0255L6.7358 12.2377C6.52021 12.1343 6.42933 11.8757 6.53282 11.6601L6.92354 10.8459C6.97321 10.7424 7.06198 10.6629 7.17031 10.6248C7.27865 10.5867 7.39769 10.5932 7.50118 10.6429L9.15701 11.4377C9.35731 11.5338 9.48468 11.7363 9.48468 11.9584V14.1095C9.48468 14.1527 9.49817 14.1948 9.52328 14.23L9.90567 14.7653C9.94457 14.8198 10.0074 14.8521 10.0744 14.8521C10.1413 14.8521 10.2041 14.8198 10.2431 14.7653L10.6255 14.23C10.6506 14.1948 10.6641 14.1527 10.6641 14.1095V11.9584C10.6641 11.7362 10.7915 11.5338 10.9918 11.4376L12.6476 10.6429C12.7511 10.5932 12.8701 10.5867 12.9785 10.6247C13.0868 10.6628 13.1756 10.7423 13.2252 10.8459L13.616 11.66C13.7195 11.8756 13.6286 12.1342 13.413 12.2377L11.7717 13.0254C11.5593 13.1274 11.4302 13.348 11.4452 13.5831L11.664 16.9977C11.6754 17.1765 11.7692 17.3399 11.9179 17.44C12.0665 17.54 12.2532 17.5654 12.4232 17.5087L14.913 16.6783C15.194 16.5846 15.3576 16.2946 15.2936 16.0055C15.0385 14.8548 14.4275 12.0143 14.2151 10.2776C13.8671 7.4317 12.3613 6.1369 10.0744 6.1369Z" fill="#960E89"/>
<path d="M15.7607 4.40053C13.7932 2.55218 11.138 1.84433 8.64367 2.27689C8.59477 2.28538 8.56009 2.32897 8.56302 2.37854L8.60805 3.14207C8.60857 3.15071 8.60255 3.15843 8.594 3.15998C8.58546 3.16157 8.57712 3.15653 8.5745 3.14824L8.34234 2.41039C8.32808 2.36505 8.2831 2.33669 8.23601 2.34323C7.96042 2.38142 7.77674 2.41044 7.50094 2.53329C7.46054 2.5513 7.43738 2.59433 7.44449 2.63797L7.6539 3.92392C7.65729 3.94471 7.6471 3.96535 7.62852 3.97528C7.60995 3.98521 7.58715 3.98228 7.57171 3.96792L6.53855 3.00764C6.50906 2.98021 6.46568 2.97378 6.4295 2.99143C5.69834 3.34757 5.00897 3.81728 4.3881 4.40053C4.33787 4.44773 4.30884 4.51324 4.30771 4.5822C4.30663 4.65117 4.33349 4.71756 4.38228 4.76635L6.13419 6.51826C6.23043 6.6145 6.38539 6.61784 6.4859 6.52608C8.51269 4.67458 11.6361 4.67458 13.6629 6.52608C13.7635 6.618 13.9182 6.61465 14.0146 6.51826L15.7665 4.76635C15.8152 4.71761 15.842 4.65112 15.841 4.5822C15.8399 4.51324 15.8109 4.44773 15.7607 4.40053Z" fill="#960E89"/>
<circle cx="10" cy="10" r="9.5" stroke="#960E89"/>
</svg>
