<svg width="19.501953" height="18.622925" viewBox="0 0 19.502 18.6229" fill="none" xmlns="http://www.w3.org/2000/svg" xmlns:xlink="http://www.w3.org/1999/xlink">
	<desc>
			Created with Pixso.
	</desc>
	<defs/>
	<path id="Vector" d="M10.55 13.49L10.55 14.51C10.55 14.67 10.48 14.83 10.37 14.95C10.25 15.06 10.09 15.13 9.93 15.13C9.77 15.13 9.61 15.06 9.49 14.95C9.38 14.83 9.31 14.67 9.31 14.51L9.31 13.47C8.9 13.4 8.51 13.25 8.16 13.03C7.81 12.8 7.5 12.51 7.27 12.17C7.17 12.07 7.12 11.93 7.12 11.79C7.12 11.71 7.13 11.63 7.17 11.56C7.2 11.48 7.24 11.42 7.3 11.36C7.36 11.31 7.43 11.26 7.5 11.24C7.58 11.21 7.66 11.2 7.74 11.2C7.82 11.2 7.9 11.22 7.97 11.25C8.04 11.28 8.1 11.33 8.15 11.39C8.45 11.78 8.85 12.07 9.31 12.23L9.31 9.89C8.08 9.4 7.46 8.68 7.46 7.75C7.48 7.25 7.68 6.77 8.01 6.4C8.35 6.04 8.81 5.8 9.31 5.74L9.31 4.71C9.31 4.55 9.38 4.39 9.49 4.28C9.61 4.16 9.77 4.1 9.93 4.1C10.09 4.1 10.25 4.16 10.37 4.28C10.48 4.39 10.55 4.55 10.55 4.71L10.55 5.73C10.9 5.79 11.23 5.91 11.52 6.09C11.82 6.28 12.08 6.52 12.28 6.81C12.36 6.91 12.41 7.04 12.42 7.18C12.42 7.25 12.41 7.33 12.38 7.41C12.35 7.48 12.31 7.55 12.25 7.61C12.2 7.66 12.13 7.71 12.06 7.74C11.98 7.77 11.91 7.79 11.83 7.79C11.74 7.78 11.66 7.77 11.59 7.73C11.51 7.7 11.45 7.65 11.39 7.58C11.17 7.31 10.88 7.1 10.55 6.97L10.55 9.05L10.78 9.15C11.96 9.6 12.69 10.26 12.69 11.33C12.67 11.89 12.44 12.43 12.04 12.83C11.65 13.23 11.11 13.47 10.55 13.49ZM9.31 8.52L9.31 7.02C9.16 7.07 9.03 7.17 8.94 7.3C8.85 7.43 8.81 7.59 8.81 7.75C8.82 7.91 8.87 8.06 8.96 8.19C9.05 8.32 9.17 8.42 9.31 8.49L9.31 8.52ZM11.35 11.36C11.35 10.9 11.03 10.63 10.55 10.43L10.55 12.28C10.78 12.25 10.98 12.13 11.13 11.96C11.28 11.78 11.35 11.56 11.35 11.33L11.35 11.36Z" fill="#000000" fill-opacity="1.000000" fill-rule="nonzero"/>
	<path id="Vector" d="M9.31 13.47L9.31 14.51C9.31 14.67 9.38 14.83 9.49 14.95C9.61 15.06 9.77 15.13 9.93 15.13C10.09 15.13 10.25 15.06 10.37 14.95C10.48 14.83 10.55 14.67 10.55 14.51L10.55 13.49C11.11 13.47 11.65 13.23 12.04 12.83C12.44 12.43 12.67 11.89 12.69 11.33C12.69 10.26 11.96 9.6 10.78 9.15L10.55 9.05L10.55 6.97C10.88 7.1 11.17 7.31 11.39 7.58C11.44 7.63 11.49 7.68 11.55 7.71C11.56 7.72 11.57 7.73 11.59 7.73C11.66 7.77 11.74 7.78 11.83 7.79C11.91 7.79 11.98 7.77 12.06 7.74C12.13 7.71 12.2 7.66 12.25 7.61C12.31 7.55 12.35 7.48 12.38 7.41C12.41 7.33 12.42 7.25 12.42 7.18C12.41 7.04 12.36 6.91 12.28 6.81C12.08 6.52 11.82 6.28 11.52 6.09C11.23 5.91 10.9 5.79 10.55 5.73L10.55 4.71C10.55 4.55 10.48 4.39 10.37 4.28C10.25 4.16 10.09 4.1 9.93 4.1C9.77 4.1 9.61 4.16 9.49 4.28C9.38 4.39 9.31 4.55 9.31 4.71L9.31 5.74C8.81 5.8 8.35 6.04 8.01 6.4C7.68 6.77 7.48 7.25 7.46 7.75C7.46 8.68 8.08 9.4 9.31 9.89L9.31 12.23C8.93 12.1 8.59 11.87 8.31 11.58C8.26 11.52 8.2 11.46 8.15 11.39C8.1 11.33 8.04 11.28 7.97 11.25C7.9 11.22 7.82 11.2 7.74 11.2C7.66 11.2 7.58 11.21 7.5 11.24C7.43 11.26 7.36 11.31 7.3 11.36C7.24 11.42 7.2 11.48 7.17 11.56C7.13 11.63 7.12 11.71 7.12 11.79C7.12 11.93 7.17 12.07 7.27 12.17C7.5 12.51 7.81 12.8 8.16 13.03C8.51 13.25 8.9 13.4 9.31 13.47ZM9.55 8.9L9.55 8.52L9.3 8.52L9.2 8.73Q9.36 8.82 9.55 8.9ZM9.31 7.02C9.16 7.07 9.03 7.17 8.94 7.3C8.85 7.43 8.81 7.59 8.81 7.75C8.82 7.91 8.87 8.06 8.96 8.19C9.05 8.32 9.17 8.42 9.31 8.49L9.31 7.02ZM11.34 11.31C11.32 10.88 11.01 10.63 10.55 10.43L10.55 12.28C10.78 12.25 10.98 12.13 11.13 11.96C11.27 11.79 11.35 11.58 11.35 11.36C11.35 11.35 11.35 11.34 11.35 11.33L11.35 11.36C11.35 11.35 11.35 11.34 11.34 11.33C11.34 11.32 11.34 11.32 11.34 11.31ZM10.42 11.37L10.42 11.36L10.35 11.36Q10.35 11.36 10.35 11.37L10.42 11.37Z" fill="#960E89" fill-opacity="1.000000" fill-rule="evenodd"/>
	<path id="Vector" d="M10.28 1.47L4.19 1.47C3.21 1.47 2.27 1.86 1.58 2.55C0.88 3.25 0.5 4.19 0.5 5.17L0.5 14.42C0.5 15.4 0.88 16.34 1.58 17.03C2.27 17.73 3.21 18.12 4.19 18.12L15.29 18.12C16.28 18.12 17.22 17.73 17.91 17.03C18.6 16.34 18.99 15.4 18.99 14.42L18.99 8.8" stroke="#960E89" stroke-opacity="1.000000" stroke-width="1.000000" stroke-linejoin="round" stroke-linecap="round"/>
	<path id="Vector" d="M13.76 5.73L18.99 0.5" stroke="#960E89" stroke-opacity="1.000000" stroke-width="1.000000" stroke-linejoin="round" stroke-linecap="round"/>
	<path id="Vector" d="M14.81 0.5L19 0.5L19 4.69" stroke="#960E89" stroke-opacity="1.000000" stroke-width="1.000000" stroke-linejoin="round" stroke-linecap="round"/>
</svg>
