<svg width="16.666626" height="18.333252" viewBox="0 0 16.6666 18.3333" fill="none" xmlns="http://www.w3.org/2000/svg" xmlns:xlink="http://www.w3.org/1999/xlink">
	<desc>
			Created with Pixso.
	</desc>
	<defs/>
	<path id="Vector" d="M8.33325 4.16675C9.56946 4.16675 10.7778 4.5332 11.8057 5.21997C12.8334 5.90674 13.6345 6.88281 14.1075 8.0249C14.5806 9.16699 14.7043 10.4236 14.4633 11.636C14.222 12.8484 13.6268 13.9619 12.7527 14.8362C11.8787 15.7102 10.765 16.3054 9.55261 16.5466C8.34021 16.7878 7.08362 16.6641 5.94153 16.1909C4.79944 15.7178 3.82336 14.9167 3.1366 13.8889C2.44983 12.8611 2.08325 11.6528 2.08325 10.4167C2.08325 8.75903 2.74182 7.16943 3.91382 5.99731C5.08594 4.8252 6.67566 4.16675 8.33325 4.16675ZM8.33325 2.5C6.76758 2.5 5.23694 2.96436 3.93506 3.83423C2.63318 4.7041 1.61841 5.94043 1.01929 7.38721C0.420044 8.83374 0.263306 10.4255 0.568726 11.9612C0.874268 13.4968 1.62817 14.9075 2.73535 16.0146C3.84253 17.1218 5.25317 17.8757 6.78882 18.1812C8.32446 18.4866 9.91626 18.3298 11.3629 17.7307C12.8094 17.1316 14.0459 16.1167 14.9158 14.8149C15.7856 13.5129 16.25 11.9824 16.25 10.4167C16.25 8.31714 15.4159 6.30347 13.9313 4.81885C12.4465 3.33398 10.433 2.5 8.33325 2.5Z" fill="#FFD762" fill-opacity="1.000000" fill-rule="nonzero"/>
	<path id="Vector" d="M11.6666 12.9167C11.5181 12.9197 11.3723 12.876 11.25 12.7917L7.5 10.875L7.5 7.08325C7.5 6.8623 7.58777 6.65039 7.74402 6.49414C7.90039 6.33789 8.1123 6.25 8.33337 6.25C8.55432 6.25 8.76636 6.33789 8.92261 6.49414C9.07886 6.65039 9.16663 6.8623 9.16663 7.08325L9.16663 9.95825L12.0834 11.375C12.1794 11.4268 12.2639 11.4976 12.3313 11.5835C12.3987 11.6692 12.4476 11.7681 12.4751 11.8738C12.5024 11.9795 12.5077 12.0896 12.4905 12.1973C12.4733 12.3052 12.434 12.4082 12.375 12.5C12.3064 12.6277 12.204 12.7339 12.0791 12.8074C11.9542 12.8809 11.8115 12.9187 11.6666 12.9167Z" fill="#FFD762" fill-opacity="1.000000" fill-rule="nonzero"/>
	<path id="Vector" d="M0.833374 4.16699C0.704468 4.16382 0.578003 4.13232 0.462769 4.07471C0.347534 4.01709 0.246338 3.93481 0.166626 3.8335C0.100952 3.74609 0.0532227 3.64648 0.026123 3.54028C-0.00109863 3.43433 -0.00708008 3.32397 0.00842285 3.21582C0.0396729 2.99683 0.156494 2.79956 0.333374 2.66699L3.66663 0.166992C3.75427 0.101318 3.85388 0.0534668 3.95984 0.0263672C4.06592 -0.000732422 4.17615 -0.00683594 4.28455 0.00854492C4.39282 0.0241699 4.49707 0.060791 4.59119 0.116455C4.68542 0.172363 4.7677 0.246094 4.83337 0.333496C4.89905 0.421143 4.94678 0.520752 4.97388 0.626709C5.0011 0.732666 5.00708 0.843018 4.99158 0.951416C4.9762 1.05981 4.93945 1.16406 4.88379 1.25806C4.828 1.35229 4.75427 1.43457 4.66663 1.50024L1.33337 4.00024C1.19055 4.11133 1.01416 4.17017 0.833374 4.16699Z" fill="#FFD762" fill-opacity="1.000000" fill-rule="nonzero"/>
	<path id="Vector" d="M15.8333 4.16675C15.6525 4.16992 15.4761 4.11108 15.3333 4L12 1.5C11.9124 1.43433 11.8386 1.35205 11.783 1.25781C11.7272 1.16382 11.6904 1.05957 11.675 0.951172C11.6595 0.842773 11.6655 0.732422 11.6927 0.626465C11.7198 0.520508 11.7676 0.420898 11.8333 0.333252C11.9659 0.156494 12.1633 0.0395508 12.3821 0.00830078C12.601 -0.0229492 12.8231 0.0341797 13 0.166748L16.3333 2.66675C16.5101 2.79932 16.627 2.99658 16.6582 3.21558C16.6895 3.43433 16.6326 3.65649 16.5 3.83325C16.4203 3.93457 16.3191 4.01685 16.2039 4.07446C16.0886 4.13208 15.9622 4.16357 15.8333 4.16675Z" fill="#FFD762" fill-opacity="1.000000" fill-rule="nonzero"/>
</svg>
