<svg width="55" height="55" viewBox="0 0 55 55" fill="none" xmlns="http://www.w3.org/2000/svg">
<g clip-path="url(#clip0_3_1599)">
<path d="M53.1453 5.51966C52.0039 4.37627 50.412 3.66395 48.6678 3.66492H45.7743H44.3066H10.6934H9.22668H6.33231C4.58896 3.66395 2.99621 4.37627 1.85485 5.51966C0.711456 6.66102 -0.000858598 8.25387 7.76722e-07 9.99712V13.3137C7.76722e-07 17.3954 2.48499 21.0657 6.27462 22.5814L6.33123 22.6037L12.9117 24.6197C13.239 25.0438 13.5839 25.459 13.9689 25.8558C16.4129 28.369 18.7884 30.0568 20.4252 31.4267C21.244 32.1087 21.8675 32.7098 22.2329 33.2209C22.4177 33.4759 22.5397 33.7036 22.6169 33.9137C22.6932 34.1248 22.7293 34.3182 22.7293 34.544C22.7293 37.7296 22.7293 35.8887 22.7293 39.0743C22.7293 39.7329 22.6364 40.2987 22.482 40.7657C22.2465 41.4684 21.8888 41.9442 21.4491 42.2687C21.0055 42.5892 20.4525 42.7807 19.7136 42.7837C17.0792 42.7837 17.0538 42.7837 17.0518 42.7837H15.5841V51.335H39.4157V42.7837H37.948C37.948 42.7837 37.9215 42.7837 35.2871 42.7837C34.7946 42.7837 34.3833 42.6947 34.0344 42.5443C33.5135 42.3147 33.11 41.955 32.7924 41.3961C32.4796 40.8381 32.2705 40.0642 32.2705 39.0743C32.2705 35.8887 32.2705 37.7296 32.2705 34.544C32.2715 34.3182 32.3077 34.1248 32.383 33.9137C32.5149 33.5493 32.7992 33.1154 33.2838 32.6082C34.0041 31.846 35.1415 30.9607 36.4979 29.8809C37.8542 28.7972 39.4264 27.5063 41.031 25.8558C41.416 25.459 41.762 25.0438 42.0883 24.6197L48.6696 22.6037L48.7254 22.5814C52.5159 21.0657 54.9999 17.3954 54.9999 13.3137V9.99712C55.001 8.25387 54.2895 6.66102 53.1453 5.51966ZM7.32596 19.8403C4.67199 18.7605 2.93455 16.1817 2.93455 13.3137V9.99712C2.93541 9.05513 3.31268 8.2138 3.92928 7.59516C4.54975 6.97759 5.38914 6.60044 6.3322 6.59936H9.22174C9.21873 7.28246 9.21476 7.96641 9.21476 8.64661C9.2168 11.7931 9.28813 14.8967 9.90763 17.8323C10.1304 18.8836 10.4284 19.9127 10.8193 20.9103L7.32596 19.8403ZM42.2224 17.2244C41.9507 18.5065 41.5686 19.6976 41.035 20.793C40.5015 21.8896 39.8195 22.892 38.9273 23.8106C36.6866 26.1177 34.4743 27.692 32.6938 29.1754C31.8046 29.921 31.0131 30.6451 30.3896 31.501C30.0798 31.9291 29.8149 32.3943 29.6274 32.9062C29.4398 33.4164 29.3353 33.9734 29.3362 34.544C29.3362 37.7296 29.3362 35.8887 29.3362 39.0743C29.3362 40.0084 29.4672 40.886 29.733 41.6883C30.1287 42.8902 30.8431 43.926 31.8213 44.6384C32.7964 45.3537 34.0092 45.7221 35.2873 45.7182C35.7671 45.7182 36.159 45.7182 36.4814 45.7182V48.4007H18.5187V45.7182C18.8412 45.7182 19.233 45.7182 19.7137 45.7182C20.5669 45.7192 21.3877 45.5589 22.1313 45.2375C23.2492 44.7567 24.1707 43.9036 24.7677 42.8287C25.3687 41.7538 25.6638 40.4737 25.6638 39.0744C25.6638 35.8888 25.6638 37.7297 25.6638 34.5441C25.6649 33.9735 25.5603 33.4165 25.3727 32.9063C25.0424 32.0073 24.4865 31.2636 23.8424 30.5856C22.869 29.5683 21.6652 28.6547 20.3333 27.5885C19.0024 26.5254 17.5425 25.3234 16.0728 23.8107C15.1806 22.8921 14.4986 21.8896 13.9651 20.7931C13.1657 19.1515 12.7045 17.2879 12.4504 15.2389C12.1954 13.1926 12.1495 10.9695 12.1495 8.64671C12.1495 7.97243 12.1524 7.28847 12.1563 6.59947H42.8448C42.8467 7.28847 42.8507 7.97232 42.8507 8.64671C42.8525 11.7443 42.7656 14.6632 42.2224 17.2244ZM52.0665 13.3137C52.0665 16.1817 50.328 18.7605 47.674 19.8403L44.1786 20.9102C44.8432 19.2178 45.2341 17.4324 45.4618 15.6012C45.7422 13.3419 45.7842 11.0065 45.7852 8.6465C45.7852 7.96641 45.7814 7.28235 45.7784 6.59925H48.6679C49.6109 6.60033 50.4512 6.97738 51.0707 7.59505C51.6873 8.21359 52.0656 9.05395 52.0665 9.99701V13.3137Z" fill="#FFD762"/>
</g>
<defs>
<clipPath id="clip0_3_1599">
<rect width="55" height="55" fill="white"/>
</clipPath>
</defs>
</svg>
