<svg width="20.000000" height="20.000000" viewBox="0 0 20 20" fill="none" xmlns="http://www.w3.org/2000/svg" xmlns:xlink="http://www.w3.org/1999/xlink">
	<desc>
			Created with Pixso.
	</desc>
	<defs>
		<clipPath id="clip367_357">
			<rect id="winner-cup-9-svgrepo-com 1" width="20.000000" height="20.000000" fill="white" fill-opacity="0"/>
		</clipPath>
	</defs>
	<rect id="winner-cup-9-svgrepo-com 1" width="20.000000" height="20.000000" fill="#FFFFFF" fill-opacity="0"/>
	<g clip-path="url(#clip367_357)">
		<path id="Vector" d="M19.32 2C18.91 1.59 18.33 1.33 17.69 1.33L16.64 1.33L16.11 1.33L3.88 1.33L3.35 1.33L2.3 1.33C1.66 1.33 1.08 1.59 0.67 2C0.25 2.42 -0.01 3 0 3.63L0 4.84C0 6.32 0.9 7.66 2.28 8.21L2.3 8.21L4.69 8.95C4.81 9.1 4.93 9.25 5.07 9.4C5.96 10.31 6.83 10.92 7.42 11.42C7.72 11.67 7.95 11.89 8.08 12.08C8.15 12.17 8.19 12.25 8.22 12.33C8.25 12.4 8.26 12.47 8.26 12.56C8.26 13.72 8.26 13.05 8.26 14.2C8.26 14.44 8.23 14.65 8.17 14.82C8.08 15.07 7.95 15.25 7.79 15.37C7.63 15.48 7.43 15.55 7.16 15.55C6.21 15.55 6.2 15.55 6.2 15.55L5.66 15.55L5.66 18.66L14.33 18.66L14.33 15.55L13.79 15.55C13.79 15.55 13.78 15.55 12.83 15.55C12.65 15.55 12.5 15.52 12.37 15.47C12.18 15.38 12.04 15.25 11.92 15.05C11.81 14.85 11.73 14.56 11.73 14.2C11.73 13.05 11.73 13.72 11.73 12.56C11.73 12.47 11.74 12.4 11.77 12.33C11.82 12.19 11.92 12.04 12.1 11.85C12.36 11.58 12.77 11.25 13.27 10.86C13.76 10.47 14.33 10 14.92 9.4C15.06 9.25 15.18 9.1 15.3 8.95L17.69 8.21L17.71 8.21C19.09 7.66 20 6.32 20 4.84L20 3.63C20 3 19.74 2.42 19.32 2ZM2.66 7.21C1.69 6.82 1.06 5.88 1.06 4.84L1.06 3.63C1.06 3.29 1.2 2.98 1.42 2.76C1.65 2.53 1.95 2.4 2.3 2.39L3.35 2.39C3.35 2.64 3.35 2.89 3.35 3.14C3.35 4.28 3.37 5.41 3.6 6.48C3.68 6.86 3.79 7.24 3.93 7.6L2.66 7.21ZM15.35 6.26C15.25 6.72 15.11 7.16 14.92 7.56C14.72 7.95 14.47 8.32 14.15 8.65C13.34 9.49 12.53 10.06 11.88 10.6C11.56 10.88 11.27 11.14 11.05 11.45C10.93 11.61 10.84 11.77 10.77 11.96C10.7 12.15 10.66 12.35 10.66 12.56C10.66 13.72 10.66 13.05 10.66 14.2C10.66 14.54 10.71 14.86 10.81 15.15C10.95 15.59 11.21 15.97 11.57 16.23C11.92 16.49 12.36 16.62 12.83 16.62C13 16.62 13.14 16.62 13.26 16.62L13.26 17.6L6.73 17.6L6.73 16.62C6.85 16.62 6.99 16.62 7.16 16.62C7.47 16.62 7.77 16.56 8.04 16.45C8.45 16.27 8.78 15.96 9 15.57C9.22 15.18 9.33 14.71 9.33 14.2C9.33 13.05 9.33 13.72 9.33 12.56C9.33 12.35 9.29 12.15 9.22 11.96C9.1 11.63 8.9 11.36 8.66 11.12C8.31 10.75 7.87 10.41 7.39 10.03C6.9 9.64 6.37 9.2 5.84 8.65C5.52 8.32 5.27 7.95 5.07 7.56C4.78 6.96 4.61 6.28 4.52 5.54C4.43 4.79 4.41 3.98 4.41 3.14C4.41 2.89 4.41 2.65 4.42 2.39L15.57 2.39C15.58 2.65 15.58 2.89 15.58 3.14C15.58 4.27 15.55 5.33 15.35 6.26ZM18.93 4.84C18.93 5.88 18.3 6.82 17.33 7.21L16.06 7.6C16.3 6.98 16.44 6.33 16.53 5.67C16.63 4.85 16.64 4 16.64 3.14C16.64 2.89 16.64 2.64 16.64 2.39L17.69 2.39C18.04 2.4 18.34 2.53 18.57 2.76C18.79 2.98 18.93 3.29 18.93 3.63L18.93 4.84Z" fill="#960E89" fill-opacity="1.000000" fill-rule="nonzero"/>
	</g>
</svg>
