<svg width="22.316650" height="22.316681" viewBox="0 0 22.3167 22.3167" fill="none" xmlns="http://www.w3.org/2000/svg" xmlns:xlink="http://www.w3.org/1999/xlink">
	<desc>
			Created with Pixso.
	</desc>
	<defs/>
	<path id="info" d="M10.61 5.2L11.7 5.2L11.7 12.78L10.61 12.78L10.61 5.2ZM12.24 15.49C12.24 15.27 12.17 15.06 12.05 14.88C11.94 14.71 11.77 14.57 11.57 14.49C11.37 14.4 11.15 14.38 10.94 14.42C10.73 14.47 10.54 14.57 10.39 14.72C10.24 14.87 10.13 15.07 10.09 15.28C10.05 15.49 10.07 15.7 10.15 15.9C10.23 16.1 10.37 16.27 10.55 16.39C10.73 16.51 10.94 16.57 11.15 16.57C11.44 16.57 11.72 16.46 11.92 16.25C12.12 16.05 12.24 15.77 12.24 15.49ZM22.31 11.15C22.31 13.36 21.66 15.52 20.43 17.35C19.21 19.19 17.46 20.62 15.42 21.46C13.38 22.31 11.14 22.53 8.98 22.1C6.81 21.67 4.82 20.6 3.26 19.04C1.7 17.48 0.64 15.49 0.21 13.33C-0.22 11.17 0 8.92 0.84 6.88C1.69 4.84 3.12 3.1 4.95 1.88C6.79 0.65 8.95 0 11.15 0C12.62 -0.01 14.07 0.28 15.42 0.84C16.78 1.4 18.01 2.23 19.04 3.26C20.08 4.3 20.9 5.53 21.46 6.88C22.02 8.24 22.31 9.69 22.31 11.15ZM21.23 11.15C21.23 9.16 20.64 7.21 19.53 5.56C18.42 3.9 16.85 2.61 15.01 1.85C13.17 1.08 11.14 0.88 9.19 1.27C7.23 1.66 5.44 2.62 4.03 4.03C2.62 5.44 1.66 7.23 1.27 9.19C0.88 11.14 1.08 13.17 1.85 15.01C2.61 16.85 3.9 18.42 5.56 19.53C7.21 20.64 9.16 21.23 11.15 21.23C13.82 21.23 16.39 20.16 18.27 18.27C20.16 16.39 21.23 13.82 21.23 11.15Z" fill="#FEFFAB" fill-opacity="1.000000" fill-rule="nonzero"/>
</svg>
