<svg width="20.000000" height="20.000000" viewBox="0 0 20 20" fill="none" xmlns="http://www.w3.org/2000/svg" xmlns:xlink="http://www.w3.org/1999/xlink">
	<desc>
			Created with Pixso.
	</desc>
	<defs/>
	<path id="Vector" d="M11.6667 11.8766L11.6667 13.6183C10.9125 13.3516 10.1052 13.2699 9.31287 13.3798C8.52051 13.4897 7.76599 13.7882 7.11292 14.2502C6.45972 14.7121 5.927 15.324 5.55933 16.0345C5.19165 16.745 4.99988 17.5333 5 18.3333L3.33337 18.3325C3.33313 17.3149 3.5658 16.3107 4.01367 15.397C4.46143 14.4832 5.11255 13.6841 5.91687 13.0608C6.72131 12.4376 7.65771 12.0068 8.6543 11.8013C9.651 11.5959 10.6814 11.6222 11.6667 11.8766ZM10 10.8333C7.23755 10.8333 5 8.59581 5 5.83331C5 3.07082 7.23755 0.833313 10 0.833313C12.7626 0.833313 15 3.07082 15 5.83331C15 8.59581 12.7626 10.8333 10 10.8333ZM10 9.16665C11.8417 9.16665 13.3334 7.67498 13.3334 5.83331C13.3334 3.99165 11.8417 2.49998 10 2.49998C8.15833 2.49998 6.66675 3.99165 6.66675 5.83331C6.66675 7.67498 8.15833 9.16665 10 9.16665ZM14.8275 16.595L17.7733 13.6491L18.9525 14.8275L14.8275 18.9525L11.8809 16.0058L13.0601 14.8275L14.8275 16.595Z" fill="#F7D261" fill-opacity="1.000000" fill-rule="nonzero"/>
</svg>
