<svg width="26.000000" height="29.000000" viewBox="0 0 26 29" fill="none" xmlns="http://www.w3.org/2000/svg" xmlns:xlink="http://www.w3.org/1999/xlink">
	<desc>
			Created with Pixso.
	</desc>
	<defs/>
	<path id="Vector" d="M1 3.65845C1 5.44946 1.97225 7.12988 3.61047 8.1709L22.3895 20.103C24.0277 21.1438 25 22.8245 25 24.6152L25 28L1 28L1 24.6152C1 22.8245 1.97225 21.1438 3.61047 20.103L22.3895 8.1709C24.0277 7.12988 25 5.44946 25 3.65845L25 1L1 1L1 3.65845Z" stroke="#F8D05F" stroke-opacity="1.000000" stroke-width="2.000000" stroke-linejoin="round"/>
	<path id="Vector" d="M12.689 10.2676L6.50366 5.56763C6.24341 5.36987 6.17168 4.96655 6.34344 4.66699C6.44794 4.48462 6.62497 4.375 6.81467 4.375L19.1854 4.375C19.4972 4.375 19.75 4.66602 19.75 5.02515C19.75 5.24341 19.6547 5.44727 19.4964 5.56763L13.311 10.2676C13.1224 10.4109 12.8777 10.4109 12.689 10.2676Z" fill="#F8D05F" fill-opacity="1.000000" fill-rule="evenodd"/>
</svg>
