<svg width="16.000000" height="16.888885" viewBox="0 0 16 16.8889" fill="none" xmlns="http://www.w3.org/2000/svg" xmlns:xlink="http://www.w3.org/1999/xlink">
	<desc>
			Created with Pixso.
	</desc>
	<defs/>
	<path id="Vector" d="M12.08 1.95C11.64 1.68 11.11 1.86 10.84 2.31C10.57 2.75 10.75 3.28 11.2 3.55C13.06 4.71 14.31 6.75 14.31 8.88C14.31 12.35 11.55 15.11 8.08 15.11C4.62 15.11 1.86 12.35 1.86 8.88C1.86 6.66 3.11 4.62 4.97 3.46C5.33 3.2 5.51 2.66 5.24 2.31C4.97 1.86 4.44 1.68 4 1.95C1.51 3.37 0 6.04 0 8.88C0 13.33 3.55 16.88 8 16.88C12.44 16.88 16 13.33 16 8.88C16 6.04 14.48 3.46 12.08 1.95Z" fill="#F7D261" fill-opacity="1.000000" fill-rule="nonzero"/>
	<path id="Vector" d="M8 9.77C8.53 9.77 8.88 9.42 8.88 8.88L8.88 0.88C8.88 0.35 8.53 0 8 0C7.46 0 7.11 0.35 7.11 0.88L7.11 8.88C7.11 9.42 7.46 9.77 8 9.77Z" fill="#F7D261" fill-opacity="1.000000" fill-rule="nonzero"/>
</svg>
