<svg width="50.000000" height="70.000000" viewBox="0 0 50 70" fill="none" xmlns="http://www.w3.org/2000/svg" xmlns:xlink="http://www.w3.org/1999/xlink">
	<desc>
			Created with Pixso.
	</desc>
	<defs>
		<clipPath id="clip28_3467">
			<rect id="card5" rx="2.500000" width="49.000000" height="69.000000" transform="translate(0.500000 0.500000)" fill="white" fill-opacity="0"/>
		</clipPath>
	</defs>
	<rect id="card5" rx="2.500000" width="49.000000" height="69.000000" transform="translate(0.500000 0.500000)" fill="#FFFFFF" fill-opacity="1.000000"/>
	<g clip-path="url(#clip28_3467)">
		<path id="AAPL" d="M9.41 40.67L8.66 43L6.35 43L9.87 32.81L12.64 32.81L16.15 43L13.84 43L13.09 40.67L9.41 40.67ZM19.88 40.67L19.13 43L16.82 43L20.34 32.81L23.11 32.81L26.62 43L24.31 43L23.56 40.67L19.88 40.67ZM30 43L27.84 43L27.84 32.81L31.86 32.81C34.17 32.81 35.51 34.24 35.51 36.27C35.51 38.3 34.15 39.69 31.81 39.69L30 39.69L30 43ZM43.43 43L36.91 43L36.91 32.81L39.07 32.81L39.07 41.22L43.43 41.22L43.43 43ZM30 34.57L30 37.97L31.46 37.97C32.69 37.97 33.29 37.27 33.29 36.27C33.29 35.25 32.69 34.57 31.45 34.57L30 34.57ZM11.21 35.14L9.96 38.99L12.55 38.99L11.29 35.14L11.21 35.14ZM21.68 35.14L20.43 38.99L23.02 38.99L21.76 35.14L21.68 35.14Z" fill="#960E89" fill-opacity="1.000000" fill-rule="evenodd"/>
		<path id="Vector" d="M7.16 3.06C5.96 3.37 5.13 4.18 4.83 5.31C4.75 5.65 4.74 6.39 4.83 6.7L4.89 6.93L4.56 7.12C4.04 7.4 3.56 7.91 3.31 8.43C3.2 8.66 3.08 8.96 3.05 9.09C2.97 9.42 2.98 10.14 3.07 10.49C3.28 11.28 3.92 12.06 4.64 12.41C5.14 12.67 5.6 12.78 6.12 12.78C6.71 12.78 7.09 12.69 7.59 12.43L8.03 12.21L8.43 12.4C8.96 12.67 9.38 12.75 10.01 12.72C10.88 12.68 11.51 12.41 12.13 11.78C12.43 11.48 12.52 11.36 12.68 11.01C12.93 10.49 13 10.22 13 9.7C13 9.18 12.93 8.91 12.68 8.38C12.52 8.03 12.42 7.91 12.1 7.59C11.81 7.3 11.64 7.18 11.34 7.02L10.96 6.83L10.99 6.66C11.05 6.29 11.03 5.44 10.94 5.18C10.6 4.16 9.87 3.45 8.83 3.12C8.39 2.98 7.59 2.95 7.16 3.06Z" fill="#22041E" fill-opacity="1.000000" fill-rule="nonzero"/>
		<path id="Vector" d="M8 12.64C7.97 13.04 7.83 13.71 7.7 14.09C7.45 14.88 6.89 15.69 6.29 16.16C6.18 16.24 6.09 16.32 6.08 16.33C6.08 16.34 6.13 16.35 6.19 16.36C6.24 16.36 7.14 16.37 8.2 16.39L10.11 16.43L9.64 15.95C8.72 15 8.28 14.08 8.09 12.73L8.03 12.31L8 12.64Z" fill="#22041E" fill-opacity="1.000000" fill-rule="nonzero"/>
		<path id="Vector" d="M41.16 67.36C39.96 67.05 39.13 66.24 38.83 65.11C38.75 64.77 38.74 64.03 38.83 63.72L38.89 63.49L38.56 63.31C38.04 63.03 37.56 62.52 37.31 61.99C37.2 61.76 37.08 61.47 37.05 61.34C36.97 61 36.98 60.28 37.07 59.93C37.28 59.14 37.92 58.36 38.64 58.01C39.14 57.76 39.6 57.65 40.12 57.65C40.71 57.65 41.09 57.74 41.59 58L42.03 58.21L42.43 58.02C42.96 57.76 43.38 57.67 44.01 57.71C44.88 57.74 45.51 58.02 46.13 58.64C46.43 58.94 46.52 59.07 46.68 59.41C46.93 59.93 47 60.2 47 60.72C47 61.24 46.93 61.51 46.68 62.04C46.52 62.39 46.42 62.51 46.1 62.83C45.81 63.12 45.64 63.25 45.34 63.4L44.96 63.59L44.99 63.77C45.05 64.13 45.03 64.99 44.94 65.24C44.6 66.27 43.87 66.98 42.83 67.31C42.39 67.44 41.59 67.47 41.16 67.36Z" fill="#22041E" fill-opacity="1.000000" fill-rule="nonzero"/>
		<path id="Vector" d="M42 57.78C41.97 57.38 41.83 56.72 41.7 56.33C41.45 55.54 40.89 54.73 40.29 54.27C40.18 54.18 40.09 54.1 40.08 54.09C40.08 54.08 40.13 54.07 40.19 54.07C40.24 54.07 41.14 54.05 42.2 54.03L44.11 54L43.64 54.47C42.72 55.42 42.28 56.34 42.09 57.7L42.03 58.11L42 57.78Z" fill="#22041E" fill-opacity="1.000000" fill-rule="nonzero"/>
	</g>
</svg>
