<svg width="50" height="70" viewBox="0 0 50 70" fill="none" xmlns="http://www.w3.org/2000/svg">
<rect width="50" height="70" rx="3" fill="white"/>
<path d="M7.16504 3.06826C5.96643 3.37999 5.13224 4.18784 4.83808 5.31619C4.75027 5.65426 4.74588 6.39626 4.83369 6.70798L4.89515 6.93629L4.56148 7.12069C4.0434 7.40168 3.56044 7.91097 3.31019 8.43783C3.20042 8.66614 3.08627 8.9603 3.05554 9.09202C2.97212 9.42569 2.98529 10.1457 3.07749 10.497C3.28823 11.2873 3.92485 12.0688 4.6405 12.42C5.14541 12.6703 5.60202 12.78 6.12888 12.78C6.71721 12.78 7.0904 12.6922 7.5997 12.4332L8.03435 12.2137L8.43389 12.4068C8.96514 12.6703 9.38224 12.7537 10.0189 12.723C10.8838 12.6878 11.5116 12.4112 12.1351 11.7878C12.4336 11.4892 12.5258 11.3619 12.6883 11.0194C12.9385 10.497 13 10.2292 13 9.70669C13 9.18422 12.9385 8.9164 12.6883 8.38954C12.5214 8.0383 12.4292 7.91976 12.1087 7.59925C11.8102 7.30509 11.6477 7.18215 11.3492 7.02849L10.9628 6.8353L10.9979 6.65968C11.0594 6.29966 11.0331 5.44352 10.9453 5.18448C10.6028 4.1615 9.87397 3.45024 8.83342 3.12095C8.39877 2.98484 7.59091 2.9585 7.16504 3.06826Z" fill="#22041E"/>
<path d="M8.008 12.6483C7.97288 13.0478 7.83238 13.7108 7.70506 14.0971C7.45041 14.883 6.89282 15.6996 6.29132 16.1607C6.18156 16.2441 6.09375 16.3231 6.08936 16.3363C6.08936 16.3494 6.13326 16.3582 6.19034 16.3626C6.24302 16.3626 7.14746 16.3802 8.20118 16.3977L10.1154 16.4329L9.65004 15.9587C8.72365 15.0103 8.28021 14.0883 8.09581 12.7317L8.03873 12.319L8.008 12.6483Z" fill="#22041E"/>
<path d="M41.165 67.3646C39.9664 67.0529 39.1322 66.245 38.8381 65.1167C38.7503 64.7786 38.7459 64.0366 38.8337 63.7249L38.8952 63.4966L38.5615 63.3122C38.0434 63.0312 37.5604 62.5219 37.3102 61.995C37.2004 61.7667 37.0863 61.4726 37.0555 61.3408C36.9721 61.0072 36.9853 60.2871 37.0775 59.9359C37.2882 59.1456 37.9249 58.3641 38.6405 58.0129C39.1454 57.7626 39.602 57.6528 40.1289 57.6528C40.7172 57.6528 41.0904 57.7406 41.5997 57.9997L42.0344 58.2192L42.4339 58.026C42.9651 57.7626 43.3822 57.6792 44.0189 57.7099C44.8838 57.745 45.5116 58.0216 46.1351 58.6451C46.4336 58.9436 46.5258 59.071 46.6883 59.4134C46.9385 59.9359 47 60.2037 47 60.7262C47 61.2486 46.9385 61.5165 46.6883 62.0433C46.5214 62.3946 46.4292 62.5131 46.1087 62.8336C45.8102 63.1278 45.6477 63.2507 45.3492 63.4044L44.9628 63.5976L44.9979 63.7732C45.0594 64.1332 45.0331 64.9893 44.9453 65.2484C44.6028 66.2714 43.874 66.9826 42.8334 67.3119C42.3988 67.448 41.5909 67.4744 41.165 67.3646Z" fill="#22041E"/>
<path d="M42.008 57.7846C41.9729 57.3851 41.8324 56.7221 41.7051 56.3357C41.4504 55.5498 40.8928 54.7332 40.2913 54.2722C40.1816 54.1888 40.0937 54.1098 40.0894 54.0966C40.0894 54.0834 40.1333 54.0746 40.1903 54.0702C40.243 54.0702 41.1475 54.0527 42.2012 54.0351L44.1154 54L43.65 54.4742C42.7237 55.4225 42.2802 56.3445 42.0958 57.7012L42.0387 58.1139L42.008 57.7846Z" fill="#22041E"/>
</svg>
