<svg width="50" height="70" viewBox="0 0 50 70" fill="none" xmlns="http://www.w3.org/2000/svg">
<rect width="50" height="70" rx="3" fill="white"/>
<path d="M5.36299 6.56224L3 10.121L3.121 10.274C3.4911 10.7473 8.24911 16.5943 8.25623 16.5872C8.25979 16.58 9.33096 14.9715 10.6335 13.0106L13 9.4448L10.3843 6.22416C8.94662 4.44836 7.75801 2.99996 7.74733 2.99996C7.7331 3.00352 6.65836 4.60495 5.36299 6.56224Z" fill="#FF3449"/>
<path d="M39.363 57.5622L37 61.121L37.121 61.274C37.4911 61.7473 42.2491 67.5943 42.2562 67.5872C42.2598 67.58 43.331 65.9715 44.6335 64.0106L47 60.4448L44.3843 57.2242C42.9466 55.4484 41.758 54 41.7473 54C41.7331 54.0035 40.6584 55.6049 39.363 57.5622Z" fill="#FF3449"/>
</svg>
