<svg width="50.000000" height="70.000000" viewBox="0 0 50 70" fill="none" xmlns="http://www.w3.org/2000/svg" xmlns:xlink="http://www.w3.org/1999/xlink">
	<desc>
			Created with Pixso.
	</desc>
	<defs>
		<clipPath id="clip4_3708">
			<rect id="card3" rx="2.500000" width="49.000000" height="69.000000" transform="translate(0.500000 0.500000)" fill="white" fill-opacity="0"/>
		</clipPath>
	</defs>
	<rect id="card3" rx="2.500000" width="49.000000" height="69.000000" transform="translate(0.500000 0.500000)" fill="#FFFFFF" fill-opacity="1.000000"/>
	<g clip-path="url(#clip4_3708)">
		<path id="GOOG" d="M13.22 36.1L11.03 36.1C10.76 35.15 10.01 34.58 8.9 34.58C7.35 34.58 6.29 35.78 6.29 37.9C6.29 40.02 7.31 41.23 8.92 41.23C10.35 41.23 11.22 40.43 11.24 39.17L9.06 39.17L9.06 37.55L13.32 37.55L13.32 38.83C13.32 41.51 11.48 43.14 8.91 43.14C6.04 43.14 4.11 41.14 4.11 37.91C4.11 34.61 6.18 32.67 8.87 32.67C11.17 32.67 12.94 34.09 13.22 36.1ZM19.52 32.67C22.22 32.67 24.29 34.57 24.29 37.91C24.29 41.23 22.22 43.14 19.52 43.14C16.81 43.14 14.76 41.22 14.76 37.91C14.76 34.57 16.81 32.67 19.52 32.67ZM30.47 32.67C33.17 32.67 35.24 34.57 35.24 37.91C35.24 41.23 33.17 43.14 30.47 43.14C27.75 43.14 25.7 41.22 25.7 37.91C25.7 34.57 27.75 32.67 30.47 32.67ZM45.77 36.1L43.58 36.1C43.3 35.15 42.56 34.58 41.45 34.58C39.89 34.58 38.83 35.78 38.83 37.9C38.83 40.02 39.85 41.23 41.47 41.23C42.9 41.23 43.76 40.43 43.79 39.17L41.6 39.17L41.6 37.55L45.86 37.55L45.86 38.83C45.86 41.51 44.03 43.14 41.46 43.14C38.59 43.14 36.65 41.14 36.65 37.91C36.65 34.61 38.72 32.67 41.41 32.67C43.71 32.67 45.49 34.09 45.77 36.1ZM19.52 41.23C21.08 41.23 22.11 40.06 22.11 37.91C22.11 35.75 21.08 34.58 19.52 34.58C17.95 34.58 16.94 35.75 16.94 37.91C16.94 40.06 17.95 41.23 19.52 41.23ZM30.47 41.23C32.03 41.23 33.05 40.06 33.05 37.91C33.05 35.75 32.03 34.58 30.47 34.58C28.9 34.58 27.88 35.75 27.88 37.91C27.88 40.06 28.9 41.23 30.47 41.23Z" fill="#960E89" fill-opacity="1.000000" fill-rule="evenodd"/>
		<path id="Vector" d="M7.16 3.06C5.96 3.38 5.13 4.18 4.83 5.31C4.75 5.65 4.74 6.39 4.83 6.7L4.89 6.93L4.56 7.12C4.04 7.4 3.56 7.91 3.31 8.43C3.2 8.66 3.08 8.96 3.05 9.09C2.97 9.42 2.98 10.14 3.07 10.49C3.28 11.28 3.92 12.06 4.64 12.42C5.14 12.67 5.6 12.78 6.12 12.78C6.71 12.78 7.09 12.69 7.59 12.43L8.03 12.21L8.43 12.4C8.96 12.67 9.38 12.75 10.01 12.72C10.88 12.68 11.51 12.41 12.13 11.78C12.43 11.48 12.52 11.36 12.68 11.01C12.93 10.49 13 10.22 13 9.7C13 9.18 12.93 8.91 12.68 8.38C12.52 8.03 12.42 7.91 12.1 7.59C11.81 7.3 11.64 7.18 11.34 7.02L10.96 6.83L10.99 6.65C11.05 6.29 11.03 5.44 10.94 5.18C10.6 4.16 9.87 3.45 8.83 3.12C8.39 2.98 7.59 2.95 7.16 3.06Z" fill="#22041E" fill-opacity="1.000000" fill-rule="nonzero"/>
		<path id="Vector" d="M8 12.64C7.97 13.04 7.83 13.71 7.7 14.09C7.45 14.88 6.89 15.69 6.29 16.16C6.18 16.24 6.09 16.32 6.08 16.33C6.08 16.34 6.13 16.35 6.19 16.36C6.24 16.36 7.14 16.38 8.2 16.39L10.11 16.43L9.64 15.95C8.72 15.01 8.28 14.08 8.09 12.73L8.03 12.31L8 12.64Z" fill="#22041E" fill-opacity="1.000000" fill-rule="nonzero"/>
		<path id="Vector" d="M41.16 67.36C39.96 67.05 39.13 66.24 38.83 65.11C38.75 64.77 38.74 64.03 38.83 63.72L38.89 63.49L38.56 63.31C38.04 63.03 37.56 62.52 37.31 61.99C37.2 61.76 37.08 61.47 37.05 61.34C36.97 61 36.98 60.28 37.07 59.93C37.28 59.14 37.92 58.36 38.64 58.01C39.14 57.76 39.6 57.65 40.12 57.65C40.71 57.65 41.09 57.74 41.59 57.99L42.03 58.21L42.43 58.02C42.96 57.76 43.38 57.67 44.01 57.71C44.88 57.74 45.51 58.02 46.13 58.64C46.43 58.94 46.52 59.07 46.68 59.41C46.93 59.93 47 60.2 47 60.72C47 61.24 46.93 61.51 46.68 62.04C46.52 62.39 46.42 62.51 46.1 62.83C45.81 63.12 45.64 63.25 45.34 63.4L44.96 63.59L44.99 63.77C45.05 64.13 45.03 64.98 44.94 65.24C44.6 66.27 43.87 66.98 42.83 67.31C42.39 67.44 41.59 67.47 41.16 67.36Z" fill="#22041E" fill-opacity="1.000000" fill-rule="nonzero"/>
		<path id="Vector" d="M42 57.78C41.97 57.38 41.83 56.72 41.7 56.33C41.45 55.54 40.89 54.73 40.29 54.27C40.18 54.18 40.09 54.1 40.08 54.09C40.08 54.08 40.13 54.07 40.19 54.07C40.24 54.07 41.14 54.05 42.2 54.03L44.11 54L43.64 54.47C42.72 55.42 42.28 56.34 42.09 57.7L42.03 58.11L42 57.78Z" fill="#22041E" fill-opacity="1.000000" fill-rule="nonzero"/>
	</g>
</svg>
