<svg width="50.000000" height="70.000000" viewBox="0 0 50 70" fill="none" xmlns="http://www.w3.org/2000/svg" xmlns:xlink="http://www.w3.org/1999/xlink">
	<desc>
			Created with Pixso.
	</desc>
	<defs>
		<clipPath id="clip27_1232">
			<rect id="horse 1" rx="-0.500000" width="41.000000" height="41.000000" transform="matrix(-1 0 0 1 46.5 14.5)" fill="white" fill-opacity="0"/>
		</clipPath>
		<clipPath id="clip27_1231">
			<rect id="card5" rx="2.500000" width="49.000000" height="69.000000" transform="matrix(-1 0 0 1 50.5 0.5)" fill="white" fill-opacity="0"/>
		</clipPath>
		<linearGradient x1="25.537384" y1="14.104980" x2="25.537384" y2="55.553738" id="paint_linear_27_1233_0" gradientUnits="userSpaceOnUse">
			<stop stop-color="#960E89"/>
			<stop offset="1.000000" stop-color="#19125D"/>
		</linearGradient>
	</defs>
	<rect id="card5" rx="2.500000" width="49.000000" height="69.000000" transform="matrix(-1 0 0 1 50.5 0.5)" fill="#52FF4E" fill-opacity="1.000000"/>
	<g clip-path="url(#clip27_1231)">
		<rect id="horse 1" rx="-0.500000" width="41.000000" height="41.000000" transform="matrix(-1 0 0 1 46.5 14.5)" fill="#FFFFFF" fill-opacity="0"/>
		<g clip-path="url(#clip27_1232)">
			<path id="Vector" d="M10.66 14.1L10.66 14.63L10.77 14.63L10.77 14.76L10.87 14.76L10.87 14.86L10.98 14.86L10.98 14.97L11.19 14.97L11.19 15.07L11.29 15.07L11.29 15.18C11.31 15.18 11.33 15.18 11.34 15.18C11.36 15.19 11.38 15.2 11.4 15.2L11.42 15.28L11.53 15.28L11.53 15.39L11.74 15.41L11.74 15.49C11.78 15.5 11.78 15.5 11.82 15.52L11.84 15.6L12.05 15.62L12.05 15.73L12.18 15.73L12.18 15.83L12.39 15.83L12.39 15.94L12.5 15.94L12.5 16.04L12.71 16.04L12.71 16.15L12.92 16.17L12.92 16.25C12.94 16.26 12.95 16.26 12.97 16.26C12.99 16.27 13.01 16.27 13.03 16.28L13.05 16.36L13.26 16.38L13.26 16.49L13.47 16.49L13.47 16.59L13.68 16.59L13.68 16.7L13.81 16.7L13.81 16.8L14.02 16.8L14.02 16.91L14.23 16.91L14.23 17.01C14.29 17.02 14.35 17.03 14.42 17.04L14.44 17.12L14.65 17.15L14.65 17.22L14.78 17.25L14.78 17.33C14.81 17.34 14.84 17.34 14.87 17.35C14.97 17.37 14.97 17.37 15.01 17.42C15.05 17.46 15.05 17.46 15.12 17.46C15.14 17.46 15.16 17.46 15.18 17.46L15.18 17.57L15.39 17.57L15.39 17.67L15.6 17.67L15.6 17.78L15.81 17.78L15.81 17.88L15.94 17.88L15.94 17.99L16.15 17.99L16.15 18.09L16.36 18.09L16.36 18.2C16.44 18.2 16.51 18.21 16.6 18.22L16.6 18.33L16.81 18.33L16.81 18.43L17.02 18.43L17.02 18.54L17.23 18.54L17.23 18.64L17.43 18.64L17.43 18.75L17.57 18.75L17.57 18.85L17.85 18.88L17.85 18.96L17.99 18.96L17.99 19.06L18.2 19.09L18.2 19.17C18.27 19.17 18.35 19.18 18.43 19.19L18.43 19.3L18.64 19.3L18.64 19.4L18.85 19.4L18.85 19.51L19.06 19.53L19.06 19.61L19.27 19.64L19.27 19.72L19.4 19.72L19.4 19.82L19.61 19.82L19.61 19.93L19.82 19.95L19.82 20.03C19.84 20.04 19.85 20.04 19.87 20.04C19.89 20.05 19.91 20.05 19.93 20.05C19.95 20.06 19.97 20.06 19.99 20.07C20 20.07 20.02 20.08 20.03 20.09L20.06 20.16C20.12 20.17 20.18 20.18 20.24 20.19L20.27 20.27C20.33 20.28 20.39 20.29 20.45 20.29L20.48 20.37L20.66 20.37L20.66 20.48C20.68 20.48 20.7 20.48 20.71 20.49C20.73 20.49 20.75 20.5 20.77 20.51L20.8 20.58C20.86 20.59 20.92 20.6 20.98 20.61L21.01 20.69C21.07 20.7 21.13 20.71 21.19 20.72L21.22 20.79L21.43 20.82L21.43 20.9L21.64 20.93L21.64 21.03L21.85 21.03L21.85 21.14L22.06 21.14L22.06 21.24L22.27 21.27L22.29 21.35L22.4 21.35L22.4 21.45L22.61 21.45L22.61 21.69L22.53 21.69L22.5 21.9L22.4 21.9L22.4 22.11L22.29 22.11L22.29 22.32L22.19 22.32L22.19 22.53L22.08 22.53L22.06 22.84L21.98 22.84L21.98 23.18C22.07 23.21 22.15 23.21 22.24 23.21C22.27 23.21 22.3 23.21 22.33 23.21C22.35 23.21 22.37 23.21 22.39 23.21L22.42 23.1L22.53 23.08L22.53 23L22.63 22.97L22.63 22.76L22.74 22.76L22.76 22.55L22.84 22.55C22.85 22.53 22.85 22.53 22.85 22.5C22.86 22.48 22.86 22.47 22.87 22.45C22.89 22.44 22.92 22.43 22.95 22.42L22.97 22.21L23.08 22.21L23.08 22.11L23.18 22.11L23.18 21.9L23.29 21.9L23.29 21.79L23.39 21.79L23.39 21.87L23.47 21.87L23.47 22.21L23.39 22.21C23.36 22.33 23.36 22.44 23.36 22.56C23.36 22.58 23.37 22.6 23.37 22.62C23.37 22.67 23.37 22.71 23.37 22.76L23.26 22.76L23.26 23.63L23.16 23.63L23.13 24.57L23.05 24.57L23.05 24.7C23.08 24.71 23.1 24.72 23.13 24.73L23.13 24.81L23.05 24.81L23.02 25.33L22.95 25.33L22.95 25.47L22.84 25.47L22.84 25.57L22.74 25.57L22.74 25.68L22.63 25.68L22.6 25.89L22.5 25.89L22.5 25.99L22.39 25.99L22.39 26.12L22.29 26.12L22.29 26.23L22.18 26.23L22.18 26.33L22.08 26.33L22.08 26.54L21.98 26.54L21.98 26.65L21.87 26.65C21.87 26.67 21.87 26.67 21.86 26.7C21.86 26.72 21.85 26.73 21.84 26.75C21.82 26.76 21.79 26.77 21.77 26.78L21.74 26.96L21.63 26.99L21.63 27.09L21.53 27.09L21.53 27.2L21.42 27.2L21.42 27.3L21.32 27.3L21.32 27.41L21.21 27.43L21.21 27.54L21.11 27.57L21.11 27.64L21 27.67L21 27.75L20.9 27.78L20.9 27.85L20.79 27.85L20.77 27.93C20.72 27.97 20.72 27.97 20.66 27.99L20.66 28.04L20.24 28.06L20.24 27.96L20.14 27.96L20.14 27.83L20.06 27.83L20.06 27.67L20.14 27.67L20.14 27.54L20.24 27.54L20.24 27.43L20.35 27.43L20.35 27.33L20.48 27.3L20.48 27.22L20.58 27.22L20.58 27.12L20.69 27.12L20.69 27.01L20.79 26.99L20.79 26.88L20.9 26.88L20.9 26.78L21 26.78L21 26.67L21.11 26.65L21.14 26.46L21.21 26.46L21.21 26.33C21.23 26.33 21.25 26.33 21.26 26.32C21.28 26.32 21.3 26.31 21.32 26.31C21.35 26.22 21.35 26.16 21.35 26.06C21.35 26.04 21.35 26.01 21.35 25.98C21.35 25.95 21.35 25.95 21.35 25.91L21.45 25.89L21.45 25.15L21.35 25.15L21.32 25.02L21.24 25.02L21.21 24.91L20.9 24.91L20.9 24.84C20.81 24.81 20.73 24.81 20.64 24.81L20.54 24.81C20.49 24.81 20.49 24.81 20.43 24.81C20.4 24.81 20.36 24.81 20.33 24.81C20.23 24.81 20.14 24.81 20.05 24.81C19.95 24.81 19.85 24.81 19.76 24.81C19.57 24.81 19.38 24.81 19.19 24.81L19.17 24.63L19.27 24.63L19.3 24.42L19.4 24.39L19.4 24.31C19.46 24.3 19.51 24.29 19.56 24.28L19.59 24.18L19.72 24.18L19.72 24.07L19.82 24.07L19.82 23.97L19.93 23.97L19.93 23.86L20.03 23.86C20.04 23.84 20.04 23.84 20.04 23.81C20.05 23.8 20.05 23.78 20.06 23.76C20.09 23.75 20.11 23.74 20.14 23.73L20.16 23.52L20.24 23.52L20.24 23.42C20.22 23.41 20.19 23.4 20.16 23.39C20.15 23.34 20.15 23.34 20.14 23.29L20.03 23.29L20.03 23.18L19.85 23.18L19.82 23.08L19.59 23.08L19.59 23C19.5 22.97 19.44 22.97 19.35 22.97C19.32 22.97 19.29 22.97 19.26 22.97C19.23 22.97 19.23 22.97 19.19 22.97L19.19 22.87L17.78 22.87L17.78 22.97C17.75 22.97 17.73 22.97 17.7 22.97C17.66 22.97 17.66 22.97 17.61 22.97C17.58 22.97 17.55 22.97 17.52 22.97C17.43 22.97 17.43 22.97 17.36 23L17.36 23.08L17.22 23.08L17.22 23.18L17.01 23.21L16.99 23.29C16.96 23.3 16.94 23.3 16.91 23.31L16.91 23.39L16.7 23.42L16.7 23.52L16.59 23.52L16.57 23.73L16.46 23.73L16.46 23.84L16.36 23.84L16.36 23.94L16.25 23.97L16.25 24.18L16.15 24.18L16.15 24.39L16.04 24.39L16.04 24.7L15.94 24.7L15.94 25.68L16.04 25.7L16.04 25.99L16.15 26.02L16.15 26.2L16.25 26.23L16.25 26.44L16.36 26.46L16.38 26.57L16.46 26.57L16.49 26.67L16.57 26.67C16.57 26.7 16.57 26.7 16.58 26.72C16.58 26.74 16.59 26.76 16.59 26.78C16.62 26.79 16.65 26.8 16.67 26.8C16.7 26.86 16.7 26.86 16.73 26.91L16.78 26.91L16.83 27.01L16.91 27.01L16.94 27.12L17.01 27.12L17.04 27.22L17.12 27.22L17.15 27.33L17.33 27.33L17.36 27.43L17.46 27.43L17.49 27.54L17.57 27.54L17.59 27.64L17.67 27.64L17.64 27.93C17.62 27.94 17.59 27.95 17.57 27.96L17.54 28.83L17.46 28.83L17.43 29.48L17.36 29.48C17.32 29.66 17.33 29.83 17.33 30.01L17.25 30.01C17.23 30.09 17.22 30.16 17.22 30.24C17.22 30.27 17.22 30.29 17.22 30.32C17.22 30.34 17.22 30.37 17.22 30.39C17.22 30.42 17.22 30.45 17.22 30.47C17.22 30.54 17.22 30.6 17.22 30.66L17.12 30.66L17.12 30.98L17.01 30.98L17.01 31.08L16.91 31.08L16.91 31.19L16.7 31.21L16.67 31.29C16.62 31.31 16.62 31.31 16.57 31.32L16.57 31.4L16.36 31.42L16.36 31.53L16.15 31.53L16.15 31.63L15.96 31.63L15.94 31.74L15.81 31.77L15.81 31.84L15.62 31.84L15.6 31.95L15.49 31.98L15.49 32.05C15.43 32.06 15.37 32.07 15.31 32.08L15.28 32.19L15.18 32.21L15.18 32.92L15.28 32.95L15.31 33.08L15.39 33.08L15.39 33.34L15.49 33.37L15.52 33.5L15.6 33.5C15.6 33.54 15.6 33.54 15.59 33.58C15.6 33.68 15.61 33.73 15.65 33.81L15.7 33.81L15.73 34L15.83 34.02L15.83 34.21L15.94 34.23L15.96 34.36L16.02 34.36L16.04 34.55L16.15 34.57L16.15 34.78L16.25 34.78L16.25 34.99L16.36 35.02C16.36 35.06 16.36 35.06 16.36 35.11C16.36 35.2 16.36 35.24 16.41 35.31L16.46 35.31L16.49 35.55L16.57 35.55L16.59 35.76C16.62 35.76 16.65 35.77 16.67 35.78L16.7 35.97C16.73 35.97 16.75 35.98 16.78 35.99L16.8 36.2L16.91 36.2L16.91 36.41L17.01 36.41L17.01 36.62L17.12 36.62L17.12 36.83L17.22 36.83L17.25 37.07L17.33 37.07L17.36 37.28L17.43 37.28L17.46 37.41L17.54 37.41L17.57 37.7L17.67 37.7L17.67 37.91C17.7 37.92 17.72 37.93 17.75 37.93L17.78 38.14L17.88 38.14L17.88 38.35L17.99 38.35L17.99 38.59L18.09 38.59L18.09 38.8L18.2 38.8C18.2 38.85 18.2 38.85 18.19 38.9C18.19 38.98 18.2 39.04 18.22 39.12L18.3 39.12L18.33 39.33L18.43 39.33L18.43 39.46L18.51 39.46L18.54 39.64C18.56 39.65 18.59 39.66 18.62 39.67C18.64 39.72 18.64 39.72 18.64 39.77L18.75 39.77L18.75 39.88L18.85 39.88L18.85 39.98L18.96 39.98L18.96 40.09L19.06 40.09L19.06 40.19L19.17 40.19L19.17 40.3C19.19 40.3 19.19 40.3 19.22 40.31C19.24 40.31 19.25 40.32 19.27 40.32L19.3 40.4C19.32 40.41 19.35 40.42 19.38 40.43L19.4 40.51C19.46 40.52 19.52 40.52 19.59 40.53L19.61 40.64L19.72 40.64L19.72 40.74L19.85 40.74L19.85 40.85L20.03 40.85L20.03 40.95L20.24 40.98L20.24 41.06L20.37 41.06L20.37 41.16L20.58 41.16L20.58 41.27L20.87 41.29L20.9 41.37L21.11 41.4L21.14 41.48C21.23 41.52 21.33 41.51 21.42 41.5L21.42 41.61L21.74 41.61L21.74 41.71L22.08 41.71L22.08 41.82L22.4 41.85L22.4 41.92L22.71 41.95L22.71 42.03L23.13 42.06L23.16 42.13L23.5 42.16L23.5 42.24C23.56 42.25 23.62 42.26 23.68 42.27L23.68 42.45L23.6 42.45L23.6 42.55L23.5 42.58L23.47 42.76L23.37 42.79L23.37 42.87L23.26 42.9L23.26 43L23.16 43L23.16 43.11L23.05 43.13L23.05 43.21L22.95 43.24L22.95 43.32L22.63 43.32L22.61 43.21L22.53 43.21L22.53 43.03L22.42 43L22.4 42.87L22.32 42.87L22.29 42.71L22.19 42.69L22.16 42.55L21.98 42.55L21.95 42.45C21.92 42.46 21.9 42.47 21.87 42.48L21.87 42.55L21.74 42.58L21.74 42.66C21.71 42.67 21.69 42.68 21.66 42.69C21.63 42.76 21.63 42.84 21.63 42.92C21.63 42.94 21.63 42.96 21.63 42.99C21.63 43.01 21.63 43.04 21.63 43.06C21.63 43.08 21.63 43.11 21.63 43.13C21.63 43.2 21.63 43.26 21.63 43.32L21.53 43.34L21.53 43.53L21.42 43.55L21.42 43.66L21.32 43.68L21.32 43.76L21.21 43.79L21.21 43.87L21.11 43.89L21.11 43.97L21 44L21 44.08L20.87 44.1L20.87 44.18L20.77 44.21L20.77 44.29L20.66 44.31L20.66 44.39L20.56 44.42L20.56 44.5L20.48 44.5L20.48 44.6L20.35 44.63L20.35 44.71L20.14 44.73L20.14 44.81L20.06 44.81L20.03 43.11C20.01 43.1 19.98 43.09 19.95 43.08L19.93 42.45L19.82 42.45L19.82 42.13L19.72 42.13L19.72 42L19.61 42L19.61 41.79L19.51 41.79L19.51 41.69L19.4 41.69L19.4 41.58L19.3 41.58L19.27 41.37C19.21 41.36 19.15 41.36 19.09 41.35L19.06 41.16L18.85 41.14L18.85 41.03L18.75 41.03L18.75 40.93L18.64 40.93L18.64 40.82L18.54 40.82L18.54 40.72L18.41 40.72L18.41 40.61L18.3 40.61L18.3 40.51L18.22 40.51L18.2 40.4L18.12 40.4L18.09 40.3L18.01 40.3L17.99 40.17L17.91 40.17L17.88 40.06L17.8 40.06L17.78 39.88C17.75 39.87 17.72 39.86 17.7 39.85L17.67 39.67L17.57 39.64L17.57 39.46L17.46 39.43L17.46 39.22C17.43 39.21 17.41 39.2 17.38 39.19L17.36 38.8L17.25 38.77L17.25 38.35L17.15 38.33L17.15 38.04C17.02 37.99 16.94 37.99 16.8 38.01L16.8 38.12L16.7 38.12L16.7 38.22L16.59 38.25C16.59 38.29 16.59 38.29 16.59 38.34C16.58 38.44 16.58 38.44 16.51 38.47C16.5 38.48 16.48 38.48 16.46 38.49L16.46 38.56C16.44 38.57 16.41 38.58 16.38 38.59L16.36 38.77L16.25 38.8L16.25 38.98L16.15 39.01L16.15 39.09L16.04 39.12L16.04 39.3L15.94 39.33L15.91 39.51C15.89 39.52 15.86 39.53 15.83 39.54L15.81 39.72C15.78 39.73 15.76 39.74 15.73 39.75L15.7 39.96L15.6 39.98L15.6 40.17L15.49 40.19L15.49 40.4L15.39 40.43L15.39 41.03L15.28 41.06C15.28 41.26 15.28 41.46 15.28 41.66C15.28 41.73 15.28 41.8 15.28 41.86C15.28 41.96 15.28 42.06 15.28 42.16C15.28 42.19 15.28 42.22 15.28 42.25L15.28 42.34C15.28 42.37 15.28 42.37 15.28 42.41C15.28 42.48 15.28 42.48 15.31 42.55L15.39 42.55C15.39 42.6 15.39 42.6 15.39 42.65C15.38 42.69 15.38 42.73 15.38 42.77C15.38 42.79 15.38 42.81 15.38 42.83C15.38 43.02 15.38 43.02 15.44 43.11L15.49 43.11L15.49 43.4L15.6 43.45L15.6 43.63C15.62 43.64 15.62 43.64 15.65 43.64C15.71 43.68 15.71 43.68 15.71 43.73C15.72 43.79 15.73 43.84 15.73 43.89L15.81 43.89L15.83 44.1L15.91 44.1L15.94 44.31L16.04 44.31L16.04 44.52L16.15 44.52L16.15 44.73L16.25 44.73L16.25 44.94L16.36 44.94L16.38 45.08L16.46 45.08L16.49 45.29L16.59 45.29L16.59 45.39L16.7 45.39L16.7 45.5L16.78 45.5L16.8 45.63L16.88 45.63L16.91 45.81L17.01 45.81L17.01 45.94L17.12 45.94L17.12 46.05L17.22 46.05L17.22 46.15L17.33 46.15L17.36 46.36L17.43 46.36L17.43 47.12L17.36 47.12C17.33 47.32 17.33 47.51 17.33 47.7C17.33 47.75 17.33 47.75 17.33 47.79C17.33 47.87 17.33 47.94 17.33 48.02L17.25 48.02C17.22 48.17 17.22 48.33 17.22 48.49C17.22 48.51 17.22 48.54 17.22 48.56C17.22 48.63 17.22 48.69 17.22 48.75L17.12 48.75L17.12 49.51L17.01 49.51L16.99 50.14C16.96 50.15 16.94 50.16 16.91 50.17L16.91 50.69L16.8 50.69L16.8 51.11L16.91 51.11L16.91 51.24L17.01 51.24L17.01 51.35L17.12 51.35L17.12 51.45L17.22 51.45L17.22 51.56L17.33 51.56L17.33 51.66L17.43 51.66L17.43 51.77L17.57 51.77L17.57 51.87L17.67 51.87L17.67 51.98C17.73 51.99 17.79 52 17.85 52.01L17.88 52.11L17.99 52.11L17.99 52.22L18.09 52.22L18.09 52.32L18.22 52.32L18.22 52.43L18.41 52.43L18.41 52.53C18.42 52.53 18.44 52.54 18.46 52.54C18.47 52.54 18.49 52.55 18.51 52.56L18.54 52.64L18.64 52.64L18.64 52.74L18.75 52.74L18.75 52.85L18.85 52.85L18.85 52.95L19.06 52.98L19.06 53.08L19.17 53.08L19.17 53.19L19.27 53.19L19.3 53.29L19.4 53.29L19.4 53.4L19.51 53.4L19.51 53.5L19.72 53.5L19.72 53.61L19.82 53.61L19.82 53.71L19.93 53.71L19.93 53.82L20.14 53.84L20.16 53.95L20.24 53.95L20.27 54.05L20.37 54.05L20.37 54.16L20.48 54.16L20.48 54.26L20.56 54.26L20.58 54.47L20.66 54.47L20.69 54.6L20.77 54.6L20.77 54.79L20.87 54.81C20.87 54.86 20.87 54.86 20.87 54.91C20.87 54.99 20.87 55.06 20.9 55.13L20.98 55.13L21 55.34L21.08 55.34L21.11 55.47L21.21 55.47L21.21 55.55L21.45 55.55L21.45 55.44L21.66 55.44L21.66 55.37C21.74 55.36 21.82 55.35 21.9 55.34L21.9 55.23L22.32 55.23L22.32 55.13L22.63 55.13L22.63 55.02L22.84 55.02L22.84 54.92C22.86 54.92 22.87 54.92 22.89 54.92C22.92 54.92 22.92 54.92 22.95 54.92C22.97 54.92 23 54.92 23.02 54.92C23.08 54.92 23.13 54.91 23.18 54.89L23.18 54.81L23.39 54.79L23.39 54.6L23.29 54.6L23.29 54.47L23.18 54.47L23.18 54.37L23.08 54.37L23.08 54.26L22.95 54.26L22.95 54.16L22.84 54.16L22.84 54.05L22.66 54.05L22.66 53.95L22.53 53.95L22.53 53.84L22.42 53.84L22.42 53.74L22.32 53.74L22.29 53.61L22.21 53.61L22.19 53.5L22.11 53.5L22.08 53.4L21.98 53.4L21.98 53.29L21.87 53.29L21.87 53.19L21.77 53.19L21.77 53.08L21.66 53.08L21.66 52.98L21.56 52.98L21.56 52.87L21.45 52.87L21.45 52.77L21.35 52.77L21.32 52.64L21.24 52.64L21.21 52.53L21.11 52.53L21.11 52.43L21 52.43L21 52.32L20.9 52.32L20.9 52.22L20.79 52.22L20.79 52.11L20.69 52.11L20.69 52.01L20.58 52.01L20.58 51.9L20.48 51.9L20.45 51.77L20.37 51.77L20.35 51.66L20.24 51.66L20.24 51.56L20.14 51.56L20.14 51.45L20.03 51.45L20.03 51.35L19.93 51.35L19.93 51.24L19.82 51.24L19.82 51.14L19.72 51.14L19.72 51.03C19.7 51.03 19.68 51.03 19.67 51.03C19.65 51.02 19.63 51.01 19.61 51.01L19.59 50.93C19.56 50.92 19.54 50.91 19.51 50.9C19.49 50.85 19.49 50.85 19.48 50.8L19.38 50.8L19.38 50.69L19.27 50.69L19.27 50.59L19.38 50.59C19.38 50.56 19.38 50.56 19.39 50.54C19.39 50.52 19.4 50.5 19.4 50.48C19.43 50.47 19.46 50.47 19.48 50.46L19.51 50.38C19.56 50.36 19.56 50.36 19.61 50.35L19.61 50.25L19.72 50.25L19.72 50.14L19.82 50.14L19.82 50.04L19.93 50.04L19.93 49.93L20.03 49.93L20.03 49.83L20.14 49.83L20.14 49.62L20.24 49.62L20.24 49.51L20.37 49.49L20.37 49.38L20.48 49.38L20.48 49.28L20.58 49.28L20.58 49.07L20.69 49.07L20.69 48.96L20.79 48.96L20.79 48.75L20.9 48.75L20.93 48.54L21 48.54L21 48.41L21.11 48.41L21.11 48.2L21.21 48.2L21.24 47.99L21.32 47.99C21.35 47.88 21.35 47.78 21.35 47.67L21.45 47.67L21.45 47.44L21.56 47.44L21.56 47.12L21.66 47.12L21.66 46.91L21.77 46.91L21.79 46.6C21.82 46.59 21.84 46.58 21.87 46.57L21.9 46.26L21.98 46.26L21.98 46.05L22.08 46.05L22.11 45.84L22.21 45.81L22.21 45.73L22.42 45.71L22.42 45.6L22.53 45.6L22.53 45.5L22.66 45.5L22.66 45.42C22.72 45.41 22.78 45.4 22.84 45.39L22.84 45.29L22.97 45.29L22.97 45.18L23.16 45.18L23.18 45.08L23.29 45.05L23.29 44.97L23.39 44.94L23.39 44.87C23.45 44.86 23.51 44.85 23.58 44.84L23.6 44.73L23.73 44.71L23.73 44.63L23.92 44.63L23.92 44.52L24.02 44.52L24.02 44.42L24.23 44.42L24.23 44.31L24.34 44.31L24.34 44.21L24.55 44.18L24.57 44.1C24.63 44.08 24.63 44.08 24.68 44.08L24.68 44C24.74 43.99 24.8 43.98 24.86 43.97L24.89 43.89C24.94 43.87 24.94 43.87 24.99 43.87L24.99 43.76L25.2 43.76L25.2 43.66L25.41 43.66L25.41 43.55L25.55 43.55L25.55 43.45L25.76 43.45L25.76 43.34L25.97 43.32L25.99 43.24C26.02 43.23 26.04 43.22 26.07 43.21L26.07 43.13L26.28 43.11L26.31 43.03C26.36 43.01 26.36 43.01 26.41 43L26.41 42.92L26.62 42.9L26.62 42.79L26.83 42.79L26.83 42.69L26.94 42.69L26.94 42.58L27.15 42.58L27.15 42.48L27.36 42.48L27.36 42.37L27.57 42.35L27.59 42.27C27.65 42.25 27.65 42.25 27.7 42.24L27.7 42.16L27.91 42.14L27.93 42.06L28.14 42.03L28.14 41.93L28.35 41.93L28.35 41.82L28.56 41.82L28.56 41.72L28.77 41.72L28.77 41.61L28.98 41.61L29.01 41.51C29.04 41.51 29.07 41.51 29.1 41.51C29.19 41.51 29.19 41.51 29.27 41.48L29.27 41.4C29.35 41.39 29.43 41.38 29.51 41.37L29.51 41.3L29.72 41.27L29.75 41.19L30.06 41.16L30.06 41.09L30.17 41.09L30.17 41.16L30.38 41.16L30.38 41.27C30.39 41.27 30.41 41.27 30.43 41.28C30.44 41.28 30.46 41.29 30.48 41.3L30.51 41.37C30.53 41.38 30.56 41.39 30.59 41.4L30.61 41.48C30.64 41.49 30.66 41.5 30.69 41.51C30.71 41.56 30.71 41.56 30.72 41.61L30.93 41.61L30.93 41.72L31.03 41.72L31.03 41.82L31.14 41.82L31.14 41.93L31.24 41.93L31.24 42.03L31.35 42.03L31.35 42.14C31.36 42.14 31.38 42.14 31.4 42.14C31.42 42.15 31.43 42.16 31.45 42.16L31.48 42.24C31.5 42.25 31.53 42.26 31.56 42.27L31.58 42.35C31.61 42.35 31.64 42.36 31.66 42.37C31.68 42.42 31.68 42.42 31.69 42.48L31.85 42.48L31.87 42.58L31.98 42.58L32 42.69L32.08 42.69L32.11 42.79L32.19 42.79L32.21 42.9L32.29 42.9C32.29 42.91 32.3 42.93 32.3 42.95C32.31 42.97 32.31 42.97 32.32 43C32.34 43.01 32.37 43.02 32.4 43.03L32.42 43.11C32.45 43.11 32.48 43.12 32.5 43.13C32.52 43.19 32.52 43.19 32.53 43.24L32.63 43.24L32.63 43.34L32.74 43.34L32.74 43.45L32.84 43.45L32.84 43.55L32.95 43.55L32.95 43.66C32.97 43.66 32.98 43.66 33 43.67C33.02 43.67 33.04 43.68 33.05 43.68L33.08 43.76L33.18 43.76L33.18 43.87L33.29 43.87L33.29 43.97C33.35 43.98 33.41 43.99 33.47 44L33.5 44.1L33.6 44.1L33.6 44.21L33.71 44.21L33.71 44.31L33.81 44.31L33.81 44.42L33.92 44.42L33.92 44.52L34.02 44.52L34.02 44.63L34.13 44.63L34.13 44.73L34.23 44.76L34.26 44.87L34.37 44.87L34.37 44.97L34.47 44.97L34.47 45.08L34.58 45.08L34.58 45.18L34.68 45.18L34.68 45.29L34.79 45.29L34.79 45.39L34.89 45.39L34.92 45.52L35 45.52L35.02 45.63L35.1 45.63L35.13 45.73L35.21 45.73L35.23 45.92L35.34 45.92L35.34 46.05L35.44 46.05L35.44 46.15L35.55 46.15L35.55 46.26L35.65 46.26L35.65 46.36L35.76 46.36L35.76 46.47L35.86 46.47L35.89 46.68L35.99 46.68L35.99 46.78C36.02 46.79 36.05 46.8 36.07 46.81C36.09 46.86 36.09 46.86 36.1 46.91L36.2 46.91L36.2 47.02L36.31 47.02L36.31 47.23L36.41 47.23L36.41 47.33L36.52 47.33L36.52 47.44L36.62 47.44L36.65 47.57L36.73 47.57L36.75 47.75C36.78 47.76 36.81 47.77 36.83 47.78C36.85 47.83 36.85 47.83 36.86 47.88L36.96 47.88L36.96 47.99L37.07 47.99L37.07 48.12L37.15 48.12C37.16 48.21 37.16 48.21 37.17 48.3L37.25 48.3C37.26 48.32 37.26 48.34 37.26 48.35C37.27 48.37 37.27 48.39 37.28 48.41C37.31 48.42 37.33 48.43 37.36 48.44C37.37 48.53 37.37 48.53 37.38 48.62C37.41 48.63 37.44 48.64 37.46 48.65C37.48 48.74 37.48 48.74 37.49 48.83L37.59 48.86L37.59 49.07L37.7 49.07L37.7 49.28L37.8 49.28L37.8 49.41C37.99 49.41 38.17 49.41 38.36 49.38L38.36 49.28L38.57 49.28L38.57 49.17L38.8 49.17L38.8 49.07L39.12 49.07L39.12 48.96L39.33 48.96L39.33 48.86L39.56 48.86L39.56 48.75L39.88 48.75L39.88 48.65C39.91 48.65 39.94 48.65 39.97 48.65C40.06 48.65 40.06 48.65 40.09 48.62C40.09 48.57 40.09 48.52 40.09 48.47C40.09 48.45 40.09 48.42 40.09 48.39C40.09 48.37 40.09 48.35 40.09 48.33L39.98 48.33L39.98 48.23L39.77 48.2L39.77 48.09L39.67 48.09L39.67 47.99L39.54 47.99L39.54 47.88L39.43 47.88L39.43 47.78L39.22 47.75L39.2 47.65L39.12 47.65L39.09 47.54L39.01 47.54L39.01 47.44L38.91 47.44L38.91 47.33L38.8 47.33L38.8 47.23L38.7 47.23L38.7 47.12L38.59 47.1C38.58 47.01 38.58 47.01 38.57 46.91L38.46 46.91L38.43 46.78L38.36 46.78L38.33 46.68L38.25 46.68L38.22 46.55L38.15 46.55L38.15 46.39L38.04 46.36L38.01 46.23L37.94 46.23L37.91 46.13L37.83 46.13L37.8 46.02L37.73 46.02L37.7 45.92L37.62 45.92C37.61 45.82 37.61 45.82 37.59 45.73L37.49 45.71L37.46 45.6L37.38 45.6L37.36 45.47L37.28 45.47L37.25 45.36L37.17 45.36L37.17 45.26L37.07 45.26L37.07 45.08L36.94 45.05L36.94 44.94L36.83 44.94L36.81 44.81L36.75 44.81L36.73 44.71L36.65 44.71L36.62 44.52L36.52 44.5L36.52 44.39L36.41 44.39L36.41 44.29L36.31 44.29L36.28 44.08C36.26 44.07 36.23 44.06 36.2 44.05L36.18 43.97L36.1 43.97L36.1 43.87L35.99 43.84L35.97 43.74L35.86 43.74L35.86 43.55C35.84 43.54 35.81 43.54 35.78 43.53C35.76 43.47 35.76 43.47 35.76 43.42L35.65 43.42L35.65 43.32L35.55 43.32L35.55 43.21L35.44 43.21L35.44 43L35.34 43L35.31 42.87L35.23 42.87L35.21 42.77L35.13 42.77L35.1 42.56L35 42.56L35 42.45L34.92 42.45L34.89 42.35L34.81 42.35L34.79 42.14L34.71 42.14L34.68 42.03L34.6 42.03L34.58 41.9L34.5 41.9L34.47 41.72C34.44 41.71 34.42 41.7 34.39 41.69C34.37 41.64 34.37 41.64 34.37 41.58L34.26 41.58L34.23 41.45L34.18 41.45C34.16 41.36 34.16 41.36 34.13 41.27L34.05 41.27L34.02 41.14L33.95 41.14L33.92 41.03L33.84 41.03L33.84 40.85L33.74 40.82L33.71 40.72L33.63 40.72L33.6 40.61L33.53 40.61L33.5 40.43L33.39 40.4L33.37 40.27L33.29 40.27L33.26 40.17L33.21 40.17L33.18 39.98L33.08 39.96L33.08 39.85L32.97 39.85L32.95 39.72L32.87 39.72L32.87 39.46L32.76 39.43L32.76 39.12L32.87 39.12L32.87 39.01L32.97 39.01L32.97 38.8L33.08 38.8L33.08 38.67L33.18 38.67L33.18 38.57L33.29 38.57L33.29 38.46L33.42 38.46L33.42 38.36L33.6 38.36L33.63 38.28L33.95 38.25L33.95 38.15L34.44 38.15L34.47 38.04L34.89 38.04L34.89 37.93C34.91 37.94 34.93 37.94 34.96 37.94C35.12 37.94 35.28 37.93 35.44 37.91L35.44 37.83L35.99 37.8L35.99 37.73L36.31 37.7L36.31 37.59C36.52 37.6 36.72 37.61 36.94 37.62L36.94 37.7L37.04 37.73L37.07 37.83L37.15 37.83L37.17 37.93L37.25 37.93L37.28 38.04L37.36 38.04L37.38 38.15L37.46 38.15L37.49 38.25L37.59 38.25L37.62 38.36L37.7 38.36L37.72 38.46L37.8 38.46L37.83 38.57L37.91 38.57L37.91 38.67L38.01 38.67L38.01 38.78L38.12 38.78C38.13 38.84 38.13 38.84 38.14 38.91L38.22 38.91L38.25 39.01L38.35 39.01L38.35 39.12L38.46 39.12L38.46 39.22C38.52 39.23 38.58 39.24 38.64 39.25L38.67 39.33L38.77 39.33L38.77 39.46L38.88 39.46L38.88 39.64L38.77 39.67L38.77 39.75L38.67 39.77L38.67 39.85L38.56 39.88L38.56 39.96L38.46 39.98L38.46 40.06C38.44 40.06 38.43 40.07 38.41 40.07C38.39 40.08 38.37 40.08 38.35 40.09C38.34 40.13 38.34 40.13 38.33 40.17C38.28 40.2 38.28 40.2 38.22 40.22L38.22 40.3L38.12 40.32L38.12 40.64L38.22 40.64L38.22 40.74L38.33 40.74L38.33 40.85L38.46 40.85L38.46 40.95L38.67 40.95L38.67 41.06L38.77 41.06L38.77 41.16L38.98 41.16L38.98 41.27L39.19 41.3L39.19 41.37C39.27 41.38 39.35 41.39 39.43 41.4L39.43 41.48C39.52 41.51 39.59 41.51 39.69 41.51C39.72 41.51 39.75 41.51 39.78 41.51C39.8 41.51 39.83 41.51 39.85 41.51L39.88 41.37L39.98 41.35L39.98 41.06L40.09 41.03L40.11 40.53C40.14 40.53 40.17 40.52 40.19 40.51L40.22 40.09C40.24 40.08 40.27 40.07 40.3 40.06C40.31 39.76 40.31 39.76 40.32 39.46L40.38 39.46C40.39 39.34 40.39 39.34 40.4 39.22L40.3 39.2L40.3 39.01L40.19 38.99L40.19 38.8L40.09 38.78C40.07 38.71 40.07 38.71 40.06 38.64L40.01 38.64L39.96 38.46L39.88 38.46C39.86 38.4 39.86 38.4 39.85 38.33L39.77 38.33L39.75 38.22L39.67 38.22L39.64 38.12L39.56 38.12L39.54 37.93L39.43 37.91L39.4 37.8L39.33 37.8L39.3 37.7L39.22 37.7C39.21 37.63 39.21 37.63 39.19 37.57L39.14 37.57L39.12 37.38L39.01 37.36L39.01 37.25L38.91 37.25L38.91 37.15L38.8 37.15L38.77 36.96L38.67 36.94L38.67 36.83L38.56 36.83L38.56 36.73C38.54 36.72 38.51 36.71 38.49 36.7C38.47 36.65 38.47 36.65 38.46 36.6L38.35 36.6L38.35 36.49L38.28 36.49L38.25 36.28L38.14 36.28L38.14 36.18L38.04 36.18L38.04 36.07L37.93 36.07L37.93 35.97L37.83 35.97C37.82 35.9 37.82 35.9 37.8 35.84L37.72 35.84L37.7 35.73L37.62 35.73L37.59 35.63L37.49 35.63L37.49 35.52L37.38 35.52L37.38 35.41L36.62 35.41L36.62 35.52C36.6 35.52 36.59 35.52 36.57 35.52C36.39 35.52 36.21 35.52 36.03 35.52C35.97 35.52 35.9 35.52 35.83 35.52C35.74 35.52 35.64 35.52 35.55 35.52C35.52 35.52 35.49 35.52 35.46 35.52L35.37 35.52C35.35 35.52 35.32 35.52 35.3 35.52C35.24 35.52 35.18 35.53 35.13 35.55L35.13 35.63C35.11 35.62 35.09 35.62 35.08 35.62C35.01 35.62 34.93 35.62 34.86 35.62C34.84 35.62 34.81 35.62 34.79 35.62C34.64 35.62 34.51 35.63 34.36 35.65L34.36 35.73L34.05 35.73L34.02 35.63L33.94 35.63L33.97 34.13C34 34.12 34.02 34.11 34.05 34.1C34.05 33.97 34.05 33.84 34.05 33.71L34.05 33.58C34.05 33.51 34.05 33.45 34.05 33.39C34.05 33.36 34.05 33.36 34.05 33.33C34.05 33.28 34.05 33.23 34.05 33.18C34.02 33.16 34.02 33.16 33.92 33.15C33.88 33.15 33.83 33.15 33.78 33.15C33.76 33.15 33.74 33.16 33.71 33.16C33.64 33.16 33.56 33.16 33.48 33.16C33.43 33.16 33.38 33.16 33.33 33.16C33.2 33.16 33.07 33.16 32.95 33.16L32.95 33.24L30.9 33.24L30.9 33.16C30.66 33.15 30.41 33.14 30.16 33.13L30.16 33.05L29.74 33.03L29.74 32.95C29.64 32.92 29.55 32.92 29.45 32.92C29.42 32.92 29.39 32.92 29.36 32.92C29.33 32.92 29.33 32.92 29.3 32.92L29.3 32.84C29.21 32.81 29.12 32.81 29.03 32.81C29 32.81 28.97 32.82 28.95 32.82C28.92 32.82 28.9 32.82 28.88 32.82L28.85 32.71L28.56 32.71L28.54 32.61L28.33 32.61L28.3 32.5L28.14 32.5L28.14 32.4C28.12 32.39 28.12 32.39 28.09 32.39C28.08 32.38 28.06 32.38 28.04 32.37L28.01 32.29C27.99 32.28 27.96 32.27 27.93 32.27C27.92 32.21 27.92 32.21 27.91 32.16L27.8 32.16L27.8 31.95L27.7 31.95L27.7 31.56L27.99 31.56L28.01 31.64L28.22 31.66L28.22 31.74C28.33 31.77 28.43 31.77 28.54 31.77L28.54 31.87L28.88 31.87L28.88 31.98L29.3 32L29.3 32.08L29.83 32.11L29.83 32.19L30.48 32.21L30.48 32.29C31.3 32.32 31.3 32.32 31.69 32.32L31.69 32.4L31.77 32.4L31.77 32.32L31.98 32.32L32 32.4L32.45 32.4L32.45 32.32C32.48 32.32 32.51 32.32 32.54 32.32C32.96 32.32 33.39 32.31 33.82 32.29L33.84 32.19L33.95 32.16L33.95 32.08L34.05 32.06L34.05 31.87L34.16 31.85L34.18 31.56C34.21 31.55 34.24 31.54 34.26 31.53C34.29 31.42 34.29 31.31 34.28 31.19C34.28 31.18 34.27 31.16 34.27 31.14C34.27 31.09 34.27 31.05 34.26 31.01L34.16 30.98L34.16 30.87L34.05 30.87L34.03 30.77L33.95 30.77L33.95 30.66L33.74 30.66L33.74 30.56L33.63 30.56L33.63 30.45L33.42 30.43L33.42 30.35C33.4 30.35 33.4 30.35 33.37 30.34C33.35 30.33 33.34 30.33 33.32 30.32L33.29 30.24L33.08 30.22L33.08 30.11L32.98 30.11L32.98 30.01L32.87 30.01L32.87 29.9L32.77 29.9L32.77 29.8L32.66 29.8L32.64 29.67L32.56 29.67L32.53 29.56L32.45 29.56L32.43 29.35L32.32 29.35L32.32 29.25L32.22 29.25L32.22 29.04L32.11 29.04L32.11 28.83L32.01 28.83L32.01 28.49L31.9 28.49L31.9 28.07L31.8 28.04L31.8 27.99L31.87 27.99L31.9 27.78L32.19 27.78L32.22 28.17C32.24 28.18 32.27 28.19 32.29 28.2L32.32 28.49L32.43 28.51L32.43 28.72C32.45 28.73 32.48 28.74 32.5 28.75L32.53 28.93L32.64 28.96L32.64 29.14L32.74 29.17L32.77 29.27L32.85 29.27L32.87 29.38L32.95 29.38L32.98 29.48L33.06 29.48L33.08 29.59L33.16 29.59L33.19 29.69L33.29 29.69L33.32 29.8L33.4 29.8L33.42 29.9C33.48 29.91 33.54 29.92 33.61 29.93L33.61 30.03L33.71 30.03L33.74 30.14L33.92 30.14L33.92 30.24L34.13 30.24L34.13 30.35L34.34 30.38L34.37 30.45L34.58 30.45L34.58 30.56L34.79 30.59L34.79 30.66C34.87 30.67 34.94 30.68 35.02 30.69L35.02 30.77C35.1 30.79 35.15 30.8 35.23 30.8C35.25 30.8 35.27 30.8 35.29 30.8C35.31 30.8 35.31 30.8 35.34 30.8L35.34 30.9L35.55 30.9L35.55 31.01L35.68 31.01L35.68 31.11L35.79 31.11L35.79 31.22C35.85 31.22 35.91 31.23 35.97 31.24L36 31.35L36.07 31.35L36.1 31.56L36.21 31.56L36.21 31.74L36.31 31.74L36.31 31.87L36.41 31.87L36.41 31.98L36.52 31.98L36.52 32.08L36.62 32.08L36.62 32.19L36.84 32.21L36.84 32.29L37.39 32.29L37.39 32.21L37.7 32.19C37.72 32.1 37.73 32.04 37.73 31.96C37.73 31.94 37.73 31.91 37.73 31.89C37.73 31.88 37.73 31.86 37.73 31.85L37.62 31.85L37.62 31.74L37.49 31.74L37.49 31.64L37.28 31.61L37.28 31.53L37.18 31.53L37.18 31.43L37.07 31.43C37.06 31.36 37.06 31.36 37.05 31.29L36.97 31.29L36.94 31.08L36.84 31.08L36.84 30.87L36.73 30.87L36.73 30.66L36.62 30.66L36.62 30.45L36.52 30.45L36.52 30.32L36.41 30.32L36.41 30.11L36.31 30.11L36.31 30.01L36.21 30.01L36.18 29.8C36.15 29.79 36.13 29.78 36.1 29.77L36.07 29.69L36 29.69L35.97 29.56L35.89 29.56L35.86 29.46L35.79 29.46L35.76 29.35L35.68 29.35L35.65 29.14L35.44 29.14L35.44 29.04L35.34 29.04L35.34 28.93L35.23 28.93L35.23 28.83L35.13 28.83L35.13 28.72C35.1 28.72 35.1 28.72 35.08 28.71C35.06 28.71 35.04 28.7 35.02 28.7L35 28.62C34.97 28.61 34.95 28.6 34.92 28.59L34.89 28.51L34.81 28.51L34.79 28.38L34.71 28.38L34.68 28.28L34.6 28.28L34.6 28.09L34.5 28.07L34.47 27.88C34.45 27.87 34.42 27.86 34.39 27.86C34.39 27.84 34.39 27.82 34.38 27.8C34.38 27.79 34.37 27.77 34.37 27.75C34.34 27.74 34.32 27.73 34.29 27.72L34.26 27.33C34.24 27.32 34.21 27.31 34.18 27.3L34.18 26.04C34.21 26.04 34.24 26.03 34.26 26.02C34.26 25.99 34.26 25.96 34.26 25.93C34.27 25.89 34.27 25.85 34.27 25.81C34.27 25.79 34.27 25.77 34.27 25.75C34.27 25.69 34.27 25.69 34.29 25.6C34.34 25.56 34.34 25.56 34.39 25.55L34.39 25.39L34.5 25.36L34.5 25.26L34.6 25.23L34.6 25.15L34.71 25.13L34.71 25.05L34.89 25.05L34.89 24.94L35 24.94L35.02 24.86C35.08 24.85 35.14 24.85 35.21 24.84L35.21 24.73L35.44 24.73L35.44 24.63L35.65 24.6L35.65 24.52L35.86 24.5L35.89 24.42C35.95 24.41 36.01 24.4 36.07 24.39L36.1 24.31C36.15 24.29 36.15 24.29 36.21 24.29L36.21 24.18L36.41 24.18L36.41 24.08L36.52 24.08L36.52 23.97L36.65 23.94L36.65 23.87L36.73 23.87L36.73 23.76L36.84 23.73L36.84 23.52L36.94 23.5L36.97 23.18L37.05 23.18C37.08 23.08 37.07 22.98 37.07 22.87L37.18 22.87L37.18 22.45L37.07 22.42L37.07 22.32L36.97 22.32L36.94 22.21L36.41 22.21L36.41 22.13C36.3 22.1 36.2 22.1 36.08 22.1L36.01 22.1C35.93 22.1 35.86 22.1 35.78 22.1C35.73 22.1 35.68 22.1 35.62 22.1C35.51 22.1 35.4 22.1 35.29 22.1C35.15 22.1 35 22.1 34.86 22.1C34.75 22.1 34.64 22.1 34.53 22.1C34.48 22.1 34.43 22.1 34.37 22.1C34.3 22.1 34.23 22.1 34.15 22.1C34.12 22.1 34.12 22.1 34.09 22.1C33.99 22.1 33.91 22.11 33.82 22.13L33.82 22.21L33.5 22.21L33.48 22.32C33.44 22.32 33.44 22.32 33.39 22.31C33.31 22.32 33.24 22.32 33.16 22.34L33.16 22.42L32.85 22.45L32.85 22.55L32.61 22.55L32.61 22.63C32.55 22.64 32.49 22.65 32.43 22.66L32.4 22.74L32.19 22.76L32.19 22.87L31.98 22.87L31.98 22.97L31.8 22.97L31.77 23.08C31.71 23.09 31.65 23.1 31.59 23.1L31.59 23.18L31.38 23.21L31.35 23.29C31.3 23.31 31.3 23.31 31.25 23.31L31.25 23.42L31.14 23.42L31.14 23.5L30.93 23.52L30.93 23.63L30.83 23.63L30.83 23.73L30.72 23.73L30.72 23.84L30.51 23.84L30.51 23.94L30.38 23.97L30.38 24.08L30.27 24.08L30.27 24.18L30.17 24.18L30.17 24.29L30.06 24.29L30.06 24.39L29.96 24.39L29.96 24.5L29.85 24.5L29.85 24.6L29.75 24.6L29.75 24.71L29.62 24.71L29.62 24.81L29.51 24.81L29.51 24.92L29.41 24.94L29.41 25.05L29.3 25.05L29.3 25.15L29.2 25.15L29.17 25.34C29.15 25.34 29.12 25.35 29.09 25.36L29.09 25.47L28.99 25.47L28.99 25.57L28.88 25.57L28.86 25.78L28.75 25.81L28.75 25.89L28.65 25.91L28.65 26.1L28.54 26.1L28.54 26.23L28.44 26.23L28.44 26.33L28.33 26.33L28.33 26.54L28.23 26.54L28.2 26.75L28.12 26.75C28.12 26.77 28.12 26.79 28.11 26.8C28.1 26.83 28.1 26.83 28.1 26.86C28.07 26.87 28.04 26.88 28.02 26.88L27.99 27.07C27.96 27.08 27.94 27.09 27.91 27.09L27.89 27.3L27.78 27.3L27.78 27.51L27.68 27.51L27.68 27.65L27.57 27.65L27.57 27.86L27.47 27.86L27.47 28.17L27.36 28.17L27.33 28.38C27.31 28.39 27.28 28.4 27.26 28.41L27.23 28.7L27.15 28.7L27.12 28.93L27.05 28.93L27.02 29.14C26.99 29.15 26.97 29.16 26.94 29.17C26.9 29.26 26.91 29.36 26.91 29.46L26.81 29.48L26.81 29.59C26.75 29.58 26.69 29.57 26.63 29.56C26.63 29.51 26.63 29.51 26.63 29.46C26.63 29.39 26.62 29.34 26.6 29.27L26.52 29.27L26.49 29.04L26.42 29.04L26.39 28.8L26.31 28.8L26.28 28.59L26.21 28.59L26.18 28.28L26.07 28.28L26.07 28.07L25.97 28.07L25.97 27.86L25.86 27.86L25.86 27.72L25.76 27.72L25.76 27.51L25.65 27.51L25.65 27.41L25.55 27.41L25.55 27.3L25.42 27.3L25.42 27.2L25.31 27.2L25.31 27.28L25 27.3L25 27.41L24.79 27.41L24.79 27.51L24.58 27.54L24.58 27.62L24.45 27.65L24.45 27.72L24.13 27.75L24.13 27.86L23.92 27.86L23.92 27.93L23.5 27.96L23.5 27.75L23.61 27.72L23.61 27.65L23.69 27.65L23.69 27.54L23.79 27.54L23.79 27.44L23.9 27.44C23.9 27.41 23.9 27.41 23.9 27.38C23.91 27.37 23.92 27.35 23.92 27.33C23.95 27.32 23.97 27.31 24 27.3L24.03 27.23C24.08 27.21 24.08 27.21 24.13 27.2L24.13 27.09L24.24 27.09L24.26 26.91L24.34 26.91C24.35 26.89 24.35 26.89 24.35 26.86C24.36 26.84 24.36 26.82 24.37 26.81C24.39 26.8 24.42 26.79 24.45 26.78L24.45 26.67L24.55 26.67L24.55 26.46L24.66 26.46C24.66 26.44 24.66 26.44 24.66 26.41C24.67 26.4 24.68 26.38 24.68 26.36C24.71 26.35 24.74 26.34 24.76 26.33L24.79 26.12L24.89 26.12L24.89 25.83L25 25.83L25 25.18L25.1 25.18L25.1 24.29L25.21 24.29L25.23 22.55C25.29 22.56 25.34 22.57 25.39 22.58L25.44 22.66C25.47 22.67 25.5 22.68 25.52 22.68L25.55 22.74C25.72 22.78 25.9 22.8 26.07 22.79L26.07 22.84L26.18 22.84L26.18 22.76L26.31 22.74C26.31 22.52 26.31 22.52 26.28 22.45C26.26 22.44 26.23 22.43 26.21 22.42C26.19 22.37 26.19 22.37 26.18 22.32L26.07 22.32L26.07 22.21L25.97 22.21L25.97 22.11L25.76 22.11L25.76 22L25.65 22L25.65 21.9L25.52 21.9L25.52 21.79L25.42 21.79L25.42 21.69L25.31 21.69L25.31 21.56L25.21 21.56L25.21 21.37C25.18 21.36 25.16 21.35 25.13 21.35C25.11 21.29 25.11 21.29 25.1 21.24L25 21.24L25 21.14L24.89 21.14L24.89 21.03L24.79 21.03L24.79 20.93C24.53 20.91 24.28 20.89 24.03 20.93L24.03 20.82L23.79 20.82L23.84 20.51C23.87 20.5 23.9 20.49 23.92 20.48L23.95 20.3C23.97 20.29 24 20.28 24.03 20.27L24.05 20.09C24.08 20.08 24.11 20.07 24.13 20.06C24.14 20.02 24.15 19.99 24.16 19.95C24.18 19.95 24.21 19.94 24.24 19.93C24.26 19.87 24.27 19.81 24.29 19.74L24.34 19.72C24.35 19.66 24.36 19.6 24.37 19.53C24.39 19.53 24.42 19.52 24.45 19.51C24.45 19.46 24.46 19.41 24.46 19.36C24.46 19.33 24.47 19.3 24.47 19.27C24.47 19.2 24.47 19.15 24.45 19.09L24.24 19.09L24.24 18.98L24.13 18.98L24.13 19.09L24.03 19.09L24.03 19.19L23.92 19.19L23.92 19.3L23.82 19.3L23.79 19.51L23.71 19.51C23.71 19.53 23.71 19.53 23.7 19.56C23.7 19.58 23.69 19.59 23.69 19.61C23.66 19.62 23.63 19.63 23.61 19.64L23.58 19.82C23.55 19.83 23.53 19.84 23.5 19.85L23.48 20.06L23.4 20.06L23.37 20.27L22.98 20.27L22.98 20.16L22.85 20.16L22.85 20.06L22.64 20.06L22.64 19.95L22.43 19.95L22.43 19.85L22.22 19.85L22.22 19.74L22.01 19.72L21.98 19.61L21.8 19.61L21.77 19.51L21.66 19.51L21.66 19.43L21.45 19.4L21.45 19.3L21.24 19.3L21.24 19.19L21.03 19.17L21.01 19.09C20.95 19.08 20.89 19.07 20.82 19.06L20.8 18.98L20.59 18.96L20.59 18.88L20.38 18.85L20.35 18.75L20.25 18.75L20.25 18.67L20.04 18.64L20.04 18.54L19.83 18.54L19.83 18.43L19.62 18.43L19.62 18.33L19.41 18.33L19.41 18.22L19.2 18.2L19.17 18.12C19.11 18.11 19.05 18.1 18.99 18.09L18.96 18.01L18.75 17.99L18.75 17.91L18.54 17.88L18.51 17.78L18.33 17.78L18.3 17.67L18.12 17.67L18.12 17.57L18.02 17.57L18.02 17.46L17.78 17.46L17.78 17.36L17.57 17.36L17.57 17.25L17.36 17.25L17.36 17.15L17.15 17.12L17.15 17.04L16.94 17.01L16.94 16.94C16.82 16.92 16.82 16.92 16.7 16.91L16.7 16.8L16.49 16.8L16.49 16.7L16.28 16.7L16.28 16.59L16.07 16.59L16.07 16.49L15.86 16.49L15.86 16.38L15.65 16.36L15.65 16.28L15.52 16.28L15.52 16.17L15.31 16.17L15.31 16.07C15.19 16.06 15.19 16.06 15.08 16.04L15.08 15.96L14.87 15.94L14.87 15.86L14.66 15.83L14.66 15.73L14.45 15.73L14.45 15.62L14.13 15.6L14.13 15.52L13.92 15.49L13.92 15.41L13.79 15.41L13.79 15.31L13.58 15.31L13.58 15.2C13.46 15.19 13.46 15.19 13.34 15.18L13.34 15.1L13.13 15.07L13.13 14.99L12.92 14.97L12.92 14.86L12.69 14.86L12.69 14.76C12.56 14.74 12.56 14.74 12.42 14.73L12.42 14.65L12.21 14.63L12.21 14.55L12 14.52L11.98 14.44C11.82 14.43 11.82 14.43 11.66 14.42L11.66 14.34C11.55 14.32 11.55 14.32 11.43 14.31L11.43 14.23L11.22 14.21L11.22 14.13C11.17 14.12 11.12 14.12 11.07 14.11C11.03 14.11 11.03 14.11 10.99 14.11C10.88 14.1 10.78 14.1 10.67 14.1L10.66 14.1ZM25.13 28.2L25.13 28.28C25.19 28.28 25.25 28.29 25.31 28.3C25.35 28.41 25.34 28.51 25.34 28.62L25.44 28.64L25.44 28.83L25.55 28.85L25.55 29.06L25.65 29.06L25.65 29.27L25.76 29.27L25.76 29.4L25.86 29.4L25.86 29.69L25.97 29.69L25.99 29.9C26.03 29.92 26.03 29.92 26.07 29.93L26.1 30.14L26.18 30.14L26.2 30.32C26.24 30.34 26.24 30.34 26.28 30.35C26.28 30.38 26.29 30.41 26.29 30.45C26.3 30.54 26.32 30.58 26.39 30.64C26.41 30.71 26.41 30.71 26.41 30.77C26.45 30.78 26.45 30.78 26.49 30.8L26.52 30.98C26.56 30.99 26.56 30.99 26.6 31.01L26.62 31.22C26.66 31.23 26.66 31.23 26.7 31.24L26.73 31.5C26.77 31.52 26.77 31.52 26.81 31.53C26.82 31.63 26.82 31.63 26.83 31.74C26.86 31.75 26.88 31.76 26.91 31.77L26.94 31.95C26.96 31.96 26.99 31.97 27.02 31.98C27.03 32.04 27.05 32.1 27.07 32.16L27.12 32.19C27.13 32.22 27.14 32.25 27.15 32.28C27.16 32.32 27.16 32.32 27.17 32.37C27.2 32.38 27.23 32.39 27.25 32.4C27.27 32.5 27.27 32.5 27.28 32.61C27.3 32.61 27.33 32.62 27.36 32.63L27.38 32.82C27.41 32.82 27.44 32.83 27.46 32.84L27.49 33.03C27.52 33.03 27.54 33.04 27.57 33.05L27.57 33.26L27.67 33.26L27.7 33.47C27.73 33.48 27.75 33.49 27.78 33.5L27.8 33.68C27.83 33.69 27.86 33.7 27.88 33.71C27.93 33.81 27.91 33.92 27.91 34.02L28.01 34.05L28.01 34.26L28.09 34.26C28.12 34.34 28.12 34.38 28.12 34.46C28.12 34.49 28.12 34.49 28.12 34.53C28.12 34.54 28.12 34.56 28.12 34.58L28.22 34.58L28.22 34.79L28.33 34.81L28.33 35.34L28.43 35.34L28.43 36.07L28.33 36.07C28.33 36.1 28.33 36.1 28.33 36.13C28.33 36.22 28.33 36.31 28.33 36.39C28.33 36.42 28.33 36.45 28.33 36.48C28.33 36.51 28.33 36.54 28.33 36.57C28.33 36.61 28.33 36.61 28.33 36.65C28.33 36.72 28.32 36.77 28.3 36.83L28.22 36.83L28.22 37.25L28.12 37.25C28.12 37.27 28.12 37.3 28.12 37.32C28.12 37.35 28.12 37.37 28.12 37.4C28.12 37.43 28.12 37.46 28.12 37.49C28.12 37.55 28.11 37.61 28.09 37.67L28.01 37.67L28.01 37.91C27.99 37.92 27.96 37.93 27.93 37.93C27.93 37.96 27.93 37.98 27.93 38C27.92 38.02 27.92 38.05 27.91 38.08C27.91 38.1 27.9 38.13 27.9 38.16C27.89 38.18 27.89 38.2 27.88 38.22L27.83 38.25C27.81 38.32 27.81 38.32 27.8 38.41C27.79 38.45 27.79 38.45 27.79 38.5C27.78 38.52 27.78 38.54 27.78 38.56C27.75 38.57 27.73 38.58 27.7 38.59L27.67 38.77C27.65 38.78 27.62 38.79 27.59 38.8C27.58 38.89 27.58 38.89 27.57 38.98C27.54 38.99 27.52 39 27.49 39.01C27.48 39.15 27.48 39.15 27.46 39.3C27.44 39.31 27.41 39.32 27.38 39.33L27.36 39.54C27.33 39.54 27.31 39.55 27.28 39.56C27.27 39.65 27.27 39.65 27.25 39.75C27.23 39.75 27.2 39.76 27.17 39.77C27.16 39.83 27.14 39.89 27.12 39.96L27.07 39.98C27.06 40.01 27.05 40.04 27.04 40.07C27.03 40.17 27.03 40.17 26.94 40.22C26.92 40.26 26.92 40.26 26.91 40.3L26.86 40.32C26.85 40.35 26.84 40.38 26.83 40.42C26.83 40.45 26.82 40.48 26.81 40.51C26.78 40.52 26.75 40.52 26.73 40.53C26.71 40.62 26.71 40.62 26.7 40.72C26.68 40.73 26.65 40.73 26.62 40.74C26.61 40.78 26.6 40.81 26.6 40.85C26.57 40.86 26.54 40.87 26.52 40.87L26.49 41.03C26.47 41.04 26.44 41.05 26.41 41.06C26.39 41.12 26.38 41.18 26.36 41.24L26.31 41.27C26.3 41.29 26.3 41.3 26.3 41.32C26.29 41.34 26.29 41.36 26.28 41.37C26.26 41.38 26.23 41.39 26.2 41.4C26.19 41.49 26.19 41.49 26.18 41.58L26.07 41.58L26.07 41.69L25.86 41.69L25.86 41.79L25.52 41.79L25.52 41.69L25 41.69L25 41.58L24.13 41.58L24.13 41.48C24.11 41.48 24.1 41.48 24.08 41.48C24.01 41.48 23.93 41.48 23.86 41.48C23.83 41.48 23.81 41.48 23.78 41.49C23.76 41.49 23.73 41.49 23.71 41.49C23.68 41.49 23.66 41.49 23.64 41.49C23.56 41.48 23.55 41.45 23.5 41.4C23.43 41.39 23.36 41.38 23.28 41.38C23.26 41.38 23.24 41.38 23.22 41.38C23.18 41.38 23.13 41.37 23.08 41.37L23.05 41.29C23.03 41.29 23.01 41.29 22.98 41.29C22.93 41.29 22.93 41.29 22.89 41.28C22.86 41.28 22.83 41.28 22.79 41.28C22.71 41.27 22.71 41.27 22.63 41.24L22.61 41.19C22.52 41.18 22.44 41.17 22.35 41.16C22.31 41.15 22.26 41.14 22.21 41.14L22.19 41.08C22.12 41.07 22.12 41.07 22.03 41.06C22 41.05 21.97 41.05 21.94 41.04C21.92 41.04 21.89 41.04 21.87 41.03L21.85 40.95L21.56 40.93L21.56 40.82L21.35 40.82L21.35 40.72C21.32 40.72 21.32 40.72 21.3 40.72C21.28 40.72 21.25 40.72 21.23 40.72C21.21 40.72 21.19 40.72 21.17 40.72C21.11 40.72 21.11 40.72 21.03 40.69L21.03 40.61L20.82 40.59L20.82 40.51L20.69 40.51L20.69 40.4L20.48 40.4L20.45 40.3C20.39 40.29 20.33 40.28 20.27 40.27L20.24 40.19C20.19 40.17 20.19 40.17 20.14 40.17L20.14 40.09L19.93 40.06L19.93 39.96L19.82 39.96L19.82 39.85L19.72 39.85L19.72 39.75L19.59 39.75L19.59 39.64L19.48 39.64L19.48 39.54L19.38 39.54L19.38 39.43L19.27 39.43L19.27 39.33L19.17 39.3L19.17 39.19L19.06 39.19L19.06 38.98L18.96 38.98L18.96 38.85L18.85 38.85L18.85 38.67L18.75 38.67L18.72 38.46C18.7 38.45 18.67 38.44 18.64 38.43L18.62 38.22L18.54 38.22L18.51 38.01L18.43 38.01L18.41 37.78L18.33 37.78L18.3 37.49L18.22 37.49C18.22 37.47 18.22 37.46 18.21 37.44C18.2 37.38 18.2 37.38 18.16 37.35C18.11 37.29 18.1 37.26 18.1 37.18C18.1 37.15 18.1 37.15 18.09 37.12C18.09 37.1 18.09 37.08 18.09 37.07C18.07 37.06 18.04 37.05 18.01 37.04L17.99 36.96C17.96 36.95 17.93 36.95 17.91 36.94C17.91 36.91 17.9 36.88 17.9 36.85C17.89 36.8 17.89 36.8 17.88 36.75L17.8 36.7C17.78 36.64 17.77 36.58 17.75 36.52L17.7 36.49C17.69 36.45 17.69 36.45 17.67 36.4C17.66 36.37 17.65 36.34 17.64 36.31C17.62 36.3 17.59 36.29 17.57 36.28L17.57 35.99L17.78 35.99L17.78 36.07L17.99 36.1L17.99 36.2L18.09 36.2L18.09 36.31L18.2 36.31L18.2 36.41L18.33 36.41L18.33 36.52L18.51 36.52L18.54 36.62L18.72 36.62L18.75 36.73L18.85 36.73L18.85 36.83C18.9 36.83 18.9 36.83 18.95 36.83C19.03 36.83 19.09 36.83 19.17 36.86L19.17 36.94L19.51 36.96L19.51 37.04C19.89 37.06 19.89 37.06 20.27 37.07L20.27 37.15L20.56 37.17L20.58 37.25C20.64 37.27 20.64 37.27 20.69 37.28L20.69 37.38L20.87 37.38L20.9 37.46C20.93 37.47 20.97 37.48 21.01 37.49L21.03 37.57C21.06 37.58 21.08 37.58 21.11 37.59L21.14 37.67C21.2 37.69 21.26 37.71 21.32 37.72L21.35 37.8C21.37 37.81 21.4 37.82 21.43 37.83L21.45 37.91C21.48 37.92 21.5 37.93 21.53 37.93L21.58 38.01C21.61 38.02 21.63 38.03 21.66 38.04L21.69 38.12C21.74 38.13 21.79 38.14 21.85 38.14L21.85 38.25L21.98 38.25L21.98 38.35L22.16 38.35L22.19 38.46L22.29 38.46L22.29 38.56L22.4 38.56L22.4 38.67L22.61 38.7L22.63 38.77C22.69 38.79 22.69 38.79 22.74 38.8L22.74 38.91L22.84 38.91L22.84 39.01L23.03 39.01L23.03 39.12L23.16 39.12L23.16 39.22L23.26 39.22L23.26 39.33L23.37 39.33L23.37 39.43L23.58 39.46L23.58 39.54L23.71 39.56L23.71 39.64L23.92 39.67L23.92 39.75C24.23 39.76 24.23 39.76 24.55 39.77L24.55 39.67C24.63 39.66 24.71 39.65 24.79 39.64L24.79 39.56L25 39.54L25 39.46C25.07 39.45 25.15 39.44 25.23 39.43L25.23 39.35C25.29 39.34 25.35 39.33 25.41 39.33L25.41 39.22L25.55 39.22L25.55 39.12L25.73 39.12L25.76 38.8L25.86 38.8L25.83 37.8L25.76 37.8L25.76 34.47L25.86 34.47L25.86 34.23L25.97 34.23L25.97 34.02L26.07 34.02L26.07 33.81L26.18 33.81L26.18 33.6L26.28 33.6C26.28 33.59 26.28 33.57 26.28 33.55C26.28 33.53 26.28 33.51 26.28 33.49C26.28 33.47 26.28 33.45 26.28 33.43C26.28 33.36 26.28 33.36 26.31 33.29L26.39 33.29C26.4 33.13 26.4 33.13 26.41 32.97L26.49 32.97C26.5 32.63 26.5 32.63 26.52 32.29L26.6 32.29L26.6 32.05L26.52 32.05L26.49 31.5L26.41 31.5L26.39 31.08L26.31 31.08C26.27 30.98 26.28 30.88 26.28 30.77L26.18 30.77L26.18 30.56L26.07 30.56L26.07 30.43L25.97 30.43L25.97 30.24L25.86 30.24L25.86 30.11L25.73 30.11L25.73 30.01L25.31 30.01L25.31 30.11L25.1 30.11L25.1 31.21L25 31.21L25 31.53L24.89 31.53L24.89 31.63L24.79 31.63L24.79 31.74L24.68 31.74L24.68 31.84L24.55 31.84L24.55 31.95L24.34 31.95L24.34 32.05L24.13 32.08L24.13 32.16L23.92 32.19L23.89 32.29L23.71 32.29L23.71 32.4L23.47 32.4L23.47 32.5L23.26 32.5L23.26 32.61L23.05 32.61L23.05 32.71L22.92 32.71L22.92 32.82L22.63 32.82L22.63 32.92C22.55 32.93 22.48 32.94 22.4 32.95L22.4 33.03C22.37 33.03 22.37 33.03 22.35 33.03C22.33 33.04 22.31 33.05 22.29 33.05L22.27 33.13L22.06 33.16L22.06 33.24L21.79 33.29L21.77 33.37L21.56 33.39L21.53 33.47C21.5 33.48 21.48 33.49 21.45 33.5L21.43 33.58L21.22 33.6L21.19 33.68C21.17 33.69 21.15 33.69 21.13 33.69C21.11 33.7 21.08 33.7 21.06 33.71C21.02 33.71 21.02 33.71 20.99 33.72C20.97 33.72 20.95 33.73 20.93 33.73L20.9 33.79C20.88 33.79 20.87 33.79 20.85 33.8C20.83 33.8 20.81 33.81 20.8 33.81L20.77 33.89L20.58 33.89L20.56 34C20.5 34.01 20.44 34.01 20.37 34.02L20.37 34.1C20.3 34.11 20.22 34.12 20.14 34.13L20.14 34.21L19.93 34.23L19.93 34.34L19.72 34.34L19.69 34.44L19.4 34.44L19.4 34.55L19.17 34.55L19.17 34.65L18.75 34.68L18.75 34.76L18.64 34.76L18.62 34.68L18.33 34.65L18.33 34.55L18.12 34.55L18.09 34.47C18.07 34.46 18.04 34.45 18.01 34.44L17.99 34.36C17.93 34.36 17.87 34.35 17.8 34.34L17.78 34.26C17.74 34.25 17.71 34.24 17.67 34.23L17.64 34.15C17.54 34.12 17.43 34.13 17.32 34.13C17.31 34.13 17.29 34.13 17.27 34.13C17.22 34.13 17.17 34.13 17.12 34.13L17.12 34.23L17.02 34.23L16.99 34.44L16.81 34.44L16.81 34.34L16.7 34.34L16.7 34.13L16.6 34.13L16.6 33.92L16.49 33.89L16.49 33.68L16.39 33.68L16.39 33.58L16.28 33.58L16.28 33.34L16.18 33.34L16.15 33.05L16.07 33.05L16.05 32.82L15.97 32.82L15.97 32.63L16.05 32.63L16.07 32.5L16.18 32.5L16.18 32.42L16.39 32.4L16.39 32.32L16.6 32.29L16.6 32.19C16.66 32.18 16.72 32.17 16.78 32.16L16.81 32.08C16.82 32.08 16.84 32.07 16.86 32.07C16.88 32.06 16.89 32.06 16.91 32.05L16.94 31.98C17 31.97 17.06 31.96 17.12 31.95L17.15 31.87C17.17 31.86 17.2 31.85 17.23 31.84L17.25 31.77C17.31 31.76 17.37 31.75 17.44 31.74L17.46 31.66C17.49 31.65 17.49 31.65 17.51 31.64C17.57 31.61 17.57 31.61 17.63 31.53C17.7 31.44 17.77 31.43 17.88 31.4L17.91 31.32C17.93 31.31 17.96 31.3 17.99 31.29L18.01 31.21C18.04 31.21 18.07 31.2 18.09 31.19L18.12 31.11L18.3 31.11L18.3 31L18.41 31L18.41 30.9L18.51 30.9L18.51 30.79L18.62 30.77L18.64 30.66L18.75 30.66L18.75 30.56L18.85 30.56L18.85 30.45L18.96 30.45L18.96 30.35L19.06 30.35L19.06 30.24L19.17 30.24L19.2 30.03C19.22 30.02 19.25 30.02 19.27 30.01L19.3 29.93C19.33 29.92 19.35 29.91 19.38 29.9L19.41 29.82C19.43 29.81 19.46 29.81 19.48 29.8C19.5 29.74 19.5 29.74 19.51 29.69L19.59 29.69L19.62 29.48L19.72 29.48L19.72 29.27L19.83 29.27L19.83 29.17L19.93 29.17L19.93 29.06L20.25 29.06L20.27 29.14C20.53 29.14 20.79 29.14 21.05 29.14C21.17 29.15 21.29 29.15 21.41 29.15C21.53 29.15 21.64 29.15 21.76 29.15C21.8 29.15 21.85 29.15 21.89 29.15C21.96 29.15 22.02 29.15 22.08 29.15C22.11 29.15 22.11 29.15 22.13 29.15C22.19 29.15 22.19 29.15 22.27 29.14L22.32 29.06C22.39 29.05 22.45 29.05 22.52 29.05C22.58 29.05 22.65 29.04 22.71 29.04C22.74 29 22.74 29 22.77 28.96C22.83 28.94 22.9 28.94 22.97 28.93C23.03 28.92 23.1 28.92 23.16 28.9L23.19 28.85C23.24 28.84 23.24 28.84 23.3 28.84C23.32 28.83 23.34 28.83 23.37 28.83C23.39 28.83 23.41 28.82 23.44 28.82C23.46 28.82 23.49 28.82 23.51 28.82C23.57 28.81 23.63 28.8 23.69 28.8L23.71 28.72L24 28.72L24.03 28.62L24.24 28.62L24.24 28.51L24.45 28.51L24.45 28.41L24.76 28.41L24.76 28.3L25 28.3L25 28.2L25.13 28.2L25.13 28.2ZM25 37.07L25 38.46L24.89 38.46L24.89 38.67L24.79 38.67L24.79 38.78L24.68 38.78L24.68 38.88L24.44 38.88L24.44 38.99L24.23 38.99L24.23 38.88L23.92 38.88L23.92 38.78L23.79 38.78L23.79 38.67L23.6 38.67L23.58 38.59C23.55 38.58 23.53 38.57 23.5 38.57L23.47 38.49C23.45 38.48 23.42 38.47 23.39 38.46L23.37 38.38C23.34 38.37 23.32 38.36 23.29 38.36C23.28 38.34 23.28 38.32 23.28 38.3C23.27 38.29 23.27 38.27 23.26 38.25C23.24 38.24 23.21 38.23 23.18 38.22L23.18 37.91C23.22 37.9 23.22 37.9 23.26 37.88C23.28 37.84 23.28 37.84 23.29 37.8C23.31 37.8 23.34 37.79 23.37 37.78C23.38 37.75 23.38 37.75 23.39 37.73C23.46 37.71 23.46 37.71 23.54 37.7C23.57 37.69 23.59 37.69 23.62 37.68C23.64 37.68 23.66 37.68 23.68 37.67C23.7 37.63 23.7 37.63 23.71 37.59L23.92 37.59L23.92 37.49L24.13 37.49L24.13 37.38L24.34 37.38L24.34 37.28L24.47 37.28L24.47 37.17L24.68 37.17L24.68 37.07L25 37.07Z" fill="url(#paint_linear_27_1233_0)" fill-opacity="1.000000" fill-rule="nonzero"/>
			<path id="Vector" d="M12.05 40.19L11.21 40.19C11.2 40.23 11.2 40.23 11.19 40.27L10.69 40.3C10.68 40.34 10.68 40.34 10.66 40.38C10.52 40.39 10.52 40.39 10.37 40.4L10.35 40.51L10.14 40.51L10.11 40.61L9.98 40.64L9.98 40.69L9.8 40.74L9.8 40.82L9.69 40.85L9.69 40.93L9.59 40.93L9.59 41.03L9.48 41.03L9.48 41.14L9.38 41.14L9.38 41.24L9.27 41.24L9.27 41.37L9.17 41.37L9.17 41.48L9.06 41.48L9.03 41.69L8.96 41.69L8.93 41.9L8.85 41.9L8.82 42.11L8.75 42.11C8.74 42.13 8.74 42.14 8.74 42.16C8.73 42.19 8.73 42.19 8.72 42.21C8.69 42.22 8.67 42.23 8.64 42.24C8.61 42.33 8.61 42.42 8.61 42.51C8.61 42.54 8.61 42.56 8.61 42.59C8.61 42.63 8.61 42.63 8.61 42.66L8.51 42.66L8.51 43.21L8.4 43.21L8.4 43.55L8.51 43.55L8.51 43.73L8.4 43.73L8.4 43.87L8.51 43.87C8.51 43.89 8.51 43.89 8.51 43.91C8.51 43.94 8.51 43.96 8.51 43.98C8.51 44 8.51 44.02 8.51 44.04C8.51 44.1 8.52 44.15 8.54 44.21L8.61 44.21C8.61 44.24 8.61 44.27 8.61 44.31C8.61 44.46 8.61 44.46 8.64 44.52C8.67 44.53 8.69 44.54 8.72 44.55L8.75 44.73C8.77 44.74 8.8 44.75 8.82 44.76L8.85 44.94C8.88 44.95 8.9 44.96 8.93 44.97L8.96 45.15C8.98 45.16 9.01 45.17 9.03 45.18C9.05 45.23 9.05 45.23 9.06 45.28L9.17 45.28L9.17 45.49L9.27 45.49L9.27 45.6L9.38 45.6L9.4 45.81L9.48 45.81L9.51 45.94L9.59 45.94L9.61 46.04L9.69 46.04L9.69 46.15L9.77 46.15L9.8 46.33L9.9 46.36L9.9 46.46L10.01 46.46L10.01 46.6L10.11 46.6L10.11 46.78L10.22 46.81L10.24 47.02L10.32 47.02L10.35 47.23L10.43 47.23L10.43 48.43L10.35 48.43C10.31 48.54 10.32 48.64 10.32 48.75L10.22 48.75L10.22 48.96L10.11 48.96L10.11 49.17L10.01 49.17L10.01 49.3L9.9 49.3L9.9 49.4L9.8 49.4L9.77 49.61L9.69 49.61L9.66 49.69C9.64 49.7 9.61 49.71 9.59 49.72L9.56 49.8C9.53 49.81 9.51 49.82 9.48 49.82L9.45 49.9C9.42 49.91 9.39 49.92 9.36 49.93C9.33 49.94 9.3 49.95 9.27 49.96L9.24 50.03C9.22 50.04 9.19 50.05 9.17 50.06L9.14 50.14C9.11 50.15 9.09 50.16 9.06 50.17C9.04 50.21 9.04 50.21 9.01 50.24C8.98 50.25 8.96 50.26 8.93 50.27L8.9 50.35C8.88 50.36 8.85 50.37 8.82 50.38L8.82 50.48L8.72 50.48L8.72 50.59L8.61 50.59L8.61 50.69L9.27 50.69L9.27 50.59C9.3 50.59 9.33 50.59 9.37 50.59C9.41 50.59 9.45 50.59 9.49 50.59C9.51 50.59 9.53 50.59 9.55 50.59C9.58 50.59 9.58 50.59 9.61 50.59C9.64 50.59 9.64 50.59 9.67 50.59C9.72 50.59 9.72 50.59 9.8 50.56L9.8 50.48C9.82 50.48 9.84 50.48 9.87 50.48C9.91 50.48 9.91 50.48 9.96 50.48C10.01 50.48 10.01 50.48 10.05 50.48C10.12 50.48 10.18 50.48 10.24 50.45L10.24 50.38L10.45 50.35L10.45 50.27L10.77 50.24C10.78 50.21 10.78 50.21 10.79 50.17L11.11 50.14L11.11 50.03L11.34 50.03L11.34 49.93L11.63 49.93L11.63 49.82L11.87 49.82L11.87 49.72L11.97 49.72L11.97 49.61L12.18 49.61L12.18 49.51L12.29 49.51L12.29 49.4C12.31 49.4 12.32 49.4 12.34 49.4C12.37 49.39 12.37 49.39 12.39 49.38C12.41 49.34 12.41 49.34 12.42 49.3C12.47 49.27 12.47 49.27 12.53 49.25L12.53 49.17L12.63 49.14L12.63 49.06L12.74 49.04L12.74 48.96L12.81 48.96L12.84 48.75L12.92 48.75L12.92 48.54L13.02 48.54L13.05 48.33L13.13 48.33L13.16 48.09L13.23 48.09L13.26 47.65L13.34 47.65L13.34 46.46L13.29 46.44C13.27 46.37 13.27 46.3 13.26 46.23C13.26 46.21 13.25 46.19 13.25 46.17C13.25 46.12 13.24 46.07 13.23 46.02L13.13 46.02L13.13 45.78L13.05 45.78C13.04 45.68 13.04 45.68 13.02 45.57L12.92 45.57L12.92 45.36L12.84 45.36L12.84 45.18L12.74 45.15L12.74 44.97L12.63 44.92L12.63 44.76C12.61 44.75 12.61 44.75 12.58 44.74C12.52 44.71 12.52 44.71 12.51 44.64C12.51 44.61 12.51 44.59 12.51 44.56C12.5 44.53 12.5 44.51 12.5 44.48C12.5 44.46 12.5 44.44 12.5 44.42L12.39 44.39L12.37 44.26L12.32 44.26L12.29 43.97C12.26 43.96 12.24 43.95 12.21 43.94L12.21 43.55L12.29 43.55C12.3 43.45 12.3 43.45 12.32 43.34C12.34 43.34 12.37 43.34 12.39 43.33C12.47 43.31 12.47 43.31 12.51 43.27C12.53 43.21 12.53 43.21 12.53 43.13C12.59 43.12 12.65 43.11 12.71 43.1L12.71 43L12.81 43L12.84 42.92C12.9 42.91 12.96 42.9 13.02 42.89L13.02 42.79L13.23 42.79L13.26 42.71L13.47 42.68L13.47 42.58L13.68 42.58L13.68 42.47C13.79 42.46 13.79 42.46 13.89 42.45C13.9 42.25 13.9 42.25 13.92 42.05L14 42.05L14 41.9L13.92 41.9L13.89 40.82L13.79 40.82L13.79 40.61L13.68 40.61L13.68 40.51L13.47 40.51L13.47 40.4C13.31 40.39 13.31 40.39 13.16 40.37L13.13 40.3C12.78 40.28 12.43 40.27 12.08 40.27L12.05 40.19L12.05 40.19Z" fill="#2A1163" fill-opacity="1.000000" fill-rule="nonzero"/>
			<path id="Vector" d="M25.86 44.39L25.55 44.39L25.55 44.5L25.34 44.52L25.34 44.6L25.21 44.63L25.21 44.71L25.1 44.71L25.1 44.81L24.89 44.84L24.89 44.94L24.79 44.94L24.79 45.05L24.6 45.05L24.58 45.15L24.44 45.18L24.44 45.26L24.34 45.26L24.34 45.36L24.15 45.36L24.13 45.47C24.07 45.48 24.01 45.49 23.94 45.49L23.92 45.6L23.81 45.63L23.81 45.71L23.68 45.73L23.68 45.78L23.5 45.84L23.5 45.92L23.37 45.94L23.37 46.02L23.26 46.05L23.26 46.12L23.16 46.15L23.16 46.23L23.05 46.26L23.05 46.36L22.95 46.36L22.92 48.86L22.84 48.86L22.82 49.41L22.74 49.41L22.74 49.83C22.76 49.83 22.79 49.84 22.82 49.85L22.84 49.93L22.95 49.93L22.95 50.04L23.16 50.04L23.16 50.14L23.47 50.17L23.47 50.25L23.68 50.27L23.71 50.35L24.02 50.38L24.02 50.48L24.23 50.48L24.23 50.59L24.47 50.59L24.47 50.69L24.79 50.69L24.79 50.8L25 50.8L25 50.9L25.31 50.9L25.31 51.01L25.55 51.01L25.55 51.11L25.86 51.14L25.86 51.22C25.94 51.23 26.02 51.23 26.1 51.24L26.1 51.32L26.31 51.35L26.31 51.43C26.38 51.45 26.42 51.46 26.5 51.46C26.53 51.45 26.56 51.45 26.6 51.45L26.6 51.56L26.91 51.56L26.91 51.66L27.23 51.69L27.25 51.77L27.57 51.77L27.57 51.87L27.78 51.87L27.78 51.98L27.88 51.98L27.91 52.53L27.99 52.53C27.99 52.54 27.99 52.56 27.99 52.57C27.98 52.71 27.99 52.84 28.01 52.98L28.12 52.98L28.12 53.05L28.22 53.05L28.22 52.98C28.3 52.97 28.38 52.96 28.46 52.95L28.46 52.87L28.77 52.84L28.77 52.74L29.01 52.74L29.01 52.66L29.3 52.63C29.31 52.58 29.31 52.58 29.33 52.53L29.51 52.53L29.51 52.42L29.75 52.42L29.75 52.32L29.93 52.32C29.96 52.22 29.96 52.11 29.96 52L29.85 51.98L29.83 51.79L29.75 51.79L29.72 51.66C29.69 51.65 29.67 51.65 29.64 51.64L29.61 51.56L29.43 51.56L29.43 51.45L29.33 51.45L29.33 51.35L29.22 51.35L29.22 51.24L29.09 51.24L29.09 51.14C29.03 51.13 28.97 51.12 28.91 51.11L28.88 51.03C28.82 51.02 28.76 51.02 28.7 51.01L28.67 50.9L28.56 50.9L28.56 50.82L28.35 50.8L28.35 50.69L28.12 50.69L28.12 50.59L27.91 50.59L27.91 50.48L27.7 50.48L27.7 50.38L27.49 50.35L27.49 50.27C27.47 50.27 27.46 50.27 27.44 50.26C27.41 50.26 27.41 50.26 27.38 50.25L27.36 50.17C27.3 50.16 27.24 50.15 27.17 50.14L27.15 50.06L26.94 50.04L26.94 49.96L26.73 49.93L26.73 49.83L26.52 49.83L26.52 49.72L26.28 49.72L26.28 49.62L26.07 49.62L26.07 49.51L25.86 49.51L25.86 49.41L25.65 49.38L25.65 49.3C25.57 49.29 25.5 49.28 25.41 49.27L25.41 49.2L25.21 49.17L25.21 49.09L25 49.06L25 48.96L24.89 48.96L24.89 48.64L25 48.64L25 48.43L25.1 48.43L25.1 48.3L25.21 48.3L25.21 48.09L25.31 48.09L25.31 47.88L25.41 47.88L25.44 47.57L25.52 47.57L25.55 47.33L25.62 47.33C25.65 47.24 25.65 47.16 25.65 47.06C25.65 47.04 25.65 47.01 25.65 46.98C25.65 46.95 25.65 46.95 25.65 46.91L25.76 46.91L25.76 46.57L25.83 46.57C25.86 46.49 25.86 46.43 25.86 46.34C25.86 46.31 25.86 46.28 25.86 46.25C25.86 46.22 25.86 46.19 25.86 46.16C25.86 46.13 25.86 46.1 25.86 46.07C25.86 45.99 25.86 45.91 25.86 45.84L25.97 45.84L25.97 44.63L25.86 44.6L25.86 44.39L25.86 44.39Z" fill="#2A1163" fill-opacity="1.000000" fill-rule="nonzero"/>
			<path id="Vector" d="M40.93 22.97L40.82 22.97L40.82 23.08L40.4 23.08L40.4 23.18C40.33 23.19 40.25 23.2 40.17 23.21L40.17 23.29L39.85 23.31L39.85 23.42L39.62 23.42L39.62 23.5L39.33 23.52C39.31 23.56 39.31 23.56 39.3 23.6L38.99 23.63L38.99 23.73L38.67 23.73L38.67 23.84L38.33 23.84L38.33 23.94L38.12 23.94L38.12 24.05C38.1 24.05 38.09 24.05 38.07 24.05C37.94 24.04 37.83 24.06 37.7 24.1L37.7 24.18L37.49 24.18L37.46 24.26L37.17 24.29L37.17 24.39L36.96 24.39L36.96 24.5L36.83 24.5L36.83 24.57L36.62 24.6L36.62 24.71L36.41 24.71L36.41 24.81L36.2 24.81L36.2 24.92L35.99 24.92L35.97 25.02L35.76 25.05L35.76 25.13L35.55 25.15L35.55 25.26L35.44 25.26L35.44 25.34L35.23 25.36L35.23 25.47L35.13 25.47L35.13 25.57L35 25.57L35 25.68L34.89 25.7L34.89 25.78L34.81 25.78L34.79 26.02L34.71 26.02C34.68 26.09 34.68 26.16 34.68 26.24C34.68 26.27 34.68 26.29 34.68 26.32C34.68 26.35 34.68 26.35 34.68 26.39C34.68 26.42 34.68 26.45 34.68 26.47C34.68 26.53 34.68 26.58 34.68 26.64C34.68 26.73 34.68 26.81 34.68 26.9C34.68 26.95 34.68 27.01 34.68 27.06C34.68 27.08 34.68 27.11 34.68 27.14C34.68 27.17 34.68 27.17 34.68 27.21L34.68 27.27C34.68 27.33 34.69 27.38 34.71 27.44L34.79 27.44L34.79 27.65L34.89 27.65L34.92 27.86L35.02 27.86L35.02 27.96C35.05 27.97 35.07 27.98 35.1 27.99C35.12 28.04 35.12 28.04 35.13 28.09L35.23 28.09L35.23 28.2L35.34 28.2L35.34 28.3L35.44 28.3L35.44 28.41L35.55 28.41L35.55 28.51C35.56 28.51 35.58 28.52 35.6 28.52C35.62 28.53 35.63 28.53 35.65 28.54L35.68 28.62C35.7 28.62 35.73 28.63 35.76 28.64L35.78 28.72L35.89 28.72L35.89 28.83L35.99 28.83L35.99 28.93L36.1 28.93L36.1 29.04C36.12 29.04 36.15 29.05 36.18 29.06C36.2 29.12 36.2 29.12 36.2 29.17L36.31 29.17L36.31 29.27L36.41 29.27L36.41 29.38L36.52 29.38L36.52 29.48L36.62 29.48L36.65 29.61L36.73 29.61L36.75 29.72L36.83 29.72L36.86 29.93L36.96 29.93L36.96 30.14L37.07 30.14L37.07 30.24L37.15 30.24L37.17 30.45L37.25 30.45L37.28 30.59L37.36 30.59L37.36 30.74C37.37 30.75 37.39 30.76 37.41 30.76C37.47 30.8 37.49 30.83 37.52 30.9L37.57 30.9L37.59 31L37.7 31L37.73 31.11L37.91 31.11L37.94 31.22L38.04 31.22L38.04 31.11L38.15 31.11L38.15 31L38.25 31L38.25 30.32L38.15 30.32L38.15 29.9L38.04 29.9L38.04 29.59L37.94 29.59L37.94 29.35L37.83 29.35C37.82 29.25 37.82 29.25 37.8 29.14L37.73 29.14L37.7 28.83C37.67 28.82 37.65 28.81 37.62 28.8L37.59 28.51C37.57 28.5 37.54 28.49 37.52 28.49L37.52 28.2C37.54 28.19 37.57 28.18 37.59 28.17L37.62 27.88C37.65 27.87 37.67 27.86 37.7 27.86C37.72 27.53 37.73 27.21 37.73 26.89C37.73 26.86 37.73 26.83 37.73 26.79C37.73 26.76 37.73 26.73 37.73 26.7L37.73 26.61C37.73 26.55 37.72 26.5 37.7 26.44L37.62 26.44L37.59 26.23L37.49 26.23L37.49 25.99L37.38 25.99L37.38 25.81L37.49 25.81L37.49 25.7L37.59 25.68L37.59 25.6L37.73 25.57L37.73 25.49L37.88 25.49C37.89 25.47 37.89 25.46 37.9 25.44C37.93 25.38 37.93 25.38 38.03 25.37C38.06 25.36 38.09 25.36 38.12 25.36L38.15 25.26C38.2 25.24 38.2 25.24 38.25 25.23L38.25 25.18C38.31 25.17 38.37 25.16 38.43 25.15L38.46 25.05L38.64 25.05L38.67 24.94L38.8 24.91L38.8 24.84L38.99 24.84L39.01 24.73C39.03 24.73 39.05 24.72 39.06 24.72C39.08 24.72 39.1 24.71 39.12 24.7L39.14 24.63L39.3 24.63C39.31 24.57 39.31 24.57 39.33 24.52C39.39 24.51 39.45 24.5 39.51 24.49C39.52 24.44 39.52 24.44 39.54 24.39L39.67 24.36L39.67 24.31C39.73 24.3 39.79 24.29 39.85 24.28C39.87 24.23 39.87 24.23 39.88 24.18L39.98 24.15L39.98 24.07L40.17 24.07C40.18 24.02 40.18 24.02 40.19 23.97L40.32 23.94L40.32 23.86L40.48 23.86L40.48 23.76L40.61 23.76L40.61 23.65L40.82 23.63L40.82 23.52L40.93 23.52L40.95 23.44C40.98 23.44 41.01 23.43 41.03 23.42L41.03 23.08L40.95 23.08L40.93 22.97ZM36.52 26.57L36.54 26.78L36.62 26.78C36.65 26.89 36.65 26.98 36.65 27.09L36.73 27.09L36.73 27.3L36.65 27.3L36.65 27.41L36.54 27.41L36.54 27.51L36.2 27.51L36.2 27.41L35.99 27.41L35.99 27.3L35.89 27.3L35.86 27.09L35.76 27.07L35.76 26.67L35.89 26.67L35.89 26.57L36.52 26.57Z" fill="#7C0F80" fill-opacity="1.000000" fill-rule="nonzero"/>
			<path id="Vector" d="M15.41 22.76L14.89 22.76L14.89 22.87L14.55 22.87L14.55 22.97L14.23 22.97L14.23 23.08L14.02 23.1C14.01 23.14 14.01 23.14 14 23.18C13.94 23.2 13.94 23.2 13.89 23.21L13.89 23.31L13.79 23.31L13.79 23.42L13.68 23.42L13.68 23.52L13.58 23.52L13.58 23.63L13.47 23.63L13.47 23.73L13.37 23.73L13.37 23.84L13.26 23.84C13.25 23.94 13.25 23.94 13.24 24.05L13.16 24.05C13.15 24.07 13.15 24.08 13.15 24.1C13.14 24.12 13.14 24.14 13.13 24.15C13.09 24.17 13.09 24.17 13.05 24.18C13.04 24.28 13.04 24.28 13.03 24.39L12.95 24.39C12.91 24.49 12.92 24.6 12.92 24.71L12.82 24.71L12.82 26.12L12.92 26.15C12.92 26.17 12.92 26.19 12.92 26.21C12.92 26.23 12.92 26.26 12.92 26.28C12.92 26.31 12.92 26.34 12.91 26.36C12.92 26.44 12.94 26.5 12.97 26.57L13.03 26.57L13.03 26.86L12.95 26.86C12.92 26.94 12.92 27.01 12.92 27.09C12.92 27.11 12.92 27.13 12.92 27.15C12.92 27.17 12.92 27.18 12.92 27.2L12.82 27.2L12.82 27.3L12.71 27.3L12.71 27.41L12.61 27.41L12.61 27.51L12.4 27.51L12.37 27.62L12.08 27.62L12.05 27.54C11.97 27.51 11.91 27.51 11.82 27.51C11.79 27.51 11.77 27.51 11.74 27.51C11.7 27.51 11.67 27.51 11.64 27.51C11.61 27.51 11.58 27.51 11.55 27.51C11.47 27.51 11.4 27.51 11.32 27.51C11.28 27.67 11.27 27.83 11.35 27.99L11.4 27.99L11.45 28.17L11.53 28.17L11.56 28.3L11.63 28.3L11.63 28.41L11.74 28.41L11.74 28.51L11.84 28.51L11.84 28.62L11.95 28.62L11.95 28.72L12.05 28.72L12.05 28.83L12.16 28.83L12.19 28.93C12.25 28.94 12.31 28.95 12.37 28.96L12.4 29.06L12.5 29.06L12.5 29.14C12.6 29.17 12.68 29.17 12.78 29.17C12.8 29.17 12.82 29.17 12.84 29.17C12.9 29.17 12.97 29.17 13.03 29.17C13.07 29.17 13.11 29.17 13.16 29.17C13.26 29.17 13.37 29.17 13.47 29.17L13.47 29.06C13.5 29.06 13.53 29.06 13.57 29.06C13.64 29.06 13.71 29.06 13.78 29.04L13.78 28.96L13.99 28.93L13.99 28.85L14.13 28.83L14.13 28.75C14.19 28.74 14.25 28.73 14.31 28.72L14.34 28.64C14.39 28.62 14.39 28.62 14.44 28.62L14.44 28.51L14.55 28.51L14.55 28.41L14.65 28.41L14.65 28.2L14.76 28.2L14.78 27.99L14.86 27.99L14.89 27.54L14.97 27.54L14.97 26.1L14.89 26.1L14.89 25.7L14.97 25.7C14.98 25.6 14.98 25.6 14.99 25.49L15.07 25.49C15.07 25.46 15.08 25.43 15.08 25.39C15.08 25.33 15.08 25.33 15.1 25.28C15.15 25.24 15.15 25.24 15.2 25.23L15.2 25.15C15.23 25.14 15.25 25.13 15.28 25.12C15.31 25.02 15.31 24.94 15.31 24.84L15.41 24.81L15.41 24.52L15.52 24.49L15.52 24.39L15.62 24.36L15.65 24.08L15.73 24.08L15.73 23.86L15.83 23.84L15.86 23.66C15.88 23.65 15.91 23.64 15.94 23.63L15.96 23.42C15.99 23.41 16.02 23.4 16.04 23.39C16.08 23.3 16.07 23.2 16.07 23.1L15.96 23.08L15.96 22.97L15.75 22.97L15.75 22.87C15.6 22.85 15.6 22.85 15.44 22.84L15.41 22.76L15.41 22.76Z" fill="#750F7D" fill-opacity="1.000000" fill-rule="nonzero"/>
		</g>
	</g>
</svg>
