<svg width="50" height="70" viewBox="0 0 50 70" fill="none" xmlns="http://www.w3.org/2000/svg">
<rect width="50" height="70" rx="3" fill="white"/>
<path d="M9.29186 4.02878C8.83326 4.12104 8.38009 4.30013 8.05989 4.51993C7.97034 4.57963 7.94864 4.58506 7.91065 4.5525C7.7614 4.42496 7.31909 4.22958 6.97989 4.14003C5.57968 3.77099 4.1442 4.34626 3.39526 5.57823C2.98822 6.24848 2.8851 7.19009 3.13475 7.95532C3.30028 8.4709 3.56078 8.87793 3.95968 9.24427C4.1035 9.37723 5.07767 10.2998 6.12511 11.2957C7.17255 12.2943 8.03547 13.1084 8.04632 13.1084C8.06803 13.1084 11.2483 9.99864 11.9376 9.30125C12.3908 8.84537 12.5644 8.61472 12.7272 8.26195C12.9443 7.79522 13.0393 7.23079 12.985 6.73964C12.9416 6.34346 12.8711 6.09652 12.6974 5.74104C12.2795 4.87812 11.536 4.29199 10.5537 4.05591C10.304 3.99621 9.53879 3.97993 9.29186 4.02878Z" fill="#FF3449"/>
<path d="M43.2919 66.0796C42.8333 65.9874 42.3801 65.8083 42.0599 65.5885C41.9703 65.5288 41.9486 65.5233 41.9106 65.5559C41.7614 65.6834 41.3191 65.8788 40.9799 65.9684C39.5797 66.3374 38.1442 65.7621 37.3953 64.5302C36.9882 63.8599 36.8851 62.9183 37.1348 62.1531C37.3003 61.6375 37.5608 61.2305 37.9597 60.8641C38.1035 60.7312 39.0777 59.8086 40.1251 58.8127C41.1726 57.8141 42.0355 57 42.0463 57C42.068 57 45.2483 60.1098 45.9376 60.8071C46.3908 61.263 46.5644 61.4937 46.7272 61.8464C46.9443 62.3132 47.0393 62.8776 46.985 63.3688C46.9416 63.7649 46.8711 64.0119 46.6974 64.3674C46.2795 65.2303 45.536 65.8164 44.5537 66.0525C44.304 66.1122 43.5388 66.1285 43.2919 66.0796Z" fill="#FF3449"/>
</svg>
