<svg width="50.000000" height="70.000000" viewBox="0 0 50 70" fill="none" xmlns="http://www.w3.org/2000/svg" xmlns:xlink="http://www.w3.org/1999/xlink">
	<desc>
			Created with Pixso.
	</desc>
	<defs>
		<clipPath id="clip4_4215">
			<rect id="card2" rx="2.500000" width="49.000000" height="69.000000" transform="translate(0.500000 0.500000)" fill="white" fill-opacity="0"/>
		</clipPath>
	</defs>
	<rect id="card2" rx="2.500000" width="49.000000" height="69.000000" transform="translate(0.500000 0.500000)" fill="#FFFFFF" fill-opacity="1.000000"/>
	<g clip-path="url(#clip4_4215)">
		<path id="MCD" d="M26.49 32.67C28.85 32.67 30.63 34.03 30.91 36.38L28.73 36.38C28.57 35.26 27.72 34.58 26.54 34.58C24.97 34.58 23.93 35.79 23.93 37.91C23.93 40.08 24.98 41.23 26.53 41.23C27.67 41.23 28.53 40.6 28.73 39.52L30.91 39.53C30.68 41.4 29.1 43.14 26.49 43.14C23.77 43.14 21.75 41.22 21.75 37.91C21.75 34.57 23.8 32.67 26.49 32.67ZM9.12 43L9.12 32.81L11.78 32.81L14.58 39.66L14.7 39.66L17.5 32.81L20.16 32.81L20.16 43L18.07 43L18.07 36.37L17.98 36.37L15.35 42.94L13.93 42.94L11.29 36.34L11.21 36.34L11.21 43L9.12 43ZM41.05 37.9C41.05 41.08 39.17 43 36.07 43L32.46 43L32.46 32.81L36.1 32.81C39.17 32.81 41.05 34.72 41.05 37.9ZM34.61 34.66L34.61 41.15L35.98 41.15C37.89 41.15 38.9 40.16 38.9 37.9C38.9 35.63 37.89 34.66 35.98 34.66L34.61 34.66Z" fill="#960E89" fill-opacity="1.000000" fill-rule="evenodd"/>
		<path id="Vector" d="M5.36 6.56L3 10.12L3.12 10.27C3.49 10.74 8.24 16.59 8.25 16.58C8.25 16.57 9.33 14.97 10.63 13.01L13 9.44L10.38 6.22C8.94 4.44 7.75 2.99 7.74 2.99C7.73 3 6.65 4.6 5.36 6.56Z" fill="#FF3449" fill-opacity="1.000000" fill-rule="nonzero"/>
		<path id="Vector" d="M39.36 57.56L37 61.12L37.12 61.27C37.49 61.74 42.24 67.59 42.25 67.58C42.25 67.57 43.33 65.97 44.63 64.01L47 60.44L44.38 57.22C42.94 55.44 41.75 53.99 41.74 53.99C41.73 54 40.65 55.6 39.36 57.56Z" fill="#FF3449" fill-opacity="1.000000" fill-rule="nonzero"/>
	</g>
</svg>
