<svg width="50.000000" height="70.000000" viewBox="0 0 50 70" fill="none" xmlns="http://www.w3.org/2000/svg" xmlns:xlink="http://www.w3.org/1999/xlink">
	<desc>
			Created with Pixso.
	</desc>
	<defs>
		<clipPath id="clip27_2402">
			<rect id="card2" rx="2.500000" width="49.000000" height="69.000000" transform="translate(0.500000 0.500000)" fill="white" fill-opacity="0"/>
		</clipPath>
	</defs>
	<rect id="card2" rx="2.500000" width="49.000000" height="69.000000" transform="translate(0.500000 0.500000)" fill="#FFFFFF" fill-opacity="1.000000"/>
	<g clip-path="url(#clip27_2402)">
		<path id="MSFT" d="M26.52 35.74L24.45 35.74C24.37 34.94 23.74 34.47 22.71 34.47C21.66 34.47 21.07 34.96 21.07 35.61C21.06 36.34 21.8 36.67 22.69 36.87L23.6 37.09C25.37 37.49 26.65 38.39 26.65 40.09C26.65 41.95 25.19 43.14 22.7 43.14C20.23 43.14 18.65 42 18.6 39.8L20.68 39.8C20.75 40.82 21.56 41.33 22.68 41.33C23.77 41.33 24.47 40.83 24.48 40.08C24.47 39.4 23.86 39.08 22.75 38.81L21.64 38.53C19.92 38.12 18.86 37.26 18.87 35.76C18.86 33.91 20.49 32.67 22.72 32.67C24.99 32.67 26.48 33.93 26.52 35.74ZM6.12 43L6.12 32.81L8.78 32.81L11.58 39.66L11.7 39.66L14.5 32.81L17.16 32.81L17.16 43L15.07 43L15.07 36.37L14.98 36.37L12.35 42.94L10.93 42.94L8.29 36.34L8.21 36.34L8.21 43L6.12 43ZM30.25 43L28.1 43L28.1 32.81L34.84 32.81L34.84 34.59L30.25 34.59L30.25 37.01L34.39 37.01L34.39 38.79L30.25 38.79L30.25 43ZM39.01 34.59L35.89 34.59L35.89 32.81L44.26 32.81L44.26 34.59L41.14 34.59L41.14 43L39.01 43L39.01 34.59Z" fill="#960E89" fill-opacity="1.000000" fill-rule="evenodd"/>
		<path id="Vector" d="M9.29 4.02C8.83 4.12 8.37 4.3 8.06 4.52C7.97 4.57 7.94 4.58 7.91 4.55C7.76 4.42 7.31 4.22 6.97 4.14C5.57 3.77 4.14 4.34 3.39 5.57C2.98 6.24 2.88 7.19 3.13 7.95C3.3 8.47 3.56 8.87 3.95 9.24C4.1 9.37 5.07 10.29 6.12 11.29C7.17 12.29 8.03 13.1 8.04 13.1C8.06 13.1 11.24 9.99 11.93 9.3C12.39 8.84 12.56 8.61 12.72 8.26C12.94 7.79 13.03 7.23 12.98 6.73C12.94 6.34 12.87 6.09 12.69 5.74C12.27 4.87 11.53 4.29 10.55 4.05C10.3 3.99 9.53 3.97 9.29 4.02Z" fill="#FF3449" fill-opacity="1.000000" fill-rule="nonzero"/>
		<path id="Vector" d="M43.29 66.07C42.83 65.98 42.37 65.8 42.06 65.58C41.97 65.52 41.94 65.52 41.91 65.55C41.76 65.68 41.31 65.87 40.98 65.96C39.57 66.33 38.14 65.76 37.39 64.53C36.98 63.85 36.88 62.91 37.13 62.15C37.3 61.63 37.56 61.23 37.95 60.86C38.1 60.73 39.07 59.8 40.12 58.81C41.17 57.81 42.03 57 42.04 57C42.06 57 45.24 60.1 45.93 60.8C46.39 61.26 46.56 61.49 46.72 61.84C46.94 62.31 47.03 62.87 46.98 63.36C46.94 63.76 46.87 64.01 46.69 64.36C46.27 65.23 45.53 65.81 44.55 66.05C44.3 66.11 43.53 66.12 43.29 66.07Z" fill="#FF3449" fill-opacity="1.000000" fill-rule="nonzero"/>
	</g>
</svg>
