<svg width="50.000000" height="70.000000" viewBox="0 0 50 70" fill="none" xmlns="http://www.w3.org/2000/svg" xmlns:xlink="http://www.w3.org/1999/xlink">
	<desc>
			Created with Pixso.
	</desc>
	<defs>
		<clipPath id="clip4_3717">
			<rect id="card4" rx="2.500000" width="49.000000" height="69.000000" transform="translate(0.500000 0.500000)" fill="white" fill-opacity="0"/>
		</clipPath>
	</defs>
	<rect id="card4" rx="2.500000" width="49.000000" height="69.000000" transform="translate(0.500000 0.500000)" fill="#FFFFFF" fill-opacity="1.000000"/>
	<g clip-path="url(#clip4_3717)">
		<path id="NFLX" d="M14.04 32.81L16.18 32.81L16.18 43L14.33 43L9.9 36.59L9.82 36.59L9.82 43L7.67 43L7.67 32.81L9.56 32.81L13.95 39.22L14.04 39.22L14.04 32.81ZM20.11 43L17.96 43L17.96 32.81L24.7 32.81L24.7 34.59L20.11 34.59L20.11 37.01L24.25 37.01L24.25 38.79L20.11 38.79L20.11 43ZM32.66 43L26.15 43L26.15 32.81L28.3 32.81L28.3 41.22L32.66 41.22L32.66 43ZM33.67 32.81L36.11 32.81L38.16 36.28L38.24 36.28L40.3 32.81L42.73 32.81L39.63 37.91L42.81 43L40.33 43L38.24 39.52L38.16 39.52L36.07 43L33.61 43L36.79 37.91L33.67 32.81Z" fill="#960E89" fill-opacity="1.000000" fill-rule="evenodd"/>
		<path id="Vector" d="M9.29 4.02C8.83 4.12 8.37 4.3 8.06 4.51C7.97 4.57 7.94 4.58 7.91 4.55C7.76 4.42 7.31 4.22 6.97 4.14C5.57 3.77 4.14 4.34 3.39 5.57C2.98 6.24 2.88 7.19 3.13 7.95C3.3 8.47 3.56 8.87 3.95 9.24C4.1 9.37 5.07 10.29 6.12 11.29C7.17 12.29 8.03 13.1 8.04 13.1C8.06 13.1 11.24 9.99 11.93 9.3C12.39 8.84 12.56 8.61 12.72 8.26C12.94 7.79 13.03 7.23 12.98 6.73C12.94 6.34 12.87 6.09 12.69 5.74C12.27 4.87 11.53 4.29 10.55 4.05C10.3 3.99 9.53 3.97 9.29 4.02Z" fill="#FF3449" fill-opacity="1.000000" fill-rule="nonzero"/>
		<path id="Vector" d="M43.29 66.07C42.83 65.98 42.37 65.8 42.06 65.58C41.97 65.52 41.94 65.52 41.91 65.55C41.76 65.68 41.31 65.87 40.98 65.96C39.57 66.33 38.14 65.76 37.39 64.53C36.98 63.85 36.88 62.91 37.13 62.15C37.3 61.63 37.56 61.23 37.95 60.86C38.1 60.73 39.07 59.8 40.12 58.81C41.17 57.81 42.03 57 42.04 57C42.06 57 45.24 60.1 45.93 60.8C46.39 61.26 46.56 61.49 46.72 61.84C46.94 62.31 47.03 62.87 46.98 63.36C46.94 63.76 46.87 64.01 46.69 64.36C46.27 65.23 45.53 65.81 44.55 66.05C44.3 66.11 43.53 66.12 43.29 66.07Z" fill="#FF3449" fill-opacity="1.000000" fill-rule="nonzero"/>
	</g>
</svg>
