<svg width="50.000000" height="70.000000" viewBox="0 0 50 70" fill="none" xmlns="http://www.w3.org/2000/svg" xmlns:xlink="http://www.w3.org/1999/xlink">
	<desc>
			Created with Pixso.
	</desc>
	<defs>
		<clipPath id="clip28_3180">
			<rect id="card4" rx="2.500000" width="49.000000" height="69.000000" transform="translate(0.500000 0.500000)" fill="white" fill-opacity="0"/>
		</clipPath>
	</defs>
	<rect id="card4" rx="2.500000" width="49.000000" height="69.000000" transform="translate(0.500000 0.500000)" fill="#FFFFFF" fill-opacity="1.000000"/>
	<g clip-path="url(#clip28_3180)">
		<path id="NKE" d="M17.99 32.81L20.14 32.81L20.14 43L18.28 43L13.85 36.59L13.77 36.59L13.77 43L11.62 43L11.62 32.81L13.51 32.81L17.9 39.22L17.99 39.22L17.99 32.81ZM24.06 43L21.91 43L21.91 32.81L24.06 32.81L24.06 37.3L24.2 37.3L27.86 32.81L30.44 32.81L26.66 37.37L30.49 43L27.91 43L25.12 38.81L24.06 40.1L24.06 43ZM38.45 43L31.57 43L31.57 32.81L38.43 32.81L38.43 34.59L33.72 34.59L33.72 37.01L38.07 37.01L38.07 38.79L33.72 38.79L33.72 41.22L38.45 41.22L38.45 43Z" fill="#960E89" fill-opacity="1.000000" fill-rule="evenodd"/>
		<path id="Vector" d="M5.36 6.56L3 10.12L3.12 10.27C3.49 10.74 8.24 16.59 8.25 16.58C8.25 16.58 9.33 14.97 10.63 13.01L13 9.44L10.38 6.22C8.94 4.44 7.75 3 7.74 3C7.73 3 6.65 4.6 5.36 6.56Z" fill="#FF3449" fill-opacity="1.000000" fill-rule="nonzero"/>
		<path id="Vector" d="M39.36 57.56L37 61.12L37.12 61.27C37.49 61.74 42.24 67.59 42.25 67.58C42.25 67.58 43.33 65.97 44.63 64.01L47 60.44L44.38 57.22C42.94 55.44 41.75 54 41.74 54C41.73 54 40.65 55.6 39.36 57.56Z" fill="#FF3449" fill-opacity="1.000000" fill-rule="nonzero"/>
	</g>
</svg>
