<svg width="50.000000" height="70.000000" viewBox="0 0 50 70" fill="none" xmlns="http://www.w3.org/2000/svg" xmlns:xlink="http://www.w3.org/1999/xlink">
	<desc>
			Created with Pixso.
	</desc>
	<defs>
		<clipPath id="clip4_3694">
			<rect id="card1" rx="2.500000" width="49.000000" height="69.000000" transform="translate(0.500000 0.500000)" fill="white" fill-opacity="0"/>
		</clipPath>
	</defs>
	<rect id="card1" rx="2.500000" width="49.000000" height="69.000000" transform="translate(0.500000 0.500000)" fill="#FFFFFF" fill-opacity="1.000000"/>
	<g clip-path="url(#clip4_3694)">
		<path id="PEP" d="M14.68 43L12.52 43L12.52 32.81L16.54 32.81C18.85 32.81 20.19 34.24 20.19 36.27C20.19 38.3 18.83 39.69 16.49 39.69L14.68 39.69L14.68 43ZM28.47 43L21.59 43L21.59 32.81L28.45 32.81L28.45 34.59L23.75 34.59L23.75 37.01L28.1 37.01L28.1 38.79L23.75 38.79L23.75 41.22L28.47 41.22L28.47 43ZM32.32 43L30.17 43L30.17 32.81L34.18 32.81C36.5 32.81 37.83 34.24 37.83 36.27C37.83 38.3 36.47 39.69 34.13 39.69L32.32 39.69L32.32 43ZM14.68 34.57L14.68 37.97L16.14 37.97C17.37 37.97 17.97 37.27 17.97 36.27C17.97 35.25 17.37 34.57 16.13 34.57L14.68 34.57ZM32.32 34.57L32.32 37.97L33.78 37.97C35.01 37.97 35.62 37.27 35.62 36.27C35.62 35.25 35.01 34.57 33.77 34.57L32.32 34.57Z" fill="#960E89" fill-opacity="1.000000" fill-rule="evenodd"/>
		<path id="Vector" d="M6.05 4.84C5.01 5.86 4.09 6.76 4 6.85C3.73 7.1 3.43 7.49 3.27 7.83C3.03 8.32 2.99 8.5 3 9.15C3 9.68 3 9.72 3.11 10.03C3.25 10.46 3.48 10.84 3.78 11.16C4.2 11.61 4.73 11.92 5.31 12.08C5.71 12.19 6.54 12.19 6.93 12.08C7.26 11.99 7.57 11.86 7.82 11.7L8.01 11.58L8.3 11.74C9.27 12.25 10.33 12.26 11.3 11.78C12.1 11.38 12.64 10.75 12.9 9.91C12.98 9.63 12.99 9.54 12.99 9.1C13 8.67 12.98 8.55 12.92 8.32C12.75 7.73 12.39 7.16 11.97 6.81C11.85 6.71 10.96 5.87 9.99 4.94C9.02 4.02 8.15 3.2 8.07 3.13L7.93 3L6.05 4.84Z" fill="#200927" fill-opacity="1.000000" fill-rule="nonzero"/>
		<path id="Vector" d="M7.98 12.14C7.82 13.29 7.56 14.03 7.07 14.71C6.89 14.96 6.41 15.46 6.16 15.65L6.05 15.73L6.63 15.76C6.95 15.77 7.78 15.79 8.46 15.8C9.15 15.81 9.81 15.82 9.93 15.83L10.16 15.85L9.82 15.54C8.8 14.57 8.24 13.47 8.08 12.07L8.04 11.71L7.98 12.14Z" fill="#200927" fill-opacity="1.000000" fill-rule="nonzero"/>
		<path id="Vector" d="M39.05 66.01C38.01 64.99 37.09 64.09 37 64C36.73 63.75 36.43 63.36 36.27 63.02C36.03 62.53 35.99 62.35 36 61.7C36 61.17 36 61.13 36.11 60.82C36.25 60.39 36.48 60.01 36.78 59.69C37.2 59.24 37.73 58.93 38.31 58.77C38.71 58.66 39.54 58.66 39.93 58.77C40.26 58.86 40.57 58.99 40.82 59.15L41.01 59.27L41.3 59.11C42.27 58.6 43.33 58.59 44.3 59.07C45.1 59.47 45.64 60.1 45.9 60.94C45.98 61.22 45.99 61.31 45.99 61.75C46 62.18 45.98 62.3 45.92 62.53C45.75 63.12 45.39 63.69 44.97 64.04C44.85 64.14 43.96 64.98 42.99 65.9C42.02 66.83 41.15 67.65 41.07 67.72L40.93 67.85L39.05 66.01Z" fill="#200927" fill-opacity="1.000000" fill-rule="nonzero"/>
		<path id="Vector" d="M40.98 58.71C40.82 57.56 40.56 56.82 40.07 56.14C39.89 55.88 39.41 55.39 39.16 55.2L39.05 55.12L39.63 55.09C39.95 55.08 40.78 55.06 41.46 55.05C42.15 55.04 42.81 55.03 42.93 55.02L43.16 55L42.82 55.31C41.8 56.28 41.24 57.38 41.08 58.78L41.04 59.14L40.98 58.71Z" fill="#200927" fill-opacity="1.000000" fill-rule="nonzero"/>
	</g>
</svg>
