<svg width="50.000000" height="70.000000" viewBox="0 0 50 70" fill="none" xmlns="http://www.w3.org/2000/svg" xmlns:xlink="http://www.w3.org/1999/xlink">
	<desc>
			Created with Pixso.
	</desc>
	<defs>
		<clipPath id="clip3_550">
			<rect id="card1" rx="2.500000" width="49.000000" height="69.000000" transform="matrix(-1 -8.74228e-08 -8.74228e-08 1 50.5 0.5)" fill="white" fill-opacity="0"/>
		</clipPath>
	</defs>
	<rect id="card1" rx="2.500000" width="49.000000" height="69.000000" transform="matrix(-1 -8.74228e-08 -8.74228e-08 1 50.5 0.5)" fill="#FFFFFF" fill-opacity="1.000000"/>
	<g clip-path="url(#clip3_550)">
		<path id="SBUX" d="M14.15 35.74L12.09 35.74C12.01 34.94 11.38 34.47 10.35 34.47C9.29 34.47 8.71 34.96 8.71 35.61C8.7 36.34 9.44 36.67 10.32 36.87L11.24 37.09C13.01 37.49 14.28 38.39 14.29 40.09C14.28 41.95 12.82 43.14 10.34 43.14C7.87 43.14 6.29 42 6.24 39.8L8.32 39.8C8.39 40.82 9.19 41.33 10.31 41.33C11.41 41.33 12.11 40.83 12.12 40.08C12.11 39.4 11.5 39.08 10.38 38.81L9.28 38.53C7.56 38.12 6.5 37.26 6.5 35.76C6.49 33.91 8.13 32.67 10.36 32.67C12.63 32.67 14.12 33.93 14.15 35.74ZM20.08 43L15.73 43L15.73 32.81L19.81 32.81C22.05 32.81 23.19 33.9 23.19 35.42C23.19 36.62 22.41 37.37 21.35 37.61L21.35 37.71C22.51 37.77 23.59 38.67 23.59 40.18C23.59 41.8 22.37 43 20.08 43ZM31.27 39.24L31.27 32.81L33.43 32.81L33.43 39.43C33.43 41.65 31.73 43.14 29.2 43.14C26.66 43.14 24.98 41.65 24.98 39.43L24.98 32.81L27.14 32.81L27.14 39.24C27.14 40.4 27.96 41.25 29.2 41.25C30.46 41.25 31.27 40.4 31.27 39.24ZM34.77 32.81L37.21 32.81L39.27 36.28L39.34 36.28L41.41 32.81L43.84 32.81L40.73 37.91L43.91 43L41.43 43L39.34 39.52L39.27 39.52L37.18 43L34.71 43L37.9 37.91L34.77 32.81ZM17.88 34.55L17.88 37.08L19.48 37.08C20.36 37.08 21.01 36.59 21.01 35.78C21.01 35.04 20.47 34.55 19.52 34.55L17.88 34.55ZM17.88 38.53L17.88 41.23L19.64 41.23C20.84 41.23 21.36 40.73 21.36 39.97C21.36 39.13 20.72 38.53 19.69 38.53L17.88 38.53Z" fill="#960E89" fill-opacity="1.000000" fill-rule="evenodd"/>
		<path id="Vector" d="M5.36 6.56L3 10.12L3.12 10.27C3.49 10.74 8.24 16.59 8.25 16.58C8.25 16.58 9.33 14.97 10.63 13.01L13 9.44L10.38 6.22C8.94 4.44 7.75 3 7.74 3C7.73 3 6.65 4.6 5.36 6.56Z" fill="#FF3449" fill-opacity="1.000000" fill-rule="nonzero"/>
		<path id="Vector" d="M39.36 57.56L37 61.12L37.12 61.27C37.49 61.74 42.24 67.59 42.25 67.58C42.25 67.58 43.33 65.97 44.63 64.01L47 60.44L44.38 57.22C42.94 55.44 41.75 54 41.74 54C41.73 54 40.65 55.6 39.36 57.56Z" fill="#FF3449" fill-opacity="1.000000" fill-rule="nonzero"/>
	</g>
</svg>
