<svg width="50" height="70" viewBox="0 0 50 70" fill="none" xmlns="http://www.w3.org/2000/svg">
<rect width="50" height="70" rx="3" fill="white"/>
<path d="M6.05401 4.84893C5.01876 5.86687 4.09778 6.76708 4.00775 6.85018C3.73076 7.10293 3.43646 7.49418 3.27373 7.83003C3.03483 8.32861 2.99674 8.50865 3.00021 9.15265C3.00021 9.68239 3.00367 9.72048 3.111 10.0356C3.25642 10.4683 3.48147 10.8457 3.78616 11.1677C4.20857 11.6144 4.73139 11.926 5.31653 12.0853C5.71816 12.1926 6.54913 12.1926 6.93691 12.0853C7.26584 11.9953 7.57053 11.8637 7.82328 11.7044L8.01025 11.5867L8.30801 11.7425C9.27747 12.2515 10.337 12.2653 11.3064 11.784C12.1097 11.3859 12.6463 10.7557 12.9026 9.91437C12.9857 9.63738 12.9995 9.5439 12.9995 9.10071C13.003 8.67484 12.9891 8.55712 12.9233 8.32515C12.7537 7.73308 12.3971 7.16872 11.9712 6.81209C11.8535 6.71515 10.9636 5.87379 9.99072 4.94934C9.02126 4.02143 8.15913 3.20431 8.07949 3.1316L7.93407 3.00003L6.05401 4.84893Z" fill="#200927"/>
<path d="M7.98966 12.1475C7.82693 13.297 7.56379 14.0379 7.07906 14.7131C6.89209 14.9693 6.41429 15.4644 6.16846 15.6514L6.0542 15.7379L6.63588 15.7622C6.95788 15.7726 7.78192 15.7899 8.46747 15.8003C9.15301 15.8107 9.81433 15.828 9.93897 15.8384L10.164 15.8591L9.82818 15.5441C8.80332 14.5781 8.24934 13.477 8.09007 12.0782L8.04852 11.7147L7.98966 12.1475Z" fill="#200927"/>
<path d="M39.054 66.0104C38.0188 64.9925 37.0978 64.0923 37.0078 64.0092C36.7308 63.7564 36.4365 63.3652 36.2737 63.0293C36.0348 62.5308 35.9967 62.3507 36.0002 61.7067C36.0002 61.177 36.0037 61.1389 36.111 60.8238C36.2564 60.391 36.4815 60.0136 36.7862 59.6916C37.2086 59.245 37.7314 58.9334 38.3165 58.7741C38.7182 58.6668 39.5491 58.6668 39.9369 58.7741C40.2658 58.8641 40.5705 58.9957 40.8233 59.155L41.0102 59.2727L41.308 59.1169C42.2775 58.6079 43.337 58.5941 44.3064 59.0753C45.1097 59.4735 45.6463 60.1037 45.9026 60.945C45.9857 61.222 45.9995 61.3155 45.9995 61.7587C46.003 62.1845 45.9891 62.3023 45.9233 62.5342C45.7537 63.1263 45.3971 63.6907 44.9712 64.0473C44.8535 64.1442 43.9636 64.9856 42.9907 65.91C42.0213 66.8379 41.1591 67.6551 41.0795 67.7278L40.9341 67.8593L39.054 66.0104Z" fill="#200927"/>
<path d="M40.9897 58.7119C40.8269 57.5624 40.5638 56.8214 40.0791 56.1463C39.8921 55.8901 39.4143 55.395 39.1685 55.208L39.0542 55.1214L39.6359 55.0972C39.9579 55.0868 40.7819 55.0695 41.4675 55.0591C42.153 55.0487 42.8143 55.0314 42.939 55.021L43.164 55.0002L42.8282 55.3153C41.8033 56.2813 41.2493 57.3823 41.0901 58.7811L41.0485 59.1447L40.9897 58.7119Z" fill="#200927"/>
</svg>
