<svg width="51.000000" height="51.000000" viewBox="0 0 51 51" fill="none" xmlns="http://www.w3.org/2000/svg" xmlns:xlink="http://www.w3.org/1999/xlink">
	<desc>
			Created with Pixso.
	</desc>
	<defs>
		<clipPath id="clip234_213">
			<rect id="switch-off-on-power-energy-battery-ecology-svgrepo-com 1" rx="-0.500000" width="29.000000" height="29.000000" transform="translate(11.500000 10.500000)" fill="white" fill-opacity="0"/>
		</clipPath>
		<clipPath id="clip234_200">
			<rect id="Frame 56" rx="24.500000" width="49.000000" height="49.000000" transform="translate(1.000000 1.000000)" fill="white" fill-opacity="0"/>
		</clipPath>
		<linearGradient x1="0.000000" y1="25.500000" x2="51.000000" y2="25.500000" id="paint_linear_234_200_0" gradientUnits="userSpaceOnUse">
			<stop stop-color="#F8D05F"/>
			<stop offset="0.520000" stop-color="#927A38"/>
			<stop offset="1.000000" stop-color="#F8D05F"/>
		</linearGradient>
	</defs>
	<rect id="Frame 56" rx="24.500000" width="49.000000" height="49.000000" transform="translate(1.000000 1.000000)" fill="#2A1163" fill-opacity="1.000000"/>
	<g clip-path="url(#clip234_200)">
		<rect id="switch-off-on-power-energy-battery-ecology-svgrepo-com 1" rx="-0.500000" width="29.000000" height="29.000000" transform="translate(11.500000 10.500000)" fill="#FFFFFF" fill-opacity="0"/>
		<g clip-path="url(#clip234_213)">
			<path id="Vector" d="M34.44 16.54C34.16 16.27 33.79 16.11 33.39 16.12C33 16.12 32.63 16.27 32.35 16.55C32.08 16.83 31.92 17.2 31.92 17.59C31.92 17.98 32.07 18.36 32.34 18.64C33.6 19.9 34.46 21.51 34.81 23.26C35.16 25 34.98 26.82 34.3 28.46C33.61 30.11 32.46 31.52 30.97 32.51C29.49 33.5 27.75 34.03 25.97 34.03C24.18 34.03 22.44 33.5 20.96 32.51C19.48 31.52 18.32 30.11 17.64 28.46C16.96 26.82 16.78 25 17.12 23.26C17.47 21.51 18.33 19.9 19.59 18.64C19.87 18.36 20.02 17.98 20.02 17.59C20.01 17.2 19.86 16.83 19.58 16.55C19.3 16.27 18.93 16.12 18.54 16.12C18.15 16.11 17.77 16.27 17.49 16.54C12.84 21.19 12.84 28.84 17.49 33.49C22.14 38.14 29.79 38.14 34.44 33.49C35.56 32.38 36.46 31.06 37.06 29.61C37.67 28.15 37.99 26.59 37.99 25.01C37.99 23.44 37.67 21.88 37.06 20.42C36.46 18.97 35.56 17.65 34.44 16.54ZM25.97 26.51C26.36 26.51 26.75 26.36 27.03 26.08C27.31 25.79 27.47 25.41 27.47 25.01L27.47 14.51C27.47 14.12 27.31 13.74 27.03 13.45C26.75 13.17 26.36 13.01 25.97 13.01C25.57 13.01 25.19 13.17 24.91 13.45C24.62 13.74 24.47 14.12 24.47 14.51L24.47 25.01C24.47 25.41 24.62 25.79 24.91 26.08C25.19 26.36 25.57 26.51 25.97 26.51Z" fill="#FFD762" fill-opacity="1.000000" fill-rule="nonzero"/>
		</g>
	</g>
	<rect id="Frame 56" rx="24.500000" width="49.000000" height="49.000000" transform="translate(1.000000 1.000000)" stroke="url(#paint_linear_234_200_0)" stroke-opacity="1.000000" stroke-width="2.000000"/>
</svg>
