<svg width="114.000031" height="68.930237" viewBox="0 0 114 68.9302" fill="none" xmlns="http://www.w3.org/2000/svg" xmlns:xlink="http://www.w3.org/1999/xlink">
	<desc>
			Created with Pixso.
	</desc>
	<defs>
		<clipPath id="clip148_3184">
			<rect id="player 2" width="26.511627" height="26.511627" transform="translate(0.000000 21.209290)" fill="white" fill-opacity="0"/>
		</clipPath>
		<clipPath id="clip148_3188">
			<rect id="player 3" width="26.511627" height="26.511627" transform="translate(87.488403 21.209290)" fill="white" fill-opacity="0"/>
		</clipPath>
		<clipPath id="clip148_3192">
			<rect id="sword 1" width="68.930229" height="68.930229" transform="translate(22.534912 0.000000)" fill="white" fill-opacity="0"/>
		</clipPath>
	</defs>
	<rect id="player 2" width="26.511627" height="26.511627" transform="translate(0.000000 21.209290)" fill="#FFFFFF" fill-opacity="0"/>
	<g clip-path="url(#clip148_3184)">
		<path id="Vector" d="M13.2558 21.2093C20.5773 21.2093 26.5116 27.1436 26.5116 34.4651C26.5116 41.7866 20.5773 47.7209 13.2558 47.7209C5.93439 47.7209 0 41.7866 0 34.4651C0 27.1436 5.93439 21.2093 13.2558 21.2093Z" fill="#F8D05F" fill-opacity="1.000000" fill-rule="evenodd"/>
		<path id="Vector" d="M13.2558 28.6326C15.3057 28.6326 16.9675 30.2943 16.9675 32.3442C16.9675 34.3941 15.3057 36.0558 13.2558 36.0558C11.2059 36.0558 9.54419 34.3941 9.54419 32.3442C9.54419 30.2943 11.2059 28.6326 13.2558 28.6326Z" fill="#1F0D15" fill-opacity="1.000000" fill-rule="evenodd"/>
		<path id="Vector" d="M13.2559 38.1768C18.2336 38.1768 22.2698 41.8884 22.2698 41.8884C22.2698 41.8884 18.2336 45.6 13.2559 45.6C8.27802 45.6 4.24188 41.8884 4.24188 41.8884C4.24188 41.8884 8.27802 38.1768 13.2559 38.1768Z" fill="#1F0D15" fill-opacity="1.000000" fill-rule="evenodd"/>
	</g>
	<rect id="player 3" width="26.511627" height="26.511627" transform="translate(87.488403 21.209290)" fill="#FFFFFF" fill-opacity="0"/>
	<g clip-path="url(#clip148_3188)">
		<path id="Vector" d="M100.744 21.2093C108.066 21.2093 114 27.1436 114 34.4651C114 41.7866 108.066 47.7209 100.744 47.7209C93.4228 47.7209 87.4884 41.7866 87.4884 34.4651C87.4884 27.1436 93.4228 21.2093 100.744 21.2093Z" fill="#F8D05F" fill-opacity="1.000000" fill-rule="evenodd"/>
		<path id="Vector" d="M100.744 28.6326C102.794 28.6326 104.456 30.2943 104.456 32.3442C104.456 34.3941 102.794 36.0558 100.744 36.0558C98.6943 36.0558 97.0326 34.3941 97.0326 32.3442C97.0326 30.2943 98.6943 28.6326 100.744 28.6326Z" fill="#1F0D15" fill-opacity="1.000000" fill-rule="evenodd"/>
		<path id="Vector" d="M100.744 38.1768C105.722 38.1768 109.758 41.8884 109.758 41.8884C109.758 41.8884 105.722 45.6 100.744 45.6C95.7664 45.6 91.7302 41.8884 91.7302 41.8884C91.7302 41.8884 95.7664 38.1768 100.744 38.1768Z" fill="#1F0D15" fill-opacity="1.000000" fill-rule="evenodd"/>
	</g>
	<rect id="sword 1" width="68.930229" height="68.930229" transform="translate(22.534912 0.000000)" fill="#FFFFFF" fill-opacity="0"/>
	<g clip-path="url(#clip148_3192)">
		<path id="Vector" d="M90.6721 60.0106L89.6272 58.9656C88.6707 58.0092 87.1741 57.9265 86.1143 58.7047L74.3375 46.928C75.2342 45.4486 75.8663 43.8197 76.1929 42.0988C76.394 41.0412 76.1112 39.9699 75.4182 39.1595C74.7376 38.3651 73.7491 37.9318 72.7007 37.9617C71.6144 37.9974 70.6465 38.5479 70.0385 39.3768L65.1289 34.4672L87.0441 12.5508C87.158 12.4369 87.2465 12.3013 87.304 12.1519L91.3882 1.56488C91.5515 1.14069 91.4503 0.660187 91.1284 0.338379C90.8065 0.0165405 90.3237 -0.0858154 89.9019 0.0785217L79.3161 4.16272C79.1655 4.22025 79.0298 4.30984 78.916 4.42258L57.0006 26.3391L35.0842 4.42258C34.9703 4.30997 34.8347 4.22025 34.6853 4.16272L24.0983 0.0785217C23.6752 -0.0858154 23.1936 0.0164185 22.8718 0.338379C22.55 0.660187 22.4488 1.14069 22.6119 1.56488L26.6962 12.1519C26.7537 12.3013 26.8422 12.4369 26.956 12.5508L48.8724 34.4672L43.9618 39.3768C43.3538 38.5479 42.3859 37.9974 41.2996 37.9617C40.2432 37.9295 39.2627 38.3651 38.5833 39.1595C37.889 39.9699 37.6063 41.0412 37.8074 42.0988C38.1328 43.8162 38.7649 45.4416 39.665 46.9256L27.886 58.7046C26.8262 57.9276 25.3306 58.0091 24.3731 58.9655L23.3294 60.0104C22.273 61.0668 22.273 62.7865 23.3294 63.8429L27.624 68.1375C28.1528 68.6662 28.847 68.9307 29.5414 68.9307C30.2347 68.9307 30.929 68.6662 31.4577 68.1375L32.5014 67.0938C33.4589 66.1363 33.5395 64.6407 32.7635 63.5809L44.515 51.8295C46.0759 52.7963 47.8105 53.4688 49.6509 53.8066C49.851 53.8434 50.051 53.8606 50.2509 53.8606C51.0372 53.8606 51.8051 53.5801 52.4235 53.056C53.2225 52.3766 53.6708 51.3857 53.65 50.3327C53.6282 49.158 53.012 48.1142 52.0845 47.5118L57.0009 42.5954L61.9173 47.5118C60.9885 48.1141 60.3724 49.159 60.3505 50.3384C60.331 51.3856 60.7781 52.3765 61.577 53.0558C62.1966 53.58 62.9645 53.8605 63.7509 53.8605C63.9496 53.8605 64.1509 53.8432 64.3508 53.8065C66.1912 53.4685 67.9258 52.796 69.4856 51.8293L81.237 63.5807C80.8967 64.0428 80.706 64.5935 80.706 65.1774C80.706 65.9016 80.9877 66.5822 81.4991 67.0937L82.5429 68.1374C83.0716 68.6661 83.7659 68.9305 84.4603 68.9305C85.1535 68.9305 85.8478 68.6661 86.3765 68.1374L90.671 63.844C91.1825 63.3313 91.4654 62.6507 91.4654 61.9265C91.4653 61.2026 91.1824 60.5208 90.6721 60.0106ZM31.1666 61.9268L29.5412 60.3002L40.9845 48.8557L41.8294 49.7006L41.8398 49.712C41.842 49.7143 41.8456 49.7166 41.8478 49.7189L42.6111 50.4821L31.1666 61.9268ZM80.3702 6.2204L88.3099 3.15808L85.2465 11.0966L63.5034 32.8418L61.8768 31.2152L81.9644 11.1286C82.4128 10.6792 82.4128 9.95154 81.9644 9.50323C81.5149 9.05371 80.7874 9.05371 80.3391 9.50323L60.2514 29.5897L58.626 27.9643L80.3702 6.2204ZM49.6714 46.6727C49.1967 46.5049 48.7484 46.2853 48.3161 46.0347C48.1597 45.9417 48.0045 45.8474 47.8541 45.7439C47.7344 45.6635 47.615 45.5818 47.5001 45.4944C47.2173 45.2784 46.9402 45.0519 46.6805 44.7979C46.4391 44.5529 46.2241 44.291 46.0195 44.0219C45.9148 43.8828 45.8184 43.7392 45.7241 43.5931C45.647 43.4782 45.5747 43.3598 45.5045 43.2414C45.3849 43.0345 45.2689 42.8253 45.17 42.608C45.1608 42.5896 45.1539 42.57 45.1459 42.5517C45.0287 42.2919 44.924 42.0253 44.8367 41.7528L50.4981 36.0926L55.3743 40.97L49.6714 46.6727ZM32.0368 11.1288C31.5873 10.6794 31.5873 9.95169 32.0368 9.50336C32.4851 9.05386 33.2128 9.05386 33.6622 9.50336L64.7299 40.5711C65.1794 41.0205 65.1794 41.7482 64.7299 42.1965C64.5057 42.4219 64.2114 42.5333 63.9172 42.5333C63.6229 42.5333 63.3287 42.4217 63.1045 42.1965L32.0368 11.1288ZM73.9341 41.67C73.4777 44.0759 72.3224 46.2738 70.5776 48.043L70.5281 48.0935C68.7534 49.8637 66.413 51.0902 63.9346 51.5455C63.522 51.6226 63.2116 51.426 63.0656 51.3029C62.7943 51.0729 62.6426 50.7362 62.6495 50.3764C62.6586 49.8361 63.0288 49.3786 63.5288 49.2866C63.7829 49.2407 64.0276 49.1555 64.2772 49.0888C64.2863 49.0865 64.2944 49.0876 64.3035 49.0853C64.3197 49.0807 64.3334 49.0739 64.3495 49.0693C64.7334 48.9646 65.1094 48.8394 65.4794 48.6888C65.5793 48.6485 65.6772 48.6025 65.7748 48.56C66.0725 48.4266 66.3679 48.291 66.6542 48.1289C66.8749 48.007 67.0853 47.8645 67.298 47.7255C67.4716 47.6106 67.6486 47.5071 67.8175 47.3806C68.2083 47.091 68.5854 46.7759 68.9418 46.4265L68.9532 46.415C68.9543 46.4139 68.9555 46.4139 68.9568 46.4115C68.9786 46.3908 68.9948 46.3656 69.0154 46.3438C69.3245 46.0242 69.6131 45.6885 69.8752 45.3333C70.0786 45.062 70.2487 44.7735 70.4212 44.4861C70.4821 44.3849 70.551 44.2907 70.6073 44.1872C70.8085 43.8239 70.9763 43.447 71.1304 43.0629C71.1431 43.0297 71.1603 42.9975 71.173 42.9641C71.327 42.564 71.4489 42.1549 71.55 41.7375C71.5546 41.7157 71.5638 41.6962 71.5685 41.6744C71.5708 41.6686 71.5697 41.6617 71.5708 41.6548C71.6098 41.4882 71.6684 41.3295 71.6983 41.1606C71.7868 40.656 72.2397 40.2766 72.7755 40.2594C72.7881 40.2582 72.8019 40.2582 72.8145 40.2582C73.264 40.2582 73.5433 40.5042 73.6709 40.6536C73.9088 40.9309 74.0041 41.3023 73.9341 41.67ZM89.0455 62.2176L84.7509 66.5123C84.5899 66.672 84.3279 66.6732 84.1692 66.5123L83.1243 65.4685C83.0196 65.3639 83.0048 65.2409 83.0048 65.1777C83.0048 65.1145 83.0197 64.9915 83.1255 64.8869L83.6463 64.365L86.8983 61.1142L87.4201 60.5912C87.5005 60.5118 87.6063 60.4715 87.7109 60.4715C87.8167 60.4715 87.9214 60.5118 88.0018 60.5912L89.0455 61.6361C89.1502 61.7408 89.1662 61.8625 89.1662 61.9269C89.1662 61.99 89.1502 62.113 89.0455 62.2176Z" fill="#FFD762" fill-opacity="1.000000" fill-rule="nonzero"/>
	</g>
</svg>
