<svg width="110.000000" height="28.000000" viewBox="0 0 110 28" fill="none" xmlns="http://www.w3.org/2000/svg" xmlns:xlink="http://www.w3.org/1999/xlink">
	<desc>
			Created with Pixso.
	</desc>
	<defs>
		<clipPath id="clip151_4825">
			<rect id="Frame 31" rx="5.000000" width="110.000000" height="28.000000" fill="white" fill-opacity="0"/>
		</clipPath>
	</defs>
	<rect id="Frame 31" rx="5.000000" width="110.000000" height="28.000000" fill="#9519E3" fill-opacity="1.000000"/>
	<g clip-path="url(#clip151_4825)">
		<path id="Finished 8th" d="M23.9996 11.2998C23.9996 11.7886 23.5724 12.1851 23.0597 12.1851C22.5435 12.1851 22.1197 11.7886 22.1197 11.2998C22.1197 10.8145 22.5435 10.4111 23.0597 10.4111C23.5724 10.4111 23.9996 10.8145 23.9996 11.2998ZM35.8469 11.2998C35.8469 11.7886 35.4197 12.1851 34.907 12.1851C34.3908 12.1851 33.967 11.7886 33.967 11.2998C33.967 10.8145 34.3908 10.4111 34.907 10.4111C35.4197 10.4111 35.8469 10.8145 35.8469 11.2998ZM81.3053 18.2861C81.2984 19.937 79.8014 21.1401 77.6822 21.1401C75.546 21.1401 74.0489 19.937 74.0592 18.2861C74.0489 17.0044 74.9478 15.9243 76.1065 15.7192L76.1065 15.6611C75.0982 15.4219 74.4249 14.4888 74.4351 13.395C74.4249 11.8364 75.7989 10.6777 77.6822 10.6777C79.5484 10.6777 80.919 11.8364 80.9293 13.395C80.919 14.4922 80.2491 15.4219 79.2579 15.6611L79.2579 15.7192C80.3961 15.9243 81.2984 17.0044 81.3053 18.2861ZM15.7623 21L14.2242 21L14.2242 10.8179L20.5406 10.8179L20.5406 12.1406L15.7623 12.1406L15.7623 15.2441L20.086 15.2441L20.086 16.5601L15.7623 16.5601L15.7623 21ZM48.4611 14.5503C47.4015 14.5503 46.629 15.2476 46.629 16.4644L46.629 21L45.1422 21L45.1422 10.8179L46.6085 10.8179L46.6085 14.605L46.7042 14.605C47.0631 13.7812 47.7775 13.2651 48.9669 13.2651C50.5392 13.2651 51.5817 14.2393 51.5817 16.1431L51.5817 21L50.0949 21L50.0949 16.3208C50.0949 15.2031 49.483 14.5503 48.4611 14.5503ZM66.8609 19.8105C66.5909 20.2993 66.044 21.1504 64.6529 21.1504C62.797 21.1504 61.4605 19.667 61.4605 17.1958C61.4605 14.7212 62.8175 13.2651 64.6632 13.2651C66.0851 13.2651 66.5909 14.1299 66.8609 14.6016L66.9498 14.6016L66.9498 10.8179L68.4366 10.8179L68.4366 21L66.984 21L66.984 19.8105L66.8609 19.8105ZM91.7835 14.5503C90.7239 14.5503 89.9515 15.2476 89.9515 16.4644L89.9515 21L88.4647 21L88.4647 10.8179L89.931 10.8179L89.931 14.605L90.0267 14.605C90.3856 13.7812 91.0999 13.2651 92.2894 13.2651C93.8616 13.2651 94.9041 14.2393 94.9041 16.1431L94.9041 21L93.4173 21L93.4173 16.3208C93.4173 15.2031 92.8055 14.5503 91.7835 14.5503ZM85.0998 13.3643L86.6653 13.3643L86.6653 14.5571L85.0998 14.5571L85.0998 18.7578C85.0998 19.6191 85.5339 19.7764 86.0158 19.7764C86.2551 19.7764 86.4362 19.7319 86.5354 19.7114L86.8054 20.9419C86.6311 21.0034 86.3132 21.0957 85.8415 21.0991C84.6692 21.123 83.6096 20.4531 83.613 19.0654L83.613 14.5571L82.4953 14.5571L82.4953 13.3643L83.613 13.3643L83.613 11.5356L85.0998 11.5356L85.0998 13.3643ZM75.9322 13.5215C75.922 14.4922 76.6534 15.145 77.6822 15.145C78.6973 15.145 79.422 14.4922 79.4322 13.5215C79.422 12.5679 78.7179 11.9355 77.6822 11.9355C76.6295 11.9355 75.922 12.5679 75.9322 13.5215ZM29.0604 14.5503C28.0247 14.5503 27.2796 15.2476 27.2796 16.4644L27.2796 21L25.7928 21L25.7928 13.3643L27.2215 13.3643L27.2215 14.605L27.3138 14.605C27.6693 13.7949 28.4178 13.2651 29.5662 13.2651C31.1282 13.2651 32.1673 14.2529 32.1673 16.1431L32.1673 21L30.6805 21L30.6805 16.3208C30.6805 15.2134 30.0687 14.5503 29.0604 14.5503ZM40.4736 13.2651C42.1245 13.2651 43.0542 14.041 43.3652 15.2271L42.0151 15.4663C41.8408 14.9536 41.4135 14.4409 40.4907 14.4409C39.6464 14.4409 39.0073 14.8613 39.0141 15.4458C39.0073 15.9653 39.373 16.2456 40.2104 16.4473L41.4238 16.7241C42.8251 17.0488 43.5122 17.7153 43.5122 18.792C43.5122 20.1763 42.2338 21.1538 40.3916 21.1538C38.6757 21.1538 37.5512 20.395 37.3017 19.0415L38.7407 18.8228C38.9184 19.5747 39.4892 19.9575 40.3813 19.9575C41.3554 19.9575 41.9877 19.4927 41.9877 18.9014C41.9877 18.4263 41.6425 18.0981 40.9077 17.9341L39.6157 17.6504C38.1835 17.3325 37.5273 16.6113 37.5273 15.5278C37.5273 14.1743 38.7509 13.2651 40.4736 13.2651ZM60.0427 19.0894C59.7043 20.3335 58.5285 21.1538 56.8606 21.1538C54.6081 21.1538 53.2273 19.6021 53.2273 17.23C53.2273 14.8853 54.6286 13.2651 56.758 13.2651C58.4875 13.2651 60.1384 14.3418 60.1384 17.1035L60.1384 17.6299L54.7073 17.6299C54.7483 19.0996 55.6028 19.9268 56.8777 19.9268C57.7219 19.9268 58.3679 19.5576 58.6379 18.8364L60.0427 19.0894ZM23.7945 21L22.3077 21L22.3077 13.3643L23.7945 13.3643L23.7945 21ZM35.6418 21L34.155 21L34.155 13.3643L35.6418 13.3643L35.6418 21ZM56.7683 14.4922C55.5583 14.4922 54.7722 15.4321 54.7141 16.5156L58.6824 16.5156C58.6755 15.3467 57.9201 14.4922 56.7683 14.4922ZM62.961 17.1821C62.961 18.7134 63.6515 19.8823 64.981 19.8823C66.2628 19.8823 66.9737 18.7886 66.9737 17.1821C66.9737 15.5859 66.2765 14.5264 64.981 14.5264C63.6378 14.5264 62.961 15.6646 62.961 17.1821ZM75.6143 18.187C75.6041 19.2056 76.4107 19.8823 77.6822 19.8823C78.94 19.8823 79.7398 19.2056 79.7501 18.187C79.7398 17.1274 78.8648 16.3721 77.6822 16.3721C76.4791 16.3721 75.6041 17.1274 75.6143 18.187Z" fill="#FFFFFF" fill-opacity="1.000000" fill-rule="evenodd"/>
	</g>
</svg>
