<svg width="86.000000" height="52.000000" viewBox="0 0 86 52" fill="none" xmlns="http://www.w3.org/2000/svg" xmlns:xlink="http://www.w3.org/1999/xlink">
	<desc>
			Created with Pixso.
	</desc>
	<defs>
		<clipPath id="clip38_6439">
			<rect id="player 2" width="20.000000" height="20.000000" transform="translate(0.000000 16.000000)" fill="white" fill-opacity="0"/>
		</clipPath>
		<clipPath id="clip38_6443">
			<rect id="player 3" width="20.000000" height="20.000000" transform="translate(66.000000 16.000000)" fill="white" fill-opacity="0"/>
		</clipPath>
		<clipPath id="clip38_6447">
			<rect id="sword 1" width="52.000000" height="52.000000" transform="translate(17.000000 0.000000)" fill="white" fill-opacity="0"/>
		</clipPath>
	</defs>
	<rect id="player 2" width="20.000000" height="20.000000" transform="translate(0.000000 16.000000)" fill="#FFFFFF" fill-opacity="0"/>
	<g clip-path="url(#clip38_6439)">
		<path id="Vector" d="M10 16C15.5234 16 20 20.4768 20 26C20 31.5232 15.5234 36 10 36C4.47656 36 0 31.5232 0 26C0 20.4768 4.47656 16 10 16Z" fill="#F8D05F" fill-opacity="1.000000" fill-rule="evenodd"/>
		<path id="Vector" d="M10 21.6C11.5464 21.6 12.8003 22.8535 12.8003 24.4C12.8003 25.9464 11.5464 27.2 10 27.2C8.45361 27.2 7.2002 25.9464 7.2002 24.4C7.2002 22.8535 8.45361 21.6 10 21.6Z" fill="#1F0D15" fill-opacity="1.000000" fill-rule="evenodd"/>
		<path id="Vector" d="M10 28.8C13.7554 28.8 16.8003 31.6001 16.8003 31.6001C16.8003 31.6001 13.7554 34.4 10 34.4C6.24512 34.4 3.2002 31.6001 3.2002 31.6001C3.2002 31.6001 6.24512 28.8 10 28.8Z" fill="#1F0D15" fill-opacity="1.000000" fill-rule="evenodd"/>
	</g>
	<rect id="player 3" width="20.000000" height="20.000000" transform="translate(66.000000 16.000000)" fill="#FFFFFF" fill-opacity="0"/>
	<g clip-path="url(#clip38_6443)">
		<path id="Vector" d="M76 16C81.5234 16 86 20.4768 86 26C86 31.5232 81.5234 36 76 36C70.4766 36 66 31.5232 66 26C66 20.4768 70.4766 16 76 16Z" fill="#F8D05F" fill-opacity="1.000000" fill-rule="evenodd"/>
		<path id="Vector" d="M76 21.6C77.5464 21.6 78.8003 22.8535 78.8003 24.4C78.8003 25.9464 77.5464 27.2 76 27.2C74.4536 27.2 73.2002 25.9464 73.2002 24.4C73.2002 22.8535 74.4536 21.6 76 21.6Z" fill="#1F0D15" fill-opacity="1.000000" fill-rule="evenodd"/>
		<path id="Vector" d="M76 28.8C79.7554 28.8 82.8003 31.6001 82.8003 31.6001C82.8003 31.6001 79.7554 34.4 76 34.4C72.2451 34.4 69.2002 31.6001 69.2002 31.6001C69.2002 31.6001 72.2451 28.8 76 28.8Z" fill="#1F0D15" fill-opacity="1.000000" fill-rule="evenodd"/>
	</g>
	<rect id="sword 1" width="52.000000" height="52.000000" transform="translate(17.000000 0.000000)" fill="#FFFFFF" fill-opacity="0"/>
	<g clip-path="url(#clip38_6447)">
		<path id="Vector" d="M68.4014 45.271L67.6133 44.4828C66.8916 43.7612 65.7627 43.6989 64.9634 44.2859L56.0791 35.4017C56.7554 34.2856 57.2324 33.0569 57.4785 31.7587C57.6304 30.9608 57.417 30.1526 56.894 29.5413C56.3809 28.942 55.6353 28.6151 54.8442 28.6377C54.0249 28.6646 53.2944 29.08 52.8359 29.7052L49.1323 26.0015L65.6646 9.46802C65.7505 9.38208 65.8174 9.27979 65.8608 9.16711L68.9419 1.18042C69.0649 0.860474 68.9888 0.497925 68.7456 0.255127C68.5029 0.0123291 68.1387 -0.0648193 67.8203 0.059082L59.835 3.14026C59.7212 3.18359 59.6187 3.25122 59.5332 3.33618L43.0005 19.8698L26.4668 3.33618C26.3809 3.25134 26.2788 3.18359 26.166 3.14026L18.1792 0.059082C17.8599 -0.0648193 17.4966 0.0123291 17.2539 0.255127C17.0112 0.497925 16.9351 0.860474 17.0581 1.18042L20.1392 9.16711C20.1826 9.27979 20.249 9.38208 20.335 9.46802L36.8687 26.0015L33.1641 29.7052C32.7051 29.08 31.9751 28.6646 31.1558 28.6377C30.3589 28.6134 29.6191 28.942 29.1064 29.5413C28.583 30.1526 28.3696 30.9608 28.521 31.7587C28.7666 33.0542 29.2437 34.2804 29.9224 35.3999L21.0366 44.2858C20.2373 43.6997 19.1089 43.7611 18.3867 44.4827L17.5991 45.271C16.8022 46.0679 16.8022 47.3651 17.5991 48.1621L20.8389 51.4019C21.2378 51.8008 21.7617 52.0002 22.2856 52.0002C22.8086 52.0002 23.332 51.8008 23.731 51.4019L24.5186 50.6145C25.2407 49.8922 25.3018 48.764 24.7163 47.9645L33.5811 39.0994C34.7588 39.8286 36.0674 40.3359 37.4561 40.5908C37.6069 40.6185 37.7578 40.6316 37.9082 40.6316C38.5015 40.6316 39.0811 40.42 39.5474 40.0247C40.1499 39.5121 40.4883 38.7646 40.4727 37.9702C40.4561 37.084 39.9912 36.2966 39.2915 35.8422L43.0005 32.1333L46.7095 35.8422C46.0088 36.2965 45.5439 37.0847 45.5273 37.9745C45.5127 38.7645 45.8501 39.512 46.4526 40.0245C46.9199 40.4199 47.4995 40.6315 48.0928 40.6315C48.2427 40.6315 48.3945 40.6185 48.5454 40.5907C49.9336 40.3358 51.2422 39.8285 52.4189 39.0992L61.2837 47.9644C61.0273 48.3129 60.8833 48.7283 60.8833 49.1688C60.8833 49.7152 61.0957 50.2285 61.4814 50.6144L62.269 51.4017C62.668 51.8007 63.1914 52.0001 63.7153 52.0001C64.2383 52.0001 64.7622 51.8007 65.1611 51.4017L68.4009 48.1628C68.7866 47.7761 69 47.2627 69 46.7164C69 46.1703 68.7866 45.656 68.4014 45.271ZM23.5112 46.7166L22.2852 45.4895L30.918 36.856L31.5552 37.4933L31.563 37.502C31.5649 37.5037 31.5674 37.5054 31.5693 37.5071L32.145 38.0829L23.5112 46.7166ZM60.6299 4.6925L66.6196 2.38232L64.3086 8.37097L47.9058 24.7753L46.6787 23.5482L61.8325 8.39514C62.1709 8.05615 62.1709 7.5072 61.8325 7.16907C61.4937 6.82996 60.9448 6.82996 60.6064 7.16907L45.4526 22.3219L44.2266 21.0958L60.6299 4.6925ZM37.4712 35.2091C37.1133 35.0825 36.7749 34.9169 36.4487 34.7279C36.3311 34.6576 36.2139 34.5865 36.1001 34.5084C36.0103 34.4478 35.9199 34.3862 35.833 34.3203C35.6201 34.1572 35.4106 33.9865 35.2148 33.7948C35.0327 33.61 34.8706 33.4124 34.7163 33.2095C34.6372 33.1045 34.5645 32.9961 34.4937 32.886C34.4355 32.7993 34.3809 32.71 34.3276 32.6206C34.2378 32.4646 34.1499 32.3068 34.0757 32.1428C34.0684 32.1289 34.0635 32.1141 34.0571 32.1003C33.9688 31.9043 33.8901 31.7032 33.8242 31.4976L38.0947 27.2277L41.7734 30.9071L37.4712 35.2091ZM24.168 8.39526C23.8286 8.05627 23.8286 7.50732 24.168 7.16907C24.5063 6.82996 25.0552 6.82996 25.394 7.16907L48.8311 30.6062C49.1704 30.9452 49.1704 31.4941 48.8311 31.8324C48.6621 32.0023 48.4399 32.0864 48.2183 32.0864C47.9961 32.0864 47.7739 32.0022 47.605 31.8324L24.168 8.39526ZM55.7749 31.4352C55.4302 33.2501 54.5591 34.9082 53.2427 36.2428L53.2051 36.281C51.8662 37.6163 50.1006 38.5416 48.231 38.8851C47.9199 38.9432 47.6855 38.7949 47.5757 38.7021C47.3711 38.5286 47.2563 38.2745 47.2617 38.0032C47.2686 37.5956 47.5479 37.2505 47.9253 37.181C48.1167 37.1464 48.3013 37.0822 48.4897 37.0319C48.4966 37.0302 48.5024 37.0309 48.5098 37.0292C48.5215 37.0258 48.5322 37.0205 48.5439 37.0171C48.834 36.9381 49.1172 36.8436 49.3965 36.73C49.4722 36.6996 49.5459 36.665 49.6196 36.6328C49.8442 36.5322 50.0669 36.4299 50.2827 36.3076C50.4492 36.2157 50.6079 36.1082 50.7686 36.0033C50.8994 35.9166 51.0332 35.8386 51.1606 35.7432C51.4551 35.5247 51.7397 35.287 52.0088 35.0234L52.0171 35.0148C52.0181 35.0139 52.019 35.0139 52.02 35.0121C52.0361 34.9965 52.0483 34.9774 52.064 34.9609C52.2974 34.72 52.5151 34.4667 52.7129 34.1987C52.8662 33.994 52.9946 33.7764 53.1245 33.5596C53.1704 33.4833 53.2227 33.4121 53.2651 33.3341C53.417 33.0601 53.5435 32.7758 53.6597 32.486C53.6689 32.4609 53.6821 32.4366 53.6919 32.4114C53.8081 32.1096 53.8999 31.8009 53.9761 31.4861C53.9795 31.4696 53.9863 31.455 53.9902 31.4385C53.9917 31.4341 53.9912 31.429 53.9917 31.4237C54.0215 31.298 54.0654 31.1783 54.0879 31.0509C54.1548 30.6702 54.4966 30.384 54.9004 30.371C54.9102 30.3701 54.9204 30.3701 54.9302 30.3701C55.269 30.3701 55.48 30.5557 55.5762 30.6683C55.7554 30.8776 55.8276 31.1578 55.7749 31.4352ZM67.1743 46.936L63.9346 50.1758C63.8135 50.2964 63.6157 50.2972 63.4961 50.1758L62.7075 49.3884C62.6289 49.3094 62.6177 49.2167 62.6177 49.1691C62.6177 49.1213 62.6289 49.0286 62.7085 48.9497L63.1016 48.5559L65.5547 46.1036L65.9482 45.709C66.0088 45.6492 66.0889 45.6188 66.168 45.6188C66.2476 45.6188 66.3267 45.6492 66.3872 45.709L67.1743 46.4973C67.2534 46.5763 67.2656 46.6681 67.2656 46.7167C67.2656 46.7643 67.2534 46.8571 67.1743 46.936Z" fill="#FFD762" fill-opacity="1.000000" fill-rule="nonzero"/>
	</g>
</svg>
