<svg width="21.000000" height="21.000000" viewBox="0 0 21 21" fill="none" xmlns="http://www.w3.org/2000/svg" xmlns:xlink="http://www.w3.org/1999/xlink">
	<desc>
			Created with Pixso.
	</desc>
	<defs>
		<clipPath id="clip240_1105">
			<rect id="bank-svgrepo-com 1" width="21.000000" height="21.000000" fill="white" fill-opacity="0"/>
		</clipPath>
	</defs>
	<rect id="bank-svgrepo-com 1" width="21.000000" height="21.000000" fill="#FFFFFF" fill-opacity="0"/>
	<g clip-path="url(#clip240_1105)">
		<path id="Vector" d="M10.49 3.16L18.78 5.68L18.78 6.61L2.21 6.61L2.21 5.68L10.49 3.16ZM10.49 2.21L1.31 5.01L1.31 7.52L19.68 7.52L19.68 5.01L10.49 2.21ZM2.31 17.05L18.68 17.05L18.68 17.37L2.31 17.37L2.31 17.05Z" fill="#960E89" fill-opacity="1.000000" fill-rule="nonzero"/>
		<path id="Vector" d="M2.31 8.02L18.68 8.02L18.68 8.34L2.31 8.34L2.31 8.02Z" fill="#960E89" fill-opacity="1.000000" fill-rule="nonzero"/>
		<path id="Vector" d="M1.31 17.87L19.67 17.87L19.67 18.78L1.31 18.78L1.31 17.87ZM4.18 9.75L4.18 15.64L5.25 15.64L5.25 16.54L2.79 16.54L2.79 15.64L3.85 15.64L3.85 9.75L2.79 9.75L2.79 8.85L5.25 8.85L5.25 9.75L4.18 9.75ZM8.5 9.75L8.5 15.64L9.57 15.64L9.57 16.54L7.11 16.54L7.11 15.64L8.17 15.64L8.17 9.75L7.11 9.75L7.11 8.85L9.57 8.85L9.57 9.75L8.5 9.75ZM12.82 9.75L12.82 15.64L13.88 15.64L13.88 16.54L11.42 16.54L11.42 15.64L12.49 15.64L12.49 9.75L11.42 9.75L11.42 8.85L13.88 8.85L13.88 9.75L12.82 9.75ZM17.14 9.75L17.14 15.64L18.2 15.64L18.2 16.54L15.74 16.54L15.74 15.64L16.81 15.64L16.81 9.75L15.74 9.75L15.74 8.85L18.2 8.85L18.2 9.75L17.14 9.75Z" fill="#960E89" fill-opacity="1.000000" fill-rule="nonzero"/>
	</g>
</svg>
