<svg width="120.000488" height="35.744629" viewBox="0 0 120 35.7446" fill="none" xmlns="http://www.w3.org/2000/svg" xmlns:xlink="http://www.w3.org/1999/xlink">
	<desc>
			Created with Pixso.
	</desc>
	<defs>
		<clipPath id="clip83_256">
			<rect id="diamond-svgrepo-com (1) 1" width="35.744682" height="35.744682" transform="translate(42.127930 0.000000)" fill="white" fill-opacity="0"/>
		</clipPath>
		<clipPath id="clip83_265">
			<rect id="diamond-svgrepo-com (1) 2" width="22.978724" height="22.978724" transform="translate(19.149414 6.382935)" fill="white" fill-opacity="0"/>
		</clipPath>
		<clipPath id="clip83_274">
			<rect id="diamond-svgrepo-com (1) 4" width="22.978724" height="22.978724" transform="translate(77.872070 6.382935)" fill="white" fill-opacity="0"/>
		</clipPath>
		<clipPath id="clip83_283">
			<rect id="diamond-svgrepo-com (1) 3" width="17.872341" height="17.872341" transform="translate(0.000000 10.212646)" fill="white" fill-opacity="0"/>
		</clipPath>
		<clipPath id="clip83_292">
			<rect id="diamond-svgrepo-com (1) 5" width="17.872341" height="17.872341" transform="translate(102.127930 10.212646)" fill="white" fill-opacity="0"/>
		</clipPath>
	</defs>
	<rect id="diamond-svgrepo-com (1) 1" width="35.744682" height="35.744682" transform="translate(42.127930 0.000000)" fill="#FFFFFF" fill-opacity="0"/>
	<g clip-path="url(#clip83_256)">
		<path id="Vector" d="M42.1279 13.4043L51.064 13.4043L57.7661 32.6171L42.1279 13.4043Z" fill="#66BF95" fill-opacity="1.000000" fill-rule="nonzero"/>
		<path id="Vector" d="M77.8726 13.4043L68.9365 13.4043L62.2344 32.6171L77.8726 13.4043Z" fill="#66BF95" fill-opacity="1.000000" fill-rule="nonzero"/>
		<path id="Vector" d="M60 33.5107L53.2979 13.4043L66.7021 13.4043L60 33.5107Z" fill="#83FFC4" fill-opacity="1.000000" fill-rule="nonzero"/>
		<path id="Vector" d="M51.064 11.1702L42.1279 11.1702L46.5962 4.46802L51.064 11.1702Z" fill="#66BF95" fill-opacity="1.000000" fill-rule="nonzero"/>
		<path id="Vector" d="M77.8726 11.1702L68.9365 11.1702L73.4048 4.46802L77.8726 11.1702Z" fill="#66BF95" fill-opacity="1.000000" fill-rule="nonzero"/>
		<path id="Vector" d="M64.4683 11.1702L55.5322 11.1702L60.0005 4.46802L64.4683 11.1702Z" fill="#66BF95" fill-opacity="1.000000" fill-rule="nonzero"/>
		<path id="Vector" d="M49.5894 4.46802L57.7661 4.46802L53.2979 11.1702L49.5894 4.46802Z" fill="#83FFC4" fill-opacity="1.000000" fill-rule="nonzero"/>
		<path id="Vector" d="M62.2344 4.46802L71.1704 4.46802L66.7026 11.1702L62.2344 4.46802Z" fill="#83FFC4" fill-opacity="1.000000" fill-rule="nonzero"/>
	</g>
	<rect id="diamond-svgrepo-com (1) 2" width="22.978724" height="22.978724" transform="translate(19.149414 6.382935)" fill="#FFFFFF" fill-opacity="0"/>
	<g clip-path="url(#clip83_265)">
		<path id="Vector" d="M19.1494 15L24.894 15L29.2026 27.3511L19.1494 15Z" fill="#66BF95" fill-opacity="1.000000" fill-rule="nonzero"/>
		<path id="Vector" d="M42.1279 15L36.3833 15L32.0747 27.3511L42.1279 15Z" fill="#66BF95" fill-opacity="1.000000" fill-rule="nonzero"/>
		<path id="Vector" d="M30.6387 27.9255L26.3301 15L34.9473 15L30.6387 27.9255Z" fill="#83FFC4" fill-opacity="1.000000" fill-rule="nonzero"/>
		<path id="Vector" d="M24.894 13.5637L19.1494 13.5637L22.022 9.25525L24.894 13.5637Z" fill="#66BF95" fill-opacity="1.000000" fill-rule="nonzero"/>
		<path id="Vector" d="M42.1279 13.5637L36.3833 13.5637L39.2559 9.25525L42.1279 13.5637Z" fill="#66BF95" fill-opacity="1.000000" fill-rule="nonzero"/>
		<path id="Vector" d="M33.5107 13.5637L27.7661 13.5637L30.6387 9.25525L33.5107 13.5637Z" fill="#66BF95" fill-opacity="1.000000" fill-rule="nonzero"/>
		<path id="Vector" d="M23.9463 9.25525L29.2026 9.25525L26.3306 13.5637L23.9463 9.25525Z" fill="#83FFC4" fill-opacity="1.000000" fill-rule="nonzero"/>
		<path id="Vector" d="M32.0747 9.25525L37.8193 9.25525L34.9473 13.5637L32.0747 9.25525Z" fill="#83FFC4" fill-opacity="1.000000" fill-rule="nonzero"/>
	</g>
	<rect id="diamond-svgrepo-com (1) 4" width="22.978724" height="22.978724" transform="translate(77.872070 6.382935)" fill="#FFFFFF" fill-opacity="0"/>
	<g clip-path="url(#clip83_274)">
		<path id="Vector" d="M77.8721 15L83.6167 15L87.9253 27.3511L77.8721 15Z" fill="#66BF95" fill-opacity="1.000000" fill-rule="nonzero"/>
		<path id="Vector" d="M100.851 15L95.1064 15L90.7979 27.3511L100.851 15Z" fill="#66BF95" fill-opacity="1.000000" fill-rule="nonzero"/>
		<path id="Vector" d="M89.3618 27.9255L85.0532 15L93.6704 15L89.3618 27.9255Z" fill="#83FFC4" fill-opacity="1.000000" fill-rule="nonzero"/>
		<path id="Vector" d="M83.6167 13.5637L77.8721 13.5637L80.7446 9.25525L83.6167 13.5637Z" fill="#66BF95" fill-opacity="1.000000" fill-rule="nonzero"/>
		<path id="Vector" d="M100.851 13.5637L95.1064 13.5637L97.979 9.25525L100.851 13.5637Z" fill="#66BF95" fill-opacity="1.000000" fill-rule="nonzero"/>
		<path id="Vector" d="M92.2339 13.5637L86.4893 13.5637L89.3618 9.25525L92.2339 13.5637Z" fill="#66BF95" fill-opacity="1.000000" fill-rule="nonzero"/>
		<path id="Vector" d="M82.6689 9.25525L87.9253 9.25525L85.0532 13.5637L82.6689 9.25525Z" fill="#83FFC4" fill-opacity="1.000000" fill-rule="nonzero"/>
		<path id="Vector" d="M90.7979 9.25525L96.5425 9.25525L93.6704 13.5637L90.7979 9.25525Z" fill="#83FFC4" fill-opacity="1.000000" fill-rule="nonzero"/>
	</g>
	<rect id="diamond-svgrepo-com (1) 3" width="17.872341" height="17.872341" transform="translate(0.000000 10.212646)" fill="#FFFFFF" fill-opacity="0"/>
	<g clip-path="url(#clip83_283)">
		<path id="Vector" d="M0 16.9148L4.46826 16.9148L7.81934 26.5212L0 16.9148Z" fill="#960E89" fill-opacity="1.000000" fill-rule="nonzero"/>
		<path id="Vector" d="M17.8726 16.9148L13.4043 16.9148L10.0532 26.5212L17.8726 16.9148Z" fill="#960E89" fill-opacity="1.000000" fill-rule="nonzero"/>
		<path id="Vector" d="M8.93604 26.968L5.58496 16.9148L12.2871 16.9148L8.93604 26.968Z" fill="#960E89" fill-opacity="1.000000" fill-rule="nonzero"/>
		<path id="Vector" d="M4.46826 15.7979L0 15.7979L2.23389 12.4468L4.46826 15.7979Z" fill="#960E89" fill-opacity="1.000000" fill-rule="nonzero"/>
		<path id="Vector" d="M17.8726 15.7979L13.4043 15.7979L15.6382 12.4468L17.8726 15.7979Z" fill="#960E89" fill-opacity="1.000000" fill-rule="nonzero"/>
		<path id="Vector" d="M11.1704 15.7979L6.70215 15.7979L8.93604 12.4468L11.1704 15.7979Z" fill="#960E89" fill-opacity="1.000000" fill-rule="nonzero"/>
		<path id="Vector" d="M3.73096 12.4468L7.81934 12.4468L5.58545 15.7979L3.73096 12.4468Z" fill="#960E89" fill-opacity="1.000000" fill-rule="nonzero"/>
		<path id="Vector" d="M10.0532 12.4468L14.5215 12.4468L12.2871 15.7979L10.0532 12.4468Z" fill="#960E89" fill-opacity="1.000000" fill-rule="nonzero"/>
	</g>
	<rect id="diamond-svgrepo-com (1) 5" width="17.872341" height="17.872341" transform="translate(102.127930 10.212646)" fill="#FFFFFF" fill-opacity="0"/>
	<g clip-path="url(#clip83_292)">
		<path id="Vector" d="M102.128 16.9148L106.596 16.9148L109.947 26.5212L102.128 16.9148Z" fill="#960E89" fill-opacity="1.000000" fill-rule="nonzero"/>
		<path id="Vector" d="M120 16.9148L115.532 16.9148L112.181 26.5212L120 16.9148Z" fill="#960E89" fill-opacity="1.000000" fill-rule="nonzero"/>
		<path id="Vector" d="M111.064 26.968L107.713 16.9148L114.415 16.9148L111.064 26.968Z" fill="#960E89" fill-opacity="1.000000" fill-rule="nonzero"/>
		<path id="Vector" d="M106.596 15.7979L102.128 15.7979L104.362 12.4468L106.596 15.7979Z" fill="#960E89" fill-opacity="1.000000" fill-rule="nonzero"/>
		<path id="Vector" d="M120 15.7979L115.532 15.7979L117.766 12.4468L120 15.7979Z" fill="#960E89" fill-opacity="1.000000" fill-rule="nonzero"/>
		<path id="Vector" d="M113.298 15.7979L108.83 15.7979L111.064 12.4468L113.298 15.7979Z" fill="#960E89" fill-opacity="1.000000" fill-rule="nonzero"/>
		<path id="Vector" d="M105.858 12.4468L109.947 12.4468L107.713 15.7979L105.858 12.4468Z" fill="#960E89" fill-opacity="1.000000" fill-rule="nonzero"/>
		<path id="Vector" d="M112.181 12.4468L116.649 12.4468L114.415 15.7979L112.181 12.4468Z" fill="#960E89" fill-opacity="1.000000" fill-rule="nonzero"/>
	</g>
</svg>
