<svg width="120" height="36" viewBox="0 0 142 43" fill="none" xmlns="http://www.w3.org/2000/svg">
<g clip-path="url(#clip0_350_112)">
<path d="M49.8511 15.8617H60.4255L68.3564 38.5968L49.8511 15.8617Z" fill="#E0A83B"/>
<path d="M92.149 15.8617H81.5745L73.6437 38.5968L92.149 15.8617Z" fill="#E0A83B"/>
<path d="M71.0001 39.6542L63.0692 15.8617H78.9309L71.0001 39.6542Z" fill="#FFF383"/>
<path d="M60.4255 13.2181H49.8511L55.1383 5.28723L60.4255 13.2181Z" fill="#E0A83B"/>
<path d="M92.1489 13.2181H81.5745L86.8617 5.28723L92.1489 13.2181Z" fill="#E0A83B"/>
<path d="M76.2872 13.2181H65.7128L71 5.28723L76.2872 13.2181Z" fill="#E0A83B"/>
<path d="M58.6808 5.28723H68.3564L63.0692 13.2181L58.6808 5.28723Z" fill="#FFF383"/>
<path d="M73.6437 5.28723H84.2181L78.9309 13.2181L73.6437 5.28723Z" fill="#FFF383"/>
</g>
<g clip-path="url(#clip1_350_112)">
<path d="M22.6595 17.75H29.4574L34.5558 32.3654L22.6595 17.75Z" fill="#E0A83B"/>
<path d="M49.851 17.75H43.0531L37.9547 32.3654L49.851 17.75Z" fill="#E0A83B"/>
<path d="M36.2553 33.0452L31.1569 17.75H41.3537L36.2553 33.0452Z" fill="#FFF383"/>
<path d="M29.4574 16.0506H22.6595L26.0585 10.9521L29.4574 16.0506Z" fill="#E0A83B"/>
<path d="M49.8511 16.0506H43.0532L46.4522 10.9521L49.8511 16.0506Z" fill="#E0A83B"/>
<path d="M39.6542 16.0506H32.8563L36.2553 10.9521L39.6542 16.0506Z" fill="#E0A83B"/>
<path d="M28.3358 10.9521H34.5559L31.1569 16.0506L28.3358 10.9521Z" fill="#FFF383"/>
<path d="M37.9547 10.9521H44.7526L41.3536 16.0506L37.9547 10.9521Z" fill="#FFF383"/>
</g>
<g clip-path="url(#clip2_350_112)">
<path d="M92.1489 17.75H98.9468L104.045 32.3654L92.1489 17.75Z" fill="#E0A83B"/>
<path d="M119.34 17.75H112.542L107.444 32.3654L119.34 17.75Z" fill="#E0A83B"/>
<path d="M105.745 33.0452L100.646 17.75H110.843L105.745 33.0452Z" fill="#FFF383"/>
<path d="M98.9468 16.0506H92.1489L95.5479 10.9521L98.9468 16.0506Z" fill="#E0A83B"/>
<path d="M119.34 16.0506H112.543L115.942 10.9521L119.34 16.0506Z" fill="#E0A83B"/>
<path d="M109.144 16.0506H102.346L105.745 10.9521L109.144 16.0506Z" fill="#E0A83B"/>
<path d="M97.8252 10.9521H104.045L100.646 16.0506L97.8252 10.9521Z" fill="#FFF383"/>
<path d="M107.444 10.9521H114.242L110.843 16.0506L107.444 10.9521Z" fill="#FFF383"/>
</g>
<g clip-path="url(#clip3_350_112)">
<path d="M0 20.016H5.28723L9.25266 31.3835L0 20.016Z" fill="#E0A83B"/>
<path d="M21.1489 20.016H15.8617L11.8962 31.3835L21.1489 20.016Z" fill="#E0A83B"/>
<path d="M10.5744 31.9123L6.60901 20.016H14.5399L10.5744 31.9123Z" fill="#FFF383"/>
<path d="M5.28723 18.6942H0L2.64362 14.7288L5.28723 18.6942Z" fill="#E0A83B"/>
<path d="M21.1489 18.6942H15.8617L18.5053 14.7288L21.1489 18.6942Z" fill="#E0A83B"/>
<path d="M13.2181 18.6942H7.93091L10.5745 14.7288L13.2181 18.6942Z" fill="#E0A83B"/>
<path d="M4.41479 14.7288H9.25261L6.609 18.6942L4.41479 14.7288Z" fill="#FFF383"/>
<path d="M11.8962 14.7288H17.1835L14.5399 18.6942L11.8962 14.7288Z" fill="#FFF383"/>
</g>
<g clip-path="url(#clip4_350_112)">
<path d="M120.851 20.016H126.138L130.104 31.3835L120.851 20.016Z" fill="#E0A83B"/>
<path d="M142 20.016H136.713L132.747 31.3835L142 20.016Z" fill="#E0A83B"/>
<path d="M131.426 31.9123L127.46 20.016H135.391L131.426 31.9123Z" fill="#FFF383"/>
<path d="M126.138 18.6942H120.851L123.495 14.7288L126.138 18.6942Z" fill="#E0A83B"/>
<path d="M142 18.6942H136.713L139.356 14.7288L142 18.6942Z" fill="#E0A83B"/>
<path d="M134.069 18.6942H128.782L131.426 14.7288L134.069 18.6942Z" fill="#E0A83B"/>
<path d="M125.266 14.7288H130.104L127.46 18.6942L125.266 14.7288Z" fill="#FFF383"/>
<path d="M132.747 14.7288H138.035L135.391 18.6942L132.747 14.7288Z" fill="#FFF383"/>
</g>
<defs>
<clipPath id="clip0_350_112">
<rect width="42.2979" height="42.2979" fill="white" transform="translate(49.8511)"/>
</clipPath>
<clipPath id="clip1_350_112">
<rect width="27.1915" height="27.1915" fill="white" transform="translate(22.6595 7.55322)"/>
</clipPath>
<clipPath id="clip2_350_112">
<rect width="27.1915" height="27.1915" fill="white" transform="translate(92.1489 7.55322)"/>
</clipPath>
<clipPath id="clip3_350_112">
<rect width="21.1489" height="21.1489" fill="white" transform="translate(0 12.0851)"/>
</clipPath>
<clipPath id="clip4_350_112">
<rect width="21.1489" height="21.1489" fill="white" transform="translate(120.851 12.0851)"/>
</clipPath>
</defs>
</svg>
