<svg width="190.000000" height="59.742310" viewBox="0 0 190 59.7423" fill="none" xmlns="http://www.w3.org/2000/svg" xmlns:xlink="http://www.w3.org/1999/xlink">
	<desc>
			Created with Pixso.
	</desc>
	<defs>
		<filter id="filter_302_1549_dd" x="-8.000000" y="-8.000000" width="206.000000" height="75.742310" filterUnits="userSpaceOnUse" color-interpolation-filters="sRGB">
			<feFlood flood-opacity="0" result="BackgroundImageFix"/>
			<feColorMatrix in="SourceAlpha" type="matrix" values="0 0 0 0 0 0 0 0 0 0 0 0 0 0 0 0 0 0 127 0" result="hardAlpha"/>
			<feOffset dx="0" dy="0"/>
			<feGaussianBlur stdDeviation="2.66667"/>
			<feComposite in2="hardAlpha" operator="out" k2="-1" k3="1"/>
			<feColorMatrix type="matrix" values="0 0 0 0 0.96863 0 0 0 0 0.82353 0 0 0 0 0.38039 0 0 0 1 0"/>
			<feBlend mode="normal" in2="BackgroundImageFix" result="effect_dropShadow_1"/>
			<feBlend mode="normal" in="SourceGraphic" in2="effect_dropShadow_1" result="shape"/>
		</filter>
		<clipPath id="clip302_1550">
			<rect id="sword 1" width="33.000000" height="33.000000" transform="translate(11.878174 13.878296)" fill="white" fill-opacity="0"/>
		</clipPath>
		<filter id="filter_302_1554_dd" x="54.438721" y="25.446655" width="119.752563" height="14.711914" filterUnits="userSpaceOnUse" color-interpolation-filters="sRGB">
			<feFlood flood-opacity="0" result="BackgroundImageFix"/>
			<feColorMatrix in="SourceAlpha" type="matrix" values="0 0 0 0 0 0 0 0 0 0 0 0 0 0 0 0 0 0 127 0" result="hardAlpha"/>
			<feOffset dx="0" dy="2"/>
			<feGaussianBlur stdDeviation="0.666667"/>
			<feComposite in2="hardAlpha" operator="out" k2="-1" k3="1"/>
			<feColorMatrix type="matrix" values="0 0 0 0 0 0 0 0 0 0 0 0 0 0 0 0 0 0 0.5 0"/>
			<feBlend mode="normal" in2="BackgroundImageFix" result="effect_dropShadow_1"/>
			<feBlend mode="normal" in="SourceGraphic" in2="effect_dropShadow_1" result="shape"/>
		</filter>
		<clipPath id="clip11_4">
			<rect id="фрейм 1" width="190.000000" height="59.742310" fill="white" fill-opacity="0"/>
		</clipPath>
		<linearGradient x1="0.000000" y1="59.742279" x2="190.000000" y2="59.742279" id="paint_linear_302_1549_0" gradientUnits="userSpaceOnUse">
			<stop stop-color="#A7904C"/>
			<stop offset="0.534524" stop-color="#F1CC5E"/>
			<stop offset="1.000000" stop-color="#9E8A4D"/>
		</linearGradient>
	</defs>
	<g clip-path="url(#clip11_4)">
		<g filter="url(#filter_302_1549_dd)">
			<path id="Vector" d="M188.04 50.92L51.05 50.92C45.64 56.37 38.15 59.74 29.87 59.74C13.37 59.74 0 46.36 0 29.87C0 13.37 13.37 0 29.87 0C38.15 0 45.64 3.37 51.05 8.81L188.04 8.81C189.12 8.81 190 9.69 190 10.77L190 48.96C190 50.05 189.12 50.92 188.04 50.92Z" fill="#22041E" fill-opacity="1.000000" fill-rule="evenodd"/>
			<path id="Vector" d="M51.05 50.92L188.04 50.92C189.12 50.92 190 50.05 190 48.96L190 10.77C190 9.69 189.12 8.81 188.04 8.81L51.05 8.81C45.64 3.37 38.15 0 29.87 0C13.37 0 0 13.37 0 29.87C0 46.36 13.37 59.74 29.87 59.74C38.15 59.74 45.64 56.37 51.05 50.92ZM188 48.92L50.22 48.92L49.63 49.51C46.9 52.26 43.89 54.32 40.59 55.69C37.3 57.05 33.73 57.74 29.87 57.74C26.02 57.74 22.45 57.06 19.17 55.7C15.88 54.34 12.88 52.29 10.16 49.57C7.44 46.85 5.4 43.85 4.04 40.57C2.68 37.28 2 33.71 2 29.87C2 26.02 2.68 22.45 4.04 19.17C5.4 15.88 7.44 12.88 10.16 10.16C12.88 7.44 15.88 5.4 19.17 4.04C22.45 2.68 26.02 2 29.87 2C33.73 2 37.3 2.68 40.59 4.05C43.89 5.42 46.9 7.47 49.63 10.22L50.22 10.81L188 10.81L188 48.92Z" fill="url(#paint_linear_302_1549_0)" fill-opacity="1.000000" fill-rule="evenodd"/>
		</g>
		<rect id="sword 1" width="33.000000" height="33.000000" transform="translate(11.878174 13.878296)" fill="#FFFFFF" fill-opacity="0"/>
		<g clip-path="url(#clip302_1550)">
			<path id="Vector" d="M44.49 42.6L43.99 42.1C43.54 41.64 42.82 41.61 42.31 41.98L36.67 36.34C37.1 35.63 37.41 34.85 37.56 34.03C37.66 33.52 37.52 33.01 37.19 32.62C36.87 32.24 36.39 32.03 35.89 32.05C35.37 32.06 34.91 32.33 34.62 32.72L32.26 30.37L42.76 19.88C42.81 19.83 42.85 19.76 42.88 19.69L44.84 14.62C44.91 14.42 44.87 14.19 44.71 14.04C44.56 13.88 44.33 13.83 44.12 13.91L39.06 15.87C38.98 15.89 38.92 15.94 38.87 15.99L28.37 26.48L17.88 15.99C17.83 15.94 17.76 15.89 17.69 15.87L12.62 13.91C12.42 13.83 12.19 13.88 12.03 14.04C11.88 14.19 11.83 14.42 11.91 14.62L13.87 19.69C13.89 19.76 13.94 19.83 13.99 19.88L24.48 30.37L22.13 32.72C21.84 32.33 21.38 32.06 20.86 32.05C20.35 32.03 19.88 32.24 19.56 32.62C19.22 33.01 19.09 33.52 19.18 34.03C19.34 34.85 19.64 35.63 20.07 36.34L14.44 41.98C13.93 41.61 13.21 41.64 12.75 42.1L12.25 42.6C11.75 43.11 11.75 43.93 12.25 44.44L14.31 46.49C14.56 46.75 14.9 46.87 15.23 46.87C15.56 46.87 15.89 46.75 16.14 46.49L16.64 45.99C17.1 45.54 17.14 44.82 16.77 44.31L22.4 38.69C23.14 39.15 23.97 39.47 24.85 39.63C24.95 39.65 25.05 39.66 25.14 39.66C25.52 39.66 25.89 39.52 26.18 39.27C26.56 38.95 26.78 38.47 26.77 37.97C26.76 37.41 26.46 36.91 26.02 36.62L28.37 34.27L30.73 36.62C30.28 36.91 29.99 37.41 29.98 37.97C29.97 38.47 30.18 38.95 30.56 39.27C30.86 39.52 31.23 39.66 31.61 39.66C31.7 39.66 31.8 39.65 31.89 39.63C32.77 39.47 33.6 39.15 34.35 38.69L39.98 44.31C39.81 44.53 39.72 44.8 39.72 45.08C39.72 45.42 39.86 45.75 40.1 45.99L40.6 46.49C40.85 46.75 41.19 46.87 41.52 46.87C41.85 46.87 42.18 46.75 42.44 46.49L44.49 44.44C44.74 44.19 44.87 43.87 44.87 43.52C44.87 43.17 44.74 42.85 44.49 42.6ZM16.01 43.52L15.23 42.74L20.71 37.26L21.11 37.67L21.12 37.67C21.12 37.67 21.12 37.67 21.12 37.68L21.48 38.04L16.01 43.52ZM39.56 16.85L43.36 15.39L41.9 19.19L31.49 29.6L30.71 28.82L40.32 19.2C40.54 18.99 40.54 18.64 40.32 18.42C40.11 18.21 39.76 18.21 39.55 18.42L29.93 28.04L29.15 27.26L39.56 16.85ZM24.86 36.22C24.64 36.14 24.42 36.03 24.22 35.91C24.14 35.87 24.07 35.82 23.99 35.77C23.94 35.73 23.88 35.7 23.83 35.65C23.69 35.55 23.56 35.44 23.43 35.32C23.32 35.2 23.21 35.08 23.12 34.95C23.07 34.88 23.02 34.81 22.97 34.74C22.94 34.69 22.9 34.63 22.87 34.57C22.81 34.48 22.76 34.38 22.71 34.27C22.71 34.26 22.7 34.25 22.7 34.24C22.64 34.12 22.59 33.99 22.55 33.86L25.26 31.15L27.59 33.49L24.86 36.22ZM16.42 19.2C16.21 18.99 16.21 18.64 16.42 18.42C16.64 18.21 16.99 18.21 17.2 18.42L32.07 33.3C32.29 33.51 32.29 33.86 32.07 34.07C31.97 34.18 31.83 34.24 31.68 34.24C31.54 34.24 31.4 34.18 31.3 34.07L16.42 19.2ZM36.48 33.82C36.26 34.97 35.71 36.03 34.87 36.87L34.85 36.9C34 37.75 32.88 38.33 31.69 38.55C31.5 38.59 31.35 38.49 31.28 38.43C31.15 38.32 31.07 38.16 31.08 37.99C31.08 37.73 31.26 37.51 31.5 37.47C31.62 37.45 31.74 37.41 31.86 37.37C31.86 37.37 31.87 37.37 31.87 37.37C31.88 37.37 31.88 37.37 31.89 37.36C32.08 37.31 32.26 37.25 32.43 37.18C32.48 37.16 32.53 37.14 32.57 37.12C32.72 37.06 32.86 36.99 33 36.91C33.1 36.86 33.2 36.79 33.3 36.72C33.39 36.67 33.47 36.62 33.55 36.56C33.74 36.42 33.92 36.27 34.09 36.1L34.1 36.09C34.1 36.09 34.1 36.09 34.1 36.09C34.11 36.08 34.12 36.07 34.13 36.06C34.27 35.91 34.41 35.75 34.54 35.58C34.63 35.45 34.72 35.31 34.8 35.17C34.83 35.12 34.86 35.08 34.89 35.03C34.98 34.85 35.06 34.67 35.14 34.49C35.14 34.47 35.15 34.46 35.16 34.44C35.23 34.25 35.29 34.05 35.34 33.85C35.34 33.84 35.35 33.84 35.35 33.82C35.35 33.82 35.35 33.82 35.35 33.82C35.37 33.74 35.4 33.66 35.41 33.58C35.45 33.34 35.67 33.16 35.93 33.15C35.93 33.15 35.94 33.15 35.94 33.15C36.16 33.15 36.29 33.26 36.35 33.34C36.47 33.47 36.51 33.65 36.48 33.82ZM43.71 43.66L41.66 45.72C41.58 45.79 41.46 45.79 41.38 45.72L40.88 45.22C40.83 45.17 40.82 45.11 40.82 45.08C40.82 45.05 40.83 44.99 40.88 44.94L41.13 44.69L42.69 43.13L42.94 42.88C42.98 42.84 43.03 42.82 43.08 42.82C43.13 42.82 43.18 42.84 43.22 42.88L43.71 43.38C43.76 43.43 43.77 43.49 43.77 43.52C43.77 43.55 43.76 43.61 43.71 43.66Z" fill="#FFD762" fill-opacity="1.000000" fill-rule="nonzero"/>
		</g>
		<g filter="url(#filter_302_1554_dd)">
			<path id="BATTLE ROOM" d="M137.07 34.65Q137.52 35.09 138.07 35.43C138.86 35.91 139.74 36.15 140.7 36.15Q141.65 36.15 142.49 35.85Q142.92 35.69 143.32 35.45Q143.8 35.16 144.2 34.8Q144.8 34.26 145.24 33.54C145.73 32.73 145.98 31.83 145.98 30.81C145.98 29.8 145.73 28.89 145.24 28.07Q144.75 27.26 144.07 26.67Q143.72 26.38 143.32 26.14C142.54 25.68 141.66 25.44 140.7 25.44C139.74 25.44 138.86 25.69 138.07 26.19C137.27 26.68 136.64 27.34 136.15 28.15Q135.84 28.67 135.67 29.22Q135.42 29.99 135.42 30.83Q135.42 31.72 135.7 32.52Q135.87 33.03 136.15 33.49Q136.54 34.14 137.07 34.65ZM148.46 34.65Q148.91 35.09 149.46 35.43C150.26 35.91 151.13 36.15 152.1 36.15Q153.05 36.15 153.89 35.85Q154.32 35.69 154.72 35.45Q155.19 35.16 155.6 34.8Q156.2 34.26 156.64 33.54C157.13 32.73 157.37 31.83 157.37 30.81C157.37 29.8 157.13 28.89 156.64 28.07Q156.15 27.26 155.47 26.67Q155.12 26.38 154.72 26.14C153.93 25.68 153.06 25.44 152.1 25.44C151.13 25.44 150.26 25.69 149.46 26.19C148.67 26.68 148.03 27.34 147.55 28.15Q147.24 28.67 147.06 29.22Q146.82 29.99 146.82 30.83Q146.82 31.72 147.09 32.52Q147.26 33.03 147.55 33.49Q147.94 34.14 148.46 34.65ZM77.36 35.24L76.59 35.24Q76.32 35.2 76.13 35.05Q75.92 34.89 75.82 34.6L72.58 25.51L71.31 25.51L68.07 34.6C68.01 34.76 67.91 34.9 67.77 35.02C67.62 35.14 67.46 35.21 67.3 35.24L66.6 35.24L66.6 35.87L70.25 35.87L70.25 35.24L69.41 35.24C69.24 35.21 69.11 35.15 69.02 35.05C68.92 34.96 68.88 34.86 68.88 34.77L68.88 34.6L69.75 32.12L73.67 32.12L74.56 34.6L74.56 34.78C74.56 34.87 74.52 34.96 74.44 35.08C74.36 35.19 74.23 35.24 74.03 35.24L73.19 35.24L73.19 35.87L77.36 35.87L77.36 35.24ZM83.96 34.67L83.96 26.86Q83.99 26.63 84.11 26.47Q84.21 26.33 84.38 26.24L86.03 26.24Q86.89 26.24 87.27 26.67Q87.57 27.01 87.57 27.61L87.57 28.09L88.18 28.09L88.18 25.57L78.48 25.57L78.48 28.09L79.1 28.09L79.1 27.61Q79.1 27.39 79.18 27.2Q79.61 26.24 82.18 26.24C82.37 26.3 82.52 26.43 82.61 26.63L82.61 34.61C82.58 34.76 82.5 34.9 82.39 35.02C82.28 35.14 82.14 35.21 81.97 35.23L80.64 35.23L80.64 35.87L86.01 35.87L86.01 35.2L84.46 35.2C84.29 35.18 84.12 35.01 83.96 34.67ZM94.78 34.67L94.78 26.86Q94.81 26.63 94.93 26.47Q95.03 26.33 95.2 26.24L96.85 26.24Q97.71 26.24 98.09 26.67Q98.39 27.01 98.39 27.61L98.39 28.09L99.01 28.09L99.01 25.57L89.31 25.57L89.31 28.09L89.92 28.09L89.92 27.61C89.92 26.7 90.95 26.24 93 26.24C93.2 26.3 93.34 26.43 93.43 26.63L93.43 34.61C93.4 34.76 93.32 34.9 93.21 35.02C93.1 35.14 92.96 35.21 92.79 35.23L91.46 35.23L91.46 35.87L96.84 35.87L96.84 35.2L95.28 35.2C95.12 35.18 94.95 35.01 94.78 34.67ZM134.44 35.24L133.66 35.24C133.18 35.24 132.84 35.12 132.62 34.87L129.74 31.22C131.53 31.04 132.42 30.15 132.42 28.55C132.42 27.69 132.13 26.98 131.55 26.42C130.97 25.85 130.17 25.57 129.15 25.57L124.07 25.57L124.07 26.2L124.99 26.2Q125.18 26.2 125.32 26.28Q125.4 26.32 125.47 26.4C125.6 26.53 125.66 26.67 125.66 26.83L125.66 34.84C125.66 34.95 125.6 35.05 125.47 35.12C125.35 35.2 125.22 35.24 125.08 35.24L124.07 35.24L124.07 35.87L128.6 35.87L128.6 35.24L127.68 35.24C127.26 35.24 127.05 35.11 127.05 34.84L127.05 31.27L128.3 31.27L131.15 34.87C131.23 34.96 131.26 35.04 131.26 35.1C131.26 35.2 131.17 35.24 130.97 35.24L129.99 35.24L129.99 35.87L134.44 35.87L134.44 35.24ZM64.77 34.6Q65.28 33.9 65.28 32.82Q65.28 31.88 64.82 31.3Q64.74 31.2 64.65 31.11C64.23 30.71 63.65 30.45 62.91 30.34Q63.56 30.15 63.93 29.72Q64.43 29.13 64.43 28.12Q64.43 27.16 63.96 26.57Q63.79 26.36 63.57 26.2C62.99 25.79 62.19 25.58 61.16 25.58L56.43 25.58L56.43 26.21L57.34 26.21Q57.54 26.24 57.68 26.34Q57.74 26.38 57.78 26.43C57.9 26.55 57.97 26.68 58 26.84L58 34.84C57.93 35.05 57.74 35.19 57.43 35.24L56.43 35.24L56.43 35.87L61.16 35.87Q63.82 35.87 64.77 34.6ZM103.46 35.2C103.22 35.07 103.07 34.87 103.03 34.6L103.03 26.77Q103.29 26.28 103.53 26.24L104.68 26.24L104.68 25.58L100.13 25.58L100.13 26.21L101.04 26.21Q101.23 26.24 101.38 26.34Q101.43 26.38 101.48 26.43C101.59 26.55 101.67 26.68 101.7 26.84L101.7 34.84C101.57 35.07 101.38 35.21 101.12 35.24L100.13 35.24L100.13 35.87L108.81 35.87L108.81 33.37L108.18 33.37L108.18 33.84C108.18 34.76 107.66 35.21 106.64 35.21L103.46 35.2ZM116.52 29.13C116.52 29.59 116.29 29.9 115.82 30.05L112.83 30.05L112.83 26.77Q113.09 26.28 113.33 26.24L117.05 26.24C117.48 26.46 117.72 26.69 117.75 26.96L117.75 27.81L118.38 27.81L118.38 25.58L109.93 25.58L109.93 26.21L110.84 26.21Q111.03 26.24 111.18 26.34Q111.23 26.38 111.28 26.43C111.39 26.55 111.47 26.68 111.5 26.84L111.5 34.84C111.37 35.07 111.18 35.21 110.92 35.24L109.93 35.24L109.93 35.87L118.61 35.87L118.61 33.66L117.98 33.66L117.98 34.43Q117.98 34.75 117.82 34.94Q117.64 35.16 117.25 35.21L113.26 35.2C113.02 35.07 112.87 34.87 112.83 34.6L112.83 30.69L115.82 30.69C116.29 30.89 116.52 31.17 116.52 31.53L116.52 32.25L117.15 32.25L117.15 28.49L116.52 28.49L116.52 29.13ZM162.11 35.24C161.31 35.24 160.91 34.96 160.91 34.4L160.91 28.13L165.16 35.57L169.3 27.44L169.3 34.4Q169.3 34.68 169.17 34.87Q168.93 35.21 168.23 35.23L167.73 35.24L167.73 35.87L172.19 35.87L172.19 35.24L171.82 35.24C171.04 35.24 170.65 34.96 170.65 34.4L170.65 27.02C170.65 26.62 170.83 26.39 171.21 26.33L172.19 26.33L172.19 25.69L169.32 25.69L165.34 33.58L160.9 25.69L158.49 25.69L158.49 26.33L159.4 26.33C159.84 26.39 160.06 26.62 160.06 27.02L160.06 34.4C160.06 34.93 159.7 35.21 158.98 35.23L158.49 35.24L158.49 35.87L162.47 35.87L162.47 35.24L162.11 35.24ZM140.32 26.19L140.78 26.19Q141.08 26.19 141.37 26.25Q142.38 26.47 143.23 27.45C143.95 28.3 144.31 29.4 144.31 30.76C144.31 32.13 143.98 33.24 143.32 34.1Q142.75 34.85 142.01 35.16Q141.45 35.4 140.8 35.4Q140.24 35.4 139.73 35.22Q138.87 34.93 138.18 34.12C137.45 33.27 137.09 32.2 137.09 30.89C137.09 29.58 137.43 28.47 138.11 27.56C138.79 26.64 139.53 26.19 140.32 26.19ZM151.72 26.19L152.18 26.19Q152.48 26.19 152.77 26.25Q153.78 26.47 154.62 27.45C155.35 28.3 155.71 29.4 155.71 30.76C155.71 32.13 155.38 33.24 154.72 34.1Q154.15 34.85 153.4 35.16Q152.85 35.4 152.2 35.4Q151.63 35.4 151.13 35.22Q150.26 34.93 149.57 34.12C148.85 33.27 148.48 32.2 148.48 30.89C148.48 29.58 148.82 28.47 149.5 27.56C150.19 26.64 150.92 26.19 151.72 26.19ZM127.05 30.64L127.05 26.76Q127.05 26.64 127.09 26.54Q127.14 26.44 127.22 26.36C127.34 26.25 127.7 26.2 128.3 26.2C128.89 26.2 129.34 26.22 129.63 26.26Q129.95 26.3 130.2 26.46Q130.93 26.95 130.93 28.53Q130.93 29.6 130.39 30.13Q129.88 30.64 128.86 30.64L127.05 30.64ZM62.4 29.68Q62.22 29.81 61.99 29.87C61.52 29.99 61.04 30.05 60.58 30.05L59.33 30.05L59.33 26.77Q59.6 26.28 59.83 26.24C60.06 26.22 60.34 26.21 60.67 26.21C61.01 26.21 61.33 26.23 61.64 26.27C62.51 26.38 62.94 27 62.94 28.13Q62.94 29.27 62.4 29.68ZM73.44 31.46L70 31.46L71.72 26.63L73.44 31.46ZM61.5 30.69Q62.58 30.69 63.05 31.06Q63.74 31.62 63.74 33.05Q63.74 34.02 63.26 34.53Q63.03 34.79 62.68 34.94C62.26 35.11 61.56 35.2 60.59 35.2L59.77 35.2C59.52 35.07 59.38 34.87 59.33 34.6L59.33 30.69L61.5 30.69Z" fill="#FFD762" fill-opacity="1.000000" fill-rule="evenodd"/>
		</g>
	</g>
</svg>
